ply
format ascii 1.0
comment Made by Nomoko
element vertex 3000
property float x
property float y
property float z
end_header
3.87 -4.61 1.62
0.05 1.86 1.63
-0.05 -2.06 4.21
0.94 -0.08 0.58
-3.14 3.36 3.30
0.02 1.32 0.28
2.40 0.18 -1.47
4.26 -3.82 0.86
2.66 0.18 -0.26
2.08 -2.01 1.93
-1.84 4.03 1.23
-4.04 4.80 2.03
1.61 2.12 -2.03
-1.00 3.36 0.13
0.37 1.33 -0.21
0.21 -1.14 2.49
4.56 -3.09 0.18
-0.43 0.27 2.35
0.95 1.27 -0.32
-4.40 4.24 3.26
-1.52 4.24 0.40
-0.15 -1.71 3.77
-1.30 1.28 2.81
5.28 -1.52 -2.30
0.65 -0.63 1.39
1.62 -1.61 2.17
3.50 -1.72 -1.29
2.17 -0.71 0.18
0.80 -2.46 3.78
3.83 -2.05 -0.13
-1.39 5.68 -1.53
4.09 -3.85 0.43
-1.37 5.17 -1.13
0.55 0.30 1.42
3.81 -0.51 -2.06
3.29 -2.44 0.50
-1.72 3.03 0.70
0.68 -0.40 1.58
-4.36 3.66 4.48
2.58 -0.42 0.32
1.47 1.83 -0.55
-1.64 2.98 1.09
2.71 4.91 -4.84
1.14 4.95 -2.42
4.87 -4.08 1.21
3.01 -1.74 0.32
-2.26 -2.22 6.36
2.80 0.72 -2.34
0.66 -2.80 3.39
-2.19 0.03 4.54
-0.23 1.87 0.60
0.83 -1.39 3.41
-1.84 2.56 1.12
2.11 3.51 -2.51
-1.40 3.68 0.79
-2.43 2.16 3.10
-0.19 4.82 -1.58
3.85 1.14 -3.88
-0.47 2.56 -0.18
1.48 1.70 -0.02
3.60 -1.60 -0.71
-0.88 5.66 -1.45
2.26 -3.94 3.86
-1.21 1.90 1.32
-2.68 3.11 1.82
2.90 0.53 -0.92
0.86 -3.95 3.79
-0.77 2.64 0.83
-1.20 1.69 3.10
2.30 -1.04 -0.07
-0.56 -2.22 4.52
3.21 1.25 -3.32
-1.02 0.59 1.73
3.26 -1.22 -0.00
-1.10 0.48 2.35
1.75 0.27 0.52
-1.13 5.77 -2.43
-1.23 -0.54 3.04
-3.58 2.53 3.76
3.90 3.10 -4.53
-0.08 4.35 -0.98
4.12 -3.29 0.60
-0.18 1.55 0.11
0.59 0.63 0.88
-3.52 3.89 1.97
-2.14 2.99 2.43
0.98 2.00 -0.63
1.04 1.88 -0.65
-0.94 5.44 -0.94
0.77 0.74 1.16
-1.08 2.65 0.81
-1.28 0.37 2.93
2.92 -1.47 -0.26
0.01 1.45 1.16
1.24 -2.18 3.55
2.25 -0.25 0.57
1.80 -3.96 3.13
0.26 4.40 -1.26
-2.77 1.26 3.53
2.80 -1.73 0.10
0.56 1.83 0.15
2.26 2.05 -1.61
-0.08 1.40 1.32
-0.53 -2.15 4.59
3.18 -1.66 -0.08
-4.40 2.84 3.80
2.05 -4.47 3.72
2.58 -0.45 0.09
-2.14 3.45 1.98
-3.06 3.18 2.98
2.19 2.74 -2.10
1.04 2.25 -0.73
-1.73 0.36 4.01
1.90 0.79 0.10
-2.09 -0.35 4.45
-0.58 -2.42 5.34
5.61 -4.25 -1.45
-1.33 4.45 -0.53
3.53 0.14 -0.87
-0.38 2.52 1.12
0.77 0.72 1.13
-0.93 2.77 0.06
-0.31 -0.37 3.24
3.56 -1.98 0.22
-1.56 5.72 -1.32
2.91 -2.85 0.66
-0.80 0.16 2.08
4.00 0.71 -2.66
1.39 -2.02 2.45
-2.12 3.37 1.36
-2.24 3.31 2.48
4.24 -2.06 -0.91
-0.54 -1.01 3.49
-0.95 -1.53 4.39
2.69 0.94 -1.17
0.23 -1.00 2.90
0.76 -1.90 2.59
3.65 0.41 -2.59
1.78 -3.55 3.93
-2.27 0.93 3.83
6.36 -0.65 -4.02
1.05 1.70 0.80
-0.71 -1.68 4.91
-0.80 -1.82 4.54
-3.88 3.19 2.70
2.02 -1.72 1.37
-0.78 -0.88 3.28
-0.47 -1.26 4.11
-2.40 -0.73 6.01
0.54 3.06 -1.43
0.36 0.07 1.42
2.92 -4.58 2.92
-1.43 1.83 2.56
2.88 -2.22 1.16
-3.31 2.31 3.13
1.35 1.84 -0.94
2.26 0.53 -0.76
-2.05 3.18 1.37
-0.61 2.61 1.23
-0.03 -0.15 1.95
-0.33 -1.67 3.75
-1.06 -1.49 4.87
-1.18 -3.20 6.53
0.02 1.80 0.47
4.99 -3.82 0.01
1.02 0.33 1.74
-2.70 2.42 1.93
0.22 -2.00 3.61
0.84 -1.74 1.90
2.54 -2.48 1.50
-0.19 -0.89 2.72
-1.43 -0.75 4.29
0.49 -3.27 5.22
1.08 0.55 0.96
0.13 2.85 -0.66
-3.96 4.53 3.05
1.90 2.86 -2.79
-2.87 4.07 1.76
0.18 0.55 2.46
-5.08 4.50 4.41
-2.67 -1.03 5.60
-1.37 -0.67 4.12
1.56 -3.44 3.65
-1.04 2.64 2.27
5.61 0.96 -5.01
2.17 -3.64 3.21
-2.68 0.81 5.53
-0.17 -1.07 3.30
3.04 -0.55 0.03
-1.34 -1.62 5.39
-2.66 -0.22 5.07
1.85 0.53 -0.15
3.49 -2.18 -0.10
-0.34 1.36 0.80
-2.19 4.48 0.61
6.21 -3.29 -1.41
-1.98 4.00 1.41
0.83 0.51 1.42
1.24 -0.12 0.52
-1.08 0.28 2.42
1.17 0.44 1.22
0.80 -2.82 3.42
3.05 2.49 -3.80
1.25 -0.77 0.60
1.41 -0.81 1.71
-0.07 1.39 1.03
-0.77 0.76 2.13
0.81 4.80 -2.42
2.43 -3.78 2.42
1.38 -1.87 2.54
-1.00 1.22 1.76
1.39 -3.74 4.33
3.48 0.36 -1.43
-0.31 1.36 1.64
-1.27 -1.48 4.75
2.21 -0.83 1.17
0.30 -0.80 3.25
3.34 0.90 -2.39
-0.30 0.59 1.98
-2.52 5.52 -0.45
4.88 -1.28 -2.26
1.85 3.75 -3.17
3.35 -5.15 2.54
0.24 4.04 -1.49
-1.88 6.33 -1.12
-1.00 -1.96 4.80
-0.01 3.78 -1.48
-1.30 -0.10 3.38
1.65 1.78 -1.77
-1.83 2.31 1.59
-4.51 2.99 4.56
-0.83 -0.05 2.94
3.13 -1.66 -0.17
-1.13 2.10 1.31
-0.23 4.56 -1.21
4.90 2.39 -4.24
4.40 -1.82 -0.98
3.60 -5.04 1.93
0.95 1.72 0.40
3.45 3.19 -4.21
-1.91 0.85 4.12
4.53 1.58 -4.05
1.34 2.76 -0.80
2.19 1.35 -1.10
-0.39 1.56 1.40
-2.62 -1.77 6.21
-1.00 2.13 1.48
2.98 0.35 -0.90
-2.32 -0.64 5.03
-3.26 3.92 2.52
3.45 -1.42 -0.81
-3.34 4.91 0.89
4.12 -0.66 -2.26
1.05 -2.03 3.25
-2.81 -0.10 5.89
4.99 -2.11 -1.49
3.04 -1.62 0.73
1.78 2.10 -1.92
3.40 -3.37 0.74
-1.32 3.57 1.46
6.04 -3.22 -2.01
3.74 3.18 -5.02
-2.42 1.38 3.39
0.43 1.81 -0.52
-0.33 1.67 0.78
3.33 -2.46 0.05
3.88 3.47 -5.32
3.99 -1.80 -0.44
3.00 0.13 -0.57
0.64 2.26 -0.66
-3.00 2.16 3.38
3.82 0.58 -2.09
6.89 -2.35 -3.45
0.23 1.20 0.05
3.42 -2.30 -0.60
0.13 3.05 -0.16
4.66 3.12 -4.65
3.42 0.01 -0.53
1.61 4.04 -3.64
-4.13 2.51 4.90
-1.73 2.93 1.55
0.54 3.03 -1.18
-3.29 5.49 1.01
1.99 3.06 -2.61
2.95 -1.23 -0.22
0.52 3.11 -1.19
-1.97 1.26 2.33
3.34 -0.49 -0.68
3.03 -0.81 -0.42
3.41 -4.74 1.98
0.69 2.64 -0.86
3.54 -2.69 1.37
-0.68 0.92 1.61
-0.08 3.21 -0.31
1.87 2.35 -1.70
-1.06 0.76 2.80
1.37 0.68 -0.09
1.32 -2.41 2.12
-0.50 0.59 2.75
0.39 1.84 -0.24
-2.08 -2.84 7.03
4.26 -2.77 0.39
4.95 -3.83 0.00
2.73 -3.46 1.78
1.71 2.60 -1.41
0.26 3.95 -0.89
-0.49 2.55 0.38
6.30 -2.96 -2.44
5.65 -2.84 -1.33
1.03 1.52 0.20
-0.17 2.22 0.43
-2.99 1.77 3.27
1.86 1.39 -1.16
-0.28 2.89 -0.38
-1.03 -1.68 5.33
-2.00 2.54 1.87
1.04 -1.67 2.90
0.99 1.52 -0.35
0.35 -1.73 2.86
-1.05 3.54 0.32
-1.97 -1.51 5.87
-2.96 2.23 3.02
-1.20 1.25 2.05
0.03 0.13 2.56
3.81 -1.35 -0.63
1.39 0.06 0.74
-2.16 -0.84 4.99
-1.11 1.22 2.58
2.28 0.51 -1.53
-0.43 -0.23 2.92
1.01 2.31 -0.75
-1.07 4.90 -0.16
-1.68 0.63 3.81
2.70 -1.24 -0.21
3.82 -4.24 1.56
2.36 2.01 -2.46
-1.12 0.24 2.99
-1.30 3.14 1.09
1.91 3.14 -2.32
3.43 1.12 -2.17
-1.59 2.94 0.72
-0.35 2.78 0.14
3.56 -0.79 -0.65
1.37 0.10 0.26
2.71 0.92 -2.28
2.09 3.14 -2.57
2.04 -2.74 2.73
-3.72 1.82 4.73
-0.13 2.52 -0.45
1.07 0.08 0.73
1.19 1.57 -1.35
-3.35 4.22 2.14
-3.88 5.30 2.12
5.06 -1.24 -2.35
1.29 -4.43 5.10
-1.79 1.99 1.99
0.16 4.61 -1.27
4.62 -1.02 -2.45
1.22 -0.87 1.20
1.59 -0.02 0.76
5.21 -3.14 -0.90
-1.27 -0.16 3.42
-3.73 2.95 3.61
3.79 -1.13 -0.97
-1.19 4.97 -2.01
1.29 2.21 -1.62
-0.79 2.77 0.33
-0.25 2.38 0.75
0.26 -2.36 4.27
-0.22 0.20 1.98
3.56 1.53 -3.20
-1.72 -0.51 4.36
-1.26 -2.93 5.87
0.13 -1.20 3.40
0.67 -0.95 2.34
3.30 -1.68 -0.90
3.79 0.74 -2.64
6.43 -3.37 -3.08
-2.12 3.57 0.71
1.70 -3.29 3.59
0.89 -0.24 1.59
-0.12 3.35 -0.05
4.14 -2.50 -0.28
4.97 -3.23 -0.20
-0.73 -2.50 5.02
1.62 -2.45 2.20
-1.14 0.09 3.25
-2.83 2.93 2.68
-1.02 -0.54 3.10
2.63 1.05 -1.30
3.50 4.25 -5.38
-0.43 -3.51 5.17
-2.41 4.17 1.71
4.75 1.02 -3.52
6.61 -2.00 -3.53
1.41 1.29 -0.82
1.87 3.45 -3.33
0.65 5.10 -3.21
5.75 -3.03 -1.25
-1.50 -0.39 3.63
-1.43 4.95 -0.54
1.32 1.08 -0.40
0.06 -3.24 6.01
1.21 -3.21 3.27
-2.26 4.03 1.55
-0.77 4.07 -0.49
1.14 -4.15 3.92
1.32 3.70 -2.20
4.79 -0.42 -2.95
-0.09 -2.83 4.92
1.21 -2.44 3.88
1.38 2.18 -1.40
-0.76 4.85 -1.15
2.99 -4.17 1.48
0.24 2.78 -0.56
-0.53 0.95 1.23
3.28 2.56 -3.38
2.73 -0.22 -0.24
-0.56 0.05 2.46
0.43 -1.88 3.78
2.12 1.50 -0.66
0.61 1.72 0.06
-0.24 0.72 1.36
-0.33 -2.29 4.44
-0.73 1.23 1.51
0.58 -1.24 2.97
5.48 -2.88 -2.09
0.02 -0.41 2.31
2.70 1.50 -1.79
-0.39 -2.64 4.04
-0.02 2.05 -0.25
-0.07 -1.31 2.94
-3.87 2.73 4.14
2.54 -4.37 3.33
1.21 1.22 -0.10
1.39 -1.17 1.77
-0.62 -1.71 4.01
2.52 -2.83 1.76
4.25 -3.64 1.08
2.34 1.28 -1.65
-0.04 -1.24 2.15
-0.88 -1.56 3.94
0.43 4.05 -0.90
3.21 2.33 -2.29
-4.75 4.34 4.01
-2.77 1.46 4.23
1.61 -0.75 1.77
1.99 -0.86 0.79
1.79 0.55 0.24
-0.02 -0.68 2.42
2.97 -0.42 -0.72
-0.65 0.63 2.53
2.98 -1.24 0.14
-1.20 4.70 -0.05
1.97 -0.55 1.02
-0.44 -2.82 4.93
1.39 2.08 -1.66
4.18 -1.44 -1.38
0.22 1.60 -0.23
1.27 1.33 0.25
1.85 -2.23 1.86
-0.72 1.63 1.18
4.90 -0.59 -3.50
-1.55 1.33 1.75
-1.79 1.07 2.96
3.38 -3.56 2.25
1.42 -2.21 3.12
3.48 -1.73 0.14
-1.52 3.56 0.96
2.35 -1.27 0.91
2.16 2.97 -3.29
3.43 2.55 -4.01
-2.15 3.50 0.93
2.43 -0.44 -0.45
1.34 -2.93 3.58
0.65 2.00 -0.62
-1.67 4.56 -0.03
2.65 -2.86 2.02
1.07 3.29 -1.82
0.02 2.00 0.58
-2.41 -1.10 5.50
3.07 -1.49 -0.91
-0.41 0.42 1.23
0.07 1.36 1.22
-2.22 4.28 -0.18
1.43 0.23 0.93
5.37 -1.95 -2.05
-0.42 -0.83 3.08
2.02 -1.24 1.05
3.52 -4.60 2.22
4.41 -4.42 1.28
1.71 1.41 -1.24
0.80 -3.45 4.68
-0.67 0.35 3.41
-4.68 4.19 3.42
0.50 0.35 1.51
3.29 1.02 -2.87
-2.43 1.89 3.59
2.88 -2.23 1.47
4.74 -0.15 -3.39
0.72 3.41 -1.42
3.22 -0.33 -1.41
2.00 -3.63 2.82
4.27 -2.69 -0.07
1.55 2.05 -0.98
-0.14 -2.63 4.85
-2.04 2.36 2.24
-0.02 3.93 -0.91
-2.62 3.61 2.18
1.42 1.20 -0.42
3.15 -2.49 1.90
-0.57 0.72 2.18
4.02 -2.78 -0.26
-0.72 -0.28 3.36
-1.30 1.03 2.67
2.46 2.10 -1.84
-1.92 2.17 2.37
1.25 -0.16 0.87
1.56 -1.18 1.75
-0.26 2.30 1.31
-1.78 0.39 3.17
3.38 0.54 -2.26
-0.17 2.56 0.29
3.36 2.90 -3.92
-0.80 1.43 1.32
-2.07 5.11 0.15
0.44 -0.47 1.88
-3.06 2.42 4.02
-4.14 3.45 2.98
-0.81 4.10 0.08
2.44 -0.68 0.06
1.55 -2.08 2.33
1.69 4.57 -3.60
0.93 0.42 0.57
3.53 -1.03 -1.13
-1.64 -0.12 3.84
-2.36 2.21 1.71
-0.94 -0.34 3.56
0.83 1.82 0.52
4.72 0.20 -2.48
1.07 -0.88 1.48
2.48 -1.15 -0.34
-1.37 3.98 -0.46
4.97 -0.21 -3.28
-2.48 4.89 0.01
1.53 -0.38 1.05
0.06 -0.66 2.93
-2.13 6.77 -1.10
-0.60 -0.37 2.42
3.42 -3.01 0.97
2.81 -3.15 1.59
3.17 -1.55 0.11
-2.15 6.11 -1.45
-1.15 3.80 -0.32
-3.09 2.31 3.09
1.42 -0.77 2.21
1.72 3.16 -1.78
0.30 3.26 -1.24
5.36 -0.88 -2.46
1.96 -1.86 1.92
-2.05 -0.47 4.36
3.32 -0.32 -1.72
0.48 0.41 1.31
2.14 -1.62 1.26
-0.84 6.03 -1.47
-1.07 5.14 -0.62
2.30 2.12 -2.16
-0.49 -2.06 3.94
4.60 -0.47 -1.68
2.60 -1.07 -0.25
1.19 0.89 -0.10
3.34 -3.16 1.89
2.56 -3.79 1.91
1.60 -0.24 0.73
0.42 0.29 1.25
2.99 -3.66 2.52
-1.46 1.21 3.30
2.85 2.12 -2.63
-0.86 -2.26 4.35
4.55 -0.85 -2.41
0.16 2.87 -0.11
1.00 4.22 -2.61
0.44 0.35 0.63
2.33 -0.04 -0.10
4.08 1.38 -3.44
-0.89 -0.60 2.79
-1.73 -0.57 3.81
0.27 -3.93 4.28
0.47 -3.61 5.09
-0.28 -1.38 3.73
2.51 -1.43 -0.18
2.26 3.52 -3.65
-3.61 3.82 3.68
0.61 4.15 -1.74
0.08 2.01 0.82
-0.25 2.22 0.01
-0.25 1.25 1.67
0.91 0.04 0.85
3.85 -2.15 0.64
0.74 -2.27 3.04
2.55 -2.53 1.46
2.39 -2.32 1.71
2.19 0.68 -0.61
1.92 3.68 -3.20
-4.82 2.01 5.14
3.25 -2.61 1.37
1.25 -0.58 1.12
2.75 -0.56 0.50
4.13 0.98 -3.07
-2.00 1.23 2.74
3.57 -1.22 -0.27
-0.50 0.60 3.04
1.58 1.84 -0.93
0.83 5.70 -3.51
-0.07 5.25 -2.06
-0.33 -3.22 5.11
-0.62 4.45 -1.75
-0.02 0.62 1.41
-0.01 -1.58 3.52
3.40 -0.94 -0.45
5.92 -2.56 -1.87
2.45 2.19 -1.66
-2.10 1.71 2.56
-1.49 -0.86 4.60
4.58 -1.98 -1.23
2.65 -0.46 -0.31
2.52 -0.60 -0.86
0.58 2.83 0.05
0.58 1.76 0.51
1.28 0.85 -0.74
1.13 1.83 -1.21
3.66 -2.06 -0.66
-0.48 -1.11 3.94
-0.14 1.87 0.84
-0.20 1.77 0.98
-1.89 -0.25 4.25
-1.67 -2.28 6.08
-0.94 1.83 1.57
1.17 -0.23 1.61
3.03 -1.18 -0.71
3.23 -0.37 -1.56
1.65 1.33 -0.73
3.32 -0.96 -0.31
2.11 1.70 -2.24
1.10 0.39 0.33
-0.66 -0.89 3.59
-2.59 3.66 1.29
0.72 0.28 1.77
-0.21 -1.32 2.92
1.61 -4.32 3.28
3.19 -2.00 0.43
5.36 -1.56 -2.35
-1.18 -0.15 3.50
5.39 -0.15 -4.18
2.44 -3.31 1.51
3.68 -1.71 -0.37
-2.15 -0.96 4.68
-1.42 1.62 2.69
0.30 -3.73 4.62
4.21 -3.74 1.39
-1.68 2.62 2.41
0.43 4.33 -1.44
4.34 -4.37 1.10
1.63 -3.06 3.34
-0.42 3.02 -0.35
-1.38 -0.63 4.24
5.39 -4.98 0.46
4.71 -1.49 -1.74
-0.84 5.95 -1.72
4.58 -1.60 -1.94
2.29 -4.01 3.15
-0.76 0.56 2.11
-3.24 4.05 2.09
-0.09 0.81 1.72
2.83 -2.88 1.53
-1.98 3.24 0.77
1.03 2.03 -0.36
-0.07 3.08 -0.75
0.42 -2.45 3.10
3.60 2.47 -3.76
-4.40 3.39 3.44
1.23 2.27 -0.96
5.12 -0.24 -3.02
-0.14 -1.39 3.08
5.36 -3.06 -1.32
3.32 2.55 -3.59
1.75 0.41 -0.11
1.44 -1.49 1.63
2.12 -1.31 0.88
3.74 0.67 -2.28
3.25 0.78 -1.91
0.69 -2.09 3.42
-0.21 1.70 0.68
4.83 -1.39 -1.73
0.20 2.10 0.69
5.59 -2.47 -2.33
-0.06 -1.52 3.57
-3.02 1.06 3.96
2.06 0.73 -0.47
-0.67 2.60 1.72
4.57 -1.14 -1.70
4.19 -3.23 -0.18
-1.61 3.68 0.75
1.16 -0.10 1.77
3.81 -3.73 0.10
0.14 -1.50 2.72
5.57 -2.13 -1.71
-0.93 4.23 0.00
-2.41 5.25 -0.62
5.64 -2.02 -2.29
0.04 -1.26 3.35
-1.83 -2.30 6.17
2.53 1.35 -2.34
-1.81 -0.30 3.96
2.20 2.33 -2.18
-0.65 3.88 -0.50
-1.04 -0.93 3.59
2.08 0.71 -1.71
3.44 -1.79 -0.54
1.05 -0.74 0.78
2.71 -0.89 -0.19
2.05 -4.36 4.07
2.28 -0.25 -0.31
1.15 4.63 -3.22
3.73 3.10 -4.59
-0.92 -1.60 4.42
0.59 -1.69 3.21
0.59 2.40 -0.77
0.17 3.35 -1.69
2.27 1.48 -0.95
-1.68 2.49 2.30
5.39 -4.67 0.77
0.19 -2.55 3.81
4.41 0.52 -2.67
0.36 1.21 0.20
3.98 -2.75 0.32
0.06 -2.86 5.12
2.52 3.70 -4.10
3.73 -3.28 1.44
2.78 -3.29 1.90
-1.28 -2.39 6.12
3.68 0.54 -2.47
3.07 -4.69 2.19
5.77 -1.68 -3.02
1.08 -1.11 1.75
2.40 1.59 -2.85
-1.49 -2.09 5.04
3.44 2.62 -3.55
-3.47 4.30 1.54
-1.29 2.13 2.01
1.25 4.03 -3.25
-0.07 -0.72 2.04
1.80 -1.21 1.05
-2.60 4.12 1.18
2.74 0.96 -1.67
5.00 -1.87 -0.63
5.91 -1.37 -3.17
4.39 2.11 -4.14
-0.65 5.70 -1.89
2.30 -0.11 0.25
4.55 1.41 -4.63
2.32 1.73 -1.44
3.50 -0.31 -1.63
-1.19 3.25 -0.35
-0.16 3.79 -0.99
2.32 -1.56 0.82
0.49 4.96 -2.75
1.32 1.02 -0.09
3.81 0.92 -2.55
-0.99 2.82 1.16
-0.19 -1.45 4.43
-2.73 2.76 2.65
2.26 1.75 -2.40
2.81 3.34 -3.45
1.68 -1.18 2.14
0.16 3.31 -0.88
-2.00 4.23 0.09
3.09 -0.15 0.00
-1.64 1.12 2.75
-2.00 3.08 2.00
1.26 1.77 -0.24
-1.32 1.48 3.15
3.57 3.21 -3.89
-1.30 -2.74 5.47
-3.03 2.61 3.05
-2.24 1.25 3.35
1.19 1.39 -0.18
2.74 -2.10 1.76
0.25 2.00 0.63
1.40 1.51 -0.86
-0.03 -0.37 3.13
1.37 -2.44 2.01
1.83 -3.10 2.36
0.26 1.28 0.44
-1.90 -0.39 4.37
-0.28 0.14 2.58
3.29 -1.51 0.07
1.96 -1.57 1.89
-0.02 2.75 0.10
2.42 0.40 -0.47
-1.64 -1.47 5.26
3.11 -0.60 -0.23
-4.88 3.11 4.39
-0.52 1.72 0.47
-1.98 1.08 3.22
1.34 1.19 0.04
-1.48 2.45 1.68
-0.27 -1.65 3.64
1.69 0.02 -0.58
-1.56 3.32 1.33
0.33 -0.87 2.48
3.09 -1.88 -0.53
-4.04 2.09 5.01
1.55 1.05 -0.78
-1.79 -0.01 4.23
-2.98 5.49 0.41
1.87 0.59 0.16
2.30 -0.63 0.28
1.79 -2.08 1.89
-0.02 2.42 0.65
2.56 -3.87 2.54
1.32 2.02 -0.87
-0.22 0.80 1.70
2.46 -4.34 2.22
-0.29 3.21 0.19
-0.51 -1.93 4.87
4.45 -1.79 -0.80
1.05 -4.89 4.32
1.66 -0.30 0.83
-1.95 0.94 4.04
5.10 -1.46 -1.57
-1.79 3.21 1.48
0.21 1.37 0.79
1.49 0.05 -0.11
3.82 -2.83 -0.05
-1.25 5.11 -0.36
4.75 -0.88 -3.66
-2.09 3.58 1.60
-2.46 4.92 1.32
2.07 -4.32 3.59
2.77 -0.04 -0.91
-1.16 3.28 0.50
2.69 -0.98 -0.30
5.14 -2.01 -0.88
2.34 -1.78 0.97
3.02 -0.71 -0.82
0.78 0.27 1.11
0.74 0.15 1.30
1.77 1.72 -1.25
0.82 3.84 -2.24
5.03 -1.68 -1.87
6.15 -3.80 -0.81
0.65 -0.41 1.44
-0.01 1.52 0.68
1.20 -2.16 2.41
2.69 2.66 -2.84
1.01 0.71 0.50
-0.58 2.03 1.54
3.37 -5.28 2.56
-0.41 2.44 0.93
-2.32 -1.78 6.08
-0.05 0.29 1.48
4.23 1.68 -3.96
-3.76 4.21 2.03
1.78 -4.46 3.18
-0.38 1.72 1.26
0.82 0.34 0.15
4.90 0.42 -2.93
4.56 -0.50 -2.09
-3.33 3.82 2.82
-1.67 -0.62 4.23
3.28 -4.95 3.51
1.41 -4.33 3.46
0.73 -0.80 1.86
-1.71 1.16 2.68
0.52 4.46 -2.72
1.41 -2.30 1.76
-0.44 -0.67 4.14
2.12 4.19 -4.50
-0.97 0.06 2.85
1.59 0.35 0.60
-0.59 0.23 3.14
0.03 1.87 1.21
0.99 4.02 -2.04
2.36 -0.07 -0.71
2.07 0.21 0.10
-1.36 3.14 2.06
1.19 2.78 -1.85
0.22 1.39 1.11
-2.21 -1.17 5.79
1.74 -0.40 0.54
3.38 -0.79 -1.65
1.50 2.71 -1.70
-3.48 1.62 5.17
3.91 -3.83 2.57
1.58 2.98 -1.91
0.38 0.87 0.78
-0.19 4.04 -1.75
-1.69 5.23 -0.49
-5.17 2.56 5.16
-1.86 -2.43 5.95
0.43 0.57 0.72
-2.17 -0.67 4.79
1.83 1.06 -0.85
2.21 3.27 -2.80
0.19 2.40 0.21
3.92 -2.83 -0.18
-0.99 2.18 1.14
1.36 -0.32 0.15
-2.40 1.16 3.56
2.52 -4.45 3.36
0.14 4.52 -2.07
-3.81 2.87 3.07
1.97 -4.35 3.78
1.02 -0.96 1.90
-1.64 2.15 1.62
-1.85 -1.67 5.86
1.28 4.56 -2.76
2.13 2.80 -2.14
-1.03 1.87 1.76
-0.37 5.87 -1.86
-4.93 4.36 3.33
4.10 -0.31 -2.55
-1.57 2.76 2.32
-0.05 1.36 1.49
1.95 -1.31 1.70
-3.82 4.23 2.98
1.75 2.91 -2.46
4.06 -0.55 -2.43
1.55 2.01 -1.33
5.65 -3.93 -0.36
1.88 -0.97 0.13
3.39 -3.17 1.25
-2.46 3.64 1.82
-0.81 -1.27 4.67
1.05 0.29 0.73
-2.60 4.82 1.20
-0.24 2.82 -0.47
-3.24 2.67 2.38
0.91 -4.09 4.77
1.25 1.77 -1.65
2.20 4.28 -3.75
1.51 -0.97 1.60
2.06 -4.02 3.44
-3.54 4.36 2.06
-3.03 0.07 5.60
6.35 -2.38 -2.72
4.78 -2.30 -2.05
-1.65 0.12 3.06
-1.16 2.09 1.09
1.27 3.18 -2.09
0.50 1.43 0.15
-0.60 1.31 1.91
4.70 -0.88 -2.03
-1.94 0.15 3.21
3.55 -1.07 -0.47
-1.05 -1.18 4.35
-2.08 3.39 2.52
0.44 -1.12 3.28
1.66 -4.50 3.63
0.19 3.16 -0.75
1.16 0.69 0.44
0.08 3.37 -1.24
-3.25 3.73 2.29
0.86 -3.87 4.57
2.69 0.53 -1.01
0.45 -1.18 2.99
-2.06 -2.41 6.35
2.85 -3.31 1.33
4.10 -2.83 0.59
4.88 -3.92 -0.13
0.73 2.09 -0.60
0.68 -3.86 5.29
1.54 -1.62 2.14
-1.57 3.26 0.46
4.95 -0.81 -2.87
0.20 2.97 -0.85
4.47 -0.86 -2.47
-0.95 4.60 -1.99
-1.78 2.28 2.54
1.41 -2.01 2.33
5.11 -4.03 0.55
-0.04 -1.56 3.38
-1.64 1.21 2.74
0.84 -3.10 2.99
-3.48 3.26 3.54
-2.22 3.80 1.08
0.04 -2.25 3.86
-0.86 6.17 -1.81
-1.79 4.67 -0.12
4.47 -2.33 -0.55
0.16 0.74 1.66
5.86 -2.79 -1.81
-0.77 0.19 2.60
0.97 1.12 0.58
1.51 1.09 -0.11
1.08 -0.46 0.52
2.27 0.45 -1.22
-0.25 1.76 1.43
-1.30 1.43 2.62
2.45 1.44 3.20
1.54 -0.07 2.65
-0.50 -2.78 0.55
-1.12 -1.47 3.49
4.56 -0.10 -0.18
2.29 -1.05 0.03
3.86 -0.37 0.73
0.99 -1.89 0.42
1.34 1.99 5.35
1.47 -1.56 0.63
1.15 -3.95 -1.20
0.91 -5.32 -3.88
1.08 -1.52 1.65
0.93 -2.63 -0.94
-2.07 -2.97 1.67
1.76 -0.57 2.09
5.10 -2.13 -2.19
-2.70 -3.69 2.61
0.59 -0.50 1.96
2.24 -2.32 -0.48
-0.57 -3.36 0.42
-1.47 -0.74 4.69
0.36 -4.53 -1.82
-1.07 -3.30 0.00
-0.48 -3.34 -0.48
0.63 -5.21 -3.12
4.31 2.10 2.68
4.07 -1.72 -1.96
1.19 2.58 6.50
1.34 -1.03 0.95
-4.42 -4.32 1.89
-1.29 -4.41 -0.13
2.00 -0.06 2.36
4.85 -2.21 -3.68
2.45 0.79 2.72
4.00 0.92 0.52
2.63 -0.75 0.67
-1.89 -3.37 0.99
2.21 -2.03 -1.48
-3.58 -3.34 2.55
2.01 -0.69 1.05
5.74 -0.90 -2.05
2.42 1.13 2.88
2.59 1.83 3.27
3.56 -2.82 -3.01
0.66 -5.60 -3.58
3.51 -3.15 -2.74
2.80 -0.25 0.85
-0.97 -1.00 3.40
2.17 -0.39 2.01
-1.90 -1.64 3.72
-2.66 -3.84 1.88
-1.09 -0.53 5.24
-1.09 -5.94 -1.60
-0.45 -1.37 2.77
4.10 1.95 2.00
-3.70 -6.13 -0.96
3.17 -0.51 1.31
1.14 1.34 5.10
-1.51 -3.68 0.58
-2.10 -2.23 2.70
-0.65 -4.73 -1.23
2.57 -1.66 0.01
5.59 -0.11 -0.68
1.54 -2.84 -0.04
0.73 -4.79 -1.25
3.38 1.13 3.01
3.76 2.85 3.74
-2.71 -1.88 3.80
3.93 1.39 2.32
2.56 -2.73 -1.53
-1.09 -3.45 -0.13
1.74 0.38 3.17
6.55 1.48 0.09
0.26 -1.14 2.56
-0.28 -3.41 -0.28
2.93 1.05 2.95
2.16 -0.22 1.15
-0.42 -5.34 -1.92
-0.37 -2.78 0.93
3.30 0.88 2.17
3.77 1.46 2.60
4.75 3.36 3.85
-0.37 -1.77 2.04
1.57 0.94 4.23
-1.33 -3.01 2.07
-0.67 -1.59 1.39
0.04 -2.61 0.70
1.59 0.18 2.12
-1.17 -2.05 1.84
1.08 -4.29 -2.22
-1.50 -1.91 3.09
1.94 -4.40 -3.05
0.73 -2.83 -0.06
3.48 -1.90 -2.08
-4.60 -5.20 0.85
-3.16 -2.75 3.18
4.26 -1.56 -1.68
1.21 -1.79 0.33
-1.95 -5.19 -0.85
5.93 0.97 -1.01
3.24 -0.46 0.38
5.63 0.61 -0.76
3.50 2.23 3.09
-1.60 -1.97 2.63
3.63 3.97 5.53
-0.77 -1.00 3.88
3.34 -1.33 -0.88
0.67 -4.23 -2.09
1.12 -3.03 -0.78
1.18 -2.28 0.28
4.18 0.77 2.33
1.12 -1.17 1.06
1.47 -0.23 2.89
3.10 0.60 1.62
-1.57 -4.25 0.14
-0.92 -3.40 0.89
0.20 -1.18 1.93
3.73 -1.88 -2.00
-0.52 -2.32 1.51
-3.17 -2.48 3.37
2.76 -1.49 -1.07
-2.02 -5.18 0.36
0.98 -1.81 0.55
-2.87 -5.16 0.14
0.35 -4.86 -2.48
-1.46 0.03 4.98
-0.21 -5.13 -2.43
5.18 2.69 3.06
-1.75 -1.14 4.65
-1.36 -4.52 -0.44
4.15 3.41 4.99
4.39 2.81 2.73
-3.34 -4.87 0.99
2.32 -1.11 -0.12
5.41 -0.91 -2.49
3.14 -4.39 -3.59
3.88 0.77 1.76
3.45 -2.02 -1.34
2.20 -0.57 0.49
1.52 -0.72 1.86
0.11 -1.09 1.94
-2.33 -1.53 4.38
-0.99 -2.65 2.13
0.79 -3.22 -0.14
1.50 1.31 3.92
-1.12 -4.43 -1.69
-2.09 -3.43 1.47
6.46 -0.28 -2.19
1.07 0.89 4.02
-3.90 -1.62 4.49
4.05 3.16 4.35
2.10 -0.11 2.33
3.20 -1.69 -0.94
4.48 -3.43 -3.86
-1.54 -0.82 3.82
-2.97 -3.06 3.01
2.57 -3.45 -1.98
2.87 -1.96 -0.71
1.41 0.37 2.03
5.97 -0.82 -1.87
-1.70 0.05 5.36
1.21 -2.80 -0.59
1.22 1.68 4.56
0.06 -1.94 0.42
2.80 1.62 3.12
2.65 -0.60 1.86
1.52 -0.61 1.71
4.40 1.02 1.22
-1.20 -4.99 -1.48
0.66 1.17 4.31
1.07 -0.21 3.63
-1.81 -3.69 0.41
0.40 -4.12 -0.69
4.98 3.39 3.24
-2.01 -1.77 3.53
4.88 1.38 0.82
0.56 -4.76 -2.11
1.88 -0.78 1.66
1.72 -1.59 1.56
-2.31 -5.22 0.15
-3.74 -5.50 0.58
2.40 -2.28 -1.21
-0.07 -3.69 -0.91
1.42 -1.57 0.28
0.59 -2.18 1.26
-0.19 -1.68 1.84
-1.62 -1.66 3.50
-2.50 -1.78 4.03
2.17 -2.17 -1.03
-4.07 -3.73 2.81
2.38 -0.91 0.73
1.01 -2.70 -0.24
1.27 -2.16 0.51
-2.75 -3.39 1.79
-0.21 -5.78 -2.49
-1.58 -3.82 0.16
1.99 -1.37 0.29
1.78 1.31 4.86
-0.16 -5.38 -2.28
2.96 0.57 2.21
1.60 -4.55 -3.89
-1.25 -2.86 0.63
5.89 1.91 1.89
1.63 1.02 3.63
5.54 -0.59 -0.93
1.32 0.00 2.65
1.10 -1.76 1.29
3.81 -0.78 0.38
-0.79 -3.46 1.03
-3.04 -1.33 4.29
-2.31 -2.40 3.75
4.80 0.01 -0.08
1.84 -0.12 1.96
2.53 -1.10 0.52
-0.13 -3.57 0.23
-1.29 -3.56 1.19
4.58 -1.37 -2.23
-0.93 -4.04 -0.81
-0.05 -0.05 4.43
3.41 -0.51 0.67
1.82 -1.05 2.04
1.27 -3.12 -1.37
2.41 -3.67 -2.67
-2.32 -6.55 -1.57
2.75 0.07 1.43
-0.02 -0.52 3.57
2.16 -2.76 -0.95
1.11 1.08 3.56
0.83 0.20 3.42
2.09 -1.73 0.47
3.28 -3.55 -3.78
0.82 -1.81 0.85
2.12 -0.15 1.54
4.41 0.73 0.71
2.52 -4.27 -2.94
2.94 -1.14 0.44
3.94 -2.90 -2.45
5.88 -0.44 -1.69
-0.67 -2.61 0.70
0.99 1.65 5.28
-0.86 -1.02 4.18
0.66 -0.62 2.41
-0.88 -2.78 1.16
2.90 1.04 2.80
-1.67 -4.63 -0.76
4.06 0.50 1.24
-0.48 -1.67 3.35
2.84 2.05 4.31
0.83 -1.69 0.88
-2.54 -5.02 0.26
-0.25 -1.39 2.00
0.87 2.01 5.70
-0.95 -3.01 0.46
2.88 0.41 2.47
-1.12 -4.63 -0.71
-0.72 -1.36 2.24
1.89 -3.00 -1.73
-2.66 -7.65 -2.83
-0.63 -3.57 0.25
0.12 -0.18 4.12
2.78 -1.22 0.10
1.65 0.43 2.80
-1.61 -4.37 0.61
0.68 -1.09 2.34
-2.41 -1.01 5.09
-1.88 -1.07 3.68
0.79 -3.89 -2.39
5.47 -0.18 -1.79
1.58 -3.23 -1.50
-4.65 -3.79 4.26
-2.20 -3.69 1.80
2.48 -4.35 -3.47
2.54 -0.56 0.96
2.51 1.08 2.72
-0.66 -1.78 2.41
0.30 -1.73 1.47
1.96 -0.01 2.19
-1.02 -3.35 0.88
-1.10 -5.68 -1.03
3.01 -1.27 0.01
1.54 -2.81 -0.68
0.70 -2.56 -0.21
0.22 -2.17 1.21
-0.71 -0.59 4.10
-2.18 -5.85 -1.59
0.17 -0.96 2.82
4.73 3.73 4.50
0.44 1.34 4.44
5.04 -1.36 -1.82
4.74 -0.57 -0.34
2.57 -1.24 -0.34
6.25 -0.15 -2.07
0.54 -1.20 2.20
-0.45 -1.22 1.88
5.02 3.52 4.61
5.31 -1.64 -2.49
-1.44 -5.66 -2.24
0.79 0.46 3.61
3.23 -0.57 -0.05
1.96 -2.11 -0.45
1.30 -1.71 0.59
0.57 -2.40 1.04
3.20 2.01 2.74
-1.48 -4.37 0.37
-0.53 -0.07 5.43
-2.25 -3.73 1.56
0.69 -4.46 -2.03
-0.93 -2.49 1.25
4.30 0.62 -0.22
1.51 1.07 3.86
1.61 -1.88 0.17
2.94 -0.49 1.36
-2.34 -6.56 -2.19
1.63 -1.71 0.58
-1.29 -3.09 1.04
0.50 -4.63 -2.08
4.22 -0.97 -0.75
0.49 1.71 5.02
3.22 -1.12 0.06
3.21 -3.97 -3.93
-2.14 -1.96 2.95
4.06 -0.24 0.41
-1.53 0.63 5.46
5.14 -0.70 -1.37
-0.96 1.13 5.79
1.45 0.10 2.08
3.91 -0.40 -0.47
0.92 -4.86 -1.80
0.08 -0.11 3.35
2.04 -2.52 -1.34
4.29 0.93 2.42
0.49 -0.52 3.71
3.23 0.59 2.03
-2.80 -2.45 3.93
-0.99 -3.54 0.55
0.99 0.29 3.17
-1.75 0.57 6.35
6.39 0.32 -1.21
-1.01 -0.34 4.32
6.75 0.95 -0.98
4.90 3.51 4.11
2.29 -2.02 -0.23
-4.96 -4.20 3.59
2.05 0.43 1.88
2.29 -3.30 -2.48
-2.89 -4.17 1.03
-3.70 -3.53 2.76
1.66 -0.80 1.25
-0.64 -4.76 -0.75
2.55 -3.52 -2.52
-0.15 -5.14 -1.83
-2.26 -3.56 1.76
1.07 -5.93 -3.97
-2.24 -5.89 -1.47
2.24 0.47 2.88
0.66 -1.07 1.91
0.32 -3.83 -0.24
0.62 -4.08 -1.29
0.96 -3.75 -0.94
4.13 -0.69 -1.07
1.08 -4.61 -2.89
2.02 -5.54 -3.80
-0.63 -4.57 0.02
3.62 -0.89 -0.66
-1.44 -2.05 2.48
-2.07 -6.20 -1.90
-3.52 -1.96 5.21
0.05 -1.14 1.96
3.74 0.07 1.18
1.32 -2.72 -1.09
3.98 -1.13 -0.30
0.89 0.25 2.95
-2.63 -2.81 3.17
-1.17 -0.13 4.43
4.99 -2.64 -2.82
-1.43 -1.23 4.17
3.28 -2.40 -1.95
2.20 -0.63 1.03
-1.66 -3.95 0.04
-2.14 -3.50 1.04
-0.76 -4.27 -1.05
-0.95 -3.87 0.71
0.85 -3.62 -1.59
0.27 -0.49 3.02
-3.29 -4.22 2.42
-3.22 -2.67 3.83
5.02 -1.52 -1.98
0.22 -2.11 0.63
-0.18 -5.31 -2.38
4.40 0.24 0.08
-1.11 -3.05 1.00
3.82 1.94 2.36
4.18 -2.73 -1.90
4.65 3.59 4.02
0.51 1.71 5.18
1.01 -0.66 2.49
1.47 -2.98 -0.37
3.73 -1.14 -1.81
-1.04 -2.60 1.84
3.89 -3.43 -2.54
2.43 0.85 3.27
-0.01 -2.97 0.61
4.58 -0.43 -0.98
0.68 -2.62 0.10
1.30 -0.00 3.06
0.60 -0.69 1.73
2.99 -4.21 -4.56
1.10 -2.73 -0.37
-3.54 -3.68 2.57
0.21 1.91 5.79
1.92 2.49 4.98
4.81 0.86 1.27
-0.04 -1.33 2.78
-3.00 -5.85 -0.62
2.74 3.38 4.94
-1.68 -2.20 2.70
-0.82 0.04 5.38
5.82 -1.09 -2.78
-1.49 -4.69 -0.70
-2.56 -3.37 2.98
2.58 -3.96 -3.05
-1.16 -1.57 2.97
-2.86 -2.95 3.33
5.66 0.70 -0.20
4.98 -2.37 -3.63
3.05 0.41 0.89
0.89 2.28 6.37
-0.60 -0.02 4.86
-1.04 -2.71 2.09
2.25 -3.46 -3.34
4.30 -3.28 -3.06
4.03 1.09 2.38
-2.73 -4.84 -0.09
0.50 -3.74 -1.01
-2.34 -1.88 4.21
-3.32 -3.19 3.22
-2.29 -0.71 5.10
3.61 -2.78 -2.71
2.22 -0.96 1.18
-0.91 -1.43 2.45
-0.59 -5.35 -1.24
-0.11 -1.45 2.33
0.67 -5.36 -2.46
3.52 -4.19 -4.89
4.73 0.74 0.66
0.36 -1.95 0.99
1.31 1.53 4.35
3.38 -3.49 -3.82
-2.81 -5.69 -1.77
1.22 0.90 3.70
0.69 -3.96 -1.87
2.76 -0.25 1.25
3.94 -1.72 -1.39
-0.65 -2.52 1.25
1.36 1.46 4.90
-0.72 -3.44 0.74
-0.24 -3.21 0.80
-2.13 -2.61 3.34
6.06 -0.95 -1.71
0.72 -3.47 -0.39
-1.01 -0.99 2.46
1.50 -0.46 1.48
1.80 -0.25 1.64
2.75 -1.82 -1.22
-1.42 -0.64 4.77
0.94 -3.90 -1.05
-0.15 -5.33 -2.24
1.24 -4.80 -3.14
4.89 -1.61 -3.13
-0.30 -3.87 -0.45
-0.83 -2.62 2.43
-0.91 -2.04 1.98
0.35 -3.72 -0.05
-3.13 -6.57 -0.72
2.17 2.73 4.69
5.55 1.57 0.71
-2.34 -2.67 3.09
0.90 -1.81 -0.11
-5.29 -2.78 4.53
3.16 2.27 3.68
-1.39 -3.59 0.58
-1.83 -3.32 1.59
4.74 3.37 3.19
3.45 2.75 4.20
-3.14 -2.64 3.42
2.10 -3.46 -3.13
2.34 0.66 3.36
-0.72 -3.61 -0.01
4.75 2.98 2.49
1.71 -1.90 0.03
-2.87 -3.46 2.50
1.95 0.34 1.64
-0.81 0.34 5.22
3.84 -0.91 -0.53
4.12 -0.42 -0.49
3.92 0.84 1.70
3.20 -1.46 -0.89
2.70 -0.58 0.14
1.25 -1.38 1.14
3.49 -0.18 0.82
1.71 -3.47 -0.65
-2.05 -0.03 5.99
-2.13 -4.99 -0.26
-2.37 -2.23 3.25
-3.70 -3.59 2.64
-1.72 -5.09 -0.98
-0.82 -2.94 1.94
2.65 -1.04 1.33
-2.01 1.03 6.05
2.18 -0.56 2.02
1.32 1.37 4.84
-2.43 -4.61 1.23
-0.63 -4.52 -1.81
-0.23 -3.62 -0.99
-2.22 -6.83 -1.56
2.44 -4.84 -4.21
3.69 0.44 1.24
0.29 -0.23 3.15
2.64 1.33 2.81
-2.99 -2.30 3.98
-0.75 -1.34 3.13
0.69 -4.99 -2.43
3.97 1.25 2.16
-0.12 -1.65 2.34
1.06 -0.55 1.09
3.66 1.69 3.07
-1.28 -3.45 0.93
4.36 4.25 4.43
-0.50 -5.31 -1.83
-3.55 -6.18 -0.97
-3.20 -3.56 2.07
-0.48 -0.28 3.74
1.34 0.51 4.95
3.41 1.38 2.31
-1.81 -5.38 -1.50
0.88 -0.83 2.06
0.52 -0.92 2.44
-1.49 -5.19 -1.23
1.54 -0.13 2.72
4.37 2.99 3.58
3.05 -2.46 -2.00
1.02 -2.49 0.42
3.73 -0.59 -0.45
2.76 -0.95 -0.10
-0.77 -1.76 1.79
4.08 -1.04 -1.15
-3.39 -4.61 0.93
5.04 4.29 4.37
2.75 -3.67 -3.27
1.62 -3.89 -1.60
1.57 -0.91 2.59
4.16 -2.23 -2.00
-0.57 -1.69 2.39
2.04 -2.03 -0.22
1.58 -2.30 -0.35
1.64 -0.30 2.73
2.53 -0.65 1.02
3.29 -3.85 -4.09
-1.70 -3.31 1.50
1.57 -2.10 0.13
2.79 -3.30 -1.76
-1.53 -0.50 4.67
4.22 -1.78 -2.36
1.24 2.01 6.52
-2.15 -5.92 -1.71
-3.14 -2.39 3.69
-1.72 -3.63 0.93
-0.74 -6.23 -2.94
4.26 2.96 3.88
3.30 -1.41 -1.13
-0.22 -3.32 0.56
-1.70 -2.26 2.61
1.69 -2.63 -0.89
2.23 1.47 4.16
-0.05 1.01 4.30
1.98 0.02 2.31
-0.62 -0.84 3.80
4.60 2.76 3.37
2.52 -3.93 -3.27
4.05 0.12 1.24
4.73 3.71 4.40
-0.69 -0.76 2.92
1.94 -1.95 -0.19
1.67 1.79 4.39
-2.10 -1.21 3.81
0.88 1.57 4.99
2.21 1.27 3.49
2.26 -0.56 1.30
0.90 -4.92 -2.17
2.66 -3.66 -3.03
5.71 -0.53 -1.30
-0.47 -1.52 3.17
-2.33 -4.23 0.65
-4.03 -5.47 0.91
-1.60 -3.10 2.20
2.27 -0.80 1.79
0.82 -4.50 -2.18
1.66 -1.75 -0.27
3.21 -2.48 -1.94
-1.39 -3.03 0.92
3.45 1.94 3.15
-2.67 -2.68 3.50
-2.11 -3.67 1.30
4.32 2.62 2.94
6.08 0.18 -1.53
5.76 2.80 2.51
-2.85 -0.85 5.75
4.19 -2.99 -3.82
4.48 0.88 2.13
-2.26 -7.39 -2.25
3.30 0.21 1.20
6.68 -1.05 -3.41
2.91 -0.78 0.67
1.26 -1.60 0.67
3.96 -1.19 -1.33
1.79 -2.07 -0.57
0.12 -5.84 -3.71
-1.13 -2.67 1.48
5.47 -1.05 -1.89
4.26 0.88 1.70
0.48 1.85 6.22
-0.35 2.03 6.74
-3.34 -5.32 0.45
2.53 -2.83 -2.41
-0.27 -2.57 1.19
0.78 -2.76 -0.72
-2.01 -2.20 3.62
1.11 -2.36 -0.81
0.87 -0.66 1.63
5.05 0.12 -0.30
6.51 -1.06 -2.84
-3.37 -4.31 1.75
1.85 1.81 4.15
1.09 -2.80 0.30
0.11 -3.03 0.24
1.30 -3.46 -2.18
-1.76 -4.14 0.27
5.81 1.33 0.46
-0.97 1.55 7.09
4.59 0.75 0.63
1.12 1.88 4.57
6.68 -0.66 -1.82
1.10 -3.53 -0.55
0.60 0.72 4.37
-0.71 0.54 4.61
-1.35 -0.26 5.29
0.24 -1.25 3.05
1.11 -2.06 0.13
-1.74 -6.45 -2.50
3.31 0.72 1.88
-1.30 0.10 4.80
5.12 1.09 0.44
-3.06 -2.28 3.88
-3.73 -3.46 3.62
2.24 -1.64 0.36
4.88 0.48 -0.18
-2.70 -2.64 2.23
1.18 -1.16 1.09
1.85 -3.36 -2.30
3.59 -1.01 -0.15
-3.58 -1.52 5.06
4.48 0.67 1.27
5.62 3.79 3.58
0.87 -4.53 -1.29
3.10 -3.16 -3.02
5.97 0.82 -0.62
2.57 2.02 3.96
2.69 -0.58 1.08
0.29 -2.91 -0.69
-3.32 -2.08 4.13
0.59 0.75 3.71
4.39 -3.57 -4.48
0.56 -3.96 -1.44
-1.16 -5.29 -1.85
-1.54 -3.38 1.35
0.49 -2.81 0.80
4.22 -0.44 -0.72
1.31 1.77 5.21
1.63 1.30 4.08
1.53 -2.63 -0.95
4.03 -3.33 -3.81
2.43 -1.56 0.28
-2.60 -5.44 -0.34
2.25 0.55 3.00
3.90 1.21 0.99
1.99 -0.47 1.13
5.14 0.73 0.00
-1.94 -0.52 5.98
0.94 -0.68 2.11
5.74 -0.89 -2.23
-0.65 -2.56 1.38
2.54 -2.50 -2.00
0.32 -4.02 -0.51
0.61 1.25 5.00
3.56 1.12 1.42
-0.56 -3.85 0.31
-2.27 -1.31 3.70
2.93 0.59 1.40
0.35 -2.90 -0.56
2.63 -1.07 0.21
1.56 0.67 3.63
1.29 -0.71 2.27
0.78 -4.43 -1.60
3.99 0.35 0.58
0.89 0.87 3.76
4.30 -3.68 -4.47
0.50 -1.32 1.52
-1.77 -3.35 1.07
0.91 -1.36 1.57
0.73 -2.66 -0.14
3.73 -0.68 0.42
1.31 -1.67 0.28
-0.02 -4.22 -1.42
-3.86 -3.01 3.51
-2.26 -4.66 -0.22
-0.35 1.36 6.18
-2.11 -2.79 1.92
3.87 -0.57 -0.53
-2.38 -0.74 5.18
0.82 0.59 4.03
5.33 -2.46 -3.75
3.97 3.49 5.29
4.21 1.65 1.31
-1.31 -2.76 1.81
-3.63 -4.59 1.33
4.03 -1.61 -1.43
4.86 -0.42 -0.65
3.41 -2.66 -1.59
2.46 -3.29 -1.96
4.66 -2.80 -3.04
3.34 -2.23 -1.72
2.79 2.03 3.81
-1.07 -3.11 1.18
1.25 -1.29 1.38
-0.16 -1.56 2.91
-1.31 -3.17 1.71
0.13 0.27 4.48
-2.38 -0.14 5.88
-0.27 -0.97 3.20
-1.68 -2.69 2.11
2.63 -2.10 0.38
0.60 -1.11 2.42
2.97 -1.27 -0.28
0.90 -3.00 -0.28
0.31 -2.44 0.69
-0.25 -3.67 0.02
-0.10 -2.10 1.95
7.41 1.68 0.11
4.12 -0.60 0.82
-3.76 -3.55 3.72
0.52 0.12 3.27
-0.03 -1.51 2.70
-0.35 -1.53 2.96
-1.91 -1.46 3.32
3.18 -1.32 0.29
0.77 -3.90 -1.77
1.99 -1.05 1.04
3.41 -1.05 -0.86
4.62 4.20 4.96
1.81 -0.33 1.09
-3.29 -1.31 5.70
0.97 -1.30 1.21
-0.31 -2.66 0.69
-1.80 -3.59 2.34
3.81 -1.76 -2.08
1.86 -1.59 0.56
-0.28 -3.55 -0.86
0.37 -0.14 3.91
1.75 -3.27 -1.42
-2.01 -5.47 -0.90
1.86 0.21 3.21
2.88 -3.59 -3.71
0.93 2.02 5.83
-3.24 -2.89 2.83
-1.72 -2.29 2.17
6.35 0.62 -2.01
3.03 0.75 3.41
5.98 -0.66 -2.00
4.66 -2.28 -3.09
-1.46 -2.16 2.76
-3.86 -4.71 2.49
1.67 -2.31 -0.23
-1.76 -1.78 3.34
2.24 -1.88 -0.08
-2.68 -3.33 1.84
-0.29 1.12 5.17
6.06 0.86 0.09
4.16 1.81 2.28
-1.18 -1.50 3.14
3.17 1.64 3.11
0.15 -2.46 1.02
4.60 -1.77 -2.86
4.66 0.49 0.82
0.01 -0.69 2.55
4.13 -0.63 -0.39
-3.21 -4.92 -0.03
1.06 -3.09 -1.09
-0.95 -0.81 4.05
2.02 2.17 4.05
-0.02 -0.06 3.34
4.47 -0.90 -1.04
-3.38 -2.47 4.49
0.09 -3.13 -0.02
-2.24 -4.49 -0.56
3.23 -0.05 1.34
0.06 -2.31 0.40
3.52 1.73 3.34
2.03 -3.04 -2.12
-3.30 -3.27 3.71
-0.88 -4.00 -0.37
4.38 -1.10 -1.49
0.87 -1.27 0.92
1.92 -1.56 0.72
0.37 -0.64 2.37
1.69 -4.29 -3.08
0.34 -2.33 1.13
3.28 -2.15 -2.10
1.78 -1.95 -0.03
2.68 -1.09 0.09
-2.11 -2.21 3.79
-0.24 -3.47 0.08
-2.31 -1.04 3.64
0.75 -3.33 -1.12
5.88 -0.27 -0.87
-0.38 -4.21 -0.82
4.86 1.45 0.79
6.01 2.07 0.65
5.55 0.92 0.46
-0.80 -4.41 -0.03
2.84 0.55 1.39
2.12 1.05 3.41
5.35 -0.98 -1.79
5.97 -0.44 -1.06
-1.67 -3.59 1.18
2.16 -0.56 0.66
2.97 -2.32 -0.92
0.56 -2.47 0.03
-1.05 -0.40 4.19
-1.84 -0.58 5.31
-2.43 -1.76 3.82
2.29 -0.78 0.93
2.45 -2.89 -2.43
-0.87 -4.99 -1.64
0.88 -1.74 0.17
3.62 2.07 2.85
3.10 -4.08 -3.14
2.52 -1.22 0.20
0.45 -3.58 -0.33
4.02 -2.24 -1.90
2.76 -2.93 -1.83
0.90 -1.14 2.34
-0.14 -4.11 -0.39
6.66 -0.23 -1.06
3.64 -1.16 -0.01
1.63 -0.44 1.55
-0.64 -1.43 2.92
2.44 2.97 5.25
4.66 0.81 0.45
3.79 -3.58 -4.03
4.81 -1.82 -2.48
2.58 -0.59 0.75
3.03 0.61 1.37
2.40 2.23 3.41
2.19 -2.48 -1.07
-4.72 -4.82 2.51
-2.80 -3.39 1.06
1.20 1.65 4.25
0.02 -1.37 2.24
-1.57 0.60 5.60
4.25 -0.42 0.83
4.65 -0.48 -0.24
-3.70 -2.58 3.86
0.83 -1.52 1.15
6.19 -0.71 -2.33
4.41 0.87 0.91
0.15 -3.98 -1.40
2.01 -3.14 -1.94
-2.40 -2.62 3.10
-1.93 -3.68 1.26
0.37 0.46 4.17
-2.02 -4.84 -0.54
4.70 -0.23 -0.58
3.45 -3.80 -2.67
2.39 -3.23 -2.57
2.55 1.94 4.48
-1.33 -2.96 1.59
4.96 0.69 0.11
2.85 2.82 4.47
6.12 1.53 0.49
-3.42 -5.26 -0.52
1.48 -2.60 -1.49
-0.30 -2.45 0.33
0.42 -4.52 -2.42
2.11 -2.47 0.19
-0.04 -5.01 -2.15
0.82 0.33 3.35
3.06 -3.10 -2.76
2.67 1.26 2.81
6.76 0.54 -1.69
-1.84 -4.58 -0.60
-0.43 -2.32 1.35
0.86 -0.14 3.78
-0.62 -2.77 0.38
2.80 -1.70 -0.89
2.98 0.32 1.90
0.22 -4.91 -1.86
-0.96 -2.35 1.90
0.52 2.09 5.95
2.21 -0.00 1.73
1.87 -1.64 0.32
1.80 1.24 3.39
0.72 -4.36 -1.72
5.34 -1.52 -3.36
-2.71 -4.94 0.03
2.58 -0.20 1.87
0.38 -2.21 0.34
-2.16 -3.87 1.40
-1.49 -5.50 -0.89
-0.25 -1.33 1.76
2.45 2.90 5.65
-3.27 -3.19 2.96
6.07 -0.07 -2.47
2.46 -1.80 0.30
1.15 0.64 3.60
4.66 -1.35 -1.62
-0.34 -1.47 2.16
-0.13 -4.26 -1.52
0.77 -0.50 2.07
5.54 -0.45 -1.73
2.92 -0.41 1.35
2.98 1.04 3.21
0.99 -4.25 -2.71
-0.54 -0.28 3.73
2.76 -2.99 -2.42
2.41 -1.62 0.18
0.10 -1.78 1.56
-1.70 -2.26 3.19
3.82 1.26 2.65
2.67 0.16 1.29
-2.70 -6.71 -1.84
1.51 -2.26 0.55
3.51 1.73 3.05
-1.63 -2.12 3.48
1.35 -1.16 1.58
-4.67 -2.39 5.15
4.12 1.80 2.59
-2.71 -2.95 3.05
1.63 2.12 5.21
-1.35 -3.70 1.53
2.95 0.17 1.25
5.77 2.99 2.54
-2.81 -2.68 4.14
1.79 -0.54 0.57
5.64 1.16 0.26
1.19 -4.15 -2.25
-1.99 1.56 6.72
-0.63 -3.41 -0.08
0.64 -2.78 0.51
2.35 0.71 2.28
-3.44 -2.28 4.54
2.51 2.79 5.39
-1.74 -1.09 4.37
0.26 -1.75 1.55
-2.31 -1.35 4.21
-1.76 -6.01 -1.50
-0.41 -1.75 2.68
0.86 -1.15 1.92
1.43 -1.41 0.57
0.10 0.04 3.33
2.18 -1.65 0.46
2.73 -0.90 -0.66
-0.94 -3.59 1.14
-1.80 -5.96 -1.47
3.44 -3.33 -1.77
1.68 -2.58 0.70
2.88 -0.37 0.89
-1.15 -2.86 1.35
-2.48 -2.72 3.25
0.16 0.04 3.92
4.59 -2.63 -3.75
-3.19 -5.80 0.46
3.01 -3.34 -2.46
5.10 -1.19 -1.84
-2.53 -3.56 1.75
5.10 1.59 1.01
-3.20 -5.35 0.22
1.78 -2.35 -1.18
4.94 1.09 0.60
2.51 -4.59 -3.84
3.43 -1.22 -1.33
1.75 1.13 3.68
-3.10 -0.08 5.48
2.21 -0.50 1.62
-0.77 -3.11 0.19
2.07 -0.05 1.09
-2.01 -3.17 1.36
5.46 -1.26 -2.97
3.70 -2.29 -2.43
-2.92 -6.06 -0.77
-4.38 -0.23 -3.74
-3.47 -1.42 0.36
0.85 -2.56 -3.61
3.14 -5.89 2.87
-1.03 -2.40 -4.03
-2.68 -2.01 -2.02
-1.36 -2.74 1.29
1.97 -4.37 3.19
-1.47 -2.82 0.65
2.59 -3.53 -3.86
3.37 -4.91 -1.37
-0.71 -2.54 -5.14
2.08 -4.70 2.04
3.35 -3.63 -3.83
-0.11 -3.68 2.79
-3.15 -1.95 -1.73
-1.82 -2.68 0.01
0.92 -4.38 1.41
-2.94 -1.61 -1.36
-3.43 -1.82 0.17
1.30 -2.94 -2.91
-0.33 -3.69 3.14
0.34 -4.58 4.24
-1.86 -1.96 -3.58
1.42 -3.70 1.59
-2.61 -3.13 2.27
1.20 -5.38 3.86
0.19 -3.12 -1.77
2.78 -5.06 -0.72
-1.57 -3.27 2.24
0.07 -2.73 -3.91
-5.07 -1.35 0.82
-0.55 -2.34 -4.09
-2.15 -2.60 1.14
-0.11 -2.93 -3.48
-2.23 -1.43 -5.21
-5.01 -0.47 -1.87
-0.57 -3.96 2.83
-1.52 -3.01 -0.01
-2.04 -1.55 -1.32
-5.40 -0.71 -0.45
-0.25 -2.69 -1.99
3.26 -5.37 1.89
-1.26 -3.07 2.62
-0.65 -4.55 4.96
-2.21 -2.31 0.04
-2.57 -1.44 -5.20
-1.56 -2.06 -0.39
2.69 -4.92 2.44
2.58 -3.82 -1.19
0.51 -3.89 3.08
0.29 -3.54 0.03
-0.95 -1.95 -3.18
0.82 -2.77 -1.96
-6.46 -1.15 2.43
-2.26 -2.11 0.11
-0.05 -4.12 1.80
1.15 -4.40 2.76
0.02 -3.76 4.28
1.85 -4.88 0.84
4.27 -4.82 -5.47
3.00 -4.34 -0.07
0.54 -4.65 2.48
-1.73 -3.16 2.69
-1.78 -3.52 1.98
-3.99 -1.91 3.02
-1.12 -3.17 0.08
-1.71 -2.98 -0.32
-0.22 -3.48 -1.08
3.89 -4.69 -3.54
-6.37 -0.90 2.89
-0.33 -3.90 0.97
-2.11 -2.53 -0.88
0.15 -3.28 -0.57
0.20 -3.45 2.37
0.76 -2.53 -5.17
-6.52 -1.70 3.58
0.81 -3.98 -1.33
-5.71 -1.92 2.56
1.08 -3.83 1.76
-3.47 -1.36 -1.09
-2.02 -1.01 -4.55
-1.58 -3.81 3.70
-2.44 -1.83 -0.01
-6.22 0.28 -2.83
-4.10 -0.82 -4.34
-4.73 -1.85 3.49
-2.39 -1.92 -1.08
-4.59 -1.68 -1.32
-2.36 -1.46 -6.25
1.36 -3.40 -1.21
-4.10 -0.87 -0.92
-1.26 -3.73 3.77
-4.39 0.31 -5.71
1.14 -4.09 1.33
-4.20 -1.47 0.86
0.47 -3.38 0.38
1.09 -4.11 -0.22
1.95 -3.14 -4.27
1.74 -3.59 -2.94
-3.53 -1.98 0.75
-2.19 -2.37 2.46
0.77 -4.11 0.96
-4.95 -0.37 -5.25
-5.78 -0.37 -1.94
0.71 -4.57 1.46
-3.84 -2.46 4.51
1.00 -3.74 2.55
-4.40 -2.96 3.85
-4.58 -1.99 2.81
-5.86 -0.83 0.59
1.45 -3.68 -2.20
3.41 -4.72 0.01
-4.35 -0.44 -4.92
4.37 -5.25 -1.53
4.13 -4.62 -2.54
-2.83 -2.49 1.09
-0.55 -2.57 -2.78
-0.60 -3.48 1.90
-5.40 -0.60 -2.94
-1.02 -3.30 3.01
-5.89 -1.32 2.07
-1.16 -3.56 1.65
-1.36 -3.03 -0.45
-3.59 -2.70 3.12
0.99 -2.72 -6.03
0.71 -4.31 3.29
2.92 -3.85 -1.74
-0.99 -3.97 3.32
0.41 -2.68 -4.78
1.38 -2.77 -6.16
1.83 -3.19 -3.10
-2.38 -3.06 1.72
-3.89 -0.41 -4.48
4.13 -5.41 2.86
-3.29 -2.26 2.51
-5.22 -1.93 3.68
-1.50 -3.37 0.87
2.88 -4.35 1.17
-1.48 -2.18 -3.77
-2.40 -3.16 2.73
0.17 -3.92 3.25
-1.17 -2.10 -4.39
3.45 -4.28 -2.21
-2.86 -2.23 0.31
-4.11 -1.89 1.06
-1.29 -3.22 2.28
-2.95 -1.19 -4.38
-2.46 -3.46 3.57
-6.56 -1.02 3.69
1.11 -3.31 -1.42
-5.99 -0.70 -2.64
1.18 -3.94 0.86
0.98 -4.08 1.98
-5.71 -0.80 0.97
-4.71 -0.45 -3.04
0.74 -4.03 -0.04
-4.24 -1.97 3.70
1.66 -2.59 -5.15
-0.50 -3.55 0.62
-0.08 -3.44 1.11
-2.83 -0.77 -5.43
-0.28 -3.79 1.71
-5.75 -1.67 1.38
-1.41 -3.90 3.41
-4.85 -1.49 2.64
0.41 -2.31 -5.24
-2.42 -2.24 1.57
-3.51 -1.80 0.31
-2.21 -1.96 -1.10
-2.31 -1.59 -2.29
-1.46 -1.75 -4.03
-3.15 -1.51 -2.98
2.33 -2.98 -5.95
-2.59 -2.58 0.93
2.50 -2.94 -5.46
3.33 -4.84 0.48
-0.85 -3.18 2.30
-1.49 -1.84 -3.73
-4.33 -0.37 -2.29
-4.33 -1.79 -0.74
-3.60 -1.64 -0.69
-0.29 -4.17 3.55
4.19 -4.15 -3.04
1.07 -4.03 -0.55
-5.69 -0.43 -0.26
-0.82 -2.28 -3.40
-0.47 -2.90 -1.61
4.11 -5.67 0.57
2.27 -5.15 2.80
-0.64 -2.33 -3.38
-2.78 -1.29 -4.56
1.43 -3.38 -3.28
-0.73 -2.08 -3.08
-4.46 -1.13 -1.27
1.47 -3.28 -5.89
2.77 -5.02 -0.26
2.78 -4.54 -2.46
1.87 -3.84 -1.15
1.66 -4.31 -1.44
-2.77 -2.34 -0.25
2.73 -5.37 3.26
-1.18 -3.25 0.75
-3.36 -0.74 -3.37
3.69 -5.50 1.04
1.46 -3.06 -2.76
-5.29 -1.65 1.62
-3.07 -1.75 -1.18
2.55 -4.16 -1.37
-4.26 -2.42 4.25
2.32 -3.49 -2.77
-1.10 -3.00 1.02
-2.13 -2.40 -0.06
-0.95 -3.24 -1.21
-4.32 -0.58 -3.69
-0.78 -1.59 -4.67
-3.41 -1.19 -3.27
1.21 -4.33 2.91
-2.54 -1.90 -2.25
0.47 -4.07 2.19
2.02 -4.25 -2.05
1.81 -4.98 3.87
-1.24 -1.53 -4.10
-1.11 -3.29 3.51
1.42 -5.14 3.56
-0.95 -3.75 1.05
-0.26 -2.56 -1.55
0.74 -3.80 0.39
-1.32 -3.23 2.86
0.37 -3.68 1.04
-3.56 -1.77 -1.76
-0.57 -3.83 1.78
0.29 -3.64 1.43
-2.06 -3.49 3.21
2.26 -3.71 -2.80
1.97 -3.19 -6.27
-0.17 -3.53 3.20
-3.60 -2.62 1.28
1.44 -3.34 -2.59
2.06 -3.32 -2.06
-4.44 -2.09 3.05
-3.87 -1.78 -2.28
-3.74 -1.48 -0.51
2.23 -5.42 3.80
2.00 -4.86 1.63
-1.05 -3.01 1.25
3.23 -4.78 -0.83
-0.79 -4.28 4.85
-0.05 -4.27 3.98
-4.40 -0.84 -1.88
0.36 -2.42 -1.85
2.67 -4.81 2.05
-1.13 -3.57 3.40
0.44 -2.39 -4.03
-4.01 -2.97 4.44
-0.17 -2.44 -5.15
-3.06 -2.46 3.41
-1.26 -2.05 -1.59
3.39 -5.37 1.37
-0.96 -3.47 1.08
-1.25 -2.84 1.07
-1.43 -2.54 0.57
0.12 -2.96 -1.05
1.30 -3.31 -2.91
-5.80 0.13 -4.78
-3.41 -2.16 1.38
1.91 -4.90 2.10
2.24 -4.43 -1.45
-4.95 -0.47 -5.13
-2.83 -2.27 -1.21
-3.79 -0.87 -4.29
-0.09 -3.50 0.20
-3.66 -2.77 3.99
-6.05 -1.15 2.48
-0.89 -2.71 -3.15
-3.01 -1.50 -3.51
2.20 -3.21 -2.38
1.56 -3.69 -2.71
3.50 -3.92 -2.14
-3.47 -1.16 -4.43
-0.99 -1.67 -4.37
-2.22 -2.90 0.22
-3.12 -1.71 -2.83
-3.10 -0.60 -5.21
4.27 -4.96 -4.47
2.31 -4.09 0.69
0.09 -3.92 0.16
1.81 -2.87 -5.36
-1.50 -3.67 2.19
-1.59 -3.45 2.01
-1.28 -1.12 -4.81
-0.48 -3.70 1.24
0.94 -2.32 -5.46
-3.39 -0.69 -5.45
0.71 -3.24 -1.81
2.80 -4.55 0.06
-3.46 -0.86 -5.34
-3.40 -1.27 -2.90
2.08 -5.10 3.26
1.12 -3.87 0.25
-4.68 -0.18 -5.28
2.12 -3.97 -2.09
-1.75 -2.05 -4.27
-2.69 -2.31 -0.54
2.19 -4.79 1.78
-1.61 -2.28 -3.22
-0.19 -3.14 -3.09
1.81 -4.25 1.44
1.87 -4.84 3.88
-5.09 -1.64 2.59
-2.60 -2.54 0.75
-0.08 -2.81 -1.91
1.71 -4.22 -1.44
-1.73 -2.52 1.22
-0.34 -2.08 -4.25
1.28 -2.94 -3.24
-5.48 -0.17 -3.82
-4.44 -0.46 -4.31
-5.29 -2.27 4.16
-3.07 -1.18 -3.40
-2.75 -2.07 -2.38
0.35 -4.62 3.79
4.43 -5.65 1.61
-2.39 -1.37 -2.94
4.13 -5.10 -1.25
-3.72 -1.25 -1.30
2.81 -5.54 1.99
2.68 -3.50 -3.95
-2.20 -1.56 -5.49
-4.26 -1.19 -3.98
0.31 -3.61 -1.15
1.26 -4.45 0.28
-1.45 -3.04 0.18
0.18 -3.20 -2.49
-4.01 -1.43 0.07
-3.12 -2.54 1.87
-3.61 -1.04 -3.49
1.32 -3.07 -3.12
0.12 -4.20 0.72
0.78 -1.99 -5.56
-1.65 -2.37 -4.08
-3.22 -1.48 -2.65
-2.24 -1.29 -4.02
-5.05 -0.90 0.48
-3.97 -2.39 2.81
-3.36 -0.90 -3.02
0.37 -2.36 -2.43
-1.98 -1.53 -3.17
1.45 -2.87 -4.27
2.56 -4.23 -0.87
-1.44 -1.85 -4.90
-2.72 -2.91 3.16
-1.96 -1.99 0.26
-4.69 -0.60 -5.07
1.86 -4.35 3.76
0.55 -2.58 -2.92
-3.53 -1.83 -0.02
-2.41 -2.87 4.00
-3.00 -1.28 -2.82
-4.30 -1.38 -0.60
-1.82 -2.96 0.54
-4.07 -1.86 1.27
0.12 -3.47 -1.83
-2.20 -2.56 0.53
-1.42 -3.20 -1.16
3.10 -5.49 3.86
-2.04 -2.64 2.10
0.25 -3.26 -2.86
1.97 -3.11 -4.70
2.18 -3.61 -1.23
-2.99 -3.32 2.80
-1.17 -1.99 -3.83
-1.48 -3.29 1.91
2.05 -4.63 0.53
-1.23 -3.65 3.30
2.28 -3.72 -1.60
0.24 -4.04 1.45
-3.58 -0.82 -2.36
1.19 -3.01 -3.40
4.01 -4.07 -2.56
1.75 -3.86 0.21
1.45 -3.45 -0.43
-5.21 -0.49 -2.32
2.44 -3.08 -5.26
0.85 -2.91 -2.37
-5.38 -1.98 1.76
4.81 -4.88 -2.83
-5.72 -1.61 1.39
1.35 -4.41 3.28
-3.86 -2.67 3.75
1.45 -3.46 -2.18
-4.35 -2.71 5.05
1.20 -3.74 0.38
-4.19 -1.02 -2.57
3.25 -4.65 -2.10
3.25 -3.97 -4.45
-4.59 -0.60 -1.24
-2.55 -3.69 4.83
-1.37 -2.38 0.22
-0.62 -4.07 2.43
-1.23 -3.17 1.42
3.31 -4.58 -1.04
-0.41 -3.16 2.00
-0.34 -3.71 2.14
-3.75 -2.32 1.41
1.88 -3.42 -4.72
1.02 -4.62 1.01
-1.70 -2.00 -5.27
-3.34 -2.34 1.58
1.15 -3.80 -0.81
-2.98 -2.51 2.28
-0.30 -3.41 -0.75
-2.38 -0.69 -5.60
-3.57 -2.70 2.90
-2.88 -1.43 -4.67
-0.82 -1.22 -5.77
-5.37 -0.44 -1.69
-4.02 -1.53 -0.58
1.45 -2.68 -3.45
-3.11 -2.39 0.17
-3.56 -2.11 0.52
2.48 -4.98 0.39
-1.80 -1.01 -5.72
-1.60 -2.38 -3.82
-4.90 -0.46 -3.91
1.56 -4.86 3.55
-3.67 -1.86 0.53
-1.81 -2.23 -2.58
0.67 -2.59 -4.24
2.35 -4.54 -0.75
-1.73 -2.72 -0.05
-3.61 -2.26 2.32
1.84 -4.26 -1.63
-1.07 -3.02 1.78
-3.37 -2.49 0.85
-4.57 -1.77 0.26
1.35 -5.16 3.89
1.62 -3.35 -4.31
-1.94 -2.04 0.36
-1.55 -3.71 3.97
-2.73 -0.75 -5.87
0.54 -5.13 3.31
-2.63 -1.64 -1.81
-3.72 -1.94 1.37
-1.63 -2.63 -0.37
-2.75 -1.69 0.72
-0.10 -2.65 -2.25
-3.04 -1.56 -0.71
2.03 -4.67 3.33
-4.92 -0.16 -4.29
-1.50 -3.43 4.24
-4.50 -1.92 1.13
-3.56 -1.72 1.57
0.95 -3.99 1.26
0.94 -2.52 -3.80
-2.94 -1.01 -3.81
2.41 -5.34 2.97
0.78 -3.69 -2.71
-2.35 -1.23 -5.10
-2.67 -2.08 -1.93
1.88 -3.57 -1.21
-3.23 -1.12 -2.28
-2.21 -3.05 2.34
1.00 -4.24 -0.95
-1.50 -2.57 0.51
1.32 -4.31 3.01
-2.86 -2.16 -0.79
-1.66 -2.11 -4.47
-0.73 -3.19 -0.94
-2.96 -2.04 -3.03
-0.49 -2.47 -1.68
-0.76 -3.92 4.10
-3.49 -1.68 1.25
0.42 -4.40 1.45
-2.31 -2.13 -3.52
-2.11 -1.97 -5.04
-1.95 -2.53 -0.71
-3.48 -1.36 -4.21
1.26 -3.16 -1.55
2.43 -3.94 -3.93
2.90 -3.64 -4.72
0.06 -2.76 -1.70
2.11 -4.24 1.90
2.56 -5.44 1.82
-0.48 -3.50 0.45
-0.88 -2.84 -1.74
-1.41 -3.50 0.79
-4.18 -2.61 4.47
-6.80 -0.99 0.16
0.62 -2.96 -5.32
1.34 -3.84 1.72
-0.91 -2.78 -3.22
1.31 -3.58 -1.58
1.11 -4.38 0.10
-2.70 -1.95 -0.56
2.66 -4.39 0.69
-3.73 -0.75 -4.34
-3.94 -1.89 0.15
1.24 -3.88 1.94
-2.84 -1.73 -0.91
1.53 -4.70 3.31
-3.90 -0.56 -3.11
1.70 -3.17 -3.32
-0.96 -2.69 0.79
2.39 -3.40 -5.41
-5.39 -1.48 -0.48
-5.54 -1.43 2.20
1.49 -4.26 0.41
4.07 -5.13 -2.23
1.71 -3.80 -2.00
-1.58 -2.98 1.00
-3.40 -2.20 -0.77
2.28 -4.15 -2.58
2.30 -3.96 -1.07
-4.83 -0.67 -1.02
1.59 -3.27 -2.30
-5.67 -0.55 -2.84
-1.27 -2.03 -3.02
-0.29 -2.27 -3.45
0.97 -2.35 -6.18
1.34 -4.83 2.64
0.05 -3.91 2.41
-0.58 -3.13 -1.07
1.86 -3.71 -3.97
-3.44 -1.89 -1.35
-2.84 -1.50 -0.60
-0.47 -2.99 -0.88
2.49 -4.05 -2.47
-4.62 -1.99 3.08
1.84 -4.48 -0.28
-5.40 -1.86 1.24
1.64 -4.59 0.83
-5.12 -0.86 -2.32
-2.96 -1.59 -3.97
0.78 -3.98 2.08
-1.11 -3.10 3.45
-4.74 -1.35 -2.68
-1.92 -3.25 3.36
-0.41 -2.56 -3.85
-1.28 -3.44 1.53
0.23 -3.68 -0.52
3.96 -4.35 -3.94
1.85 -4.32 -0.39
-0.16 -3.94 0.69
-0.44 -2.78 -1.26
-0.14 -4.42 3.54
-3.67 -2.06 0.04
-3.83 -1.90 0.52
0.41 -2.17 -5.00
1.38 -3.46 -1.02
-5.46 -1.33 0.47
-4.16 -1.90 0.72
-1.11 -3.12 -0.63
0.92 -3.62 -1.06
-1.91 -3.10 1.37
-4.15 -2.76 4.29
0.44 -2.33 -6.21
-0.85 -3.44 -0.12
1.13 -4.05 -2.15
-2.96 -3.08 2.91
-2.18 -3.09 2.92
0.02 -3.37 1.55
2.86 -4.14 -3.80
-0.36 -3.12 2.03
-1.81 -2.06 -1.69
-1.63 -1.78 -3.83
-3.86 -1.39 -2.03
-3.22 -2.44 2.99
1.01 -3.91 0.20
-0.47 -2.34 -5.19
-5.33 -1.38 2.18
-5.59 -1.34 3.55
0.65 -2.88 -4.26
-3.57 -2.49 2.39
2.54 -3.71 -4.93
-1.07 -1.64 -6.05
-3.54 -1.86 0.87
-0.48 -4.47 2.35
-2.68 -2.41 -0.46
-2.15 -1.69 -4.27
2.27 -4.60 3.05
3.38 -4.57 0.02
-6.19 -1.08 3.26
-2.84 -3.62 4.77
3.39 -3.58 -4.65
2.51 -2.91 -5.46
-0.17 -3.49 -1.05
-4.28 -1.88 1.18
-3.86 -2.35 3.94
2.55 -4.03 -4.27
-4.95 -0.42 -4.01
-0.64 -3.83 4.65
-2.38 -1.68 -4.50
-3.14 -2.67 0.71
1.49 -4.58 0.75
-2.89 -3.22 4.05
3.26 -5.33 3.89
-1.38 -2.75 1.17
-1.88 -0.94 -5.58
0.86 -4.63 3.06
-0.53 -4.03 2.68
-1.47 -3.90 4.31
-2.27 -2.62 1.39
1.92 -4.84 3.00
-5.20 -1.12 1.50
-1.37 -3.31 0.84
-4.72 -1.10 1.14
0.54 -3.61 -2.80
3.11 -5.54 2.50
-4.02 -1.74 1.20
-3.07 -2.87 4.18
3.78 -4.33 -0.96
-1.37 -3.54 2.38
-5.99 -1.62 3.38
-2.94 -1.62 -4.26
3.88 -4.32 -1.39
3.66 -4.16 -4.28
-3.56 -2.42 1.35
-0.40 -2.43 -4.45
1.57 -4.04 1.84
-1.69 -1.56 -4.89
-2.96 -2.38 -0.92
-1.04 -2.73 0.45
-2.04 -2.61 -0.63
-1.04 -1.78 -3.99
1.11 -3.89 0.64
3.78 -5.65 2.81
-2.49 -2.75 4.52
-2.29 -2.14 0.28
-3.22 -2.18 1.09
-1.22 -1.81 -6.03
0.54 -2.76 -4.55
0.36 -4.18 4.11
-2.94 -2.95 2.41
-1.39 -3.36 1.59
-2.55 -1.88 0.07
-1.98 -1.55 -2.90
0.92 -3.85 1.04
1.48 -3.71 -1.07
4.27 -5.81 4.37
-4.79 -0.68 -3.09
-2.84 -3.02 2.08
-5.78 -0.33 -1.29
-2.95 -2.18 -1.40
-2.03 -1.67 -1.66
0.50 -3.53 0.20
-3.89 -1.12 -1.42
-1.84 -2.88 2.36
-4.42 -1.68 1.99
4.28 -5.07 -1.45
-3.63 -0.80 -4.46
0.44 -4.55 4.12
-3.98 -0.97 -3.14
-2.50 -1.11 -3.78
-0.51 -1.76 -3.66
-1.96 -2.61 2.37
1.56 -4.20 -1.03
-1.33 -2.85 0.32
-0.82 -2.18 -3.93
-0.06 -3.15 -3.23
-2.09 -3.58 4.88
0.26 -3.35 0.37
-0.44 -3.37 1.66
3.86 -5.92 3.93
1.50 -3.59 -3.67
-0.42 -2.83 -2.59
0.07 -2.24 -4.99
3.47 -4.89 2.15
-1.38 -3.03 -0.04
-0.68 -2.31 -1.01
0.38 -2.81 -2.56
0.96 -2.82 -4.32
0.46 -2.85 -2.28
-0.21 -3.79 2.47
-3.80 -0.37 -5.06
-2.03 -2.70 2.89
3.42 -4.03 -3.91
-1.55 -2.54 -2.66
-1.04 -2.40 -2.54
-0.32 -2.26 -4.61
-4.97 -2.15 3.63
0.57 -2.86 -1.32
-3.58 -1.18 -3.14
0.58 -3.70 1.99
-0.30 -3.40 -1.82
3.72 -5.71 2.58
-3.23 -1.84 1.28
0.78 -4.37 2.84
-4.90 -0.17 -2.92
-0.83 -2.85 -0.12
1.48 -4.93 3.82
-3.63 -2.11 4.14
-1.23 -1.98 -2.57
1.31 -4.40 1.41
0.71 -3.01 -4.06
-3.78 -1.63 -1.97
-2.42 -2.81 0.38
0.62 -3.86 2.17
-2.10 -1.57 -4.87
3.75 -3.83 -4.59
-4.92 -1.69 0.13
0.45 -3.03 -1.92
-3.61 -0.97 -3.99
3.54 -4.46 -2.37
3.92 -5.21 1.48
1.30 -3.63 -1.23
-0.54 -4.48 3.82
3.54 -3.57 -5.01
-6.28 -0.12 -3.99
2.48 -4.14 -0.42
-4.83 -0.96 -4.22
-4.29 -1.74 2.17
-2.56 -2.18 -2.38
0.35 -2.95 -4.87
3.03 -4.43 0.49
0.18 -1.88 -5.31
-1.99 -2.81 0.18
2.36 -3.19 -2.57
1.49 -4.58 -0.48
-7.00 0.13 -4.89
-1.79 -3.02 -0.67
-6.44 -1.13 3.70
1.63 -5.10 1.81
-2.07 -1.27 -4.66
3.57 -4.39 -2.47
-4.48 -1.07 0.21
-1.75 -2.80 -0.92
-4.32 -2.88 3.00
2.41 -3.38 -3.55
-5.74 -1.47 2.09
-2.56 -2.78 2.77
0.06 -3.04 -1.30
0.78 -3.59 1.71
2.31 -3.58 -4.81
-0.13 -4.71 4.12
3.46 -4.62 -3.04
-5.93 -0.35 -1.56
1.29 -2.75 -6.43
1.20 -3.73 -0.89
-2.01 -2.63 -0.93
-2.86 -2.69 3.17
-5.33 0.08 -5.35
-3.85 -2.64 4.22
-4.35 -0.19 -4.31
3.09 -4.72 1.69
-1.88 -2.36 -2.58
-3.45 -1.19 -0.38
0.36 -3.61 0.74
-6.77 -1.36 3.12
2.14 -2.99 -6.30
-5.16 -1.11 -0.71
-3.97 -2.05 2.50
0.84 -3.66 -0.07
4.39 -4.78 -3.51
2.03 -4.69 0.68
-1.27 -3.10 1.96
-0.40 -3.31 1.97
1.24 -3.43 -1.41
0.34 -3.18 0.54
4.85 -5.41 -1.86
-2.51 -1.74 -3.82
-4.66 -0.85 -4.67
2.97 -3.62 -4.22
2.28 -4.10 1.49
-2.77 -1.39 -4.42
-4.22 -1.41 -2.76
-1.78 -3.16 1.26
2.20 -3.84 -4.24
-4.64 -1.38 -1.14
-2.57 -1.36 -5.61
-4.08 -1.15 -1.53
-1.25 -1.83 -4.61
-1.12 -2.00 -4.13
-1.79 -3.86 3.18
-3.71 -0.53 -4.16
-2.53 -2.37 0.03
2.77 -3.84 -0.83
-2.57 -2.48 3.45
3.06 -4.24 -3.50
-3.53 -2.66 2.42
3.08 -4.71 1.52
2.69 -4.43 -2.74
-6.21 -0.47 -2.67
-2.90 -2.59 3.62
-4.27 -0.31 -4.75
-4.17 -1.95 1.39
0.88 -3.36 -2.69
1.11 -4.64 3.19
-5.21 -0.23 -5.50
-3.71 -0.89 -3.88
0.28 -3.70 1.15
-2.23 -2.11 -2.72
-5.81 -1.45 3.02
-0.20 -3.41 -0.06
1.59 -3.27 -3.00
-1.53 -3.13 1.62
-3.47 -1.29 -0.65
-0.93 -1.79 -4.49
-4.69 -0.93 0.36
1.17 -3.73 1.70
1.95 -3.76 -0.45
0.12 -2.52 -3.41
2.74 -4.77 1.88
-1.67 -3.12 0.69
-4.02 -2.21 2.62
-6.08 -0.46 -3.01
-5.02 -2.34 3.12
0.81 -3.93 0.74
-1.15 -2.87 -1.80
-0.47 -2.09 -3.40
-4.84 -1.37 -1.39
0.64 -3.39 -1.07
-0.87 -2.32 0.13
-0.64 -3.17 0.00
-0.56 -2.93 -4.28
-4.35 -1.74 0.46
-5.17 -1.66 3.81
-0.81 -2.23 -1.83
-6.96 -1.66 3.06
-2.61 -2.44 1.44
1.91 -4.72 3.57
-1.78 -2.82 2.05
-1.03 -1.35 -5.28
0.87 -2.26 -5.26
-1.71 -3.42 3.28
-6.40 0.84 -5.19
-0.97 -3.01 1.62
1.41 -3.78 1.12
-0.67 -1.79 -4.42
-2.73 -2.68 1.63
-3.03 -3.03 3.44
0.91 -4.65 1.96
3.55 -5.42 0.70
-3.69 -1.81 -0.49
-0.70 -2.36 -2.25
-2.78 -2.39 2.15
-1.62 -3.82 3.78
-4.00 -1.05 -3.03
1.21 -3.62 -1.50
-5.65 -1.38 0.99
-4.19 -2.06 -0.18
-0.80 -3.70 2.81
0.51 -3.13 -2.69
-1.84 -2.58 -0.85
0.71 -2.28 -4.10
-3.82 -2.32 4.53
1.22 -4.85 2.70
-0.52 -2.97 -3.61
-4.61 -0.99 -1.95
-2.96 -1.21 -4.05
-2.24 -2.49 -2.95
3.92 -4.13 -5.20
1.57 -3.04 -4.59
-1.44 -2.02 -1.39
1.51 -3.35 -2.68
-0.16 -2.38 -3.58
2.75 -5.23 3.12
-1.47 -2.28 -0.48
-5.90 -1.54 1.96
-3.95 -2.47 2.34
-1.51 -2.88 -1.12
-3.65 -2.57 4.54
-1.71 -1.61 -3.59
-0.98 -1.87 -5.54
-5.17 -0.67 0.38
-2.96 -1.49 -2.68
-4.03 -1.74 -0.90
-1.77 -2.73 -1.69
-1.13 -1.63 -3.85
-1.17 -2.58 0.31
-4.56 -2.47 3.10
1.12 -4.67 1.97
-0.61 -2.16 -3.62
0.50 -4.59 4.74
2.32 -3.37 -3.05
0.88 -3.78 0.67
-2.07 -1.58 -2.59
0.59 -2.84 -5.10
-0.69 -4.00 2.69
-4.17 -1.89 -0.74
-3.58 -2.76 2.84
-1.10 -3.29 1.96
3.63 -5.71 2.55
4.02 -5.13 0.52
-3.69 -1.90 1.46
-0.30 -3.10 -0.32
3.30 -5.23 0.15
-1.97 -2.24 -1.31
-3.72 -1.10 -3.52
1.14 -4.37 1.89
3.23 -5.12 0.61
-4.36 -1.35 -1.47
-2.61 -2.43 1.16
-2.26 -2.26 -0.51
0.29 -4.17 2.79
-1.81 -2.87 -0.61
-3.56 -1.40 -2.31
-0.69 -2.90 -2.35
-1.31 -3.62 3.59
2.87 -3.67 -3.43
1.77 -5.13 2.94
2.30 -4.36 1.34
-2.28 -3.28 2.52
-0.59 -3.09 1.24
-2.15 -2.24 -1.08
-0.04 -3.32 0.54
-1.16 -3.90 2.38
-1.79 -2.61 1.17
0.80 -3.92 1.97
-5.29 -0.45 -4.13
-4.13 -2.01 0.61
3.20 -4.02 -2.68
-5.48 -1.66 1.61
-0.96 -1.69 -5.98
-3.74 -2.50 2.11
-4.20 -1.05 -3.32
3.15 -3.91 -2.84
3.23 -4.02 -4.83
-1.38 -2.55 0.47
-4.18 -2.31 2.56
-4.00 -1.25 -0.22
1.18 -3.99 3.49
-3.97 -2.61 2.51
-6.24 -0.57 0.45
-3.26 -1.05 -2.86
2.07 -3.99 -1.92
-2.42 -1.22 -4.58
-7.50 -0.60 0.91
-1.57 -3.11 0.23
0.92 -2.81 -2.04
-4.47 -1.05 -1.88
3.94 -5.84 3.53
0.24 -3.41 -1.53
1.95 -3.52 -0.71
1.03 -3.35 -1.84
-3.03 -2.16 1.75
-1.29 -1.97 -2.36
-1.63 -3.45 1.34
1.06 -4.42 1.04
-2.67 -3.02 3.52
0.09 -4.09 1.10
-0.20 -1.67 -6.04
-5.62 -0.79 -2.35
-1.90 -1.24 -4.87
-4.93 -1.48 3.28
-2.73 -2.12 -1.89
-0.77 -2.90 -1.61
2.32 -5.81 4.35
-4.31 -1.67 -0.26
-1.50 -1.81 -1.43
-6.89 0.09 -1.40
-4.28 -1.07 -1.23
2.35 -3.15 -5.60
2.84 -4.49 2.63
-1.36 -2.27 -1.13
-3.20 -2.51 2.53
2.81 -4.66 -1.00
-0.82 -2.02 -5.52
-2.09 -2.74 4.02
3.40 -4.58 -2.23
-2.43 -2.41 -1.15
-2.86 -2.33 -1.81
-2.42 -1.10 -3.74
1.14 -3.19 -4.16
0.93 -3.64 1.15
-1.13 -1.65 -5.64
0.18 -3.71 -0.64
3.95 -4.77 -3.52
0.31 -3.01 -1.85
-3.67 -1.35 0.45
0.58 -2.63 -5.40
-3.55 -2.37 1.37
0.56 -3.61 -1.37
-0.27 -4.15 2.18
0.09 -3.44 0.28
1.27 -3.21 -2.06
-3.44 -0.21 -5.07
-6.97 0.53 -2.92
-1.48 -3.31 2.51
-5.64 0.14 -5.08
-1.69 -2.13 -3.40
0.42 -3.55 -2.07
1.76 -3.20 -0.92
-3.01 -1.94 -0.55
2.00 -3.24 -4.25
-4.02 -2.06 0.50
0.88 -2.98 -4.79
-1.60 -3.09 0.72
-1.39 -2.61 -1.91
-1.10 -3.37 -0.06
1.03 -5.25 4.87
-6.22 -0.80 -0.44
1.67 -4.40 -0.12
-0.95 -1.36 -5.86
-0.00 -3.11 -3.96
0.24 -2.60 -3.65
-0.76 -1.85 -5.20
-2.98 -2.98 5.22
-3.36 -1.71 0.14
1.32 -3.58 -4.67
