ply
format ascii 1.0
comment Made by Nomoko
element vertex 3000
property float x
property float y
property float z
end_header
-2.01 -5.94 0.45
-0.84 -2.60 -0.28
3.31 0.27 -0.65
-4.10 4.08 -2.48
0.88 -1.80 -0.44
3.05 2.00 -2.08
-0.53 -2.75 -0.23
-1.65 -3.01 0.10
-4.09 -3.23 -0.56
0.95 -0.77 -1.13
0.22 -3.97 0.74
4.88 -3.06 0.76
-1.15 -0.38 -1.19
0.43 -4.48 -0.03
-4.23 -2.89 -1.03
3.08 -1.25 -0.30
-3.68 0.19 -1.70
-3.48 0.01 -1.03
3.27 3.93 -2.44
0.89 0.65 -1.83
0.45 -5.53 0.78
-2.82 1.82 -2.08
-3.21 0.29 -1.74
1.72 0.71 -1.26
-4.35 0.34 -2.02
-1.97 1.35 -2.30
-4.57 -1.82 -0.77
2.16 -3.22 -0.23
-0.04 1.86 -2.26
-2.95 1.97 -2.13
2.51 -4.30 0.45
3.01 -2.10 -0.59
0.84 -0.80 -1.12
-3.32 -3.64 0.23
4.77 1.72 -1.90
1.39 -0.83 -0.22
2.97 -2.34 0.04
3.90 0.81 -1.34
0.75 -3.22 -0.42
2.75 3.97 -2.23
0.17 -4.30 0.08
0.57 0.46 -1.41
0.77 -2.39 -0.43
3.44 -1.61 -0.07
0.17 0.64 -1.04
5.24 1.79 -1.91
3.44 3.97 -1.85
-3.44 -5.33 0.57
-1.54 1.03 -1.27
4.33 2.35 -1.24
4.16 4.70 -2.25
-3.22 3.42 -2.22
1.20 -2.81 -0.12
2.13 -3.36 0.28
-2.47 -0.58 -1.41
-1.34 -4.40 0.57
3.22 2.58 -2.02
4.66 -4.53 0.72
-0.65 -1.24 -0.30
3.56 -0.42 -1.02
-3.58 -2.34 -0.65
-0.10 -2.60 -0.11
1.64 -1.97 -0.51
-3.12 -3.54 -0.71
-4.25 0.91 -1.50
1.35 1.40 -1.48
-5.04 0.90 -2.01
1.05 4.96 -2.55
0.38 -0.26 -1.13
-2.96 -0.02 -1.46
-1.60 -1.45 -0.46
-1.35 2.37 -2.44
2.67 -1.72 -0.62
-0.63 -5.69 0.68
-0.98 -2.30 -0.58
4.20 4.64 -2.08
-3.48 1.13 -1.72
-3.92 0.21 -1.19
-0.32 -2.98 0.37
0.29 1.73 -1.92
4.76 2.65 -2.37
-4.72 -1.76 -1.26
-3.45 -4.08 0.07
-2.60 3.25 -2.80
-2.25 -2.95 0.18
-2.28 -2.03 -0.59
3.84 -3.39 0.84
1.04 -0.99 -0.26
2.69 -2.10 -0.19
-0.88 1.72 -2.28
2.11 1.14 -1.89
-4.77 -4.72 -0.10
4.48 -4.54 0.46
-4.87 -1.82 -0.48
-1.49 1.12 -1.03
-2.13 0.29 -1.78
-3.54 -1.61 -0.92
-1.86 -2.82 0.04
-2.18 -4.43 0.10
-4.52 3.66 -3.20
0.23 0.85 -1.79
2.79 2.12 -2.08
-2.21 -3.87 -0.25
0.96 0.20 -1.36
-2.09 -3.41 -0.09
4.35 -4.37 0.82
1.06 0.48 -1.56
-0.59 2.27 -2.13
1.13 -3.43 0.12
-1.22 -3.29 -0.02
4.08 -0.18 -0.23
-4.75 -4.96 -0.05
3.59 -3.27 0.13
1.52 -1.02 -0.79
2.81 -0.53 -0.22
3.20 -0.29 -0.47
2.96 2.79 -1.43
-0.80 0.17 -1.56
2.83 1.68 -1.67
1.27 -4.59 0.31
-1.67 -0.65 -1.22
0.63 -1.55 -1.04
0.55 3.70 -2.45
0.66 0.10 -1.00
0.60 2.96 -2.31
-0.54 1.65 -1.73
2.63 -1.25 -0.28
-2.99 2.27 -2.38
3.06 -3.59 0.61
-3.49 1.80 -2.35
2.73 5.85 -2.79
-0.87 -1.74 -0.39
-4.46 -3.15 -0.14
0.47 3.37 -2.16
0.67 0.04 -1.66
-4.83 1.47 -2.22
-2.71 -5.83 0.67
-0.60 -5.03 0.39
-5.23 -2.99 -0.24
2.27 -3.36 -0.16
-4.61 2.02 -2.42
1.31 -0.52 -1.42
3.94 2.01 -2.06
-0.01 4.14 -3.22
-4.02 -1.01 -0.78
5.64 -2.48 -0.06
0.88 -2.42 -0.07
-1.88 -2.76 -0.47
4.62 0.08 -0.78
3.53 4.04 -2.32
-1.17 -0.14 -1.13
1.38 -3.45 -0.15
-3.05 3.91 -3.15
-4.18 0.09 -0.98
-1.34 -2.59 -0.63
-0.49 -3.53 0.26
2.91 2.21 -2.01
-1.30 0.80 -1.25
2.50 -2.61 0.17
0.46 -0.52 -0.84
-4.05 -4.93 0.24
-3.16 -0.09 -0.94
3.36 4.00 -2.73
5.09 0.14 -1.24
2.16 -3.34 -0.19
4.00 -4.75 0.72
3.74 0.60 -1.34
-3.20 -3.32 -0.44
-2.40 0.21 -1.50
1.78 2.87 -1.79
-1.59 -1.04 -1.18
2.13 -1.07 -0.05
-3.15 -5.09 0.61
0.18 -1.10 -0.44
-1.27 -2.03 -0.13
5.09 1.00 -0.71
1.45 2.02 -1.85
5.42 0.14 -0.51
-2.12 3.97 -2.76
1.53 2.13 -2.28
4.72 1.76 -1.47
1.72 -2.37 -0.13
-4.19 -2.52 -0.50
3.69 3.57 -2.37
-1.72 -3.87 -0.19
-0.97 0.43 -1.47
-3.20 -1.42 -0.98
-3.67 0.56 -1.72
-5.02 -3.44 -0.32
-4.82 3.95 -2.90
-0.93 -3.92 -0.13
3.17 5.24 -2.57
-1.81 -1.29 -0.94
4.28 -4.34 0.58
0.44 5.34 -3.04
-1.29 0.97 -2.03
-2.33 -3.59 0.36
0.17 -1.99 -0.42
-3.88 0.68 -2.06
2.10 0.43 -1.11
3.69 -1.90 0.40
1.79 0.42 -1.00
-2.65 -1.90 -1.21
-1.46 1.26 -1.26
2.85 2.30 -2.08
3.25 -2.59 0.08
2.44 -0.56 -0.42
1.14 -3.28 -0.36
-0.28 4.08 -2.51
-3.40 -2.40 -0.75
-1.82 3.45 -3.15
-2.58 -2.84 -0.92
-3.24 1.40 -1.91
3.20 1.26 -1.50
-3.53 1.73 -1.99
-0.85 -0.26 -0.82
-3.31 -5.28 0.48
1.11 -5.36 1.07
-3.64 2.31 -2.49
1.34 -0.48 -0.31
2.69 4.54 -2.19
4.09 -2.17 -0.43
-1.43 3.06 -2.20
-3.61 -0.57 -0.92
0.08 -0.80 -1.02
3.69 2.78 -1.39
-2.54 1.45 -2.37
2.81 4.31 -3.12
0.50 -4.25 0.58
5.47 -3.09 0.68
1.16 2.23 -2.10
3.47 1.32 -1.17
-2.64 0.33 -1.57
3.12 -3.58 0.06
4.22 0.81 -0.75
0.37 2.52 -1.80
-3.43 2.65 -2.51
1.32 -0.17 -0.93
0.26 0.74 -1.61
1.46 -5.54 1.39
-2.81 3.00 -2.13
2.56 -4.68 0.92
-1.16 -4.27 0.61
-2.14 -2.44 -0.23
-1.19 5.03 -3.40
5.35 -0.02 -1.17
2.89 -4.82 0.53
1.26 -5.84 0.90
-3.57 0.22 -1.41
-1.85 0.98 -1.08
1.47 3.11 -2.26
2.34 1.48 -1.17
4.04 -0.10 -1.19
-2.27 0.52 -0.97
0.45 2.60 -1.81
2.13 3.24 -1.82
3.30 5.04 -2.98
-3.30 2.49 -1.99
4.39 -1.02 -0.44
-3.52 2.56 -1.94
1.57 -1.23 -0.94
-1.84 -3.70 0.14
-2.75 1.26 -1.91
-2.12 -3.25 0.14
0.58 -4.48 0.80
-0.05 1.84 -2.08
1.44 0.95 -1.46
0.34 -1.39 -0.63
0.17 -0.49 -0.81
2.37 -0.09 -1.51
-3.06 0.99 -1.89
-1.46 -0.62 -1.45
2.39 0.86 -1.49
-4.69 -4.40 0.21
-3.20 -2.56 -0.80
-2.16 0.68 -1.20
4.84 4.30 -2.23
2.12 4.46 -2.02
-2.45 -2.38 -0.85
1.98 3.86 -2.05
4.92 -2.78 0.64
3.98 -0.45 -0.32
2.06 -0.37 -0.60
-0.95 -3.40 -0.35
1.31 2.56 -2.39
-4.27 -5.80 0.12
-1.40 0.71 -1.88
-3.20 3.91 -3.21
-1.09 -0.29 -0.92
4.56 0.85 -0.84
-1.47 -5.68 0.49
4.31 -3.28 0.69
2.05 -0.32 -0.46
-2.05 0.10 -1.62
1.98 2.07 -1.79
2.14 -4.28 0.93
2.26 -4.29 0.26
0.50 -4.46 0.54
-1.29 -0.79 -0.88
-2.13 -2.25 -0.45
-2.07 3.61 -2.72
-3.40 -1.73 -0.40
4.16 1.61 -1.59
3.68 -3.63 0.72
2.42 3.00 -2.40
3.40 -0.85 -0.91
-4.59 -2.59 -0.82
4.01 -1.97 -0.23
-0.33 1.34 -2.11
3.95 -1.86 -0.11
-3.23 0.54 -2.06
-1.90 1.84 -2.05
-1.74 3.67 -2.86
-2.96 -4.01 0.15
-2.83 -1.25 -0.96
2.82 2.89 -1.75
1.96 -0.26 -0.79
-4.42 -0.27 -1.53
-3.10 -0.36 -0.68
0.41 -0.83 -0.61
2.40 2.07 -1.25
1.33 -0.67 -1.24
-1.36 -2.27 -0.63
-3.24 -4.75 0.30
-2.96 -1.40 -0.49
-4.00 2.25 -2.50
-4.45 0.44 -1.78
-3.66 -2.94 -0.53
-3.84 -1.15 -1.21
-3.55 -4.53 0.22
2.58 5.17 -3.01
-2.60 -5.99 0.92
-0.87 -0.99 -0.98
-3.95 -4.25 0.34
-2.04 -1.92 -0.75
-4.27 -0.51 -1.21
-2.01 -0.39 -1.27
-2.98 -2.91 -0.42
-4.19 -1.80 -0.40
0.28 -4.20 0.27
-1.28 2.40 -1.57
-4.80 3.50 -3.02
-4.61 -0.67 -1.56
1.80 -2.23 0.19
2.56 -5.84 0.70
-4.78 1.17 -2.51
-5.02 -3.83 -0.35
3.23 -3.04 -0.38
0.89 -1.94 -0.44
0.28 -0.32 -0.99
1.36 -3.12 0.20
3.41 -5.95 1.59
-4.34 4.05 -3.29
1.25 1.58 -1.59
1.09 1.43 -1.65
1.35 -4.13 0.02
-1.36 -4.74 0.59
1.52 1.36 -1.66
-2.01 1.62 -1.88
-3.82 -3.33 -0.55
0.69 2.50 -2.40
0.40 -3.55 0.66
-1.03 -1.50 -0.89
2.35 2.15 -1.80
0.24 -1.79 -0.67
0.87 -1.28 -0.53
1.48 0.87 -1.87
-1.75 3.77 -3.04
1.41 3.44 -2.30
0.95 3.32 -2.36
-1.73 -0.11 -1.59
3.69 -2.66 -0.44
0.90 -1.08 -1.21
-1.47 2.96 -2.63
-2.49 5.44 -2.90
2.29 -4.48 0.16
-0.66 0.47 -1.73
-2.00 3.71 -2.28
4.41 -4.99 0.61
3.08 -0.81 -0.15
-1.53 -1.33 -1.29
2.03 -0.39 -0.97
0.56 0.06 -1.30
-3.84 2.55 -2.65
5.22 0.99 -1.09
-1.71 2.29 -1.68
3.29 -3.30 0.26
-2.24 -0.05 -1.65
-3.15 4.26 -2.91
-3.22 1.58 -2.29
-2.50 -4.69 0.86
-4.08 -1.64 -1.06
-1.16 0.08 -1.46
4.49 -4.09 0.75
-2.06 -4.20 -0.21
2.96 2.40 -2.13
3.64 5.09 -2.57
-1.75 -3.15 -0.04
-3.09 0.12 -1.26
-3.88 -1.43 -1.33
1.00 2.11 -1.76
2.08 -0.42 -0.90
-4.76 3.39 -2.64
-2.26 -1.73 -0.10
-2.39 0.68 -1.81
4.15 2.91 -2.48
1.49 -0.45 -0.38
-2.33 -2.93 -0.18
-4.32 1.26 -1.90
-3.05 -2.92 -0.50
4.22 -2.37 0.20
-5.05 -1.79 -1.00
3.71 4.91 -2.62
0.55 -1.18 -0.73
2.07 1.00 -1.13
-0.63 -4.25 0.76
-4.37 -3.84 -0.25
-3.34 1.58 -2.29
-2.45 -2.78 -0.84
3.97 -1.19 0.07
-0.52 0.73 -1.44
3.51 -1.62 -0.06
-1.59 -4.50 0.28
-1.30 1.18 -1.59
0.42 0.98 -1.38
-1.29 -0.31 -1.53
-4.34 -2.84 -0.91
-1.14 -0.89 -1.45
-1.12 -1.58 -0.74
2.23 -2.94 0.32
-3.97 1.40 -2.01
1.52 2.07 -2.27
-2.29 -3.62 0.18
-0.56 -4.24 0.51
-0.05 -2.67 -0.51
-1.50 -0.73 -0.59
0.32 -1.31 -1.15
-1.41 -2.28 -0.60
4.63 2.77 -1.95
1.23 -3.08 -0.07
0.01 2.21 -1.86
2.71 1.52 -1.87
-1.19 -3.77 0.59
3.59 2.51 -1.71
1.04 -1.12 -0.43
2.34 -1.92 -0.07
-1.56 3.60 -2.97
-3.29 -1.73 -0.36
-3.92 -0.28 -1.06
-0.46 4.57 -3.32
-3.71 -0.65 -1.45
-1.69 0.15 -1.22
0.45 -2.76 0.06
1.55 0.69 -1.31
4.96 0.22 -1.07
-2.35 -3.86 0.63
-0.18 -6.59 1.00
-1.13 1.17 -1.63
-4.79 -0.99 -0.85
0.02 2.46 -1.98
-0.93 4.48 -2.78
0.29 -3.40 0.25
-0.75 0.14 -1.55
-2.40 -4.25 -0.11
-0.76 -0.31 -1.35
-4.75 3.74 -2.59
4.68 1.44 -0.82
1.01 2.05 -1.62
-1.60 -3.67 -0.29
-1.80 -2.35 -0.52
-2.77 2.37 -2.79
-4.17 -0.36 -1.66
2.19 2.58 -1.68
-4.66 -1.38 -1.16
-2.69 -0.67 -0.84
2.75 -2.18 0.29
3.38 -4.26 1.00
0.40 1.65 -1.42
4.79 -2.01 -0.16
2.64 -2.08 -0.45
1.75 -4.34 0.99
-2.42 1.21 -2.36
4.83 2.41 -1.95
1.96 -2.55 -0.41
-3.02 -0.61 -1.19
2.01 2.37 -2.44
-3.38 3.82 -2.77
-4.24 -0.80 -1.32
-0.38 2.88 -2.37
-5.15 -3.10 -0.66
-1.70 4.08 -3.26
3.28 -5.11 1.41
0.87 -0.25 -1.46
1.97 -4.68 0.46
-3.68 3.01 -2.48
-2.37 -2.04 -0.28
3.63 4.04 -2.66
2.08 -1.77 -0.33
0.92 0.34 -0.89
2.69 -1.07 -0.17
-3.43 3.71 -2.36
-2.42 -3.24 0.02
-4.69 -2.77 -0.80
-4.52 -4.06 0.25
-4.43 -0.24 -1.28
-4.43 1.25 -2.26
4.06 2.11 -1.37
-3.39 -3.46 0.26
4.00 -0.84 -0.68
-1.52 -3.86 -0.08
4.31 1.67 -1.06
1.24 -3.90 0.04
3.57 1.95 -1.35
-3.45 4.35 -3.22
0.03 3.07 -2.32
1.73 -0.31 -0.52
-4.68 -3.01 -0.70
-2.08 4.48 -2.78
3.80 -2.18 0.03
-4.31 4.53 -2.89
-2.98 -6.47 0.36
4.11 -2.23 0.39
-2.00 -1.05 -0.94
-3.24 4.36 -3.03
5.24 -1.06 -0.07
-2.33 -0.61 -1.17
3.89 -2.62 -0.52
-0.61 -3.41 0.32
-0.10 5.21 -2.49
-3.29 -1.82 -1.02
4.04 0.60 -1.00
-2.24 0.99 -1.63
-3.60 -1.84 -0.52
1.43 -3.23 -0.15
-0.34 2.83 -2.12
-0.21 -2.91 -0.13
-4.71 -4.36 0.34
2.19 -1.40 -0.64
1.80 0.57 -1.03
3.43 -4.14 0.15
1.02 0.74 -0.99
2.81 0.28 -0.77
0.21 3.46 -1.87
-1.67 -1.60 -0.47
-3.14 -2.52 -0.94
-2.63 1.26 -2.14
2.97 -3.53 0.46
-4.82 3.60 -3.22
2.03 0.05 -0.71
-1.23 1.29 -1.37
3.51 -3.32 0.01
-3.88 -1.61 -0.72
-2.80 0.25 -1.68
3.29 1.75 -1.53
1.40 -3.84 0.71
1.41 -0.13 -1.00
0.93 -1.77 -0.13
-2.84 -5.03 0.19
-1.93 -1.73 -0.20
-2.08 1.92 -2.43
3.10 3.02 -1.77
-1.25 3.38 -2.48
1.39 -3.38 -0.07
2.25 2.80 -2.11
1.89 -4.49 0.70
-1.36 -2.20 -0.51
-1.15 3.62 -2.05
-1.82 -0.89 -1.23
-1.92 -1.51 -0.42
-3.08 -1.27 -1.04
-1.82 3.45 -3.19
-2.62 -2.84 -0.73
0.59 -1.98 -0.39
-1.98 3.96 -2.50
4.58 -0.46 -0.31
-4.88 -3.70 0.21
4.68 1.83 -1.46
-0.89 0.13 -1.64
3.24 -0.66 -0.79
3.64 3.21 -1.57
-4.28 1.92 -1.83
-2.09 1.41 -2.25
-1.21 -3.09 0.05
-4.19 2.27 -2.04
-0.91 -3.64 0.12
3.28 -3.31 0.60
-5.04 3.43 -2.42
2.99 -0.12 -0.61
-0.49 0.75 -1.31
2.26 -3.33 0.45
0.26 2.46 -2.30
-1.87 2.04 -1.69
-4.93 -1.26 -1.22
0.48 0.45 -1.65
2.69 -0.08 -1.44
3.96 -5.44 1.31
-2.29 1.28 -1.84
0.83 2.40 -1.40
0.86 -1.80 -0.34
2.43 0.02 -0.68
-1.14 -5.34 1.05
1.30 2.85 -2.19
1.95 -3.08 0.66
3.89 0.33 -1.29
0.61 -1.65 -0.54
0.79 1.80 -1.67
-3.77 -2.06 -0.94
-1.04 1.15 -1.79
4.06 -2.45 -0.39
-0.06 -1.21 -1.37
-1.81 0.31 -1.53
3.42 2.52 -2.28
0.17 -1.48 -0.63
1.93 4.26 -2.85
-0.64 4.47 -3.21
1.68 -4.20 0.68
2.29 -3.17 -0.13
3.69 -5.37 1.13
-1.39 -0.97 -1.23
-1.26 -3.55 -0.01
2.29 0.45 -1.26
1.38 3.38 -1.89
-2.54 0.59 -1.47
-3.79 2.53 -2.03
2.84 -3.40 -0.15
-3.86 -3.66 -0.45
-4.26 0.38 -1.51
2.34 1.28 -1.88
-2.18 -1.42 -0.79
-1.30 -1.06 -1.02
1.06 -3.14 0.26
1.94 -4.09 0.32
-0.65 3.85 -3.01
-0.84 2.95 -2.36
4.45 2.13 -1.16
-2.32 2.80 -2.15
-1.24 -2.14 -0.31
3.16 -1.96 -0.20
-3.27 -0.32 -1.37
-4.47 0.95 -1.95
-1.50 2.38 -2.52
-0.57 2.51 -2.07
-1.79 0.03 -1.32
-2.84 -3.82 -0.29
0.46 -5.23 0.87
-1.35 2.19 -1.75
-1.09 -1.08 -1.09
-1.88 0.54 -1.64
-1.69 -0.45 -0.76
-0.24 -0.89 -0.30
-3.57 -1.79 -1.13
-1.98 -1.54 -1.06
2.98 1.45 -0.93
-1.71 3.64 -2.50
0.92 -0.61 -0.86
-3.21 -2.72 0.06
-3.09 -2.26 -0.36
3.95 -5.02 1.10
-0.69 4.31 -2.68
-0.34 2.92 -1.72
-1.52 -3.95 0.47
-3.38 3.61 -2.81
2.93 0.95 -1.62
-4.39 -1.72 -0.85
2.07 3.75 -2.45
-1.32 1.02 -1.91
-4.99 -2.46 -0.27
0.16 -5.54 0.41
-0.32 -0.36 -1.27
-0.63 0.05 -1.47
3.65 -3.22 0.39
1.45 2.86 -1.99
3.36 -3.28 0.71
0.71 2.66 -2.02
-1.29 -4.20 0.51
2.44 0.92 -1.27
3.57 -0.93 -0.61
-2.34 1.54 -1.80
-0.15 -2.10 -0.45
-3.84 0.47 -1.48
-4.11 3.19 -2.38
-3.56 2.13 -2.43
4.01 1.06 -1.26
0.67 1.02 -0.91
4.17 1.38 -1.89
4.31 0.02 -0.95
-0.11 -1.76 -0.28
-2.27 3.75 -2.37
-4.42 0.78 -1.24
-2.31 -0.09 -0.94
-3.04 0.99 -1.60
-4.02 -0.86 -0.94
3.65 -0.01 -0.74
-2.70 -5.35 0.34
5.22 -2.72 -0.30
-4.21 -4.42 0.18
-3.30 -4.41 -0.02
3.33 0.09 -0.52
-1.40 3.03 -2.36
2.78 3.75 -2.07
-0.56 -2.34 -0.28
-1.95 -2.81 -0.13
0.50 2.03 -2.39
-0.91 3.39 -2.86
3.31 -1.53 -0.09
0.23 -0.05 -1.47
-2.19 -1.47 -0.90
1.29 -3.74 0.12
3.43 -1.25 -0.79
2.93 4.39 -2.32
3.52 -1.07 -0.97
0.42 1.01 -1.96
-2.35 0.03 -1.40
-2.21 2.42 -2.20
0.63 0.96 -1.16
1.70 -2.42 -0.32
5.16 -4.80 0.53
1.69 -0.16 -0.75
-3.11 -1.86 -1.25
-3.61 0.91 -1.33
0.22 -5.16 0.99
-3.27 -0.25 -1.46
-0.54 2.24 -1.76
-2.08 -1.92 -0.92
3.50 4.18 -2.17
-4.02 1.54 -2.03
-4.70 -2.65 -0.92
-2.92 -1.64 -0.27
-2.14 2.19 -1.84
4.43 -4.10 0.89
4.03 -0.79 -0.84
0.54 -0.41 -1.09
0.98 -0.26 -0.72
-2.43 -0.11 -1.55
-4.41 2.97 -2.66
4.06 -3.46 -0.10
-3.75 4.25 -3.12
2.74 -3.00 -0.32
4.09 -2.03 -0.39
3.59 -1.87 -0.18
-3.08 1.06 -2.01
4.84 -0.44 -0.81
-3.92 2.79 -2.17
-3.91 -1.68 -0.42
4.67 -1.01 0.05
-1.05 -3.48 -0.02
0.59 -4.05 0.59
-3.05 -0.22 -1.26
1.04 -3.94 0.40
-1.88 -1.82 -0.63
-1.46 2.54 -2.02
-1.05 -0.92 -0.95
-2.71 3.68 -2.37
-1.46 0.95 -1.67
3.90 -3.16 0.75
-0.77 2.11 -1.87
1.81 2.01 -2.09
-0.97 -2.44 -0.43
-3.24 -3.97 0.22
-1.61 -3.00 0.31
3.92 4.15 -2.12
0.25 2.49 -2.42
2.97 1.48 -1.21
-2.97 -3.54 0.27
2.85 -4.25 0.49
0.43 2.50 -2.39
0.61 -3.08 -0.44
-0.15 3.30 -2.51
-2.82 -4.07 0.42
-0.44 2.27 -1.86
3.46 1.78 -2.04
-0.72 1.95 -2.04
-4.98 1.38 -2.18
3.62 -3.36 0.76
-1.59 3.60 -2.52
-4.43 4.00 -3.39
3.22 0.37 -1.13
-3.97 -0.15 -1.35
-1.34 4.60 -2.59
-2.00 -2.70 0.02
4.56 -1.47 -0.83
-2.85 -1.06 -1.60
-1.79 -2.36 -0.24
-3.00 0.62 -1.55
0.38 0.11 -1.54
-0.25 4.52 -3.27
2.44 3.10 -2.20
0.41 2.61 -2.26
2.11 -2.29 0.02
-1.47 1.13 -1.94
2.65 -2.48 -0.18
-1.83 1.85 -2.05
-2.11 -3.02 0.07
-0.34 3.45 -2.58
3.92 5.24 -2.25
0.58 1.77 -1.66
0.05 3.53 -2.27
-4.42 -4.83 0.39
-1.56 -2.20 -0.35
0.24 4.53 -2.81
3.65 4.10 -2.76
-1.89 2.92 -2.40
-0.75 -0.48 -1.52
3.09 -4.67 0.58
3.58 -1.45 -0.63
-1.21 0.09 -1.28
3.29 -1.09 -0.64
-1.83 -0.51 -1.50
-4.38 -3.60 -0.26
-4.10 -0.08 -1.92
0.71 4.78 -2.30
2.43 -3.88 0.71
0.65 1.13 -1.10
3.15 -3.23 -0.14
2.11 0.69 -1.07
1.20 1.74 -1.71
-0.34 -0.58 -1.36
2.04 -0.77 -1.14
-3.13 0.33 -1.63
-0.09 1.58 -2.20
2.41 1.68 -1.83
-1.43 0.38 -1.42
4.62 -0.61 -0.65
-1.05 -5.15 0.53
3.07 -3.13 0.14
-0.04 -3.09 -0.03
2.15 -0.81 -0.40
1.27 -3.00 0.41
-4.49 3.66 -2.54
-1.90 -2.48 -0.50
4.54 0.80 -0.86
-5.04 -0.56 -1.38
-4.30 3.17 -2.86
3.43 -0.96 -0.36
-1.31 3.93 -2.89
-2.69 -3.15 -0.50
-1.73 -0.72 -0.90
-4.56 3.79 -3.24
1.80 1.68 -1.43
-0.30 1.87 -2.47
-4.64 -0.17 -1.22
3.84 3.26 -2.58
3.31 -3.35 0.02
-1.38 1.32 -2.29
-2.55 2.52 -2.53
3.82 2.08 -1.83
-4.57 -2.04 -0.76
2.30 -2.59 0.60
-0.10 1.01 -1.70
3.82 -0.45 -0.92
4.69 -1.13 0.11
-0.49 -2.94 -0.42
-1.79 -2.26 -0.86
-0.99 1.34 -1.55
0.69 -4.66 1.04
0.76 -6.02 1.29
4.58 -4.93 0.52
-2.48 0.20 -1.31
2.09 -1.63 -0.03
1.97 1.85 -1.50
4.04 -1.13 -0.42
2.36 1.79 -1.40
-0.16 -4.55 1.05
-3.20 3.77 -3.07
2.94 0.65 -0.66
2.40 4.14 -2.81
-2.49 0.63 -1.23
-0.18 0.17 -1.51
-4.95 -0.82 -0.84
-0.29 1.68 -2.38
4.87 -0.35 -0.90
-0.42 3.17 -1.87
-1.82 -1.83 -0.79
3.83 -5.38 1.24
-1.45 3.14 -2.11
-4.37 -6.14 1.02
4.99 -3.20 0.23
-3.58 -0.00 -1.07
-0.40 -0.93 -1.11
3.51 -0.65 -0.71
0.88 2.47 -1.54
-0.54 1.57 -2.22
0.33 -2.80 -0.79
4.72 2.18 -1.88
-4.59 -0.61 -1.11
-1.75 -2.38 -0.25
-2.30 -0.94 -0.69
2.82 0.43 -0.90
-4.35 2.81 -2.25
1.68 -1.98 -0.08
-2.24 -4.27 0.42
1.83 4.90 -2.73
4.74 -1.06 -0.87
0.45 -4.55 0.20
1.51 3.45 -2.25
-1.76 -4.87 0.23
3.06 -2.23 -0.34
0.11 1.13 -1.42
-4.37 0.78 -1.38
-1.29 -1.46 -0.76
3.13 0.33 -1.25
4.65 0.32 -0.97
-4.36 -4.33 -0.02
1.17 -2.17 -0.63
0.33 -1.49 -0.45
1.96 3.89 -2.67
-3.23 -0.05 -1.18
3.22 2.88 -2.39
-0.31 -0.70 -0.82
0.50 1.24 -2.08
-4.00 -2.61 -0.94
1.14 2.69 -2.43
-3.85 0.23 -1.63
-1.31 -3.61 0.34
0.14 1.28 -1.40
-0.69 2.35 -1.75
-0.53 1.75 -1.78
-2.44 -2.20 -0.51
-3.72 -2.32 -1.22
0.58 0.27 -0.74
-4.30 2.88 -2.80
-2.60 4.07 -2.95
-0.66 -4.90 0.74
-0.74 -0.40 -1.27
1.75 0.50 -1.58
-2.79 2.47 -2.62
4.09 0.84 -0.67
-2.54 4.37 -3.06
-0.01 -4.39 0.26
3.56 -2.46 -0.10
-1.66 2.61 -2.33
3.40 -1.42 -0.88
-2.12 -1.74 -1.16
4.25 3.31 -1.49
-1.69 3.39 -2.17
0.56 -0.46 -0.83
0.14 -1.75 -0.59
0.89 -2.80 0.16
3.42 0.37 -1.06
3.03 2.26 -1.45
-1.71 -0.73 -1.31
-1.57 -3.70 0.28
-3.39 -0.71 -1.21
-0.91 -4.65 0.94
-2.18 0.93 -1.27
2.74 2.87 -2.01
3.93 -2.76 -0.33
-3.07 0.43 -1.21
4.83 -1.09 -0.56
1.23 0.43 -1.30
-3.51 -0.56 -1.10
-1.80 -2.32 -0.57
-3.77 -2.92 -0.50
-3.13 -1.34 -1.07
-0.11 -2.26 -0.56
2.98 -1.77 -0.45
-1.35 -2.10 -0.60
-3.83 1.25 -1.49
4.93 2.54 -1.70
2.08 -3.29 -0.13
-2.03 4.31 -2.67
3.24 -0.01 -0.82
-5.24 -1.94 -0.40
-1.09 -3.90 0.21
-4.48 -3.16 -0.12
-1.25 -0.54 -1.61
-1.73 -2.18 -0.08
4.29 4.06 -2.68
1.05 1.49 -1.89
-1.99 -2.54 -0.96
1.82 -1.99 -0.29
1.29 -0.05 -1.23
4.21 -2.44 0.43
0.75 -0.06 -1.51
-2.41 -0.52 -1.18
3.44 -4.03 0.30
2.69 3.04 -2.29
4.32 1.79 -1.93
0.28 -2.22 0.06
1.45 0.34 -1.33
-3.75 -2.73 -0.25
-3.12 0.16 -1.77
0.83 1.10 -1.05
0.05 -3.18 0.45
-1.67 0.66 -1.64
-1.08 -4.37 0.41
4.08 4.99 -2.89
4.49 -3.22 0.82
-0.96 4.77 -2.84
1.64 1.05 -1.03
0.80 2.29 -1.45
-3.84 -1.45 -0.77
-0.20 -1.39 -0.46
4.26 -0.53 -0.65
0.60 2.40 -2.22
0.60 4.69 -2.69
1.91 -3.69 0.23
2.24 -0.36 -1.04
4.13 -1.58 -0.42
1.45 0.09 -1.21
1.78 1.03 -5.32
3.52 -1.67 1.63
1.34 -0.27 -0.04
-3.05 0.59 3.82
-2.58 0.57 2.76
0.44 -0.87 2.08
-2.67 1.05 1.83
0.47 -0.97 2.71
-3.20 0.55 4.76
2.66 -1.87 3.61
-3.01 2.36 -3.77
-0.45 1.21 -0.92
-0.42 1.71 -4.80
0.83 0.44 -1.24
-0.12 0.07 2.70
2.45 -1.57 2.72
0.84 0.45 -1.93
3.10 -0.16 -2.85
0.33 -0.08 0.83
4.12 -2.77 2.90
-2.21 0.67 0.83
-2.39 1.97 -0.46
1.94 -0.02 -0.52
-4.01 1.07 1.17
0.16 0.37 -0.17
5.69 -1.81 -2.03
3.60 -0.36 -3.11
0.69 -0.82 1.54
1.62 -1.45 1.48
-2.38 2.28 -3.23
-5.54 1.37 2.02
-2.77 -0.02 6.10
-3.11 2.73 -4.07
0.19 -0.47 2.53
-3.00 1.70 -0.72
-3.49 1.15 2.14
-0.77 1.20 -1.84
2.86 -2.38 3.97
2.85 -1.78 3.07
1.77 -0.49 0.13
4.61 -1.17 -0.50
-2.07 0.91 1.27
2.44 -0.24 -3.32
-0.29 2.10 -4.65
-1.07 0.27 -0.58
-3.19 0.61 3.65
3.01 -2.16 4.41
0.01 -0.67 1.80
-4.03 1.34 1.73
-4.17 0.77 3.15
-1.94 1.75 -0.14
2.78 0.61 -3.19
-2.78 1.97 -0.68
-4.75 3.02 -4.49
1.53 -0.69 2.65
4.98 -0.35 -2.50
-1.98 1.02 0.96
3.40 -0.61 -1.63
-0.28 1.14 -3.00
-0.45 0.65 -1.89
1.78 -0.85 0.29
0.98 -0.23 0.73
3.07 0.58 -4.25
2.95 -2.38 3.70
3.43 -1.09 1.72
3.25 -1.52 1.56
-2.95 0.28 3.02
4.32 0.56 -4.83
-1.61 1.25 -1.33
-1.72 0.19 1.54
0.44 -0.49 1.20
1.73 -0.36 -0.93
0.71 1.36 -4.44
2.65 -0.82 -0.72
2.39 -1.54 1.70
-2.14 2.58 -4.14
-0.43 0.63 -2.33
1.42 -1.22 3.90
-5.71 1.70 2.59
4.86 -2.35 2.02
-1.15 0.12 3.17
-3.46 1.96 -0.04
-0.03 -0.07 2.46
2.50 -0.22 -2.18
1.68 -1.21 3.17
0.56 -0.76 1.87
4.81 -0.55 -4.05
-2.67 1.04 0.94
1.12 1.32 -2.44
-0.91 1.06 -0.78
1.25 0.25 -1.76
2.64 -0.60 -1.99
-2.23 1.55 -2.02
0.82 0.69 -2.44
2.26 -1.64 3.65
-4.16 2.02 0.82
-0.12 1.94 -4.55
3.73 -0.53 -0.50
6.39 -2.00 -0.37
2.73 0.41 -5.42
0.13 1.80 -3.14
-1.96 1.24 0.37
-1.00 -0.60 3.67
1.85 -0.82 1.12
2.84 0.77 -4.37
0.33 0.22 -0.41
3.47 -0.88 0.77
2.81 -0.02 -3.05
4.77 -1.62 -0.69
-3.93 3.19 -4.16
-1.36 -1.09 5.01
1.71 0.33 -0.92
-0.71 1.21 -0.42
0.75 1.20 -1.20
-0.59 -0.22 1.76
-0.17 0.84 -1.70
-1.02 1.35 -1.29
1.18 -0.17 0.29
-3.69 2.04 -1.13
-1.38 -0.33 2.82
-3.16 -0.03 4.46
6.01 -1.15 -4.04
-0.37 -0.48 2.60
0.57 0.19 1.09
-2.49 2.36 -2.12
2.24 -1.48 3.00
5.38 -0.55 -3.37
-2.81 1.90 -3.50
-1.49 0.97 1.43
-4.52 3.27 -4.10
2.20 0.68 -3.93
-1.41 0.04 4.43
3.46 -0.74 -2.40
2.05 -1.04 0.23
-0.88 -0.90 5.08
1.87 0.05 -1.50
-5.29 2.19 0.99
-3.16 2.21 -0.04
2.37 1.12 -5.04
5.08 -1.81 0.09
0.62 0.83 -2.23
3.28 1.11 -5.57
1.42 0.33 -1.00
-1.97 0.28 1.21
2.49 -0.14 -0.85
0.91 -0.28 -0.12
-0.87 1.11 -1.50
4.03 -0.20 -1.10
2.28 -1.06 3.22
2.59 0.29 -1.36
-0.53 1.24 -1.82
-0.06 0.22 0.93
-4.57 2.01 2.50
2.89 -2.53 3.76
2.17 -0.92 0.90
4.04 -2.16 2.31
1.95 -0.84 0.99
-2.72 1.02 2.63
-0.18 -0.15 1.66
1.43 0.15 0.63
2.29 0.54 -3.45
3.11 -2.29 3.85
2.68 -2.00 3.03
-3.96 2.13 -0.37
3.17 -0.70 -1.82
-2.29 1.20 -0.11
-2.05 0.33 2.33
0.69 0.03 0.43
-4.28 0.75 4.21
1.89 -0.01 -2.62
-1.41 2.42 -4.04
3.86 -0.62 -2.97
-2.68 0.68 3.73
0.61 0.76 -2.11
0.05 -0.65 1.92
-1.22 -0.42 3.91
-4.55 0.72 3.12
2.20 -1.51 2.74
6.02 -1.76 -0.74
-2.15 0.96 2.56
-2.06 -0.26 3.04
0.62 1.07 -1.76
-0.19 2.26 -4.70
-2.44 1.45 -0.02
0.03 1.63 -4.24
-4.45 2.00 1.44
1.67 -1.07 0.85
-1.38 -0.92 5.94
-2.59 0.16 2.41
3.25 -1.15 -1.38
1.83 -0.86 1.58
2.25 -0.36 -2.49
-4.86 1.21 5.10
5.28 -2.56 3.38
-2.03 0.77 1.65
0.28 -1.37 3.95
-0.19 -1.04 3.88
5.76 -1.57 -2.77
4.28 -1.57 1.18
4.00 -0.44 -2.13
-2.98 -0.14 2.93
3.59 -1.12 -1.17
1.59 0.40 -2.69
-5.75 2.29 0.05
3.60 -1.09 -1.54
-5.22 1.72 1.27
0.33 -0.06 1.80
-4.04 1.32 0.87
0.90 0.74 -2.67
-1.83 1.19 -0.23
-2.23 1.67 -0.43
4.26 -0.13 -4.00
-1.06 2.46 -4.32
3.40 -0.83 -0.28
0.05 -0.78 3.73
2.36 -0.33 -1.45
-3.59 1.04 2.17
4.65 -2.04 2.17
2.93 -2.51 4.25
1.93 -0.19 -2.52
0.20 0.86 -1.09
-3.58 -0.23 4.87
-1.18 2.44 -4.39
4.40 -1.36 -1.63
-3.43 -0.25 4.31
1.02 -0.33 1.01
-2.17 2.17 -3.26
-1.88 1.25 0.46
-2.64 0.67 1.68
1.86 0.78 -2.54
-0.19 0.06 1.92
-1.30 1.83 -2.07
-5.31 1.90 0.53
2.28 0.31 -2.54
3.04 -0.63 -1.81
-1.79 1.68 -2.63
-2.76 2.53 -3.19
-0.11 0.88 -2.87
-3.65 1.88 0.31
0.02 1.13 -3.79
1.46 0.06 0.82
-2.88 0.05 4.48
3.14 -2.16 2.81
1.64 -1.34 2.70
0.96 -0.29 -0.33
-2.85 1.13 1.38
0.42 -0.23 -0.07
-4.23 2.65 -2.50
2.86 -2.30 3.46
-4.57 3.46 -3.63
-1.94 3.18 -5.47
1.98 -1.11 0.91
-0.23 2.02 -3.52
4.24 -2.32 3.63
2.74 -1.23 2.33
-1.94 1.97 -4.17
-0.98 2.13 -4.53
-1.42 0.66 -0.12
0.76 0.90 -3.91
-2.15 -0.79 5.99
0.54 0.68 -1.55
0.31 -0.96 2.57
1.59 1.14 -3.03
-2.69 1.60 -1.78
3.66 -1.19 1.84
-0.91 -0.51 3.59
-0.52 0.75 -0.22
2.30 0.07 -2.47
0.24 1.56 -4.46
1.25 0.52 -3.66
-1.41 1.15 -1.32
-1.59 0.65 2.43
-1.86 2.12 -2.08
-5.47 3.11 -0.58
-4.66 3.22 -3.77
1.12 -0.08 0.43
-0.63 0.17 0.55
-0.49 1.11 -1.56
0.49 -0.77 1.33
2.06 -0.28 0.38
0.29 1.28 -4.72
-2.55 0.89 2.49
-0.93 0.86 -1.14
-2.45 0.90 2.25
-4.18 0.20 4.32
4.74 -1.29 0.05
2.67 -2.48 4.06
-4.20 0.78 2.87
3.68 0.40 -3.96
3.97 0.23 -4.80
-0.61 0.62 1.21
-2.43 1.02 1.52
-3.25 0.42 2.14
-4.01 1.18 2.51
-2.04 1.18 -1.56
-0.51 1.20 -2.18
0.71 -1.47 4.24
-0.41 -0.10 0.30
3.64 -1.92 2.33
-2.33 1.76 -1.94
2.04 -0.02 -0.67
3.42 0.26 -3.54
3.07 0.27 -3.48
-3.97 2.68 -0.66
-3.87 2.62 -3.31
-1.91 1.87 -3.27
0.79 -1.13 2.60
-0.46 0.47 -1.39
0.19 1.42 -3.45
-3.13 0.13 2.46
4.38 -1.88 0.89
-2.95 2.00 -1.68
-4.73 1.69 0.11
4.65 -3.02 3.26
2.14 -0.46 1.78
-0.37 1.94 -2.49
2.06 -0.06 -0.01
-2.68 2.19 -1.86
3.42 -0.74 -1.66
1.24 -1.13 3.88
1.59 -0.41 -0.08
1.17 0.91 -2.04
-0.09 -0.04 3.32
2.07 0.04 -3.44
-2.26 0.13 2.12
2.81 0.63 -4.05
0.08 2.14 -4.59
1.35 -0.32 0.99
3.89 -0.24 -3.30
-1.71 2.07 -3.88
0.19 -1.28 3.11
-0.99 1.31 -3.99
1.47 1.33 -4.39
1.67 -1.16 2.00
-2.53 2.08 -3.75
-1.29 1.20 0.12
0.24 0.70 -2.37
0.67 0.69 -1.31
0.08 -0.47 3.46
3.97 -0.80 -2.29
2.51 -1.21 2.69
2.42 -0.56 0.34
-4.08 2.65 -3.35
2.08 -0.96 1.81
-2.65 0.83 1.48
-2.76 0.20 2.47
3.80 -1.08 0.78
0.18 -0.99 5.42
2.20 0.45 -2.63
-3.22 2.21 -1.05
-0.59 0.45 -1.12
-2.55 0.72 2.67
-0.09 0.22 0.35
-1.10 -0.26 1.83
-1.20 -0.27 4.61
2.50 -1.80 3.72
-2.91 -0.35 3.71
1.23 0.58 -3.25
3.01 -0.41 -2.40
-3.49 0.96 1.74
0.04 1.48 -2.88
3.47 -0.86 -1.68
1.55 0.72 -2.68
2.12 0.89 -2.02
4.21 0.00 -1.82
2.82 -1.61 2.79
-2.31 2.65 -3.14
-4.44 2.30 -0.64
-6.01 2.14 3.59
-0.73 1.38 -4.25
0.65 0.45 -1.47
-3.88 1.31 1.50
-2.10 -0.26 4.80
1.79 0.74 -2.04
1.48 -0.05 1.26
1.12 0.99 -2.22
4.22 -1.34 -0.35
5.78 -1.63 -1.26
4.21 0.07 -4.09
3.84 0.55 -3.61
-4.63 1.97 1.68
0.55 -1.18 3.06
3.17 0.65 -3.09
3.05 -0.66 -1.65
4.23 -2.21 4.25
-0.89 0.18 3.40
4.46 0.13 -3.71
-2.93 1.39 2.26
-2.07 1.37 -2.09
-1.19 0.61 3.15
-1.36 0.88 -0.45
2.37 -1.77 3.39
-1.48 -1.01 4.54
3.50 -1.25 1.57
-0.81 -0.72 2.71
2.11 -1.52 2.71
-5.17 1.34 2.73
2.54 -1.14 0.64
-1.08 0.52 3.12
1.24 -0.82 1.33
4.13 -0.48 -1.76
-5.00 1.60 3.78
-2.56 1.19 2.28
-2.48 3.15 -5.58
-3.60 3.22 -2.92
-0.38 -0.55 4.86
-0.93 -0.02 2.49
3.68 -2.53 5.47
3.85 -1.05 1.37
5.60 -0.12 -4.33
4.14 -0.21 -4.24
-2.11 1.75 -2.15
-0.77 2.54 -4.86
-3.14 1.93 -2.96
1.39 -0.29 -0.96
3.62 -1.68 1.32
-4.32 1.92 1.80
-0.89 -0.07 2.46
-0.49 1.40 -4.24
-4.28 1.64 2.84
-3.60 2.13 -1.60
0.74 -0.02 1.94
-0.65 1.49 -4.50
-2.36 1.67 -1.31
1.24 -0.65 2.29
-0.77 0.90 0.55
-2.43 -0.17 3.86
-0.95 0.53 1.11
3.57 -0.44 -3.87
-3.44 0.92 3.20
2.05 -0.29 -0.05
3.33 0.18 -3.11
3.23 -2.33 3.50
1.16 0.08 -1.88
3.82 0.07 -2.47
2.29 -1.03 0.43
1.46 0.07 -1.42
-3.50 1.91 -2.13
-1.84 0.08 2.98
-0.76 0.07 2.04
0.51 0.59 0.06
4.38 -1.57 1.18
-0.63 0.26 1.24
2.65 1.14 -5.44
-1.02 1.40 -2.11
0.77 -0.20 3.22
-2.69 0.64 2.74
-0.25 0.02 0.21
-3.04 1.72 0.57
5.78 -1.05 -3.56
2.56 -1.14 2.26
0.43 -0.81 3.64
0.73 0.13 -0.78
-3.67 2.12 -1.80
1.67 -0.09 -1.40
-2.57 2.22 -4.71
1.94 0.46 -2.55
2.98 0.92 -3.74
3.61 -2.36 4.35
-2.41 1.60 -0.71
3.83 -1.19 1.67
-1.49 2.31 -4.44
-4.12 3.40 -3.71
3.71 -0.81 -2.62
3.01 -0.36 -2.45
-2.07 0.79 1.73
-0.53 -0.62 3.50
-4.17 3.25 -4.73
-3.78 2.24 -1.67
-0.25 1.59 -2.15
2.63 -1.73 2.63
-1.06 -0.20 3.15
-0.43 -0.85 3.78
-4.01 0.32 4.20
-1.25 1.77 -1.47
-2.11 2.17 -2.69
-1.85 -0.39 3.99
0.33 -1.12 3.36
-1.08 0.45 -0.04
4.91 -2.31 3.30
3.75 -2.06 3.14
1.92 0.93 -3.89
-0.96 -0.09 1.63
3.06 -1.09 -0.21
-0.45 0.37 -0.66
-4.22 2.75 -2.76
0.62 1.30 -4.00
-4.35 2.48 -0.16
0.45 -1.06 4.02
-2.25 0.62 1.36
0.90 -0.04 1.22
-5.45 1.04 3.95
2.32 -1.41 1.40
-1.99 1.32 -1.59
-0.93 2.15 -3.03
2.75 -0.01 -1.39
4.01 -0.13 -2.80
4.78 -2.54 3.76
-5.60 1.19 4.33
4.33 -2.26 3.37
-4.21 2.96 -2.69
-2.00 1.01 0.89
1.09 0.83 -3.18
0.30 -0.90 3.00
-1.40 2.10 -3.19
2.26 -0.59 -1.60
-1.55 1.10 0.50
1.79 0.06 0.47
-0.11 -1.16 5.63
-3.24 0.51 4.33
2.31 -0.67 1.68
-0.75 1.03 0.67
-2.92 2.56 -1.86
2.31 -0.05 -2.77
-2.59 0.26 2.37
2.65 -0.33 -1.31
-1.22 1.38 -2.39
0.85 -0.53 2.43
1.96 -1.59 3.03
-0.04 1.12 -2.59
-3.69 1.18 0.22
3.18 -0.92 -1.08
-1.52 1.04 -1.50
-0.39 -0.72 3.99
-0.27 -1.42 5.39
-0.61 1.11 -1.83
-6.12 1.35 3.65
3.74 -0.34 -2.64
2.08 -1.02 3.19
2.60 -0.22 -3.49
4.41 -0.68 -2.59
1.66 -1.54 3.68
1.71 0.21 -3.46
-2.98 1.20 1.06
1.41 -0.66 0.17
0.58 -0.94 1.62
2.02 -0.60 0.25
2.52 -1.79 1.95
1.92 -0.42 0.04
-4.28 3.00 -4.57
-1.69 2.05 -1.44
-0.99 -0.68 5.08
2.18 0.29 -2.20
0.78 -0.58 1.62
-1.76 -0.56 4.60
-5.47 3.59 -2.89
-1.85 1.74 -1.68
2.09 0.31 -0.97
-3.49 0.56 3.03
-2.56 1.97 -4.14
-0.62 0.71 -1.06
-2.00 1.29 0.57
-3.29 2.18 -0.88
2.63 -1.92 3.71
-0.14 0.40 -2.06
-3.57 2.42 -2.29
4.38 -0.23 -2.21
1.86 -2.07 4.24
4.14 -0.93 0.03
1.42 1.41 -4.06
-4.00 2.40 -2.82
1.42 -1.19 3.87
4.00 -0.69 -0.97
-0.36 -0.39 2.35
-2.80 1.61 -0.99
3.04 -0.12 -2.95
-1.56 -0.36 3.66
2.94 -1.81 2.31
1.28 -1.47 3.15
-6.09 1.19 3.52
0.78 0.12 1.56
3.36 -1.04 -0.17
0.46 0.98 -3.83
-2.54 0.20 4.03
0.05 -0.30 0.99
-1.25 2.06 -4.01
0.77 -1.07 3.47
-2.03 1.94 -3.30
0.06 -0.10 0.38
3.41 -2.02 1.39
-1.78 2.37 -3.87
1.86 -1.72 2.61
1.07 0.02 -1.08
1.52 0.13 -0.89
2.77 -0.36 -0.18
-0.50 0.06 1.95
0.72 -0.84 3.74
-3.03 1.28 0.53
-3.79 0.87 2.25
-1.63 -0.18 2.98
-4.22 0.94 4.29
0.30 -0.08 1.84
-3.16 1.00 2.61
-1.87 -0.46 5.04
-5.25 1.99 1.66
3.10 -0.09 -1.95
-0.13 0.46 1.47
-3.53 1.18 4.00
1.97 0.66 -2.92
-0.69 0.55 0.31
-3.76 2.27 -3.20
-3.52 1.06 3.38
2.92 0.76 -4.32
2.27 1.09 -5.14
5.62 -1.84 0.44
-0.03 -0.86 5.26
-3.20 0.48 4.49
0.19 -0.74 3.56
4.35 -2.68 2.35
2.93 -2.20 3.54
2.30 -1.31 0.88
4.80 -1.52 -0.70
2.98 -1.91 4.27
5.04 -0.43 -3.77
3.01 0.06 -3.81
-1.74 0.04 3.78
2.15 -0.42 -0.55
1.66 0.32 -1.70
-1.60 1.51 -3.38
-3.32 2.71 -3.58
-0.75 0.14 -0.21
-0.43 1.50 -2.25
2.16 -0.25 -0.98
2.20 -1.54 2.64
1.93 -1.91 4.07
-4.29 1.38 1.80
-3.84 1.58 1.51
1.52 -0.50 0.98
-3.00 0.28 5.01
-3.37 3.09 -3.68
2.11 -0.88 0.61
3.03 0.77 -4.19
3.26 -0.87 -0.69
4.09 -0.80 -2.16
1.42 1.39 -4.48
-2.27 1.14 1.55
1.59 0.31 -2.54
-0.68 -0.11 3.91
-3.98 2.13 -2.38
0.39 -0.19 1.53
1.91 1.08 -5.17
4.57 -0.31 -3.62
0.75 0.42 -0.51
0.11 1.38 -4.87
2.90 -1.82 3.01
-3.62 3.37 -4.91
0.94 -0.95 4.97
3.92 0.31 -3.48
-0.48 -0.50 3.65
-1.08 0.87 1.95
5.41 -1.43 -2.30
-2.52 1.63 -1.96
-0.16 2.04 -4.53
1.69 0.05 -1.19
4.90 -2.39 2.36
2.53 -0.46 0.17
-2.42 0.98 0.32
0.10 -1.28 4.08
1.11 0.83 -3.00
2.06 0.51 -3.40
2.01 -0.99 1.39
1.54 0.67 -5.25
2.58 0.50 -4.68
-0.62 -0.05 0.90
2.59 -0.00 -2.40
2.27 0.22 -1.36
4.61 -1.06 -2.12
4.71 -1.47 -0.55
2.41 -0.28 -0.01
1.50 -1.44 5.41
-0.30 1.14 -0.70
-1.30 -0.61 5.09
-1.10 -0.03 1.73
-0.10 -1.69 5.19
1.27 -0.32 -0.66
5.30 -1.65 1.39
-1.10 2.00 -3.51
-0.02 -0.86 3.23
-4.86 2.18 -0.62
-0.96 0.39 2.78
4.32 -1.24 -0.57
-0.37 2.32 -3.59
-2.25 2.37 -3.45
-3.89 3.98 -4.74
4.21 -0.55 -1.52
1.55 -0.40 0.71
1.92 -0.59 0.61
-2.46 1.93 -3.48
-4.35 1.18 1.78
0.34 0.60 -1.99
-1.87 -0.16 2.85
2.98 -0.05 -1.75
-2.56 1.72 -0.78
-5.57 2.52 -1.89
0.55 1.39 -4.82
-1.78 -0.13 4.21
3.98 -0.15 -4.46
0.04 1.65 -2.50
0.94 0.38 -1.40
0.73 -0.31 0.06
1.74 -0.76 -0.01
1.06 -0.21 -0.01
2.75 0.06 -1.15
5.25 -0.93 -4.26
2.27 -0.58 0.32
2.33 0.83 -4.19
-2.78 1.97 -1.07
3.43 0.47 -4.21
0.87 0.65 -1.96
4.37 -0.15 -3.29
1.91 -0.37 0.40
-1.42 1.39 -1.18
-2.00 2.50 -2.79
1.27 0.43 -1.11
-1.65 0.11 3.91
-0.21 0.21 -1.36
3.23 -0.11 -4.04
-2.15 2.44 -5.05
-3.43 1.73 1.50
2.14 0.73 -3.40
-3.41 0.63 4.40
-2.50 2.20 -4.80
-0.39 1.58 -3.16
2.61 0.91 -5.32
-2.48 0.28 3.32
1.97 -0.11 -2.49
-2.49 1.58 -2.79
-0.91 0.51 1.34
3.36 -1.74 3.40
0.26 0.39 -0.53
-2.67 1.92 -1.09
5.13 -1.33 -0.02
3.75 -1.87 3.50
2.68 -2.05 3.17
0.55 0.58 -1.52
1.75 -1.09 3.39
-3.08 1.09 1.97
0.76 1.67 -4.05
2.76 0.22 -5.01
-3.91 0.88 2.13
-1.93 0.41 3.13
3.64 -0.88 -1.70
3.94 -0.57 -1.72
-0.91 -0.15 3.88
2.11 -1.50 2.70
2.72 -0.24 -2.10
2.18 -1.46 4.44
-3.27 1.26 1.75
1.65 -1.08 3.56
1.35 1.34 -4.54
2.71 0.24 -1.72
-3.48 0.46 4.06
0.53 -0.54 2.09
-3.16 1.29 1.24
-1.07 -0.65 3.48
-3.13 2.22 -4.38
0.59 -0.55 3.18
-1.93 1.89 -3.16
-1.30 -0.03 3.81
-0.16 -0.81 4.00
4.74 -1.00 -3.12
2.09 -0.57 -1.06
-3.53 0.64 5.61
-1.28 0.11 3.24
1.89 -0.27 -0.06
1.85 1.45 -5.74
-1.85 1.64 -1.92
1.70 -0.88 0.92
3.59 -1.23 1.16
-0.57 1.39 -4.67
3.64 -1.83 3.43
-0.60 1.87 -3.01
-3.59 3.07 -2.80
-4.37 3.16 -2.49
-4.08 0.72 4.13
4.84 -1.03 -1.64
-4.30 2.51 0.11
-3.08 0.43 3.40
-2.55 1.66 -0.19
2.64 -0.03 -1.21
0.36 0.07 1.40
2.09 -1.01 2.03
3.13 -2.47 3.83
-1.01 -0.30 3.85
3.80 -1.99 1.46
0.94 1.20 -2.91
0.48 0.76 -0.73
-2.95 2.50 -3.58
5.11 -1.60 0.22
0.68 0.52 -3.12
4.89 -0.13 -3.54
-2.93 1.13 -0.96
-0.32 0.75 -2.38
-2.04 0.96 2.59
5.32 -2.15 1.29
2.78 -0.96 2.80
-4.18 2.21 -1.22
-3.50 0.84 4.38
2.56 -1.59 1.87
-4.74 1.59 2.51
-4.91 0.91 3.21
-0.02 1.26 -4.04
2.89 -1.59 2.37
-5.41 2.48 -0.04
0.80 -0.95 2.50
1.27 -0.46 1.14
-0.51 -0.27 1.18
4.11 -2.63 4.13
-1.15 1.15 -2.40
-0.61 1.80 -1.64
0.96 1.05 -4.86
1.12 -0.66 2.24
0.60 0.48 -1.60
1.89 0.25 -3.14
-3.71 0.86 3.89
-1.32 1.68 -3.83
0.55 0.26 0.55
0.95 -0.23 1.06
4.31 -0.46 -1.92
1.26 0.05 -0.13
5.10 -1.16 -0.88
0.33 0.26 -0.34
-1.77 1.45 -1.76
5.05 -1.17 -1.68
4.76 -0.56 -3.25
-1.14 1.82 -2.33
3.39 -1.08 0.85
-2.22 1.72 -3.25
-4.60 1.77 1.34
-1.89 0.79 0.17
-4.33 1.43 2.35
2.24 0.24 -1.46
1.81 0.00 -0.04
4.57 -1.73 -0.31
-2.14 0.34 3.26
-0.91 0.56 -1.28
-0.24 -0.52 1.72
2.75 0.34 -2.64
0.83 -1.12 3.56
4.87 -0.40 -4.44
-0.07 1.87 -3.78
-0.08 -0.58 3.51
-1.64 -0.05 2.69
2.95 -1.50 3.74
-2.79 1.51 1.78
-0.96 -0.12 1.68
2.38 -0.98 1.07
-1.07 -0.77 4.12
-2.06 0.67 0.36
-0.16 0.67 0.87
-0.90 1.34 -0.76
0.95 0.66 -1.43
-0.08 -0.12 2.30
3.65 -1.74 3.40
-3.03 1.59 0.26
-0.07 1.49 -3.68
-4.21 2.02 -1.93
1.45 -0.20 0.93
-0.61 0.86 -1.78
2.81 -0.78 2.21
3.38 0.00 -1.95
-1.89 1.55 -0.36
-0.49 -0.31 3.62
-1.26 2.08 -3.71
2.99 -1.20 1.06
1.70 -1.64 3.06
0.33 -0.94 3.15
-3.25 2.46 -3.84
3.59 -1.04 0.64
-4.29 2.49 -1.25
-1.19 1.66 -0.89
2.78 -0.21 -2.81
3.34 -1.07 2.03
3.68 -0.27 -2.33
-0.61 0.41 0.41
-3.52 0.26 5.22
1.05 0.62 -1.48
4.11 -0.68 -3.29
-2.34 1.82 -1.19
1.41 0.94 -2.95
1.77 0.28 -2.43
-1.62 0.41 2.21
-2.14 1.92 -1.13
0.77 -0.85 2.97
0.38 -0.29 -0.05
2.93 -2.25 4.43
-1.75 0.03 4.33
0.81 -0.19 1.07
5.20 -1.59 0.41
3.36 -1.54 3.46
-0.41 -0.57 1.45
-0.67 0.97 -0.59
-3.23 1.26 1.13
2.25 -0.08 0.33
3.26 -1.40 2.98
-0.75 0.84 0.95
3.15 -0.47 -0.54
1.26 0.69 -3.34
-1.36 1.74 -3.75
-1.81 0.96 -0.27
-1.26 0.07 2.61
0.84 1.05 -3.16
-3.57 0.88 2.13
-3.18 1.08 3.96
0.71 1.69 -4.62
3.08 -1.28 3.20
2.73 0.16 -2.69
2.51 -0.05 -3.56
3.53 0.32 -3.59
4.75 -3.49 5.13
-2.17 2.69 -4.95
-0.79 1.89 -4.89
4.71 -0.68 -1.75
3.87 0.25 -3.94
-0.98 1.92 -3.35
3.38 -0.98 0.59
-3.26 1.65 1.82
3.14 0.99 -4.43
-2.64 1.71 -0.23
-0.27 0.52 -0.80
-4.84 1.33 4.59
3.08 -1.22 -0.63
-5.70 1.41 4.06
0.45 -0.14 1.30
-2.17 -0.27 4.30
0.92 -1.77 3.76
3.30 -2.05 4.82
-1.81 0.33 1.63
-0.19 -0.85 4.42
1.26 -0.05 0.89
0.13 0.20 -1.43
-0.94 1.42 -3.12
-3.52 2.34 -2.52
-2.08 0.76 0.64
2.89 0.64 -3.81
-3.45 -0.23 4.83
5.17 -1.89 1.84
-0.53 1.59 -2.18
4.48 -1.99 2.08
-2.36 0.52 3.74
-2.66 1.72 -0.05
0.06 1.27 -3.57
-4.80 2.77 -0.69
-0.85 0.91 -0.76
-5.97 2.77 0.98
-1.71 1.51 -2.57
-2.00 1.53 0.51
2.06 -1.19 3.00
1.54 0.18 -0.45
1.04 -0.85 1.55
1.52 -0.48 1.89
1.66 1.50 -5.88
0.60 -0.11 1.75
0.86 -0.16 1.62
2.00 -0.80 1.03
-2.64 2.62 -5.12
2.18 -1.02 0.99
-0.13 0.49 0.37
-4.17 2.99 -3.92
2.01 0.62 -2.62
-1.10 0.89 -1.83
-3.10 0.53 4.77
2.70 -1.13 1.16
-2.99 -0.30 4.48
-3.65 2.32 -2.02
3.05 -0.78 0.00
1.15 -0.48 0.92
4.40 0.02 -3.27
2.46 -1.76 3.84
-0.65 -0.09 1.45
0.57 -0.23 2.30
-2.64 0.40 4.27
1.47 0.92 -2.92
1.51 1.15 -3.52
0.36 1.24 -2.25
3.22 0.39 -2.71
0.37 -0.18 0.38
-4.73 1.44 1.96
-2.86 -0.07 3.38
-1.85 1.25 -2.63
5.00 -1.05 -1.22
-3.04 2.62 -4.93
3.57 0.32 -2.85
-3.03 1.59 0.58
-4.76 2.33 -1.67
-0.98 1.03 -2.81
-0.48 2.14 -3.52
1.57 1.41 -4.71
1.43 0.27 -0.61
-0.35 0.93 -1.22
-3.34 2.71 -2.67
-0.26 0.68 -0.90
-0.18 0.07 -0.68
4.10 -0.42 -2.37
-5.33 2.76 0.05
2.85 -2.45 4.50
3.07 0.37 -3.35
-3.33 0.37 4.82
1.88 0.66 -3.76
2.95 0.12 -2.39
4.85 -4.48 2.39
1.85 -1.93 3.34
0.94 -0.36 1.72
-0.63 1.79 0.69
5.69 -1.91 -2.68
-0.77 3.59 0.07
3.53 -0.40 -3.79
0.07 -1.32 4.44
-1.59 5.62 -2.68
-0.24 -0.73 3.45
1.26 1.41 -0.13
1.56 0.60 -0.59
0.97 0.93 0.60
-1.36 1.45 3.41
0.16 0.36 3.66
0.90 0.50 1.43
-0.82 0.98 3.91
1.83 -0.02 1.40
2.75 -1.93 2.68
2.37 0.95 -2.68
-1.67 2.62 2.41
-2.17 2.95 3.69
-0.79 4.92 -3.82
-0.64 1.92 2.20
0.65 1.14 1.61
-2.18 3.72 2.57
0.27 2.67 -1.03
-0.10 1.91 0.09
3.12 1.76 -6.00
-1.02 0.33 5.34
-2.14 4.01 0.77
-1.05 3.59 -1.12
-2.51 1.54 5.79
4.36 0.33 -4.63
3.41 -3.46 1.88
-2.44 2.93 2.93
2.67 -2.27 2.54
2.67 -1.58 1.19
4.09 -2.02 -0.77
-1.09 3.44 0.81
1.39 -0.65 1.16
-4.04 3.84 4.92
-3.00 4.28 2.51
-0.13 -0.14 4.20
0.61 2.32 -1.53
5.29 -3.83 0.09
2.82 -0.60 0.30
-1.35 5.22 -2.88
2.83 -3.17 3.36
0.17 0.38 3.33
-3.22 3.82 4.63
4.00 -4.24 3.39
1.58 1.28 -1.56
2.64 1.05 -2.89
-0.22 3.37 -2.24
1.02 0.12 2.33
0.45 2.96 -2.41
-0.07 2.88 0.14
0.40 2.06 -1.05
2.25 -2.20 1.71
3.01 -0.89 -0.12
-0.37 3.89 -2.84
-0.30 2.50 -0.66
4.80 -3.80 0.93
0.72 2.25 -1.11
-1.50 3.74 -1.60
-2.24 2.58 1.61
-1.30 1.91 1.95
0.50 0.47 1.39
-0.19 -0.91 4.52
0.38 -1.56 5.95
3.09 -1.90 1.13
3.52 -3.71 2.95
5.88 -3.12 -2.68
2.33 -2.25 2.12
3.51 -2.26 0.31
3.01 1.70 -4.35
-0.77 0.82 3.05
4.24 -1.38 -2.21
1.94 1.23 -2.30
1.77 0.60 -0.74
3.01 -1.62 1.90
-1.84 3.17 0.17
-1.87 0.84 5.25
0.82 1.42 -0.01
-1.94 2.76 3.47
-0.46 2.77 -0.79
-0.57 4.01 -2.89
1.13 -2.32 4.92
1.59 3.06 -4.70
1.72 0.52 -0.23
5.13 -4.48 1.94
-1.14 2.83 0.80
2.30 2.82 -5.59
0.39 -0.77 4.40
-2.22 3.18 3.18
4.95 -0.58 -3.90
2.38 -1.39 0.77
2.09 -2.69 3.93
-2.13 2.80 2.99
-2.46 4.45 0.17
1.69 0.14 -0.27
0.10 3.08 -2.57
0.85 1.21 -0.22
-1.61 3.09 1.91
-0.22 0.84 3.89
1.06 1.83 -3.01
4.33 -1.18 -2.25
4.58 0.48 -4.35
-0.09 -0.71 4.98
-2.92 2.85 4.34
1.56 1.49 -2.50
0.94 0.35 0.89
-2.30 1.75 3.96
6.04 -1.13 -4.77
1.27 3.01 -4.21
1.65 2.04 -1.83
0.03 0.03 4.90
-0.47 2.39 0.08
-1.62 4.39 -1.66
1.84 -1.44 1.15
-1.68 5.39 -2.68
1.40 1.72 -2.26
3.92 -3.19 1.35
0.95 0.47 1.46
-1.00 3.64 -0.58
1.58 -2.18 4.26
1.68 1.86 -2.33
-0.03 0.37 3.38
1.04 1.77 -1.35
-1.20 0.21 4.67
-1.39 4.00 -0.11
-2.40 2.76 4.15
-1.76 1.27 4.47
2.86 0.80 -3.15
-1.90 2.73 3.08
2.74 -1.44 0.75
-2.58 5.71 -1.64
-2.31 6.06 -2.27
-0.71 0.71 4.02
5.29 -2.83 -2.51
3.35 -2.56 3.26
-0.96 2.94 0.50
2.87 -0.96 0.48
0.30 -0.20 3.17
-0.47 1.69 1.11
1.80 -2.48 5.09
-3.01 2.74 5.44
5.34 -2.01 -3.62
3.62 -3.73 2.82
3.76 -0.02 -2.93
3.72 -0.34 -2.76
-1.22 4.95 -3.90
0.45 -0.98 3.59
4.66 -1.10 -2.77
2.91 0.96 -4.35
-3.86 3.49 4.62
-0.95 1.80 3.00
-1.23 1.88 4.09
4.01 -1.34 -1.18
-1.62 1.12 4.32
-0.29 1.45 1.27
-0.17 4.06 -2.93
4.35 -1.12 -3.84
-0.34 -1.02 6.85
-1.24 -0.33 6.97
0.14 -1.75 4.77
-1.14 1.56 2.82
-0.98 0.63 4.31
3.11 -0.21 -0.91
-0.78 1.56 1.57
3.17 0.27 -2.21
2.79 0.32 -2.16
-0.85 4.77 -2.96
4.58 -1.11 -3.05
-0.03 0.06 3.43
-3.09 4.84 -0.00
-1.79 4.24 0.91
4.05 0.42 -4.03
0.64 1.56 -0.36
-0.18 -0.25 4.10
-0.33 2.93 -1.19
-0.74 0.42 4.33
0.67 0.99 1.85
-0.35 2.25 0.97
1.43 -2.28 5.54
3.39 -0.91 -1.93
-1.27 1.25 3.26
1.64 -0.24 1.04
4.38 0.54 -4.05
3.60 -0.52 -1.09
4.46 -4.01 0.52
-1.21 2.28 0.76
-0.18 1.14 2.64
4.60 -0.65 -2.27
-0.12 1.55 2.13
2.27 2.03 -4.67
3.70 -1.32 -1.56
3.43 -3.11 4.24
1.79 -2.48 4.38
0.95 -0.79 3.93
2.43 -1.31 2.42
1.87 -1.56 3.58
1.52 0.61 -1.11
4.27 -3.21 1.07
-0.66 3.28 -1.15
0.88 2.18 -1.68
2.78 1.88 -4.87
4.75 -2.06 -2.17
1.01 0.11 0.10
-0.36 3.82 -1.88
-0.47 4.58 -3.89
2.84 0.03 -3.25
3.05 -3.07 4.31
-0.54 0.77 1.75
3.01 0.30 -2.71
3.07 -0.03 -1.59
0.01 3.23 -0.51
2.43 -0.51 -0.45
-0.51 1.83 0.80
0.28 2.67 -1.55
2.50 1.66 -2.60
-0.90 1.72 2.21
0.81 0.52 2.74
2.10 0.79 -2.11
-2.02 1.17 5.22
-0.18 0.37 4.48
5.26 -3.45 -1.66
-2.52 4.84 1.30
2.68 0.55 -1.61
0.40 0.84 0.35
-1.14 4.03 -1.66
4.07 -3.36 1.31
0.40 1.02 2.37
-3.29 3.15 3.68
4.93 -3.07 -0.23
-2.32 5.94 -2.80
0.52 3.98 -4.57
-1.36 3.33 0.59
1.85 -0.06 -0.73
2.55 -0.28 -0.73
2.64 1.18 -3.85
-1.83 5.21 -1.59
1.02 2.81 -4.56
0.19 2.61 -1.41
-0.46 -0.30 4.01
0.06 3.60 -1.76
-1.05 2.45 3.07
-0.33 1.21 2.33
0.46 -0.41 4.82
2.91 -3.05 1.83
-0.41 1.38 1.52
4.89 -2.50 -1.10
1.66 0.92 0.11
-0.63 1.24 2.87
-1.04 2.74 1.59
2.24 -0.83 1.47
1.52 0.54 -0.84
3.18 1.05 -4.84
1.26 0.55 0.94
0.13 1.76 1.03
2.38 -2.86 3.37
-1.79 4.46 -1.23
-2.60 2.99 3.91
2.87 -1.84 0.37
2.96 -0.33 -2.79
1.75 -0.51 0.43
2.16 -0.54 1.61
0.43 3.25 -3.30
-1.68 4.15 -1.12
2.55 -0.72 0.91
-0.99 5.91 -3.88
2.87 -2.81 2.63
-2.56 2.40 4.27
4.87 -2.89 0.21
1.67 -0.78 2.40
0.91 0.84 -0.84
2.15 0.06 -0.40
1.04 0.80 0.05
0.77 2.67 -2.94
0.54 1.38 0.21
2.10 -1.84 2.72
2.49 0.74 -2.82
-1.42 2.14 1.92
-2.03 2.17 3.52
4.65 -1.92 -2.76
3.61 0.46 -4.03
2.68 -1.41 1.72
1.92 1.62 -2.24
1.83 2.42 -3.65
2.38 1.12 -2.63
2.52 -2.13 3.89
3.38 -1.41 0.33
-2.15 5.19 -2.18
3.12 -1.33 0.21
1.61 1.93 -3.13
-1.06 5.14 -1.98
-1.51 3.72 0.75
-0.81 3.96 -1.12
4.50 -2.03 -2.03
-3.26 5.43 0.23
-0.49 0.99 1.29
1.40 -0.86 1.26
1.76 0.70 -1.50
2.23 -1.99 3.67
2.87 -2.55 2.53
4.81 -4.06 2.53
3.98 -0.67 -2.47
1.06 -2.62 5.81
-0.52 5.24 -3.99
-0.82 1.26 3.13
-0.51 -0.01 5.08
3.55 -1.12 -0.90
-0.71 2.17 2.21
2.80 2.04 -4.60
2.92 -1.09 0.16
1.32 -2.10 5.58
-0.15 3.02 -1.95
-2.29 2.28 3.72
2.84 -3.54 3.54
0.58 0.19 2.98
2.20 0.60 -1.47
3.50 -3.47 2.25
2.19 0.71 -1.67
3.55 -2.96 2.97
2.75 -1.23 0.73
3.78 -1.08 -1.94
1.63 2.53 -3.75
3.69 -3.21 1.83
-0.78 4.38 -2.89
0.96 2.27 -1.32
-1.49 5.47 -2.71
0.37 -0.54 5.26
2.61 0.92 -3.16
-1.05 3.23 0.54
0.58 0.89 2.53
-2.87 4.74 2.35
0.86 1.87 -0.59
0.96 0.23 3.11
-1.88 2.06 3.14
3.18 -3.06 2.22
-0.67 3.03 -0.77
2.49 1.11 -3.29
-3.15 3.41 4.06
-1.85 3.28 3.35
0.50 -1.26 5.50
-0.81 1.80 0.70
1.74 0.90 0.33
0.83 -0.77 3.37
0.04 0.94 3.18
3.99 -2.60 -0.97
2.98 -0.31 -2.03
1.54 3.70 -4.41
2.22 -0.66 1.17
-0.76 0.78 3.75
3.45 -2.10 2.08
-2.92 5.91 -1.37
-1.27 1.71 2.40
0.52 2.87 -2.42
0.00 0.01 2.99
-0.42 -0.12 5.40
-0.58 3.33 -0.17
3.43 -1.55 -0.21
1.53 1.37 -1.32
-3.12 2.98 4.24
1.19 0.54 -1.08
3.12 0.21 -1.84
2.38 1.16 -3.14
-0.25 4.02 -2.04
0.59 -0.77 4.91
-2.18 6.03 -1.77
3.85 0.61 -5.42
0.87 2.67 -2.66
1.97 1.16 -1.93
3.86 0.29 -2.78
0.73 2.65 -2.21
-2.51 2.90 3.38
-3.22 3.20 4.12
2.84 -1.12 -0.05
-1.77 1.82 4.09
0.39 1.03 -0.72
3.65 -0.31 -2.51
0.16 0.47 2.02
-2.23 3.98 2.32
0.56 1.74 -0.95
1.51 -1.18 3.39
2.38 -1.44 2.08
1.36 -2.01 3.39
0.73 -0.91 4.09
2.50 -3.71 4.88
-0.27 1.42 2.14
4.32 -0.34 -2.17
3.40 0.34 -2.52
2.02 -2.80 4.41
0.30 1.53 0.89
0.12 2.13 0.08
-0.66 3.49 -1.14
-2.54 3.40 2.13
1.48 -1.44 3.73
3.71 -4.05 3.45
4.20 -3.30 3.08
1.11 1.74 -2.12
1.35 2.52 -3.15
0.21 -0.69 3.15
-0.48 4.60 -2.29
4.90 -1.31 -3.50
-2.32 4.85 -0.31
3.63 -0.44 -1.61
0.31 0.09 3.21
1.95 -1.28 2.03
3.12 -1.70 -0.81
-1.34 1.76 3.52
-1.97 1.55 3.21
-1.53 3.82 1.40
5.92 -3.84 -1.33
-1.79 2.89 2.93
-2.48 4.07 3.41
-1.23 3.36 1.11
0.96 0.69 0.14
-1.79 3.25 0.30
1.92 -1.35 3.31
1.87 -2.38 4.15
1.01 0.41 1.49
1.15 2.12 -3.12
2.56 0.51 -2.62
-1.90 6.00 -3.39
-0.95 0.46 5.82
2.46 2.60 -5.11
3.63 0.07 -3.23
0.54 -1.81 4.96
3.71 -2.36 -0.78
-3.22 3.61 4.48
0.27 0.96 2.22
-0.50 2.97 -1.05
1.54 0.92 -0.45
-0.65 1.57 0.92
2.60 -2.50 4.03
-3.78 4.22 3.66
-1.10 4.14 -3.32
-1.45 2.72 1.83
1.54 -2.00 3.44
0.08 0.93 2.40
-1.99 1.59 4.47
2.37 -1.27 0.35
1.77 0.22 -0.71
1.04 -0.69 2.21
0.50 2.30 -0.42
-2.10 3.00 3.24
1.98 -1.78 3.24
0.99 -1.28 4.13
-1.77 3.57 2.16
0.92 0.88 -0.52
0.74 0.50 1.12
1.62 -1.14 1.76
1.44 0.67 0.43
2.07 2.02 -2.94
1.30 0.25 1.56
-1.00 0.03 4.85
-0.04 0.08 3.20
3.36 -2.23 1.96
-0.83 -0.62 6.25
0.10 0.44 1.27
3.91 -5.40 4.74
4.33 -0.15 -5.03
1.40 -0.73 2.27
3.47 0.71 -2.99
2.36 -1.91 1.66
0.55 3.24 -1.78
0.98 1.64 -0.36
-0.36 1.85 2.62
-2.81 3.10 4.09
3.72 -0.99 -0.41
1.17 2.14 -0.44
-1.72 4.49 -1.05
1.84 -0.57 2.77
0.94 1.40 0.20
-0.73 1.57 2.17
3.95 -0.53 -2.52
2.70 0.19 -1.29
-1.42 5.98 -4.00
2.47 0.12 -1.46
0.46 4.51 -4.26
-2.77 6.02 -1.46
2.66 -0.80 -1.10
1.71 -0.89 1.08
3.49 -3.93 4.34
0.82 0.57 1.92
2.86 -0.28 -2.23
3.31 -0.11 -3.03
2.38 -1.42 2.51
1.05 -1.72 4.18
-1.24 3.54 0.37
2.05 -2.34 2.83
-1.67 4.49 -1.52
1.59 -0.66 1.01
3.52 -0.08 -3.24
2.01 -1.91 3.62
4.24 -1.44 -3.08
2.96 -4.07 4.56
0.94 -0.95 3.19
-1.30 1.86 3.02
1.88 1.62 -2.93
-3.41 4.49 2.01
3.48 -0.24 -2.49
0.74 -2.09 5.49
0.55 2.26 -0.32
0.45 0.23 2.53
-3.29 5.57 0.73
-1.21 1.41 3.62
-1.71 4.38 0.20
0.75 1.75 1.09
-2.61 5.55 -0.11
-3.51 3.51 5.02
5.43 -2.07 -3.84
3.65 0.72 -5.46
1.14 0.55 1.00
-0.25 -0.70 4.95
-0.08 3.30 -1.98
1.13 -1.40 3.94
-0.49 0.15 5.42
3.53 0.68 -4.20
2.13 -2.08 3.99
5.32 -1.24 -3.95
2.22 1.54 -2.01
3.00 -1.97 -0.03
-0.80 4.00 -0.83
3.70 -1.54 -1.41
-2.23 2.79 3.96
1.67 3.58 -5.36
2.15 0.30 -0.89
0.40 0.11 2.68
3.14 -2.50 0.90
-0.03 0.73 3.76
-0.64 4.87 -4.11
0.68 2.78 -1.87
4.10 0.21 -3.97
3.91 -3.59 2.01
-1.37 1.91 3.11
3.01 0.64 -2.73
2.40 -0.41 -0.26
3.88 -3.02 1.01
2.49 -3.32 3.07
-2.50 5.11 -0.51
2.46 -0.74 -0.56
-0.06 0.11 3.09
4.89 -1.96 -2.36
0.38 2.78 -1.31
5.72 -2.10 -4.24
1.83 0.73 -0.74
-2.93 4.90 1.14
2.46 0.85 -1.39
1.81 1.39 -3.77
0.07 0.81 2.56
-1.80 4.70 -1.42
2.17 2.61 -5.40
0.48 2.10 -0.94
2.20 0.04 -0.64
-1.85 1.14 5.20
-2.54 2.56 3.79
0.94 0.86 -0.42
0.84 1.41 -1.22
1.95 2.27 -4.22
5.36 -3.13 -1.41
3.28 -2.64 0.99
3.28 0.37 -4.87
2.37 -0.26 0.47
-1.25 2.44 0.84
2.75 0.70 -2.55
1.66 0.56 -1.48
-1.33 3.02 2.02
4.25 -3.72 1.17
1.95 -0.31 0.14
-1.78 5.93 -3.26
2.89 1.07 -2.69
0.24 1.49 1.97
2.63 -1.27 1.11
0.16 3.66 -2.64
1.95 -1.99 3.02
-2.43 2.66 2.41
0.27 2.54 0.22
4.11 -4.98 4.05
-0.79 0.84 3.32
-1.43 2.11 3.02
4.94 -3.40 0.23
4.18 -1.89 -1.18
1.63 -0.34 0.63
2.91 -1.68 2.40
2.03 1.16 -1.32
3.15 -1.06 -1.13
0.66 -0.19 2.63
-1.16 0.34 5.38
-2.52 2.00 4.51
4.25 -1.21 -2.54
1.31 -0.01 1.77
3.51 0.28 -2.54
-0.34 -0.53 5.02
1.28 1.26 -0.88
-0.20 0.35 4.10
1.07 1.25 -0.49
-1.12 4.47 -1.79
1.63 2.62 -3.73
-0.83 3.54 -0.21
0.71 -1.44 3.15
2.22 2.62 -4.33
-1.80 2.66 3.16
-0.40 3.99 -3.47
-0.49 2.06 1.83
1.99 0.77 -0.96
-0.76 2.13 1.75
-2.06 5.05 -1.29
1.73 -0.69 1.66
1.35 -2.31 3.91
0.86 3.07 -3.49
0.09 0.26 3.38
0.81 -1.47 3.49
1.55 1.81 -2.98
-1.43 4.26 -1.35
-1.26 4.42 -0.67
1.18 -1.08 3.87
1.21 -0.08 2.80
0.78 0.46 0.33
5.26 -4.22 -0.40
3.73 -2.02 -0.70
2.31 -0.78 1.04
-0.24 4.25 -3.83
0.94 2.21 -0.74
1.54 1.64 -2.84
0.94 0.23 2.11
3.75 -1.35 -0.92
3.12 0.53 -2.73
3.08 0.46 -2.60
-3.90 3.68 4.48
3.64 -1.13 -2.59
3.12 0.76 -3.24
-0.88 2.00 2.61
2.22 -1.15 1.28
-0.64 3.66 -1.37
1.69 1.97 -1.37
3.99 -2.50 1.14
-2.03 4.06 0.97
4.06 -0.86 -4.62
-2.64 3.35 3.33
0.13 0.77 1.52
-0.03 1.42 1.61
-1.14 2.56 2.29
5.59 -1.42 -3.03
0.75 -1.53 4.59
1.65 1.71 -2.17
2.14 1.74 -2.25
-0.33 -0.20 4.51
0.04 -1.26 4.34
-3.67 4.43 3.06
0.65 0.93 0.77
0.30 -0.92 4.94
3.03 -1.70 0.33
2.48 0.01 0.09
0.67 0.76 0.20
-2.28 6.68 -2.76
2.20 -1.36 0.56
1.52 -1.06 3.97
1.18 0.09 -0.04
2.92 -1.64 0.67
0.49 0.62 1.64
-2.75 5.64 -1.86
1.46 0.45 -1.05
3.07 -1.31 -0.77
1.36 1.20 0.21
0.28 1.91 -0.35
4.08 -0.60 -2.45
-0.67 4.06 -2.26
1.51 0.88 0.84
-3.38 4.07 2.65
-2.71 5.33 -1.36
2.91 -3.16 2.39
-2.11 5.19 0.28
2.91 -1.36 0.83
-2.71 2.45 4.23
1.94 0.12 -0.60
3.52 -2.36 0.25
-0.51 2.29 1.08
1.62 -0.43 0.90
-0.97 1.78 3.40
2.13 -2.32 3.58
-1.01 2.78 1.20
-2.71 6.79 -1.47
4.64 -0.15 -3.58
-1.57 0.69 4.91
1.36 -2.05 4.70
-2.15 5.23 -0.79
3.33 -3.46 3.28
-0.18 3.13 0.13
-2.68 4.42 0.56
0.32 2.67 -2.19
1.05 1.90 -1.27
0.37 0.86 1.10
5.17 -2.49 -2.16
-0.40 1.61 1.24
-1.36 3.98 -1.18
0.87 0.63 0.64
0.19 3.03 -1.26
-1.32 3.91 0.03
-4.22 3.81 4.39
0.04 0.82 2.19
2.79 -0.40 -1.61
-0.68 2.00 1.71
2.14 -2.51 5.55
0.08 0.56 3.63
-1.90 4.22 -1.19
0.22 0.75 3.07
0.81 3.42 -3.07
5.76 -3.13 -1.92
4.96 -1.38 -3.10
-1.06 1.91 3.23
4.92 -1.53 -2.18
-1.30 3.50 -0.62
0.13 0.70 2.37
0.28 1.49 0.53
-4.12 4.97 4.43
0.25 -0.03 4.91
4.41 -1.97 -1.48
3.94 -1.34 -1.75
-0.63 0.75 2.94
1.07 1.63 -1.01
4.03 -0.72 -2.67
-3.19 5.79 0.28
4.04 -4.13 3.01
-0.80 2.56 2.03
-1.09 1.13 5.36
0.59 1.21 -0.55
3.04 0.32 -2.58
4.59 -3.14 -0.55
0.52 3.96 -3.64
1.44 -0.48 2.40
2.46 -2.12 2.35
-0.01 -0.36 5.25
1.66 -0.66 0.91
0.76 1.97 -0.65
0.61 0.88 0.90
-2.24 1.37 5.27
2.94 -0.45 -1.05
2.35 0.24 -1.56
-3.15 2.52 5.09
4.88 -1.26 -2.36
-1.10 0.43 4.22
-2.51 2.66 3.10
2.29 -2.69 3.62
0.08 2.13 -0.34
-0.75 0.75 4.97
0.62 -1.13 3.25
0.61 1.30 1.58
-0.86 1.50 2.56
1.95 2.05 -2.82
1.69 0.22 0.19
2.00 -0.91 1.67
1.04 2.00 -1.99
3.11 -1.32 1.07
1.77 1.25 -2.02
1.12 1.22 -0.78
0.26 0.74 2.33
-2.93 3.97 2.38
-1.06 0.37 4.99
4.25 -1.63 -1.17
0.08 0.72 3.29
-0.13 2.72 -0.89
1.93 2.11 -1.90
2.77 0.18 -1.59
0.21 4.15 -3.42
2.54 -3.53 5.18
1.25 1.36 -2.52
3.26 0.75 -3.28
4.28 -0.89 -3.35
2.03 -0.12 0.40
0.98 1.61 -1.43
4.81 -2.38 -1.86
3.52 0.94 -4.29
-1.85 1.95 3.03
-1.74 2.20 2.22
0.06 -0.97 5.18
0.96 2.02 -2.06
2.41 0.52 -1.84
3.27 0.89 -2.79
4.18 -1.86 -1.49
-0.18 3.86 -2.56
-1.39 4.80 -0.89
0.60 1.84 -0.96
1.30 -0.52 2.97
2.05 0.87 -1.57
0.51 2.27 -1.34
0.39 4.60 -3.44
1.21 -0.89 3.42
-2.19 3.28 1.43
1.03 0.83 0.02
2.30 0.02 -0.16
-1.95 4.61 -0.84
0.07 2.01 1.34
-0.31 4.07 -2.60
0.68 1.93 -0.71
2.02 -1.22 2.00
1.49 -2.48 4.09
2.17 -1.70 2.27
-2.63 3.27 1.84
0.44 -1.57 4.98
2.84 -1.64 2.78
-0.04 3.46 -2.09
3.37 -1.20 -1.62
1.74 -0.66 2.33
-1.67 2.39 1.79
1.95 1.19 -0.93
-1.74 -0.45 6.47
2.23 -0.88 1.73
0.98 -1.72 4.11
0.60 -0.83 5.03
2.45 -0.49 0.23
0.48 -0.87 3.49
2.22 -2.78 5.48
-0.95 2.65 0.02
-0.19 -0.14 5.34
-2.33 2.90 2.15
1.79 0.01 0.47
1.84 -2.88 4.79
1.70 -0.39 0.55
0.10 1.05 1.61
4.53 -0.64 -4.02
2.09 0.52 -2.85
2.06 -1.29 0.37
1.68 -0.69 1.93
-1.08 -0.34 5.10
0.77 -0.28 2.41
0.31 -1.36 4.67
3.30 -1.07 -1.45
0.38 2.58 -1.75
1.12 1.80 -1.68
3.45 -4.46 4.27
3.83 -2.98 1.86
0.84 -1.28 3.63
0.99 1.57 -0.88
3.45 -0.36 -2.51
0.29 2.97 -2.54
4.62 -0.79 -3.09
0.34 3.58 -3.24
-0.31 1.29 1.72
-0.58 3.97 -2.17
-2.63 5.46 -2.66
-2.42 5.62 -0.31
1.12 1.53 -0.92
1.40 0.10 -0.31
0.23 2.27 -1.34
1.39 0.96 -1.00
1.84 -0.01 1.69
0.52 1.97 -0.65
1.08 1.32 -0.84
1.40 1.39 -1.95
2.27 0.67 -1.59
3.77 -1.30 -0.65
2.17 0.26 -0.83
2.67 0.57 -1.62
-2.85 5.36 0.05
1.79 1.71 -2.84
-2.53 4.94 0.29
-4.55 4.43 3.15
-2.55 3.44 3.88
2.88 -1.67 1.96
-0.57 1.64 1.50
5.67 -2.85 -3.40
3.94 -4.26 3.45
-2.02 1.83 4.67
1.64 0.76 -1.60
1.96 -0.96 1.14
2.23 0.86 -0.93
-2.31 0.92 5.46
2.27 0.35 -2.44
-0.41 3.76 -1.39
1.82 0.03 0.38
2.82 -2.45 1.73
-2.53 4.13 1.48
-1.33 3.40 0.72
0.30 -0.16 4.62
3.00 -2.98 3.88
6.08 -3.27 -1.72
3.69 0.33 -4.86
-0.36 -0.02 3.90
3.38 1.20 -4.90
1.24 -0.60 1.78
-0.70 0.48 3.24
-1.43 4.46 -1.22
-1.30 2.24 2.15
-0.03 2.80 -0.42
2.20 1.47 -4.00
0.13 0.00 2.54
1.17 0.73 0.57
0.40 0.97 2.59
-1.76 0.42 6.30
0.64 1.93 -1.40
0.89 1.63 -1.21
-0.74 1.58 2.06
2.12 0.62 -2.29
1.36 0.65 1.04
1.69 -0.05 0.74
3.99 -0.45 -2.27
3.33 -0.80 -1.85
1.48 -2.09 5.62
-0.12 1.22 0.33
1.90 0.76 -2.36
0.90 2.67 -2.79
-1.11 3.59 -0.21
1.24 0.17 -0.61
4.84 -4.18 0.38
2.82 -0.78 -0.47
2.81 -3.12 2.44
1.81 -1.70 2.22
1.17 1.52 -0.15
-1.38 1.20 3.96
-1.03 1.49 3.48
-0.25 4.46 -3.73
2.16 2.16 -4.85
0.69 2.68 -1.84
0.98 1.68 -1.81
1.55 1.10 -0.65
-2.24 4.62 0.87
4.97 -2.39 -0.63
2.75 -1.91 2.35
0.80 -0.88 2.51
-0.35 0.24 3.46
-0.28 1.04 2.46
2.44 2.71 -5.32
-1.20 3.38 0.03
1.96 -0.47 1.45
4.01 -4.19 3.06
1.03 0.42 2.19
1.40 0.51 -0.54
0.90 -0.31 3.68
-2.83 6.60 -0.64
-0.68 3.34 0.62
-0.30 2.91 -1.78
1.40 -2.08 4.60
2.30 1.32 -2.36
-0.23 1.11 2.72
3.28 -2.73 2.93
3.93 -0.26 -3.79
2.92 -4.14 4.94
2.40 -3.42 3.85
1.07 -0.68 2.76
-1.29 3.98 -1.70
-0.56 2.21 1.27
0.30 -1.91 5.73
0.85 -0.24 3.67
-3.05 4.36 3.23
0.88 0.17 2.41
-2.41 1.94 5.46
0.60 1.24 1.35
-2.28 1.35 5.47
-1.50 2.71 1.52
-0.50 4.83 -3.00
0.31 0.38 1.59
-0.44 0.50 2.99
-3.16 4.65 0.75
-2.00 4.27 -0.33
-0.46 1.72 2.49
-0.09 1.76 0.08
0.35 3.76 -3.10
-2.63 2.73 3.03
-0.18 -1.12 6.74
-0.43 2.01 0.96
-1.94 2.22 4.50
2.73 -1.21 0.11
0.83 -2.22 6.31
0.03 1.75 -0.17
0.24 -1.50 4.99
-0.55 2.77 -0.41
1.43 -0.26 0.71
3.04 0.31 -1.50
3.83 -2.87 0.37
-2.35 1.57 5.07
-0.04 2.02 -0.78
1.33 -0.08 1.58
2.86 -2.66 2.41
2.34 0.69 -2.15
0.15 2.04 -0.88
1.82 -1.82 2.90
-1.11 2.40 2.40
-1.45 1.85 3.84
1.24 1.83 -1.20
1.40 -1.09 1.33
1.65 -0.38 1.86
-2.24 6.34 -2.20
0.61 2.13 -1.81
2.62 1.92 -3.90
0.07 2.34 -1.20
2.69 0.60 -1.70
-0.28 -0.19 4.12
2.27 -0.77 1.21
-2.64 2.44 4.87
3.83 -3.14 1.99
5.09 -3.14 0.98
5.82 -4.24 0.39
0.14 3.12 -2.26
1.44 -1.97 3.81
1.89 -2.05 3.45
-0.14 4.07 -3.49
1.49 -0.29 -0.39
