ply
format ascii 1.0
comment Made by Nomoko
element vertex 3000
property float x
property float y
property float z
end_header
-1.41 1.37 -3.81
-4.56 -4.70 0.67
-4.51 3.20 0.52
-0.42 -1.60 -3.76
1.07 4.22 -6.44
0.37 2.88 -5.78
-2.71 -2.73 -1.11
-3.21 -2.35 -1.57
-0.97 4.46 -5.68
-3.26 -3.52 -0.62
-5.65 0.45 1.85
-0.76 -2.26 -3.89
-2.42 4.85 -3.32
-3.13 -4.25 -1.37
-2.79 2.50 -2.29
-4.87 4.45 0.61
-2.15 2.52 -2.97
-3.83 -3.05 0.30
-2.85 0.52 -0.88
-1.38 -4.12 -2.97
-4.78 0.65 1.36
-6.07 -1.60 1.57
-3.55 3.25 -2.00
-3.92 3.87 -0.59
-1.81 1.52 -3.21
-1.06 3.43 -4.90
-6.30 0.27 2.51
-2.86 2.92 -2.20
-2.48 -5.04 -2.42
-3.98 2.29 0.13
-1.67 -0.50 -2.88
-2.54 -4.25 -1.46
-1.17 0.66 -3.58
-3.18 1.58 -2.01
-4.73 4.42 -0.15
-5.46 -2.88 2.45
-5.92 -4.64 2.74
-0.81 0.41 -3.51
-2.39 3.31 -2.13
-3.21 -4.39 -0.02
-4.20 -2.33 -0.10
-2.14 -0.01 -2.00
-4.85 0.55 0.26
-4.62 0.80 0.79
-1.02 -3.49 -3.36
-3.54 -1.14 -1.53
0.49 2.61 -5.77
-5.17 -3.56 1.06
-5.27 0.50 1.19
-4.10 0.20 -0.67
-4.43 -3.57 0.51
-1.48 2.47 -4.43
-2.78 -4.42 -1.44
-5.34 2.03 1.73
-3.45 3.96 -1.61
-1.60 -1.21 -4.23
-4.05 -1.11 -0.51
-6.17 -1.13 2.65
0.06 2.53 -5.34
-1.80 -2.43 -3.14
-3.03 0.31 -0.80
-1.47 5.14 -4.34
-3.24 3.78 -2.30
-2.73 4.57 -2.82
0.74 0.13 -6.25
-3.83 -4.81 -0.23
-5.11 -4.49 1.67
-2.67 -2.31 -1.42
-4.10 -3.00 -0.18
-2.08 5.03 -3.02
-1.10 3.77 -4.09
-2.08 2.65 -2.89
-1.90 3.90 -3.80
-3.74 -3.59 -0.37
-1.57 1.15 -3.49
-0.70 1.62 -3.81
-3.92 -5.03 0.09
-5.57 3.76 1.36
-4.50 -1.06 -0.14
-2.49 1.66 -2.92
-2.67 -5.49 -1.41
-6.29 -0.99 2.31
-1.80 -3.71 -3.21
-1.52 3.53 -3.15
1.01 3.60 -7.24
-1.52 2.31 -4.05
-1.36 -1.40 -3.75
0.74 -5.00 -5.55
-1.39 -3.38 -2.95
-2.33 0.57 -2.85
-4.33 -2.23 0.53
-1.33 0.89 -3.84
-2.32 -0.33 -1.87
-2.02 -2.36 -2.04
-1.79 -0.25 -2.61
-5.88 -0.04 2.89
-0.63 -2.10 -4.87
-1.65 -0.21 -2.70
-3.87 2.01 0.05
-1.93 2.41 -2.50
-1.26 0.25 -3.81
-3.09 -3.35 -0.15
-1.63 -2.29 -3.47
-3.79 -4.84 0.39
-1.98 -0.71 -3.11
-2.65 -3.56 -2.14
-1.19 -5.69 -3.74
-1.47 0.71 -3.87
-1.95 -2.06 -2.09
-3.82 -2.72 0.61
-3.60 1.38 -0.51
-4.87 0.84 0.44
0.04 3.57 -5.58
-1.74 4.66 -3.96
-4.46 3.19 -0.44
-3.02 0.43 -2.03
-2.11 -2.45 -2.45
-3.02 -4.57 -0.82
-2.98 -5.31 -1.31
-2.76 -0.13 -1.72
-3.67 -0.95 -1.23
-1.99 -5.01 -2.90
-5.58 3.94 0.78
-1.45 -0.77 -3.31
-2.06 -3.42 -2.67
-3.69 -0.44 -1.18
-2.52 -0.49 -1.83
-0.81 -4.67 -4.17
-2.95 -0.64 -0.80
-0.50 0.02 -4.70
-1.20 2.31 -3.22
-4.90 -2.18 1.68
-4.30 3.39 -1.06
0.41 0.54 -6.05
-2.99 -2.60 -1.41
-1.34 -4.30 -3.57
-5.57 -4.69 2.77
-3.22 2.01 -0.49
0.30 -0.57 -4.83
-4.18 5.07 -1.02
-2.30 0.58 -2.75
-0.51 2.73 -4.95
-3.92 -0.03 -0.74
-0.23 -1.61 -5.43
-5.48 0.33 1.64
-2.34 1.65 -1.99
-0.64 0.61 -4.70
-0.61 -1.99 -4.36
-1.57 1.17 -4.11
-2.34 -1.23 -1.74
-0.32 2.71 -4.86
-2.61 -1.38 -2.23
-2.58 2.36 -1.72
-4.39 2.46 -0.11
-5.35 1.17 0.47
-3.99 0.70 0.27
-0.67 3.04 -5.02
-1.04 -4.56 -3.91
-3.37 -1.63 -1.79
-4.75 -3.62 2.35
-2.12 3.51 -2.39
0.13 -2.83 -5.45
-1.12 2.66 -4.55
-5.02 -2.12 0.66
-0.61 3.20 -4.68
-2.44 2.67 -3.01
-5.20 2.02 0.96
-3.01 3.10 -2.17
-3.24 1.34 -0.90
-2.89 1.63 -2.78
-3.49 -3.70 -0.16
-3.92 -0.29 0.49
-6.32 1.93 2.30
-2.93 -2.78 -1.21
-2.67 4.42 -2.67
-3.62 -2.48 -1.20
-4.90 -0.19 1.03
-2.82 -4.47 -1.68
-1.29 1.40 -4.80
-3.22 -1.27 -1.59
-4.52 -3.64 0.80
-3.01 -0.00 -1.41
-4.85 4.96 -0.52
-1.71 1.76 -3.14
-0.77 3.83 -5.53
-5.41 0.72 2.03
-1.71 -3.22 -3.42
-5.46 3.55 1.24
-1.21 0.42 -4.67
-3.43 2.03 -1.25
-1.76 4.27 -3.34
-3.03 -1.54 -1.56
-1.10 -2.55 -3.12
-4.27 3.62 -0.47
-5.57 -2.24 3.06
-2.47 -3.09 -1.80
-2.77 0.69 -1.81
-3.44 3.86 -1.77
-3.72 4.07 -1.18
-5.41 -3.71 3.07
-1.22 4.35 -5.28
0.81 1.17 -7.24
-0.70 2.33 -4.17
-2.84 4.64 -1.74
-5.15 0.64 1.60
-0.38 -4.13 -5.31
-4.43 0.75 1.07
-1.67 -3.51 -2.35
-3.69 1.71 -1.27
-2.28 -1.61 -2.81
-3.81 -2.45 0.26
-1.54 -0.67 -3.16
0.04 4.36 -5.09
-0.67 -1.95 -4.08
-3.74 3.43 -1.09
-2.76 -3.30 -1.29
-1.21 -3.08 -3.62
-2.42 -2.36 -2.11
-1.52 -0.37 -3.89
-1.01 0.28 -4.53
-1.69 -4.15 -3.48
-2.99 -2.96 -0.30
0.79 -2.04 -6.64
-2.83 -2.55 -1.89
-2.71 -1.81 -1.24
-1.13 3.40 -4.13
-2.87 3.57 -1.62
-3.00 -1.23 -1.61
-0.95 3.36 -4.45
-2.04 3.28 -2.29
-0.76 -0.37 -4.73
-2.79 3.22 -1.85
-4.19 -0.72 -0.22
-1.50 1.16 -2.79
-1.58 3.10 -3.34
-4.23 0.97 -0.15
-4.75 -3.22 1.45
0.46 -1.50 -5.09
-2.96 -0.80 -0.76
-3.62 -2.25 -1.11
-2.10 4.64 -4.04
-2.82 2.07 -1.81
-2.27 1.78 -2.95
-5.29 2.21 2.20
-3.54 -4.05 -1.18
-1.23 -3.18 -4.05
-3.34 -3.84 -0.75
-0.63 1.44 -4.39
-4.01 -1.81 -0.03
0.04 -1.56 -6.24
-4.00 -2.22 -0.09
-1.75 4.45 -3.55
0.03 2.98 -5.14
-2.72 -1.07 -1.40
-2.76 2.59 -2.59
-2.92 -5.32 -0.74
-5.05 -2.95 0.53
-0.90 0.86 -3.30
-5.57 3.13 1.18
-0.12 0.58 -5.75
-3.54 0.11 -0.71
-0.76 2.99 -4.31
-3.24 1.63 -1.88
0.52 -5.07 -5.83
-1.33 -4.67 -2.60
-3.80 3.32 -1.47
-1.91 -5.05 -2.65
-0.68 4.77 -5.77
-3.58 -4.55 -0.38
-0.88 -0.74 -4.21
-5.57 2.99 2.61
-4.82 1.06 0.80
-3.54 1.39 -1.44
-1.22 0.46 -4.30
-2.16 -1.44 -2.21
-1.65 1.71 -2.90
-3.50 1.27 -0.50
-0.25 0.58 -5.79
-1.22 -1.30 -4.69
-4.53 0.44 0.10
-3.45 3.04 -0.44
-2.64 -0.45 -1.67
-0.14 3.15 -5.57
-6.42 4.40 2.75
-1.18 -4.07 -3.00
-5.68 3.97 1.29
-4.12 -1.02 -0.62
-2.88 4.01 -2.58
-1.42 -0.72 -3.70
-0.17 2.69 -5.04
-1.96 -0.61 -2.52
-3.91 3.54 -1.09
-5.06 1.59 0.78
-2.94 -2.32 -2.11
-2.44 0.59 -1.99
-2.06 2.11 -2.16
-3.57 -2.05 -0.02
-5.45 1.76 2.20
-3.54 2.60 -1.56
-4.44 -5.53 1.79
-1.54 -3.56 -2.72
-2.45 0.95 -2.72
-0.30 -3.02 -4.69
-3.11 2.81 -2.63
-3.43 -2.42 -1.51
-3.88 2.65 -1.13
-4.56 0.50 0.39
-1.44 -1.95 -3.16
0.62 0.29 -6.23
-0.58 -2.28 -4.68
-1.30 0.17 -2.73
-0.96 2.44 -3.45
-0.02 -3.76 -4.89
-2.10 -5.05 -2.01
-4.85 0.15 1.16
-5.21 -1.52 1.44
-4.39 -4.10 0.55
-1.63 -0.43 -2.41
-2.69 -0.11 -2.41
-1.62 0.12 -2.88
-1.60 -2.52 -3.30
-3.46 2.65 -0.82
-1.26 -5.17 -3.38
-0.08 0.06 -6.31
-1.84 -4.52 -2.87
-2.48 3.18 -2.78
1.01 -1.48 -6.47
-0.60 -3.15 -4.19
-1.66 -1.14 -3.17
0.12 -0.21 -6.43
-3.55 1.92 -0.86
-2.04 3.59 -2.25
-0.89 -0.57 -3.81
-3.25 -1.26 -0.71
-1.35 1.30 -4.01
-5.11 2.96 1.54
-1.52 -1.03 -2.46
0.17 2.67 -5.55
-4.96 2.75 1.17
-2.29 -4.46 -2.53
-3.74 -5.07 -0.49
-1.92 1.62 -2.38
-4.11 0.86 0.29
-2.98 2.39 -2.12
-3.36 -0.52 -1.27
-1.27 1.74 -3.64
-3.76 -1.41 -0.46
-0.35 0.01 -5.16
-2.94 2.14 -1.40
-4.49 3.75 -0.49
0.88 2.76 -6.73
-0.30 2.33 -5.34
-4.05 -1.20 0.31
0.69 1.93 -6.53
-2.83 4.40 -2.23
-0.34 3.06 -5.47
-4.52 -3.07 1.41
-1.85 -1.72 -2.87
-1.47 2.52 -3.90
-0.73 -1.22 -4.86
-3.87 0.61 -0.92
-5.76 -4.96 2.01
-0.39 1.59 -4.94
-1.73 3.27 -3.66
0.16 -3.01 -5.71
-3.19 3.49 -1.16
-0.94 2.16 -4.94
-6.07 -0.31 1.97
-4.38 -1.80 -0.10
-1.98 -5.20 -2.13
-1.86 -3.90 -2.58
0.90 4.95 -6.96
-1.46 -4.35 -2.59
-0.46 1.95 -5.91
-5.01 -4.09 1.81
-1.01 1.46 -3.87
-1.51 -0.96 -3.78
-3.21 4.74 -1.16
-4.91 3.60 0.15
-4.89 0.60 1.43
-0.41 -4.00 -4.16
-3.14 -0.75 -0.37
-3.25 -2.07 -1.68
-3.03 -2.05 -1.22
-3.38 -2.33 -0.60
-2.29 -0.59 -2.02
-5.90 3.55 1.67
-1.40 3.86 -4.27
-0.86 4.36 -4.95
-3.56 3.18 -1.06
-2.75 -1.38 -2.41
-3.53 -0.50 -1.55
-0.45 -3.31 -5.03
-5.28 -0.26 0.94
-3.22 2.47 -1.74
-2.56 4.03 -3.21
-4.45 0.60 -0.02
-2.68 -2.67 -2.09
-2.33 -2.98 -2.30
-0.23 -3.15 -4.96
-2.57 1.41 -2.87
-2.54 -0.37 -3.14
-3.22 -0.33 -1.04
-3.71 2.18 -0.45
-3.97 -3.77 0.90
-0.65 0.53 -3.85
-1.72 -3.93 -2.98
-3.53 -4.45 -0.75
0.01 -2.17 -4.83
-3.12 4.29 -0.65
-3.60 0.39 -0.44
-4.07 2.04 -0.80
-3.23 3.73 -1.78
-0.43 -0.73 -5.60
-3.39 3.66 -1.24
-1.30 -0.84 -3.17
-3.54 -3.13 -0.29
-1.73 3.52 -3.49
-0.96 2.88 -4.02
-5.69 3.60 0.98
0.08 4.49 -5.32
-0.44 -1.03 -4.95
-2.35 4.55 -2.50
-5.08 0.81 1.30
-1.89 3.94 -2.66
-3.48 2.33 -0.77
-0.69 2.33 -4.23
-0.45 3.46 -5.37
-2.39 -4.84 -1.63
-4.34 0.02 0.42
-2.21 -2.75 -2.28
-4.99 2.83 0.08
-1.79 2.88 -3.98
-2.71 1.57 -1.54
-3.78 -0.63 -1.49
-2.41 -1.86 -2.03
-2.17 0.20 -2.24
-2.10 3.84 -2.19
-2.10 -1.07 -2.92
-5.41 2.73 1.67
-1.46 2.87 -3.25
-1.78 0.41 -3.58
-2.41 0.54 -2.92
-3.10 0.36 -1.61
-2.42 4.28 -2.39
-1.66 5.04 -3.32
-2.65 -1.17 -1.82
-3.45 1.38 -1.09
0.81 0.75 -6.14
-4.11 0.87 -0.44
-5.47 -5.29 2.41
-1.28 1.94 -3.32
-1.29 -2.04 -3.45
0.25 4.55 -6.16
-5.27 -2.01 2.04
-1.50 3.08 -4.12
-0.11 -3.31 -5.49
-4.83 -0.79 1.77
0.05 2.38 -6.42
-4.88 2.58 0.63
-2.48 2.77 -2.54
-1.40 -2.24 -3.03
-3.55 1.12 -0.61
-1.84 -0.78 -3.02
-3.53 -4.50 0.34
-2.75 0.45 -2.39
-2.48 4.07 -2.66
-2.14 -4.63 -1.38
-1.81 3.05 -2.94
-5.57 2.53 1.67
-5.66 -3.50 2.51
-2.12 -0.91 -2.04
-3.42 -5.24 -0.67
-2.41 3.90 -3.07
-4.13 0.28 -0.53
-2.27 5.33 -2.11
-2.68 -2.02 -2.36
-1.37 -5.32 -2.71
-0.63 -4.07 -4.81
-3.90 2.77 -0.71
-0.82 0.96 -4.22
0.39 -5.08 -5.20
-4.07 0.92 0.33
-4.76 1.98 1.49
-3.66 4.01 -2.04
-1.58 4.67 -3.98
-1.74 -3.53 -3.46
-1.27 4.22 -4.57
-2.30 0.89 -2.58
-1.52 1.57 -3.09
-1.70 4.52 -4.55
-4.99 -3.12 1.57
-3.25 -4.63 -0.85
-1.16 -2.19 -4.04
-0.97 -3.23 -3.11
-3.99 -2.55 0.01
-1.14 -1.39 -2.87
-1.66 -2.08 -3.14
-4.48 -1.44 1.22
-2.53 -0.50 -1.69
-1.02 -4.97 -3.50
-3.89 0.77 -0.49
0.23 -0.17 -5.37
-1.13 -1.08 -3.36
-0.97 2.40 -3.33
0.51 -3.40 -5.83
-0.17 3.22 -6.13
-0.77 -3.32 -4.22
-3.43 0.84 -0.43
-1.34 -2.67 -3.31
-1.41 -1.90 -3.26
-5.38 -1.63 1.51
-2.21 -5.18 -2.40
-3.52 -2.44 -0.06
-6.65 1.74 3.54
-3.95 -2.79 0.26
-1.66 -0.65 -3.46
-3.43 -1.02 -0.37
-0.66 0.42 -4.36
-3.93 -4.90 0.62
-2.11 -2.44 -1.56
-3.00 4.01 -2.76
-0.22 3.28 -5.57
-3.71 4.38 -1.10
0.76 -0.93 -5.42
-3.55 -1.10 -0.83
0.61 -1.67 -6.27
-0.75 4.34 -4.88
-2.73 4.26 -2.48
-2.59 -2.55 -1.60
-2.67 3.98 -2.31
-5.47 -1.06 1.87
-2.61 -0.97 -1.37
-6.80 3.38 2.90
-1.04 2.86 -4.58
-3.45 -2.00 -0.40
-0.78 -3.56 -3.12
-4.59 4.41 0.85
-2.85 3.83 -1.68
-7.07 4.95 2.69
-1.40 2.09 -3.74
-4.01 -3.17 -0.11
-5.49 0.61 1.62
-2.21 -1.93 -2.43
-2.45 -3.77 -0.97
-4.14 0.71 -0.34
-1.14 -3.23 -3.57
-0.92 -0.85 -4.07
-5.78 1.14 2.42
-4.70 -4.68 1.56
-3.56 3.32 -1.64
-1.65 -1.08 -3.93
-1.62 -3.27 -3.16
-1.21 -1.55 -4.46
-3.88 -2.49 -0.23
-3.98 1.54 -0.56
-0.85 0.06 -3.89
-3.02 -2.21 -1.30
-3.29 3.79 -1.01
-5.81 2.86 1.76
-3.81 1.87 -0.51
-4.98 3.47 1.18
-4.58 -2.68 1.37
-1.52 -0.79 -2.59
-2.56 -0.10 -2.23
-5.24 -5.14 2.04
-3.01 -2.13 -1.67
-4.97 0.86 0.09
-0.78 0.80 -4.75
-3.82 -4.67 -0.27
-3.82 -3.87 0.33
-1.99 2.71 -3.19
-1.92 -3.84 -2.89
0.43 2.22 -6.38
-4.03 -1.63 0.43
-3.77 1.07 -1.09
-3.00 1.04 -1.74
-2.20 -1.87 -2.05
-1.34 -4.41 -2.91
-5.92 -1.31 2.43
-1.43 -4.45 -3.52
-1.25 2.16 -3.65
-2.22 -5.27 -2.35
-0.55 -4.97 -4.19
-5.94 0.57 2.96
-2.50 -3.97 -2.19
-0.21 0.63 -5.49
-2.08 0.36 -2.99
-3.61 -2.50 -0.28
-0.92 -1.11 -5.10
-2.18 2.78 -3.11
-1.64 -3.59 -3.47
-2.66 -2.52 -1.55
-5.45 1.26 1.78
-4.38 0.40 -0.33
-0.67 1.16 -5.41
-6.20 -1.14 3.00
-3.48 1.82 -1.50
-1.71 1.25 -3.15
-1.59 0.89 -4.04
-1.01 -2.29 -3.84
-1.93 1.14 -2.80
-4.46 2.44 0.97
-0.02 0.93 -5.27
-2.37 4.36 -2.76
0.13 2.61 -6.01
1.10 -4.61 -6.31
-3.18 2.48 -2.12
-2.27 1.72 -2.91
-3.26 3.54 -0.74
-2.96 4.84 -3.09
-3.36 -0.26 -0.99
-0.90 -3.55 -3.89
-2.01 -1.08 -3.45
-2.69 0.43 -1.82
-4.44 3.52 -0.06
-1.18 4.41 -3.70
-1.95 1.17 -2.91
-0.78 -1.88 -3.47
-1.56 2.46 -4.08
-1.84 -2.73 -3.20
-2.07 1.78 -2.32
-0.23 -4.72 -4.04
-4.76 -2.94 1.95
-2.21 0.92 -3.71
-3.76 -3.18 -0.99
-1.73 4.15 -4.36
-5.58 -1.72 1.97
-4.86 -4.85 1.55
-3.65 3.26 -1.33
0.11 -3.10 -5.65
-3.37 -4.54 -1.30
-1.39 -4.69 -3.13
-5.05 -1.88 1.08
-2.97 2.65 -0.97
-2.80 4.03 -2.18
0.93 -3.01 -6.35
-4.06 -1.22 -0.20
-2.43 4.72 -2.01
-3.11 -5.32 -0.95
-1.39 -4.77 -3.57
-0.66 -3.98 -3.67
-0.14 -0.87 -5.47
-4.55 -1.81 0.72
-1.75 -1.71 -2.42
-2.92 -3.95 -0.39
-2.84 -1.22 -0.95
-4.33 3.50 -1.22
-3.03 -2.65 -0.80
-3.41 2.73 -1.80
-2.10 -4.31 -3.01
-2.96 3.09 -1.76
-1.37 3.25 -5.05
-3.75 3.62 -1.37
-4.83 0.59 1.12
-3.67 -3.12 0.72
-3.43 2.80 -1.47
-1.68 1.70 -3.14
-2.96 -2.37 -0.85
-3.20 2.43 -1.78
-1.40 -2.55 -3.02
-1.88 -0.25 -2.89
-0.02 3.59 -5.49
-2.94 -1.72 -1.87
-0.87 2.16 -5.45
-0.63 -2.30 -4.32
-3.04 1.61 -1.62
-0.75 3.83 -4.38
-5.85 -1.60 1.68
-5.03 4.06 -0.14
-2.67 3.77 -1.44
-1.16 3.15 -4.86
-3.95 -0.70 -0.65
-1.74 -2.22 -3.09
0.63 -2.23 -5.30
0.22 0.18 -6.57
-2.18 -2.55 -2.29
-0.19 2.75 -5.71
-4.09 -1.31 0.25
-2.01 -1.26 -3.21
-2.06 2.98 -2.25
-3.49 -3.17 -0.65
-3.19 2.04 -0.81
-1.06 -0.48 -4.47
-2.49 2.69 -2.00
-1.88 1.52 -2.54
-1.23 3.98 -4.02
-2.96 -0.46 -1.18
-5.65 -0.55 2.75
-2.44 3.30 -3.26
-4.04 -0.71 0.09
-5.01 3.58 0.81
-5.68 -4.20 1.74
-1.07 -4.26 -3.75
-3.43 1.11 -1.51
-0.26 0.95 -4.82
-2.61 2.46 -2.08
-1.35 -2.34 -3.36
-0.54 5.01 -5.03
-5.17 4.05 0.11
-0.31 -1.61 -5.50
-0.11 -1.42 -5.43
0.65 -3.90 -6.96
-1.49 -0.83 -2.95
0.02 -4.48 -4.63
-4.88 -0.76 1.68
-2.16 3.16 -3.26
-5.58 0.07 2.41
-4.16 -2.33 -0.24
-4.57 -4.17 0.94
-1.98 -4.89 -1.60
-3.64 2.67 -0.32
-1.56 -1.68 -4.04
-0.04 0.76 -5.24
-2.31 4.61 -2.68
-3.56 -3.65 -0.26
-3.68 4.05 -1.32
-5.15 0.21 1.92
-4.13 4.03 0.01
-2.41 -4.50 -1.91
0.30 -3.82 -4.78
1.49 -2.31 -6.38
-1.27 4.34 -3.95
-5.78 -2.87 2.53
-2.69 2.99 -2.32
-5.86 2.33 1.46
-5.54 -4.65 2.01
-5.70 1.03 2.08
-0.51 4.58 -5.07
-2.50 1.67 -2.10
-2.66 2.21 -2.14
-3.83 3.55 -1.28
-3.32 -1.73 -0.51
-5.00 2.27 0.58
-4.81 -3.19 1.03
-5.12 3.68 0.14
-3.22 0.09 -0.93
-2.94 1.78 -1.71
-5.06 1.82 1.69
-0.04 3.90 -6.27
-1.57 1.26 -3.27
-0.87 3.42 -4.80
-3.30 -1.64 -0.99
-2.10 4.61 -2.93
-0.09 -2.07 -5.57
-3.79 2.84 -0.69
-1.04 -0.07 -4.58
-0.37 3.37 -5.73
-0.61 1.48 -4.99
-4.85 -0.46 0.85
-0.55 3.17 -5.28
-3.52 -2.16 -1.35
-6.00 -0.67 2.09
-0.20 2.16 -4.51
-1.85 -3.65 -2.26
0.39 0.44 -5.48
-6.29 4.43 1.90
-5.87 0.93 1.74
-2.79 3.20 -1.99
-2.99 -2.33 -1.33
-0.91 1.58 -3.98
0.19 -4.36 -5.67
-1.25 -0.81 -3.66
-5.37 -4.42 1.35
0.65 -5.18 -6.49
-0.83 -3.19 -4.22
-5.37 3.58 1.59
0.83 -4.89 -6.62
-4.55 2.52 0.09
-2.16 1.44 -2.31
-7.28 1.63 3.73
-2.48 -2.91 -1.52
-4.41 2.78 0.90
-0.40 0.19 -5.64
-3.35 1.64 -0.69
-1.02 -3.67 -3.38
-2.24 -3.34 -1.72
-2.79 -4.11 -0.95
-5.49 -3.08 2.33
-2.89 -2.37 -1.22
-2.34 2.89 -2.13
-4.33 3.76 -0.57
-1.46 -2.08 -2.66
-3.53 -2.17 -1.02
-4.53 1.41 0.43
-6.17 1.62 2.45
-5.26 -0.24 1.35
-3.53 1.75 -1.05
-2.03 -2.56 -3.50
-4.54 4.24 0.05
-3.72 4.29 -0.80
-4.30 -2.96 1.23
-3.71 -4.54 0.02
-2.82 4.15 -2.24
-4.29 -0.29 0.66
-0.95 -4.50 -4.38
-5.22 2.27 0.66
-1.69 -2.57 -3.69
-3.92 0.51 -1.03
0.63 0.09 -6.52
-0.30 -4.56 -5.32
-3.18 1.15 -1.43
-4.72 4.64 0.04
-1.97 3.01 -2.79
1.47 -4.95 -6.99
-3.40 1.80 -0.96
-2.34 -4.73 -1.56
-4.60 -1.22 0.31
-4.11 -4.06 0.15
-5.44 -0.71 1.30
-3.63 0.74 -1.07
-0.06 -1.53 -4.38
-3.59 4.96 -1.30
-3.09 -4.77 -0.90
-4.40 3.69 0.51
-4.48 -5.11 1.62
-2.02 -5.27 -2.81
-0.40 0.62 -5.12
-5.39 -0.48 2.02
-6.39 4.15 1.90
-4.10 2.45 0.01
-5.14 -1.03 0.71
-2.72 4.38 -2.68
-1.49 -2.23 -3.99
-2.80 5.10 -2.51
-3.65 -2.77 0.40
-1.29 -1.10 -3.36
-1.59 2.38 -3.39
-1.70 0.87 -3.78
-6.02 -0.13 2.85
-3.22 -4.49 -0.91
-5.26 -1.47 1.43
-2.97 3.35 -1.36
-1.46 -4.34 -3.02
-0.67 -4.94 -3.72
-0.96 -2.16 -4.35
-5.20 1.24 0.75
-0.39 3.47 -4.87
-0.34 -0.12 -4.51
-1.72 -4.83 -1.81
-3.52 -0.85 -0.98
-2.84 -4.10 -0.54
-0.16 -2.52 -4.25
-1.76 2.09 -3.54
-2.49 -4.39 -2.10
-1.02 3.98 -4.45
1.27 -2.62 -7.38
-3.98 -1.10 -0.82
-0.02 1.80 -6.72
-4.48 -0.33 0.72
-1.29 -3.65 -3.69
-3.48 -4.24 -0.49
-3.40 3.11 -1.32
-2.39 -3.89 -2.47
-2.99 -1.82 -1.28
-4.02 -2.60 -0.24
-2.09 -3.59 -2.83
-3.36 -1.57 -1.42
-5.45 2.33 1.80
-1.27 -3.39 -2.73
-2.64 -2.97 -1.27
-1.14 -4.70 -3.49
-4.70 -4.72 1.58
-2.64 2.28 -2.30
-0.17 2.32 -6.20
-0.74 -1.66 -4.10
-2.65 -3.15 -1.72
-3.28 3.29 -1.42
-3.01 -3.30 -1.44
-2.13 3.73 -2.60
-4.66 3.07 0.33
-2.60 -4.55 -1.67
-2.55 1.99 -2.31
0.41 -1.36 -6.44
-2.86 0.18 -1.24
-1.31 -2.04 -3.40
-4.58 -3.36 1.01
-3.85 2.41 -0.39
-3.99 -4.81 0.30
0.58 -3.21 -6.13
-2.52 -0.25 -2.06
-2.50 -2.99 -2.43
-1.50 -0.10 -3.35
-2.85 -1.67 -1.33
-5.26 -2.50 1.87
-2.90 -5.55 -1.11
-2.70 -2.89 -0.92
-0.62 3.35 -5.34
0.69 -4.61 -5.89
-2.56 1.23 -3.12
-1.00 -0.20 -4.49
-0.56 -3.51 -3.44
-2.19 3.69 -2.33
-2.16 -2.03 -2.55
-2.72 4.96 -2.86
-1.36 -1.22 -3.62
-5.77 -0.94 1.71
-2.42 3.67 -2.07
-2.21 -0.59 -2.01
-0.82 -2.04 -4.34
-0.82 3.76 -4.88
-2.84 2.51 -1.93
-4.62 2.62 0.67
-4.26 -1.23 1.06
-4.54 0.01 0.19
-4.36 -4.58 0.39
-2.52 3.61 -2.10
-2.88 5.03 -1.91
-5.24 -4.80 1.64
-1.60 -0.96 -3.44
-2.62 0.93 -2.30
-1.07 -2.76 -3.55
0.17 2.47 -6.52
-3.30 -3.65 -0.09
-0.01 -3.86 -5.69
1.08 3.49 -6.77
-1.64 -4.65 -2.69
-4.37 2.47 -0.70
-2.88 -2.32 -0.53
-6.02 0.23 2.75
-4.13 3.99 -0.39
-2.62 -4.37 -1.50
-2.65 -1.56 -1.62
-2.38 -2.07 -1.28
-0.96 -3.27 -4.36
-0.66 -1.29 -4.63
-3.93 0.99 0.52
-2.17 1.55 -3.44
-3.37 -2.15 -0.53
-0.61 -4.11 -3.71
-2.92 -5.19 -1.89
-2.96 -1.31 -1.60
-3.26 2.12 -2.25
0.79 -2.53 -5.56
-4.16 -4.21 0.15
-2.28 -1.26 -2.70
-2.01 -3.86 -2.11
-2.36 -2.54 -1.99
-0.68 3.95 -5.33
-2.90 2.11 -1.40
-5.75 -2.62 2.23
-1.71 -0.26 -3.21
-2.92 0.82 -1.13
0.24 4.22 -5.69
-3.77 4.00 -1.03
-5.36 4.20 0.98
-1.28 -1.23 -3.79
-1.35 -5.05 -3.25
-2.94 3.04 -2.50
-2.69 0.15 -2.37
-3.22 0.94 -0.60
-2.08 -5.18 -1.90
-3.29 1.84 -0.99
-4.71 -0.53 -0.09
-2.70 -2.38 -1.96
-1.86 -3.21 -1.98
-3.73 -0.64 0.59
-5.57 2.96 1.22
-3.30 -0.77 -1.17
0.38 1.56 -5.65
-3.78 -4.37 -0.46
-2.03 -4.59 -2.33
-1.97 2.35 -3.21
-2.15 -0.43 -2.05
-4.34 4.71 -0.07
-3.71 0.86 -1.27
-0.22 -4.46 -4.36
-4.79 1.13 0.82
-2.40 -3.33 -1.97
-5.04 2.66 1.19
0.06 1.36 -5.55
-2.21 2.26 -2.48
-2.34 3.02 -2.53
-2.55 -3.02 -1.25
-3.61 0.71 -0.96
-2.45 -1.11 -2.78
-2.67 -3.79 -1.12
-5.02 -0.54 1.61
-0.64 4.51 -5.51
-3.21 3.13 -1.18
-5.79 -0.82 1.61
-2.15 0.55 -2.30
-3.87 4.40 -0.61
0.66 -1.76 -5.41
0.02 -0.05 -5.22
-0.59 -4.62 -4.65
-1.16 1.22 -5.07
-0.81 1.91 -4.57
-0.76 1.82 -5.05
-3.97 -2.61 -0.44
-2.60 1.66 -2.77
-0.86 0.79 -4.91
1.05 -4.36 -6.04
-3.64 2.99 -1.35
-0.62 -0.07 -5.29
-6.16 -4.27 2.68
-2.84 -3.52 -2.19
-1.83 -0.61 -3.28
-2.19 -4.71 -1.57
-1.57 -1.64 -3.80
4.00 2.77 -0.78
1.42 0.68 0.53
-0.43 -0.81 0.61
4.78 1.27 0.63
-2.63 -0.91 0.63
-0.56 -0.57 0.29
4.58 1.97 0.25
5.17 1.93 -0.28
2.15 0.21 1.11
4.19 0.86 -0.20
3.41 1.88 0.32
1.17 0.85 -0.10
-3.99 -0.79 0.06
0.87 -1.01 1.52
1.03 1.74 -0.77
3.69 0.97 -0.10
-3.20 1.16 -0.78
-2.21 1.97 -1.12
2.07 0.01 1.14
-3.71 -0.84 0.12
2.24 1.45 -0.12
3.20 5.28 -2.24
-0.87 3.77 -1.91
3.57 -0.08 0.73
-1.05 -4.67 3.10
3.89 4.11 -1.64
-4.38 2.09 -0.58
0.18 2.58 -0.96
4.81 1.49 0.12
2.55 -2.43 1.81
-3.89 -0.65 0.28
-5.20 -0.55 0.22
0.53 4.63 -1.78
2.43 -0.82 1.53
4.19 -2.37 2.29
0.70 5.00 -1.89
-1.33 -3.40 1.91
-0.30 3.68 -1.67
1.38 2.50 -1.33
2.98 -2.22 1.95
3.91 2.08 -0.80
-3.15 3.33 -1.39
-2.67 -2.75 1.57
-2.57 -1.81 1.02
2.14 -2.79 2.14
-4.02 3.20 -1.68
-1.15 -1.51 1.41
1.91 -3.91 2.39
-0.33 1.26 -0.69
4.55 5.41 -2.38
-3.89 2.15 -1.81
-1.17 -1.91 1.53
1.11 2.46 -1.14
2.00 -1.54 1.25
-3.07 1.32 -0.48
1.90 3.97 -1.57
3.74 0.11 0.70
3.24 -3.29 2.54
2.48 -4.22 3.21
-4.84 -1.70 0.76
-4.92 2.09 -1.47
-1.94 -0.85 1.29
3.63 -0.15 0.75
-4.08 4.49 -2.37
1.02 -2.04 1.81
-1.83 0.46 -0.12
-3.24 3.21 -1.87
-5.16 -0.48 0.49
3.96 -0.28 0.29
1.48 4.24 -2.24
-3.94 -1.94 0.96
4.21 2.87 -0.98
0.30 1.85 -0.36
-0.69 3.76 -1.54
3.83 1.88 -0.29
-1.67 2.43 -1.41
-3.08 -1.52 1.45
-1.64 -0.01 0.00
-4.57 4.27 -2.91
3.46 -4.89 3.17
-1.97 1.63 -0.74
3.21 -2.03 2.17
-0.60 2.21 -1.14
1.82 0.45 0.29
-4.76 -4.40 1.75
4.76 3.82 -1.19
1.12 2.98 -1.25
-1.33 -1.98 1.61
5.16 1.04 0.69
2.58 -2.53 2.51
-1.63 -1.59 1.60
-2.26 -1.53 0.89
-4.25 1.78 -0.86
4.20 -0.87 1.67
-4.42 1.52 -0.34
2.76 -1.89 2.12
2.39 -1.60 1.69
-4.49 -2.58 1.66
4.13 -2.59 2.44
-1.08 -1.18 1.47
4.41 4.12 -1.56
3.54 1.84 -0.34
1.75 -2.03 1.48
4.19 0.05 1.34
1.69 1.12 -0.23
-1.72 -1.72 0.69
-2.05 -3.35 2.49
-2.54 4.54 -3.07
0.60 -3.53 2.28
-3.14 -4.48 2.87
-1.47 2.10 -0.49
-1.13 0.61 -0.32
1.35 -2.62 1.86
2.14 -2.55 2.06
-1.85 2.77 -1.34
2.42 0.10 0.42
0.51 -2.47 1.35
4.30 3.87 -1.10
-4.56 3.66 -1.50
3.61 -2.89 2.73
4.32 1.45 -0.21
3.47 3.04 -0.81
3.64 4.35 -2.05
2.41 2.52 -0.52
1.02 -1.72 2.06
1.82 -0.41 1.03
2.59 0.73 0.43
4.75 -0.14 0.93
1.28 -4.20 3.55
-4.89 1.49 -1.24
0.76 -2.70 1.77
-2.03 4.57 -2.26
0.91 1.98 -0.46
-0.30 0.17 -0.09
3.68 1.12 -0.48
2.01 2.26 -0.54
-4.38 4.47 -2.60
-1.44 -2.99 1.60
-3.57 -1.06 0.31
-3.95 1.95 -0.94
-2.10 4.11 -2.72
0.04 -3.05 2.20
2.39 3.17 -1.44
-4.34 2.02 -1.27
-4.45 1.88 -1.01
-4.23 -0.92 0.58
-3.21 3.51 -2.20
-0.52 -0.46 1.12
-1.06 3.13 -1.23
1.38 0.04 0.06
1.05 5.01 -2.06
-4.71 -4.13 2.21
-0.93 -0.98 0.26
-1.06 4.74 -2.47
4.52 -2.52 2.91
2.94 -1.75 1.77
3.61 2.97 -1.14
3.40 -0.74 1.31
1.87 -2.53 1.58
-2.76 1.70 -0.78
0.02 2.88 -1.99
2.37 1.27 0.14
2.77 1.02 0.39
3.20 -3.65 2.52
3.23 1.92 -0.83
3.80 -1.02 1.72
1.85 -0.02 1.05
4.31 -3.82 2.73
0.73 0.59 0.07
0.33 1.42 -0.35
1.22 2.37 -0.27
-2.08 0.61 -0.98
2.86 -0.87 1.22
3.53 -2.55 1.94
-3.27 -2.49 1.34
0.53 3.15 -1.70
-3.54 2.58 -1.58
-5.00 -0.14 0.03
-3.90 -4.81 2.93
-2.28 2.35 -1.48
-2.06 -0.04 0.20
-1.29 -1.04 1.05
0.13 -2.54 1.39
-3.05 3.03 -1.63
-0.40 1.91 -1.12
-4.89 -2.33 1.25
-1.41 0.52 -0.10
4.78 0.57 0.91
-1.62 -3.35 2.05
3.75 2.24 -1.05
-2.79 0.88 -0.83
-1.77 -0.95 0.81
-2.17 1.78 -1.49
-1.62 -4.24 3.01
1.75 -0.38 0.67
2.36 -3.45 2.50
-1.30 -3.33 1.96
3.03 2.71 -0.35
-4.18 0.72 0.29
-2.89 -1.13 0.83
-3.67 1.27 -1.16
-2.04 1.11 -0.67
-3.50 1.35 -0.86
-0.49 3.21 -1.26
4.11 2.63 -0.44
-2.59 -4.94 2.67
2.95 0.98 0.07
-2.80 3.16 -1.61
-3.11 -2.54 1.65
-3.93 0.99 -0.46
-0.43 2.55 -1.61
0.69 -1.01 1.11
-1.24 0.16 -0.38
-3.77 -5.01 2.86
3.14 -3.97 3.30
0.07 1.03 -0.52
-3.78 0.70 -0.66
-0.09 2.11 -0.73
-0.33 -2.44 2.13
3.40 2.42 -0.02
-2.06 0.75 -0.20
-3.56 -0.81 0.28
2.63 -2.04 1.30
4.95 -1.80 2.09
3.63 0.25 1.31
3.58 0.34 -0.04
2.34 1.37 -0.29
3.80 0.33 1.10
-2.75 4.85 -2.47
-0.85 -0.51 0.71
-4.43 1.04 -0.77
-0.22 1.29 -0.56
-3.86 1.39 -1.32
-3.90 4.44 -2.25
-4.30 -2.76 1.37
-3.03 2.52 -1.05
-4.23 -0.38 0.44
-4.54 3.58 -2.11
-1.49 0.89 -0.22
0.89 -0.48 0.75
1.27 2.68 -0.99
-1.84 2.84 -1.67
2.81 -0.33 1.26
4.84 0.17 0.90
-1.15 6.05 -3.22
0.13 4.98 -2.02
-3.34 -1.53 0.29
3.52 -1.02 1.96
0.26 2.93 -1.01
0.79 2.89 -1.51
-2.16 0.82 0.31
-0.80 0.01 -0.06
3.07 -1.73 2.39
-0.69 1.21 -0.73
2.00 1.81 -0.79
-0.62 1.44 -0.04
1.18 -1.98 1.72
-4.70 -2.17 0.92
1.83 1.49 0.02
-2.12 -0.94 0.31
-2.27 2.46 -1.19
-2.55 -0.88 0.62
-0.83 3.57 -1.87
2.30 0.95 0.59
0.02 4.33 -1.68
0.56 1.81 -0.32
2.91 0.93 0.36
-3.97 -0.50 0.05
4.25 1.53 0.08
0.67 2.63 -1.22
2.33 3.51 -1.35
-3.04 3.35 -2.33
3.95 6.10 -2.00
-2.23 2.89 -1.20
-0.11 -3.32 2.19
0.81 -3.58 2.51
-2.64 0.33 0.06
3.51 -0.61 1.53
0.19 1.95 -0.82
-5.39 3.98 -2.64
-4.05 0.12 0.01
0.14 2.53 -0.65
2.26 5.32 -2.75
-2.99 -1.34 1.22
-0.15 1.11 0.42
-3.70 -0.38 0.10
-3.32 0.41 -0.29
-0.13 -0.46 1.09
3.26 -2.61 2.65
1.08 2.66 -0.89
0.77 -2.37 1.44
-1.47 4.61 -2.50
-2.24 -4.40 2.64
-3.81 -1.14 0.81
-1.17 -0.76 0.92
2.05 4.84 -1.72
3.62 4.57 -1.86
-0.93 0.40 0.44
4.26 1.25 -0.29
-2.86 4.30 -2.71
5.66 2.11 -0.22
-5.56 -1.37 0.14
-0.40 -1.36 0.90
3.53 -0.71 1.21
-0.69 -3.43 2.37
3.87 1.98 0.21
-1.86 -1.02 1.35
1.38 3.37 -1.63
-0.28 3.96 -1.67
-0.86 -3.61 2.72
2.31 1.90 -0.27
2.75 2.38 -0.69
-0.17 2.81 -1.12
0.62 -0.84 0.68
5.35 -1.62 1.81
-5.11 -2.53 0.79
2.96 2.15 -1.07
4.93 1.12 0.08
-2.07 2.78 -1.67
2.45 -1.74 1.81
-4.51 -3.77 2.15
-5.00 -2.62 1.73
-4.16 2.67 -2.01
-2.55 -2.02 1.49
5.05 4.15 -1.30
3.41 1.21 0.74
1.14 -2.61 1.62
-0.27 0.41 0.41
-0.58 -0.75 1.10
5.32 1.62 0.67
-0.11 -4.65 2.45
-2.63 4.28 -2.48
0.03 2.24 -1.23
5.07 -3.06 2.01
-2.80 -0.01 -0.30
-4.27 2.38 -0.96
3.82 1.15 -0.41
-4.37 -0.71 0.55
-0.30 -0.36 0.86
-2.83 -5.36 3.01
-3.69 -1.46 1.12
1.36 2.68 -1.22
3.70 2.11 0.01
0.15 2.93 -0.91
2.33 4.64 -1.40
-1.14 1.38 -0.41
1.44 0.44 0.18
-1.58 3.65 -2.22
4.69 2.28 -0.14
-1.32 1.11 -0.13
3.56 1.56 -0.67
2.40 0.79 0.19
5.29 3.58 -1.32
-1.30 -2.55 1.63
4.71 1.84 0.24
0.50 -1.04 1.07
-1.17 -2.26 1.68
-4.52 -1.60 0.19
2.82 -4.07 3.08
3.02 3.77 -0.96
-0.64 2.61 -1.02
-4.45 -1.55 0.87
-3.26 2.50 -1.26
-4.36 1.69 -0.66
3.16 -0.70 0.91
4.07 -2.41 2.30
-3.55 1.14 -0.09
-5.23 -0.76 0.33
1.55 1.53 -0.32
2.53 -3.53 3.15
1.52 -3.07 2.50
4.82 3.18 -0.36
-3.65 -1.09 0.30
0.07 -3.52 2.53
-1.47 2.43 -1.75
-1.20 0.55 -0.76
-3.45 2.38 -1.35
2.95 -0.74 0.53
-0.90 -3.55 2.12
2.72 3.70 -1.46
-1.95 -2.33 1.70
-4.05 -4.93 3.07
-2.22 -3.47 2.08
-1.41 2.02 -0.87
3.21 0.26 1.15
2.85 2.19 -0.87
0.77 2.29 -1.19
3.80 0.43 0.68
-0.63 0.97 -0.35
-2.63 0.44 0.08
-5.25 -1.97 1.02
-5.72 -0.52 0.43
1.92 -4.59 3.39
4.10 2.92 -0.93
-2.85 -1.88 1.38
-4.47 -1.28 0.24
2.15 0.90 0.23
1.49 -2.77 2.05
-2.36 4.11 -2.23
1.21 0.10 0.52
0.95 -3.45 2.26
-0.45 -2.51 1.61
1.11 -5.45 3.17
3.80 4.02 -1.55
5.24 -1.89 1.99
-0.20 4.57 -2.09
3.98 3.05 -1.38
-2.01 -0.88 0.97
1.13 -4.26 3.20
-0.43 1.95 -0.69
3.16 -0.18 0.73
-1.06 -4.49 3.21
1.02 1.24 -0.35
-4.22 -3.62 2.27
3.36 1.30 -0.09
3.53 5.12 -1.48
2.20 0.90 0.63
2.29 -2.41 2.20
-1.82 -0.26 -0.26
-4.64 1.95 -1.68
-3.25 -0.72 0.75
2.79 0.77 -0.30
-1.13 -2.82 2.26
0.26 -0.93 1.17
-0.09 -4.25 3.36
-2.88 1.82 -0.35
3.46 -3.02 2.45
-2.34 1.50 -0.33
4.08 0.50 0.86
1.90 -1.30 1.90
-2.01 2.23 -0.72
-2.24 -1.21 1.03
3.78 3.87 -1.57
-1.64 1.49 -0.15
0.48 4.28 -2.54
-2.77 -5.68 2.93
3.85 -0.77 1.31
-1.89 1.09 -0.04
-4.71 3.55 -2.31
-3.68 -0.44 0.17
-3.86 3.20 -1.68
-3.67 -5.52 3.35
-0.03 -2.90 1.83
-1.86 -2.21 0.78
-2.97 -1.24 0.36
3.02 0.84 0.32
-0.68 1.08 -0.85
-3.34 3.10 -1.37
1.47 3.41 -1.17
1.94 3.22 -1.37
0.95 -0.70 0.69
-3.94 -4.11 2.78
1.31 -1.25 1.13
0.62 0.03 0.51
2.03 -0.80 1.31
-1.80 1.59 -0.94
-2.05 3.09 -1.06
-4.21 2.17 -1.46
-3.55 1.27 -0.90
-2.47 -1.82 1.42
2.20 -3.78 2.55
-3.76 -3.22 2.32
2.80 -2.75 3.01
-2.03 1.49 -0.90
4.87 3.16 -0.91
-2.61 -0.12 -0.38
-3.96 1.66 -0.71
3.14 0.21 0.64
-4.10 -1.04 0.86
3.20 -2.00 1.43
1.10 -4.08 2.96
-4.25 -0.33 -0.32
-1.41 1.36 -0.32
1.88 1.56 -0.05
2.09 -0.76 1.68
0.47 3.42 -2.02
4.56 -0.41 1.79
5.63 -1.44 2.17
-0.60 -1.16 0.69
-5.01 2.29 -2.13
-1.56 2.00 -0.35
1.43 -0.09 0.28
-2.89 -5.25 2.69
2.37 0.05 0.57
-3.23 0.09 0.65
3.44 -2.84 2.41
-3.37 -3.52 2.49
2.19 1.73 0.06
-1.60 -1.10 0.70
4.50 1.95 -0.10
-1.31 2.23 -0.75
-3.88 3.15 -2.23
-2.67 5.23 -3.25
2.07 -4.64 3.60
-4.77 -2.30 0.66
0.37 -1.25 0.97
3.80 -4.20 3.71
4.94 0.03 0.50
-4.62 1.64 -1.51
-2.20 1.43 0.03
-3.99 3.40 -2.19
-1.54 -1.04 1.21
0.07 -4.10 2.48
3.50 0.47 0.65
4.65 0.94 0.54
2.36 0.15 1.10
1.69 -0.87 0.93
3.28 2.37 -0.67
4.35 -3.74 3.15
2.06 0.91 0.63
-1.95 -2.93 1.53
-4.78 -3.45 2.13
1.35 1.87 0.19
2.42 2.16 -0.50
3.69 3.43 -1.16
-4.57 0.27 0.06
-1.30 -2.39 1.36
4.48 4.81 -1.87
-2.94 2.38 -1.57
-5.33 -2.24 0.94
3.93 -1.84 1.52
-2.53 -0.02 -0.39
0.76 -2.57 1.47
-1.95 0.80 -0.95
-3.76 -1.89 1.11
-1.61 1.64 -0.53
-0.24 1.43 -0.27
1.12 2.77 -1.18
3.97 1.76 -0.18
-0.44 3.06 -1.29
-4.12 2.30 -1.65
-1.24 4.29 -1.39
-0.51 -0.51 0.13
-1.18 0.48 -0.15
4.22 -2.12 2.51
2.83 0.66 0.42
-1.90 1.93 -1.18
0.57 -0.60 0.79
3.00 4.75 -1.65
-1.72 -0.41 0.81
-5.21 1.48 -1.31
-2.78 5.08 -2.18
1.27 2.25 -0.13
-2.55 -4.83 2.42
0.54 1.76 -0.20
5.03 2.88 -1.25
4.82 0.69 0.64
0.14 -0.94 0.81
2.60 1.25 0.07
5.07 1.86 0.05
-3.25 0.91 -0.64
-2.76 -3.83 2.52
-2.85 -4.32 2.62
-2.39 -2.50 1.93
-2.41 1.97 -1.04
-4.10 -0.57 0.43
1.30 0.40 0.74
2.51 -2.39 2.21
-0.03 2.80 -1.11
0.88 -3.09 2.27
-4.44 5.16 -3.19
-0.83 -4.03 2.97
5.19 1.62 -0.36
0.26 2.77 -0.44
4.31 0.83 0.67
-4.76 0.88 -0.68
-3.84 3.52 -1.44
4.28 4.90 -1.90
2.38 -4.77 2.74
-4.12 2.57 -1.51
-3.07 -2.30 1.28
-0.81 -3.75 2.21
-0.47 -3.78 2.38
-3.45 -0.62 -0.04
-2.61 1.60 -0.87
-3.94 -0.05 -0.38
-2.00 -3.32 2.51
-4.60 -1.44 0.59
3.84 -1.10 1.18
-2.91 0.88 -0.37
3.57 1.68 -0.14
3.48 -2.66 2.77
-2.70 0.98 -0.35
0.12 2.14 -1.56
-4.95 -6.11 3.56
-2.50 -1.39 1.35
-3.80 -0.96 0.28
-3.75 1.39 -0.39
2.78 2.74 -1.22
-2.41 -1.25 0.92
1.59 -2.70 1.55
-3.08 0.72 -0.65
-2.79 -3.42 2.11
-3.03 -3.23 1.64
-3.98 -3.45 1.99
-1.24 0.14 0.28
2.42 1.12 0.37
-5.03 -0.65 -0.07
1.52 1.25 0.34
-1.64 -0.67 0.87
-3.61 0.48 -0.74
3.97 -3.69 2.66
-1.68 -2.45 0.95
-3.28 -0.54 0.67
-1.41 0.06 0.23
-3.24 0.28 -0.29
-0.78 -3.66 2.88
-2.30 2.08 -1.02
4.48 4.12 -1.75
0.29 -0.46 0.33
4.44 2.31 -0.50
2.06 0.05 0.80
1.79 2.66 -0.64
4.47 -0.82 1.45
1.58 -0.10 0.13
-0.36 4.24 -1.55
2.83 2.17 -1.07
2.85 -3.41 2.81
-4.75 3.66 -2.41
-2.29 0.94 -0.88
-4.23 -0.21 -0.34
2.13 2.08 -0.86
3.88 2.44 -0.33
-2.46 -3.33 2.31
3.56 4.28 -2.08
-2.92 4.70 -1.93
2.94 -0.93 1.31
-1.45 -1.34 0.65
0.46 4.00 -1.66
3.46 1.28 -0.10
3.59 3.33 -1.27
2.74 -1.42 1.90
-2.73 0.88 -0.74
1.58 2.86 -0.46
0.32 4.53 -2.04
0.53 2.98 -0.97
-1.28 4.73 -1.99
-3.90 0.48 -0.22
-0.33 -0.73 0.69
-4.81 -1.29 0.48
-2.36 1.99 -0.93
-3.77 2.48 -1.54
-3.06 -1.45 0.87
-3.08 -1.56 1.27
-4.64 -3.23 1.53
0.68 5.97 -2.39
-3.37 3.20 -2.07
0.49 -0.50 0.89
-3.84 2.55 -1.13
-0.41 0.37 0.70
-3.43 -4.00 1.79
-1.76 -3.28 2.14
-2.87 0.53 0.17
3.93 3.36 -1.09
4.28 0.11 0.52
-2.85 1.66 -1.08
-3.23 -3.91 2.13
0.77 1.35 -0.05
0.63 2.46 -0.56
4.54 -3.44 2.76
-0.63 -2.02 1.90
3.64 -1.74 1.93
0.20 2.49 -1.03
2.02 -1.73 1.35
5.25 -0.15 1.02
3.19 2.94 -0.64
0.00 1.17 0.34
2.63 -2.88 2.43
-2.12 3.26 -2.40
2.15 1.85 -0.48
1.13 3.56 -2.14
1.73 -0.05 0.42
-0.37 2.61 -1.15
-2.76 -0.26 -0.15
4.82 1.61 0.06
-3.91 -4.94 3.02
1.89 1.97 -0.26
-4.26 2.74 -1.81
1.94 -2.38 2.06
-3.06 -5.10 3.01
-0.75 0.47 -0.14
-3.99 -0.19 -0.13
3.95 -0.55 0.97
4.95 0.71 -0.00
0.09 -2.81 2.20
1.12 -2.05 2.23
-2.93 0.80 -0.46
2.82 -3.27 2.89
-0.44 0.58 -0.00
2.83 1.10 0.39
-1.79 0.43 -0.30
2.14 2.40 -0.58
-1.98 -0.37 0.31
-1.81 -0.74 1.01
-0.27 0.26 0.40
2.24 3.07 -1.23
2.31 1.62 0.21
-2.97 1.43 -0.97
2.51 -1.28 0.94
-0.27 4.77 -2.12
-4.32 -0.05 0.37
-2.86 0.21 0.11
-1.15 3.70 -1.95
0.36 -2.48 1.61
-3.53 1.07 -0.65
-0.36 -0.87 0.59
-4.43 -1.43 0.61
0.29 2.53 -1.19
-0.03 -2.01 1.22
-4.27 -1.28 0.80
-3.44 0.88 -0.47
-1.28 0.54 0.52
2.88 -3.22 2.04
-2.79 -2.75 1.25
-3.02 3.54 -1.90
3.42 2.26 -0.40
-3.90 -0.18 0.14
-2.42 -3.50 2.52
-5.29 3.72 -1.78
-1.22 -2.95 1.40
0.44 3.61 -1.44
0.68 -2.66 1.88
-0.90 4.14 -2.66
-3.58 1.10 -1.01
3.97 2.67 -0.88
-4.60 1.96 -1.62
1.70 -0.03 0.40
1.05 0.15 0.39
0.61 -0.21 0.64
-3.50 -1.78 1.47
3.76 3.47 -1.00
-0.99 3.32 -1.59
2.49 -1.98 2.29
1.71 -2.72 2.05
0.93 1.97 -0.53
-0.22 3.80 -1.00
-1.31 3.75 -1.93
4.13 0.44 0.19
0.92 -1.42 1.27
4.46 -2.78 2.68
-0.89 -0.72 0.61
3.46 -0.38 0.60
2.47 1.56 -0.17
3.71 -1.91 1.82
-1.39 2.25 -1.14
-0.87 2.33 -0.79
4.70 -3.04 2.18
3.21 4.80 -1.85
4.39 -1.11 1.57
-1.32 -1.37 1.15
-1.52 -1.71 0.95
-3.42 1.99 -1.57
3.21 0.92 0.35
3.90 -5.18 3.71
3.28 4.43 -1.92
0.90 -0.33 0.34
-4.09 -1.45 0.93
2.46 1.81 -0.02
-2.29 1.05 -0.71
-4.43 -0.51 0.76
-4.23 -0.91 0.37
-1.47 -0.77 0.57
-3.12 0.31 0.16
3.08 -1.29 1.78
2.03 2.17 -0.55
5.11 -4.83 3.50
-1.84 -2.38 1.67
-0.80 -3.96 2.65
-4.69 -2.65 1.16
-4.64 -0.18 0.03
-1.82 1.32 -0.76
-1.32 -1.37 0.71
1.68 2.17 -0.61
-3.85 2.10 -0.59
2.91 1.14 0.17
5.33 3.92 -0.92
4.34 2.44 -0.32
4.61 -0.16 0.68
3.07 0.97 0.38
4.68 2.30 -0.14
1.18 -1.46 1.50
-4.05 2.44 -1.85
2.05 -1.20 1.40
0.79 -1.34 1.20
1.12 -2.90 2.49
-3.42 -2.60 1.07
4.07 -0.08 1.18
-4.80 -1.75 0.99
0.08 1.37 -0.25
0.60 2.19 -1.08
-4.99 -1.97 0.81
-0.57 -2.78 1.93
-3.39 -0.99 0.63
-2.88 -0.89 0.98
4.50 3.44 -1.79
4.07 -3.73 2.69
-4.22 1.74 -1.04
0.62 4.54 -2.30
-1.78 2.06 -1.09
0.48 -2.29 1.10
-2.35 0.02 0.16
-0.89 4.81 -2.45
-0.45 -1.34 1.09
0.92 -2.48 1.31
4.97 -4.57 3.92
-2.97 -3.75 2.67
0.50 2.34 -0.96
3.08 2.40 -1.04
0.53 -1.97 1.15
-4.15 2.41 -1.85
-4.22 1.59 -1.51
3.91 -3.36 2.86
-5.11 -2.56 0.89
1.31 -0.11 0.23
2.52 -2.96 2.47
-2.38 0.30 0.07
-0.59 -0.45 1.23
2.71 4.63 -2.00
-0.60 4.82 -2.22
3.48 -0.99 1.61
-0.36 0.52 -0.04
-3.25 0.15 0.44
4.99 1.64 -0.23
-2.06 3.52 -1.88
3.83 -1.44 1.13
0.39 -0.57 0.42
4.11 1.38 0.52
-2.66 -1.14 0.38
-2.52 1.21 -0.78
2.60 -1.34 1.26
-0.97 4.66 -2.76
1.23 1.46 -0.63
-4.23 1.42 -0.32
2.21 2.41 -0.53
1.04 -3.49 1.97
4.68 3.78 -0.50
-1.12 -1.65 1.31
0.85 -2.89 1.64
2.38 1.55 -0.06
-3.80 -2.31 1.36
1.63 -3.83 2.55
3.64 -1.26 1.13
4.16 2.94 -0.73
-1.47 -4.31 2.65
2.57 -4.82 3.39
0.23 1.73 -0.46
2.14 1.42 -0.60
-1.04 0.53 -0.27
3.79 3.30 -0.73
-0.47 -3.08 2.15
0.38 1.62 -0.25
-2.62 2.34 -1.04
1.97 0.25 0.00
-1.62 3.44 -2.41
4.36 2.51 -1.04
-4.54 2.12 -1.45
-4.22 -1.60 0.85
0.60 0.29 0.49
3.12 -1.98 1.89
5.00 -2.10 1.45
0.41 4.15 -1.79
-0.86 1.47 -0.62
-3.78 0.64 -0.09
-3.16 1.44 -0.65
2.70 -4.59 2.83
-2.40 3.62 -1.75
1.19 1.21 0.14
4.79 -1.59 1.52
-2.30 3.03 -1.25
-4.19 -0.74 -0.13
2.51 -1.02 1.26
-2.16 1.24 -0.50
0.30 -2.52 2.08
0.93 -1.01 0.87
-3.17 -1.63 0.69
1.77 -1.91 1.78
-0.40 0.49 -0.41
0.57 4.67 -2.18
-4.92 2.81 -1.66
3.31 1.52 -0.58
-3.71 -0.57 0.57
-2.57 -2.94 1.73
4.39 -2.49 2.25
-3.48 -2.06 0.85
3.51 -3.26 2.86
0.50 4.39 -1.61
3.60 2.49 0.02
0.71 1.16 -0.00
1.00 3.65 -1.07
-4.43 1.13 -0.72
-1.92 1.97 -1.13
4.81 -0.36 1.45
-3.67 -0.19 0.13
3.66 2.49 -0.38
2.32 4.80 -1.44
3.24 -0.87 1.53
5.36 -0.21 0.94
-4.99 -0.78 -0.25
4.38 1.88 0.30
2.16 2.83 -0.37
1.14 0.36 0.25
-0.64 3.03 -1.74
0.29 0.06 0.52
-0.42 -2.13 1.37
-2.35 3.35 -1.69
-3.31 -1.49 0.98
-0.14 -3.56 1.96
-0.66 -1.68 1.81
4.44 2.85 -0.78
-1.82 2.28 -0.90
2.76 1.07 0.28
4.53 -4.73 3.80
3.91 -1.57 2.02
4.03 -3.99 3.23
-2.77 -2.49 2.02
2.42 4.73 -2.18
-3.42 0.95 -0.50
-3.14 0.45 -0.44
2.38 -2.34 2.32
-0.09 2.96 -1.56
-0.27 2.36 -1.10
-3.61 -1.59 1.10
4.15 0.54 0.77
0.43 -3.69 2.43
-3.95 -0.04 0.73
-2.14 -2.15 1.37
2.49 -2.89 2.37
-4.90 -2.75 1.01
-0.76 -2.98 1.51
-3.17 5.50 -2.90
3.33 -0.41 0.46
0.26 -3.43 2.65
-0.09 1.79 -0.29
4.11 -1.91 2.64
4.06 4.00 -1.49
-1.03 2.92 -1.77
-3.50 0.93 0.09
-3.51 -4.57 2.91
-1.45 -2.15 1.38
0.20 1.74 -0.72
4.96 -5.49 3.38
0.97 1.06 0.13
1.81 2.28 -0.28
-2.92 -1.79 0.78
-0.26 1.77 -1.08
-0.09 2.98 -1.19
-1.60 2.57 -1.65
-3.56 -1.92 0.94
-5.22 -1.91 1.00
3.40 -1.36 0.86
2.29 1.75 -0.55
-0.66 1.47 -0.16
-1.53 0.64 0.00
2.69 -0.77 1.12
4.29 -3.02 2.64
-4.21 -3.12 1.65
2.70 2.10 -0.53
4.37 -1.17 0.96
-2.94 1.68 -1.16
-2.85 3.07 -2.09
4.28 0.95 0.43
0.49 -1.31 1.64
-4.03 5.13 -3.13
3.02 -2.17 2.37
2.53 2.04 -0.39
3.54 0.85 -0.08
1.42 1.54 -0.00
-3.21 0.58 -0.13
0.39 1.98 -1.06
2.43 2.43 -1.29
2.94 3.40 -0.79
1.23 -1.30 1.04
-4.78 -2.85 2.06
3.49 -2.88 2.02
1.34 0.18 0.05
1.87 -2.96 1.76
-2.09 -2.68 1.80
2.13 1.35 0.44
0.75 3.97 -1.34
-0.86 2.55 -1.06
-3.48 2.98 -1.09
4.22 1.26 0.86
-1.28 4.56 -2.60
-0.88 -1.25 0.68
2.89 1.02 0.53
-0.60 1.83 -0.75
-3.79 1.12 -0.75
4.58 -2.89 2.78
-4.71 -2.80 1.73
-0.67 1.87 -0.20
-1.01 -0.84 1.16
-3.02 1.37 -0.51
0.20 3.29 -1.52
0.63 -2.98 2.71
-1.75 1.10 -0.63
-4.17 4.00 -1.82
0.28 3.50 -1.40
5.29 -2.29 2.75
1.66 -1.41 1.97
4.02 2.24 -0.53
-0.44 3.35 1.02
-2.12 2.93 -2.25
-4.99 -1.86 4.48
-4.71 -0.72 3.53
-4.86 1.29 -2.46
-1.85 1.83 -0.34
-5.50 0.54 -1.39
-1.37 3.09 0.43
0.57 2.63 2.00
-1.26 3.07 -0.79
-0.48 3.44 0.65
-0.80 3.07 0.67
1.29 0.90 6.01
-2.26 2.02 -0.17
-2.41 1.11 1.38
-2.34 1.73 -0.02
1.13 2.83 1.71
-1.90 -0.02 3.35
-1.02 0.81 3.94
3.75 6.30 -2.26
-3.52 1.46 -1.54
-1.47 3.41 -1.51
-2.98 1.09 0.63
-4.74 1.18 -0.12
-0.49 1.08 5.83
-3.96 0.80 1.75
-0.89 2.29 1.38
0.74 0.03 6.85
-0.44 2.28 1.40
-0.07 4.64 -2.14
0.88 5.54 -2.39
-4.47 0.95 -0.37
-3.40 1.06 0.78
-4.28 -1.44 3.70
-3.54 -0.81 3.20
-1.70 2.60 -0.50
-1.04 3.62 -1.97
-3.32 1.90 -0.61
-1.64 2.65 1.03
0.12 3.72 -1.14
-3.30 1.65 -0.15
-1.19 1.83 2.13
-6.35 1.04 -3.57
2.07 2.53 4.72
-4.04 1.27 -1.74
-3.84 -0.16 1.97
1.38 4.97 -1.88
4.13 5.10 3.55
1.04 4.48 0.32
3.97 4.91 2.26
1.02 3.01 2.70
-2.65 -0.03 3.30
1.45 3.05 3.62
0.70 4.08 -1.65
1.07 5.31 -2.75
0.16 0.93 4.45
0.26 1.58 4.70
-1.03 3.26 -2.27
-1.00 2.09 2.71
-5.72 0.56 -1.10
-6.47 -1.17 2.02
0.16 4.92 -2.64
-2.60 -0.10 4.13
-0.73 1.00 3.57
-3.79 0.06 1.40
0.40 3.12 1.13
0.82 3.23 2.43
-4.16 -0.98 2.79
-2.50 0.66 1.64
1.76 3.18 2.56
-4.86 -2.81 5.05
-3.89 1.28 -0.62
-3.26 3.56 -3.51
0.51 4.78 -1.21
2.07 2.06 4.66
2.39 6.45 -3.41
-4.02 1.42 -1.64
-6.12 -1.99 2.53
-1.15 2.27 0.92
-3.80 1.24 0.50
-2.92 1.31 -0.25
-0.26 1.59 4.44
2.20 3.48 2.50
-0.47 3.52 0.05
-4.56 2.03 -1.50
0.06 3.67 -1.77
2.90 6.24 -2.32
-3.93 -0.48 1.65
2.89 4.18 1.97
-3.81 0.89 -0.26
-5.81 -1.38 2.35
-1.20 2.41 0.45
1.22 4.62 -0.96
-1.45 3.26 -0.92
-0.04 5.09 -3.20
-1.38 1.68 2.19
-1.62 0.30 5.33
-4.46 0.63 -0.00
-0.63 0.24 4.91
0.35 4.24 -1.76
-5.63 -1.92 2.53
-4.88 1.21 -1.85
1.39 1.90 6.61
-2.34 -0.48 5.01
-4.90 0.14 -0.66
2.63 2.53 3.76
-1.07 2.89 0.31
0.88 1.24 4.59
-0.97 3.04 0.04
-2.65 0.46 1.35
-1.07 4.51 -4.62
0.87 2.75 2.70
0.37 4.32 -0.65
-1.82 0.08 3.85
-5.31 0.05 0.03
-2.60 2.87 -1.27
-2.34 2.01 0.36
0.15 2.83 2.24
-2.60 1.46 0.32
-1.49 3.74 -3.06
-3.75 -0.35 3.63
-0.76 -0.45 5.54
-1.97 3.38 -1.78
-1.38 2.12 1.06
0.92 5.39 -2.44
1.41 4.84 -0.84
-1.11 1.81 1.29
-0.39 3.49 -1.03
1.91 4.29 1.53
-1.26 2.92 0.21
-0.19 4.55 -2.76
2.81 5.22 0.98
-1.29 0.92 2.15
-0.67 2.71 0.45
-3.00 -0.11 3.30
-3.55 1.55 -2.02
-5.06 -1.77 4.69
-0.31 2.74 1.09
-5.33 1.02 -1.37
-0.85 2.29 1.38
-4.33 1.06 -1.12
-1.49 2.10 1.53
-3.33 0.95 0.01
-5.83 -1.42 1.59
-3.70 1.84 -2.30
-3.26 2.15 -2.44
0.59 5.06 -1.30
0.22 2.63 2.49
2.46 3.66 3.24
1.42 5.00 -0.46
0.52 0.74 6.14
2.24 2.83 4.17
-1.06 2.17 1.18
-3.31 -0.61 5.06
-1.72 4.24 -2.86
-2.70 1.96 0.41
1.39 5.01 -0.61
-0.74 2.43 1.51
-0.79 3.99 -1.85
-4.27 -0.19 0.26
-0.09 3.02 1.76
-3.45 -1.01 4.17
-4.54 0.13 1.20
0.56 3.42 0.17
0.93 4.39 0.04
-1.49 2.26 1.43
-0.07 3.15 -0.06
2.94 6.31 -1.81
-2.52 -0.32 4.17
-2.19 1.03 2.05
-2.82 -0.92 5.15
-3.98 2.69 -3.88
-1.01 2.67 0.36
1.44 2.26 4.20
2.82 5.18 0.40
1.10 2.77 2.67
-4.15 1.60 -2.32
1.04 1.62 5.80
2.68 3.36 2.33
-3.77 1.21 -1.02
-1.96 3.01 -1.63
-2.03 -1.01 5.61
-4.22 2.30 -2.82
-1.63 2.29 -0.19
-5.42 -2.42 5.22
-0.82 4.28 -2.15
-1.15 2.58 -0.04
-2.57 1.14 0.91
-0.19 2.01 2.54
2.84 3.97 1.38
-0.10 1.78 2.71
2.34 5.26 -0.42
-0.19 1.80 2.48
0.76 2.60 2.21
-0.71 2.28 0.14
-5.48 -2.11 3.46
1.27 2.48 3.57
1.33 3.02 3.49
-1.29 3.68 -2.64
2.78 4.56 1.40
0.98 1.72 4.07
-1.65 0.55 4.46
-3.09 1.31 -1.08
-3.31 -0.79 4.09
1.58 3.06 3.37
-3.46 -0.50 2.10
2.41 2.59 4.08
-1.54 2.67 -1.62
-1.09 1.19 2.46
0.99 1.57 4.86
-0.39 1.50 3.13
-5.36 -0.70 0.71
1.04 1.01 5.96
-2.17 2.99 -2.52
-5.36 0.42 -1.42
0.47 1.06 4.91
-3.34 2.16 -1.59
1.09 2.19 3.79
3.22 5.59 0.98
1.69 5.51 -2.06
-3.10 0.75 -0.33
-0.28 -0.10 6.31
-1.25 1.83 0.42
2.58 2.97 4.32
1.36 3.85 0.74
-2.94 0.11 1.45
-2.42 1.13 1.50
1.41 4.60 -1.30
-3.64 2.31 -2.68
-1.00 0.43 3.37
-2.49 0.71 1.24
-4.77 0.73 -0.19
-0.62 1.27 3.16
-0.92 -0.45 5.61
-1.07 2.16 1.71
-5.95 -1.85 1.70
-2.76 -1.27 5.45
0.12 3.77 -1.13
-1.49 2.00 1.10
0.45 5.46 -3.90
4.47 5.79 0.80
-2.21 3.39 -2.64
3.91 4.64 3.49
1.85 4.52 -0.08
2.05 4.58 -0.06
-4.63 -1.22 2.80
1.21 1.81 5.27
-0.92 1.94 1.79
-6.75 0.72 -2.59
-2.08 0.49 3.64
-3.31 -0.25 3.17
-5.96 -0.11 -0.83
-0.37 0.94 4.80
-5.57 -0.96 2.26
3.81 4.12 4.49
-3.94 -0.67 3.89
-6.90 0.05 -1.37
-0.74 3.01 -0.85
-4.11 0.98 -0.06
-3.87 2.53 -2.20
-1.82 1.95 -1.02
-0.48 2.97 -0.20
-2.39 2.18 -1.98
-0.78 2.28 2.45
2.06 4.56 0.66
-0.63 0.46 6.15
-1.70 2.10 -0.23
-3.52 0.79 -0.31
-0.86 1.29 3.27
-2.95 2.61 -1.67
-2.87 0.61 1.99
-3.11 0.45 1.15
2.03 4.03 -0.21
-3.86 -1.48 3.88
0.96 3.16 2.27
-1.56 -0.18 5.44
-1.80 3.09 -2.40
-0.30 5.03 -2.98
-1.14 3.19 -0.84
-4.24 0.12 0.92
-1.90 1.25 1.82
-3.08 1.89 0.13
1.39 1.87 4.26
-3.09 -0.14 3.54
0.29 1.34 4.35
-1.43 0.29 4.31
-0.49 3.04 -1.30
0.88 4.13 0.01
-3.26 2.70 -2.76
-0.20 2.59 0.03
-2.33 0.21 2.99
-0.13 4.82 -3.33
-1.97 3.78 -2.45
3.73 4.95 0.57
-4.69 1.46 -1.67
1.50 6.31 -3.42
-2.64 4.19 -4.95
-7.36 -0.35 -2.77
-3.05 -0.44 3.32
-0.68 3.00 0.68
-2.42 1.58 -0.05
-0.36 3.46 0.02
-1.32 1.01 4.25
-3.01 1.62 -1.83
-0.56 3.99 -2.09
-3.98 0.53 1.19
1.49 5.36 -2.64
-2.54 2.85 -3.03
-0.44 3.37 -1.13
1.40 1.26 5.67
1.79 4.29 -0.53
-4.50 1.04 -1.65
-0.73 4.24 -1.56
-4.62 -0.23 1.85
-1.87 4.26 -3.85
0.96 5.75 -2.76
-6.22 0.08 -2.34
1.25 4.91 -1.47
0.42 1.73 4.45
0.30 2.08 3.36
-3.30 3.07 -3.98
-4.51 -0.82 2.26
-4.99 -1.06 2.49
-3.37 1.34 0.33
0.96 3.54 0.39
-0.41 2.20 1.50
-0.66 1.02 5.07
-2.91 1.17 2.05
-4.10 -0.27 2.93
-5.36 1.49 -2.98
-0.35 1.56 3.76
-2.41 1.46 1.26
-4.67 -1.79 4.44
1.14 2.24 4.06
1.71 1.47 5.90
0.85 2.29 2.57
-0.59 3.30 0.12
-0.85 1.40 2.52
-1.47 2.08 0.43
-2.16 3.87 -3.47
0.35 2.86 1.16
-2.09 1.29 2.04
-2.92 0.77 1.87
-2.79 3.08 -2.73
-1.83 3.04 -0.19
-0.88 0.79 3.16
0.77 4.84 -0.97
-2.72 1.75 0.74
-4.79 -0.54 2.74
-3.90 1.89 -2.61
-1.00 2.08 1.76
1.93 4.43 0.29
-3.61 3.57 -5.20
3.36 5.18 -0.60
-1.00 2.65 -0.80
-0.84 0.65 5.12
-5.18 0.78 -1.84
1.96 4.81 0.71
-2.52 1.37 0.46
-3.12 -0.60 4.20
-5.33 -2.12 4.46
0.77 5.72 -3.27
-2.44 2.08 -0.89
-6.16 -1.34 1.71
-1.92 2.65 0.79
-1.02 0.97 3.55
-5.28 -0.58 1.62
3.08 6.18 -0.67
-1.71 0.43 3.61
-3.10 0.59 2.86
-0.39 4.30 -1.36
-1.68 4.63 -3.41
0.87 4.33 0.46
-2.78 1.04 1.33
0.47 2.73 3.25
2.98 4.21 2.83
2.08 2.47 4.95
-1.59 2.15 0.78
-7.33 -0.10 -1.94
-0.68 3.48 -2.52
0.87 4.79 -1.79
-4.93 -1.69 3.62
-0.29 2.49 1.23
0.41 5.00 -2.41
3.59 3.26 5.01
-5.06 1.86 -3.69
-2.04 2.36 -1.20
-2.65 1.63 0.27
-1.18 1.11 1.79
-2.54 3.27 -2.08
-4.95 -1.33 3.02
-4.70 1.72 -2.60
1.00 5.43 -3.29
-1.06 2.38 1.45
-1.95 -0.50 5.94
-2.97 3.44 -4.19
3.51 5.49 0.62
-7.26 -1.45 1.02
-1.60 4.41 -3.76
-3.86 2.65 -3.32
-0.03 0.28 6.47
0.92 1.75 4.93
-2.62 0.68 2.45
-3.07 -0.07 3.11
1.73 3.56 2.29
-0.46 1.28 3.95
-5.50 -0.84 1.66
-1.20 2.92 -0.85
-2.11 1.78 1.61
1.80 3.96 2.73
-2.08 1.22 1.82
-0.48 0.07 6.86
0.32 2.02 3.90
1.68 4.19 -0.63
0.13 2.23 2.93
-3.95 -2.07 4.89
-2.54 0.00 3.36
-3.26 -1.20 4.60
-3.32 -1.35 3.70
-4.13 2.35 -3.72
-4.83 -3.06 4.67
-3.78 1.11 -0.85
-1.21 0.82 3.94
1.19 5.25 -2.36
-0.04 1.18 3.89
-2.26 2.05 0.41
0.46 5.43 -3.46
0.40 2.29 3.08
-6.53 0.15 -3.15
0.83 6.37 -3.70
1.68 4.97 -1.98
-1.48 3.76 -2.29
-1.78 1.92 0.84
-2.03 0.61 1.90
-4.33 -1.51 4.38
-0.60 1.42 4.74
-4.05 -0.98 4.74
-2.37 0.99 2.84
1.56 3.05 4.04
0.55 4.00 0.14
-2.60 1.25 1.08
-5.04 0.32 0.12
-4.90 -1.64 4.76
-2.39 3.59 -2.11
0.64 4.01 -0.28
-3.12 0.55 1.74
0.03 1.87 2.13
-1.52 1.16 2.69
-0.74 3.51 -0.88
-5.34 -1.34 2.31
1.80 6.47 -2.89
0.40 4.42 -2.84
-4.97 -1.04 2.17
-2.20 3.50 -3.67
-1.05 2.14 1.07
-3.95 -0.78 3.02
0.58 4.21 0.17
-2.15 2.03 0.10
-4.08 1.79 -2.94
0.69 0.76 6.22
-2.66 1.36 -0.46
1.71 3.95 1.18
-2.50 2.54 -0.99
-3.86 -0.11 1.74
0.16 2.74 2.78
0.82 0.02 7.32
-2.76 2.04 -0.66
-1.56 0.51 2.48
-2.81 2.41 -2.69
-3.93 2.36 -3.76
-0.01 3.01 -0.08
-0.21 4.98 -3.51
-6.05 -2.80 5.18
0.62 4.71 -2.31
2.53 3.67 2.96
-1.74 3.91 -3.66
-5.81 0.10 -0.59
0.22 4.07 -2.37
-2.32 2.19 0.03
2.64 4.60 0.53
-4.93 -1.56 3.23
0.77 2.38 3.78
3.02 6.55 -2.19
-2.42 1.83 -0.31
-2.28 -0.59 5.84
0.49 3.69 -0.55
-1.35 0.84 5.04
-0.84 2.44 -0.00
-3.72 -1.00 2.74
-0.40 0.31 5.82
-4.06 1.94 -2.26
-0.72 4.07 -3.97
-2.47 2.38 -1.26
-5.50 -0.96 2.17
3.07 4.90 0.30
-4.82 0.49 -0.57
-3.31 -1.47 5.91
-4.21 -0.82 3.59
-0.27 0.89 4.26
1.00 4.79 -0.95
1.81 2.35 3.26
-2.73 3.12 -3.20
2.22 3.53 1.17
-2.59 2.26 -0.54
1.21 4.17 -0.30
3.11 6.33 -2.40
-2.31 2.70 -0.97
-2.75 0.38 2.14
-0.42 2.34 2.07
-6.02 1.09 -2.88
-3.27 -0.70 2.50
3.48 5.38 0.86
-6.46 -0.71 0.36
-0.33 1.36 2.41
0.09 2.45 2.20
-4.60 1.99 -3.90
-1.01 2.13 1.29
-2.28 0.45 2.14
-3.05 1.01 0.43
-2.50 2.30 -0.47
-1.24 1.78 2.38
-2.77 0.82 1.11
-1.26 1.37 2.42
-2.31 2.77 -1.61
-1.66 2.97 -0.70
-2.94 2.10 -0.34
-6.97 0.45 -2.98
0.22 3.29 0.85
-1.90 2.43 -1.16
-1.21 2.13 0.36
-5.88 -1.39 2.12
3.22 4.87 0.95
0.46 5.67 -3.77
-0.22 3.65 -0.48
1.78 5.53 -1.62
-0.24 4.71 -3.28
1.71 3.50 2.20
-4.78 -1.28 3.82
-3.25 0.91 0.48
-5.32 1.18 -1.71
1.69 2.59 3.96
-0.34 2.69 0.38
-2.55 1.61 0.41
-1.90 1.73 2.12
0.93 5.71 -3.46
0.52 1.86 3.07
-4.79 -2.78 5.57
-1.81 0.56 4.22
-2.47 1.89 1.08
-3.70 1.02 -0.28
-3.85 0.82 0.11
0.13 3.56 0.38
-1.87 1.31 2.04
-6.32 -1.77 1.66
-4.57 -2.51 4.86
-4.06 1.28 -1.45
-2.09 2.23 -0.21
-0.45 5.22 -3.23
2.44 2.93 3.96
3.21 5.15 0.13
-1.53 0.54 3.69
-6.22 0.19 -1.86
0.54 4.28 -1.24
1.08 4.77 -1.90
-4.52 0.61 0.02
-0.55 0.94 4.56
-4.06 0.53 0.64
-1.77 3.15 -1.79
-3.83 -0.25 2.05
-2.52 3.99 -4.24
-1.07 3.13 -0.31
-5.03 0.99 -2.13
1.05 1.29 4.96
-5.37 0.10 -0.31
1.21 1.94 4.02
-3.05 0.24 2.71
-1.56 3.51 -2.08
-0.57 4.12 -3.23
-4.74 0.01 0.57
-0.72 1.69 2.19
-1.64 0.75 3.46
-0.44 3.23 0.28
-0.85 0.70 5.97
-0.69 0.57 3.35
-3.38 0.99 1.57
-3.19 3.66 -3.68
-0.52 3.27 -1.62
-6.56 0.86 -2.78
-4.82 0.00 1.05
0.21 4.20 -1.56
0.73 3.51 0.36
0.17 2.48 2.77
-3.25 0.35 2.64
0.76 4.39 -1.27
0.85 1.49 5.81
-3.57 1.15 1.11
0.44 2.27 3.09
-5.23 -0.55 0.32
0.11 2.88 1.76
-0.53 3.88 -0.22
-0.67 0.86 3.63
-1.10 3.67 -2.45
-6.10 -1.80 1.82
3.75 4.19 4.22
-4.12 1.65 -1.71
-3.92 2.10 -1.89
0.31 4.71 -1.13
-3.15 1.32 0.16
0.66 3.05 1.51
-0.53 2.77 0.79
-0.59 4.19 -3.69
-4.49 -1.02 1.96
-4.13 -1.05 3.59
3.53 2.81 4.92
-0.09 3.67 0.24
-4.23 -1.26 3.76
0.66 2.97 2.06
-2.32 4.52 -4.32
-2.83 1.36 0.28
0.49 3.22 1.55
-2.52 1.87 -0.35
-3.31 0.28 1.84
-4.63 -1.66 3.80
-3.25 2.16 -2.19
-1.33 4.05 -2.00
-3.93 -0.04 2.48
-2.71 -0.03 3.15
1.57 2.21 3.83
-0.50 1.10 3.38
4.47 5.66 1.37
-4.77 2.72 -4.69
-2.43 1.73 1.34
-2.55 -0.71 4.11
-6.09 0.65 -1.56
1.29 1.75 4.93
-0.73 3.47 0.17
0.24 4.08 -0.01
-1.82 2.00 2.06
4.12 3.30 5.13
-2.58 0.20 3.52
-2.70 0.66 1.00
1.35 2.10 4.82
2.31 1.64 5.49
-5.30 0.59 0.34
-0.55 3.75 -0.88
0.67 4.25 -0.95
1.25 1.97 4.01
-0.80 4.66 -4.42
-2.27 -0.19 3.42
-2.08 1.87 0.07
1.27 1.86 4.12
-1.69 2.62 0.21
-4.83 0.44 0.08
-3.70 0.01 1.45
-3.24 0.80 0.76
1.31 1.80 4.55
1.64 1.97 4.40
-6.05 -1.04 -0.31
2.47 2.60 4.33
-1.32 0.65 3.39
-2.36 0.22 2.41
-0.56 3.82 -2.50
2.90 3.46 3.68
-1.00 3.00 0.02
-0.13 1.89 3.50
-2.54 1.54 1.31
-4.11 0.96 -1.47
1.70 2.13 5.45
-1.96 1.00 1.78
0.51 2.54 1.66
-1.90 -0.84 4.83
-2.02 1.66 -0.83
2.21 1.15 5.91
1.05 5.88 -2.07
-0.31 3.18 0.17
3.92 3.81 5.02
-3.85 0.83 0.09
0.66 4.26 -0.18
-4.38 1.40 -1.81
0.30 1.18 4.45
1.99 2.39 3.37
-0.38 3.89 -2.92
-6.60 -1.47 2.87
-3.64 1.91 -0.98
2.22 4.28 1.92
-0.01 3.75 0.16
-0.43 2.28 2.21
-5.61 -0.02 -0.29
-2.72 1.57 0.12
-2.03 1.51 2.18
1.70 1.09 5.78
-0.35 2.70 1.44
-3.11 -0.19 2.84
-3.93 -1.42 3.88
1.72 5.69 -3.25
2.02 4.16 0.13
-1.35 2.88 0.78
3.45 3.63 5.13
1.03 3.05 2.85
1.59 2.63 3.77
0.16 2.36 3.36
0.47 3.40 1.35
-0.11 0.73 5.70
-0.85 2.24 0.83
0.33 2.64 2.85
-0.27 1.17 5.29
-2.13 1.45 0.62
0.76 2.82 1.05
-2.95 -0.63 4.06
0.64 0.58 6.27
-2.60 0.28 1.74
3.75 3.27 5.55
0.65 2.21 3.56
-1.22 1.65 1.92
-2.25 1.70 0.37
-2.81 -1.66 5.86
1.60 6.51 -3.70
-0.73 4.38 -1.40
-3.25 -0.87 4.93
-3.68 -1.21 3.80
-5.85 -0.03 -1.07
-3.56 -0.38 2.73
0.56 1.94 2.87
0.50 5.24 -2.03
0.78 3.75 -0.72
-2.79 0.81 2.16
-1.51 1.63 1.17
-5.60 0.08 -1.57
-2.05 -0.26 4.42
-4.73 0.40 -0.44
-0.21 2.28 1.85
-6.05 -2.04 4.52
-2.41 4.31 -4.68
-3.56 -0.78 2.95
0.02 3.48 0.61
2.10 1.95 4.57
-6.04 -0.75 -0.38
-3.78 1.10 -0.35
0.86 4.94 -1.20
-0.52 1.48 3.38
-1.06 4.30 -3.80
-3.79 0.20 2.32
0.84 2.62 1.76
1.29 5.77 -2.87
-1.63 -0.76 5.23
1.20 2.08 4.92
-3.22 2.71 -2.43
-4.37 0.52 1.44
-2.21 -0.23 3.91
1.43 4.01 1.22
-2.83 2.89 -2.58
-4.83 0.58 -0.56
-3.83 -0.26 2.87
1.85 3.23 2.14
-6.01 0.57 -2.46
-4.27 2.41 -3.76
-1.52 1.15 2.18
-2.09 3.90 -3.85
-1.26 1.02 2.83
-0.75 4.79 -3.05
-5.56 1.56 -3.61
-0.74 4.58 -3.40
-0.11 1.50 5.50
-1.27 -0.05 4.04
0.07 1.50 5.21
2.54 3.02 5.59
-3.62 -0.21 3.95
2.49 2.75 4.30
-6.23 -2.04 2.70
-0.93 4.32 -2.93
-0.35 1.95 2.19
-1.64 1.20 2.73
-4.28 0.93 -0.83
0.96 4.00 0.00
-1.05 0.28 5.80
0.84 3.38 1.78
-3.07 -0.55 3.52
-0.66 1.40 4.23
1.12 4.32 -0.53
0.60 5.99 -4.07
1.75 2.56 2.70
1.12 2.48 4.36
-1.32 1.04 3.91
-1.22 4.46 -4.47
-0.05 2.27 2.62
-2.99 2.39 -1.13
2.09 5.48 -2.36
-1.99 1.17 2.29
-0.52 3.80 -0.88
2.98 4.50 0.76
-2.94 -1.52 5.33
-3.54 -0.59 2.34
-0.45 0.69 4.65
-3.02 2.53 -2.47
-3.30 0.52 2.03
-0.24 2.80 1.50
-3.11 2.90 -3.81
2.68 3.16 4.71
-2.27 2.50 -1.15
-0.76 0.29 5.92
-4.53 1.19 -3.02
-0.21 4.77 -3.74
0.33 3.62 -0.42
-0.09 3.70 -0.12
-3.97 0.55 1.95
-2.35 3.56 -2.67
-1.92 0.86 2.74
0.08 0.34 5.78
0.57 5.17 -3.39
-0.42 2.92 -0.57
-1.29 0.60 3.53
-1.29 4.59 -3.84
-2.74 -0.16 3.12
2.59 2.68 4.50
1.34 3.85 1.09
-1.04 3.92 -2.61
-0.16 4.09 -1.18
-2.51 -0.49 5.32
-5.12 0.72 -1.30
-0.65 2.35 -0.55
-5.79 0.35 -0.40
-5.84 -1.67 2.95
-0.75 1.32 2.37
-2.24 -0.85 4.37
3.36 3.08 3.89
-2.66 -0.08 4.12
1.26 4.57 -0.60
-2.82 0.86 2.31
3.79 3.94 3.56
3.36 5.27 2.05
-1.29 1.60 1.09
-6.20 -1.48 2.20
1.12 6.13 -2.90
-2.24 0.45 3.43
2.70 3.77 4.07
-2.86 1.24 0.97
-1.12 0.67 3.45
3.09 6.75 -2.16
0.51 4.87 -1.51
-2.61 1.22 1.42
-3.13 0.46 2.28
-3.53 3.30 -5.44
-0.20 2.68 1.44
-0.93 0.95 2.75
-4.33 -0.38 2.37
-2.73 3.67 -3.56
0.09 3.45 -0.20
0.78 1.68 4.57
1.43 1.83 5.51
-3.43 1.82 -1.53
2.28 3.38 3.38
2.11 3.34 3.08
-5.00 1.20 -2.61
-0.48 4.61 -2.59
3.96 6.54 -1.84
-5.23 -1.74 4.82
-1.51 1.88 1.59
-6.02 0.55 -2.68
-2.07 2.01 -0.24
-5.60 0.25 0.05
-1.65 4.58 -4.28
2.49 2.85 4.07
-4.27 1.14 -0.73
-1.59 4.53 -5.00
-1.76 1.90 0.53
-3.88 1.13 0.23
-0.75 2.79 -0.59
-1.75 3.76 -4.06
-6.23 0.26 -2.05
-1.14 1.58 2.19
-1.43 2.63 0.31
2.95 4.97 -0.50
-4.70 0.01 2.37
-1.91 3.77 -3.54
-0.14 3.55 -1.94
-0.10 3.17 -0.31
1.34 1.28 4.92
1.43 3.73 1.94
0.33 1.41 4.09
1.37 2.20 4.74
1.66 4.92 -2.64
-2.12 2.03 -0.41
0.63 4.02 -0.59
-6.53 -1.59 0.21
-6.06 -0.77 1.41
0.75 0.55 6.93
-4.61 -1.01 3.39
-3.11 -1.15 3.82
-2.74 3.26 -3.49
-1.16 3.08 -1.38
-4.19 -1.25 4.04
-5.79 -1.38 0.38
-2.58 3.06 -2.52
-1.01 2.74 -0.46
1.59 1.89 5.63
-2.16 2.51 -1.29
-0.32 -0.51 7.03
2.41 3.84 2.58
2.55 2.25 6.07
0.63 2.41 3.67
-3.95 -0.83 4.40
0.06 2.17 0.87
-2.26 0.76 3.31
0.79 3.62 1.71
2.30 6.76 -3.35
-1.74 2.19 0.84
-0.42 2.07 2.52
-3.92 1.21 -0.99
-2.90 2.42 -1.93
-4.94 -0.70 0.53
0.17 3.34 -0.01
0.67 3.18 1.86
-2.44 3.00 -2.68
-4.43 1.50 -2.80
-3.51 -0.89 2.93
-2.44 0.53 2.29
-4.95 0.05 0.79
1.73 4.01 0.96
1.01 5.85 -3.08
-4.07 1.64 -1.16
-0.99 1.79 3.49
0.50 3.44 0.23
1.19 1.52 5.11
-0.60 1.08 3.15
-3.69 0.75 1.58
-1.68 3.55 -3.28
3.96 2.78 5.53
1.17 1.60 5.60
-2.10 0.79 3.35
-4.27 -1.34 3.18
-1.55 1.59 -0.02
-6.40 -2.55 2.73
-5.64 -0.47 0.06
1.08 3.02 2.24
-0.11 4.38 -2.89
-1.00 4.17 -2.14
-2.67 1.33 1.36
-3.19 -0.26 2.28
-0.03 3.37 0.53
2.38 4.79 -0.34
-1.49 0.52 2.45
2.01 5.40 -2.01
-2.02 2.20 0.02
0.52 4.55 -1.56
-1.92 1.42 2.15
-4.84 0.23 -0.73
0.27 4.28 -0.04
2.74 5.56 -1.66
0.71 3.92 0.92
3.88 4.60 3.38
-2.35 0.06 2.52
-4.35 2.23 -2.40
-3.04 0.30 2.23
-0.20 3.30 0.35
-4.26 1.04 0.08
-4.91 -1.61 3.15
2.57 6.06 -1.76
-1.26 2.32 1.84
-2.78 1.69 -1.37
-4.41 2.85 -3.99
-6.35 -0.83 -1.06
1.50 1.73 5.39
-0.70 1.33 3.49
1.29 2.72 2.02
-3.72 0.09 1.72
-0.88 0.89 3.70
1.50 1.18 6.25
2.79 3.24 3.02
-5.10 2.07 -3.07
-0.16 4.40 -1.59
-2.13 1.61 -0.79
2.02 4.26 1.30
-5.30 -0.15 -0.67
2.07 5.16 -1.26
2.22 3.51 2.94
-2.85 0.31 3.57
-3.52 0.78 1.25
-3.23 2.08 -2.54
1.36 2.68 4.75
-3.22 1.04 0.41
0.58 3.08 0.41
1.61 2.58 3.92
-3.88 1.58 -0.81
0.37 2.51 1.36
2.22 5.37 -0.50
1.61 4.31 0.20
-6.11 -0.71 -0.11
-2.23 1.73 1.01
0.97 2.20 1.98
-2.77 0.37 2.53
0.86 2.77 2.88
1.80 5.20 -2.03
-0.84 1.31 3.59
-0.78 0.75 2.85
-0.95 0.17 3.79
-0.91 3.83 -2.53
-0.94 2.68 -0.04
-1.04 2.39 0.14
-5.50 -0.67 -0.24
-0.38 3.80 -1.02
