ply
format ascii 1.0
comment Made by Nomoko
element vertex 3000
property float x
property float y
property float z
end_header
-2.30 2.93 2.66
0.98 1.44 1.08
-2.80 2.57 2.86
-1.08 -3.06 1.38
1.14 -4.24 0.59
2.10 4.63 0.18
-0.85 0.90 1.63
-3.35 4.00 2.89
-0.34 -1.85 1.31
-1.52 -4.76 1.56
-2.03 -1.97 1.78
1.55 -3.55 0.35
0.54 -3.74 0.46
3.85 3.65 -0.15
-0.28 -0.17 1.30
2.98 1.48 -0.05
-2.07 -4.85 1.45
-2.59 -4.48 1.64
2.49 -0.03 -0.44
4.53 -3.67 -2.22
1.29 -3.86 0.18
0.82 2.49 1.08
1.97 -2.45 0.09
0.64 -0.16 1.25
-1.09 0.28 2.10
-0.09 0.39 1.11
-3.47 -2.53 2.70
-1.11 -4.43 1.14
4.29 0.92 -0.33
2.24 0.52 -0.08
1.04 3.95 0.61
-2.44 -2.40 2.01
-3.52 4.29 3.77
-1.74 0.07 2.29
-3.95 -2.14 2.85
-1.02 -2.09 1.05
2.08 0.43 -0.05
-1.75 -2.95 2.09
0.23 3.97 1.56
-1.46 -4.19 1.66
4.21 4.79 -0.54
1.01 2.92 1.66
0.08 -1.71 0.49
-2.05 2.79 2.37
-1.81 -3.79 1.76
-2.15 -1.27 2.41
5.09 1.54 -0.83
1.46 2.48 1.15
1.49 -3.57 -0.31
5.68 3.96 -1.16
5.19 3.03 -1.58
1.73 -4.18 -0.52
-0.30 -4.12 0.51
-1.52 -0.07 2.26
3.99 -5.45 -1.45
0.94 -1.02 0.71
-3.11 0.27 2.75
-2.26 -5.56 1.71
0.32 3.81 1.24
0.28 -4.29 0.96
4.86 -5.31 -1.64
3.06 2.00 -0.32
0.51 4.75 1.96
2.34 -2.44 -0.80
-1.36 -0.07 2.57
1.54 -1.84 -0.06
-1.60 -4.12 1.13
0.95 -0.52 0.42
-0.28 -1.94 1.19
-1.08 2.46 1.96
3.87 0.30 -0.94
0.31 -5.48 0.54
5.32 -4.92 -1.99
5.15 -3.28 -1.49
3.50 2.22 -0.36
-2.47 1.17 3.09
-1.55 0.65 2.31
0.39 -2.21 0.68
-4.68 -3.44 3.05
-3.50 -2.02 2.82
0.14 1.94 1.87
-3.60 2.98 3.30
-3.32 3.56 3.38
3.78 3.16 -0.49
4.49 -2.64 -1.29
-0.83 -2.22 1.55
-1.53 -2.25 2.23
-2.63 1.85 3.30
-1.04 4.13 1.91
1.14 2.29 1.27
1.46 -0.49 0.80
-3.99 4.73 4.08
3.36 -1.02 -0.75
-3.93 0.72 3.44
-1.25 2.07 2.62
-1.85 3.93 2.79
-1.24 0.24 2.01
2.22 -4.78 -0.40
2.07 2.87 0.26
2.19 -2.85 -0.81
-1.43 -3.31 1.54
-1.83 2.01 2.04
1.69 -1.43 0.70
-2.64 0.38 2.34
0.37 -2.37 1.03
5.86 4.84 -1.29
4.54 5.00 -0.47
0.09 1.85 1.24
3.54 2.19 -0.94
1.00 -3.35 0.93
3.06 -3.23 -0.98
-0.12 2.04 1.73
-0.42 -0.89 1.25
0.04 -1.96 1.12
4.25 1.70 -1.37
0.93 2.49 0.82
5.05 -4.71 -1.74
-0.06 2.88 1.75
2.33 -0.74 -0.23
-3.25 -3.98 2.86
2.82 -1.72 -0.57
4.00 -2.03 -1.24
-1.11 3.77 2.53
-0.63 0.80 1.43
-1.95 -0.59 2.57
0.47 -2.81 0.66
4.80 0.88 -1.57
-2.24 4.83 2.91
-0.52 4.20 1.66
2.75 0.74 -0.48
1.88 -0.06 0.50
-3.81 -4.32 3.10
-1.72 -5.44 1.43
-2.97 0.99 3.10
-2.44 -5.14 1.53
3.16 -4.34 -1.11
1.96 3.90 0.75
1.26 -3.16 -0.15
-2.14 1.94 2.17
0.58 -1.92 0.88
-3.71 -1.30 3.12
2.08 -4.94 -0.70
5.24 -3.16 -1.84
0.47 -1.83 0.84
1.59 -1.35 -0.29
-4.22 0.19 3.73
1.28 1.85 0.40
0.58 -1.30 0.43
-3.89 -0.07 2.66
2.66 -4.62 -0.39
1.76 0.36 0.38
1.47 -4.47 -0.23
0.18 -0.64 1.51
2.54 1.53 -0.22
3.19 4.21 -0.46
2.84 3.78 0.56
0.68 -1.97 0.87
4.25 -0.32 -1.37
4.10 3.36 -0.19
1.73 4.44 1.26
1.70 2.37 0.66
-4.09 -1.04 3.20
3.56 -0.56 -0.55
2.26 -2.00 -0.73
2.69 4.34 0.11
5.76 -0.33 -1.95
4.48 2.17 -1.15
-0.21 -1.28 1.02
-2.41 -3.02 2.09
0.46 -0.78 0.56
3.93 -3.97 -1.42
0.54 -2.42 0.94
-4.05 -1.95 2.94
-2.55 -1.53 1.96
-0.23 -0.18 1.03
-0.15 3.65 1.97
-3.67 -3.02 3.07
-2.46 2.73 2.70
1.30 -2.36 0.19
3.00 3.83 0.47
-0.36 4.64 2.15
-0.42 -4.49 1.05
-4.04 1.42 3.35
-0.33 -4.14 0.97
2.31 3.49 0.22
-2.85 2.46 2.96
-2.49 1.27 2.38
-0.19 -4.72 0.76
-3.21 -5.02 2.54
1.56 4.90 0.57
-2.46 -2.62 2.38
-0.60 0.96 1.42
1.32 -2.76 0.65
-2.79 5.54 3.18
1.27 -1.46 1.00
-2.52 1.16 3.09
3.52 -4.37 -0.81
-0.29 -4.07 1.18
-0.58 2.02 1.59
-3.26 -0.39 3.11
0.82 0.91 0.65
3.59 0.10 -0.21
5.60 2.37 -0.94
4.60 2.89 -0.27
-1.71 -2.54 1.95
1.39 -3.07 0.21
2.60 1.57 -0.15
0.75 4.41 1.81
0.41 -2.50 0.93
1.00 -3.80 -0.30
-3.90 -4.77 3.28
2.48 -3.17 -0.44
-2.75 1.77 2.28
-0.51 2.11 1.28
-0.79 -4.51 1.17
-0.69 3.72 1.73
2.58 -1.32 0.03
-1.82 -5.14 1.81
1.52 1.59 0.73
-0.44 2.40 1.55
-2.44 3.09 3.22
-1.08 2.52 2.32
-1.48 -1.50 2.00
1.18 4.69 0.92
-3.49 -0.33 3.27
-0.95 -0.03 1.71
-1.29 0.22 2.23
-0.89 2.36 1.72
2.81 1.06 -0.73
4.34 -3.87 -1.74
-1.77 -2.34 2.28
-1.21 -5.04 1.01
2.63 -4.62 -1.27
-0.80 3.55 2.17
1.46 -0.35 0.54
2.92 2.66 0.25
4.25 3.89 -0.67
-0.89 -0.39 2.01
0.45 3.08 1.18
-0.42 -0.28 0.91
-2.28 0.26 2.48
-1.72 -0.60 1.58
1.13 4.82 1.05
2.09 2.40 0.25
0.64 -0.61 0.33
0.17 -0.46 1.40
-0.90 0.59 1.53
-3.55 3.04 3.80
1.69 0.94 0.80
-1.50 -1.24 2.42
-2.68 3.59 3.52
-2.84 1.51 2.72
1.58 -3.63 0.16
-3.99 -2.81 3.07
3.04 -3.20 -0.19
-1.35 -1.13 1.28
5.14 -0.05 -1.17
0.76 -4.58 0.26
0.36 1.63 1.19
-0.87 -0.08 1.50
4.51 1.95 -0.67
1.85 -2.17 -0.42
-0.08 1.10 1.67
1.73 -4.56 -0.83
-0.22 -4.39 0.73
-1.64 -4.30 1.41
-1.30 -3.68 1.67
3.13 5.15 0.29
0.74 2.42 0.85
5.60 2.70 -1.31
1.63 -1.84 0.68
3.18 2.58 -0.01
2.35 4.26 0.04
-0.24 -2.14 0.51
-1.03 -1.27 1.49
2.91 3.42 0.23
-1.10 -0.47 1.80
-3.51 -4.43 2.44
1.17 -3.64 -0.34
-2.58 -5.14 2.27
2.89 -2.00 -0.34
-3.83 -1.82 3.19
1.45 -0.79 0.25
-0.39 2.34 1.86
-2.92 3.43 3.05
3.52 1.95 -0.42
-3.80 -1.13 2.93
0.96 4.44 1.24
-1.44 3.12 2.57
-0.24 -5.65 0.79
-2.81 -0.26 2.09
1.60 -3.93 -0.28
1.57 2.39 0.71
2.90 4.09 -0.19
2.78 2.92 0.44
-2.22 5.00 2.39
-1.14 -5.50 0.45
1.38 3.68 0.46
1.35 -0.26 0.33
4.04 -4.93 -1.29
0.19 -3.96 0.48
2.35 -0.47 0.18
-4.57 -2.82 3.27
2.43 -3.78 -0.35
-4.07 1.22 3.47
0.22 3.09 1.24
-3.86 4.41 3.78
-4.49 2.12 3.71
6.19 0.14 -1.92
-2.05 -3.61 1.81
-1.19 -3.33 1.18
-0.59 -3.21 0.98
-0.87 1.19 1.59
0.50 -2.71 0.07
3.68 -2.95 -1.41
-3.38 1.69 2.87
3.47 -0.51 -0.85
-1.77 1.89 2.88
3.33 0.54 -0.42
-1.56 3.94 1.85
-1.05 -0.95 0.92
-0.53 0.32 1.08
-0.72 -1.51 1.09
3.47 -4.92 -1.04
-1.95 4.33 2.40
2.24 1.40 0.24
-3.16 0.87 2.96
-1.06 -4.41 1.26
0.57 -3.88 0.69
0.83 2.34 1.12
0.96 0.04 0.55
0.19 1.10 1.34
-2.78 0.78 2.35
-3.08 4.86 3.76
2.10 -0.51 -0.18
4.80 0.39 -0.96
-0.03 -0.44 0.89
-2.84 1.52 3.20
-0.36 -2.32 0.97
0.12 -4.34 0.50
0.84 1.81 0.79
1.63 3.21 0.64
0.55 -4.24 -0.08
0.25 -3.15 0.72
-0.64 1.05 1.42
-2.39 0.05 2.81
2.32 -1.33 -0.58
-0.36 -4.65 0.76
-0.15 -1.27 1.04
1.10 2.06 1.52
-3.62 -2.22 3.38
1.98 3.92 0.68
4.13 2.10 -0.67
1.98 3.93 0.62
0.03 -2.52 1.01
-2.22 -0.81 2.07
3.37 -2.68 -1.42
2.05 3.28 0.62
-1.80 -2.43 2.35
-1.95 -4.55 1.01
-0.67 1.34 1.31
2.49 -0.64 0.08
-1.67 -3.18 1.11
-2.76 2.84 3.17
2.07 1.08 0.33
-4.18 -1.59 3.41
-2.29 2.73 3.16
0.39 -2.78 1.17
0.69 -0.85 0.06
3.04 -3.53 -0.54
4.22 4.16 -0.90
-4.73 0.38 3.78
-4.47 -2.75 2.85
3.27 3.49 -0.47
-3.73 -3.05 2.50
4.49 1.11 -1.20
-0.74 0.77 1.55
2.52 1.24 0.25
0.93 2.11 0.98
2.91 -0.02 -0.05
5.35 3.51 -0.93
2.93 -0.72 -0.23
0.48 1.47 1.11
-2.19 -5.21 1.19
0.19 -1.66 0.62
0.11 -1.24 0.98
4.53 -1.57 -1.33
-4.58 4.55 3.59
-1.96 -4.74 1.15
6.07 0.43 -2.18
-0.30 -0.17 1.74
3.87 3.00 0.15
2.20 -3.81 -0.64
-1.32 4.08 1.90
0.10 2.22 1.16
2.06 -3.06 0.08
0.59 0.58 0.59
1.87 3.29 0.17
3.64 3.17 0.12
-0.12 0.50 1.58
4.41 1.41 -0.86
1.57 1.90 0.69
-1.90 3.34 2.25
-0.28 1.89 1.50
-0.49 2.04 1.60
-0.45 -4.51 1.16
-2.69 -0.83 3.09
2.95 2.09 -0.12
-3.33 -1.65 2.92
-5.08 -1.21 3.32
4.43 -0.64 -1.12
0.83 -1.30 0.20
-0.40 -4.49 0.91
0.31 -1.68 0.87
2.43 -2.90 -0.56
-3.93 2.14 3.37
-4.83 -2.70 3.53
0.99 4.15 0.75
0.94 3.11 0.85
0.31 0.21 1.19
5.24 -2.02 -1.96
-0.16 2.41 2.02
3.36 3.63 0.32
3.25 1.47 -0.59
5.28 1.86 -1.34
-2.28 -3.62 2.03
3.10 3.50 -0.19
-3.11 3.72 3.37
4.46 -2.68 -0.93
3.11 2.51 -0.24
-0.96 -2.24 1.04
-2.03 1.07 2.93
1.59 -2.00 -0.26
-1.62 -1.27 1.95
-0.51 2.66 1.78
-0.27 -2.99 0.82
-3.02 -1.06 2.65
0.38 -1.12 1.05
0.71 -3.60 0.04
0.33 4.54 1.25
-2.89 -0.94 2.59
2.83 -3.21 -0.81
-1.81 3.84 3.03
2.93 4.30 0.13
2.39 -4.15 -0.35
-2.82 -0.80 2.48
-1.31 -1.20 1.86
-0.13 1.73 1.63
-2.22 -1.10 2.27
2.00 -3.67 -0.74
-2.60 -2.54 2.61
-5.34 -0.51 4.19
-2.44 4.21 2.58
2.16 -4.84 -0.82
5.32 0.81 -1.19
1.30 -1.49 0.41
3.88 3.27 -0.50
-1.52 -1.50 1.55
-1.42 -3.05 1.65
3.65 1.03 -0.69
-3.32 -3.24 2.47
-4.23 3.34 3.58
-0.31 2.76 1.12
-3.84 -0.05 3.16
-0.41 4.91 2.00
0.61 1.38 0.90
-4.68 -4.95 3.24
3.22 4.05 0.10
5.16 -3.63 -2.00
3.96 1.83 -1.08
1.70 1.60 -0.06
-1.30 -3.56 0.90
3.75 -0.38 -0.34
2.68 -0.89 -0.64
-0.14 4.79 2.14
5.28 3.63 -1.36
2.11 4.34 0.54
-1.21 -4.14 0.91
1.45 -2.30 0.15
3.50 -3.76 -0.93
3.40 -3.59 -1.55
-2.24 4.24 2.47
-2.37 -0.08 2.59
2.65 2.44 0.37
-0.09 2.63 2.09
3.38 -4.78 -1.40
5.84 1.00 -1.32
0.13 -2.47 0.59
4.57 -1.92 -1.57
0.13 -2.36 0.41
3.86 -0.11 -0.45
2.60 2.75 -0.24
1.40 4.35 1.10
-1.11 3.01 1.96
1.61 1.57 0.75
1.19 1.24 0.69
-1.65 3.08 2.78
-1.41 5.26 2.77
3.21 -0.46 -0.43
-2.27 0.20 2.73
-1.26 3.44 1.80
-0.23 -4.24 0.89
0.77 -3.40 0.45
5.23 2.33 -1.53
2.32 3.60 0.49
1.09 -3.34 0.58
2.32 0.37 0.42
1.20 0.02 0.82
3.99 2.07 -0.55
-1.52 -4.69 1.54
2.03 -1.29 -0.27
-0.82 -4.12 0.90
-3.70 -2.32 2.64
1.09 2.68 0.75
1.02 -3.16 -0.10
2.32 -1.80 -0.39
2.04 -2.33 -0.27
2.79 -4.70 -1.14
3.11 -3.52 -0.30
-4.01 -2.54 3.56
-2.07 -2.02 2.40
-1.61 0.82 1.55
-2.10 -1.31 2.10
-5.03 1.31 3.89
2.40 -4.16 -0.09
-1.91 2.64 2.79
-4.68 -4.34 3.46
4.15 2.55 -0.62
3.03 1.56 -0.46
0.17 0.41 1.01
2.26 4.12 0.77
-2.30 -2.48 2.61
-3.77 -1.42 3.45
2.35 -2.07 -0.08
3.41 -4.12 -0.98
-0.35 2.86 1.95
2.07 5.65 0.96
-0.33 -0.50 0.88
-2.77 4.37 3.59
-1.67 2.97 1.92
0.60 2.92 1.12
-1.01 -3.04 0.86
-0.14 3.46 1.31
3.26 -2.26 -1.37
1.74 -1.84 -0.46
0.60 -0.77 0.91
1.22 -2.25 0.07
-3.53 1.64 3.32
0.11 -2.24 1.03
-3.14 3.59 3.60
0.52 -3.74 0.43
0.99 3.10 1.56
-0.08 2.15 1.78
0.64 3.93 1.57
5.36 -1.54 -1.38
0.05 -0.92 0.41
-2.60 -4.38 2.04
0.38 1.08 0.71
-0.34 -1.50 0.73
2.73 -4.19 -0.98
0.72 -4.69 -0.09
4.55 2.40 -0.33
-0.90 3.61 2.40
1.33 1.13 0.29
4.85 1.10 -0.86
-0.26 -2.53 1.38
4.40 -5.14 -1.21
-2.61 1.96 2.73
-0.21 -1.40 1.21
2.39 3.87 0.29
2.10 -3.13 -0.21
1.91 -4.59 -0.62
-1.26 2.02 2.06
0.58 1.86 1.35
3.10 2.72 -0.30
3.54 -1.98 -0.76
-4.32 -2.80 2.99
3.25 0.66 -0.40
3.22 -4.61 -1.31
1.44 -0.13 -0.30
-2.94 -3.82 2.12
-3.49 0.74 2.71
2.27 3.11 -0.02
0.46 3.85 1.21
-3.01 -1.41 3.00
0.04 -0.14 1.51
-3.96 -2.54 3.26
-2.31 -4.53 2.24
-0.28 -3.73 1.27
-3.66 -4.49 2.05
1.63 0.96 0.71
-2.84 0.13 3.06
-0.10 0.45 1.42
-2.25 3.29 2.89
0.23 -0.95 0.43
-1.17 -0.62 1.98
0.65 2.09 0.91
0.16 0.84 1.24
-0.75 -3.78 0.89
-0.95 2.19 1.57
5.08 0.72 -0.99
-4.99 -2.74 3.47
3.10 1.69 -0.56
-1.34 1.61 2.76
-2.68 2.84 2.90
-0.45 -3.85 1.18
0.45 1.08 1.42
-1.04 2.18 2.44
-1.70 1.47 2.65
2.09 -0.03 -0.33
-0.55 -2.79 1.32
0.46 -2.82 0.71
-4.53 -4.45 2.37
-1.78 2.85 2.51
0.87 -0.21 0.74
-0.74 2.53 2.22
1.19 -2.83 0.71
0.39 0.93 0.75
0.68 -4.42 0.23
-3.14 3.93 2.82
-0.64 1.47 1.33
-2.44 3.29 3.20
-3.45 3.32 3.20
-0.76 -3.12 0.92
-1.16 -0.09 1.87
3.18 -5.15 -0.95
-3.63 -2.91 2.99
2.10 3.26 0.91
-1.89 -0.46 2.80
1.04 -1.42 -0.02
-1.91 -2.08 1.89
-2.30 3.92 3.16
-0.12 -3.76 0.63
3.03 3.27 -0.49
-1.05 2.55 2.13
-0.69 1.05 1.20
2.62 1.87 0.12
-1.06 -4.48 1.49
-1.25 -3.45 0.78
2.11 2.00 0.00
1.36 0.89 0.52
-3.53 -3.71 3.20
-4.57 -2.92 3.46
0.02 -2.06 0.33
2.72 2.32 -0.30
0.10 1.21 1.77
0.48 -2.33 0.89
0.65 -4.82 0.51
2.80 -1.02 0.13
1.06 0.15 1.21
3.15 3.84 0.13
3.15 -0.25 -0.14
-4.64 -2.07 3.50
3.48 0.91 -0.54
-2.52 -3.10 2.33
3.10 -4.07 -0.67
1.46 -3.31 -0.09
-3.96 3.42 3.55
-3.37 0.49 2.92
-3.23 2.77 3.15
3.51 3.91 -0.27
-0.53 -2.03 1.64
-2.06 1.82 2.36
3.95 0.59 -0.56
6.49 -1.15 -2.32
1.88 -4.69 -0.47
1.96 -4.97 0.00
3.82 -3.30 -0.93
0.98 -3.69 0.12
1.51 1.64 0.31
-2.95 2.66 3.52
-1.65 1.39 2.03
1.41 3.72 0.93
0.62 -4.90 0.30
1.52 -5.02 -0.63
-0.30 4.81 2.12
2.44 -1.08 0.29
1.17 -3.22 0.19
-1.85 -3.50 1.48
-2.95 -1.67 2.61
-0.20 -0.18 1.27
2.27 3.89 0.15
1.14 3.13 0.88
-0.13 0.89 1.41
3.58 0.56 -0.02
-3.62 3.57 3.83
-1.71 -1.44 1.82
-1.02 -1.78 1.41
1.26 -1.15 1.03
0.02 -2.82 1.27
2.77 2.82 -0.18
2.40 -4.55 -0.81
-1.00 2.16 2.46
4.40 2.39 -0.99
3.01 1.21 -0.73
4.19 4.59 -0.08
-1.19 0.21 1.51
3.08 -3.54 -0.71
-4.72 -3.27 3.44
1.95 1.01 -0.20
-1.01 -1.80 2.07
-2.31 -0.02 1.97
-2.04 0.74 2.63
-0.09 -0.47 0.94
4.15 -4.27 -1.29
-0.64 -4.87 0.74
1.98 4.47 1.01
-0.94 3.32 2.10
-1.85 0.06 2.73
-0.87 2.06 2.20
3.18 4.05 -0.48
1.99 -4.81 -0.46
2.01 3.90 -0.02
5.22 -3.13 -1.75
0.74 1.88 0.93
4.08 -4.44 -1.57
-3.75 3.46 3.66
-2.26 -3.18 1.70
-3.55 -1.07 2.93
-4.61 -0.91 3.89
-1.70 -2.48 1.75
2.31 -2.20 -0.38
-2.71 -1.21 2.64
-1.52 0.93 2.52
2.63 1.56 0.07
-3.09 4.72 3.13
2.63 -4.87 -1.12
1.35 4.60 1.43
6.76 4.33 -1.30
-1.00 -5.78 1.39
4.48 3.58 -0.72
-1.45 -3.16 1.42
1.45 -0.35 0.73
1.52 1.46 0.32
0.85 -3.62 0.38
-0.16 -1.69 1.18
0.83 4.16 1.92
0.92 -3.44 0.14
-2.15 -1.01 1.69
-2.42 -4.12 2.26
-0.18 1.02 1.42
-0.94 4.79 2.12
-1.88 -2.31 2.13
1.42 -2.05 0.76
-1.05 2.95 1.95
0.29 1.11 0.70
1.06 3.96 0.63
2.46 3.05 -0.03
-0.11 -4.32 1.10
-3.71 1.92 3.17
2.74 -1.02 -0.77
3.70 0.39 -0.29
2.72 3.02 -0.39
1.74 -0.99 0.59
-0.33 -0.68 0.77
0.48 0.74 1.45
0.44 -1.48 0.80
2.21 3.56 0.97
-1.47 4.38 1.93
4.42 -1.22 -1.95
1.11 -2.52 0.01
4.64 -4.11 -1.70
5.35 4.54 -1.28
4.17 -4.97 -1.78
-1.62 1.06 2.44
-1.89 3.58 2.92
-0.76 4.88 2.35
3.11 -3.28 -0.84
1.90 -3.11 -0.59
3.47 -0.40 -0.81
0.59 -3.85 0.70
2.89 2.70 -0.31
-0.11 4.01 2.04
-0.88 2.82 2.46
1.59 4.34 1.05
4.49 3.46 -0.43
4.01 -3.17 -1.05
1.92 -4.20 -0.02
1.43 -2.06 0.53
3.07 1.51 0.17
-3.76 -0.27 2.98
4.31 -4.14 -1.14
0.63 -1.70 0.69
3.13 4.07 -0.14
-1.84 -4.92 1.81
-0.57 -3.42 0.76
2.16 4.87 0.94
2.60 -0.97 -0.53
-1.88 2.41 1.98
1.46 -0.16 -0.06
-2.88 2.38 2.69
4.15 -1.45 -1.10
-4.03 1.74 3.33
-4.02 -4.29 2.96
-3.03 -2.73 2.37
5.49 -1.81 -1.84
-1.11 -1.57 1.16
-2.31 1.69 2.93
2.10 3.55 0.52
2.19 -0.42 -0.25
0.74 2.72 0.88
1.11 -3.73 0.44
0.84 3.80 1.69
2.24 3.46 0.50
1.72 3.47 0.92
0.97 3.80 0.67
-2.38 2.21 2.56
4.87 -1.63 -1.58
2.60 4.83 -0.01
-2.71 -3.65 1.95
3.81 -1.91 -1.32
3.71 -1.47 -1.05
0.86 -1.45 0.61
2.54 4.19 0.57
5.43 -4.16 -2.21
1.57 0.89 0.88
3.53 4.14 -0.40
-1.96 1.24 2.19
-1.66 -2.16 1.81
2.36 -0.51 0.02
-1.78 4.09 1.96
-2.04 -3.03 1.41
5.16 -1.00 -1.47
-1.15 -3.54 0.84
-0.04 3.14 1.64
-1.89 -1.76 2.19
0.86 2.27 0.46
-0.79 -4.30 1.05
2.38 -4.16 -0.46
-2.25 0.85 2.95
-1.14 0.83 1.80
3.56 2.22 0.23
-1.33 -4.05 1.07
-1.01 1.04 1.44
-1.83 3.85 2.81
5.36 -2.33 -2.18
0.02 -4.61 0.33
0.06 -0.06 1.41
-1.09 -4.97 1.08
1.60 4.45 0.90
1.59 1.22 0.25
-1.83 -5.11 1.34
-3.79 2.56 3.25
0.56 -3.61 0.53
5.95 2.99 -1.80
0.84 0.92 1.03
-0.83 2.38 2.54
0.09 -0.33 1.24
2.20 -0.28 0.09
4.46 3.29 -0.64
1.66 5.38 0.67
-0.14 -0.73 1.16
0.15 1.24 1.33
3.99 -1.30 -0.67
-2.09 2.10 2.01
0.65 3.85 1.14
-3.66 -3.29 2.62
3.38 -1.82 -0.43
3.83 -3.19 -1.79
1.20 2.86 0.94
-2.54 -3.77 2.29
1.47 3.79 0.94
1.35 -3.31 0.00
4.01 1.20 -0.38
1.79 -0.87 -0.02
0.33 3.44 1.24
1.58 -1.28 0.37
5.92 0.15 -1.76
1.87 2.23 0.63
0.68 -4.41 -0.11
1.31 -2.95 0.22
3.73 -0.30 -0.71
2.51 3.45 0.36
-2.55 -4.89 1.25
-1.18 0.03 2.41
0.70 0.38 0.82
4.45 -2.52 -0.84
-3.01 5.07 3.47
2.19 -1.55 -0.26
-1.75 4.95 2.76
-2.46 -3.46 1.39
-0.67 -2.78 1.56
-1.70 0.67 1.77
-0.27 -0.47 1.17
3.98 -0.08 -0.95
-2.94 -1.93 2.75
5.45 -1.17 -1.69
-1.19 1.84 1.37
-1.17 5.59 2.16
-1.47 -0.15 2.28
-2.67 2.76 3.10
6.06 -0.88 -2.10
2.46 -3.01 -0.03
0.19 4.32 1.73
0.94 0.03 0.79
3.98 -4.78 -1.14
5.15 2.06 -1.72
3.44 0.39 -0.28
-2.77 2.67 2.73
1.99 2.99 0.78
2.97 3.69 0.39
3.20 2.37 0.43
-1.13 -0.83 1.38
2.00 4.65 0.75
-0.55 -1.31 1.74
2.30 -1.78 -0.08
3.80 1.35 -0.87
-0.46 1.82 1.57
1.64 -2.45 -0.21
4.67 -2.15 -1.43
4.70 4.22 -1.20
-0.79 3.42 2.58
0.96 -1.99 0.00
0.70 -0.48 0.77
-2.21 -3.86 1.23
4.39 -0.44 -1.21
-0.62 0.92 1.21
-1.90 3.26 3.06
-2.56 3.12 2.75
3.17 3.81 -0.54
3.51 1.38 -0.52
-4.48 -0.10 3.73
1.11 2.97 1.21
0.69 -3.03 0.78
3.72 3.06 0.22
-2.42 3.79 2.76
4.30 5.23 -0.54
-0.20 -1.06 0.87
-2.01 -0.67 1.95
-1.70 1.83 2.50
0.33 -0.31 0.85
-3.47 4.24 3.23
3.73 1.31 -1.13
-3.28 -1.37 2.22
-3.97 -2.19 3.38
5.43 -1.29 -1.89
3.34 3.08 0.33
-2.57 2.84 3.48
1.84 1.82 0.01
3.30 2.90 -0.73
3.89 -1.27 -0.87
0.66 0.73 1.00
-2.02 2.02 2.28
-1.40 -2.80 1.90
-1.63 1.99 1.65
-1.12 -4.99 0.93
2.68 -4.89 -1.11
-0.08 3.04 1.42
2.40 -4.58 -0.26
3.36 3.87 -0.17
-2.14 0.85 2.85
0.07 -3.32 0.17
-1.06 -3.10 0.93
-0.11 -3.50 0.51
0.02 2.16 1.02
-2.62 -1.40 2.32
-2.58 4.09 3.23
4.52 -0.23 -0.89
-1.19 -4.56 1.80
-0.06 1.66 1.34
2.44 3.81 0.02
-0.48 3.02 1.85
6.17 0.71 -1.44
-0.02 1.81 1.48
1.13 -4.57 -0.15
0.92 -2.56 0.12
-1.38 -2.65 1.92
2.38 4.25 0.42
2.04 -3.89 -0.19
1.55 -2.80 -0.43
2.08 3.57 0.92
-1.12 3.55 1.96
3.16 -3.95 -0.63
-1.93 1.13 1.77
3.66 -2.27 -1.45
-1.25 1.04 1.25
3.71 3.12 0.25
1.29 -3.39 0.40
1.11 -0.85 0.68
-1.34 2.78 2.46
3.56 4.12 0.18
-2.35 1.63 2.02
1.39 5.06 0.65
2.64 -1.85 -0.65
-0.50 -4.27 1.01
-0.43 -4.53 0.77
0.63 -4.71 0.60
4.62 -1.50 -1.84
0.14 2.92 2.02
0.85 4.11 0.77
0.52 -0.96 0.87
2.98 4.05 -0.20
-1.55 1.49 2.22
0.88 0.92 0.35
-2.94 1.45 2.88
5.22 1.07 -0.97
-2.87 2.68 3.26
-0.42 4.78 1.88
3.25 -4.99 -1.31
-4.30 -4.33 2.53
-3.72 2.35 0.76
-3.82 -1.27 5.08
-0.99 2.97 3.70
-1.28 -0.15 6.52
-2.12 3.05 0.57
1.47 7.45 -0.93
-4.49 2.28 -0.23
-4.96 -0.73 3.93
-4.31 -0.56 4.29
-1.77 4.12 1.23
-4.49 -0.84 3.13
-1.68 3.68 0.30
-0.22 1.95 5.40
-6.86 0.62 0.75
-2.29 2.87 1.95
-5.31 2.96 -1.42
-5.36 -1.38 4.28
-5.23 3.29 -1.93
-2.42 1.41 2.66
-4.90 1.84 0.95
-1.11 1.16 4.99
-0.25 3.64 3.30
-0.00 3.22 3.54
-2.66 3.96 -0.85
-2.27 0.45 4.68
1.25 3.96 3.83
-1.75 4.42 -0.27
-0.23 1.02 5.52
-0.10 1.67 5.04
-0.61 1.92 5.32
0.79 5.33 1.59
0.57 2.30 5.42
-0.23 4.03 2.25
-3.06 4.52 -1.54
-0.60 4.54 1.15
-4.92 4.36 -3.60
-6.36 0.80 1.29
-5.35 3.92 -2.89
-1.14 2.27 3.67
0.86 3.35 4.02
-4.49 0.10 2.13
-6.95 2.43 -2.49
-3.67 3.83 -0.82
1.69 5.12 3.18
-0.27 2.08 4.37
-1.17 1.83 4.32
1.42 5.14 2.70
-2.59 1.93 3.04
-2.33 1.42 3.25
-5.02 0.71 0.84
-5.43 2.17 -1.14
-0.43 2.08 5.02
-7.04 -0.66 0.64
-3.50 1.07 2.95
-2.67 -1.42 7.20
-2.41 1.86 2.98
-6.71 0.29 0.37
-3.93 -1.50 5.52
-1.39 3.95 1.74
3.05 5.37 4.74
-1.35 -0.43 7.05
-4.92 1.43 0.71
-0.33 2.22 4.48
-5.66 -2.56 5.47
2.83 4.43 4.28
3.64 5.67 3.39
-3.97 1.25 1.84
0.09 0.55 7.95
3.31 4.33 4.46
-5.80 3.03 -2.78
-4.13 2.86 0.07
-1.10 3.47 1.44
-3.22 1.88 2.16
-5.33 0.57 1.72
-2.00 3.34 0.96
-0.32 4.42 2.96
-6.04 2.00 -1.09
-1.26 2.91 1.48
-2.74 4.28 -1.30
-1.44 2.60 2.68
-0.80 4.34 1.08
-1.77 5.86 -1.73
-1.55 -0.43 7.13
-4.92 2.55 -0.83
-0.46 3.03 3.56
-5.00 0.14 2.84
-6.14 -1.31 3.13
-5.27 -2.05 4.99
-0.88 -0.15 5.89
-4.31 -0.22 3.73
1.06 6.09 0.29
-0.95 5.05 -0.67
-0.41 3.84 2.87
-0.64 2.66 3.01
-1.33 4.42 -0.14
0.15 0.88 7.82
-3.83 2.74 0.18
-1.87 4.15 0.36
-0.79 2.92 2.68
-0.07 7.40 -1.33
-1.84 6.08 -1.55
-2.64 1.83 1.40
-3.57 4.98 -3.73
-0.67 4.55 0.89
0.77 3.34 4.18
-2.96 1.31 3.53
-5.79 -0.65 2.01
-1.60 2.83 2.75
-5.26 0.22 2.62
-2.72 3.13 0.26
-1.86 5.63 -1.50
-4.50 -1.21 5.23
-0.27 2.39 4.53
-4.24 3.39 -0.74
-6.44 -2.66 4.40
-1.54 2.45 2.62
-3.58 0.76 2.21
-3.64 3.02 -0.03
-3.86 0.51 3.44
-4.48 4.52 -2.62
-0.23 1.93 5.57
-3.58 0.94 2.20
-5.01 0.58 2.02
-5.15 0.67 1.75
3.17 6.26 2.79
-6.15 3.68 -2.72
-2.45 6.20 -1.87
-4.61 -0.40 3.08
1.08 4.69 2.21
-0.25 5.01 1.48
-5.73 0.99 0.42
-4.51 1.69 0.25
0.53 3.10 5.71
-3.18 3.07 0.23
-3.91 0.59 2.71
-0.71 4.52 0.78
-0.66 6.66 -1.55
-6.66 -0.11 1.88
2.14 6.57 0.09
-0.71 6.74 -1.14
-4.02 2.08 1.73
-0.36 2.29 5.19
-1.60 5.64 -0.21
1.33 2.24 5.74
-1.95 1.74 3.88
-1.46 1.93 4.07
-3.58 -1.56 5.81
-1.37 2.60 2.41
-2.38 4.89 -1.87
-6.67 0.57 0.22
-0.71 3.77 1.85
-0.15 3.17 2.41
-5.42 -2.82 5.12
-5.70 2.23 -0.75
1.19 4.16 3.21
-4.10 2.79 -0.10
-5.67 1.34 0.15
-3.24 -0.68 5.60
-3.78 2.01 1.45
-3.87 2.11 1.03
0.84 3.77 3.42
-6.26 0.57 1.34
-2.47 1.10 4.08
-3.40 5.61 -2.93
-1.76 4.88 -0.46
-1.41 4.28 -0.19
1.15 5.28 2.41
-4.16 2.42 0.02
-6.52 -0.10 0.91
-0.16 4.10 2.29
-4.18 2.96 -0.29
-1.74 1.10 4.74
-3.68 4.25 -1.83
-0.34 4.71 0.77
0.89 5.27 2.06
0.16 4.36 3.08
0.97 4.83 2.15
-0.51 4.56 0.82
-3.80 1.27 2.79
-3.59 1.45 2.34
-6.95 1.06 -0.56
-5.54 1.80 0.00
0.65 2.64 4.93
-3.16 2.51 0.35
-0.53 5.76 -0.10
-1.51 0.45 4.82
-5.22 1.74 -0.16
-1.21 3.79 0.94
-3.15 2.75 1.46
-5.07 3.57 -1.32
-1.37 0.90 5.24
-1.13 1.22 4.58
-3.25 3.61 -0.41
-4.25 0.46 2.86
-3.11 4.05 -1.91
-4.47 1.92 0.80
-2.24 4.75 -0.83
-0.01 3.02 4.58
-5.01 2.49 -0.67
-5.78 2.17 -0.92
2.82 4.62 4.96
-0.01 4.49 1.95
-1.85 6.27 -3.10
-4.51 0.06 3.20
-5.62 -0.51 2.96
-0.60 1.15 5.08
-6.01 0.79 0.60
-7.29 -0.23 0.15
-4.61 -2.65 5.71
-2.22 4.06 0.30
-0.21 3.19 3.46
-0.82 0.77 6.69
-5.72 0.03 1.25
-6.43 2.18 -2.34
-0.21 5.57 0.14
-0.65 5.60 -0.37
1.12 3.35 3.95
-5.09 2.87 -0.84
-3.24 3.23 -1.13
-2.19 1.99 2.14
-1.58 3.87 2.36
-3.39 4.50 -1.10
1.90 1.55 7.75
-4.01 0.90 1.93
2.00 4.51 4.22
-1.76 1.41 3.74
-3.78 -0.59 5.13
-0.04 7.19 -2.07
0.88 3.70 4.00
-1.21 3.94 1.77
-6.67 1.21 -1.06
-4.07 2.19 0.82
0.72 2.05 5.62
-0.19 2.84 2.88
-3.00 -0.72 5.52
-0.47 3.86 2.34
-0.39 2.97 3.10
-1.55 0.78 4.04
-4.55 0.89 1.93
-0.97 1.75 5.01
-3.65 1.69 2.38
-1.00 -0.63 6.40
-0.21 4.64 0.63
-7.18 1.01 -1.01
-2.79 2.83 0.39
-4.56 2.48 -0.51
-0.31 6.09 -1.28
-4.59 0.85 2.27
2.58 4.76 4.13
-3.90 3.59 -1.02
-5.06 3.03 -0.65
-3.58 2.00 0.93
-3.00 3.21 0.25
-3.82 -0.85 4.70
-1.65 3.84 0.48
-1.31 4.87 -0.01
-5.10 0.87 0.83
-4.55 3.30 -0.74
-0.35 2.33 3.73
-2.48 1.02 3.76
-1.99 3.13 1.69
-3.69 3.63 -0.62
-1.47 0.28 6.02
1.97 5.68 2.51
1.06 3.30 5.25
-2.62 2.87 1.96
-6.50 2.99 -3.39
-6.74 -2.18 3.08
-3.63 2.47 0.24
-1.44 4.18 0.98
-5.29 1.72 -0.07
1.26 6.03 1.21
-1.57 3.47 0.69
0.06 2.01 4.95
-4.91 2.43 -0.55
-1.41 4.72 0.66
-3.46 -0.81 5.52
-0.62 4.80 0.40
0.89 4.89 3.16
0.17 3.12 4.06
1.27 7.18 0.02
0.92 5.94 0.57
-5.43 3.67 -2.74
-0.18 6.41 -1.30
-2.72 5.87 -2.81
-0.88 0.94 5.14
-2.93 1.44 3.10
-4.01 -0.01 4.08
-2.76 1.12 3.42
-1.39 2.02 3.29
-1.21 1.98 5.16
-3.38 -0.21 5.25
-2.99 1.14 3.66
-3.59 0.45 4.06
-4.20 2.72 1.27
-2.35 0.11 4.16
0.09 6.23 -1.22
-2.07 2.27 2.23
0.57 7.56 -1.16
-6.48 -0.99 2.47
-2.48 1.66 3.25
1.71 5.57 3.00
1.03 7.72 -1.67
-1.75 3.34 2.11
0.53 6.05 0.79
-1.30 5.30 -0.10
0.27 3.04 4.21
-0.70 5.58 0.14
2.49 2.12 7.03
-3.15 1.78 1.75
-4.04 2.75 0.37
-0.57 5.23 0.95
-5.76 -2.47 5.36
-1.22 1.35 4.35
2.30 4.08 4.67
0.77 4.57 2.44
-3.18 0.60 3.76
0.66 3.98 4.39
-0.63 2.64 2.99
2.38 6.11 2.57
0.06 3.08 3.47
-7.06 1.03 -1.27
0.06 1.51 6.50
-0.95 3.12 3.08
2.03 3.50 5.16
-3.49 3.55 -1.30
0.93 3.06 4.69
-5.00 -2.66 5.93
2.39 5.28 2.53
-2.54 2.16 2.88
-3.62 3.64 -1.47
-0.56 4.39 1.21
-2.18 3.99 0.67
-0.11 4.48 1.20
-4.75 2.10 0.39
-5.01 2.25 -1.36
-0.31 0.65 5.99
-1.56 3.17 2.79
-0.91 2.56 3.95
-1.96 2.72 2.70
-3.39 2.31 1.26
-4.56 3.36 -1.73
-5.46 -0.08 1.77
-0.63 5.45 -0.92
-4.44 -0.20 3.61
-1.98 6.29 -2.38
-2.31 4.12 -0.93
-3.47 4.01 -1.72
-3.01 0.54 3.90
-4.77 1.93 -0.13
-3.95 -1.05 3.78
-2.44 0.26 4.23
-2.38 2.24 2.28
1.14 1.29 6.78
-0.62 6.26 -0.16
0.85 4.17 3.62
2.01 3.80 3.76
0.86 1.35 6.83
-4.04 4.88 -2.72
0.21 3.19 4.48
-4.44 0.52 2.29
-1.59 1.48 4.01
-5.34 2.61 -1.22
1.42 1.84 6.45
-2.18 -1.27 7.24
0.11 3.79 2.96
-5.07 3.94 -3.71
-2.84 -0.27 5.30
-3.52 2.24 2.34
-8.23 1.17 -1.69
-0.59 2.86 3.49
-5.16 0.75 1.84
-5.25 -1.05 3.66
-0.67 4.50 1.29
-3.78 5.51 -4.26
-2.73 2.72 0.79
-2.27 0.49 4.67
-5.88 -1.53 2.63
0.13 5.44 2.07
-4.41 2.26 1.27
-1.38 4.38 -0.32
-2.90 1.68 2.30
-1.65 3.05 0.99
-2.48 -1.33 7.28
1.79 5.24 2.84
3.06 4.97 4.64
-2.97 5.17 -2.78
-0.20 1.89 4.08
-0.60 6.78 -1.64
-2.84 3.23 -0.19
-1.04 2.32 4.17
-2.94 1.19 3.05
-3.26 4.77 -2.42
-6.25 0.52 1.08
3.74 5.91 3.43
-2.80 1.66 3.20
1.92 1.95 7.20
-5.97 1.57 -0.20
-1.43 0.00 5.81
0.45 2.78 4.57
-2.66 2.27 2.47
-3.13 1.45 2.44
-0.95 6.05 -1.29
-1.64 2.49 3.14
-0.38 2.88 3.88
-3.04 4.39 -1.22
-0.10 3.14 2.05
-3.92 0.53 3.30
-1.18 3.21 2.07
-4.01 -1.15 5.53
-5.95 2.05 -2.53
-3.67 -1.07 6.49
-1.52 4.29 0.98
-1.32 2.40 3.10
-4.49 3.79 -1.62
1.29 2.42 5.94
-4.45 1.30 2.26
-3.69 2.99 -0.00
-1.13 6.27 -1.47
0.36 5.47 -0.01
-4.33 2.35 0.31
-1.57 3.66 1.22
-0.56 3.65 2.20
-1.21 3.25 1.33
-1.57 0.35 6.94
-0.62 2.06 4.58
-0.84 4.66 1.09
-7.25 0.26 -0.39
-2.33 0.09 4.44
-3.77 3.98 -1.34
-2.72 4.60 -0.67
-4.11 2.19 0.03
2.42 5.27 3.52
-3.50 0.99 2.90
-7.03 2.38 -2.24
-2.30 3.88 0.48
-5.10 1.05 1.52
-5.79 -1.70 4.28
-5.64 0.80 1.11
0.22 2.34 4.47
-1.92 2.13 2.80
-3.55 3.19 0.20
-3.12 -0.42 4.77
2.66 3.31 5.39
-1.05 0.72 5.34
-3.55 3.19 -0.07
-3.71 2.07 1.26
-1.75 1.88 4.84
-1.60 2.92 2.50
-4.96 2.55 -0.03
-0.51 0.98 5.54
-3.36 2.82 0.49
-0.41 0.31 7.12
-2.25 2.45 2.90
-4.03 0.48 1.52
0.98 4.22 3.48
2.89 4.88 4.91
-5.62 1.10 0.16
0.05 5.64 0.13
-0.20 5.25 0.45
-2.31 0.01 4.72
1.02 0.88 7.11
-2.84 1.68 2.74
-0.19 4.29 3.24
-2.08 6.43 -1.98
-0.05 4.56 1.87
-1.77 6.84 -2.80
-5.26 0.08 1.56
2.25 5.97 2.72
-5.29 -1.13 2.64
-0.08 4.91 1.06
-0.86 0.03 5.54
-1.49 3.20 1.89
0.53 4.46 3.13
-0.98 3.62 1.95
-2.61 5.21 -2.11
0.31 0.57 7.84
-3.39 2.63 0.68
-3.08 0.74 3.06
2.03 2.48 6.27
-4.77 4.44 -2.79
-4.52 -1.97 5.67
-4.97 2.49 -0.23
-2.12 2.54 2.49
-5.54 1.07 1.05
-1.54 0.77 5.33
2.88 4.04 5.69
1.53 2.91 5.40
-2.71 2.35 1.98
-3.20 2.71 0.67
-3.26 0.47 3.41
-0.22 1.88 5.02
-5.01 0.27 0.89
-4.19 4.79 -2.94
-2.35 -1.28 7.20
-6.73 1.82 -1.21
-0.13 4.93 1.56
-3.00 2.80 0.18
-3.08 1.18 3.02
-1.47 4.48 0.96
1.29 4.45 2.48
-0.37 4.63 0.99
-3.76 1.29 2.82
-2.76 2.34 2.30
-1.01 4.56 0.56
-1.87 3.19 0.84
-4.55 1.61 1.84
-3.44 3.12 0.24
-5.75 2.54 -1.60
1.62 4.97 3.09
1.14 3.37 5.23
-1.77 -0.53 6.97
1.39 5.54 1.90
-3.41 1.32 3.08
-3.85 3.28 -0.43
-2.88 3.95 0.53
-3.52 -0.30 4.15
1.83 4.20 4.25
-0.59 1.22 5.75
-1.97 6.51 -2.50
-0.35 -0.01 7.64
0.35 2.70 4.15
-6.08 0.73 0.99
-4.54 1.83 0.26
-1.71 3.53 0.63
-1.00 5.61 -0.74
-0.98 1.68 4.16
-2.28 4.82 -0.69
-1.65 4.12 0.11
-2.05 3.47 0.75
-0.02 5.28 0.84
-0.87 6.94 -2.39
-0.08 2.35 4.08
-0.85 3.11 2.99
-1.59 3.42 2.69
-1.69 3.76 1.19
-1.38 4.33 0.80
1.04 4.64 2.64
1.41 3.31 4.83
0.54 0.52 7.14
0.08 3.80 2.24
1.51 6.59 -0.06
-5.32 1.22 0.36
-3.71 3.10 -0.40
-4.23 -0.98 4.97
-4.21 1.21 0.98
-3.73 2.74 -0.52
-6.43 -1.81 3.59
-2.13 3.51 1.26
-4.15 -1.02 4.88
-2.43 1.98 1.80
1.34 4.45 3.11
0.27 3.89 3.24
-4.38 2.68 -0.51
-3.71 3.73 -0.71
-3.48 2.65 1.11
1.80 2.99 4.49
-0.33 5.49 0.42
4.05 4.74 5.21
1.80 8.08 -0.80
-6.40 -0.54 3.10
-5.99 -0.42 1.72
-1.20 6.58 -2.44
-0.97 2.07 4.60
-5.98 0.77 1.37
-5.81 0.64 0.77
2.65 4.24 5.08
1.62 1.39 7.17
0.42 0.99 6.74
-5.41 -2.65 5.86
-3.45 3.05 0.20
1.07 4.23 2.55
-2.17 -0.61 6.10
-4.30 2.66 -0.62
-4.44 0.52 3.19
-4.30 3.33 -1.32
-2.82 4.35 -0.58
-3.72 -0.06 3.99
-3.24 2.78 0.92
-2.15 2.44 2.98
-2.94 -1.18 6.57
-1.07 4.15 1.27
0.67 6.18 0.40
-4.41 0.87 1.44
-5.11 2.93 -1.08
-2.19 1.63 2.57
0.42 1.62 6.34
-7.74 0.40 -0.73
-1.24 3.88 1.67
-5.79 2.10 -1.92
-7.22 -1.20 1.80
1.26 3.63 3.92
-2.07 1.15 3.92
-5.06 3.86 -2.06
-4.36 0.80 1.69
-6.17 -1.98 4.67
-1.11 2.43 2.88
0.30 2.84 4.48
-4.75 -0.44 2.95
-5.23 2.45 -1.71
-0.39 2.70 3.10
-3.22 3.06 0.92
0.86 5.89 1.20
-2.99 4.47 -1.40
-5.87 3.36 -2.87
-3.80 3.25 -0.95
-2.09 4.83 -1.67
-2.54 3.60 1.29
-2.21 3.24 2.12
-5.10 -0.05 2.81
-5.66 1.84 0.23
-1.34 4.49 -0.01
-2.74 1.68 3.08
-3.02 4.29 -1.12
-0.69 0.07 6.67
-4.38 -0.15 4.44
-1.13 2.14 3.21
-3.54 3.13 0.74
0.71 6.01 0.28
0.33 5.08 1.62
0.01 0.31 6.25
-6.55 -2.32 4.46
-1.51 3.89 0.54
-3.51 5.34 -2.35
-3.58 0.38 3.37
0.78 6.27 -0.31
-2.21 3.92 -0.21
-2.09 2.66 2.30
-1.13 1.84 3.58
-0.21 3.90 3.14
-0.95 2.03 3.64
-0.96 3.55 1.53
3.14 3.78 5.87
-0.37 6.34 -0.81
-3.29 2.97 -0.09
-2.24 0.28 4.29
-4.63 0.08 2.84
1.48 6.75 0.53
-4.11 3.06 -1.26
-4.89 2.77 -0.28
4.23 6.45 3.13
-1.22 2.18 3.53
-3.92 1.12 2.67
-3.38 2.66 0.86
-3.99 -1.25 4.22
-1.09 0.17 5.49
-4.05 2.34 1.23
1.12 4.11 3.59
-7.47 1.07 -1.35
-3.22 4.11 -0.84
-4.80 2.16 -0.47
-1.57 1.18 4.19
2.01 5.25 2.70
-3.57 4.66 -1.45
0.22 5.43 1.35
-3.96 -1.61 5.85
-0.46 4.71 1.47
1.19 6.93 -0.57
-2.60 1.35 2.64
1.90 7.80 -1.09
1.19 2.13 5.92
-3.46 2.08 1.95
-3.80 2.46 0.70
-3.49 0.22 3.25
-5.68 0.73 0.04
1.82 2.36 5.82
-2.54 4.81 -1.36
0.56 8.06 -1.11
-2.38 5.23 -1.47
1.88 7.34 -0.16
0.52 2.08 6.19
-0.07 3.11 2.79
-1.75 5.06 -1.06
0.16 6.26 -0.74
1.81 5.99 1.48
-3.85 2.31 0.74
-4.47 0.75 1.79
-1.04 2.20 3.92
-5.00 -2.31 5.54
0.88 4.72 2.27
-2.34 0.97 4.96
-3.91 1.44 2.78
-7.89 0.12 -0.50
0.82 2.09 5.18
-4.62 2.05 0.24
-7.57 -1.31 1.82
-5.26 3.35 -1.74
-1.62 5.29 -0.74
-4.99 3.15 -1.88
0.25 4.02 1.97
0.93 5.40 2.08
1.86 5.61 1.95
-7.30 1.73 -1.57
-1.27 0.55 5.78
-1.63 4.88 -0.82
-3.49 1.06 3.02
-2.70 0.96 3.32
-1.13 4.66 -0.32
0.00 6.03 -1.26
-0.41 -0.36 7.15
-3.40 1.37 2.10
-1.02 1.48 4.55
-4.17 0.22 3.22
-6.08 -0.02 1.06
0.79 5.03 2.31
1.97 3.84 4.78
-1.62 2.26 3.58
-4.93 4.41 -2.77
-0.53 5.47 0.32
-3.80 3.38 -0.35
-1.07 -0.41 6.95
-0.73 1.57 4.96
-2.23 1.88 2.25
-3.79 2.59 -0.51
1.53 2.83 6.44
-1.98 4.90 0.37
-2.59 -0.48 6.47
-2.54 3.29 0.48
-1.37 4.56 1.26
-3.25 4.37 -1.14
0.05 4.65 1.76
-3.36 0.61 3.61
-0.21 3.87 2.51
-0.31 5.90 -0.71
-4.43 4.80 -3.18
-2.45 -0.46 6.20
-5.56 0.05 2.25
-1.70 4.31 1.58
-3.42 2.06 2.51
2.85 5.59 3.43
-3.48 2.37 1.39
-2.07 1.03 3.86
-5.75 1.39 -0.48
1.85 3.19 6.02
1.81 5.01 2.32
0.75 4.41 3.09
-1.69 3.23 2.09
-1.39 6.01 -1.61
2.88 4.66 3.96
-2.27 4.40 -0.09
0.93 3.82 2.32
-5.01 0.17 3.51
-4.68 1.94 -0.24
-3.85 2.98 -0.61
1.04 2.47 5.55
-2.11 4.35 -0.60
-3.01 3.03 -0.01
-2.13 2.37 3.13
-0.85 5.00 0.44
-3.99 1.90 0.58
-1.70 2.81 2.21
0.70 2.19 5.83
-0.99 3.47 3.34
-4.24 3.58 -1.76
-0.94 2.50 2.93
-5.11 4.41 -3.89
-2.33 1.01 3.74
-3.62 0.87 3.40
1.14 5.08 2.92
-2.96 3.84 -1.30
3.54 4.87 4.44
0.42 5.68 0.80
-1.99 -0.83 5.57
-0.81 2.42 4.34
-5.69 2.10 -0.28
-2.02 4.95 -0.73
-2.33 1.49 3.51
-5.33 0.12 2.10
-0.66 2.92 3.54
-2.57 2.16 2.13
-3.33 3.56 0.46
-5.64 -0.34 2.96
-1.66 2.05 3.62
-1.15 3.91 0.81
-1.19 4.05 1.28
-3.63 1.41 2.36
-0.12 1.72 5.89
-0.41 4.31 0.66
-4.79 0.21 2.14
2.64 4.85 4.94
-1.69 1.88 3.13
-1.75 1.16 4.37
0.02 3.99 2.35
-4.67 0.83 1.46
-0.29 4.43 1.97
-2.21 2.41 2.67
-2.45 3.13 2.05
-0.83 4.73 0.62
-5.14 -1.69 4.53
-4.48 3.04 -0.21
-1.46 4.84 -0.64
0.03 2.17 3.62
0.21 6.69 -1.22
-5.96 0.31 1.18
1.72 1.00 7.48
-2.65 -0.68 6.26
-0.37 1.82 4.73
0.27 3.55 3.36
0.40 4.82 0.63
-0.69 6.17 -1.26
1.48 3.26 4.72
-5.03 0.29 1.93
-2.56 4.29 -0.08
-7.52 1.47 -1.63
1.30 2.04 6.76
2.18 4.49 4.88
-2.68 1.43 4.06
-5.79 2.67 -1.85
-1.86 3.68 1.08
-2.42 -0.07 5.74
0.66 3.88 2.55
-6.02 1.78 -1.51
0.37 6.43 0.07
-5.83 2.09 -2.39
-4.48 -0.87 4.98
-5.10 4.27 -2.65
-3.26 1.73 2.62
-0.97 1.29 4.61
-1.62 3.55 0.33
0.21 0.39 6.98
0.24 5.01 1.84
-2.43 -0.96 6.04
-2.99 -0.15 3.88
1.00 2.96 5.89
-3.12 -0.15 4.69
3.44 5.86 3.38
-4.77 1.34 0.84
-5.81 1.52 0.18
0.35 1.86 5.80
-3.22 -0.92 5.84
-5.35 2.90 -1.43
-3.62 4.82 -1.58
0.47 1.37 6.02
-0.32 3.22 3.96
-2.21 4.93 -0.69
-0.97 4.33 1.06
-0.75 6.84 -1.76
-4.74 2.16 -0.02
-2.63 1.95 2.15
-5.71 1.85 -0.89
0.52 -0.10 7.23
-1.48 5.39 -1.66
0.24 5.33 1.59
-0.20 2.03 4.39
-7.11 1.55 -2.44
-3.78 1.49 1.46
-3.58 3.77 -1.18
1.40 7.49 -1.34
-0.07 3.29 3.37
0.57 6.52 -0.56
0.47 4.41 2.15
-0.11 1.38 5.88
2.19 4.88 4.15
2.04 3.17 6.58
-3.67 1.63 1.72
-3.94 0.21 3.59
-1.15 4.82 0.87
-2.36 -0.55 6.21
-1.03 6.95 -2.65
-1.57 0.54 5.62
0.00 3.01 4.14
1.50 3.54 4.80
-2.36 2.63 1.96
-0.79 1.12 5.55
1.53 3.75 4.37
1.99 6.69 1.14
-5.71 1.61 -0.12
-5.41 2.40 -0.57
-0.52 3.69 2.30
-1.62 4.38 0.75
-4.07 3.75 -1.53
-2.77 -1.68 6.60
-2.98 3.74 -0.72
0.13 4.50 3.03
-1.79 2.73 2.06
1.03 4.03 2.71
-1.20 3.60 1.43
-1.45 2.05 3.09
-1.68 0.39 5.85
-0.75 3.22 3.58
-0.17 7.20 -0.78
1.70 4.36 3.83
-0.41 2.54 2.91
0.32 2.61 4.16
0.20 1.43 5.53
-1.27 3.69 1.66
-1.32 4.30 0.25
-5.23 1.89 -0.03
0.00 3.44 2.73
1.53 3.18 4.65
-2.92 4.55 -1.17
-4.17 -2.13 5.87
-1.22 5.61 -1.09
-3.82 -0.97 5.15
-4.16 2.52 -0.22
-7.04 2.30 -2.04
-3.33 4.22 -0.13
-3.26 4.80 -2.62
-4.10 2.74 0.14
-1.13 1.98 4.69
1.11 4.74 3.08
-0.59 6.59 -0.63
-3.80 -0.02 2.82
0.05 4.08 2.30
-5.18 5.37 -3.91
1.09 3.10 5.01
-3.36 -0.03 3.99
-2.91 1.77 2.82
1.50 4.76 3.45
-0.46 4.17 1.77
1.33 4.71 2.38
-0.48 3.49 3.52
-5.66 2.71 -0.99
-0.87 0.68 5.95
1.61 5.21 1.41
-0.98 1.85 3.76
-3.29 0.01 4.17
-0.34 3.07 3.46
-4.35 2.80 0.08
-2.48 0.05 5.68
-0.80 2.87 3.89
-2.94 4.21 -0.89
0.27 0.99 6.57
-2.55 5.89 -2.81
-1.38 2.13 3.99
1.36 2.91 4.77
-1.82 0.95 4.68
0.78 4.01 3.02
-2.32 1.19 4.11
-1.03 0.96 6.38
-2.20 0.10 4.87
-2.56 -1.13 6.65
-1.41 3.81 0.20
2.81 4.00 4.96
0.05 2.07 5.03
-3.57 0.31 3.61
1.25 5.85 2.19
-2.01 1.76 4.01
-6.12 3.16 -2.26
-1.07 2.80 3.30
1.65 1.59 6.75
0.17 5.25 2.15
-0.43 5.89 0.52
-2.59 2.58 2.04
-1.00 3.07 3.01
-2.63 4.52 -0.64
2.04 1.28 8.02
-4.90 1.27 0.98
-1.21 5.76 -1.94
-1.27 3.49 1.88
-4.08 2.42 0.10
-4.49 2.88 -0.66
1.32 4.90 2.79
-6.15 -0.39 1.46
-4.27 -0.45 3.67
1.70 4.88 3.46
-0.92 -0.26 7.44
-5.81 1.26 -0.17
-0.45 -0.21 7.74
-0.11 1.71 6.20
-7.13 -1.36 2.90
-3.60 0.09 3.49
-3.07 3.69 -1.58
-3.66 3.29 -0.35
0.32 6.27 0.38
-2.26 2.07 1.38
1.44 3.63 4.48
0.77 2.64 4.16
-2.34 5.04 -1.26
0.10 3.92 2.22
-3.30 3.42 -0.25
-0.22 5.01 0.95
1.43 7.88 -0.61
-2.81 4.52 -2.02
-3.56 1.80 1.38
-1.76 1.31 3.76
-0.76 2.50 3.13
-0.69 2.17 4.55
-6.96 0.01 0.58
-4.45 2.67 -0.71
-0.96 2.75 3.96
1.29 0.92 7.41
-5.43 1.09 0.90
0.67 4.03 2.45
-4.45 3.84 -2.96
-4.74 -2.45 5.51
-4.73 -0.11 2.21
-5.59 2.28 -1.39
-2.29 5.35 -0.65
-2.66 3.75 0.40
-2.03 1.72 3.34
-6.70 0.02 0.47
1.03 3.70 3.23
-4.02 1.62 0.72
1.94 6.31 0.13
-3.43 1.06 2.85
0.95 6.09 1.61
-4.00 2.76 -0.38
-4.97 0.53 2.48
-0.06 3.63 1.49
1.44 -0.70 3.07
-0.48 0.66 -1.65
1.18 1.17 -1.21
-2.80 -2.54 1.34
4.45 1.98 2.79
2.47 1.22 1.45
0.66 -1.97 5.63
-5.08 -2.84 -3.21
-3.60 -1.62 -2.88
0.19 -1.54 2.31
-1.39 -0.62 -1.84
-0.14 -0.04 -1.22
3.29 0.88 4.83
2.41 1.04 1.77
1.68 0.21 1.97
1.39 0.22 3.13
-1.12 -1.44 1.59
-4.02 -4.33 1.41
-0.24 2.10 -5.05
-1.36 -0.66 -1.02
-3.74 -0.67 -5.34
0.94 2.66 -4.00
2.25 0.75 0.99
3.39 1.26 3.14
0.76 1.19 -1.47
3.55 2.94 -2.02
-1.25 1.23 -4.32
-3.53 -1.12 -3.18
-0.86 -1.84 1.74
-1.80 -2.12 0.53
-0.40 0.06 -1.01
-5.21 -2.79 -2.47
0.63 -0.21 2.15
3.78 5.74 -4.79
-0.37 0.52 -2.48
2.59 3.97 -3.50
1.94 0.03 2.98
-3.44 -0.95 -3.34
4.27 3.29 0.97
-1.05 0.37 -2.67
0.88 -0.41 1.10
1.01 0.62 -0.19
-0.98 -1.99 1.34
-1.16 0.34 -2.12
0.98 0.11 -0.60
2.93 3.15 -2.32
-2.02 -1.91 -0.87
-2.17 -1.41 -1.49
-3.93 -2.93 -0.91
-0.19 0.11 -1.24
0.37 0.43 -1.61
-2.81 -1.00 -3.94
-0.75 0.56 -3.17
2.20 -0.27 4.60
2.53 2.09 -0.03
3.35 0.54 3.88
-0.59 0.37 -2.10
-0.41 -0.04 -1.39
-3.28 -1.19 -3.58
-0.13 0.06 -1.21
-3.70 -1.18 -2.91
-0.53 -0.02 -0.52
-0.80 -2.44 3.18
-1.03 1.02 -4.20
-2.60 -1.13 -1.51
-3.46 -2.07 -1.79
0.03 -1.21 2.33
-2.20 -2.99 0.19
5.00 3.25 0.48
0.71 1.64 -2.14
-1.02 1.52 -5.28
0.75 2.49 -4.31
2.14 -0.67 3.97
-0.43 0.63 -1.03
0.69 -1.99 3.06
1.21 0.50 0.49
1.59 1.29 -0.27
1.64 3.77 -4.04
1.98 -0.65 4.09
1.64 -1.10 4.45
0.80 0.57 -0.73
-2.02 -3.76 3.09
-3.24 -1.25 -3.51
2.91 0.52 4.00
-0.58 0.06 -1.19
-3.42 -2.89 -0.14
1.44 -1.51 4.07
-0.12 -0.58 -0.36
-4.21 -2.92 -2.98
-1.84 -3.22 1.39
-0.46 -0.43 -0.58
0.28 2.24 -3.07
-0.75 0.20 -1.41
-0.23 -1.36 2.08
3.37 -0.09 4.77
4.86 1.95 2.28
-2.52 -0.33 -4.13
2.48 2.24 -0.38
-1.85 0.31 -5.31
-3.85 -2.55 -0.45
-2.70 -3.07 1.15
2.45 4.18 -4.03
-1.85 -1.30 -2.07
-1.01 -1.54 0.61
-0.17 2.24 -5.12
1.21 1.72 -0.95
-0.85 -2.81 3.63
-2.30 -0.84 -2.05
0.92 -1.50 3.96
4.06 0.33 4.44
-1.38 -0.06 -2.73
0.01 -1.14 1.84
2.07 2.49 -2.43
3.88 2.64 -0.31
-1.55 1.84 -5.35
3.42 3.86 -2.36
1.91 1.52 0.04
-0.60 -1.99 1.55
0.64 1.82 -2.93
1.42 0.08 1.97
0.88 0.20 0.40
2.75 -0.33 3.65
0.58 0.69 -0.67
2.59 1.62 0.56
2.45 -0.45 4.32
0.87 -0.50 1.24
3.11 -0.49 4.36
-0.66 -0.03 -0.97
1.01 2.81 -3.48
1.64 3.07 -3.56
-0.38 -2.16 3.14
0.97 0.60 0.75
5.52 2.64 3.22
-1.68 -0.38 -2.12
-0.96 -1.29 0.21
-1.62 0.81 -3.10
2.62 2.01 1.04
-1.74 -3.97 3.94
-1.87 -2.50 2.51
-3.13 -0.62 -4.23
-0.94 -0.14 -1.48
-1.60 -3.56 3.04
1.57 1.96 -1.35
0.34 -1.08 1.41
-1.78 -2.66 2.14
1.89 -1.04 4.88
0.02 -0.47 0.47
-2.23 -3.53 3.17
-0.21 -2.01 4.00
-1.65 0.37 -4.76
3.64 3.68 -2.07
-2.93 -1.50 -2.46
-0.73 -2.49 3.56
-0.72 -2.46 2.56
4.25 1.87 3.32
0.08 -0.61 -0.06
1.30 -0.17 1.07
-0.81 -1.34 2.61
1.49 1.35 -0.23
-1.85 0.85 -6.01
-0.13 0.24 -0.48
2.75 1.47 0.94
4.19 1.98 2.47
-0.09 0.94 -1.22
1.60 -0.08 3.34
2.93 0.22 4.19
-1.93 0.12 -3.86
1.03 2.79 -4.44
2.37 1.79 -0.53
1.08 -1.79 5.35
-3.80 -2.07 -3.02
-3.55 -1.73 -2.59
-0.76 -1.86 2.10
-2.42 -1.45 -2.48
-4.94 -2.62 -5.13
-0.39 0.56 -2.52
-0.79 -1.61 1.30
-0.20 1.66 -3.51
-0.88 -0.82 -1.11
0.53 0.13 -0.00
-3.31 -5.19 4.33
-0.73 -0.11 -1.67
-2.65 -2.26 -1.66
2.90 0.28 2.93
3.07 1.49 2.54
-0.63 -2.52 3.03
2.40 0.99 1.63
1.66 2.19 -2.13
5.39 2.12 4.04
0.68 -2.13 2.84
-2.24 -3.55 2.57
3.62 1.18 4.00
0.82 -0.33 2.00
1.13 2.83 -3.79
-1.59 0.24 -4.62
-1.43 -1.45 0.79
-1.20 -1.59 0.70
-0.49 -1.49 1.34
3.18 0.28 4.99
2.83 3.57 -1.28
-0.75 1.79 -4.76
-0.23 -2.21 3.38
0.81 2.37 -3.08
-3.60 -4.82 3.52
-2.28 -1.33 -1.53
0.35 -2.21 4.74
-0.97 -2.58 4.01
0.23 -1.95 2.79
1.83 2.21 -1.41
-2.93 -2.22 -0.98
-1.29 0.76 -4.23
-0.15 1.66 -2.62
2.64 -0.71 4.74
0.95 2.58 -2.82
-4.77 -5.51 2.48
-1.21 -0.99 0.11
-0.48 -2.36 3.41
1.33 -0.59 3.11
3.12 0.84 3.81
-1.57 -1.76 0.76
-4.45 -3.77 -1.04
-1.30 -1.33 0.69
3.47 2.05 0.38
-2.75 -3.49 0.97
2.14 0.96 -0.20
-0.88 -3.02 2.15
1.35 3.50 -3.16
-1.83 0.92 -4.36
-1.69 -2.72 1.25
4.10 2.56 1.28
-1.98 -0.97 -2.05
-0.78 -2.46 1.96
1.14 -1.06 3.69
2.49 -0.16 4.80
0.42 -0.29 0.93
-1.00 -1.76 0.09
2.85 0.66 4.84
1.15 -0.66 4.64
3.48 3.55 -2.08
4.15 2.31 2.58
-0.77 -0.41 -1.00
1.11 3.89 -5.10
-0.87 -3.11 4.56
-0.51 -2.81 4.05
1.47 -0.30 3.48
-0.91 -0.47 -3.02
1.50 -1.09 4.31
-0.60 0.72 -1.62
4.90 2.74 3.47
-3.57 -1.92 -3.87
4.26 1.12 4.46
3.84 1.48 2.51
-4.15 -3.31 -0.17
-2.36 -3.86 2.96
-0.00 0.73 -1.83
-0.26 1.37 -2.54
-2.15 -4.23 3.82
-0.37 1.67 -3.80
1.98 3.38 -2.04
0.92 3.47 -5.20
1.79 2.13 0.06
0.03 -0.97 1.75
1.28 1.03 0.77
1.56 0.81 0.60
-2.45 -1.24 -2.51
-0.75 -0.98 1.00
0.07 -1.51 2.68
1.27 2.16 -1.64
-1.89 -1.24 -1.24
-4.33 -3.54 -0.73
-2.65 -0.34 -3.62
1.89 1.45 -1.56
-0.16 1.19 -1.53
-4.51 -3.55 -0.06
2.38 1.06 1.91
0.54 0.43 -0.64
5.19 2.08 3.35
2.47 0.69 2.55
2.92 2.91 -1.17
0.54 0.15 1.74
2.83 2.07 0.68
2.91 2.22 -1.48
-1.01 -2.02 2.88
4.71 2.80 1.40
-0.81 -0.25 -1.63
-0.66 -0.14 -1.50
-1.26 -2.35 1.93
-0.02 0.60 -2.47
-2.53 -2.72 1.56
2.09 1.97 -1.12
2.86 3.83 -2.97
-3.45 -3.23 -0.77
3.29 2.49 0.87
2.70 1.21 1.25
-0.88 0.04 -1.74
-1.44 -0.16 -2.61
4.89 3.85 0.81
2.08 2.70 -2.37
-1.46 0.62 -3.85
-3.31 -1.63 -4.02
-1.01 -0.51 -1.75
-2.31 -0.73 -2.12
-2.23 -3.33 1.59
0.78 -0.70 3.35
-1.45 -3.94 3.20
-3.75 -1.84 -3.75
-3.63 -4.32 3.42
1.39 0.62 -0.24
1.50 0.98 -0.98
3.28 1.30 1.32
0.11 -2.13 2.94
-4.74 -3.87 -0.87
-0.52 -1.05 0.71
-0.08 2.09 -4.69
-1.43 1.43 -6.10
0.09 2.27 -5.14
-3.35 -1.69 -2.47
-0.40 -0.36 -0.18
-1.43 -1.76 0.28
-2.40 -1.89 -1.01
1.56 -0.57 2.14
-0.08 -0.58 -0.72
-5.33 -2.12 -4.17
-4.80 -2.81 -3.00
-1.91 -3.01 2.14
-1.93 -1.93 0.47
1.07 2.19 -1.97
-5.12 -3.23 -2.85
5.10 3.78 0.35
2.10 0.83 2.43
-1.40 -0.93 0.17
0.11 -0.66 0.97
0.15 1.40 -2.57
2.27 1.41 1.52
-2.17 -3.52 2.11
1.86 -1.24 5.54
2.05 1.70 -0.60
0.69 -1.26 3.37
0.91 -1.35 3.69
-4.46 -4.17 -0.83
-3.00 -1.21 -3.05
2.19 1.65 0.35
0.03 1.36 -2.83
-2.81 -0.54 -4.60
-1.91 -2.08 1.03
-2.45 -0.55 -3.54
-1.46 -0.98 -1.57
-4.02 -2.72 -2.96
-0.85 0.49 -1.78
0.52 -0.13 -0.27
1.26 2.47 -3.32
3.90 0.08 5.07
1.19 1.03 0.00
-1.86 -1.40 -0.63
-1.95 -1.50 -0.42
1.11 -1.38 4.58
-0.34 -1.44 0.49
-2.38 -3.43 2.27
1.21 -0.49 1.93
0.46 -1.44 3.09
1.95 0.61 2.06
-1.51 1.67 -5.01
2.16 3.75 -2.51
3.90 1.91 1.82
0.73 1.76 -2.50
3.26 0.54 3.11
2.97 3.55 -2.15
-3.99 -5.33 3.39
2.45 -0.67 4.36
2.00 2.20 -2.51
-1.59 -1.45 -1.01
-0.44 -2.23 4.61
2.82 3.30 -2.22
-2.91 -2.27 -0.36
-3.42 -4.09 3.52
-2.38 -0.54 -3.86
1.18 0.99 -1.12
-3.01 -4.31 3.90
-4.98 -2.40 -2.70
-1.59 -2.65 2.89
-0.30 1.71 -3.66
2.01 -0.98 4.30
-1.40 -0.01 -2.48
3.46 2.54 -0.55
-1.80 -1.65 1.34
0.39 1.09 -0.75
-0.51 -1.43 0.71
0.70 0.91 -2.53
-3.35 -3.12 0.11
1.75 0.07 2.24
-0.55 0.16 -0.69
-0.73 0.53 -1.98
2.38 -1.68 5.53
1.33 2.11 -2.18
2.31 0.33 3.15
1.21 3.98 -5.27
0.61 0.67 -0.94
1.11 1.46 -1.99
-1.52 1.31 -4.64
2.74 0.70 1.95
-3.22 -2.63 -2.00
1.99 -1.20 4.89
2.02 2.01 0.64
5.12 2.23 4.36
-0.79 -1.19 0.53
-1.00 0.30 -2.42
1.37 0.46 2.21
1.98 2.46 -1.63
0.90 0.79 0.04
1.85 0.45 1.31
-1.04 -1.18 0.85
-1.90 -1.19 -1.53
-1.29 -2.31 3.74
-2.73 -2.08 -0.68
4.02 4.77 -2.33
1.90 2.00 -0.93
-3.69 -4.04 0.26
-1.63 -0.36 -3.04
0.36 -2.28 4.77
0.72 -0.54 2.61
2.26 2.34 -0.46
0.31 0.50 -0.72
-1.64 -2.12 0.52
1.08 2.53 -4.13
1.05 -0.66 1.99
0.61 2.70 -5.43
-0.86 -0.40 -0.49
-1.82 -0.18 -1.74
-1.61 0.36 -2.46
0.72 -0.28 0.60
2.81 1.05 3.07
2.77 1.81 0.98
-1.34 0.12 -2.11
2.28 -0.51 3.25
-3.54 -1.87 -1.31
2.90 2.30 0.04
0.75 2.15 -3.16
3.13 2.66 -0.19
1.93 3.85 -2.97
-0.45 -3.23 5.82
-3.53 -2.75 -0.47
3.74 0.53 4.56
1.43 1.20 -0.69
1.60 -1.56 4.43
-0.65 -0.14 0.41
2.11 -1.00 5.80
1.55 -0.39 2.01
1.24 -0.24 2.25
4.27 0.80 3.57
-0.48 -2.06 1.30
-0.63 -1.87 1.27
-0.61 -0.67 0.01
-1.68 -4.09 3.93
2.84 -0.54 4.88
-1.72 1.22 -3.89
-1.39 0.27 -3.11
-0.71 -0.90 0.68
1.65 1.98 -1.86
1.53 2.28 -2.30
2.66 1.60 1.15
-0.09 -2.06 3.33
2.17 2.42 -1.21
-0.64 -0.14 -2.15
-2.51 -0.30 -3.55
-1.10 -1.75 2.88
-1.11 -3.76 3.98
0.57 -1.03 1.31
3.02 0.12 5.84
2.10 1.84 -1.18
-2.64 -4.78 3.96
-4.11 -3.52 0.08
0.83 -0.93 3.77
-1.89 -2.88 2.82
1.21 0.48 -0.10
-1.09 0.04 -3.00
2.27 3.08 -2.81
-1.06 -2.08 3.02
0.91 -0.07 2.74
-0.17 -0.13 -0.59
-0.86 0.17 -2.11
-1.82 -0.29 -3.81
-0.33 -1.68 2.10
-0.41 0.53 -1.65
4.80 3.77 -0.90
2.56 -0.37 3.47
2.56 -1.01 4.66
-1.59 -1.77 1.21
0.26 1.28 -2.01
1.38 -0.82 3.94
0.19 0.27 -1.15
0.66 2.76 -4.17
-2.93 -4.91 3.14
-1.62 -2.02 0.09
-0.22 -0.53 -0.55
1.92 0.16 2.86
-0.14 0.45 -1.96
0.50 1.94 -3.21
-1.17 -1.62 2.02
0.16 -1.27 2.30
-0.86 -1.86 1.52
0.00 0.81 -1.90
1.72 0.87 0.54
-0.12 0.37 -2.17
1.83 2.79 -2.62
-1.86 0.27 -3.43
5.49 2.41 2.55
-0.62 0.35 -1.67
-1.49 1.34 -4.51
-3.67 -5.38 4.46
0.08 1.99 -3.51
-1.33 0.29 -2.66
2.92 -1.01 5.63
-0.34 -0.57 -0.36
4.49 1.88 2.96
2.47 1.43 1.38
3.49 3.33 -0.59
-1.28 -2.90 3.74
-4.10 -2.31 -2.02
-2.61 -2.39 -1.18
-0.76 -0.85 0.81
3.10 0.49 3.58
0.20 0.31 -1.31
-2.80 -5.08 3.36
0.77 -1.28 3.79
-0.23 -0.55 0.58
-2.73 -4.00 1.43
1.16 3.89 -5.25
1.01 -0.42 1.87
4.00 3.82 -1.94
-1.37 -0.08 -3.85
0.07 1.50 -2.68
0.34 0.46 0.43
4.16 1.12 5.06
2.74 0.62 2.98
2.22 1.41 -0.34
3.78 4.37 -2.54
0.72 -0.03 1.56
-1.10 1.77 -5.30
3.73 2.54 1.08
-2.09 -1.14 -1.33
-1.82 -2.43 0.72
-2.77 -2.20 -1.60
-1.76 -0.60 -2.70
-4.09 -2.89 -2.13
1.43 0.05 2.00
-1.27 1.28 -6.20
5.61 3.91 1.63
4.45 3.55 0.10
-2.70 -2.64 -0.55
5.87 2.86 3.86
1.05 -1.29 4.10
-0.70 -0.11 -0.37
-3.55 -2.46 -0.96
0.54 0.29 -0.53
3.30 4.12 -3.46
5.01 1.89 2.86
0.94 2.03 -2.79
-0.33 -0.51 -0.74
-4.68 -2.44 -3.06
2.94 0.99 2.20
-0.84 -0.94 -0.07
2.27 1.87 0.91
3.85 1.91 2.31
2.64 2.64 -1.31
-2.48 -1.52 -1.89
2.12 3.22 -3.56
0.43 -1.35 3.54
-1.05 -1.21 0.82
-2.96 -3.92 0.69
1.87 1.85 -1.10
-0.36 -2.75 3.24
0.52 0.52 -1.64
2.91 1.32 1.46
-1.36 -0.57 -3.20
0.79 0.49 0.97
-3.82 -2.77 0.04
4.05 1.19 2.87
-1.13 -0.11 -3.61
0.39 0.05 0.54
3.47 1.07 3.20
-2.08 -1.71 -0.81
-0.29 1.32 -2.62
-1.70 -1.20 -1.29
-1.50 -1.29 -0.40
-2.31 -0.04 -3.77
-3.27 -1.49 -2.96
1.95 1.21 -0.20
-0.32 0.23 -1.61
0.80 0.12 -0.04
4.42 1.54 3.76
-2.74 -3.91 3.74
4.42 4.39 -1.46
-0.07 -0.99 1.38
-2.34 0.13 -4.29
-3.35 -2.27 0.33
-2.31 -1.92 -0.91
2.75 1.87 0.61
2.27 1.83 -1.01
-0.79 -0.68 -1.11
4.70 1.45 3.95
4.22 3.21 0.60
-4.37 -4.43 0.29
1.26 0.57 1.26
1.82 -0.12 2.45
-4.80 -1.55 -4.72
-0.63 -0.39 -0.34
0.51 -1.50 3.50
2.45 1.92 1.43
0.69 1.93 -2.35
4.59 1.38 4.18
1.26 3.40 -5.35
1.15 2.72 -2.44
-0.05 0.02 -0.58
-0.24 -1.90 2.54
3.70 4.25 -3.36
0.97 -1.88 5.57
3.54 3.45 -2.27
-4.44 -2.44 -3.04
-1.47 0.14 -4.64
-2.94 -4.37 3.50
-1.18 2.04 -5.61
0.06 -2.28 3.43
2.16 1.95 0.64
-0.91 0.49 -2.63
-1.18 -0.55 0.43
1.00 -0.14 0.40
1.77 2.18 -3.17
-4.10 -3.35 -0.95
0.29 0.29 -1.07
0.60 2.33 -4.15
-2.84 -1.95 -1.13
5.31 3.67 0.94
-3.19 -3.52 0.94
-2.60 -2.92 2.10
3.78 1.42 3.60
4.26 3.57 1.50
2.04 3.00 -2.04
-1.07 -0.01 -2.15
-2.97 -4.49 2.82
-4.48 -2.90 -1.32
3.32 1.20 2.27
-4.40 -2.58 -3.12
-3.05 -2.92 -0.04
-1.09 -2.54 2.48
1.93 0.59 0.91
-1.03 1.06 -4.01
0.24 -0.02 0.72
-2.12 0.14 -2.68
-1.45 -1.84 -0.38
1.44 -0.22 3.02
-0.67 -1.04 -1.17
1.88 -0.40 3.84
0.35 -1.19 1.58
2.21 3.61 -3.71
-3.28 -0.81 -3.50
3.48 4.77 -5.08
2.57 -0.05 3.05
2.46 4.49 -4.36
-1.15 -2.32 0.70
2.75 1.19 0.85
0.57 1.54 -1.89
0.17 -1.81 4.05
3.63 0.71 4.07
0.74 -0.42 1.44
2.40 1.51 1.31
-0.93 0.73 -2.64
2.36 1.17 0.71
-2.12 1.00 -5.97
3.65 -0.10 5.43
5.09 4.74 -1.08
-0.40 0.22 -0.60
0.54 1.18 0.13
-0.49 -0.64 -0.07
-1.25 -0.97 -0.37
-1.97 -3.39 2.48
-0.34 -1.81 1.52
-1.77 -3.09 2.61
1.52 -0.80 2.42
1.47 1.74 -1.64
1.19 -2.03 5.24
1.05 -0.70 2.90
5.98 3.68 2.98
-2.16 -1.10 -3.04
4.13 3.05 0.88
-2.19 1.16 -5.07
0.88 0.37 -0.49
-1.29 0.94 -3.99
0.47 -1.20 1.65
0.07 -0.49 1.45
1.17 -0.69 1.33
-1.51 -0.58 -1.03
-4.98 -2.21 -3.13
-2.70 0.34 -5.05
3.86 3.90 -2.05
-2.93 -2.57 0.30
-1.57 -1.36 -1.39
0.71 2.34 -4.22
-1.56 -2.04 -0.52
-0.74 -2.76 4.11
-1.68 -3.52 3.42
3.49 1.55 2.14
1.87 1.25 2.39
-0.32 0.03 -2.67
3.30 1.65 1.65
-5.21 -4.94 0.11
5.17 2.33 3.92
-1.73 -3.53 3.07
-2.01 -0.66 -2.52
2.51 0.71 2.21
-2.03 -3.19 3.12
-0.96 -1.33 0.64
-5.56 -4.20 -2.07
1.69 -1.74 5.88
-0.39 0.09 -0.64
3.64 2.86 -0.91
3.34 4.32 -2.77
-1.42 -2.88 3.10
3.71 2.02 0.91
-0.06 0.78 -1.53
-0.47 -0.25 -1.56
-2.33 -0.44 -3.05
-1.44 -3.26 4.44
3.73 3.95 -1.54
-1.67 -0.98 -2.40
1.32 2.02 -1.09
3.95 2.19 2.81
2.87 1.35 2.20
1.57 1.81 -1.32
-0.97 -0.20 -0.86
-1.67 -0.52 -2.36
-2.68 -2.33 -0.71
1.06 0.90 -0.96
4.20 1.48 4.69
1.12 2.82 -4.27
-0.05 0.03 -2.52
1.44 0.19 2.35
2.89 1.27 2.16
-0.57 -0.50 -0.89
2.52 0.87 2.44
-2.60 -0.14 -4.01
0.45 -0.41 2.26
0.57 1.83 -3.79
0.47 1.96 -1.69
-0.28 0.53 -2.71
-1.23 -1.90 0.25
3.56 4.61 -2.59
4.17 3.92 -1.55
1.25 1.65 -0.94
1.47 3.32 -2.40
2.66 3.22 -2.75
-2.63 -2.68 0.21
-0.71 -3.17 4.48
1.06 0.66 -0.83
2.07 3.77 -4.05
-2.40 -1.78 -1.92
-1.37 -0.69 -0.74
-4.46 -3.40 -0.96
-2.81 -0.76 -4.29
2.21 2.47 -1.77
-1.15 -0.63 -1.60
1.98 1.88 -1.30
1.38 -0.57 1.55
0.88 -0.50 2.31
0.29 -0.85 -0.13
-1.38 -2.40 2.29
-1.13 -2.40 2.11
0.40 0.16 0.62
0.69 1.36 -3.04
2.41 3.56 -2.54
-1.60 -0.15 -2.57
-3.61 -2.15 -1.42
-4.07 -0.66 -4.46
-4.07 -4.44 -0.55
-2.66 -0.82 -3.93
1.71 -1.08 3.74
3.32 0.38 3.49
0.77 -0.49 0.89
-1.12 -1.03 0.26
4.89 1.82 3.88
-0.24 0.51 -1.10
-1.28 -0.08 -0.53
2.17 -0.50 3.15
-1.98 -1.44 -1.45
1.70 0.56 1.49
-1.12 -3.04 3.06
2.35 3.66 -2.70
1.08 1.98 -3.10
3.18 3.55 -3.59
1.99 2.24 -1.90
-0.33 0.97 -2.46
1.71 0.97 -0.24
-3.27 -4.86 2.94
3.76 1.14 3.34
-1.21 -1.13 -1.27
3.53 2.81 0.86
-2.95 -0.43 -3.10
0.82 2.87 -3.69
0.62 2.52 -4.07
-0.09 1.58 -3.89
-1.79 -0.42 -2.94
-4.25 -2.49 -2.46
-1.29 -0.63 -0.04
-0.97 -0.03 -0.95
-4.65 -1.34 -4.64
-2.07 -1.80 0.41
1.57 1.66 -0.86
-0.17 0.89 -2.20
3.48 3.53 -1.19
-3.90 -4.90 2.31
-1.16 0.07 -2.46
3.08 0.84 2.08
0.45 -0.47 1.48
-2.89 -2.69 -0.39
-0.45 0.41 -2.42
3.26 4.12 -1.68
0.00 0.90 -2.38
-0.09 0.46 -1.78
3.73 2.01 2.44
0.43 2.08 -2.84
0.04 -1.67 2.85
0.42 1.80 -3.02
-2.96 -1.19 -2.69
2.15 3.14 -2.79
-0.32 -0.58 0.53
-1.66 1.37 -3.83
-1.81 -0.09 -3.10
0.18 -1.63 2.92
-1.31 -0.25 -2.02
1.83 0.02 2.39
1.21 2.52 -2.81
3.31 1.81 2.00
-1.64 -3.30 3.18
0.63 0.05 0.61
-2.33 -0.76 -3.46
1.76 1.87 -0.89
-0.72 -0.62 -0.17
0.60 0.23 -0.30
1.09 -0.62 2.12
2.16 0.53 2.99
0.78 0.82 -1.06
1.79 -0.56 3.11
-2.57 -4.28 4.37
0.88 0.65 0.76
2.85 0.77 2.53
-3.37 -3.33 -0.62
0.01 0.25 -0.75
-1.65 -0.56 -1.04
4.02 3.18 -0.47
4.72 2.24 3.82
3.21 5.24 -3.58
-4.88 -2.01 -3.92
1.91 1.75 0.87
0.82 -0.63 2.56
-1.31 -3.01 2.80
-0.79 -0.22 -1.76
-0.03 1.46 -3.95
-3.22 -2.68 -0.20
-2.57 -2.76 0.21
0.48 0.98 -1.51
2.57 1.67 -0.24
2.66 2.91 -0.00
-1.73 -3.48 2.87
-0.31 -1.76 2.07
-4.48 -3.14 -2.31
0.96 0.24 0.20
2.47 0.78 1.77
0.31 1.52 -2.99
0.39 -1.43 2.83
-0.55 -3.25 4.66
0.42 0.52 -1.72
-2.57 -4.24 3.68
1.33 -1.72 5.06
1.32 -0.52 2.99
0.35 0.66 -1.49
3.86 4.72 -2.62
0.20 1.22 -2.19
-2.16 -1.50 -0.32
-1.13 -2.77 2.49
-0.98 0.14 -2.63
0.45 0.21 -0.19
4.34 2.62 2.17
1.09 -1.29 4.97
1.33 -0.80 3.63
-2.74 -1.15 -3.15
2.06 2.50 -1.58
-2.83 -1.67 -1.06
0.93 3.00 -5.02
-0.31 -3.03 3.44
-1.88 1.59 -5.44
-2.51 -2.66 0.72
-3.31 -1.97 -2.16
-2.25 -2.72 1.18
-4.65 -5.51 2.34
2.03 1.93 -1.05
1.56 -0.44 3.45
-1.08 -1.33 0.26
-1.33 -1.95 0.13
0.31 1.70 -3.54
-1.89 0.56 -5.12
1.41 -0.74 2.17
-1.62 -1.20 -0.92
2.54 -0.40 3.53
-2.64 -1.05 -2.43
1.52 0.58 2.29
1.37 1.27 -1.10
1.37 2.67 -1.88
-2.21 -4.74 4.32
-0.35 -2.09 1.69
0.96 0.60 0.14
-4.57 -1.87 -4.92
0.31 -0.06 0.59
0.95 3.51 -4.72
-1.70 -0.69 -1.92
0.86 -1.27 4.05
-1.06 0.68 -3.69
-2.78 -2.29 -1.41
-4.46 -2.70 -2.43
-0.36 -1.49 1.60
1.83 2.53 -1.91
2.45 3.27 -2.68
4.52 4.31 -1.07
1.17 -0.14 0.75
0.64 1.47 -1.85
-1.74 -0.89 -1.91
-5.08 -3.76 -2.09
-0.13 -1.90 1.81
-2.49 -0.24 -2.88
-0.93 0.33 -1.94
0.32 0.93 -1.77
0.55 -1.09 2.39
0.44 1.83 -2.82
-2.08 -4.81 4.40
1.56 -0.53 3.89
2.40 0.40 2.40
0.39 -0.82 1.58
-2.62 -2.47 -0.12
-4.49 -2.75 -3.59
0.19 1.53 -2.37
1.87 1.09 1.13
-0.78 -0.17 -0.02
1.86 0.63 1.91
1.68 -0.90 4.45
-3.11 -4.64 3.82
-4.79 -3.75 -0.84
2.72 2.88 -1.15
-0.17 -0.95 -0.40
3.11 3.00 -1.05
-0.36 1.07 -3.37
0.91 -0.71 1.51
1.64 1.13 -0.47
-0.09 -0.10 -1.50
1.19 0.31 0.31
3.48 1.28 1.28
-0.99 1.18 -2.78
-1.78 -3.38 2.35
0.51 -0.19 2.10
2.31 1.19 0.53
-3.49 -2.11 -3.21
-4.99 -2.99 -1.72
-0.13 0.47 -1.19
1.53 -0.01 2.74
1.64 -2.24 4.70
-0.17 -0.49 -1.09
3.14 1.66 1.97
-1.35 -2.37 2.90
-1.13 -1.16 -1.53
-0.02 0.38 -0.16
-1.98 -0.10 -4.57
-2.58 -1.69 -1.00
0.96 0.58 -0.04
-0.87 -1.79 0.56
-2.51 -2.73 1.09
-3.04 -0.99 -2.56
1.22 -0.81 4.25
0.20 0.08 0.39
3.00 0.16 2.54
2.21 0.18 2.96
-0.17 0.67 -2.59
-3.37 -2.82 -1.62
-4.02 -3.55 -0.71
1.59 -1.39 5.19
2.41 2.22 0.17
-3.20 -3.04 -0.96
-4.86 -2.85 -2.61
-4.19 -3.64 -0.93
2.89 1.72 -0.05
-0.10 -2.52 4.34
-0.46 0.86 -2.48
-2.25 -0.56 -1.45
0.09 -3.01 5.05
3.46 2.28 1.87
4.19 1.43 3.04
-1.25 0.38 -3.48
-1.61 -1.15 0.49
-1.72 -1.75 -1.27
-3.27 -4.41 1.63
-4.85 -2.56 -3.32
-2.06 0.04 -4.54
0.96 -1.16 3.41
0.75 -0.70 1.72
