ply
format ascii 1.0
comment Made by Nomoko
element vertex 3000
property float x
property float y
property float z
end_header
-4.38 -0.33 -2.08
0.15 -1.39 -2.31
2.62 2.23 -3.94
-0.67 3.90 -3.47
2.90 -1.06 -3.31
-4.06 1.07 -2.27
0.20 2.66 -3.36
1.58 -0.24 -2.87
1.75 -0.59 -2.44
-1.44 0.97 -2.01
4.60 0.08 -3.47
2.04 3.26 -3.85
-3.65 -1.63 -1.22
-3.19 0.71 -2.24
2.21 -0.75 -3.12
4.30 -1.89 -3.08
-2.19 -3.08 -1.12
-4.22 -0.18 -2.22
2.49 1.94 -3.02
2.59 -5.01 -1.36
-2.82 -2.29 -1.12
0.85 -5.35 -1.58
-5.15 0.08 -1.50
-2.09 3.12 -2.71
-0.89 -1.17 -1.67
3.46 2.98 -3.41
4.25 -2.56 -2.90
-3.97 -0.94 -1.82
3.49 3.10 -3.90
-3.26 -5.55 -0.71
0.43 -1.20 -2.21
-1.55 2.58 -2.85
0.58 -4.08 -1.89
-4.42 1.32 -2.11
-1.58 -3.33 -1.45
1.73 2.59 -3.79
-0.35 -2.88 -1.82
-4.19 1.28 -2.02
-0.01 -2.62 -2.32
4.59 4.92 -4.86
-1.92 1.77 -2.41
-2.96 3.79 -2.97
3.04 -0.35 -2.67
-2.22 -0.99 -1.57
1.09 1.62 -3.14
-5.77 0.11 -1.75
-2.87 -3.48 -1.49
-4.06 -0.63 -1.95
3.17 3.34 -4.25
0.67 -5.36 -1.09
-2.73 0.94 -2.55
-3.17 -4.58 -0.47
-2.15 0.73 -2.65
3.70 0.21 -3.19
-4.64 -1.70 -0.79
-4.46 2.78 -2.04
-1.33 0.84 -2.61
0.78 0.59 -2.52
2.66 1.58 -3.07
-6.15 1.14 -1.82
2.56 0.28 -3.38
-4.69 1.88 -1.78
4.44 -2.04 -2.55
-1.74 -1.69 -1.67
-0.63 -2.64 -1.73
-1.64 -3.33 -1.51
-0.73 -2.83 -1.95
-3.47 -1.16 -1.67
-4.24 -3.09 -1.07
-4.90 3.73 -2.86
-1.80 -4.63 -0.59
-3.40 0.03 -1.86
-4.18 1.50 -1.53
-2.96 -0.20 -2.01
2.55 -3.64 -2.12
3.66 0.15 -3.26
-1.26 3.53 -3.23
4.34 -4.14 -2.67
3.22 -1.43 -2.24
-2.47 4.83 -2.90
3.52 1.77 -3.60
-1.87 -0.00 -2.36
0.13 -5.40 -1.24
2.19 2.47 -3.68
-0.15 2.59 -3.47
3.83 -4.77 -1.87
-3.82 -2.53 -0.99
3.44 -3.93 -1.82
-0.69 2.68 -2.73
3.07 0.77 -3.55
2.99 2.51 -3.58
0.03 0.89 -2.70
-3.91 -1.12 -1.93
-1.72 0.38 -2.62
2.88 -0.51 -3.10
-1.55 2.98 -2.52
2.79 -1.54 -2.42
-3.59 -0.15 -1.77
-3.81 2.95 -2.46
4.60 2.62 -3.50
-1.01 1.13 -2.58
2.20 -3.14 -2.67
-2.39 -4.22 -1.20
-3.49 1.70 -2.41
-5.60 3.43 -2.57
-2.61 0.16 -1.69
-4.26 -2.74 -0.84
-4.18 -4.49 -1.20
2.70 1.08 -3.51
2.22 -5.33 -1.92
-1.07 -1.34 -1.96
0.25 4.28 -3.48
-6.05 2.66 -1.91
3.36 -2.68 -2.49
1.95 3.04 -4.01
2.64 -5.22 -1.39
-1.52 -1.15 -1.59
-3.63 -2.25 -1.54
-1.40 -2.36 -2.16
0.60 -2.26 -2.24
-1.05 4.52 -3.34
-1.01 -0.81 -2.70
3.56 -1.87 -2.75
-3.19 -0.44 -1.63
-4.13 -3.65 -1.37
-2.45 3.31 -2.93
0.12 -2.22 -1.67
-0.86 -2.13 -2.42
2.35 -2.36 -2.85
3.90 -0.99 -2.67
-4.77 2.91 -2.50
-4.33 -1.33 -1.11
3.75 -0.41 -3.28
-4.38 4.65 -2.67
2.67 -1.56 -2.13
0.76 1.34 -2.59
-1.16 -1.44 -1.96
-2.96 2.57 -2.80
-0.00 1.41 -3.14
-4.14 -1.38 -1.55
-0.98 -2.02 -2.22
-3.88 -0.01 -1.70
2.88 -4.93 -2.20
-2.96 -0.82 -2.32
-3.40 -4.54 -0.59
1.37 1.05 -3.51
-1.66 -2.96 -1.99
4.06 -3.16 -2.75
1.10 2.13 -3.33
-0.70 2.20 -2.49
-1.42 -0.87 -2.10
-4.11 -0.93 -1.47
1.96 -4.66 -1.32
-4.91 -0.28 -1.90
-4.47 -3.32 -0.51
1.06 2.06 -3.51
0.90 -4.84 -1.70
-3.64 -1.74 -1.73
4.46 0.73 -3.88
1.97 4.50 -3.48
-4.47 -1.58 -1.27
4.55 0.17 -3.42
-0.37 -1.96 -1.74
-0.56 2.25 -3.13
-0.37 3.21 -2.80
-4.09 -3.71 -0.96
-2.86 -4.76 -1.20
3.68 -1.48 -2.63
-5.80 2.65 -2.04
-2.11 3.54 -3.16
-2.33 2.18 -2.52
-5.17 -1.68 -1.37
-3.43 0.34 -2.41
-2.09 -0.84 -1.45
-0.95 2.64 -3.23
-2.02 1.49 -2.75
3.37 -2.54 -3.05
3.59 -4.05 -1.85
-3.58 1.38 -1.95
-2.07 -1.06 -2.10
-0.24 -3.02 -1.46
-5.71 -3.87 -0.06
1.65 1.54 -3.48
-4.47 4.26 -2.39
-3.81 2.84 -2.13
-1.34 -0.22 -2.69
4.78 -4.14 -2.21
-4.30 4.03 -2.61
-1.49 3.36 -2.75
-2.31 4.13 -3.13
-2.31 0.21 -2.30
-2.03 -1.34 -2.26
2.05 0.66 -2.72
0.27 -1.08 -2.10
-0.75 -1.86 -1.74
1.60 -2.17 -2.02
0.97 -2.60 -2.16
-1.64 -1.41 -1.66
-1.83 0.93 -2.25
3.54 -2.21 -2.59
-2.20 -1.10 -1.83
-0.16 2.00 -3.44
-4.80 -4.72 -0.18
2.39 2.33 -3.39
0.42 2.53 -2.72
2.63 -3.95 -2.19
-3.27 -1.19 -1.72
1.02 -6.05 -1.13
-1.11 -3.48 -1.06
2.36 -3.58 -2.25
-2.33 4.42 -3.39
4.48 2.30 -3.97
0.39 4.44 -3.81
-0.33 0.28 -2.65
1.80 4.45 -3.75
-1.89 4.43 -2.72
4.45 -3.74 -2.55
-4.88 -3.50 -0.88
-1.98 2.15 -2.46
3.89 0.50 -3.31
-1.78 -1.95 -1.36
3.35 -5.63 -1.62
3.36 -2.96 -2.51
-2.20 -3.03 -1.72
-2.52 -0.08 -2.10
-1.08 -2.80 -2.20
-0.86 0.78 -2.61
-3.54 0.04 -1.87
3.96 -5.04 -2.02
-1.75 4.05 -3.09
1.19 -1.84 -2.55
0.13 4.11 -3.41
-1.14 3.30 -2.67
-3.73 -2.47 -1.21
-2.00 -4.61 -1.37
-3.44 -4.57 -1.15
-3.97 0.01 -1.90
-2.07 -2.51 -1.58
1.10 -1.67 -2.09
-0.98 -1.41 -2.05
-3.80 -2.38 -1.49
-1.24 -3.16 -1.46
-1.45 0.86 -2.15
-3.71 -0.93 -1.82
2.31 -0.36 -3.18
2.75 -5.13 -2.38
-1.51 -0.34 -2.28
-5.29 1.57 -2.15
-3.76 -0.72 -2.22
-0.26 -1.00 -1.75
4.50 -3.38 -2.11
-3.13 -3.68 -0.64
-2.80 2.15 -2.17
-4.26 -0.51 -1.83
-1.74 -3.69 -0.91
-1.35 0.50 -2.71
-0.66 1.17 -2.53
1.88 -5.98 -1.68
1.38 -3.73 -1.51
-2.99 2.20 -2.92
-5.17 -2.29 -1.48
2.94 -0.29 -2.60
1.47 -3.89 -2.04
-0.49 -3.26 -2.17
-0.25 -1.23 -2.33
-3.77 4.71 -3.38
2.22 -0.47 -3.38
-4.78 3.05 -2.91
-3.10 -4.82 -0.98
-5.11 -2.41 -0.90
-5.39 -0.12 -1.54
-0.69 -3.50 -1.80
-3.21 -0.35 -1.67
-3.69 2.65 -2.48
-1.59 0.71 -2.52
0.36 -2.99 -1.95
0.66 2.84 -3.67
-2.27 -2.68 -1.07
-3.68 4.45 -2.54
0.67 -3.69 -2.08
3.60 3.46 -3.47
0.48 2.37 -3.32
-0.04 3.22 -3.12
3.22 1.68 -3.19
-3.63 2.15 -2.85
-2.66 2.14 -2.56
-4.06 0.44 -2.15
-4.83 -3.88 -1.29
3.58 1.11 -3.21
3.89 -2.22 -2.32
-3.62 -3.22 -1.32
-4.94 2.21 -2.16
-2.48 3.64 -2.50
2.97 1.54 -2.94
-3.02 1.51 -2.79
-2.47 -1.45 -1.61
-4.63 0.72 -1.53
-4.38 -0.25 -2.10
0.34 1.25 -2.83
0.25 -3.76 -1.53
2.62 1.47 -2.91
-4.69 -3.94 -1.08
-1.70 -5.27 -1.11
3.17 -0.25 -3.25
-3.09 2.94 -2.68
-1.60 -1.38 -2.17
3.35 3.27 -3.47
3.91 -2.60 -2.68
2.44 2.64 -3.60
0.28 3.09 -2.99
5.31 -1.16 -3.40
-1.53 -3.53 -1.76
-0.09 -5.23 -1.66
-2.99 -2.29 -1.33
1.80 1.03 -2.81
-1.58 -3.22 -1.57
-4.09 -4.51 -0.76
1.90 2.22 -3.08
-4.29 -5.61 -0.08
-3.81 -1.83 -1.60
-4.25 2.71 -2.56
-3.46 -6.20 -0.71
1.61 0.13 -2.49
-1.75 -2.45 -1.99
-1.21 -1.98 -1.49
-3.17 5.33 -2.61
3.67 1.81 -3.51
3.38 -5.38 -2.40
4.04 1.31 -3.38
1.31 -0.67 -2.90
-1.44 -1.83 -1.94
-1.42 -1.28 -2.22
-2.74 -3.28 -1.78
-2.48 3.11 -3.04
1.96 -1.41 -2.06
-1.06 -2.39 -1.46
-3.57 -2.87 -1.20
-3.36 -2.02 -1.29
3.59 -0.38 -3.37
3.38 -2.15 -2.32
3.50 4.71 -4.42
3.14 -1.48 -3.05
1.19 2.98 -3.05
2.51 -4.91 -1.29
0.65 0.62 -2.35
-2.43 2.41 -2.28
-3.40 3.02 -2.94
-4.12 4.64 -3.26
1.36 3.08 -3.78
-0.20 2.58 -3.43
1.65 4.78 -3.54
3.04 -0.64 -2.61
-5.59 0.91 -1.84
0.07 -3.64 -2.13
-3.03 0.60 -2.52
0.22 2.32 -2.76
-3.72 -1.64 -1.68
-0.94 3.24 -2.68
-1.31 0.06 -2.73
4.24 -2.54 -2.86
0.87 2.41 -3.21
2.78 -0.97 -2.74
3.34 0.99 -3.32
4.77 -0.46 -2.69
1.60 -1.26 -2.42
-0.49 1.21 -2.69
2.33 3.47 -3.82
0.65 2.00 -3.07
0.85 -3.95 -1.66
1.67 -3.30 -1.61
-4.28 -1.47 -1.69
-3.50 0.08 -2.28
-3.74 -4.02 -1.11
-0.96 -2.94 -1.27
-2.03 -0.06 -2.05
3.62 4.77 -4.04
-4.44 -3.87 -0.68
-3.61 -3.10 -1.01
-0.32 -1.38 -2.40
2.37 4.28 -3.89
-3.20 -0.90 -1.19
3.53 3.11 -3.80
1.99 0.04 -3.16
-4.60 2.72 -2.39
-3.01 2.88 -2.49
-0.06 2.85 -3.06
-2.95 4.59 -3.08
4.27 -3.18 -2.18
3.43 3.94 -4.27
3.48 3.09 -3.45
2.95 -6.18 -1.23
-4.60 -0.60 -1.12
-1.02 3.08 -2.84
-1.65 3.57 -2.77
-2.98 2.43 -2.06
-2.67 -5.76 -0.54
-2.92 -2.84 -1.87
-0.02 1.64 -2.86
2.02 -1.36 -2.64
-2.57 -2.41 -1.34
3.18 -1.48 -3.00
-0.61 -4.21 -1.46
3.48 -1.08 -3.35
2.90 -2.38 -2.40
4.79 -1.55 -3.31
-4.59 -4.74 -0.94
2.14 0.99 -3.50
2.25 -0.23 -2.42
-0.82 4.41 -3.84
-0.83 -1.22 -1.69
2.40 -3.89 -1.82
-3.16 -0.49 -2.34
-2.81 -2.28 -1.20
1.92 -1.60 -2.36
-1.67 -0.17 -1.63
0.51 4.16 -3.95
-3.67 2.14 -2.46
-0.79 2.46 -2.51
-1.88 -1.67 -2.02
4.22 -2.80 -3.08
-1.65 -3.90 -0.88
-3.79 3.74 -2.28
-5.15 -2.32 -0.79
-0.22 4.20 -3.13
-2.66 2.66 -2.67
2.72 -1.41 -2.88
1.53 -0.87 -3.01
-0.73 -0.59 -2.43
2.80 0.27 -2.77
2.33 3.06 -4.01
0.25 1.89 -2.62
0.41 2.32 -3.29
-2.28 2.03 -2.59
4.32 1.52 -3.46
-3.61 2.79 -2.49
-0.22 4.77 -3.14
3.25 2.66 -3.54
0.35 2.09 -3.37
2.12 3.93 -3.43
0.12 1.67 -2.68
-1.87 -3.27 -1.06
3.26 -4.70 -1.93
3.19 -2.24 -2.93
2.73 1.09 -3.65
-3.82 -5.22 -0.82
0.59 -2.51 -2.23
-0.38 -2.48 -1.93
1.82 -4.78 -1.42
3.83 0.53 -3.22
-2.08 0.87 -2.05
-4.62 -5.50 -0.92
0.56 -1.01 -2.22
3.57 0.14 -3.33
-1.68 -2.73 -2.02
-5.16 1.92 -1.90
-0.96 2.50 -2.75
-3.93 -3.65 -0.49
-1.18 1.44 -2.74
-1.09 0.03 -1.95
-3.33 2.06 -2.46
1.00 -4.11 -1.90
-5.54 3.61 -1.95
-0.64 0.53 -2.68
0.88 3.24 -3.29
4.66 3.04 -3.67
0.15 -0.86 -2.58
-2.10 -4.26 -1.59
-0.20 -1.82 -2.44
1.45 0.88 -2.56
-0.08 0.05 -2.87
1.62 -1.37 -1.99
-4.16 -2.26 -1.28
-2.89 -1.91 -1.86
4.10 4.13 -4.18
-4.54 3.49 -2.19
2.26 -5.88 -1.36
-2.63 -1.54 -1.98
0.65 -1.37 -2.35
2.37 -2.78 -2.24
-4.82 0.40 -2.20
0.13 -1.40 -2.75
1.99 2.07 -3.54
1.90 0.53 -2.91
0.83 2.30 -3.19
-2.97 1.22 -2.64
2.04 -2.25 -2.53
0.92 0.70 -3.24
-2.69 -3.94 -1.08
3.20 2.24 -3.91
0.46 0.90 -2.47
-4.96 -4.37 -0.93
0.90 -3.57 -2.04
0.43 -4.37 -1.32
-1.82 4.70 -3.54
-4.55 -4.93 -0.13
-4.88 4.14 -2.29
2.62 -2.03 -2.18
-0.63 2.68 -3.08
-4.23 2.79 -2.63
-0.10 3.52 -3.52
1.39 0.94 -3.03
3.31 -5.04 -1.93
2.28 -4.22 -1.86
-2.28 -4.57 -1.11
-0.64 -3.33 -1.83
2.87 -0.81 -2.77
0.34 -0.56 -2.87
-0.13 2.91 -2.77
-1.23 -2.05 -1.78
-4.62 -0.32 -1.54
-0.10 3.87 -3.84
4.34 1.89 -3.75
1.50 2.46 -3.77
-1.71 -0.21 -2.41
-4.89 -1.68 -1.17
-3.30 -0.77 -2.10
-0.73 -2.30 -2.18
1.35 -1.62 -1.94
3.48 0.11 -3.74
-0.90 1.27 -2.20
1.59 -4.21 -1.62
3.77 3.50 -4.34
-4.00 -5.13 -0.34
-2.75 3.11 -3.18
-1.68 4.04 -3.45
-0.06 -3.54 -2.00
-2.39 4.38 -2.78
2.92 -2.41 -2.29
-2.49 4.99 -2.98
-0.28 2.85 -3.26
3.98 -1.80 -2.82
-1.70 2.25 -2.89
1.96 4.23 -3.62
-1.34 -3.36 -1.50
-4.10 -2.48 -0.69
3.42 -0.02 -3.55
-1.56 4.12 -2.99
4.29 3.59 -3.54
2.13 1.94 -3.52
-1.19 1.27 -3.06
-0.42 0.75 -2.18
2.36 2.44 -3.58
-1.64 -0.40 -2.41
2.85 -1.11 -2.51
-4.58 3.66 -2.41
-1.06 3.21 -3.54
0.22 2.02 -2.63
-3.77 -0.62 -1.28
-3.53 2.94 -2.56
-0.21 1.61 -2.91
3.86 -5.80 -1.69
-4.62 -1.03 -1.86
2.48 3.29 -3.62
-1.28 0.19 -1.97
-2.89 4.18 -2.61
-2.60 -5.10 -0.45
-3.42 2.08 -2.02
2.32 -3.48 -1.57
-5.05 -3.39 -1.32
-4.98 -1.19 -1.11
-4.61 -2.32 -1.75
-3.02 0.91 -2.54
1.19 -2.12 -2.30
0.47 2.81 -3.45
5.64 -1.09 -2.89
-3.63 2.12 -2.08
-3.78 -0.07 -2.29
2.33 -3.69 -2.28
-5.12 3.60 -2.33
1.68 -2.98 -2.19
5.08 -5.41 -1.97
-2.38 -1.62 -1.18
3.71 -0.02 -2.99
1.60 5.47 -4.31
-3.32 -4.18 -1.02
-4.09 1.62 -2.50
-2.45 -4.64 -1.25
-3.48 -4.16 -1.23
-0.17 -0.11 -2.43
-4.49 -3.85 -1.24
0.14 4.76 -3.87
-3.76 0.05 -1.93
0.41 -1.79 -2.56
-5.19 1.57 -1.44
5.06 -2.32 -2.91
-0.47 4.92 -3.81
-0.96 1.08 -2.87
3.75 3.77 -3.86
0.65 -0.17 -2.53
3.50 -3.51 -2.26
-4.23 -2.04 -1.43
1.87 -0.04 -3.09
-1.41 0.79 -2.26
1.76 -1.10 -3.08
-4.14 2.27 -2.49
4.03 -0.19 -3.40
-3.99 -1.31 -1.75
-2.39 -1.99 -1.91
-4.06 1.09 -1.83
4.26 3.37 -4.19
-1.89 3.17 -2.66
1.94 2.75 -3.83
2.94 1.25 -3.21
-1.05 -2.48 -1.29
-0.17 -1.28 -2.01
1.31 -4.47 -1.97
-3.28 2.34 -2.54
-1.82 0.63 -1.97
-0.63 -4.74 -1.33
3.33 -1.75 -2.25
2.74 -3.60 -2.43
-4.96 2.75 -1.89
4.45 1.10 -3.49
-3.99 2.03 -2.74
-5.39 0.72 -2.17
-0.41 1.23 -2.44
2.34 3.63 -3.75
-2.03 3.36 -2.76
3.94 1.14 -3.78
-1.90 -2.05 -1.26
-2.72 1.70 -2.37
3.13 -3.64 -1.87
0.00 -4.55 -1.45
-0.34 -1.14 -2.20
2.53 0.99 -3.70
3.85 -0.35 -3.33
-3.53 1.64 -2.74
1.63 0.34 -2.73
-5.48 -2.58 -0.88
-3.29 2.86 -2.44
0.77 0.79 -2.80
-3.32 -1.96 -1.20
-1.53 1.97 -2.26
1.34 -2.87 -2.57
1.32 -2.90 -1.76
-0.39 -2.78 -1.62
2.92 -2.68 -2.31
-2.47 -4.62 -1.23
0.78 1.43 -3.11
2.90 1.60 -3.66
0.54 -0.01 -2.33
-1.99 -2.79 -1.68
1.33 2.38 -3.63
-1.14 -1.30 -2.33
-2.36 -3.99 -1.09
-1.99 -3.85 -1.52
-4.35 -3.51 -0.53
1.60 0.48 -2.70
-4.42 -4.32 -1.01
-3.33 -0.64 -1.74
1.52 -1.04 -2.81
0.31 4.66 -3.08
-3.79 0.71 -2.20
-4.32 4.32 -2.64
-5.69 -3.90 -0.50
-3.06 -1.22 -1.33
2.93 2.34 -3.70
0.69 -2.74 -1.87
-1.83 -2.73 -2.03
-0.48 -3.96 -1.45
-1.33 -5.25 -1.28
1.42 -3.05 -2.09
3.00 0.31 -3.06
-3.42 -1.85 -1.90
2.21 3.33 -4.09
-4.32 1.87 -2.43
2.71 -1.73 -2.74
3.96 -2.50 -2.77
2.17 -2.06 -2.94
-2.34 2.00 -2.66
3.21 1.80 -3.46
-3.51 -2.08 -1.83
-1.77 -3.67 -1.75
-3.66 -2.40 -1.18
1.94 2.31 -3.60
-0.53 -5.47 -0.74
-1.76 0.10 -2.74
4.01 3.45 -3.69
-2.09 1.46 -2.32
4.91 -3.95 -2.84
-3.59 2.61 -2.66
3.71 3.40 -4.26
-1.93 -4.36 -1.57
-3.79 3.23 -2.54
-1.40 1.86 -2.30
-2.44 -4.04 -1.39
-2.62 -2.28 -1.31
2.95 2.57 -3.31
2.28 -0.20 -2.48
-0.29 2.58 -2.94
-2.70 1.22 -2.23
-0.94 1.90 -3.12
-2.09 0.18 -2.11
1.06 0.13 -2.65
-2.20 -4.78 -0.87
4.26 0.95 -3.79
-3.98 -0.21 -2.18
-0.10 -0.88 -2.54
-4.45 -1.06 -1.77
-0.11 -1.02 -2.24
-4.51 2.74 -2.10
0.19 -0.22 -2.06
-2.54 -2.15 -1.72
-0.30 2.35 -2.81
-4.71 1.85 -2.07
-0.20 5.08 -4.00
3.10 -3.29 -2.74
3.59 -1.19 -3.00
0.61 4.05 -3.69
-4.54 1.01 -2.37
4.02 1.82 -3.17
-0.70 1.60 -2.65
-1.83 -2.08 -2.09
2.79 3.48 -3.60
-1.93 2.93 -2.97
-2.41 -2.82 -1.08
0.68 -2.32 -1.80
1.58 -3.32 -2.03
0.42 -3.47 -1.86
2.40 -1.23 -2.73
0.42 -3.62 -1.69
3.73 -4.92 -2.18
2.71 3.20 -3.85
2.69 2.36 -3.86
-0.64 -4.34 -1.77
-3.43 -3.09 -1.71
2.94 -0.32 -2.77
-1.91 -5.72 -0.65
3.86 -4.06 -2.58
4.38 -5.02 -1.73
-0.41 3.18 -3.18
-1.05 1.26 -2.53
-3.15 -0.84 -2.28
-0.71 -1.29 -2.23
2.43 2.30 -3.56
-5.14 0.47 -1.87
1.70 2.89 -3.19
0.20 3.45 -3.57
2.54 -3.07 -2.05
-4.31 4.62 -2.59
1.55 -0.66 -2.76
-2.62 -3.90 -1.19
0.14 -5.77 -0.94
0.34 -1.33 -2.19
-1.39 0.49 -2.81
3.87 -1.48 -2.87
3.74 -1.70 -2.91
-3.73 3.12 -2.89
-1.85 3.04 -2.81
1.73 2.78 -2.98
-1.19 -0.57 -2.05
-0.22 -5.44 -1.65
0.71 -3.30 -1.56
1.17 -3.24 -2.07
0.38 -1.07 -2.48
2.67 -6.16 -1.62
-2.19 -4.67 -1.30
0.85 1.39 -2.80
0.26 0.66 -2.58
-1.50 -2.33 -1.66
0.46 -4.88 -1.49
2.73 -0.46 -2.71
3.92 -5.94 -1.67
-4.81 -2.55 -1.15
-0.88 -2.46 -2.00
-1.64 -4.64 -0.85
3.99 -1.91 -3.05
-4.41 -4.43 -0.76
-5.68 1.88 -2.01
-5.55 -5.51 -0.68
2.36 1.48 -3.46
-0.70 -0.68 -2.68
-2.49 -2.83 -1.11
-4.12 2.00 -1.70
-2.31 1.56 -2.77
0.74 -0.41 -2.93
-4.79 -5.00 -0.64
-1.59 3.22 -3.44
2.50 0.08 -2.75
-2.01 -4.38 -1.12
0.79 -1.41 -2.67
0.17 4.17 -3.25
-2.06 -0.63 -1.79
3.51 -1.47 -3.13
-0.31 -0.35 -2.33
-2.61 -1.86 -2.06
0.95 -1.42 -2.57
2.82 -4.29 -2.16
-1.23 -4.54 -1.41
1.24 -1.78 -2.19
-0.06 4.20 -3.13
-3.74 -2.35 -1.49
1.95 -4.23 -2.30
-4.84 -2.47 -1.35
1.31 3.55 -3.15
-0.76 1.06 -2.67
-2.20 3.30 -2.72
4.09 -3.04 -2.96
1.81 2.74 -3.41
2.02 2.25 -2.95
-3.10 -1.07 -2.18
1.80 -0.28 -3.02
-1.63 0.50 -2.17
4.15 -3.91 -2.79
0.03 -2.43 -1.90
0.27 -1.02 -2.84
3.44 2.67 -3.56
2.04 -1.74 -2.44
-5.72 -5.74 -0.72
-3.63 2.51 -2.73
0.48 0.14 -2.86
2.10 -1.45 -2.32
-5.45 -5.97 -0.02
3.07 -4.55 -2.10
-1.93 2.09 -2.67
1.83 2.91 -3.84
-0.35 -2.54 -1.50
-3.82 -5.05 -0.95
0.58 0.97 -2.58
2.22 -3.93 -1.78
3.63 -4.30 -2.39
3.12 3.12 -4.24
-1.29 -4.31 -1.14
2.77 -4.03 -1.98
-4.31 2.14 -1.90
0.85 -2.68 -1.70
3.57 -2.17 -2.52
1.20 3.58 -2.98
2.46 2.22 -3.50
3.13 4.58 -3.91
-0.74 3.63 -3.64
-3.51 1.60 -2.63
1.66 0.86 -3.37
-0.70 -4.31 -1.23
-1.19 -3.91 -1.76
-5.01 -4.43 -0.26
0.15 -2.18 -2.38
1.53 -3.03 -2.45
-3.51 2.57 -2.26
-3.38 -2.53 -1.03
-4.59 -3.69 -0.85
-0.42 3.17 -3.16
-4.06 0.10 -2.12
-3.90 -0.45 -1.35
0.79 -4.32 -1.20
-5.41 0.53 -1.70
-3.82 -4.29 -1.10
-5.07 3.06 -2.60
4.14 2.23 -4.14
-2.60 4.22 -3.43
-4.06 -1.61 -1.47
1.93 0.29 -2.53
-4.72 -3.15 -0.74
-1.35 -1.76 -1.47
0.54 4.13 -4.04
-0.15 -4.98 -1.68
2.13 -4.99 -1.70
-1.63 0.70 -1.97
-4.16 -2.08 -1.34
-3.55 -0.41 -2.18
2.70 -3.28 -2.78
-4.32 0.54 -1.52
0.00 -0.43 -2.86
3.12 -3.33 -2.65
-5.56 -1.06 -0.93
3.35 -0.27 -3.02
4.35 -0.40 -2.71
-1.36 0.58 -1.88
2.39 -2.70 -2.46
-3.09 -3.47 -0.73
-4.83 0.09 -2.17
4.70 2.62 -3.91
-2.83 1.06 -2.11
0.52 1.32 -2.42
3.94 4.08 -4.45
0.55 -3.79 -2.43
3.68 -4.01 -2.22
2.27 -4.13 -2.35
-3.63 1.86 -2.68
2.03 -5.24 -1.17
2.11 0.52 -2.74
-0.65 0.91 -2.85
3.58 -2.10 -2.65
-2.31 2.11 -2.94
0.28 0.88 -2.98
0.97 0.66 -2.71
-1.57 -1.97 -2.18
0.77 -1.11 -2.13
-4.06 -0.54 -2.07
1.61 0.32 -2.51
-1.76 -4.63 -1.18
3.78 -0.11 -3.50
-0.02 -1.77 -1.86
0.45 -3.17 -1.81
-4.36 2.02 -1.83
2.42 -0.71 -3.32
-1.05 0.28 -2.89
1.30 -0.52 -3.02
-1.84 1.66 -2.42
-3.02 -1.74 -1.80
0.70 3.24 -3.75
-3.98 0.20 -1.94
2.56 2.54 -3.46
-3.80 0.16 -2.25
-0.70 3.28 -2.68
-0.93 -5.70 -1.40
-1.24 1.86 -3.06
-2.07 2.64 -2.54
-2.52 -1.97 -1.77
2.24 3.15 -3.96
-2.50 -2.94 -1.42
2.65 0.03 -2.58
-2.28 2.15 -2.66
0.45 2.55 -3.64
2.19 3.52 -3.18
1.03 -3.47 -2.40
0.66 -5.08 -1.67
-4.40 -3.32 -1.46
-2.29 -1.81 -1.26
3.55 0.64 -2.91
2.76 -5.53 -1.49
-3.65 1.62 -2.07
2.35 -2.21 -2.55
1.79 -0.51 -2.43
-2.21 1.19 -2.48
-5.75 2.75 -2.59
3.68 -4.84 -2.26
-2.99 0.17 -2.11
-0.91 1.67 -2.87
3.45 1.00 -3.71
0.12 1.68 -3.50
-1.72 -3.78 -0.89
1.81 -1.21 -3.00
2.66 -4.92 -2.10
-4.17 2.05 -2.38
-2.36 2.24 -2.66
-3.30 2.84 -2.28
-5.44 -2.39 -1.10
3.77 -3.58 -2.18
-2.74 -1.67 -2.02
-0.22 1.79 -2.71
1.98 -3.64 -2.12
-4.72 -4.41 -0.61
-4.62 -4.32 -1.26
3.95 -5.86 -2.23
2.03 -4.50 -1.59
-2.35 -2.93 -1.69
4.85 -4.51 -2.18
4.49 -0.77 -2.74
-3.94 -0.27 -1.70
-1.51 2.18 -2.87
-0.63 0.20 -2.33
1.10 -0.47 -2.76
-2.71 0.47 -2.66
2.67 3.41 -3.27
2.23 3.39 -3.47
-4.20 -2.14 -0.69
-1.54 -4.69 -1.46
-4.96 0.68 -2.15
-2.66 1.91 -2.95
-3.48 2.09 -1.95
-3.03 -2.05 -1.71
2.87 -4.52 -1.75
-3.50 -3.53 -1.30
-0.66 -5.16 -1.40
-0.57 -0.33 -1.84
-0.33 0.64 -2.39
-0.28 -3.31 -2.17
1.96 -5.43 -1.54
-2.46 -3.28 -0.86
0.43 3.63 -3.92
-3.37 1.58 -2.65
-3.47 -0.25 -2.06
0.65 1.77 -2.88
3.07 -2.01 -2.12
-1.72 -4.01 -0.99
-2.07 -1.50 -1.98
1.07 0.77 -3.08
4.34 -1.09 -3.05
-3.75 -0.70 -1.57
-3.24 -4.78 -1.07
-5.29 -2.96 -1.30
-3.99 3.25 -3.13
-2.60 -4.07 -1.00
2.46 3.96 -3.44
2.45 0.46 -3.30
-3.49 -2.76 -0.97
-4.62 -3.54 -0.78
-3.82 3.63 -2.36
2.99 3.72 -4.43
-2.73 2.01 -2.28
-1.16 -3.18 -1.39
-2.27 3.93 -2.72
-4.22 2.42 -2.12
-1.36 0.56 -2.73
3.27 -0.30 -3.07
-4.40 -0.71 -1.12
-4.29 -1.05 -2.01
-3.73 -0.10 -1.54
1.89 0.40 -2.45
-0.07 3.31 2.02
-0.33 1.69 3.73
-0.63 3.68 1.49
-0.63 4.90 -0.94
-1.49 2.00 -2.02
-1.40 -1.99 4.10
-4.16 -4.50 -1.20
-2.08 2.10 -3.47
-3.55 -5.25 1.23
-0.58 2.81 1.98
-0.40 0.22 4.40
-1.22 3.17 -2.40
-3.98 -3.86 -0.69
-4.59 -3.12 -2.46
-0.11 2.11 2.59
-0.93 -1.85 4.57
-0.36 2.44 2.94
1.82 5.90 4.52
0.55 2.68 3.75
-1.83 0.79 -0.24
0.41 5.06 1.68
-2.12 1.81 -2.27
-2.36 -2.55 1.49
-0.91 2.48 1.53
-2.66 1.94 -3.32
-2.70 -0.00 -1.19
-2.34 2.79 -3.04
-3.05 -1.41 -1.26
-1.76 0.26 -0.18
-1.99 -0.44 2.24
-2.27 2.59 -1.84
-2.32 2.54 -3.98
-2.87 -1.94 0.74
-1.88 -2.83 4.70
-0.75 0.98 2.77
-0.62 5.61 -1.05
0.87 3.91 2.64
-0.25 4.05 1.20
1.00 4.41 4.70
-0.95 3.36 -1.58
-2.63 -3.88 4.31
-4.56 -3.36 -1.33
-0.86 3.07 -0.24
-1.10 3.56 -0.67
-0.67 0.23 2.91
-0.62 2.06 2.64
-1.83 -3.57 4.45
-1.30 2.04 -1.28
-0.33 2.59 2.17
0.71 3.73 4.79
-2.24 -0.30 1.63
-4.67 -3.10 -3.83
0.73 3.80 4.55
-3.10 -2.04 -1.54
-1.00 -0.72 4.82
-1.04 0.79 4.59
0.43 3.13 4.20
-3.61 -3.39 0.89
-1.45 1.82 -0.60
-2.59 -1.22 1.21
-2.83 -1.40 1.31
0.14 4.88 -0.56
0.13 4.29 2.96
-4.70 -2.95 -2.35
-1.48 0.18 0.46
-3.07 0.14 -1.19
-1.66 2.61 -2.83
-1.86 3.92 -3.60
-2.35 1.05 -3.44
-1.31 1.83 1.22
-2.41 -1.77 0.90
-2.48 1.18 -2.78
-2.90 -2.08 1.30
-2.74 -2.31 -0.05
1.04 3.81 4.05
0.22 4.65 2.18
0.89 4.29 3.41
0.44 4.48 1.86
-0.59 -0.11 3.93
-1.80 -2.99 4.26
-1.22 -1.02 3.10
-0.30 1.17 3.67
-3.32 -1.64 -2.41
-3.38 -0.22 -2.82
-0.42 3.23 2.36
-2.85 -0.62 -3.11
0.21 2.54 1.65
-0.92 1.63 2.53
0.89 4.88 1.83
-2.33 -0.45 -0.24
1.60 4.95 4.80
-2.85 -1.05 -1.66
-0.90 -0.13 5.77
-2.18 -1.63 1.30
0.04 1.79 4.91
-1.63 1.54 -0.60
-1.03 -1.58 5.47
-2.70 1.62 -2.94
-1.40 3.59 -2.77
-1.20 3.67 -2.24
-1.92 -2.83 4.31
-0.34 2.56 3.05
-2.61 -0.60 1.38
-1.05 1.80 0.83
-0.24 3.12 1.30
-0.02 3.47 2.13
-2.35 -2.13 4.30
0.72 2.75 3.78
-2.07 0.83 -2.44
-3.20 -2.24 -0.55
-2.68 0.51 -3.43
-2.57 2.39 -2.76
-1.55 4.60 -2.90
-1.15 2.43 -1.45
-2.47 -1.75 1.37
-1.13 2.22 -1.02
-1.92 0.03 1.79
-1.84 -2.65 3.68
0.26 1.86 3.87
-3.42 -1.93 -1.14
-1.25 3.56 -0.39
-2.21 2.42 -3.27
-1.72 -0.92 4.73
-3.42 -4.26 2.00
-4.31 -2.10 -4.48
-1.25 1.81 0.20
-4.54 -1.82 -3.18
-2.89 -3.93 3.07
-1.90 4.27 -4.47
-1.68 3.59 -2.30
-3.26 -1.35 -1.61
-0.64 1.27 2.53
-3.12 2.09 -5.04
-3.01 1.76 -3.92
-1.83 3.40 -3.14
-3.94 -2.31 -1.15
-4.47 -4.41 -0.42
0.34 0.95 5.09
-2.95 -3.88 0.84
-1.14 -0.79 2.94
-1.81 2.38 -2.57
0.75 5.63 3.09
0.62 3.61 2.71
-1.22 -0.50 2.60
-2.05 1.32 -0.85
-3.00 -3.10 2.28
-0.85 2.78 1.14
1.19 4.44 5.37
-1.36 1.94 -0.53
-0.98 3.03 0.82
-1.61 3.51 -3.74
-1.19 1.78 1.30
1.10 3.81 3.79
-3.46 -3.33 1.31
-2.48 -0.31 -1.24
-0.07 0.31 4.24
-1.08 4.91 -2.19
-2.81 -3.95 1.24
-0.53 1.11 3.32
-1.69 -1.63 4.31
-3.75 -1.14 -3.16
-0.85 -1.66 4.50
-3.60 -4.26 1.37
-1.07 4.57 -3.51
-2.03 1.47 -1.03
-5.43 -4.27 -3.69
-0.90 -1.38 5.85
-2.12 -0.20 -0.41
-2.09 0.68 0.24
-3.02 0.70 -3.10
-2.78 -0.15 -0.91
-0.48 4.68 0.69
-2.47 -3.01 2.34
-2.17 2.80 -3.40
-1.98 -3.35 4.88
-1.51 -0.83 2.90
-0.19 6.29 -0.08
-1.82 3.51 -3.38
-1.78 -1.30 1.33
-2.31 -1.35 1.28
-0.58 3.81 2.21
-4.29 -3.09 -2.77
-1.87 1.71 -2.07
-0.69 -0.63 4.81
-1.95 -1.43 1.04
-1.09 -0.27 3.55
-3.18 -4.21 1.19
-3.19 -1.32 -0.13
-0.80 0.48 4.54
-1.74 2.09 -0.46
0.07 2.14 3.19
0.36 5.96 -1.83
-0.19 1.95 3.15
-1.15 -1.71 3.67
-2.37 -2.66 1.52
-2.49 -1.80 3.02
-0.93 2.49 1.18
-0.26 4.07 1.31
-0.87 -0.47 5.20
-3.76 -3.89 0.68
-2.20 -1.60 2.08
-3.26 1.02 -3.64
-2.24 1.28 -1.50
-2.56 1.47 -2.92
-1.30 1.48 0.30
-0.23 3.51 2.09
-2.57 -0.04 0.08
-1.78 1.37 0.63
-3.61 0.49 -4.47
-3.35 -3.45 0.38
-3.45 -4.49 2.24
-1.43 -0.54 1.52
-1.84 2.52 -2.95
-3.03 -2.80 0.96
-1.74 4.04 -3.40
-2.21 -0.15 -0.73
-2.29 -1.44 2.04
-3.73 -0.33 -3.96
-0.24 2.42 4.53
-2.72 1.44 -4.06
-1.06 4.31 -2.30
-2.47 -0.35 -0.70
-1.49 2.23 -0.08
-1.79 2.78 -2.72
-1.21 5.64 -2.55
0.17 2.46 2.80
-1.08 -0.61 4.47
-0.37 1.96 2.61
0.34 3.75 1.86
-0.44 4.20 -0.61
-1.95 1.66 0.47
-1.99 2.18 -3.01
-2.46 0.79 -2.88
-2.20 -0.89 0.43
-0.50 3.93 0.49
-0.67 4.40 -0.28
-4.46 -2.47 -3.13
-0.67 0.27 2.94
-4.00 -3.49 -2.06
-2.88 -5.05 3.93
0.16 4.40 0.55
-2.09 1.99 -1.88
-2.03 0.11 0.15
-2.86 -1.27 0.98
-3.79 -1.14 -3.97
-2.70 -1.43 1.77
0.65 3.41 2.55
-1.40 0.30 3.35
-1.85 -2.86 3.50
-2.58 -1.10 -1.33
-3.31 -0.17 -3.11
-1.61 -1.21 3.43
0.31 3.42 1.54
-1.71 3.02 -1.67
-0.53 3.29 1.88
-1.87 1.27 -0.29
-3.28 -2.47 -0.78
-0.78 2.97 1.30
-0.08 4.17 2.15
-3.62 -1.86 -1.16
-0.11 3.83 1.59
0.56 4.28 3.30
-0.60 3.35 0.67
-4.20 -2.05 -4.08
-1.78 2.21 -1.13
0.15 5.71 -0.78
0.51 2.55 3.20
-0.29 2.60 2.70
-4.31 -4.74 -1.19
-0.84 5.24 -1.08
-1.81 2.07 -3.96
-3.15 -3.30 3.33
-3.26 -1.84 0.41
-2.36 -2.63 3.90
-0.54 0.19 3.64
-1.75 -0.62 1.05
-3.54 1.08 -4.02
-3.87 -4.09 -0.11
-1.76 2.67 -1.73
-2.98 -1.00 -2.58
-1.66 1.50 0.01
-3.32 0.62 -3.24
-3.26 -3.43 0.72
-1.22 -1.02 5.25
-1.81 -1.40 3.93
0.34 3.26 4.34
-1.18 -0.06 4.05
-3.56 -0.80 -2.61
-2.42 -3.85 4.74
-4.27 -4.43 -3.00
-1.39 -0.55 4.88
-1.10 2.20 2.07
0.16 3.44 3.71
-0.83 5.81 -1.97
-0.99 3.96 -1.04
-1.99 1.81 -1.59
-3.00 -1.31 -0.21
-1.32 0.91 0.81
1.55 5.81 3.05
-4.25 -1.99 -3.98
-1.37 2.79 -2.68
-1.57 2.56 -1.99
-1.67 1.61 -2.55
-0.94 3.34 -0.48
0.13 1.36 3.58
-2.51 -2.12 -0.73
-0.86 3.66 -0.96
-1.85 -1.37 2.58
-0.48 3.22 0.22
-1.92 -1.89 4.22
0.58 2.31 5.63
-3.42 -0.48 -2.06
-4.22 -2.77 -1.85
-2.26 -0.51 -0.74
1.32 3.70 5.56
-3.81 -2.39 -2.30
-3.62 -2.65 -0.54
-2.31 -0.94 0.02
-0.99 -0.17 2.04
-0.43 2.76 0.76
-0.19 3.48 0.56
-1.99 0.11 0.60
-1.51 3.69 -1.56
-2.04 -1.40 0.46
-1.02 -0.23 3.85
-2.20 -1.43 2.65
-2.75 -1.77 0.89
-2.27 -1.34 0.02
-3.53 -4.61 2.54
-1.94 -0.88 1.16
-1.11 3.02 -1.89
-1.01 -0.72 5.25
-3.54 -5.45 3.42
-0.33 4.34 -1.11
0.69 3.46 2.27
-4.14 -2.86 -2.01
-1.46 1.33 0.14
-1.74 -2.62 4.47
-2.44 -0.85 1.58
-3.87 -2.67 -3.90
-1.95 -1.81 1.43
-2.64 1.14 -2.15
-1.93 0.78 -0.99
-1.90 0.46 1.37
0.12 2.37 2.74
-4.14 -4.01 -1.51
0.66 6.89 -1.00
-0.87 -0.48 3.93
-4.58 -4.99 -0.31
-0.37 0.02 5.62
-3.41 -0.37 -3.96
-3.00 -1.34 -0.92
-4.27 -1.62 -3.43
0.67 2.61 4.48
-1.94 -1.96 1.83
-1.39 2.15 0.83
0.86 3.45 3.45
-1.35 2.05 -0.69
-3.39 -0.77 -2.32
-3.67 -4.36 1.25
-2.37 3.13 -4.10
-2.94 -0.03 -0.60
-0.24 4.72 0.83
-3.30 -5.22 2.80
-2.42 -0.52 0.34
-2.41 3.81 -4.42
0.28 2.33 6.07
-0.78 2.24 1.19
-4.39 -2.20 -4.11
-0.50 5.76 -0.35
-1.26 2.93 -1.41
-2.11 -0.68 2.32
-1.33 -0.09 3.63
-0.98 0.42 5.00
-1.60 0.19 0.76
-2.78 -0.82 -2.07
-0.83 4.55 -0.96
-3.66 -1.61 -2.68
-2.20 -1.63 1.82
-0.99 0.55 4.72
-0.08 4.11 2.41
-2.43 -2.53 0.81
-2.19 -2.32 3.36
-2.39 0.86 -1.66
-1.11 4.53 -4.11
-2.74 -0.27 -2.04
-0.98 5.14 -3.91
-2.76 -0.41 -1.16
-1.33 -1.71 3.92
0.58 0.68 5.97
-4.16 -0.66 -4.43
-0.21 3.62 1.24
-0.67 5.21 -2.90
-0.48 0.94 5.81
-0.94 4.29 -3.34
-0.67 0.91 1.58
0.42 1.55 5.51
1.28 4.71 4.06
-3.86 -0.91 -3.51
-2.55 -3.85 3.72
-4.73 -3.27 -1.65
-2.62 -0.88 -0.00
-0.86 1.78 -0.07
-2.77 -1.71 0.38
-2.39 1.00 -1.80
-2.85 -1.58 1.52
-0.78 3.31 0.17
-2.69 -1.95 1.43
-3.51 -4.81 0.30
-0.55 1.83 3.80
-0.50 2.00 3.80
-0.62 0.43 2.39
-0.24 4.08 1.27
-2.36 1.06 -2.75
0.39 3.22 1.84
-1.94 4.08 -4.20
-1.80 -1.88 3.44
0.36 4.78 1.50
-3.25 -3.13 0.10
-5.13 -3.05 -2.85
-3.04 0.74 -4.59
1.48 4.98 4.23
-2.50 -0.65 -0.58
-1.72 1.26 1.17
-0.52 -0.65 5.95
-2.18 -2.34 3.26
0.72 5.92 -0.28
-1.03 3.16 -0.65
-3.18 -2.01 1.34
-0.67 2.89 0.40
-0.79 2.39 1.55
-1.85 2.84 -4.03
-2.33 -1.23 -0.06
-2.02 2.39 -2.58
-2.48 -2.54 3.94
-0.26 3.55 2.93
-1.39 3.59 -2.67
0.12 2.15 3.93
-2.12 0.80 -2.33
0.22 4.15 2.00
-2.80 -0.35 -3.01
-1.17 3.38 -1.05
-4.63 -2.53 -3.88
-4.46 -3.09 -2.25
-3.14 -0.71 -2.71
-0.65 5.36 -2.39
-2.70 1.11 -4.14
0.22 2.42 3.69
-1.20 -0.18 4.67
-1.40 4.98 -3.55
-1.91 -0.51 3.66
0.12 3.27 1.82
-1.30 0.07 3.94
-2.99 -3.60 1.34
-1.54 1.51 -0.21
0.97 5.57 2.75
-0.04 2.78 2.26
-1.24 1.93 0.77
-2.56 0.29 -2.97
0.77 1.47 5.15
-2.41 -1.42 1.55
-1.10 2.76 -1.10
-0.34 2.03 2.74
-3.41 -0.96 -2.69
-0.15 5.63 -0.62
-1.86 0.05 2.32
-1.02 3.37 1.29
-4.10 -4.78 -1.21
-1.01 4.83 -3.08
0.05 3.22 1.56
-2.00 -2.13 4.00
-2.61 0.05 -1.03
-2.81 -3.98 4.32
-2.39 2.59 -4.42
-2.68 -0.97 0.70
-0.98 -1.40 5.60
-1.45 1.81 -1.34
-1.42 5.04 -3.74
-0.69 1.04 2.19
-1.23 1.53 0.05
0.40 3.06 2.70
-0.26 2.66 3.72
-0.92 0.20 3.69
-0.74 1.83 0.78
-1.08 0.62 3.63
-2.95 -4.52 3.00
0.46 4.66 3.26
1.10 5.76 4.37
-1.94 -1.86 1.67
-3.64 0.47 -3.42
-0.06 3.30 3.54
-0.81 1.02 5.14
0.70 4.79 3.82
-1.05 0.84 0.71
-2.43 -2.19 1.22
-1.41 3.45 -1.39
-0.65 1.84 1.90
-3.10 -0.21 -2.96
-0.84 2.89 -0.11
-2.66 -3.96 2.62
-3.06 -4.26 4.24
-1.13 -0.99 3.60
-4.93 -2.46 -3.85
-1.19 0.95 2.91
0.06 5.33 -0.62
-2.98 -0.16 -0.81
-2.79 -1.24 -2.02
-1.75 -2.51 5.22
-3.08 -4.05 4.30
-1.31 -2.38 5.24
0.51 4.24 2.25
-3.85 -4.08 0.53
-3.22 -2.89 -0.38
-1.81 -1.65 2.96
-3.62 -0.86 -2.65
-1.58 1.18 -1.36
-2.05 1.49 -2.39
-3.84 -2.26 -2.60
0.09 3.27 3.55
-3.87 -5.11 1.36
-4.46 -1.07 -4.84
-1.16 2.13 -0.29
-3.11 1.48 -3.90
-3.55 -3.88 0.85
-1.44 2.41 0.04
-1.67 0.96 1.46
-1.85 -0.39 1.77
1.23 5.42 3.17
-1.44 4.62 -3.88
-1.75 -0.69 3.39
-2.52 -3.09 4.01
-1.41 0.93 1.64
-2.18 1.12 -1.79
-0.26 0.22 5.24
0.02 1.09 4.08
-4.05 -1.37 -4.85
-0.03 2.62 4.08
-2.79 1.28 -3.79
-5.20 -2.68 -3.77
0.01 2.23 3.89
-0.17 2.19 3.87
-0.16 3.69 1.45
-2.76 0.09 -1.62
-3.61 -2.83 -0.35
-1.70 1.26 0.11
-1.38 0.70 0.51
-1.30 2.43 0.63
-0.43 1.11 2.76
-1.59 0.87 0.51
0.03 3.40 1.88
-0.12 5.69 -1.69
-1.27 1.92 -1.69
-1.76 1.32 1.17
-0.20 1.99 4.75
-4.03 -2.63 -3.46
-0.31 1.98 2.96
-2.82 2.56 -3.68
-1.16 1.61 0.30
0.03 2.27 4.35
-3.03 0.71 -3.23
-1.47 -0.30 2.12
-2.20 -0.66 -1.01
-2.76 -3.42 2.06
-3.08 0.89 -4.53
-2.42 -0.96 1.00
-1.18 1.13 1.44
-1.46 -1.95 4.44
-1.89 -2.08 3.55
-4.49 -3.56 -2.94
1.31 4.89 5.67
-2.50 -3.77 2.24
-4.16 -2.52 -2.21
0.55 5.09 2.43
-1.52 -2.33 4.44
-0.51 2.59 0.17
-1.45 -0.27 2.47
-2.62 0.37 -2.60
0.39 2.11 4.79
-4.25 -2.91 -3.18
-1.66 -1.09 1.41
-2.64 -0.56 -0.44
-4.79 -3.62 -2.27
-2.19 -3.37 5.44
-3.04 -0.57 -0.38
-1.78 -1.21 2.34
0.63 2.28 6.12
-3.10 -3.19 1.89
-0.78 3.64 -2.30
-2.56 2.97 -4.52
0.22 0.56 5.48
1.14 4.90 2.48
-1.74 3.78 -2.52
-3.99 -1.91 -1.31
-0.73 -0.46 5.30
-2.78 -0.55 -2.81
-1.89 1.48 -1.22
-1.51 -1.01 3.77
-2.21 -1.05 1.33
-2.08 2.35 -4.39
-3.71 -4.58 2.34
-2.26 1.44 -1.28
-3.32 -1.86 0.13
-1.47 -0.57 4.58
-2.01 0.58 -2.42
-1.17 2.20 0.23
-2.17 -4.22 5.24
-0.65 4.98 -0.25
-1.57 4.54 -4.63
-2.55 -0.02 -0.69
-3.04 0.61 -1.48
-4.21 -2.45 -3.94
0.17 2.72 3.38
0.40 3.66 4.86
1.52 4.99 5.05
-1.50 2.01 0.44
-1.18 1.70 -0.96
0.60 4.35 4.57
-3.68 -2.67 -2.78
-3.00 -0.42 0.17
-2.98 -1.06 -1.73
-1.25 3.85 -1.58
-0.97 0.35 4.33
-1.34 0.40 0.39
0.53 4.41 1.22
-0.80 4.64 -2.66
-0.50 3.06 0.24
-3.57 -4.37 0.15
-1.45 3.77 -3.28
-3.00 -1.95 0.94
-2.79 -0.58 -1.32
-2.35 1.35 -1.02
-1.86 0.57 -0.95
-0.97 5.74 -2.54
-0.64 4.84 -0.52
-0.54 0.68 4.67
-0.83 -0.03 4.40
-3.55 -4.40 3.42
-1.26 1.99 0.62
-4.09 -3.26 -1.58
0.45 4.10 2.21
-3.50 1.21 -4.38
0.66 4.81 3.94
-4.34 -1.52 -3.48
-5.40 -4.39 -3.80
-1.25 0.18 3.51
-2.73 -0.06 -0.53
-1.08 -0.83 3.75
-0.28 1.65 3.20
-0.10 0.95 3.54
-3.90 -0.83 -2.78
-2.91 -0.32 -0.55
-1.02 0.12 4.26
-3.53 -2.61 -0.20
-1.51 2.69 -2.28
0.28 4.29 0.92
0.69 4.08 3.99
-0.03 5.75 -0.07
-1.10 5.05 -1.75
0.23 4.35 1.48
0.02 1.63 3.71
-0.12 5.66 -1.87
-2.10 -2.07 4.27
-1.15 4.92 -2.14
-0.98 2.97 1.17
-3.18 -1.78 -2.26
-3.97 0.80 -5.44
-1.66 1.16 -1.56
-2.08 -2.16 2.65
0.42 1.16 5.91
-0.07 4.23 0.52
0.96 3.82 4.88
-1.59 -1.43 2.04
-0.71 2.87 0.44
-0.98 1.14 1.26
-2.73 -1.65 0.15
-2.01 2.83 -2.41
-3.39 0.02 -4.83
-3.83 -1.02 -2.23
-3.12 0.45 -3.02
-2.75 -1.19 -0.33
-2.55 -1.48 2.33
-1.27 -1.25 3.59
0.83 4.65 1.97
-2.66 -3.75 2.68
-1.51 1.32 -0.51
-1.37 1.75 -0.46
-3.67 -1.66 -0.99
-2.74 0.44 -1.97
-2.52 0.80 -1.49
-3.06 -1.56 -2.12
-0.69 3.75 -0.57
0.09 2.75 5.61
-3.10 -2.67 0.42
-0.56 2.29 0.98
-4.48 -1.80 -3.73
-3.54 -4.08 2.50
-0.71 -0.16 2.46
-3.24 -4.80 3.43
-1.43 0.88 1.38
-3.83 -3.81 1.01
-4.05 -2.98 -1.82
-1.37 -0.22 0.96
-3.29 -1.59 -1.43
0.31 2.50 4.45
-2.03 1.86 -2.08
-3.33 -0.69 -1.01
-2.39 -0.39 0.54
0.16 4.46 0.98
0.10 1.99 4.73
-1.77 2.80 -1.39
-3.44 -0.47 -3.66
-3.06 -2.32 1.49
-3.39 -1.67 -0.23
-2.16 -0.47 0.24
-2.92 0.58 -3.05
-2.75 -3.76 2.39
1.45 5.06 4.92
-1.91 3.03 -2.82
-0.29 0.55 4.32
-1.26 3.14 -1.47
-2.97 -2.92 1.48
-1.45 -2.47 5.34
-4.38 -3.01 -3.16
-2.18 0.38 0.10
-1.23 4.63 -3.72
0.08 3.73 1.01
-1.98 1.66 -2.01
-1.00 0.92 2.42
-3.67 -2.78 0.04
-2.87 -0.12 -0.41
-1.34 0.57 0.93
-2.94 -1.29 -1.24
-2.12 1.48 -0.57
-1.22 2.63 0.77
-2.72 -3.09 1.07
-3.53 -0.38 -5.49
-2.42 3.24 -3.75
-1.41 2.16 -0.10
-1.50 2.12 -0.30
-0.16 1.03 3.11
-4.30 -2.78 -2.78
-1.44 1.51 -0.41
-1.78 1.78 0.07
-1.74 1.67 -2.48
-3.24 2.55 -5.36
-0.92 4.15 -3.08
0.35 4.90 1.03
-1.73 -2.46 4.17
-0.18 3.21 3.61
-2.71 -0.34 -0.57
-0.92 3.24 0.44
-1.37 5.26 -4.15
-2.30 0.92 -2.46
-0.03 0.65 3.94
-3.18 0.66 -3.32
-1.13 0.78 1.86
-0.89 3.65 -2.07
-4.62 -3.61 -3.17
-2.08 1.03 -0.94
-0.17 4.21 0.89
-0.72 3.20 0.84
-3.91 -1.53 -3.70
-3.40 -2.06 -0.36
-3.65 -2.74 -1.72
-1.86 1.92 -3.57
-0.46 0.15 4.05
-1.67 -2.15 5.37
-2.35 -0.22 -1.78
-4.55 -1.93 -3.52
-2.92 -3.59 3.39
-2.08 -0.45 0.61
-5.29 -3.25 -4.21
-5.15 -3.62 -3.54
-0.58 2.25 1.80
-1.78 -2.18 5.14
-1.86 3.19 -4.13
-0.68 4.39 -0.96
-1.11 1.03 2.98
-3.08 0.51 -2.67
0.50 3.43 2.00
-0.54 3.73 -0.37
-0.17 2.74 1.60
-1.67 3.21 -2.74
-4.68 -3.49 -2.41
-1.17 0.69 2.26
0.71 5.52 0.26
-1.86 -1.27 1.53
-0.21 2.42 4.82
0.44 2.32 4.26
0.35 5.46 -0.22
-0.35 3.16 -0.09
-0.83 4.35 -0.69
-1.98 0.22 1.22
-2.72 2.62 -4.66
-0.34 3.75 2.30
-0.96 -0.04 3.26
-1.19 -1.38 4.61
-3.69 -3.97 1.18
-2.48 1.21 -2.48
-1.24 4.64 -3.86
0.98 4.01 4.59
-1.50 0.20 1.58
-2.87 -0.33 -2.30
-4.27 -3.42 -2.02
-1.52 2.90 -2.96
-2.24 1.29 -2.73
-1.70 2.10 -1.58
0.49 1.60 4.82
-2.74 -0.01 -2.76
1.40 6.05 4.30
-3.77 -3.74 0.12
-0.60 0.45 4.54
-2.86 -2.84 3.40
-0.08 0.80 4.37
-1.12 0.68 1.63
0.39 2.40 5.82
-3.09 1.94 -5.03
-2.53 -0.98 0.35
-2.58 1.00 -1.62
-2.38 1.15 -2.51
-3.10 -3.51 3.20
-1.95 0.90 0.42
-1.15 -2.91 5.62
-1.39 3.23 -3.53
-4.19 -3.92 -1.66
-2.18 0.91 -3.12
-0.81 0.48 5.08
-1.68 -0.19 2.49
-3.84 -3.25 -1.89
-0.97 3.07 0.63
-1.57 -0.34 0.93
-2.37 -3.79 3.91
-2.06 0.40 -0.06
-0.77 1.23 3.63
-0.51 3.82 -0.51
-3.15 2.47 -4.25
-2.10 -2.45 4.17
-1.06 3.45 0.15
-2.61 -0.51 0.24
-1.73 0.13 -1.08
-1.79 2.62 -2.24
-2.31 2.44 -2.46
-0.52 3.77 -1.27
0.17 3.95 1.66
-3.55 -0.96 -2.51
-0.72 4.18 -2.09
-2.71 1.56 -4.47
-0.59 2.51 2.34
-1.00 -0.57 5.41
-1.83 4.25 -4.58
-3.33 0.62 -3.62
-0.22 3.60 0.36
-1.67 -0.82 3.52
-2.96 -1.87 -0.02
-0.25 4.68 -1.11
-2.31 1.75 -4.78
-1.44 -0.22 4.24
-0.07 4.55 0.37
-1.68 1.09 0.90
-4.06 -4.20 -0.97
-0.37 3.23 -0.39
-1.75 -1.65 4.28
-1.64 -2.15 3.73
-3.73 -0.27 -3.29
-1.53 -0.06 4.18
-2.91 -0.93 -2.96
-1.00 0.53 1.66
-2.16 0.64 -0.46
-2.55 -0.77 -1.62
-2.60 -3.80 2.62
0.92 3.68 5.15
-5.03 -3.97 -3.50
-3.97 -2.79 -2.92
-3.93 -3.67 0.26
-1.80 1.72 0.16
-0.38 2.99 0.53
-0.13 1.82 3.35
-0.11 5.17 0.81
-1.66 1.24 -1.27
-2.76 -3.50 4.26
-1.66 0.43 1.89
0.57 6.28 0.04
-3.69 -0.34 -2.76
1.24 5.18 3.52
-0.50 1.83 2.22
-1.21 2.36 0.20
-0.89 0.27 3.24
-1.37 3.70 -1.97
-3.48 -1.33 -2.45
-1.28 0.67 1.37
-3.17 -1.54 -1.59
-0.88 3.22 1.07
0.49 5.59 0.15
-0.26 1.49 3.59
-3.77 -1.30 -2.09
-1.80 -2.17 2.98
-1.49 -0.25 1.78
-2.73 2.01 -3.28
-0.03 1.53 4.61
-0.56 1.25 4.86
-1.61 -0.33 2.48
-0.54 2.15 2.97
-1.23 -1.68 3.51
-2.89 1.67 -4.75
-1.53 3.91 -3.18
0.98 3.89 3.01
-1.65 -2.53 4.73
-0.06 1.28 4.53
-2.18 -0.53 0.15
-0.26 5.39 -1.83
-1.82 0.97 -0.18
-1.15 2.98 -1.08
-0.78 0.33 4.40
-1.70 -0.83 2.96
0.50 6.37 1.46
-1.89 0.75 0.87
-0.95 2.13 0.62
-3.30 -1.55 -2.22
-0.26 2.19 3.31
0.83 2.24 4.81
-2.90 -3.26 3.88
-3.27 -1.07 -3.05
-1.52 1.78 0.10
-2.73 0.57 -3.12
-1.42 3.36 -2.65
1.29 3.62 5.27
-0.98 1.55 0.27
-2.62 -0.27 -0.26
-0.10 1.90 3.37
0.23 3.68 3.43
-0.12 1.79 3.21
-0.27 3.39 2.95
-2.91 -2.57 0.28
-2.42 1.85 -3.27
-1.91 3.29 -5.12
-0.91 2.14 2.72
1.21 5.00 4.13
-0.98 2.37 2.01
-0.32 0.66 4.01
-2.59 -1.83 0.65
-0.46 2.79 0.62
-3.35 -0.47 -3.22
-0.87 -0.70 4.41
-2.62 -4.79 3.54
-0.03 1.63 2.81
-0.52 -0.20 3.89
-1.96 -3.77 6.13
-1.84 4.20 -5.06
-1.30 2.04 0.81
-3.86 -2.60 -2.29
0.67 3.50 5.27
-4.06 -1.64 -2.80
-0.22 5.05 -2.18
-1.12 -0.03 4.38
-3.90 -2.43 -1.23
-2.51 0.84 -1.53
0.17 4.78 1.30
-3.73 -3.99 -0.28
-1.72 -1.13 2.52
0.71 3.59 3.26
-3.24 -0.81 -1.25
-2.81 -2.13 -0.22
-1.49 3.24 -2.25
-0.30 3.38 2.95
-1.17 2.48 0.40
-1.66 0.48 0.43
-2.92 -4.19 2.16
-4.06 -1.63 -4.12
-4.12 -2.46 -4.43
-0.95 1.03 1.75
0.69 3.40 3.29
0.67 3.84 4.68
-1.50 0.73 2.38
-3.31 -1.96 -0.43
-2.58 0.38 -1.24
-1.36 2.59 -0.21
-0.79 1.45 2.12
0.40 3.14 4.12
1.15 4.87 4.65
-1.38 0.92 0.29
-2.21 -0.28 -0.01
1.78 4.47 4.67
-1.83 3.18 -2.61
-1.01 3.78 0.66
-2.31 -1.90 0.96
-2.35 2.88 -3.73
-3.67 -1.93 -0.83
-2.54 -0.41 -1.14
-1.86 0.53 -0.09
-2.95 -2.54 -0.15
-1.32 0.05 2.61
-0.36 0.48 3.86
-1.61 3.29 -2.82
-2.42 -2.08 2.03
0.42 4.58 1.23
0.67 5.97 -0.17
-2.25 1.85 -1.55
-1.03 4.51 -2.46
-2.30 1.78 -2.61
-0.57 4.21 -0.20
-2.35 3.03 4.34
-4.14 4.00 2.37
0.53 7.40 3.12
-1.43 4.06 3.96
-4.57 5.53 0.35
-3.22 2.86 3.94
-0.01 5.75 3.47
-1.78 2.07 5.27
0.02 3.46 5.15
3.03 6.64 5.54
-3.45 -0.11 4.72
-0.28 0.05 7.37
-1.99 -0.28 5.79
-3.09 1.03 5.22
-6.27 0.26 3.47
-2.98 0.60 5.56
-6.89 1.01 2.58
-4.18 1.62 3.27
-4.03 2.06 3.39
-0.02 7.07 2.88
-6.39 -0.68 3.27
-1.85 1.18 4.80
-0.95 6.68 3.34
-2.68 1.13 4.57
1.73 2.11 6.77
1.68 1.71 6.62
2.00 2.49 6.35
-4.42 3.82 1.84
0.55 0.78 7.07
0.33 3.77 5.26
-0.23 5.01 4.22
1.28 1.59 7.49
-3.88 -1.41 5.33
-7.19 -1.18 3.32
-2.67 1.43 4.96
-1.25 3.75 4.01
-6.19 -2.80 4.88
-4.64 -1.64 5.79
-2.41 2.60 3.52
-7.17 1.48 2.32
-1.21 1.14 5.73
-0.70 5.90 3.34
-3.37 0.61 4.61
-1.71 2.64 4.81
0.65 0.80 7.35
0.34 4.17 4.85
-5.16 6.22 -0.25
-1.25 3.46 3.75
-1.65 4.08 3.90
-6.00 1.49 1.95
-3.80 -1.89 6.47
-2.93 2.29 3.87
-0.66 4.13 3.52
-6.08 0.44 2.66
-4.59 6.26 0.44
-1.43 3.70 4.60
-5.60 -0.47 4.30
-2.13 1.89 4.84
-2.84 1.06 5.00
-3.24 2.77 3.14
0.17 2.36 5.18
-6.84 1.50 2.13
-0.99 4.37 4.08
-7.30 -0.13 2.98
-6.27 1.79 2.00
-4.75 0.69 3.98
0.39 4.10 5.37
-3.37 7.18 0.54
-1.77 -2.08 7.16
-0.82 3.27 4.79
1.98 3.68 5.64
-6.26 -0.53 3.62
-0.74 3.89 4.73
-2.34 5.90 2.20
-4.55 -0.28 4.25
-2.52 4.30 2.91
2.75 5.79 4.90
-5.42 4.25 0.90
-3.71 2.19 4.04
-0.92 2.18 5.83
-0.95 2.80 4.90
-3.94 2.82 2.42
-2.24 1.41 5.08
-4.47 3.11 2.71
-2.80 -0.90 5.84
-3.89 2.61 3.33
-2.81 2.17 4.60
-2.92 3.80 2.58
-4.80 -0.84 4.67
-1.09 1.89 5.07
-4.53 0.49 4.29
-3.51 0.27 5.21
-3.20 3.74 3.03
0.91 6.35 4.11
-4.52 -0.18 3.67
-1.57 3.85 3.18
-0.10 -2.50 8.91
-2.32 3.57 3.72
-0.49 3.38 5.06
-3.11 2.69 3.62
-4.06 3.69 2.05
-2.21 2.02 4.08
-4.31 3.19 3.42
-1.31 5.93 2.74
-4.25 3.03 1.99
-7.83 0.03 2.30
-0.09 4.10 5.14
-6.88 1.05 1.76
-4.65 4.78 0.55
-5.10 5.60 0.51
-4.56 1.22 4.01
-1.77 -1.10 6.26
-2.88 -0.26 5.47
-3.97 5.36 1.25
-4.21 3.37 2.95
-3.03 1.84 4.53
-6.66 5.66 -0.31
-0.94 1.76 5.51
-4.00 5.54 2.12
-3.15 3.65 3.00
-4.11 1.38 4.08
-3.48 1.69 3.37
-2.55 0.79 5.38
0.03 6.15 3.84
-4.03 3.57 2.25
-2.24 3.16 4.08
-2.17 0.44 5.33
-0.63 0.90 6.84
-4.04 3.13 2.42
1.57 4.28 5.54
-4.00 4.73 1.23
-4.91 -2.65 5.90
-3.83 0.76 4.33
0.53 4.70 5.47
-0.01 6.91 2.43
-1.94 -0.31 6.31
-6.18 0.83 2.94
-0.30 3.83 3.99
2.20 3.52 6.65
-4.79 5.61 0.47
-0.93 4.09 3.60
-5.40 2.46 2.61
-6.73 1.58 2.52
-0.73 6.39 2.89
-4.02 -0.86 5.99
-2.99 3.46 2.59
-0.08 -2.92 9.24
-5.60 -1.40 4.24
-4.89 2.31 2.76
-4.41 1.04 3.61
-3.26 -2.13 6.47
-2.98 0.47 4.99
-1.33 -2.38 7.27
-8.54 -0.76 2.16
-3.05 3.76 3.04
-5.68 2.19 1.96
-2.27 1.99 5.03
-2.83 2.87 3.83
-7.28 -1.26 3.04
-4.43 -1.93 5.48
-6.38 -1.17 4.27
-0.31 4.61 4.15
-4.25 2.52 2.53
-3.30 4.53 3.03
-4.58 -1.51 5.32
-3.95 1.91 3.49
1.06 0.75 7.35
-1.09 1.85 5.03
-2.95 3.14 3.55
2.03 1.64 7.20
-4.75 -0.61 4.56
-0.64 1.03 6.97
-3.97 1.41 3.37
-1.88 1.45 5.22
-5.82 4.45 0.90
-5.62 3.94 0.96
-0.84 -0.18 7.58
-3.49 0.35 4.93
-4.85 -2.35 5.41
-1.92 -1.75 6.70
-5.36 -3.52 5.98
-2.47 5.58 1.84
1.38 3.36 6.61
0.55 -0.14 7.89
-4.05 4.95 1.59
-3.08 5.09 2.00
-1.58 4.98 3.04
-1.18 3.18 5.03
-1.62 1.59 5.14
-7.73 1.31 1.43
-0.55 3.26 4.72
-3.31 5.26 1.84
-1.84 1.99 4.75
-1.99 -1.43 6.75
-3.66 5.11 2.20
-5.24 -1.49 4.82
-3.41 2.51 3.42
-4.41 6.78 -0.12
-2.18 -2.12 7.66
-0.95 6.17 2.57
-3.71 0.08 4.26
-3.38 1.07 4.17
-4.07 2.47 3.27
0.65 4.93 4.51
-4.26 -1.24 5.20
-0.83 1.11 5.74
1.22 2.70 6.52
-4.08 0.56 4.26
-5.93 2.02 1.80
-6.17 -0.41 3.41
1.61 0.17 8.64
-5.50 3.04 1.32
-0.16 -2.53 8.52
-4.48 0.70 4.35
-4.21 3.24 2.49
-0.12 0.72 6.81
-4.22 5.46 1.07
1.79 3.79 6.42
-5.55 6.19 -1.11
-2.45 3.11 4.15
-7.47 0.20 2.30
-5.24 -0.89 4.24
-4.07 4.07 2.33
-0.14 6.14 3.46
-1.19 -0.16 6.96
-5.94 0.57 3.71
-2.81 5.83 1.59
-2.28 1.93 3.71
-4.82 -0.69 4.54
-1.64 2.79 4.03
-4.92 1.61 3.33
-3.48 1.87 3.84
-3.54 -1.11 5.84
-6.31 -1.55 4.60
-5.91 4.41 1.17
-3.45 1.53 3.65
1.97 -0.83 8.45
-6.69 -1.20 3.40
-1.15 -1.72 7.78
2.68 5.00 5.74
-3.25 -0.12 5.40
0.52 5.49 4.77
-3.38 -1.12 5.32
2.53 6.07 5.76
-0.89 4.22 3.94
-2.51 1.86 4.99
-6.02 2.03 1.76
-4.17 -0.72 4.46
-1.13 3.30 4.85
-1.50 6.58 2.09
-3.70 1.44 3.90
-3.01 7.06 0.83
-3.72 0.72 5.03
-3.64 2.26 3.30
-2.61 1.07 4.83
-3.28 -0.16 4.73
0.44 1.21 7.38
-2.60 5.92 2.42
2.45 4.81 6.43
-3.05 0.94 5.62
2.33 6.01 5.28
-4.06 1.65 3.52
0.57 6.43 4.08
-2.53 -1.36 6.86
-3.41 0.32 4.73
-0.59 -0.14 7.17
-6.87 -0.62 3.10
0.07 5.86 4.24
-5.75 -0.79 4.15
-3.97 2.03 4.03
-1.26 8.48 1.14
0.01 0.18 6.73
-1.52 0.14 5.60
-3.29 5.49 1.30
0.64 6.69 3.59
-0.03 3.51 4.68
-4.92 3.92 1.96
-0.19 0.03 7.34
-4.95 0.82 3.36
0.05 -0.31 8.18
-5.74 0.76 2.77
-6.33 3.65 0.66
-0.81 1.12 6.32
0.70 3.33 5.74
-6.28 0.05 3.22
-2.69 3.15 3.89
-2.24 0.66 5.23
-5.69 -1.21 4.35
-0.87 3.94 4.38
-0.18 2.27 5.97
-2.44 4.25 2.76
-6.05 3.91 0.69
-5.10 5.06 1.22
-0.46 6.79 2.58
-6.67 1.77 1.78
1.36 -0.21 7.88
-7.14 -0.83 3.24
-4.46 4.23 1.69
-1.99 4.22 3.36
-2.85 -2.03 6.22
-4.61 -1.92 5.52
1.60 1.71 7.62
-1.66 3.29 4.45
-5.13 -0.60 4.54
-6.97 2.72 1.60
-0.19 6.53 3.48
-7.04 1.98 1.80
-0.80 1.65 5.58
-4.50 2.37 2.43
-4.09 1.31 3.58
-1.80 1.29 5.73
-4.64 5.79 1.35
0.06 5.38 4.14
-5.67 0.36 3.47
-4.36 4.40 1.62
0.78 0.18 7.78
0.25 1.17 6.66
-0.56 9.00 1.78
-1.30 4.70 3.43
-0.33 3.86 4.95
-3.12 2.67 4.15
-0.07 6.54 3.35
-5.80 -1.89 4.58
-3.99 1.92 3.23
-3.94 0.98 4.43
-3.34 2.54 3.67
-5.11 6.73 -0.26
-5.83 1.35 2.80
1.12 5.08 5.13
-7.19 4.14 0.13
0.66 0.65 7.06
-5.35 -1.27 4.43
2.10 5.58 5.27
-3.89 0.77 4.75
-2.68 4.29 2.22
-3.64 6.03 1.94
-4.26 2.84 3.21
0.58 1.24 7.34
-4.08 2.42 2.46
-6.42 3.48 0.35
-1.22 1.30 6.21
-0.45 -1.42 7.46
-3.66 4.16 1.50
-3.89 -1.58 5.34
-1.87 6.08 2.80
-3.86 1.12 3.96
-3.15 4.32 2.88
-2.52 -1.68 6.79
-5.99 4.39 0.13
-4.07 0.93 4.69
0.71 2.00 6.39
-3.52 1.25 4.99
-6.19 -2.31 4.14
0.42 6.88 2.59
-1.03 0.54 6.14
-4.95 -0.99 4.86
0.31 -0.74 7.93
0.72 3.89 4.86
-3.97 -0.07 4.69
-0.50 6.88 2.33
-3.67 3.57 2.90
-2.19 1.43 5.50
-4.86 4.14 1.65
0.54 0.07 6.98
0.26 -1.12 8.36
-5.10 4.48 1.35
-1.63 5.07 2.94
-2.18 3.38 3.59
-5.94 -1.01 4.03
-1.29 5.63 3.16
-6.52 -0.45 2.87
-1.31 -0.21 6.85
-3.11 5.10 1.55
-0.75 3.05 4.50
-4.28 4.01 2.13
-1.83 0.19 5.41
-6.17 -1.45 4.60
1.80 -0.27 8.38
-2.73 0.26 5.06
-3.88 2.82 3.23
-3.71 0.60 4.41
-6.33 0.17 3.35
-0.75 1.61 5.61
0.95 1.04 7.04
0.88 4.36 4.96
-3.71 -1.44 5.27
-1.06 -0.04 6.31
0.36 4.67 4.01
0.59 3.68 6.23
-1.59 0.71 6.05
1.16 4.63 5.41
-5.12 2.69 2.05
-2.81 -1.83 7.16
-4.15 0.62 3.93
-3.97 3.26 2.29
-5.09 -1.32 4.79
-4.50 -0.20 4.52
1.68 5.50 4.59
-5.28 5.06 1.37
-3.00 6.23 2.14
-1.37 5.61 3.46
-4.21 5.23 1.06
-6.54 -0.89 3.37
-1.86 6.19 1.59
-3.98 5.16 1.90
-2.44 6.12 1.64
-3.83 -1.83 6.14
1.51 3.29 5.93
-4.61 3.81 2.16
2.90 5.08 6.24
-0.38 5.07 4.12
-2.22 3.94 3.43
1.23 0.53 7.30
0.01 4.54 4.34
-1.89 3.65 3.41
-1.99 2.40 4.17
-1.06 4.54 3.53
-1.98 3.46 3.93
0.88 1.01 7.30
-4.22 1.41 3.94
0.15 0.60 7.26
0.27 6.05 2.87
-6.46 2.94 0.84
-4.00 2.45 3.05
3.02 3.51 6.69
-0.54 5.55 3.61
-4.02 4.18 1.45
-4.65 3.60 2.49
-4.68 1.64 2.99
-7.74 0.52 2.03
-3.44 1.08 3.94
-2.83 0.45 5.24
-1.91 6.87 2.27
2.96 3.36 7.11
-2.24 1.85 5.03
-1.00 2.23 5.81
-5.62 3.73 0.58
-0.31 0.07 6.40
-3.38 0.29 4.94
-4.79 -1.51 5.25
-1.66 3.32 4.00
-5.87 4.28 1.07
0.35 6.74 3.36
-3.12 2.72 3.64
-0.52 7.10 1.94
-4.26 1.98 2.64
-1.52 3.64 5.00
1.40 4.91 5.08
-3.23 2.75 3.43
0.76 -1.04 8.53
-3.07 5.28 1.83
-3.84 0.44 4.52
-4.31 1.51 3.73
-3.35 0.70 4.64
-1.91 -2.71 7.83
-1.79 6.42 2.48
-3.89 1.10 4.96
-2.71 4.81 2.13
-0.18 -0.10 7.18
1.27 0.44 7.82
-4.88 1.22 3.55
-1.98 5.29 2.54
-0.79 7.90 1.86
-0.15 1.19 5.87
-2.41 6.86 1.65
-2.27 2.74 3.82
-2.29 -0.43 5.91
-0.95 6.23 2.95
-2.49 5.51 2.19
-2.95 2.44 3.88
-2.99 3.81 2.80
-5.07 -0.67 4.10
-5.28 4.32 0.72
-1.16 0.90 6.25
-5.73 2.52 2.50
-5.83 1.41 2.96
-5.10 2.74 2.37
-6.30 3.23 1.54
-3.70 4.90 1.38
-5.15 1.31 3.43
1.78 4.72 5.09
-4.24 5.18 1.06
0.75 2.10 5.73
1.53 4.78 5.15
-1.38 3.49 4.22
-0.58 4.10 4.52
0.01 6.13 2.86
-2.01 3.60 3.54
0.27 2.13 5.36
-3.71 3.17 3.15
-0.21 2.34 5.47
-7.10 7.28 -1.60
-0.15 6.36 3.28
-3.70 2.50 3.50
-1.32 3.86 4.17
-1.43 1.51 5.60
-5.64 3.99 1.46
-3.52 3.26 3.30
1.96 4.78 5.83
-0.28 4.35 4.27
-1.19 0.35 6.32
-6.71 0.43 2.32
-4.65 5.70 0.85
-5.08 5.02 0.88
-4.13 -1.01 5.04
-1.35 3.55 3.91
0.86 7.63 3.29
-4.51 4.62 1.86
-3.76 -1.86 5.63
-2.25 4.98 3.15
-4.82 1.05 3.31
-1.31 -1.71 7.15
-3.34 0.26 5.24
-3.04 3.45 3.19
-1.33 3.29 4.49
-6.01 6.97 -0.64
-1.59 5.51 2.68
-3.74 1.29 3.82
1.29 1.66 7.06
-0.61 0.83 5.95
-3.63 2.06 3.98
-3.01 -1.68 6.41
-2.71 4.02 3.37
-2.70 2.31 3.54
-1.65 5.25 2.80
0.23 -1.53 8.37
-1.68 0.98 5.87
-0.28 6.74 2.61
-6.98 5.74 -0.55
-2.88 5.42 1.70
-0.98 7.39 1.97
-4.98 0.45 4.40
-2.46 6.49 1.89
-1.80 3.29 3.95
-3.89 2.30 3.86
0.49 3.57 5.52
-0.23 4.00 5.06
-1.47 1.22 5.80
-4.59 -1.89 5.54
-5.62 4.56 1.03
-1.93 5.39 2.30
-2.61 7.73 1.01
1.43 5.38 5.50
0.23 -0.24 7.00
-0.11 3.04 4.96
0.30 2.26 6.55
2.02 0.09 8.65
-4.07 4.62 1.96
0.50 -0.68 7.72
-1.69 5.66 3.33
-3.52 0.66 4.94
-5.33 -0.66 3.61
-4.40 2.65 2.87
1.75 1.75 6.86
-0.86 1.13 6.13
-2.38 0.30 5.89
-6.40 2.36 1.44
1.18 5.44 5.11
-2.91 5.99 2.36
-6.50 2.71 1.64
-0.98 2.29 5.54
-3.41 6.02 1.57
-2.40 2.55 3.90
-0.90 5.42 3.78
-3.50 2.46 3.33
-0.98 -0.73 6.63
-0.32 -0.03 6.99
-1.52 0.43 5.99
2.33 1.54 7.77
-4.49 0.52 4.04
-2.24 5.80 2.96
-0.77 4.02 4.18
-6.76 0.30 2.98
-3.00 -1.14 5.30
-4.51 -1.56 5.42
-0.25 -2.31 9.39
-2.10 3.94 3.85
-4.52 3.20 2.02
-5.05 -1.12 5.12
-5.36 3.84 1.94
-3.95 1.87 4.12
-1.86 -2.19 7.82
-0.68 5.88 3.59
1.43 5.74 4.67
3.33 4.06 6.72
0.39 0.23 7.35
-1.09 2.43 4.64
-3.83 3.77 2.18
-4.18 -0.08 4.34
-7.01 6.77 -1.73
-2.89 0.99 4.17
-1.27 3.21 4.33
-2.64 3.14 3.28
-6.53 -2.89 4.06
-6.49 0.89 2.97
-0.92 2.92 4.99
-1.65 7.78 1.72
-2.72 -0.48 5.83
1.79 0.86 7.63
-7.03 5.14 -0.30
-4.05 -0.11 5.04
-1.94 1.32 5.51
-2.38 7.96 1.24
-2.06 4.37 3.69
1.80 4.81 4.88
-4.16 4.62 2.26
-5.23 -0.69 3.91
0.65 0.75 7.59
0.38 -1.14 7.64
-0.84 6.54 3.52
-0.56 4.29 4.34
-5.90 -1.78 4.28
-0.01 6.18 3.21
-5.92 3.98 0.56
-3.28 3.47 3.81
-3.23 6.24 1.21
0.35 4.58 4.73
-4.55 2.11 2.69
-0.00 1.77 6.69
1.27 7.65 3.12
-3.54 2.96 3.11
-3.32 3.51 3.15
0.68 0.18 7.70
0.08 8.27 2.97
-3.87 2.67 3.03
-0.07 6.41 3.93
-3.49 4.66 1.86
-1.07 1.44 5.74
0.18 -1.19 8.57
-5.83 3.04 2.38
1.46 5.18 5.03
-0.69 4.28 4.06
-3.82 -1.90 6.34
-2.64 5.00 2.78
-1.03 4.95 3.91
-4.35 2.59 2.82
0.19 2.70 5.44
0.98 2.51 6.45
0.62 5.57 4.67
-5.02 6.46 0.27
-2.35 5.16 2.30
-0.65 8.49 2.11
-5.42 3.23 1.72
-2.72 6.35 1.63
-1.20 -1.41 7.94
-3.93 4.22 2.24
-3.89 0.56 4.26
-6.71 1.07 2.35
-2.87 -0.71 5.64
-0.73 4.96 4.00
-7.16 5.84 -0.78
-4.67 0.55 4.03
-1.68 -0.97 6.42
-2.81 0.21 5.39
-0.78 7.06 2.56
-6.61 3.76 0.79
-7.11 4.44 0.01
-0.52 2.29 5.31
-2.43 -1.64 6.87
1.06 5.89 4.17
-3.95 3.55 2.28
0.00 5.64 3.40
-1.42 6.65 2.45
0.14 5.54 3.19
0.56 9.15 1.87
1.39 5.98 4.27
-4.81 -0.44 4.25
-1.58 6.76 2.26
-1.56 6.56 2.15
-0.01 3.41 5.44
-3.28 -0.25 4.86
-6.08 1.12 2.13
-6.71 3.99 0.56
-1.94 1.81 4.79
-2.65 0.91 4.59
0.60 5.38 4.72
-5.06 0.91 3.38
-2.07 3.23 3.70
-3.14 2.54 3.35
1.46 2.79 7.20
-3.00 0.52 5.27
-3.52 6.82 0.93
-0.80 0.56 6.16
-3.11 0.26 4.97
-1.07 1.03 5.54
-5.57 4.67 0.63
-0.06 2.94 5.12
-3.73 1.48 3.46
1.87 3.08 6.36
-3.63 -1.32 5.62
-1.37 0.71 5.67
-6.69 3.33 0.99
0.21 0.54 7.75
-5.90 -3.10 5.71
-1.33 2.73 4.66
-0.48 3.78 4.40
1.95 2.81 7.22
-4.71 0.17 4.52
-0.88 2.15 5.23
-4.22 2.82 2.71
-4.03 3.79 2.85
1.07 6.97 3.54
1.39 4.43 4.93
-5.66 5.55 0.22
-5.54 3.67 1.10
-0.49 4.92 3.81
-8.14 0.84 1.17
-5.11 1.23 2.59
-0.30 8.10 1.53
-2.89 4.42 2.97
-3.67 -1.86 5.67
-1.10 5.92 2.96
-2.11 1.99 4.74
0.75 3.66 5.83
-1.24 -0.89 7.32
-6.12 4.38 1.09
-3.20 3.78 3.83
-4.70 -0.57 4.78
-4.24 -0.80 4.55
-2.36 1.99 4.74
-0.89 -1.53 7.08
-3.98 2.64 2.49
-5.68 0.62 2.74
-6.83 -0.19 3.67
-6.71 -1.26 3.58
-1.56 1.18 5.79
0.01 4.08 4.76
-6.31 4.29 0.16
0.26 1.59 5.83
-4.43 -0.30 4.63
-3.67 2.59 3.60
-6.14 1.72 2.37
-2.30 5.62 2.56
-2.99 1.46 4.27
-2.30 4.56 2.87
-5.62 -1.12 4.27
-3.21 3.31 3.52
-5.98 -0.20 3.50
2.38 4.51 5.66
-5.92 2.15 2.31
-0.03 0.38 6.99
-1.85 6.08 2.23
-6.63 5.97 -0.29
-0.92 -1.21 8.04
1.22 -0.08 7.55
-3.30 1.39 4.51
-0.41 3.03 5.04
-1.80 4.82 3.34
-2.72 3.85 2.85
-0.98 1.10 6.60
-4.71 6.69 0.29
-2.95 1.61 4.64
-3.48 1.28 3.68
0.13 -0.08 7.25
-3.51 0.44 5.17
-0.62 6.06 2.40
-2.82 2.72 3.61
-0.49 4.45 4.94
-5.03 -0.58 4.41
1.81 3.94 6.11
-2.78 4.04 3.03
-2.74 5.05 2.48
-7.41 -0.07 2.79
0.15 5.16 3.93
-1.19 -2.22 8.33
0.81 2.53 6.33
-0.80 0.08 6.67
-5.38 -0.73 3.77
-3.33 3.14 2.81
-5.11 0.71 2.55
0.77 -0.79 7.98
-6.33 5.12 -0.08
-2.82 0.94 4.97
-0.12 1.86 5.22
0.40 0.50 6.56
-2.34 2.68 3.97
-7.04 2.56 1.44
2.18 2.93 6.90
-1.18 6.75 1.72
-3.41 5.89 1.38
1.93 2.38 7.37
-3.66 0.50 4.14
-5.92 -1.23 4.40
-4.83 3.94 1.93
-5.67 6.40 -0.85
-4.12 1.49 3.85
-5.28 0.04 3.52
-5.53 2.98 1.75
-4.12 6.35 0.82
-1.94 5.19 2.52
-1.32 1.60 5.42
-7.70 -0.30 2.77
-6.76 2.20 1.52
-6.00 3.93 0.35
-3.73 6.93 0.66
1.96 -0.46 9.13
-2.30 0.22 6.29
0.65 4.25 4.44
-0.21 4.98 4.49
0.49 -1.83 9.33
-5.28 -1.14 4.17
0.34 3.29 6.11
-1.97 -0.34 5.75
-3.49 3.90 3.23
-4.94 -1.12 4.28
-2.75 3.58 3.87
-2.64 1.62 4.33
-2.87 -0.73 6.00
0.46 -0.26 7.89
-2.49 2.64 3.57
-4.89 -1.77 4.72
-1.93 0.06 5.95
-2.45 5.14 2.45
1.54 3.79 5.18
-4.29 5.27 1.46
1.40 6.42 4.48
-5.33 4.91 0.07
-1.19 2.47 4.80
-0.93 -0.24 6.61
-4.97 2.95 2.20
-2.63 4.18 2.62
-0.64 4.61 3.64
-4.23 1.72 3.94
-1.97 2.39 4.41
2.23 5.41 4.98
-0.56 3.41 4.89
-2.58 3.70 3.01
-7.61 2.93 0.84
-4.81 -0.73 4.50
-0.86 1.25 5.89
0.41 1.63 7.24
-2.98 6.58 1.23
-4.10 4.41 2.38
-0.70 5.01 3.55
-0.60 2.16 6.23
-2.12 -1.83 6.77
-1.25 2.52 4.63
-2.26 5.69 3.02
-6.43 0.88 2.91
-2.55 1.55 4.29
0.69 5.50 4.99
-4.55 -2.36 5.66
-1.49 3.63 3.59
-0.59 1.05 6.51
-5.40 5.06 0.58
-3.00 2.78 4.09
-1.10 1.13 6.05
-2.80 -2.62 7.33
-2.70 0.64 5.20
-3.45 3.09 2.86
-5.65 1.00 3.37
1.79 6.27 3.82
-2.72 3.50 3.82
0.47 5.26 4.31
-2.37 2.85 3.37
-0.61 0.29 7.05
-3.73 2.68 3.30
-7.64 -0.33 2.51
-4.42 1.01 3.07
2.31 3.89 5.79
-4.07 5.38 1.83
0.75 1.13 7.00
-0.73 0.18 7.17
2.58 2.75 6.41
-3.78 5.65 1.70
-0.36 7.98 2.53
-0.29 4.29 4.35
-3.03 1.09 4.55
1.27 6.44 4.01
-3.39 5.72 1.92
-1.44 2.40 4.57
-2.23 6.35 1.81
-1.89 5.85 2.36
0.58 1.80 6.93
1.19 4.92 4.21
-5.95 0.26 3.33
-3.31 2.73 4.03
-5.15 -1.29 4.89
-1.86 3.34 3.51
-6.66 0.63 3.00
-5.31 0.79 3.72
-0.69 1.28 5.39
2.35 4.16 6.70
-2.82 -0.14 5.40
-2.92 4.21 2.33
0.66 0.09 8.13
-1.45 -1.20 7.00
-5.74 -0.15 4.03
-6.31 -0.05 3.13
-1.38 5.83 2.58
-3.07 6.10 1.33
-1.82 2.78 4.04
-2.73 5.11 2.93
-0.56 7.09 2.66
-2.55 -0.52 6.11
-1.24 1.40 6.05
-2.83 1.46 4.71
-2.29 5.03 2.56
-3.96 2.22 2.63
-4.75 0.53 3.99
-3.41 3.31 3.18
-3.17 4.54 1.73
-1.97 5.13 2.95
-3.61 1.34 4.43
-2.70 1.58 4.91
-6.01 1.72 2.12
-2.44 3.96 2.86
-3.29 2.47 3.61
-4.01 5.07 1.51
-6.80 0.14 3.39
-0.79 3.65 4.96
-4.91 1.26 3.46
-3.01 -0.35 5.95
-4.67 4.86 1.23
-2.98 1.82 4.25
0.11 1.15 6.80
2.47 2.61 7.59
-6.56 3.32 1.12
-4.87 -0.78 4.46
-4.11 4.23 1.90
-0.14 3.68 4.91
-2.41 4.45 3.13
-0.14 -0.05 7.73
-4.78 4.33 1.72
-6.22 -0.18 3.24
-0.29 3.99 5.04
-2.97 2.10 4.44
2.12 0.82 8.01
-5.33 3.00 2.19
-4.96 0.90 3.87
-0.51 2.73 5.29
-0.15 1.52 5.25
-3.67 0.11 5.45
0.51 5.06 4.79
-0.50 -0.10 7.09
-2.84 1.71 4.44
-4.56 0.84 3.61
-2.60 6.82 0.67
-0.91 7.49 2.94
-3.09 -0.09 5.14
-0.64 -1.90 8.43
-5.79 1.86 2.01
0.07 5.30 3.87
-2.21 2.12 4.00
-6.36 -2.23 4.78
1.17 -1.24 8.97
-2.02 6.90 1.58
-3.16 3.91 3.00
-0.08 0.71 6.28
-1.69 4.86 3.52
-0.56 -1.39 7.76
-6.11 3.84 0.78
-3.90 0.11 4.78
-1.45 3.80 3.81
-6.34 2.04 1.15
-2.11 3.19 4.58
-3.33 -0.19 5.10
0.82 2.66 6.51
-5.46 5.26 0.41
-4.62 4.99 1.57
-0.77 8.52 1.53
-1.06 4.06 3.92
-4.69 2.29 2.14
1.97 0.29 8.82
0.57 4.50 4.88
-2.07 0.47 5.77
-1.21 4.29 4.06
-5.05 0.10 3.86
-3.35 2.22 4.16
-1.74 5.60 2.61
-1.36 3.88 4.48
-4.88 -0.13 4.50
-2.57 2.88 4.51
-4.98 3.50 2.35
-5.88 -1.99 5.22
0.38 6.98 3.22
-8.00 -1.52 3.40
-0.48 -2.09 7.62
-6.65 1.80 1.62
-5.71 1.10 2.71
-2.55 0.93 4.68
-2.90 2.93 3.36
-4.13 2.43 2.78
-4.32 -2.14 5.79
-4.75 0.11 4.18
-0.93 2.43 4.64
-0.09 3.63 5.83
-4.57 1.83 2.42
-1.66 0.41 6.10
-3.21 7.06 0.69
-1.60 4.13 3.82
-5.41 0.08 3.64
2.13 4.41 6.68
-0.86 3.81 4.57
-4.72 3.07 2.78
1.04 5.36 4.29
-3.78 0.55 4.84
-2.93 2.84 3.30
0.72 4.94 5.39
0.58 5.06 3.80
