ply
format ascii 1.0
comment Made by Nomoko
element vertex 3000
property float x
property float y
property float z
end_header
3.62 0.01 0.38
-0.52 2.14 0.28
4.44 -1.77 4.48
-2.17 0.69 4.30
2.58 2.28 -2.66
5.43 1.74 -4.71
4.14 1.48 -3.60
-1.28 1.53 3.03
0.09 2.90 -3.21
0.87 -0.60 4.69
0.94 1.60 -1.17
3.97 -0.16 0.34
1.83 -0.18 3.25
-4.71 2.35 3.12
-0.69 1.80 -0.56
5.66 -1.26 0.75
-0.94 4.34 -3.97
1.15 1.31 -0.11
-3.13 2.07 3.61
3.79 0.15 1.77
-1.94 1.19 2.39
2.00 0.94 1.33
-1.83 2.90 -1.45
2.69 0.40 0.86
-3.60 3.24 0.71
0.26 2.76 -0.93
3.24 1.80 -1.62
-1.10 2.91 -0.20
0.90 -0.67 5.44
2.31 2.24 -3.58
-3.95 3.20 0.42
-2.98 3.01 0.86
-0.62 4.53 -3.68
-2.75 2.31 2.62
-2.32 3.51 -1.11
-4.94 2.72 2.72
4.78 0.50 -2.06
4.84 -0.32 -0.35
3.04 1.84 -3.42
-0.82 1.41 3.06
3.53 1.38 -2.13
1.53 0.76 -0.33
3.93 0.17 0.02
-0.75 1.79 -0.17
-1.42 0.60 4.70
4.80 -0.25 -1.43
-4.99 4.12 1.77
-1.70 3.17 -1.14
2.37 1.42 -0.65
0.46 -0.22 5.84
2.00 0.67 0.16
-2.25 4.02 -0.42
-3.42 4.08 -2.76
-2.52 4.11 -3.21
-0.80 3.67 -2.01
-0.30 1.64 0.77
3.23 1.33 -1.97
5.33 -1.53 1.71
5.30 -0.52 0.17
2.84 -1.85 4.50
-1.09 2.77 -1.91
3.94 -1.14 3.33
-4.70 3.80 1.49
4.50 -1.05 1.39
-3.86 4.56 -3.14
-1.28 0.03 5.65
-2.54 2.97 -0.37
-0.86 0.94 2.67
4.91 -0.24 0.18
2.65 1.92 -1.48
-1.29 3.29 -2.29
-1.13 3.58 -2.68
3.06 -2.40 5.26
3.29 0.84 0.39
-0.73 2.88 -0.80
2.30 -0.01 2.53
-3.07 4.75 -4.23
0.28 1.01 0.51
3.80 0.72 -0.73
1.47 2.69 -4.08
-1.32 2.27 0.99
0.18 2.75 -0.63
-3.89 3.77 0.28
-1.39 2.38 0.28
1.71 2.56 -1.65
0.14 0.95 2.03
0.30 0.60 2.50
-0.69 3.23 -0.57
4.07 0.30 -0.04
4.95 0.53 -2.67
-2.87 2.98 1.57
3.76 -1.17 3.73
4.39 0.45 -0.99
2.96 1.10 -1.98
-2.19 3.43 -2.13
1.17 0.67 0.96
2.69 0.24 0.40
-0.99 0.22 4.10
5.14 -1.34 1.59
2.19 3.35 -4.90
3.23 -0.24 1.15
-2.94 2.27 1.72
-1.74 0.95 4.20
1.82 0.39 1.57
3.25 1.77 -1.40
-2.23 2.39 1.54
2.47 2.09 -3.43
1.34 1.19 -0.65
1.74 3.23 -3.77
-2.60 0.18 7.05
2.62 1.87 -1.97
2.27 0.59 1.25
0.81 2.46 -2.79
1.89 -0.95 2.62
2.79 -0.08 3.20
4.59 -2.49 5.29
2.88 0.98 -0.83
-4.51 3.58 2.29
-4.02 4.94 -2.14
-1.86 4.66 -3.91
0.63 0.47 2.45
5.29 0.03 -0.95
-1.04 3.46 -0.36
2.10 2.81 -4.70
-0.89 0.95 2.67
3.15 -1.44 3.64
-0.58 2.99 -0.98
1.00 1.98 -2.50
0.27 0.98 3.40
0.10 3.44 -2.23
-3.51 1.11 6.60
0.96 2.35 -1.69
-0.94 3.63 -4.16
0.32 1.94 -0.20
-1.10 1.81 2.49
-0.19 2.60 -2.06
0.11 1.05 2.11
4.38 1.33 -1.76
-0.84 4.76 -4.91
5.73 -1.73 3.02
4.34 1.53 -4.51
2.55 0.23 1.57
-1.35 3.03 -1.91
3.74 1.18 -0.94
4.11 -1.94 4.25
3.12 -0.22 2.61
-3.94 1.91 3.91
-3.82 3.69 -0.73
-0.38 1.84 1.01
3.20 -0.54 2.68
3.15 0.48 0.82
2.23 2.62 -3.20
2.87 1.65 -2.02
-3.19 2.94 1.37
0.28 1.57 0.44
2.58 -1.03 2.84
1.97 0.27 2.62
-2.17 3.04 -0.53
5.69 -0.88 1.84
4.41 0.89 -2.49
-1.74 2.97 0.45
4.30 -0.33 -0.23
-2.34 2.27 0.24
-0.21 1.96 -0.91
5.27 1.10 -2.69
-1.89 -0.01 6.11
0.50 0.43 1.95
2.63 0.44 -0.02
-2.77 1.20 3.51
-1.15 1.43 2.31
-3.09 2.35 3.74
3.32 0.52 -0.56
0.29 3.00 -1.53
0.66 3.82 -4.27
-2.22 1.17 4.88
1.11 0.97 -0.20
3.42 1.50 -2.08
0.60 1.09 0.51
1.40 2.31 -2.54
-2.53 3.23 -0.53
-3.43 4.16 -2.19
-1.27 0.99 4.09
3.48 -1.15 3.26
-1.17 3.09 -1.70
-0.46 -0.16 4.96
-1.02 1.28 2.72
-1.85 2.17 2.95
2.91 -1.12 3.06
4.34 -0.52 0.67
3.11 -0.12 0.88
-4.04 4.68 -0.85
0.01 -0.52 4.86
3.28 -0.30 1.03
2.25 -0.03 1.44
5.06 -0.94 1.67
0.24 1.38 1.58
0.93 3.76 -3.72
-3.87 4.11 -1.43
-0.67 2.55 -0.00
-4.74 2.01 3.84
-2.51 3.66 -0.39
6.47 0.16 -3.34
-0.06 1.34 2.03
-0.38 2.20 0.38
1.59 1.23 -0.60
3.24 -0.04 2.03
2.50 -0.01 0.87
-4.20 1.96 3.60
5.01 0.34 -1.09
4.60 0.65 -1.49
1.07 2.25 -2.29
2.80 2.65 -3.93
-0.77 3.69 -2.86
3.23 2.05 -2.55
3.64 0.12 -0.09
2.87 0.63 1.55
4.89 -0.05 0.02
2.48 1.56 -1.05
-4.25 4.42 -2.33
-3.98 3.86 0.65
-2.38 1.87 1.83
-1.95 0.65 4.24
4.47 -1.13 2.58
-1.87 3.13 -1.70
1.04 2.79 -1.64
2.01 0.96 -0.85
0.01 3.81 -2.67
2.74 3.02 -4.92
-0.70 3.57 -2.53
-3.51 3.47 -0.21
-1.17 2.93 -1.38
4.28 -0.80 1.80
-3.85 2.51 3.38
-4.16 4.09 -0.67
-1.93 0.44 4.24
1.35 0.98 0.31
2.93 0.74 -0.15
2.24 -0.13 2.53
-1.32 3.81 -1.56
-1.07 0.82 4.62
1.50 3.03 -2.91
-0.06 2.33 -1.48
0.77 0.06 3.54
5.23 -0.25 0.01
4.03 0.64 -1.57
-0.40 1.70 2.46
-0.35 -0.11 4.13
0.84 1.85 -0.92
0.77 1.60 0.99
1.09 0.64 2.30
0.53 2.31 -1.06
1.20 0.52 2.94
-1.68 1.61 3.19
-4.22 5.27 -3.31
3.52 1.34 -0.31
1.59 0.67 1.80
-0.45 2.07 1.07
-0.31 -0.24 6.12
-2.94 2.63 0.96
2.34 0.33 1.91
1.34 0.76 0.28
1.51 2.03 -1.32
-2.83 2.43 3.57
0.53 1.34 -0.05
-1.30 2.65 -1.27
3.86 -2.11 5.74
-0.47 2.90 -1.64
3.73 1.37 -1.79
-2.53 -0.36 6.67
-2.28 2.35 1.05
0.42 -0.23 4.16
4.67 -1.92 2.11
6.06 0.95 -4.02
3.48 2.52 -5.47
1.86 -0.07 2.83
-1.27 3.22 -0.78
-3.30 2.65 1.97
-3.17 4.65 -1.94
-0.61 3.40 -3.52
0.89 -0.69 5.18
-0.79 0.41 3.50
2.93 1.96 -2.09
2.19 1.69 -1.79
-3.01 1.07 4.13
-0.86 2.46 -1.67
4.80 1.63 -2.78
4.44 0.30 -1.40
-1.77 1.25 2.88
4.70 -2.40 3.62
2.16 2.01 -2.31
3.08 0.03 2.11
3.13 -1.85 4.91
0.18 3.41 -3.19
1.04 2.08 -1.12
5.03 -2.21 5.30
0.61 2.50 -1.26
5.73 -1.37 1.78
6.05 0.09 -2.53
0.51 2.25 -1.55
-2.14 3.49 -1.52
-1.74 4.32 -2.36
1.81 -0.80 4.05
1.51 2.17 -1.58
1.97 1.16 -1.20
-2.26 3.25 -0.16
2.43 0.85 -0.37
-0.68 2.38 0.26
-1.45 3.39 -0.82
3.69 -1.12 2.91
4.19 -0.04 0.99
2.50 -1.63 4.95
-0.34 2.02 0.38
-4.41 2.82 2.38
-0.77 0.97 4.08
0.19 2.54 -1.52
5.55 -0.68 -1.23
3.44 -0.57 1.79
-3.80 4.60 -1.59
0.47 2.00 -0.03
0.54 1.09 0.70
-1.10 4.05 -2.28
-2.26 2.74 0.91
1.29 2.08 -1.14
1.54 2.16 -3.46
-2.65 4.32 -2.71
0.88 1.15 0.88
-0.38 0.88 1.74
0.87 -0.65 4.69
-2.75 3.25 -0.53
5.14 -1.17 3.34
2.67 2.32 -4.50
1.63 1.55 -0.37
-0.05 0.74 3.82
3.09 -0.07 1.04
2.37 1.76 -2.54
4.29 0.41 -1.50
-1.69 4.49 -4.12
2.86 1.02 0.47
-0.35 1.35 0.79
3.47 -0.37 0.94
3.64 -1.90 4.96
0.97 1.03 1.30
0.69 0.91 2.63
3.46 1.69 -1.50
-3.26 1.43 4.42
0.21 1.87 -0.86
3.98 2.65 -4.88
-3.71 3.01 1.79
-3.22 2.75 0.72
2.17 1.86 -0.44
-1.46 1.44 3.40
-4.50 3.62 0.06
3.34 1.00 -0.45
2.22 2.63 -4.15
-0.75 3.87 -3.34
1.78 1.49 -1.80
5.13 -0.48 -0.01
3.15 -1.63 3.77
-2.30 3.24 0.81
3.32 0.02 1.23
1.95 2.58 -2.91
-4.05 1.99 2.77
-3.09 4.10 -2.71
-1.72 3.90 -2.78
-3.81 4.17 -1.80
-2.13 2.01 1.71
2.07 2.17 -2.00
-2.37 3.01 -0.47
-3.13 1.80 4.32
2.56 -0.06 1.91
3.80 -1.01 1.62
0.35 4.23 -4.77
0.21 2.47 -0.84
-1.17 1.91 2.10
4.09 1.32 -3.42
-2.33 2.56 1.16
-0.30 3.02 -2.29
2.65 -0.07 1.59
-1.13 2.62 0.68
2.60 -0.42 2.41
1.29 2.79 -4.17
-0.49 2.91 -1.04
-0.92 3.00 -1.32
3.24 1.29 -2.09
2.24 0.89 0.60
-3.30 1.02 3.94
1.36 2.58 -2.72
1.92 2.58 -2.40
1.51 0.48 0.27
2.90 -0.69 3.85
1.36 -0.25 4.68
1.51 2.22 -2.94
-0.35 0.43 3.42
0.85 1.60 0.39
-1.40 3.68 -2.23
-3.10 3.13 0.53
1.80 2.02 -2.84
3.70 2.34 -4.06
-0.99 4.08 -2.99
2.81 1.05 -0.10
-0.80 0.85 3.35
-3.55 3.47 1.15
-3.54 2.48 3.56
0.02 0.77 1.84
-4.68 2.81 4.00
-4.97 4.73 -0.86
2.78 1.54 -2.43
-1.44 2.50 2.26
5.32 -0.16 -0.94
1.34 3.14 -3.73
2.78 2.49 -3.74
-2.72 2.79 1.24
4.22 -0.31 0.57
2.55 1.86 -3.28
1.03 -0.88 4.68
1.98 0.71 1.86
2.91 -1.05 3.72
-3.00 2.54 2.18
3.98 -0.69 1.90
-0.19 2.41 0.10
3.14 1.78 -3.33
2.24 2.59 -2.63
-2.06 0.79 4.40
-0.40 3.53 -2.04
3.62 0.77 -0.31
6.34 -0.63 -0.86
-0.32 0.70 3.39
2.09 1.15 -0.19
5.24 0.27 -1.45
-3.80 4.75 -3.21
-2.09 3.48 -0.61
4.15 -0.32 2.19
-0.30 1.73 0.93
2.50 -1.09 3.76
1.78 -0.14 3.47
-1.62 1.36 3.13
4.50 1.15 -3.03
0.28 2.86 -2.82
-3.84 1.71 5.59
-0.09 2.64 -0.91
1.54 2.27 -2.11
2.05 0.98 1.01
5.22 -3.10 5.28
3.55 0.93 -0.25
-2.89 2.38 2.43
1.30 1.84 -1.04
-3.38 4.74 -2.86
1.69 2.94 -3.54
0.47 1.03 0.94
-2.11 2.27 1.62
-1.81 0.97 3.33
0.54 0.81 1.54
-2.33 4.19 -1.79
-0.76 0.51 3.36
-2.09 2.71 -0.34
-2.00 2.14 0.63
3.07 1.92 -2.74
-3.03 2.96 0.24
4.13 1.51 -2.22
2.23 1.66 -1.79
-1.31 1.80 2.28
-2.13 3.83 -1.56
3.28 -0.75 2.23
-1.28 0.09 5.64
1.95 0.35 0.90
1.82 1.33 -0.07
-0.57 2.34 0.54
2.85 -0.29 2.15
0.68 0.90 2.27
3.46 -0.19 2.74
0.63 0.23 2.77
-3.33 4.79 -4.31
2.65 -1.83 4.66
1.39 0.35 2.44
2.78 -0.04 1.08
3.29 -1.53 4.82
1.01 0.58 1.88
1.61 1.49 0.54
0.99 2.26 -1.61
-1.06 1.96 0.18
-3.16 1.48 5.74
5.46 -1.47 3.09
-0.92 2.67 0.07
-0.56 1.42 0.64
4.90 0.49 -2.50
-3.47 0.79 5.64
0.27 0.17 2.89
4.10 0.62 -2.36
1.95 0.42 1.56
-3.48 3.77 0.01
-1.49 3.24 -1.42
0.38 3.42 -3.21
2.30 2.21 -2.40
3.28 -2.02 5.01
-2.75 2.95 1.05
0.22 3.50 -3.67
-0.10 -0.65 4.22
-1.40 0.60 3.04
0.08 2.09 -0.56
4.95 -0.40 1.68
0.07 0.02 4.12
-3.04 4.29 -2.32
1.52 0.04 1.99
0.95 2.58 -1.88
-1.42 1.21 3.15
-1.34 1.02 4.58
0.19 0.71 1.95
3.46 1.76 -2.50
-2.21 3.79 -1.56
3.24 0.79 -1.47
0.43 -0.51 5.09
-1.79 0.72 4.94
3.49 3.00 -4.64
2.29 1.04 -0.45
2.22 -0.05 2.63
2.95 0.56 -1.40
4.61 -0.21 -0.49
-2.92 3.16 -0.38
2.39 -0.90 2.93
-1.24 1.02 2.36
-0.59 1.12 2.89
1.44 -0.23 2.31
-2.84 2.26 2.94
2.82 2.35 -3.74
1.97 0.20 2.22
3.96 0.75 -0.55
1.06 2.96 -3.00
-1.35 3.47 -1.70
1.89 -0.27 3.39
-0.53 1.09 3.34
-4.12 2.85 3.56
4.12 -1.56 4.33
-0.95 3.86 -3.85
1.54 2.01 -1.40
-3.58 4.02 0.46
-2.72 1.56 3.28
3.54 0.08 1.07
-0.29 2.45 0.21
-1.57 2.52 0.19
-0.88 1.12 3.21
2.09 1.59 -2.31
3.24 0.88 -1.67
-2.58 2.35 1.74
-0.21 0.10 4.39
-1.27 1.54 1.81
-0.48 1.14 3.01
1.58 2.97 -3.36
-0.22 0.16 4.33
-1.75 3.87 -2.59
3.02 1.77 -2.78
-4.15 4.12 0.30
-2.54 3.54 -1.00
2.52 -0.75 4.10
-0.32 3.68 -3.70
2.84 0.16 1.37
-1.85 2.98 -0.36
1.66 1.30 -0.01
-5.14 2.91 4.30
-2.54 3.06 -0.47
0.54 1.34 0.15
-1.50 1.44 3.94
2.23 3.36 -4.29
2.83 -1.43 3.71
4.65 1.08 -3.73
5.78 -1.66 1.27
3.57 -1.52 2.96
-1.97 1.84 2.16
5.72 0.02 -2.77
-1.69 3.91 -1.19
0.84 0.30 3.60
-0.37 2.04 0.03
5.56 0.32 -2.01
4.53 -2.29 3.77
-3.50 2.77 0.66
1.94 3.51 -3.80
-0.08 2.24 -1.51
-0.60 1.72 0.92
1.08 -0.01 3.73
5.51 -1.62 1.03
4.01 0.69 -1.90
-0.02 0.40 4.09
0.31 0.59 3.25
1.18 -1.16 4.80
-2.25 1.35 4.43
4.01 1.15 -1.89
-2.01 1.89 1.80
2.88 0.16 1.27
1.17 0.71 1.99
-3.01 2.59 2.89
-4.64 2.76 2.30
5.61 0.35 -0.70
-4.38 5.55 -2.96
0.19 3.58 -3.57
-0.61 1.07 3.12
-0.75 0.03 4.06
3.65 -0.35 0.19
4.40 0.00 -1.11
-0.33 2.75 -2.30
2.79 -0.23 1.14
3.54 1.59 -2.36
0.22 2.62 -0.77
-1.60 4.37 -3.42
2.20 -0.30 3.49
-0.41 -0.30 5.28
2.89 2.04 -3.36
4.47 -1.61 2.02
2.47 -0.48 2.97
-0.23 2.49 -1.76
-1.02 0.72 4.72
4.38 -0.96 1.63
2.25 2.44 -2.49
-1.77 1.56 1.76
-2.46 1.49 3.55
3.03 -2.03 4.53
-3.65 1.49 5.18
2.28 0.44 2.08
-0.39 0.40 3.99
-2.57 2.40 1.59
5.93 0.69 -2.00
5.65 0.60 -2.34
-4.65 3.42 2.10
-3.76 1.97 3.62
-2.05 0.46 5.70
-1.18 2.28 1.82
1.91 0.12 3.08
0.00 3.94 -3.61
-2.12 3.76 -2.47
6.16 -0.54 -0.45
2.31 -0.55 2.80
-0.39 3.64 -2.38
1.90 2.66 -3.07
-1.18 1.93 0.79
2.92 0.91 -1.00
2.94 2.15 -2.50
-2.63 0.87 5.66
1.20 1.14 1.30
-2.45 2.91 -0.07
3.85 -0.30 0.82
-2.44 4.16 -1.30
5.52 0.07 -0.18
1.23 0.08 2.06
-2.71 2.58 2.51
-2.26 1.14 3.88
2.88 -0.46 1.85
-3.16 5.06 -3.73
2.00 -0.82 3.66
2.09 1.73 -2.83
5.10 2.33 -4.69
-0.75 3.79 -2.93
1.96 0.23 2.45
-3.98 2.25 1.70
1.80 1.89 -1.09
0.50 1.50 1.75
-0.63 2.37 0.34
-3.40 2.21 2.62
1.35 3.51 -4.20
2.00 -0.29 4.18
1.54 1.28 -0.53
-0.08 3.55 -4.27
-2.74 0.43 4.65
1.66 -1.46 5.03
-0.94 1.67 2.43
0.94 0.44 2.77
2.28 -0.21 1.32
-0.33 0.49 3.73
1.96 -1.25 4.15
0.63 -0.19 4.30
-0.19 1.99 0.03
3.01 1.85 -3.57
-1.08 4.34 -4.12
0.56 1.17 0.96
3.02 0.84 -0.68
-3.22 2.29 1.48
1.41 3.72 -4.27
0.05 2.42 -0.07
3.95 1.11 -2.27
-0.92 -0.70 6.87
1.65 2.62 -2.28
0.53 2.10 -0.99
2.44 2.87 -3.90
2.30 1.38 -1.90
0.76 2.51 -2.53
-0.80 1.32 1.42
0.57 -0.84 4.71
-3.37 1.93 4.72
4.63 -0.78 1.06
-1.33 0.76 4.24
2.38 -2.12 5.53
-2.86 2.84 1.39
-0.50 0.48 3.84
1.57 2.53 -2.09
4.14 -1.12 1.47
4.48 1.96 -4.00
-2.20 1.48 1.95
-3.49 2.60 2.36
-1.65 0.41 3.67
-0.78 0.98 1.94
1.01 2.33 -2.49
3.15 3.21 -4.72
-1.15 3.89 -2.61
0.95 1.88 -0.95
2.90 1.88 -3.35
3.91 -1.09 2.09
0.53 1.03 0.62
5.57 -2.18 4.49
0.26 2.89 -1.32
-3.96 1.54 4.32
-3.95 1.88 2.73
2.68 -0.54 2.13
4.52 -0.81 1.18
4.46 -2.23 5.59
0.92 3.72 -3.05
-1.57 -0.33 6.74
3.89 -2.15 3.52
3.92 1.13 -2.57
1.25 1.52 -0.30
0.32 0.67 2.14
4.28 -1.19 3.26
0.20 3.57 -3.73
-1.91 2.12 1.93
1.45 1.36 -1.29
-1.50 0.85 3.03
0.16 1.37 1.77
-2.05 1.40 2.62
-2.83 2.87 0.52
0.22 -0.56 4.52
-0.60 1.27 1.42
4.48 -1.21 1.03
-2.98 2.70 2.23
-1.18 2.47 -0.24
-0.82 0.53 4.24
0.22 -0.76 5.16
2.97 2.10 -3.20
0.21 2.81 -1.60
-0.42 1.35 1.58
-3.83 5.86 -3.96
-2.87 1.39 4.15
-1.09 1.52 1.52
5.19 -0.79 1.03
4.89 -1.49 1.63
2.14 0.80 1.02
-1.79 4.26 -3.73
-4.00 4.28 -1.25
-2.23 1.50 3.01
-0.16 0.43 3.55
-2.83 3.16 0.91
3.57 -1.43 4.00
1.11 -0.43 5.12
1.13 1.85 -0.85
2.12 2.79 -4.24
-1.39 2.88 -1.11
0.26 3.00 -2.17
-0.42 4.15 -3.37
4.08 -1.52 2.73
-0.39 2.84 -1.00
3.09 1.89 -2.95
-3.85 1.78 4.13
-0.31 1.77 1.41
-2.17 2.01 2.69
-0.70 0.84 3.30
-1.20 1.70 3.14
1.06 0.39 2.02
0.20 0.50 2.53
-1.09 0.97 2.25
-1.83 3.11 -0.77
-2.90 3.35 0.01
2.67 0.77 0.18
-2.85 1.33 4.05
3.20 1.88 -2.50
-2.79 3.23 -1.07
-2.38 3.66 -1.13
2.61 0.10 1.37
-3.43 2.16 3.97
-1.51 0.78 4.36
2.21 -0.62 2.67
-1.40 0.54 4.70
-3.83 3.55 1.43
-1.78 2.53 0.38
4.79 0.90 -1.94
-3.01 5.05 -4.47
1.49 0.15 2.33
-0.33 1.26 1.06
4.62 -1.81 3.44
-0.87 2.40 1.13
-1.06 1.97 -0.19
-2.64 4.08 -1.05
-2.82 1.67 3.01
-2.26 3.38 -1.74
2.03 -0.87 3.18
-1.93 5.07 -3.56
0.69 0.25 3.21
3.66 -1.33 4.51
-1.67 4.51 -2.49
3.07 0.21 0.00
-0.71 0.59 3.50
-2.44 1.79 3.26
-1.80 3.16 -0.77
-0.19 2.15 0.21
4.40 -1.00 2.25
0.02 2.69 -2.98
-1.97 2.73 1.14
-0.81 3.65 -3.04
3.29 -1.25 3.71
1.48 0.84 1.39
-1.31 2.83 -0.11
0.05 -0.29 5.46
-0.07 0.16 5.49
-1.29 1.17 3.51
-1.50 0.54 4.48
-3.96 1.36 5.99
0.05 0.96 1.22
-0.87 3.44 -1.10
2.25 -0.84 2.90
0.60 0.32 2.84
3.53 0.14 0.88
-2.48 0.76 4.65
-1.44 4.43 -2.85
-1.19 2.27 0.81
1.00 0.92 -0.03
2.10 1.36 0.20
-5.05 4.94 -1.77
-3.97 2.54 3.63
0.21 2.62 -2.47
4.69 -1.12 2.13
1.50 1.04 1.27
4.56 1.03 -1.78
-2.18 3.24 0.33
-3.24 3.60 -1.08
3.78 0.08 0.95
0.10 0.61 3.81
4.41 -1.24 1.62
1.28 0.31 1.80
4.32 1.64 -4.64
5.19 0.82 -3.19
-0.67 1.40 2.95
-0.43 3.61 -2.21
0.31 0.38 2.43
5.13 -0.82 0.79
-2.69 5.03 -2.31
-2.60 2.56 1.66
3.01 -0.56 2.17
0.75 1.68 -0.97
-3.04 3.97 -2.22
-1.97 3.30 -0.92
0.69 2.13 -0.89
4.47 1.94 -3.74
2.47 2.12 -2.78
-0.49 2.90 -1.36
4.15 -0.60 2.26
2.87 1.73 -2.07
4.02 1.69 -3.01
0.70 1.85 0.54
-3.23 4.38 -3.04
6.28 0.13 -2.57
-4.60 2.44 3.47
3.94 1.75 -2.86
5.66 -0.59 -0.44
0.50 -0.41 4.86
0.56 0.09 3.58
-2.78 2.10 3.89
-2.02 3.38 -1.37
-3.54 2.64 1.71
3.80 1.62 -2.65
1.34 -1.07 5.84
0.89 1.43 -0.66
-0.47 3.60 -2.43
3.72 1.55 -3.13
2.55 0.77 1.02
2.45 1.47 -0.11
3.11 0.82 -0.19
-3.33 4.04 0.52
-1.53 3.20 -2.27
0.69 2.25 -0.38
1.10 -0.14 4.25
-1.26 4.23 -4.08
3.99 -0.30 0.48
-0.47 1.52 1.94
4.48 -1.07 2.47
4.40 -0.43 0.23
3.04 -0.01 2.52
0.41 2.41 -1.66
-2.04 1.63 3.11
-1.26 0.65 4.53
1.27 2.79 -3.53
-1.32 4.21 -2.42
2.79 1.11 -2.01
1.62 1.45 -0.90
-2.80 2.25 2.17
-0.20 1.20 1.47
-3.01 3.84 -2.13
3.97 -0.13 -0.20
-2.28 4.03 -2.03
0.11 -0.41 5.23
7.00 -1.23 -0.17
-0.14 2.64 -1.21
1.31 3.33 -3.88
-0.68 3.76 -2.73
1.05 2.02 -1.29
-2.78 3.75 -1.41
-4.07 2.48 3.98
-0.80 3.90 -2.76
-0.64 2.69 -1.15
-3.15 3.80 -1.03
-3.71 3.65 -0.73
-2.26 2.08 1.21
0.37 1.61 -1.06
2.17 0.30 1.14
-0.72 2.45 -1.43
0.60 3.46 -2.92
5.11 -1.42 2.73
1.67 1.95 -2.15
-2.79 0.86 6.59
4.23 -0.96 2.45
2.68 2.98 -5.29
-1.06 0.65 4.33
-0.31 1.53 0.29
-3.33 2.24 2.97
0.85 0.81 2.27
-1.59 4.82 -3.53
1.08 -0.72 5.02
0.22 3.03 -2.14
1.36 1.45 -0.24
-2.77 1.41 4.55
0.27 1.38 0.65
-1.80 0.72 4.50
1.58 1.35 -0.58
0.06 -0.15 4.21
2.11 2.24 -4.30
-0.08 1.55 0.83
-3.08 3.09 1.03
-2.33 4.02 -1.08
1.89 -1.73 5.22
1.03 1.26 0.25
0.91 -0.21 3.45
6.13 -0.50 -1.57
-0.95 2.97 -1.56
-0.99 3.10 -1.00
3.03 0.31 -0.05
0.43 0.17 2.30
-4.58 2.27 4.26
-2.05 2.20 0.88
-3.63 1.29 4.34
0.72 1.23 0.34
3.07 1.53 -1.80
2.28 0.15 2.89
1.37 1.89 -1.12
0.44 -0.48 3.44
0.20 3.11 -2.55
-2.81 4.43 -2.76
2.51 -0.01 3.09
2.07 -1.33 4.66
5.59 -2.82 4.43
3.96 -1.80 3.13
1.64 0.63 1.30
-0.65 1.27 2.49
-0.98 1.30 2.42
2.14 0.50 1.91
-1.42 0.96 4.82
1.64 1.23 -0.88
-1.57 2.49 1.31
-0.79 1.84 0.14
-4.37 2.88 0.74
1.04 1.18 0.17
1.13 -0.87 5.01
-2.69 1.14 3.46
4.97 -1.14 2.87
-4.18 1.98 4.62
3.22 0.50 -1.03
-0.95 0.95 4.03
2.65 1.91 -2.10
0.72 0.71 2.90
-2.84 0.83 5.38
-0.78 3.52 -1.23
-1.87 3.18 -1.03
-1.78 1.43 3.32
3.83 -0.62 1.06
1.12 0.90 1.20
1.07 1.01 1.98
-2.62 2.68 0.37
2.89 -0.84 2.05
-2.97 3.20 -0.75
3.25 2.23 -4.07
0.37 2.01 -0.13
1.24 -1.52 5.72
0.66 -0.24 4.33
-0.78 1.08 2.73
5.48 -0.29 -0.15
1.00 0.71 2.56
-2.01 3.03 -1.50
1.31 -0.79 5.09
1.40 0.04 2.11
5.92 -0.67 -0.03
2.13 1.96 -0.30
-2.52 0.41 6.29
3.67 -2.19 5.09
2.82 1.86 -3.93
0.97 0.57 1.00
0.28 1.60 0.27
3.78 -1.74 2.88
-3.18 3.38 0.05
2.93 1.39 3.77
-4.37 -0.68 0.09
1.08 0.83 2.45
-5.80 -5.00 -1.09
-2.76 4.26 1.66
0.06 2.42 2.30
2.51 -3.66 2.82
2.41 2.42 3.77
-2.62 -0.77 0.86
-3.51 -2.94 0.30
-4.91 0.67 0.45
1.65 -2.73 2.40
-2.60 1.48 1.39
0.65 4.54 2.52
-0.56 -2.45 2.12
0.51 1.18 2.17
0.54 -4.16 1.88
2.89 -0.01 3.39
-2.07 -2.44 1.50
1.93 -1.07 3.01
-5.33 0.23 0.09
-1.22 -0.52 1.79
0.98 0.66 2.68
3.55 -1.75 2.92
-1.73 1.02 1.61
-5.35 1.89 0.58
-2.35 3.23 2.03
-3.88 -2.34 0.05
2.48 4.21 3.47
0.79 2.62 2.38
-3.32 1.04 0.52
3.91 1.13 4.05
-2.07 -2.80 1.50
-0.16 -3.57 1.71
-5.27 2.33 0.65
-3.77 0.17 0.95
2.04 3.67 2.79
2.71 -2.53 3.08
-0.95 1.99 2.06
1.14 -3.10 2.22
1.39 -2.37 2.21
-5.01 -4.71 -0.40
-0.30 -3.94 1.36
2.33 0.55 2.88
-0.17 1.06 2.54
-3.52 -3.63 0.01
-4.59 3.02 0.82
-1.88 -1.86 1.58
-4.00 3.72 1.18
3.87 -1.26 3.34
-3.99 0.05 0.64
4.67 -4.26 3.61
1.35 -0.79 2.82
-0.96 2.17 1.71
-0.92 -1.04 2.01
1.36 -3.77 2.31
3.06 -3.96 2.67
0.09 3.61 3.01
2.95 -2.81 3.35
-5.09 -1.93 0.52
3.11 4.34 4.21
-1.17 2.52 2.03
2.40 -0.01 3.45
1.96 -2.44 2.32
-4.78 -3.91 -0.47
0.92 -1.98 2.74
0.28 -0.59 2.71
-0.52 -1.84 1.82
3.71 -1.39 3.41
0.84 4.15 2.95
-4.39 -2.44 0.35
3.25 0.53 3.78
-4.98 -1.55 0.34
-2.69 -3.89 0.14
-0.20 1.41 2.84
-2.97 -1.88 0.32
-3.12 2.54 1.57
-2.00 4.32 2.13
-1.81 3.79 1.92
-4.48 1.23 0.82
-4.86 1.84 1.03
2.94 0.19 3.70
-3.35 -0.04 0.63
-2.18 -0.51 1.26
2.83 2.27 3.58
0.61 1.88 3.02
-2.10 3.15 1.47
-2.67 0.87 1.09
0.32 -1.77 1.66
-0.05 1.05 1.98
-1.41 -0.92 2.05
4.31 -2.07 3.51
-2.24 0.66 1.61
-4.50 1.66 0.53
-0.87 0.80 1.34
-1.08 4.32 2.54
-2.18 2.69 1.75
2.85 -0.99 2.48
1.80 2.13 3.01
1.42 1.08 3.13
0.64 1.77 2.25
3.50 -1.10 2.99
-0.24 -0.46 1.65
-2.10 3.12 2.11
-1.65 1.82 2.37
-3.07 1.13 1.53
1.69 4.08 3.85
-6.08 -0.21 -0.23
0.10 1.28 2.51
-5.02 -2.80 0.22
-2.72 4.11 1.56
-5.23 3.19 -0.17
-1.56 1.50 1.46
4.07 -3.83 3.47
-6.39 4.41 0.36
3.66 -0.72 3.45
-3.22 -4.19 0.77
2.32 4.77 3.15
-5.26 3.09 0.45
-1.21 -1.11 0.95
0.97 -2.11 2.24
-2.95 -0.09 0.94
0.23 1.47 2.69
1.13 -2.17 2.49
-1.79 -1.45 1.37
-1.11 -2.08 1.77
-0.04 3.11 2.79
-2.47 0.56 1.26
-0.03 -4.82 1.69
-4.69 2.84 1.00
-0.77 -4.64 0.88
0.13 1.48 2.65
-3.19 -2.42 0.38
2.95 4.66 4.08
-1.79 -5.30 0.83
-0.69 -1.74 1.59
-0.52 3.80 2.09
-2.14 4.78 1.54
-1.16 -1.30 1.72
3.19 0.16 3.36
4.15 -1.93 2.93
1.53 -2.40 2.41
-2.52 2.20 2.11
-4.34 1.63 0.13
-2.29 -0.57 1.37
-0.67 3.17 2.66
-3.97 4.72 0.74
3.52 0.84 3.66
3.90 -3.60 3.12
3.00 4.85 3.68
2.70 -1.25 2.91
2.59 -4.65 1.84
0.04 -5.64 1.20
-5.19 1.14 0.24
-2.74 3.91 1.76
-1.80 1.28 1.44
-4.86 -0.44 0.65
4.30 -1.23 3.45
-5.00 1.14 0.26
0.34 -2.37 2.56
1.80 1.77 3.14
3.22 3.54 4.53
2.24 -5.17 2.37
-3.46 4.45 1.15
-0.93 -3.23 1.31
-0.33 1.53 1.83
-1.88 1.70 1.38
-5.16 -5.41 -0.82
-2.83 2.21 1.87
-1.37 1.24 2.02
0.06 3.19 3.06
-3.21 3.11 1.82
-3.75 4.12 1.71
0.88 2.73 3.09
-4.40 -3.87 -0.35
-5.96 -2.76 -0.42
-2.18 -4.56 0.57
-3.22 3.51 1.28
-4.39 -2.15 0.77
-0.82 0.20 1.96
-0.92 3.95 2.65
1.43 -0.74 3.05
3.69 2.47 4.13
-5.80 2.48 0.51
5.76 -3.70 3.76
-2.72 3.72 1.37
1.59 -1.10 2.55
2.56 -4.15 2.45
-5.51 -2.37 -0.58
1.88 -3.27 2.63
-1.97 1.33 1.25
1.21 -2.25 2.43
-3.62 -1.29 0.14
0.15 -1.09 1.52
-1.60 -2.47 1.43
-1.47 2.99 2.02
-2.44 -1.59 1.24
0.39 1.75 2.31
-3.21 -3.32 0.43
-4.56 2.70 1.35
2.05 0.22 2.55
2.16 2.82 3.44
0.73 -4.07 2.34
-0.58 1.81 2.41
4.46 -2.52 3.19
-0.54 -1.60 1.59
2.06 4.04 3.42
-4.31 4.00 1.03
3.36 2.51 4.30
-2.81 0.94 1.24
-2.98 2.88 0.94
-2.40 -4.63 0.89
-2.53 4.75 2.20
-0.81 0.54 2.41
-2.81 -0.21 0.97
-6.09 -4.68 -0.82
-4.31 -2.71 0.52
-2.32 -2.43 0.66
-3.82 -4.52 0.52
0.79 0.82 2.98
3.95 -3.11 2.81
1.28 2.12 2.66
3.99 0.95 3.58
1.63 -3.42 2.44
0.24 -3.73 1.68
-3.76 -1.29 0.05
0.95 3.59 3.11
1.36 -3.69 2.72
0.97 3.48 2.95
2.78 3.58 3.39
1.48 -2.56 2.32
2.14 2.72 3.61
-0.25 -1.14 1.97
1.04 2.58 3.11
-3.30 -2.55 0.61
-0.50 -3.04 1.24
4.82 -1.99 3.72
-1.84 3.34 2.03
-4.45 -5.43 0.38
4.55 -1.44 4.02
3.37 2.87 4.37
-0.62 1.19 1.82
-1.85 -3.22 1.01
-4.36 -1.46 0.08
-2.64 3.91 1.66
-4.58 2.73 0.63
-0.25 1.48 2.37
1.78 1.12 3.21
-2.71 3.36 1.33
0.47 -0.43 2.28
-0.22 -2.19 1.85
2.70 -1.17 2.77
-1.64 -2.71 1.58
-4.41 2.76 1.20
-1.06 4.02 2.05
-2.58 0.13 1.26
0.47 1.53 2.37
1.48 -4.28 2.69
2.41 -2.30 2.77
-1.49 -4.85 1.17
1.34 3.31 3.70
-2.29 4.72 1.80
0.23 4.60 3.47
0.38 -1.31 1.74
-2.95 -4.02 0.72
2.28 -3.47 2.04
0.37 1.41 2.56
-5.11 1.21 -0.06
0.95 -3.03 2.25
-1.76 3.85 2.12
1.83 1.61 3.33
1.51 0.56 2.71
-3.41 -1.76 0.72
1.10 2.61 3.30
-0.99 0.86 2.38
1.53 5.08 3.75
-4.12 1.44 0.68
-2.81 2.73 1.67
2.07 -5.23 2.47
-1.04 4.38 2.04
-0.68 2.71 2.23
1.46 4.21 3.58
0.93 1.10 2.35
-0.63 0.39 1.60
3.81 -2.33 3.16
0.61 -3.48 2.47
-1.02 3.58 2.42
2.72 -5.13 2.64
1.91 -0.52 3.16
0.49 -2.12 2.06
0.14 -5.54 1.59
-2.22 -1.46 1.45
-3.36 1.89 1.00
1.84 -4.82 2.08
4.83 -4.09 3.13
2.79 0.43 3.58
-4.04 0.15 0.21
2.52 -1.71 3.07
2.67 -3.26 2.17
0.55 2.00 2.29
-4.97 -1.25 0.55
-1.77 -2.54 1.09
-4.97 -1.31 -0.22
-4.12 -3.79 0.22
-2.17 -0.04 1.29
2.52 -5.51 2.78
-2.07 2.72 1.42
2.48 1.95 2.76
-3.45 2.15 0.70
4.82 1.88 3.74
2.44 -0.71 2.48
-3.95 3.23 0.87
1.57 4.62 3.35
1.37 -2.26 2.66
-4.95 -0.10 0.20
-1.61 4.46 1.82
-2.78 3.43 1.86
-4.68 -4.41 -0.10
-1.52 -3.34 1.72
0.07 -1.46 1.98
-2.69 -0.92 0.94
2.47 -3.26 3.25
-2.34 -5.82 0.76
4.03 2.95 4.25
0.50 -4.00 2.13
0.19 1.27 2.56
0.59 -4.26 1.55
-4.12 0.80 0.77
3.75 -0.85 3.22
1.76 -3.58 2.47
-2.16 -3.56 1.22
-4.69 -4.56 -0.47
-4.51 3.51 1.08
0.27 -2.23 2.25
-0.53 -2.02 1.37
0.47 1.21 2.16
-1.07 -1.84 0.98
-2.01 -2.35 1.71
-0.69 -0.93 1.22
-0.60 0.30 2.61
-1.67 3.95 2.11
-2.30 -0.35 1.60
1.95 1.19 2.94
-1.91 -1.09 1.27
-5.25 -2.41 -0.30
-0.73 -1.94 1.20
-0.46 -0.21 2.29
0.05 -2.95 1.75
1.72 2.70 2.99
3.09 -4.55 3.21
3.77 -2.31 3.54
-0.84 0.00 1.92
3.34 5.06 4.32
0.76 3.96 3.16
1.92 1.80 3.72
-4.05 -1.01 0.19
-2.98 0.77 1.05
-0.48 0.74 2.65
-4.10 1.12 0.62
4.12 -2.19 3.84
-2.34 -2.09 1.08
1.72 -5.21 2.60
-2.40 -1.87 0.70
-0.94 0.19 1.91
-1.37 -1.29 1.60
-1.25 1.82 1.33
0.01 -0.87 2.48
3.59 -3.30 2.55
-3.33 0.24 1.32
-3.97 -1.76 -0.16
-2.23 0.95 1.88
2.06 -1.59 2.64
-1.47 2.96 2.09
-3.79 4.50 0.86
-3.91 -4.13 0.10
4.45 -2.96 4.00
0.74 -0.25 1.96
-2.51 0.63 1.28
-0.00 3.04 2.76
2.21 -2.89 2.92
-2.29 -0.42 1.46
-2.87 -2.51 0.16
0.61 -0.97 2.15
-3.61 -4.13 0.18
2.83 -3.74 2.64
-1.47 -1.77 1.38
-1.32 2.72 1.95
0.60 -0.83 2.45
-2.93 2.12 1.67
0.34 0.31 2.44
-6.59 3.38 -0.14
-2.30 -1.42 0.75
-1.07 -3.84 1.33
-1.25 3.43 1.67
4.89 -1.57 3.70
1.28 -5.10 2.20
-1.47 -3.52 1.06
-3.71 4.84 1.73
3.31 -0.85 3.09
2.98 -3.40 2.75
3.44 0.44 3.38
0.52 2.53 2.83
3.34 0.89 3.65
1.57 0.74 2.96
-2.28 -2.30 0.66
2.30 4.89 3.70
-5.17 2.86 0.38
1.64 -3.54 2.46
-0.09 2.80 2.27
3.31 -5.08 2.39
-3.08 -2.94 0.46
2.06 -0.69 2.99
-4.54 -0.11 0.71
-0.93 2.57 2.12
-0.34 1.00 2.21
-4.00 -3.63 0.44
1.36 -4.31 1.71
-2.92 -1.84 0.82
-2.37 4.86 2.17
1.15 -3.60 1.81
0.41 -1.68 1.87
-0.09 3.99 2.71
-0.38 5.18 2.58
-2.47 -2.08 0.98
-1.23 -1.80 1.13
-3.38 -5.05 -0.16
-1.92 -0.59 1.96
2.98 -2.67 3.47
2.70 -1.69 3.34
-3.00 0.85 1.18
1.29 0.34 2.44
5.22 -1.48 3.72
-2.28 2.30 1.48
-2.64 -4.44 0.54
-2.64 3.48 1.65
-0.34 1.54 2.69
1.06 3.81 3.14
0.93 -3.26 1.59
-3.04 5.32 1.48
0.37 -3.71 1.28
0.41 2.68 2.29
-3.52 -1.49 0.44
-2.10 4.00 2.13
1.13 -4.04 1.92
-1.18 -3.17 0.68
1.92 4.03 3.18
0.37 0.18 2.59
-1.47 3.19 2.24
0.00 1.80 2.03
-5.12 -1.58 0.16
-1.37 0.57 1.67
-0.39 -0.74 2.11
0.34 -4.65 1.67
-1.91 4.43 1.86
1.30 -0.84 2.32
1.36 -0.37 2.68
-0.67 -4.42 1.43
0.58 -0.52 2.74
0.88 4.78 2.70
-1.54 -4.48 1.05
-2.53 2.35 0.92
-0.69 -0.39 2.16
-1.61 2.51 1.40
-2.92 -3.25 0.11
3.07 -1.86 2.78
-4.66 -1.79 0.40
0.89 -4.06 1.62
0.07 -0.81 2.33
5.41 -2.73 3.87
0.70 -3.61 2.14
-0.66 -3.65 1.27
-0.61 -4.84 0.78
-0.39 -5.37 1.44
-2.88 -5.25 0.25
1.50 -4.94 1.74
-0.29 4.58 3.03
-0.77 -2.17 1.96
-3.47 0.87 0.55
-0.40 3.85 2.55
4.38 -0.19 3.67
-1.67 4.98 1.58
0.19 -2.87 1.92
-2.11 3.11 1.88
1.47 3.25 2.68
-0.00 -3.04 1.93
0.90 -4.43 2.23
0.29 4.14 2.88
-5.47 0.33 -0.07
-0.51 1.83 2.25
-0.11 3.86 2.92
-0.72 0.64 2.18
-0.98 -1.63 1.19
-4.63 1.14 0.48
-1.51 -1.22 1.81
0.69 2.04 3.32
-2.09 0.31 0.99
-0.60 3.25 2.03
4.17 -0.03 3.20
-5.07 -1.12 0.12
2.11 -2.73 3.11
2.55 -4.33 2.23
-5.11 3.32 0.84
0.93 0.90 2.44
-1.73 4.35 2.55
-3.07 1.25 0.47
2.74 0.34 3.49
0.74 -5.32 1.67
4.24 -2.79 3.56
0.92 -1.23 2.02
-2.00 -3.96 0.85
-4.54 2.81 1.31
3.08 -4.14 3.39
-2.38 1.57 1.61
4.29 2.29 3.69
-5.42 -4.16 -0.37
3.80 3.50 4.05
1.35 2.60 2.74
-1.81 3.08 1.75
-6.03 0.93 0.29
0.47 3.43 2.79
2.11 4.40 4.07
-0.31 3.21 2.97
-1.16 4.77 1.99
2.35 -1.54 2.78
1.58 -2.47 2.67
-1.50 -2.75 0.80
1.02 1.93 2.45
-2.98 4.77 1.30
4.27 -1.76 3.30
-1.27 3.81 1.86
-2.17 2.54 1.50
-0.41 -1.07 1.47
2.53 -5.22 2.43
-5.59 2.59 0.40
-1.45 -2.62 1.34
0.12 1.44 2.61
-1.70 -1.29 1.72
-0.65 -1.60 1.46
-3.09 -3.74 0.72
3.22 -3.39 2.60
-5.86 2.76 0.43
-0.19 -4.89 1.90
-2.94 0.71 1.37
-1.51 -3.64 0.87
0.73 -1.66 1.73
0.92 0.33 2.10
1.61 0.73 3.21
-1.27 -1.41 1.99
-2.04 -0.41 1.48
-2.34 -2.41 0.95
-3.71 -4.64 0.40
-0.92 0.35 2.11
-3.11 -0.15 0.42
0.99 -3.36 2.14
-0.23 -1.08 1.59
3.47 2.59 3.73
-0.93 -4.39 1.48
-4.42 -4.25 -0.56
-1.17 2.61 2.16
0.41 -0.24 1.75
0.75 -1.89 2.53
-0.56 -3.39 1.23
-4.54 4.40 1.09
1.75 -5.98 1.56
-4.19 -4.81 -0.10
2.31 2.71 3.66
1.87 -4.06 2.06
0.21 0.98 2.30
-4.99 4.26 0.97
0.99 -3.51 2.39
-1.02 -3.82 1.11
3.41 0.41 3.75
-3.28 -2.10 0.49
2.24 -4.50 2.69
-3.97 0.83 0.62
2.80 -1.64 2.46
2.00 -2.64 3.17
-2.64 -5.04 -0.02
4.82 -2.95 3.09
-1.64 1.61 1.81
-1.33 4.55 2.18
-1.90 0.99 1.91
-3.48 -2.39 0.17
-1.31 -0.33 1.17
5.02 -2.62 3.41
2.61 3.11 3.77
0.69 -3.83 1.67
-2.90 -2.54 0.82
-1.38 1.35 2.35
-4.09 -3.60 0.37
3.06 -4.54 3.08
-3.51 2.86 0.74
-1.80 1.62 1.47
-5.08 -2.30 0.15
2.98 -2.91 2.57
-5.21 4.45 0.94
-2.91 -2.03 0.98
0.49 2.23 3.04
-6.27 -3.02 -0.55
-5.37 -1.49 -0.37
-1.64 1.42 1.38
-4.77 3.03 0.83
-4.48 1.90 1.35
-3.08 -2.40 0.04
-4.71 4.03 1.02
0.47 2.73 3.22
0.66 -3.31 1.48
-4.97 2.52 0.40
-0.27 2.77 2.70
-0.45 -2.04 1.67
1.24 -2.10 2.50
-0.52 -3.09 1.10
-2.61 2.90 1.59
-3.78 -1.90 0.65
-3.11 3.55 1.81
2.97 -0.22 3.20
3.60 -0.55 3.07
1.21 -5.55 1.84
-4.37 -4.91 -0.23
-5.23 2.57 0.44
-5.38 0.36 -0.16
0.27 -4.91 1.49
1.99 -0.90 2.49
-3.85 -1.56 0.82
-2.16 3.98 1.57
-3.45 0.71 0.97
0.92 -3.61 1.60
-3.49 -2.84 0.19
-2.62 -4.79 0.34
-0.07 2.08 2.18
-1.35 -5.28 1.14
3.46 -4.18 2.47
-0.93 1.52 1.85
1.72 -2.39 2.98
-5.63 -4.94 -0.78
3.68 4.64 3.72
0.29 -1.22 1.84
-1.03 -3.74 1.25
-0.58 2.21 1.93
0.87 -4.58 2.00
-2.99 -2.11 0.66
-3.19 -1.59 0.78
2.27 -2.63 2.78
0.24 -2.94 2.40
-2.35 2.85 1.68
-3.98 0.30 1.13
1.63 -4.11 2.42
-0.41 3.92 2.19
0.42 4.09 2.54
4.28 4.40 4.31
2.33 -4.81 2.26
-0.31 -2.60 1.84
2.80 1.62 3.24
-2.17 2.43 1.58
0.73 -2.95 1.44
-2.34 -2.40 1.11
-1.59 3.24 1.42
0.43 1.31 2.19
0.76 -3.04 1.42
-4.01 -4.37 0.56
0.95 1.97 2.47
-1.43 -0.89 0.96
-2.96 -1.11 1.10
3.71 -1.91 3.67
2.54 -2.00 3.14
-3.24 -4.16 0.09
4.34 -4.59 3.19
2.67 -1.05 2.77
3.33 0.63 3.26
1.69 5.22 3.30
1.35 -2.92 1.72
-1.67 1.99 1.65
-2.47 0.57 0.97
-1.64 0.33 1.08
1.67 1.75 2.85
0.14 0.61 2.51
0.84 -5.02 2.08
-3.87 4.16 1.20
2.12 3.94 3.22
-0.31 4.87 2.14
0.41 1.53 2.77
-0.93 0.01 1.57
-6.25 -4.94 -1.28
-2.86 -1.94 1.04
1.30 2.02 2.57
-2.53 -0.54 1.42
1.80 -0.06 2.65
-5.35 -1.39 0.12
-4.57 -1.05 0.78
-4.28 2.78 1.02
-1.75 -4.67 1.24
-0.41 -2.38 1.04
-3.51 -0.14 0.44
-2.98 2.47 1.65
-2.74 2.38 1.89
-2.13 0.38 1.09
-2.09 3.38 1.82
2.43 3.69 3.90
-0.81 -2.76 1.94
-3.79 -3.84 -0.11
2.46 -1.91 2.75
-0.95 -3.88 1.43
-4.51 0.50 0.65
3.96 3.17 4.64
-0.39 -2.19 1.40
2.13 0.04 3.30
-0.88 -1.60 1.21
-2.28 5.17 1.67
-1.21 0.39 1.84
0.24 -4.41 1.85
2.43 -3.76 3.04
-0.07 -2.43 2.31
-2.85 2.84 1.61
-2.95 -3.45 0.88
-1.21 -4.99 1.26
0.82 -0.62 2.62
-0.08 -1.56 2.03
-4.14 1.39 0.91
-1.58 -1.09 1.04
2.30 -0.67 2.42
-6.14 0.41 0.31
-2.24 -3.12 1.15
-4.45 0.30 0.63
-0.14 -4.69 1.57
0.60 -5.40 1.35
4.23 1.61 3.48
-1.60 2.33 2.34
0.46 -2.19 1.97
-4.96 -1.39 0.50
-2.74 -4.23 0.61
2.85 4.19 4.00
1.05 -1.92 2.61
2.99 -0.17 2.85
-0.83 -4.17 0.94
-1.30 -2.15 0.99
-3.87 -0.52 0.25
-1.11 3.78 2.82
-1.32 0.05 1.72
-2.81 3.82 1.35
-4.68 2.30 0.94
-5.81 -2.65 -0.64
-6.14 1.49 0.11
-4.07 0.26 0.27
-3.00 0.27 1.07
-2.07 3.24 1.91
-2.83 -0.48 0.78
-1.80 -1.51 1.68
-2.46 2.94 0.99
2.32 2.17 3.28
0.36 -0.07 2.62
-0.30 1.61 2.25
-2.31 1.12 1.06
3.78 -3.50 3.64
0.88 -2.57 1.96
3.55 -1.90 2.84
-3.03 2.65 1.16
1.89 -0.42 2.74
2.60 -3.15 2.41
0.48 -0.07 2.22
5.12 4.31 4.29
-2.99 3.17 1.38
-4.39 1.82 0.49
-3.13 -3.53 0.65
0.25 3.14 2.68
1.41 4.47 2.97
2.22 -1.71 2.54
0.45 -3.80 1.25
1.73 -1.33 2.11
2.31 -0.16 2.63
-1.49 -3.07 1.64
4.87 3.01 4.33
5.24 1.01 3.67
3.73 -2.79 3.25
2.34 -2.04 2.36
-2.97 -1.04 0.45
-2.94 -3.26 0.66
-2.27 1.96 1.56
-2.97 -3.12 0.20
4.14 -2.68 3.70
-0.45 4.34 2.23
0.59 2.23 2.76
-3.72 -1.99 0.02
-4.32 4.32 1.10
-3.84 3.89 1.20
-2.73 4.01 1.91
-2.88 -3.55 0.22
-4.34 3.89 0.87
4.38 1.06 3.72
-0.69 0.60 1.82
2.44 -1.66 2.24
-2.72 -2.02 0.43
4.34 -1.79 3.49
-0.44 -4.12 1.51
-4.43 3.08 0.77
-0.29 -5.74 0.79
1.58 3.92 2.74
3.82 -3.52 3.39
1.83 0.37 2.65
2.76 -2.27 3.19
1.74 -2.95 2.11
-0.95 -1.73 1.49
0.60 3.37 2.36
-1.74 0.54 1.82
1.67 3.76 3.55
3.43 -1.11 3.49
-2.86 -5.48 -0.10
2.74 -4.90 2.61
-3.79 -1.04 0.82
-0.42 -0.21 2.07
-1.46 1.51 1.72
-2.53 -0.51 1.53
1.93 -4.50 2.11
-0.23 -0.68 2.46
1.90 3.18 3.44
-2.80 2.28 1.77
-0.32 -1.75 1.90
0.58 -1.84 1.75
-0.32 -3.78 1.07
-3.66 4.74 1.29
-4.69 -4.41 0.15
-2.00 -2.82 0.82
-0.39 -5.01 1.16
-0.30 3.73 2.66
-6.22 5.05 0.87
-1.04 -1.28 1.01
-3.39 -1.58 0.85
3.03 3.33 3.49
-0.70 -2.63 1.11
-2.85 3.33 0.89
2.37 0.76 2.66
1.00 2.04 3.04
-1.97 1.70 2.08
-2.21 1.75 1.48
-2.75 1.74 1.12
2.56 1.21 2.75
-0.66 0.02 2.11
3.58 1.32 3.50
0.80 0.56 2.03
-3.22 2.92 1.42
-0.95 4.35 2.39
2.52 3.89 3.49
-0.34 -1.72 1.50
-0.76 -0.00 1.72
3.54 -1.32 3.47
1.58 -2.29 2.46
-1.12 -0.49 2.09
-2.58 0.70 1.30
0.33 1.83 2.13
-1.94 3.76 2.09
2.63 3.94 3.79
0.44 -3.41 1.53
1.99 0.12 3.07
3.30 -1.43 3.05
0.41 -0.24 2.59
-1.08 4.47 2.17
-1.57 -2.49 1.70
-1.12 0.62 1.51
4.24 -1.69 2.82
0.54 3.19 3.19
1.12 0.86 3.08
0.11 3.18 2.39
3.06 4.23 4.34
-4.45 3.48 0.42
-0.43 4.33 2.40
-5.40 -1.36 -0.41
-4.23 -3.73 0.09
-6.30 -4.23 -0.88
-0.23 3.99 2.68
1.86 -1.22 3.13
2.64 -1.59 2.51
1.59 1.89 3.42
-3.87 3.73 0.88
-3.28 2.56 1.16
0.24 -3.59 1.67
-6.06 -0.89 -0.60
1.19 2.47 2.64
-3.35 0.73 1.27
3.45 -4.13 2.63
-2.28 -3.65 0.79
-1.05 -5.53 1.41
-1.67 4.28 2.18
0.72 -3.56 1.71
-0.78 4.28 1.83
-0.83 -3.45 1.14
-2.53 3.75 1.64
0.23 1.73 2.35
3.81 -0.32 2.97
1.36 1.45 2.59
-4.30 0.78 0.29
-0.06 -4.10 1.52
1.03 -4.54 1.76
-4.89 5.31 0.71
0.95 0.47 3.11
1.79 -3.24 2.42
-4.28 -3.02 0.60
3.25 0.68 3.60
2.62 -3.41 2.63
1.41 -4.31 2.53
-0.18 2.19 2.10
0.76 0.64 2.45
-4.22 -0.06 0.94
0.67 -2.09 1.56
-2.58 1.37 1.40
-1.56 -3.31 0.59
3.54 -2.82 3.38
-0.60 4.09 1.95
-5.30 0.55 -0.21
-2.23 3.61 1.66
0.04 -1.56 1.63
-1.78 3.95 2.19
-4.71 -0.82 0.00
2.54 3.76 3.33
-1.25 0.18 1.81
0.52 4.38 3.03
-3.63 2.11 0.80
-1.32 2.18 1.98
-4.38 -2.21 -0.27
-1.36 4.80 1.73
1.37 0.64 2.98
0.48 4.15 2.96
1.98 1.52 3.76
1.73 4.30 2.95
3.82 3.56 3.81
-3.81 2.42 0.99
4.51 1.53 4.05
3.99 -5.31 3.48
3.04 -2.82 2.45
1.77 -5.15 2.12
-2.89 -3.29 0.95
2.23 -3.50 2.80
1.19 1.27 3.23
-3.60 3.02 1.27
2.82 0.10 3.01
-5.38 2.16 0.02
-1.57 -4.63 1.02
3.69 -0.28 3.39
-0.13 2.61 2.00
1.08 -4.80 1.84
0.01 -1.53 2.42
-0.97 -3.82 0.93
2.95 -2.94 2.92
2.53 -5.31 1.81
-5.95 -1.74 0.21
3.83 2.63 3.74
0.06 2.52 1.99
1.82 -0.20 2.81
-0.78 -4.42 1.45
3.75 0.37 3.17
1.55 -3.54 2.17
1.53 3.38 3.33
-1.92 -4.83 0.49
2.14 3.64 4.10
0.56 -4.65 1.64
0.72 -2.28 1.80
1.03 2.63 2.67
-1.24 0.25 1.97
2.42 -1.82 3.11
-0.70 0.18 2.37
-3.06 -1.23 0.96
-3.37 3.39 0.94
2.72 2.83 3.35
0.17 -1.66 2.24
2.90 3.02 3.40
-3.51 3.18 1.68
-4.61 -5.03 -0.86
-1.55 1.35 2.13
-4.85 -3.02 0.14
-0.58 -2.27 1.44
-4.65 -2.17 0.23
0.23 0.61 1.88
-3.59 3.20 1.15
3.76 1.39 3.88
0.69 -0.47 1.74
-0.54 1.53 2.09
-2.39 -3.42 0.22
0.78 -1.25 2.61
-5.30 2.87 0.72
-3.95 4.93 1.09
-2.31 -1.52 0.86
2.58 -1.82 3.07
4.48 2.60 4.32
0.64 -5.07 1.39
-1.65 -3.75 0.92
-3.94 1.27 1.40
2.71 3.92 3.49
-2.63 3.32 1.34
-0.93 -3.49 1.07
-0.55 0.07 2.01
-4.95 0.36 -0.10
-3.35 2.59 1.12
-3.45 -0.13 0.46
4.34 0.25 4.11
2.00 -2.32 2.36
2.25 -4.42 1.89
-0.82 1.83 2.24
-1.53 -2.89 0.80
0.31 3.08 2.39
-0.56 2.19 1.75
-1.48 3.76 2.62
-3.64 1.93 1.47
-5.65 2.25 -0.30
1.72 3.63 -0.33
-5.70 2.60 2.14
-2.75 3.89 4.66
-3.25 3.40 0.15
-1.86 2.16 -5.73
-1.35 2.92 -5.18
-0.61 3.11 -2.21
-3.36 3.09 0.22
3.78 4.92 4.05
2.96 3.52 -5.30
-0.62 3.96 2.10
3.48 3.44 -4.79
-2.20 3.25 0.55
1.28 3.56 -1.91
2.46 3.60 -3.64
1.14 3.77 2.23
2.40 4.31 2.62
-2.73 2.78 -2.54
-3.44 3.61 2.91
-0.69 2.72 -3.23
-1.73 3.85 2.63
-1.66 2.96 -1.64
1.62 4.80 2.64
-0.42 3.59 1.41
-2.94 2.94 0.52
-0.00 3.38 -2.78
-0.42 3.56 0.86
-0.65 2.28 -4.95
3.36 4.92 3.78
-5.23 1.64 -4.01
-4.83 1.71 -5.09
-2.22 3.04 -2.76
-4.93 2.15 -2.49
3.21 3.58 -1.39
-6.54 1.67 -2.69
2.54 4.58 1.91
-0.18 3.29 -1.99
-1.84 4.24 3.08
1.66 3.85 0.31
-0.66 3.57 -1.54
1.24 4.49 1.96
-4.80 1.87 -5.03
-0.37 2.85 -5.04
1.75 4.19 2.80
-1.14 3.65 -0.07
-3.26 1.95 -4.36
-4.05 2.80 0.68
3.21 4.76 4.75
-4.66 2.29 -3.32
-5.14 2.72 1.43
-1.99 3.35 2.18
-3.82 3.37 3.02
-2.38 2.20 -3.32
-1.68 3.57 0.82
-0.89 3.82 1.44
-1.26 2.01 -4.34
-3.72 1.45 -5.67
3.28 4.11 -2.09
3.01 4.48 3.91
-5.04 2.82 1.82
3.38 3.44 -2.67
4.12 4.63 3.49
0.36 2.74 -2.05
-1.24 3.06 -1.32
-4.66 2.17 -1.27
-0.92 3.34 1.12
1.13 2.65 -3.80
-1.82 3.87 2.79
-2.14 3.66 4.35
-0.74 3.16 -0.97
0.85 3.38 -1.34
0.88 3.59 0.79
2.73 4.00 0.31
-3.58 2.03 -3.28
1.80 3.84 0.01
3.66 3.76 -4.24
1.57 3.95 -1.63
0.93 4.18 1.28
-2.80 3.02 -2.22
-1.50 2.73 -2.04
-2.01 3.67 3.27
0.79 3.61 -2.51
-4.27 2.99 4.07
-1.70 2.87 -1.01
1.69 2.80 -6.01
4.16 4.20 -1.93
-0.84 3.83 0.04
-0.38 4.18 3.75
-3.03 3.73 1.31
0.78 3.72 -2.04
-5.35 3.50 3.26
-0.67 3.10 -0.82
-0.06 4.63 3.14
-3.81 1.94 -3.62
-6.00 2.62 1.14
-4.70 3.64 2.62
0.83 4.04 1.39
2.28 3.79 -2.75
-4.40 2.19 -4.34
2.28 3.14 -3.39
2.74 4.11 -1.49
4.72 4.24 -1.66
-5.21 1.78 -5.60
-2.59 3.17 -1.79
-4.96 3.02 1.35
-4.49 2.05 -3.49
-2.11 3.25 1.01
-5.36 2.16 -2.19
3.37 3.32 -4.07
-1.30 2.49 -4.38
4.16 4.40 -1.65
-0.66 4.02 3.46
-4.85 2.79 0.41
-0.74 2.59 -3.86
1.22 4.67 1.51
2.59 3.32 -3.92
0.48 3.18 -4.05
2.46 4.58 1.38
2.15 4.01 2.43
-5.42 2.62 -0.37
-2.84 2.87 1.23
2.53 3.05 -3.58
2.87 5.21 2.87
-1.18 2.76 -1.94
3.34 5.27 3.67
-3.34 1.94 -3.50
-1.06 4.58 4.31
0.31 3.46 0.28
-0.37 3.84 1.05
2.45 5.29 4.96
-1.15 4.28 4.17
-2.51 2.56 -1.71
-4.77 2.18 -4.94
0.98 5.02 3.56
-0.32 3.99 0.87
0.99 4.56 2.65
-3.07 3.25 0.67
-3.24 3.38 2.82
-0.60 4.09 2.10
0.22 3.22 -4.39
-0.95 3.54 0.06
-4.72 2.38 -0.38
-0.60 3.42 -2.56
-2.22 2.67 -2.38
-1.31 3.97 2.62
3.60 4.67 1.75
0.49 3.12 -4.09
0.49 4.63 3.18
-3.37 2.83 0.40
-2.75 3.67 1.97
-5.40 2.82 -0.07
-4.12 3.48 4.09
-0.63 3.74 3.38
3.55 4.81 2.01
-1.81 4.15 2.89
-0.68 3.10 -4.18
-3.89 2.66 -2.15
-6.23 1.77 -6.05
-4.79 3.11 2.97
0.97 3.53 -2.71
0.04 3.56 0.07
2.42 4.88 1.96
3.13 3.73 -3.50
1.16 3.81 -2.05
0.76 2.83 -2.99
-3.46 3.62 3.27
4.39 4.64 2.59
-2.25 3.39 0.22
1.34 4.03 -0.27
-0.05 4.47 2.97
1.94 4.11 -2.20
1.24 2.75 -5.48
-5.14 2.53 -2.77
-3.72 2.66 1.03
1.40 3.37 -1.55
-4.95 2.58 -1.43
2.59 3.92 -3.04
-4.16 3.10 3.44
1.15 3.56 -2.71
0.46 3.36 -0.94
-3.57 2.11 -3.06
-1.05 3.15 1.05
2.31 4.53 2.19
-3.50 3.48 0.40
-3.96 3.28 0.51
-3.77 3.14 -1.45
-0.60 3.08 -1.55
2.75 4.22 -1.42
3.83 3.40 -2.69
3.73 3.88 -0.41
3.80 4.19 -0.30
-4.68 3.36 0.97
-5.71 1.98 -0.83
-1.95 2.81 -1.20
-2.24 2.74 -0.55
2.93 2.74 -5.13
-0.57 3.25 -1.66
-3.59 3.06 3.32
3.71 4.64 3.68
-2.23 1.97 -4.35
-3.97 2.08 -0.81
1.48 3.78 -2.54
1.16 3.82 -0.02
-0.83 3.64 0.33
-4.26 2.94 -1.43
-2.40 3.73 2.70
-0.92 2.52 -3.13
-2.68 1.84 -4.80
3.07 3.42 -2.45
-5.22 3.38 2.41
-3.19 1.77 -4.72
3.17 4.05 0.52
-1.13 3.14 -2.82
-0.56 3.21 -0.19
-0.43 3.46 -0.62
0.91 4.21 1.76
-1.73 3.26 2.37
-0.99 2.34 -3.33
-0.22 3.86 0.38
1.02 4.73 3.01
-1.23 4.02 4.92
-2.21 3.59 1.87
1.65 4.34 1.99
-4.24 2.02 -5.59
-3.40 3.05 -1.26
3.09 3.66 -4.63
-2.85 3.04 -0.99
0.25 3.98 0.48
3.97 3.84 -3.65
-1.48 2.29 -2.44
-4.96 3.15 -0.11
-5.38 2.87 0.23
-2.24 2.33 -2.08
-2.40 2.71 -2.77
-0.43 3.93 0.12
2.56 3.82 0.86
4.13 4.39 -2.12
3.21 4.51 0.03
0.26 3.01 0.00
-1.28 3.60 -0.43
-2.72 3.29 3.14
-4.10 2.61 -0.69
-6.31 1.52 -2.62
-2.04 2.94 -1.41
-1.22 3.08 -1.02
-3.12 1.68 -5.31
0.30 3.63 2.63
-3.31 2.29 -1.72
-5.52 3.18 1.76
3.66 3.20 -3.82
-4.16 2.82 -1.84
-2.80 3.33 3.74
1.14 3.97 -0.62
2.88 3.94 0.61
-1.17 3.67 3.52
-1.37 4.17 2.88
2.23 4.02 -1.66
-1.68 3.60 1.14
2.12 3.78 -2.09
0.47 3.81 2.72
-2.14 2.85 0.13
0.70 4.79 4.73
-4.32 2.17 -2.71
-6.31 1.98 0.23
-3.95 2.31 -4.28
2.19 4.14 2.74
0.32 4.48 2.56
-1.42 3.81 2.21
-0.49 2.45 -4.18
-3.01 3.09 -0.71
-4.38 1.90 -5.07
-5.07 2.36 -0.19
-2.28 3.44 2.19
0.35 4.36 1.20
-0.45 3.11 -1.88
-4.54 2.91 2.56
-4.41 1.55 -5.21
-0.15 3.40 -0.26
-5.79 1.69 -4.74
1.85 2.98 -5.27
3.05 3.96 0.83
-4.42 1.78 -4.98
-3.98 3.49 4.55
3.74 4.26 -0.83
0.85 3.59 1.51
-1.49 3.44 -1.35
-0.02 2.97 -1.13
-1.81 3.75 1.57
1.83 3.98 -1.25
-0.30 2.62 -1.51
2.98 3.51 -3.03
-5.05 2.55 -1.32
-4.97 2.19 -0.36
4.73 4.24 -3.72
-0.31 3.93 2.77
0.24 3.23 -0.38
-4.38 2.48 -4.70
-4.58 2.98 3.11
-6.38 2.77 2.76
-4.19 3.18 4.11
-0.86 3.43 -2.31
0.08 3.33 -2.90
2.38 3.40 -5.50
-4.29 2.84 0.04
4.22 5.10 3.51
-5.67 1.51 -2.12
-4.90 2.78 2.80
-2.61 3.59 0.14
-1.47 3.04 -1.00
0.93 3.31 -1.80
3.80 3.55 -3.96
-4.28 3.30 3.35
-0.82 2.21 -4.49
-3.38 3.11 1.38
-2.14 3.59 3.09
2.35 2.94 -3.19
4.12 4.75 2.52
2.85 4.87 1.41
3.60 5.30 4.27
1.71 5.04 3.98
-1.60 2.89 -3.91
-2.88 3.66 2.01
3.29 4.49 2.22
-3.35 2.18 -4.96
1.14 4.06 -0.36
2.72 4.56 1.20
4.17 3.93 -4.91
-2.72 4.23 4.50
-2.00 3.52 0.51
-4.90 1.42 -4.77
-2.37 4.30 3.65
1.55 2.98 -3.44
-0.97 2.60 -2.68
-1.53 2.59 -1.74
3.23 4.28 1.94
1.79 2.62 -5.90
1.47 3.11 -3.90
-2.97 3.14 -1.16
4.18 4.67 0.90
-6.17 2.78 1.53
-4.24 1.87 -3.78
-1.89 2.50 -1.84
3.10 4.67 1.59
-4.34 2.30 -2.06
-3.01 2.42 -2.09
-2.93 2.77 -3.54
-2.20 2.95 1.77
0.70 3.02 -2.96
-2.56 4.00 2.51
0.03 3.80 2.93
1.58 3.94 -2.97
2.45 3.14 -4.51
-3.36 1.83 -2.69
-1.68 3.17 1.46
-1.63 3.40 -0.83
2.56 4.16 0.98
-2.29 2.53 -1.91
1.15 3.46 -3.07
4.26 4.47 -1.68
1.26 4.46 1.99
-0.77 2.97 -2.27
4.90 5.62 3.91
-1.91 2.61 -4.71
1.20 2.97 -6.01
1.44 4.02 -2.14
-3.89 3.19 1.50
0.09 2.75 -4.27
-3.92 3.25 2.12
1.16 3.85 -1.06
-5.21 2.42 0.07
-1.67 3.76 0.94
-1.75 3.49 -0.56
2.38 4.46 1.66
0.46 4.29 0.69
3.62 5.00 3.00
1.85 4.29 0.66
2.86 3.47 -1.66
-3.88 3.89 4.59
3.07 3.96 0.69
0.74 3.06 -5.13
-0.93 3.01 -0.87
-2.81 2.29 -3.67
4.25 3.36 -4.21
-0.91 2.80 -4.04
2.83 4.35 0.53
-2.16 3.04 -0.33
1.83 4.16 -0.50
-1.73 3.69 1.82
1.64 3.54 -1.25
1.72 3.79 -1.50
-1.45 3.22 0.97
2.62 4.29 -0.68
-2.16 3.87 2.70
3.27 3.72 -4.76
3.01 3.46 -1.65
-3.17 2.66 -3.61
1.03 2.69 -4.94
-1.98 2.07 -5.60
-6.17 1.95 -1.10
0.52 4.40 1.64
-1.15 2.61 -4.37
-0.69 4.12 3.86
-4.65 2.81 0.35
1.98 4.64 3.22
-0.09 2.98 -3.37
-2.20 2.38 -3.30
3.33 3.81 -0.69
-0.53 2.85 -2.42
2.99 4.30 0.42
0.89 4.50 2.58
-4.67 1.95 -5.22
-0.33 3.29 -1.59
-4.47 2.81 -1.95
0.06 2.92 -3.36
0.98 3.05 -4.34
1.20 4.54 1.72
3.08 4.21 1.50
4.16 4.81 4.03
3.45 3.31 -4.24
-2.63 2.53 -2.49
-0.61 4.21 3.88
1.50 3.92 -0.93
-3.60 1.93 -3.66
-0.97 2.25 -5.36
2.74 3.91 -1.27
-3.77 2.88 0.20
2.79 4.29 1.62
-1.12 4.22 3.03
-3.90 3.36 2.87
-0.52 3.48 -2.13
1.56 3.98 -1.16
-5.24 2.63 2.09
-3.45 3.58 1.01
2.17 4.53 3.53
0.75 3.37 -3.90
3.97 3.74 -3.26
4.07 3.78 -1.17
-4.33 3.25 1.82
0.22 4.23 0.38
2.09 2.75 -4.99
-2.74 2.71 0.49
0.11 2.64 -4.79
-1.43 3.73 2.29
0.43 3.29 -0.12
3.49 3.88 0.55
-2.97 2.49 -1.33
-5.71 1.77 -5.34
1.42 3.91 2.22
2.45 4.62 3.33
-4.25 3.72 3.35
3.21 4.24 -1.20
2.58 3.00 -5.74
2.15 3.75 -0.91
3.52 2.99 -6.24
-4.83 1.76 -5.03
3.17 3.35 -5.46
1.79 2.67 -4.10
-2.85 3.37 1.74
1.65 4.23 2.53
-4.05 1.83 -2.81
4.86 4.80 0.58
-1.88 2.74 -1.78
3.16 4.19 1.46
1.12 4.38 3.28
0.88 4.45 1.28
1.69 3.63 -0.84
-4.07 3.03 -0.38
3.57 2.89 -5.39
2.65 3.71 -2.75
-0.46 2.69 -5.15
-1.53 3.41 -0.20
0.17 4.27 3.04
-2.02 2.44 -3.87
3.92 4.69 1.67
-1.23 2.76 -2.67
-3.26 2.06 -3.69
0.08 3.91 3.40
-3.44 3.02 -1.29
3.56 4.99 1.02
-4.87 2.55 0.60
2.45 3.48 -3.40
-5.33 3.21 1.50
2.69 4.83 1.17
2.48 4.18 -1.25
1.41 3.77 -2.32
-0.90 4.31 2.46
-3.53 3.59 5.32
0.77 2.81 -3.28
1.02 3.85 1.54
-0.16 4.62 3.41
-3.60 2.84 -2.20
-2.24 3.03 -1.46
-2.55 1.78 -3.94
-4.45 1.45 -4.84
1.14 3.44 0.54
1.46 3.76 -0.22
-5.51 1.56 -2.59
0.28 3.65 1.73
0.38 4.67 3.82
-4.78 3.62 3.48
-3.50 3.17 -1.61
3.68 5.04 2.97
3.44 4.27 0.33
0.81 3.23 -0.38
-3.75 3.53 1.89
-0.68 3.38 -0.49
-5.35 2.01 -4.47
-3.12 2.84 -3.21
4.43 3.86 -1.28
1.41 3.65 -4.05
0.37 4.40 3.24
1.57 3.12 -2.24
-4.05 2.15 -3.19
-3.05 2.58 -0.40
4.06 3.87 -4.78
1.74 2.74 -4.34
1.18 3.18 -3.16
-0.69 2.98 -2.68
4.12 4.69 0.08
0.23 4.32 1.89
-2.11 3.29 1.99
4.21 3.66 -2.22
-5.73 2.71 2.13
3.68 4.72 0.56
0.95 3.19 -4.35
0.43 3.84 1.45
1.08 3.40 -2.96
-1.92 2.41 -2.25
-0.35 3.58 2.55
-0.82 4.40 2.65
4.20 3.19 -4.03
-0.85 3.14 -2.51
-5.77 2.57 2.34
-0.15 3.17 -1.02
1.60 3.92 1.30
3.86 4.30 -0.18
4.17 4.45 0.93
0.51 3.92 3.12
-3.02 2.43 -3.16
-2.59 1.95 -4.25
-2.78 2.97 -1.81
1.46 3.88 0.94
-3.55 2.86 -1.73
-2.66 2.94 -0.29
3.55 4.10 -3.32
2.77 4.01 -1.07
1.64 4.62 4.25
0.26 2.53 -2.85
-5.60 3.40 2.71
0.23 2.87 -4.63
-5.02 2.83 -0.76
-3.28 2.90 2.70
-2.77 2.41 -2.52
-2.45 2.21 -5.53
-1.24 3.66 2.60
-2.80 1.84 -6.34
0.67 3.54 1.60
-0.45 2.99 -3.56
-3.89 2.71 0.21
1.75 2.79 -3.66
-3.28 2.04 -2.76
1.88 3.85 1.46
-4.82 3.19 0.99
0.80 3.72 2.03
-4.22 2.30 -3.61
-0.84 2.76 -3.14
2.53 4.15 1.72
3.86 4.68 -0.35
-0.82 4.14 1.38
-3.76 2.28 -4.72
-4.86 2.29 -0.13
3.18 3.56 -2.50
3.50 4.74 2.74
-2.50 3.79 1.98
-2.62 4.04 3.84
-0.75 2.92 -2.17
2.53 4.37 1.17
0.04 3.59 2.85
-3.08 2.85 -2.58
-0.24 2.93 -0.71
-1.99 2.59 -2.00
-0.35 3.47 0.79
-5.47 3.58 3.75
3.29 4.46 3.21
-4.42 3.42 1.43
0.95 3.18 -1.74
-4.52 2.39 -2.66
-0.98 3.70 1.15
-3.93 1.98 -5.66
0.00 3.44 1.00
2.66 4.59 4.27
3.23 4.20 0.78
-0.12 3.13 -3.97
1.53 3.36 -4.90
0.47 3.61 -2.94
-0.21 4.42 3.63
1.00 3.49 -1.95
-0.11 2.79 -2.80
1.57 3.51 -3.43
0.10 4.30 2.81
0.40 2.63 -5.14
2.69 5.03 2.22
-5.59 2.54 -0.12
3.87 4.32 -2.63
-5.92 3.20 2.38
-5.83 2.66 -0.56
-4.37 2.38 -0.40
0.25 2.56 -3.66
-4.76 1.80 -3.10
-5.80 3.25 2.69
2.44 2.93 -3.36
-2.78 3.66 1.90
-2.81 2.77 0.51
-2.04 2.35 -2.81
-4.01 1.68 -4.03
0.89 4.52 2.10
-2.13 3.82 3.02
4.57 4.43 0.63
2.75 3.69 -1.86
-3.34 3.10 0.99
-5.58 2.53 0.63
1.51 4.09 -1.43
-2.62 2.42 -0.67
2.81 4.06 -0.46
2.69 2.71 -4.51
-3.02 2.77 1.18
2.65 4.62 -0.26
2.53 4.19 2.88
0.27 3.02 -3.02
-3.24 3.25 3.54
-2.02 1.98 -4.87
2.84 4.11 -2.15
-4.47 2.54 -3.30
0.68 3.99 -1.17
1.93 3.30 -5.80
-0.68 4.58 4.29
-5.07 2.22 -0.83
-0.98 3.29 1.31
-1.46 3.13 1.21
2.31 4.32 3.50
1.31 3.13 -4.76
2.66 3.58 -4.26
3.29 4.18 -0.38
2.76 4.12 -3.50
-5.10 1.16 -6.10
-4.88 3.40 3.15
0.83 4.28 3.92
1.80 3.91 -2.65
-2.72 2.77 -2.69
3.30 4.61 1.50
2.48 4.86 2.57
3.53 4.53 -0.22
-2.22 2.48 -1.60
0.47 2.77 -4.91
-3.39 2.20 -4.41
-0.06 2.08 -5.18
2.81 4.16 1.70
-5.40 2.88 1.90
2.11 3.46 -2.71
3.00 3.07 -2.75
-1.08 2.48 -4.05
-3.25 3.23 1.21
1.84 4.25 1.35
-1.93 4.44 3.99
-3.86 2.88 1.22
-3.61 2.81 -1.75
-0.27 4.04 2.05
-0.08 2.52 -3.47
-2.36 2.62 -3.50
2.67 4.16 3.50
-3.13 3.46 2.70
-5.96 2.25 -3.77
-4.57 2.57 -0.35
-3.56 2.17 -3.37
0.24 3.72 2.52
0.22 3.03 -2.02
2.30 3.26 -3.20
-1.77 4.04 2.76
1.93 3.62 -4.55
-0.40 2.22 -5.06
-0.12 3.06 -4.03
-2.17 2.41 -3.68
-4.09 2.56 -1.94
-1.11 3.18 -0.48
-5.28 2.88 0.91
-0.36 2.81 -3.78
-4.46 2.32 -0.72
-1.46 2.45 -2.07
-4.42 3.48 1.77
-3.58 3.14 0.14
-0.53 3.50 -2.05
-2.61 2.10 -3.29
-3.57 1.65 -5.07
-4.84 1.94 -2.60
-4.70 2.00 -3.16
-0.51 2.53 -3.22
0.57 3.61 1.56
-3.83 1.94 -4.19
2.40 4.28 3.07
-1.68 2.53 -4.02
-1.22 3.18 -3.05
0.26 2.45 -4.46
-0.81 3.44 -1.53
-1.44 3.36 0.85
0.73 3.34 -0.02
-3.06 2.56 -1.59
-4.58 2.71 -2.32
0.83 4.88 3.58
4.29 4.95 3.21
-2.29 2.28 -4.66
-3.60 3.51 1.06
-4.64 1.72 -3.08
-0.68 2.74 -5.74
-4.88 2.71 0.71
-2.49 2.99 -0.03
1.14 3.19 -2.57
-0.30 3.97 0.38
-1.46 3.29 1.87
2.97 4.35 -0.73
-4.22 2.22 -3.42
0.71 3.73 -1.92
-1.86 4.42 3.77
-1.09 2.86 -1.25
-3.84 2.98 2.24
-2.21 3.24 -0.96
-5.46 2.86 3.34
-1.09 3.55 0.15
1.98 5.03 4.75
3.59 4.65 -0.13
3.27 4.07 -0.65
-0.56 3.41 -0.70
-5.92 3.41 2.83
0.51 3.58 -1.60
-2.77 3.21 -1.16
2.15 2.89 -4.01
-0.18 3.59 3.04
-3.90 4.03 4.39
-1.22 2.88 -4.95
3.59 4.68 3.72
2.07 3.57 0.22
-2.26 3.46 2.19
-3.96 2.08 -1.99
2.36 4.03 -0.99
3.48 3.70 -2.77
1.50 2.95 -3.63
0.10 4.39 3.98
1.38 3.48 -1.07
3.09 4.82 4.41
-5.88 1.91 -4.63
2.84 3.86 -3.99
3.09 3.84 -2.95
-2.34 3.23 0.44
0.62 3.15 -1.19
3.27 4.76 3.71
-2.02 3.07 0.99
-4.26 2.76 -1.62
-3.37 3.20 -0.70
2.44 3.61 -3.62
1.62 2.94 -5.38
3.56 4.69 0.96
-4.97 1.95 -0.56
2.62 4.54 4.05
1.74 4.56 3.18
1.75 3.67 -3.55
-2.32 2.98 -0.67
-1.99 2.62 -2.00
-4.36 3.39 3.23
1.64 5.07 4.41
-4.57 3.18 4.02
-2.72 3.08 0.97
0.91 3.73 1.27
-4.31 1.16 -5.51
2.29 3.69 0.47
1.33 3.43 -1.39
-5.41 3.09 2.91
-3.33 2.69 1.17
-4.93 3.61 2.88
-5.15 2.49 1.32
-2.68 3.40 3.06
1.20 4.64 3.22
-3.54 2.57 -2.95
3.12 4.71 3.55
-3.16 3.16 -0.16
0.08 4.27 3.65
1.54 4.41 1.68
0.50 3.27 0.09
-1.12 3.35 -0.70
-5.82 2.74 -1.68
1.15 4.38 3.62
-1.74 2.79 -4.39
1.69 3.16 -3.86
-2.50 1.99 -3.42
-2.93 3.22 -0.15
1.11 4.24 -0.02
-2.73 2.95 -0.67
-0.72 2.61 -3.54
-2.69 4.09 3.89
3.99 4.43 -0.71
-2.59 3.84 2.14
3.50 4.15 1.84
-1.37 3.18 -0.18
-1.73 2.29 -3.30
1.32 3.12 -5.58
0.03 4.21 2.21
-5.60 1.72 -2.86
-3.00 3.35 -0.31
-4.48 2.60 0.40
-3.85 2.11 -5.35
3.05 3.06 -4.88
1.16 3.24 -2.06
-0.82 3.21 -3.08
2.06 3.69 -1.32
4.02 4.62 1.60
-4.06 2.73 -0.26
-2.19 3.61 1.61
-0.73 3.62 1.16
-3.01 3.94 2.65
0.33 3.79 -0.66
-2.75 4.05 3.42
-3.69 2.41 -2.81
3.15 4.78 1.23
2.78 3.74 -0.39
-1.33 2.33 -4.75
2.58 4.02 -0.41
-4.74 3.88 4.41
0.69 3.65 -0.76
3.93 4.04 -2.73
3.17 4.64 -1.00
-6.23 2.08 0.86
-0.07 2.88 -3.36
-3.82 2.37 -1.40
-3.50 3.43 3.30
-0.02 3.59 2.69
-4.87 2.49 -0.67
2.98 3.45 -2.36
-2.45 3.07 2.51
-1.40 3.42 2.74
2.36 3.48 -2.45
3.57 3.42 -2.78
-4.87 2.37 1.44
1.40 5.14 4.67
3.81 4.18 -2.46
-0.09 3.35 -0.19
2.76 4.30 -0.62
-0.63 3.03 -3.69
1.43 2.88 -5.19
2.34 4.08 -1.00
-3.46 2.90 1.16
-3.67 3.44 0.73
2.16 3.34 -1.57
-4.66 1.76 -4.08
-3.18 2.34 -3.38
-4.46 3.22 2.98
-3.74 2.08 -4.99
2.47 3.78 -0.24
0.45 3.77 1.33
-0.51 3.10 -3.49
1.22 3.96 2.48
4.50 4.89 1.22
-1.52 2.99 -1.93
-2.56 3.49 2.80
2.09 4.27 2.44
3.40 3.33 -4.39
-4.97 2.67 -1.77
-2.53 3.12 0.13
-0.13 3.51 2.47
-3.11 3.83 2.08
3.02 3.10 -5.34
-5.35 3.26 3.23
1.91 4.66 2.73
0.66 3.66 0.40
-4.90 3.66 4.22
1.63 4.25 2.83
-3.23 3.45 2.60
-1.37 3.99 2.49
2.55 4.75 4.45
2.06 3.92 0.75
-2.91 3.38 -0.73
-0.94 3.27 1.10
-5.27 2.65 -0.15
2.38 3.44 -3.62
-3.54 1.63 -5.02
0.42 3.98 -0.65
3.51 4.57 -0.08
2.81 3.36 -4.28
3.66 3.93 1.39
0.36 4.13 3.14
-4.44 2.20 -1.78
-1.36 4.40 2.92
1.62 4.05 1.34
3.42 4.51 -1.31
2.92 3.56 -2.96
1.16 4.56 2.26
5.06 5.10 1.35
3.05 5.07 1.54
1.35 4.02 2.84
-0.12 3.83 1.24
2.82 3.67 -0.51
-3.48 3.98 5.09
-5.22 3.10 1.45
1.05 4.67 3.65
-1.16 2.11 -4.20
-3.22 3.08 2.70
-4.32 3.65 2.82
3.78 3.93 -3.86
2.63 3.74 -3.25
1.24 3.55 -1.79
4.26 4.58 -1.38
-4.92 1.96 -0.96
0.90 3.94 1.25
2.92 3.50 -5.30
-3.97 2.34 -4.57
-1.27 3.35 -0.67
-3.92 1.58 -4.24
-1.02 4.31 2.21
0.60 3.56 0.41
-2.04 3.47 2.54
-0.40 3.66 2.75
-4.05 3.00 2.86
-1.60 3.10 -2.77
-1.05 2.43 -4.88
-3.93 2.67 -0.31
-1.42 3.67 3.03
-2.67 2.11 -2.66
0.44 3.93 1.47
0.93 3.06 -3.16
-0.57 4.16 4.58
-5.11 3.51 5.15
-4.13 2.41 -1.36
-1.44 2.82 -2.69
2.83 3.47 -2.58
3.54 3.10 -5.29
-0.87 2.98 -0.75
2.95 3.85 -3.78
1.86 3.95 -0.57
-6.07 1.53 -2.23
-0.47 3.56 -1.35
-2.14 3.03 0.37
-0.67 2.84 -2.84
-3.14 1.86 -3.29
1.01 4.00 -0.22
-3.12 2.65 -4.20
-2.99 3.32 -1.11
-0.77 3.15 -2.20
-3.93 3.23 2.98
2.49 4.27 -0.38
-1.36 3.84 1.96
-3.52 2.76 -0.50
-2.70 3.49 3.12
3.39 4.12 -3.12
-2.10 2.67 -1.03
3.06 3.47 -5.98
0.35 3.15 -5.06
-3.51 2.20 -4.81
1.41 3.25 -2.90
0.83 4.04 -0.27
2.57 4.39 2.80
4.75 4.81 0.35
2.02 3.36 -4.06
-2.89 2.07 -2.13
-1.46 2.46 -2.47
1.36 2.95 -5.72
1.47 2.74 -3.72
2.54 3.87 1.48
2.84 4.57 0.87
-4.69 2.28 0.06
-0.63 2.69 -2.75
-1.61 3.40 -1.11
1.87 3.42 -3.66
1.42 3.96 -0.08
-5.27 3.09 2.06
-1.27 2.36 -2.32
-3.59 2.77 -1.34
-0.30 3.33 -1.58
1.23 3.23 -4.43
4.18 3.73 -5.42
-2.69 2.89 -2.31
-2.54 1.59 -6.09
-4.96 2.24 -1.70
-1.61 3.60 2.07
-4.41 1.83 -3.74
-5.89 1.95 -2.36
-4.41 1.52 -4.63
-4.17 1.93 -5.29
2.25 3.48 -3.70
0.69 4.64 2.93
-0.50 4.37 2.60
-4.16 2.08 -2.70
2.35 5.08 2.71
3.80 4.85 0.34
-2.25 2.29 -3.73
4.50 4.03 0.18
-1.40 3.80 3.30
-2.89 2.36 -4.74
-3.68 3.23 2.80
2.11 4.42 4.09
3.94 4.85 1.27
2.91 4.73 3.58
-5.42 1.72 -5.12
