ply
format ascii 1.0
comment Made by Nomoko
element vertex 3000
property float x
property float y
property float z
end_header
-0.97 0.32 0.81
0.84 -2.40 1.81
-2.79 2.32 -0.11
3.77 -1.16 1.71
1.67 2.05 0.02
4.66 -0.77 0.72
2.84 -2.47 1.74
0.47 0.75 -0.17
0.40 0.98 0.33
0.74 -0.39 0.92
-4.94 1.40 0.36
-0.49 5.16 -1.56
2.81 -2.36 1.29
1.49 -3.19 2.15
2.65 -2.87 1.44
-1.00 -4.12 2.36
3.24 0.41 0.52
0.12 2.38 -0.21
-2.02 -2.00 1.40
-0.70 -0.28 1.18
0.24 2.14 0.12
1.24 -2.91 1.65
-4.44 -3.62 2.93
-1.26 0.67 0.46
-1.61 -1.05 1.91
3.67 3.51 -0.80
4.52 -0.62 0.94
-2.89 -3.83 2.19
3.78 1.83 -0.76
3.44 -0.60 0.43
3.58 4.54 -2.17
0.52 -1.08 1.02
-4.38 1.33 0.26
-1.64 4.38 -1.53
-0.73 0.68 0.11
3.91 1.70 -0.14
-3.77 4.12 -1.59
4.68 3.26 -1.28
-3.97 1.70 -0.49
3.61 2.98 -0.53
4.70 3.79 -0.84
-1.30 0.97 0.65
-0.10 2.90 -0.62
-0.84 1.12 0.53
1.35 -5.17 3.18
-3.60 -1.56 1.16
1.22 1.12 0.53
4.26 0.30 0.39
3.41 -0.28 0.41
-3.50 4.26 -1.09
-4.50 2.89 -0.04
1.82 -2.30 1.64
1.18 1.14 0.15
-2.49 -0.36 0.95
0.28 2.46 -0.67
-0.40 1.03 0.59
0.39 3.40 -0.80
-2.06 2.56 0.04
1.82 4.16 -1.04
0.38 3.55 -0.68
1.76 3.56 -1.23
-3.91 1.92 -0.61
-2.44 -4.71 2.69
-0.06 0.31 0.54
4.99 -3.61 1.94
-0.30 -2.35 1.41
-2.64 3.72 -0.79
4.46 0.31 0.72
3.17 -0.61 1.08
-4.30 -0.20 1.03
-3.98 -2.02 1.74
0.25 -4.84 3.33
-5.02 -4.24 2.49
-1.90 1.63 0.28
-2.82 -1.14 1.29
0.34 -3.31 2.61
2.34 -3.55 1.87
1.45 -0.32 0.51
4.65 -2.77 1.59
4.16 -0.73 1.23
-0.40 2.80 -0.46
3.59 4.55 -1.34
-3.33 -0.49 0.91
-0.35 0.32 -0.13
-0.23 4.22 -1.68
2.94 -2.20 1.90
-4.17 -1.35 1.33
2.83 2.63 -0.72
0.96 -4.80 2.28
-0.82 1.43 0.14
-4.76 2.19 0.46
-3.62 -3.49 2.74
-1.55 -2.68 2.44
-1.10 2.23 -0.10
3.61 -4.97 3.11
3.72 1.29 -0.50
2.75 -0.91 0.80
-3.96 0.48 0.94
1.59 0.31 0.74
-5.20 4.12 -0.86
3.93 3.67 -1.49
-1.40 -3.53 2.02
-1.15 0.13 0.71
0.57 0.67 0.63
-0.72 -1.15 1.43
-2.06 -0.47 0.82
2.68 -0.45 0.69
3.91 1.46 0.39
-4.42 2.65 0.10
2.75 -0.58 1.14
-0.80 2.34 0.00
-2.99 -0.48 1.30
-3.82 1.89 0.50
-4.33 3.34 -0.35
0.92 -1.00 1.18
4.17 -3.04 2.15
3.59 -2.54 1.86
-2.87 3.20 -0.95
3.20 1.54 -0.23
-3.31 -0.44 0.67
-0.83 3.66 -0.91
-3.54 -1.87 1.95
4.69 2.31 -0.07
-2.90 -3.19 2.79
-0.20 -2.03 1.17
-4.63 -2.69 2.72
0.93 -2.97 2.27
3.88 -0.78 0.96
-2.34 -2.15 1.34
4.13 -2.62 1.78
4.48 -1.90 1.48
0.95 -0.41 0.48
4.52 -2.35 1.44
1.60 2.17 -0.65
-4.64 -3.25 2.43
-0.42 0.87 0.26
-3.39 -0.98 1.66
4.60 -0.26 0.95
1.99 -2.29 1.86
-2.63 -4.12 2.96
-1.19 -1.67 1.40
-2.34 -1.08 1.48
-3.61 4.42 -0.97
2.08 -1.71 1.12
-1.95 -2.28 1.44
-2.88 -3.40 2.03
0.93 0.60 0.26
-4.21 3.04 -0.71
-4.02 0.36 1.14
-1.08 1.22 -0.25
-3.96 -1.79 1.70
4.06 2.06 -0.85
-2.38 3.71 -0.90
4.87 4.11 -1.58
4.74 -4.78 2.10
0.48 5.60 -1.80
3.21 0.35 0.66
-4.60 -3.85 2.61
4.48 -3.88 2.21
-2.05 0.56 0.99
1.80 3.49 -0.70
2.62 -3.83 1.71
3.59 1.34 0.41
3.65 -1.63 1.55
-2.64 -2.67 2.46
-4.68 -3.44 2.15
-1.22 -1.49 1.49
-1.25 1.86 -0.13
4.90 0.28 0.83
1.20 -1.91 1.34
-4.53 -1.26 1.66
-4.65 -2.41 1.89
-2.54 5.32 -1.88
3.55 -4.52 2.12
-3.08 2.85 -0.40
-3.93 -0.09 1.45
-3.57 0.37 1.10
3.12 4.94 -1.89
-3.77 1.26 0.18
5.13 2.88 -1.32
-2.12 0.72 0.51
4.81 -2.49 0.97
2.44 1.91 -0.30
-3.56 3.27 -0.19
-1.25 -1.86 1.42
4.27 1.31 -0.31
-2.19 3.44 -1.24
2.56 3.31 -1.07
-0.41 -5.59 2.56
-1.39 -1.29 1.61
-0.36 0.64 0.00
3.39 0.27 -0.19
0.24 2.67 -0.11
4.57 -4.27 2.78
4.14 -2.71 1.85
1.67 3.62 -1.42
-1.24 -2.42 1.49
3.05 -3.60 2.66
-0.05 2.92 -0.34
4.44 2.50 -0.56
-1.88 3.21 -0.72
4.43 0.19 0.14
2.98 5.06 -1.98
1.49 -1.92 2.00
-0.68 -4.07 2.17
2.23 0.20 0.05
-4.73 1.14 0.50
0.43 1.93 0.08
-3.02 3.84 -1.62
-2.90 1.71 0.31
-3.35 3.81 -0.55
-4.36 -1.63 2.09
3.66 1.12 0.05
0.69 -1.61 1.45
0.88 1.23 -0.12
3.87 -2.27 1.44
-3.25 -2.14 1.31
-4.64 -0.09 1.02
2.40 -3.06 1.63
0.85 1.00 -0.09
1.65 0.10 1.05
-3.41 5.29 -1.34
-0.00 -3.46 2.12
-2.29 -3.68 2.08
4.95 -0.32 0.78
0.47 2.96 -0.08
4.75 -0.24 0.89
4.63 4.73 -1.45
0.31 -0.16 1.03
3.68 4.00 -1.63
-2.06 1.13 0.11
-3.38 0.75 0.85
-1.10 0.52 0.66
-3.16 -3.13 2.92
2.64 -1.41 0.98
1.12 3.80 -1.11
5.10 -1.24 0.69
2.96 0.62 0.59
2.21 2.21 -1.02
-4.75 -0.69 1.11
-3.71 0.83 0.22
-4.21 -0.60 1.43
-0.78 -4.10 2.91
-2.69 -5.20 2.91
4.18 -1.70 0.98
-2.21 -2.11 1.18
2.30 -2.87 1.65
3.91 4.70 -1.64
-3.32 4.15 -0.78
-3.17 1.98 -0.56
0.65 4.62 -2.07
0.61 2.59 0.08
-1.29 0.53 0.78
1.88 4.19 -0.94
-3.36 -1.19 1.78
3.91 4.86 -2.00
-4.98 -0.12 0.61
-0.45 5.28 -1.80
-3.01 -1.22 0.95
-4.14 0.15 0.56
-0.24 1.90 0.28
3.34 -3.60 2.62
-1.55 1.11 0.52
-4.58 1.01 0.89
4.85 0.27 -0.12
-2.97 -0.72 0.84
2.75 -2.98 1.52
-4.02 3.40 -0.64
2.60 -0.04 0.82
3.45 -4.51 2.89
4.02 -1.21 0.95
-1.73 3.88 -0.92
1.05 -3.54 2.04
3.26 5.24 -1.30
3.62 -5.15 3.21
-2.26 -3.69 2.33
0.29 0.56 0.10
0.43 -1.78 1.04
0.18 -0.62 1.32
-1.91 -1.53 1.40
4.44 5.42 -1.54
-3.19 -2.04 2.12
-0.91 0.70 0.85
-3.83 2.96 -0.72
-0.79 1.70 0.44
-0.87 -0.38 1.12
-0.40 -0.71 1.20
3.91 2.61 -0.14
-1.73 -4.07 2.90
1.54 3.86 -1.15
0.53 -2.27 1.41
0.20 0.76 0.32
1.64 -2.51 1.79
-3.04 -0.29 1.04
4.11 -3.09 1.78
3.07 0.79 0.45
0.62 -2.05 1.50
1.31 2.18 -0.14
0.59 -2.57 1.80
4.12 -4.54 2.50
-3.75 -4.93 2.92
-3.66 1.51 -0.20
0.46 2.50 -0.99
0.38 1.04 0.18
3.82 1.10 -0.42
1.30 -3.47 1.72
-2.36 -0.35 0.75
-0.07 -4.27 2.36
2.13 1.41 -0.12
3.48 -3.38 2.17
-0.07 -1.03 1.70
-2.98 5.23 -1.86
2.13 -0.76 1.25
0.76 4.89 -2.04
4.34 -2.57 1.43
-1.31 -1.11 0.91
0.36 1.80 -0.29
-2.49 4.23 -1.10
0.04 -0.73 0.61
-2.74 1.49 0.25
-3.96 3.32 -0.90
2.41 1.15 0.51
4.33 -1.40 1.10
-1.06 0.03 0.76
1.38 2.92 -1.34
-4.82 -2.06 2.56
-4.51 -1.30 1.23
-1.58 -0.20 0.95
-2.52 -3.33 2.21
-1.93 2.45 -0.82
-4.18 -1.37 1.82
4.87 -0.60 0.91
4.21 -5.02 2.37
-2.03 -0.69 0.54
1.09 3.32 -0.50
-0.28 1.33 0.52
0.63 1.82 -0.27
1.17 4.01 -1.66
-0.09 2.91 -0.13
-1.50 -1.38 0.75
4.27 -1.97 1.56
-2.32 4.07 -0.53
-2.24 -0.98 0.78
-0.00 4.43 -0.96
1.37 1.92 -0.69
-3.71 3.40 -0.69
-3.24 0.71 0.95
-3.79 2.97 -0.74
1.78 0.24 0.45
2.69 -4.12 3.07
3.46 -0.93 0.82
0.96 -2.22 1.08
4.37 2.26 -0.50
-0.39 -2.21 1.02
-4.43 -2.63 2.30
-1.59 2.90 -0.74
4.00 -3.34 1.41
-0.41 -2.52 1.79
-2.07 0.96 0.40
3.84 0.69 0.39
0.43 1.95 -0.45
-2.17 -2.90 2.53
3.99 -0.23 1.10
3.53 0.14 0.22
-4.95 2.58 -0.47
-1.38 -2.12 1.58
3.67 -0.05 0.64
4.48 -1.47 1.18
4.50 -2.25 1.81
-1.83 3.08 -0.19
0.33 -1.46 1.06
0.73 -1.40 1.47
-1.98 1.88 -0.63
-4.27 0.95 0.02
-1.01 -1.38 1.54
-5.34 1.40 0.08
-4.36 -2.99 2.74
-0.85 2.24 -0.50
4.15 -1.51 1.03
-4.57 2.24 -0.49
3.20 -2.09 1.99
-1.09 -3.84 2.05
2.68 4.16 -0.92
-3.15 -1.77 0.96
-3.64 1.68 0.52
-0.93 5.60 -2.28
-0.13 -5.74 2.99
-2.15 -0.27 0.79
1.34 2.47 -0.80
-2.93 -2.60 1.87
-1.56 1.74 -0.07
4.27 2.46 -1.23
-3.93 1.84 0.47
2.55 1.53 -0.64
4.17 4.25 -1.00
-4.08 -1.65 2.01
1.54 3.23 -1.22
-1.27 -1.28 1.26
-4.49 -2.43 1.92
0.22 3.50 -0.31
-3.07 0.04 0.50
4.61 2.65 -0.82
4.94 3.23 -0.65
4.08 -2.17 0.99
3.58 -1.29 0.50
-0.26 2.01 -0.19
-4.99 0.96 0.29
1.43 3.13 -0.43
4.18 4.31 -1.01
2.25 5.44 -2.16
0.65 -1.72 1.28
-1.34 2.25 -0.35
4.19 1.06 -0.16
-3.39 3.50 -0.97
1.55 -3.49 2.38
0.73 2.22 -0.64
-2.63 -1.89 1.27
1.93 -3.77 2.73
4.24 2.45 -0.21
3.86 0.74 0.15
2.41 0.39 0.38
3.75 1.00 -0.56
-3.80 -3.33 2.83
1.25 -4.14 2.53
-3.35 5.12 -0.96
-1.04 5.40 -2.34
-2.70 -1.03 1.28
0.58 1.89 -0.53
-4.17 -2.86 2.43
-0.70 -1.42 1.17
4.43 -0.51 0.76
-1.79 -1.92 2.10
-1.68 -0.25 0.59
1.50 3.26 -1.03
-4.44 -0.73 1.17
-0.89 -4.28 2.30
-0.50 -5.02 3.33
-4.66 -0.71 1.43
4.56 1.42 -0.64
2.98 -5.35 2.94
-4.29 -2.26 1.70
-2.46 0.49 1.06
-2.64 1.60 -0.15
-5.08 3.34 -0.25
-1.74 0.02 0.99
-2.56 5.63 -1.85
4.59 -3.67 1.71
-1.07 -2.20 1.25
4.76 1.39 -0.02
-0.72 -0.31 0.34
-4.51 3.61 -1.17
-5.11 1.02 -0.07
-1.37 -4.94 2.88
-4.24 -1.97 1.64
-5.05 -3.30 2.76
-1.64 -2.05 1.61
-2.22 -4.80 3.12
2.24 2.37 -0.15
0.70 0.98 0.04
-2.00 1.17 0.39
-2.51 2.83 -0.21
0.28 -1.21 1.39
2.28 -1.53 0.76
4.92 0.83 -0.38
-0.99 -1.22 0.90
0.54 -0.84 0.98
-2.02 2.03 0.21
-4.61 -0.92 0.85
-1.00 3.42 -0.81
1.45 -2.42 1.33
-4.51 2.03 0.51
3.95 0.17 0.16
-0.27 -0.90 0.80
3.98 4.10 -1.71
0.37 -3.04 2.38
4.11 3.31 -1.02
-1.80 -2.69 2.21
4.79 0.65 0.28
4.98 3.24 -1.10
1.21 2.44 -0.08
-2.70 2.77 -0.94
0.68 -2.77 1.93
-3.16 -0.29 1.23
1.70 -1.11 0.84
3.14 -2.83 1.74
-4.90 -0.61 1.20
4.21 2.37 -0.60
2.63 -4.82 3.16
-2.76 1.60 0.24
-2.21 -0.11 1.28
1.87 -2.95 1.83
1.26 2.15 -0.58
3.33 -1.07 0.74
-2.24 -0.20 0.69
1.64 -0.61 1.12
0.04 1.13 0.58
3.79 3.02 -1.18
-3.53 -1.29 1.52
2.53 3.35 -0.37
-4.54 1.82 0.55
3.18 0.09 0.87
-0.73 -1.00 0.52
-1.78 5.25 -2.07
-1.35 4.64 -0.74
-0.65 -1.48 2.02
2.02 -0.58 0.58
3.04 -0.43 0.56
0.99 3.59 -0.72
-3.31 0.90 0.28
-3.14 0.99 0.91
3.48 0.45 -0.36
3.88 -2.68 2.01
2.28 0.55 0.80
-1.63 1.20 0.29
-3.63 -0.53 1.18
-2.08 2.36 -0.35
1.80 0.66 0.32
-0.44 -2.34 1.45
-3.10 -2.29 1.66
0.03 -2.09 2.08
-4.98 5.36 -1.06
0.77 -2.06 1.93
-3.36 2.22 -0.14
-3.56 0.46 0.36
2.35 -2.01 1.81
3.64 -2.02 1.80
2.89 4.13 -0.94
-2.19 3.05 -0.31
1.65 1.93 -0.58
0.54 -0.44 1.19
-1.85 4.66 -1.56
-1.25 -1.43 1.02
0.71 -1.00 1.61
-2.65 0.88 -0.12
-3.36 -1.43 1.91
2.99 4.98 -1.67
-4.16 3.26 -0.93
1.06 1.01 -0.27
-2.63 -0.17 0.81
5.18 0.11 0.75
-4.56 1.47 0.07
4.13 3.65 -1.45
2.35 -2.15 1.19
0.12 1.61 0.19
-2.50 -1.70 1.59
-2.08 -3.08 2.44
-0.54 0.01 1.00
-4.72 -3.21 2.35
-2.46 -0.46 0.48
-1.01 4.77 -1.27
0.90 2.39 -0.60
-4.86 1.96 -0.13
-3.53 -0.47 0.82
0.31 -2.54 2.11
-4.00 -4.64 3.05
-2.72 -0.96 1.21
-4.06 -0.56 0.94
-4.86 -0.65 0.76
-1.60 -0.58 1.39
3.39 -1.13 0.48
-3.33 0.10 1.23
4.83 -0.95 0.72
2.65 0.02 1.12
-3.82 -1.29 1.15
-3.90 2.92 -0.55
2.49 1.97 -0.36
0.15 -0.72 0.65
-4.70 2.97 -0.33
-2.01 2.41 -0.68
-0.04 0.96 0.39
-3.91 -0.74 1.32
-3.30 0.92 0.19
-3.56 -3.72 2.43
4.93 -0.38 0.99
4.32 -2.10 0.85
3.10 -4.67 2.06
2.86 -1.63 1.58
2.37 2.22 -0.30
-0.84 -0.09 0.53
0.69 -0.55 1.28
-1.89 -0.79 0.99
-2.46 -0.86 1.14
-1.19 -4.14 2.63
5.27 2.98 -1.34
-2.20 -1.33 0.92
1.44 -4.01 2.04
2.49 -1.99 1.84
-2.55 -3.50 2.11
-3.93 0.84 0.49
1.97 -1.33 1.25
2.78 -4.24 2.99
-4.62 -1.46 1.53
2.86 2.02 -0.84
2.08 2.35 -0.71
2.08 5.72 -2.51
0.37 1.94 -0.35
-1.20 3.14 -0.80
2.24 0.06 0.38
-2.75 -1.27 1.24
-3.43 0.50 0.70
2.14 -3.74 1.67
-4.60 -0.14 1.27
4.85 -1.23 1.69
-4.34 -4.92 3.30
4.81 -1.10 1.06
3.22 5.26 -2.61
-2.16 1.97 0.15
0.13 2.92 -0.76
3.03 5.10 -1.85
-3.88 -5.01 3.32
1.63 -3.45 2.12
2.66 2.66 -0.77
2.90 -3.71 2.73
1.80 -2.75 2.20
1.46 -1.41 1.05
-3.59 -2.27 1.73
1.33 0.08 0.14
-4.97 0.32 1.02
3.09 1.07 0.61
0.66 -1.26 1.46
-1.01 1.00 0.30
3.22 4.05 -0.91
2.58 0.89 -0.01
2.41 -4.17 2.59
-3.84 -1.88 1.77
0.41 -2.79 2.12
-1.15 3.13 -0.94
3.12 -3.04 2.12
1.35 4.64 -1.25
-2.34 1.53 0.26
-2.26 -1.97 1.84
3.30 0.33 -0.03
-4.47 3.04 -0.71
1.04 -3.75 2.16
-2.44 1.06 0.12
1.25 -0.91 1.40
-4.07 1.93 0.14
0.69 1.00 -0.01
4.96 -2.54 1.32
-2.36 2.44 -0.49
3.91 -0.46 0.43
4.72 -1.38 1.16
-2.28 0.50 0.68
-2.16 -2.11 1.50
0.10 -4.18 2.71
4.68 0.38 0.60
-4.08 5.64 -1.27
4.92 -0.21 0.74
3.26 -1.22 1.39
4.17 0.52 0.44
-0.38 0.24 0.59
1.76 2.25 -0.73
-3.60 0.31 0.44
4.63 1.99 -0.11
3.94 -2.74 1.33
-3.82 -1.22 1.43
1.38 2.61 -0.28
-0.44 3.27 -0.78
4.81 -2.45 1.64
-2.89 -2.99 1.70
-1.15 -0.25 1.14
4.84 0.92 0.23
-1.84 2.42 -0.08
3.36 3.44 -0.87
-4.39 1.84 0.15
3.20 2.68 -0.72
1.44 2.13 -0.12
-3.70 2.81 -0.23
-3.75 5.53 -0.99
-3.89 -2.00 2.26
2.95 0.09 0.63
2.24 0.64 0.30
-0.44 -0.03 0.63
0.17 -2.45 1.33
0.48 3.71 -1.61
2.12 4.11 -1.44
2.68 0.57 0.06
0.94 -1.66 1.81
0.60 -0.81 1.30
0.59 -1.21 1.07
-3.08 -3.09 2.00
3.83 3.01 -1.18
2.72 1.59 -0.45
-4.83 0.40 1.06
1.16 -2.05 1.04
-0.22 -2.91 2.25
1.74 4.97 -1.24
-3.66 -2.49 2.16
-3.34 3.12 -0.43
3.37 -1.71 0.78
2.25 -4.58 3.27
-1.87 -1.83 1.92
4.03 4.25 -1.20
0.57 -1.43 0.95
-0.67 -3.37 2.69
3.58 -3.83 2.07
2.06 -2.06 1.74
1.66 -1.61 1.72
3.06 1.06 -0.57
-0.34 3.60 -1.50
-0.26 3.66 -0.81
-0.00 1.75 -0.27
3.23 -3.05 2.29
-2.36 0.87 0.77
2.66 -2.87 2.01
2.95 3.35 -0.61
1.18 0.75 0.12
3.47 4.85 -1.59
4.39 -1.55 0.80
-4.67 -2.22 2.40
5.23 -3.30 2.46
1.21 1.90 -0.50
-0.94 -5.15 3.34
3.96 2.21 -0.69
-4.56 0.05 0.95
3.32 0.46 0.33
-3.37 -2.44 2.44
-0.58 0.26 0.52
-0.80 5.38 -2.12
1.92 -3.61 1.90
-0.78 1.33 0.02
-2.53 2.84 -0.15
1.32 4.53 -1.62
-0.12 1.70 0.05
-1.98 -0.91 1.59
3.77 -1.84 1.31
3.91 5.68 -1.81
2.86 -4.32 2.85
-1.09 0.13 0.62
2.84 1.13 -0.19
-3.28 3.15 -0.52
4.04 2.24 -0.10
0.27 1.28 0.07
-0.19 -0.50 1.16
-2.32 -2.86 1.93
-3.81 -0.12 1.00
-1.76 1.36 -0.00
3.46 0.06 0.24
3.03 -2.99 1.67
1.69 -2.75 2.29
-4.30 -0.74 1.92
-3.43 -3.30 2.52
1.53 1.33 -0.40
-5.22 3.84 -1.14
-0.32 -0.37 0.47
0.13 -1.15 0.72
2.92 -1.68 1.28
4.28 0.15 0.29
3.50 -0.15 0.22
-1.25 -2.33 2.08
-5.27 -2.05 1.74
2.36 1.84 -0.53
-3.52 -0.42 1.62
3.37 0.23 0.83
3.23 1.85 -0.28
-2.97 1.50 0.40
-3.77 2.47 -0.16
3.08 2.58 -0.35
-0.38 -0.61 0.74
4.16 0.15 0.50
0.46 2.75 -0.43
1.22 1.98 -0.41
0.71 -1.70 1.87
0.05 3.15 -0.78
1.74 2.70 -0.89
1.18 -2.77 2.24
-0.31 2.73 -0.59
-0.66 4.31 -1.33
-4.52 3.52 -1.11
-2.33 4.43 -0.72
-2.24 1.32 0.16
-1.88 1.10 0.17
1.54 -2.97 1.94
-1.98 5.19 -1.91
-3.43 0.51 0.70
-4.04 -0.13 1.15
-2.38 4.66 -1.36
4.32 1.97 -0.09
2.59 3.73 -0.98
0.78 -1.11 1.51
0.07 0.90 0.81
-3.03 -2.64 2.49
3.05 1.79 -0.62
-5.03 4.07 -1.03
5.16 -0.54 0.14
1.74 -4.48 2.59
2.13 3.44 -1.43
3.46 -4.17 2.01
-3.14 -1.33 1.73
-0.62 -0.55 0.99
-4.58 4.68 -0.90
4.20 -2.31 1.60
-1.67 4.38 -1.12
1.27 -4.04 2.13
3.69 -0.45 0.60
2.80 -2.03 0.96
1.86 -0.87 1.35
0.96 0.55 0.50
-3.93 3.61 -0.81
1.17 -2.23 1.63
-1.13 -2.21 1.43
0.98 1.70 -0.29
-3.63 -4.61 2.69
-3.75 -1.85 1.88
-1.14 -5.12 3.12
1.58 -2.92 1.67
2.56 1.66 0.37
-1.34 -0.04 1.17
-3.49 -0.95 1.58
-3.48 -0.41 1.52
4.92 0.04 0.49
-2.98 -3.41 2.25
-2.75 1.24 0.22
-2.82 -0.54 0.99
1.76 -0.27 0.62
-3.32 -2.61 1.59
2.35 -0.33 0.65
2.35 4.31 -0.96
-2.95 -3.66 2.74
-2.01 2.12 0.14
-3.68 -3.80 2.67
-0.57 3.65 -0.53
-2.76 -2.18 2.01
4.56 -0.34 0.12
-3.00 3.01 -0.43
-0.45 -2.25 1.31
1.28 1.00 -0.04
-2.42 2.73 -0.14
-0.23 4.14 -1.33
4.10 5.00 -1.78
4.76 -2.82 1.59
1.19 -1.48 1.83
-5.30 1.81 0.30
1.11 -1.39 1.13
-1.07 2.36 -0.53
4.96 -1.31 1.50
-0.53 0.84 0.07
4.33 -4.51 2.41
-2.68 2.13 0.12
2.83 -0.49 1.20
-3.40 -1.66 1.74
3.88 -0.63 0.65
2.24 3.39 -0.47
-0.30 -4.68 2.67
0.84 1.50 0.04
-4.00 1.00 0.26
2.63 1.21 -0.54
-1.95 4.35 -1.23
2.45 0.03 0.86
-1.49 2.98 -0.92
4.26 -4.11 2.30
-3.09 -2.21 2.44
-4.80 -1.24 1.58
3.28 2.77 -0.63
-1.01 -2.01 1.40
-2.29 0.14 0.45
-0.27 1.11 0.58
3.13 3.60 -1.52
3.95 -1.45 0.67
2.17 2.01 -0.79
-3.77 3.52 -0.75
3.16 -1.53 1.92
0.99 -4.32 2.42
-2.26 -0.28 1.46
-3.80 3.13 -0.08
1.09 0.99 -0.10
-3.77 -0.26 0.75
-1.74 4.18 -1.37
-1.90 1.72 0.13
-3.96 -1.89 2.09
-4.32 0.22 0.68
2.68 2.03 -0.10
4.38 1.48 -0.05
2.95 4.83 -2.04
-2.56 1.34 -0.01
-1.48 -4.98 3.62
-1.58 -0.64 0.92
-1.52 3.29 -0.41
0.82 3.97 -1.29
-2.85 2.72 -0.38
-0.83 -0.49 0.67
-0.51 1.78 -0.09
1.38 3.91 -1.49
-1.27 0.77 0.77
4.47 1.00 -0.09
4.40 -2.40 0.90
0.41 -2.66 1.51
0.85 -4.19 2.58
-2.69 -0.05 0.51
4.08 0.65 0.47
1.30 -5.33 2.95
-4.49 -1.46 1.86
0.33 1.71 -0.19
3.65 1.90 -0.53
-3.73 2.19 -0.03
-2.77 -0.56 0.55
0.19 0.94 0.78
4.09 -3.72 2.07
2.53 1.83 -0.37
0.14 -2.16 1.11
-3.14 0.03 0.57
-1.35 5.95 -1.62
2.77 2.99 -1.12
-1.80 2.35 -0.09
1.29 1.23 -0.21
-3.28 -3.28 2.20
0.01 1.34 -0.08
0.51 5.90 -1.64
2.62 -0.54 0.59
-4.21 -4.99 3.65
-3.30 -0.30 0.77
3.74 2.74 -1.02
1.22 1.12 -0.37
-2.96 3.95 -0.85
-2.56 0.49 0.91
-4.23 3.77 -0.20
0.10 1.04 -0.09
5.33 -0.27 0.73
-4.81 -1.04 1.48
1.08 -2.46 1.70
3.06 -1.04 0.69
3.67 -1.60 0.94
0.23 -1.71 1.34
1.81 -1.43 0.75
-1.29 0.93 0.58
-4.07 1.14 0.47
0.17 4.64 -2.13
3.95 2.79 -0.97
0.22 -2.45 2.09
-0.86 -3.87 2.53
-1.78 0.96 0.76
1.02 1.29 0.10
0.88 -2.07 2.06
0.86 -0.93 1.20
-2.94 -2.05 1.81
1.98 -0.27 1.22
-2.98 2.71 -0.44
0.55 -1.14 1.36
-0.72 0.56 0.88
1.28 5.42 -1.70
-2.04 2.19 -0.44
-2.36 -2.16 1.89
-3.18 3.82 -0.94
1.47 1.26 -0.16
-2.92 0.34 0.76
3.01 2.48 -0.48
1.09 3.62 -0.98
-4.33 -2.78 2.79
-3.72 0.49 0.83
-1.18 0.57 0.74
-2.39 -3.72 2.05
3.84 1.92 -0.06
0.79 3.28 -0.62
-4.20 -0.42 1.42
0.63 3.48 -0.49
2.62 0.41 0.61
-4.09 -2.31 2.09
-2.12 1.38 0.35
-4.43 -0.40 1.33
-5.05 -3.42 2.79
-2.99 0.21 0.67
4.66 0.96 0.21
-1.40 0.27 0.59
1.03 3.15 -1.19
-3.80 -0.90 1.53
-3.22 2.61 -0.70
-4.67 2.53 0.01
0.91 2.37 -0.00
2.05 -2.74 1.60
3.11 -0.95 1.01
-3.62 -1.01 1.38
4.29 1.61 -0.37
2.17 0.31 0.67
-0.67 -2.12 1.65
3.07 -2.56 2.04
3.83 1.55 0.17
-2.45 -0.64 1.45
-1.78 3.71 -1.54
-1.76 1.80 0.08
-1.25 -0.50 0.92
0.99 3.13 -0.18
-0.20 1.53 -0.07
-3.79 1.22 0.17
-0.33 -4.24 2.20
0.91 1.65 0.00
2.43 -4.86 2.62
1.22 3.68 -1.05
-0.77 -0.79 1.23
-1.83 4.02 -0.86
0.19 -0.66 0.32
1.53 -2.09 1.41
-0.68 3.79 -1.10
2.17 -2.90 1.81
-1.26 -2.16 1.72
-1.61 -0.78 1.06
-3.29 2.63 -0.74
4.02 1.00 0.01
-2.07 0.69 0.21
0.29 -0.49 0.51
0.60 -0.72 0.29
-0.61 1.73 4.58
5.68 -2.03 4.24
-0.74 -1.35 -1.42
1.57 -3.29 -2.17
2.94 -3.43 -1.18
-3.71 -1.65 -2.80
2.71 0.98 6.70
-3.04 1.23 2.50
1.21 -2.59 -1.17
-0.47 -1.61 -1.34
1.76 -0.71 1.57
0.66 -0.89 1.68
-2.79 -2.35 -3.47
2.57 -2.41 1.21
1.12 -1.28 1.56
2.34 -1.63 2.42
-2.20 0.86 2.12
-0.69 0.78 3.46
0.67 -1.29 1.76
-4.26 -0.21 -2.12
4.05 -4.50 -1.99
0.31 -2.26 0.21
2.63 -3.31 -0.42
-3.00 -1.22 -1.98
0.86 -2.94 -1.96
3.48 -2.13 1.85
-1.20 -0.28 1.73
-0.68 -2.89 -4.00
-0.00 0.01 1.13
-0.19 1.30 3.11
0.10 0.71 3.53
-5.17 1.14 -0.92
1.30 -1.28 1.17
-0.01 0.86 3.11
-1.46 -1.38 -1.90
3.10 -0.16 4.79
-3.12 0.36 0.58
1.38 -0.65 1.86
3.06 -2.26 1.52
1.36 -2.57 -0.50
0.47 -0.58 0.84
-5.07 1.52 0.89
-3.61 -1.67 -3.26
-3.42 0.46 0.06
3.58 -2.11 1.43
-2.65 0.71 1.16
2.50 0.50 5.11
-1.48 0.96 2.25
3.76 -3.11 -0.19
-3.52 0.37 0.95
-4.25 0.82 0.08
-3.32 -1.44 -1.98
0.00 -1.43 -0.35
-1.30 -0.93 -0.34
-3.45 -1.11 -2.35
1.45 -1.10 1.39
1.02 -2.76 -1.61
4.74 -3.11 0.48
-1.81 -1.75 -2.02
-2.89 -1.83 -3.77
2.18 0.75 5.54
4.69 -4.33 -0.68
3.98 -2.78 1.80
1.63 -2.17 0.21
-4.08 -0.91 -3.03
0.81 0.94 4.32
-5.25 1.23 -0.57
2.05 -1.70 1.50
-2.36 -0.02 0.76
-1.82 0.94 2.19
2.76 -3.17 -1.46
-2.03 -1.32 -1.52
3.34 -0.35 3.80
-3.61 0.99 0.71
2.09 1.48 5.65
-2.41 -0.10 0.15
-0.33 -0.06 1.12
-3.62 2.18 3.14
3.91 -4.80 -1.62
1.26 -1.14 1.28
-0.52 -2.82 -2.19
-2.70 1.11 1.15
2.33 0.59 4.96
3.49 -1.80 1.58
1.07 -2.27 -1.08
0.99 -2.62 -2.23
2.72 0.67 4.74
-2.16 0.31 1.10
-1.25 -1.38 -1.14
5.30 -1.67 3.97
-2.11 1.07 2.69
1.55 -2.62 -1.52
2.93 -4.34 -1.86
2.06 -1.52 1.40
3.79 -1.73 2.31
-1.13 -2.47 -2.77
0.56 -2.77 -2.19
2.25 -5.33 -4.18
-1.10 -1.44 -1.17
-2.93 -1.44 -3.35
-2.99 -2.02 -3.78
-2.40 2.89 4.94
-3.79 -2.68 -6.01
-3.65 -0.83 -1.20
-0.76 -2.46 -1.68
-0.32 -0.55 0.55
0.55 1.28 4.25
-2.75 -1.59 -3.40
-1.45 1.31 2.99
3.91 -4.98 -2.46
-3.82 -0.76 -2.02
2.49 -3.45 -1.19
3.85 -3.25 -0.13
-4.37 1.12 1.23
2.33 -1.90 0.75
3.46 -2.35 0.40
1.55 -5.19 -4.07
2.43 -2.46 1.02
0.20 -0.31 1.80
0.58 1.29 4.52
1.56 -2.52 -0.53
-5.09 -0.93 -2.15
-4.30 1.90 0.99
-1.48 1.65 2.93
1.19 -1.25 1.26
4.00 -4.32 -0.94
1.36 -2.13 0.70
1.74 -4.32 -2.55
-0.01 -1.14 0.87
-0.26 -1.50 0.43
-1.05 3.12 5.31
-2.37 0.02 1.11
-0.40 -2.19 -1.91
-1.14 0.46 1.85
-3.77 1.81 1.51
2.66 -1.30 1.69
0.30 -0.11 3.13
-0.69 -1.55 -0.48
-4.78 0.82 -0.66
1.02 -1.30 1.46
-5.01 1.82 1.35
-1.41 -2.35 -2.20
-1.99 0.98 1.82
-1.62 -1.53 -0.65
1.42 -1.53 1.40
-5.49 -1.16 -3.64
-3.09 -0.19 -0.51
-1.14 1.26 3.46
-1.36 -4.18 -5.63
-0.45 -2.32 -1.98
0.64 -1.46 -0.03
-2.31 0.01 0.76
1.15 -2.15 0.15
2.76 -3.11 -0.74
-2.34 1.79 3.27
-1.49 0.32 1.84
-1.35 -0.69 0.15
-4.79 -1.55 -4.57
-4.72 0.14 -1.29
-4.75 1.03 -1.28
-4.87 -0.06 -1.10
-1.12 -1.54 -1.82
-3.96 -0.24 -2.57
2.89 -2.89 0.31
-1.99 -3.14 -4.48
0.50 1.01 4.06
-5.49 1.93 0.11
-4.63 2.30 2.75
-2.60 2.30 3.76
-3.16 1.24 1.48
2.65 0.04 3.49
-0.64 1.98 4.50
-0.76 2.32 5.34
0.38 -2.75 -0.93
-1.39 -1.42 -0.32
4.37 -3.13 -0.15
-5.15 1.98 0.93
0.70 -2.28 -1.69
-2.52 1.22 2.38
-1.87 -1.46 -1.55
3.98 -2.08 2.77
-0.19 -2.00 -0.79
2.44 -3.85 -2.38
1.42 -1.04 0.90
-2.65 -1.91 -2.17
-4.63 1.38 0.56
-3.86 2.61 3.25
2.61 -2.02 1.67
-1.27 -1.97 -2.21
-1.03 1.20 3.14
0.94 -0.74 0.74
-4.32 2.60 3.11
0.66 0.87 3.69
-2.25 -1.42 -2.55
-0.74 0.44 1.39
2.75 -3.79 -2.43
1.36 1.18 4.45
-4.01 1.35 0.29
1.22 -1.00 0.53
0.59 -2.98 -0.76
-5.77 -0.61 -2.77
-1.21 -0.41 1.04
0.25 -3.98 -5.08
-0.54 -0.81 1.14
-3.67 -0.93 -2.70
-5.76 0.98 -0.98
0.01 0.56 3.34
3.85 -2.66 1.30
4.78 -3.28 1.05
-1.05 1.68 4.23
1.98 -2.67 -0.64
-0.75 -4.09 -4.74
3.44 -0.74 3.50
0.17 -0.73 0.71
-4.35 0.18 -0.95
-2.01 1.95 3.59
-0.30 1.12 3.62
-2.07 0.05 0.40
2.01 -3.14 -1.25
-0.64 -0.17 1.08
1.03 -0.90 1.61
-1.52 0.05 0.48
-1.03 -2.67 -2.16
2.76 -1.30 1.61
-1.65 1.44 1.93
0.55 -0.76 2.03
1.16 1.38 5.13
-1.10 1.11 2.50
1.14 -3.04 -2.47
-3.69 -0.90 -1.33
1.62 -1.30 0.80
-0.50 -1.66 -1.22
-2.23 -1.73 -2.24
-2.78 -3.07 -4.47
-2.02 -0.32 -1.16
-2.74 -0.61 -0.97
-2.21 2.56 3.74
2.43 -0.71 2.52
3.36 -2.21 1.74
-1.39 0.70 2.68
-4.73 1.18 -0.55
0.83 -2.70 -1.61
3.97 -1.68 1.64
1.69 -2.11 0.88
1.05 -0.72 1.12
-2.63 -1.52 -3.00
-4.01 -0.51 -1.61
-0.00 -1.00 1.37
-3.53 -1.79 -3.44
2.22 -4.11 -2.94
1.14 0.35 4.09
-1.75 -0.84 -1.21
-0.45 1.04 3.97
-2.63 -0.30 0.56
0.44 1.43 4.98
-0.54 -0.77 0.77
-1.51 1.81 3.60
-2.56 1.74 2.93
1.32 -4.78 -3.98
-1.14 0.21 1.24
5.07 -4.44 -0.62
1.25 -1.31 0.19
-1.72 0.57 2.40
4.19 -1.09 2.84
2.95 0.03 4.82
0.61 0.01 2.15
-4.29 0.54 0.15
-5.08 0.50 -1.13
-6.09 1.97 0.90
-1.32 1.16 2.82
-0.91 -0.75 0.61
-1.35 -0.18 1.52
4.07 -1.69 1.63
4.90 -2.05 2.96
-3.97 3.08 4.70
3.56 -1.10 2.69
-5.55 -1.14 -3.37
-1.95 -0.25 0.36
-1.79 1.90 2.95
-1.52 1.60 4.22
-5.76 -0.83 -3.50
3.21 0.13 4.10
-1.34 1.18 3.05
-2.30 -3.14 -4.04
-2.35 1.29 2.73
1.77 -1.72 0.59
-2.41 -1.83 -2.77
3.07 -1.15 2.92
-2.42 -0.11 0.60
2.20 -4.99 -4.32
0.60 -3.28 -3.17
3.72 -1.90 2.43
-0.22 0.68 3.07
-2.87 -0.90 -1.62
-2.71 -1.19 -2.86
0.50 0.36 3.29
-1.01 -2.13 -1.35
-4.36 -0.76 -2.13
-0.36 -2.79 -3.11
1.73 -0.07 3.96
3.17 -5.26 -3.01
2.29 -3.77 -3.06
-0.83 -2.42 -1.56
0.37 0.55 3.02
-2.37 -0.76 -1.27
-2.90 -0.91 -1.44
5.26 -2.00 3.33
-3.81 1.45 1.67
-4.72 -0.33 -1.84
-1.19 0.11 1.26
-1.14 -3.81 -4.30
-3.97 -0.06 -1.70
-4.51 0.03 -2.42
2.22 -0.25 3.22
-1.09 -2.53 -3.03
-4.43 -0.85 -2.67
-3.02 -1.51 -2.86
3.93 -3.22 -0.29
-3.27 -0.69 -1.04
-4.45 -1.39 -3.52
-3.21 -1.75 -3.00
-2.95 -1.61 -2.58
-2.75 -2.13 -2.59
2.62 -1.63 1.10
-3.82 1.96 2.67
-2.25 -1.38 -0.97
-5.45 0.18 -1.53
-4.68 1.13 -0.53
-1.32 0.09 2.21
0.02 -0.80 1.10
-3.58 -1.96 -4.57
0.26 -3.44 -3.43
-0.41 0.62 2.60
-4.56 3.57 4.25
-0.81 -2.14 -1.50
1.72 -3.55 -2.41
-2.49 -0.17 0.08
2.73 -1.11 3.17
4.08 -0.88 3.40
-5.12 -0.99 -3.79
0.95 -1.60 0.63
3.50 -0.85 3.01
-3.68 3.11 3.92
0.60 -1.07 0.91
-0.31 0.33 3.21
-1.51 -1.04 -1.18
1.53 -2.33 -0.29
-2.41 -0.71 -1.42
-3.15 -1.34 -2.14
-3.29 -1.27 -2.86
0.11 -2.11 -1.59
-0.19 -0.61 1.47
-4.18 -0.68 -1.28
2.48 -0.11 3.62
1.11 0.26 3.37
1.27 -2.35 -1.29
-1.31 -1.14 0.09
-2.11 0.92 1.85
0.72 0.69 4.19
-1.71 -0.93 -0.43
2.70 -4.38 -2.28
0.03 -1.16 0.29
-2.95 2.17 2.63
-3.96 0.32 -0.04
-0.71 1.42 4.32
-2.49 1.93 3.11
3.77 -0.51 3.18
1.39 -1.88 -0.06
-2.21 -0.43 0.12
-2.49 0.53 0.16
-2.92 1.40 1.59
-0.79 2.31 5.27
0.17 -0.72 0.90
0.78 -2.16 -0.94
3.12 -3.97 -1.67
5.45 -1.48 3.84
0.32 -3.46 -2.65
-0.39 -0.68 1.35
3.88 -1.14 3.09
-1.13 -2.12 -1.74
3.90 -1.90 2.76
1.89 -2.35 -0.18
-2.23 -1.47 -1.71
2.05 -0.33 2.65
4.11 -3.45 -0.46
-1.85 -1.66 -1.68
4.89 -2.74 0.83
0.77 -4.37 -3.45
-1.45 -0.59 -1.25
1.09 0.53 4.27
-4.28 -1.68 -2.92
-0.58 2.18 5.16
0.93 -1.19 1.48
1.80 0.25 3.69
-1.42 1.32 2.78
0.94 -0.06 1.83
-0.10 1.02 4.86
2.01 -4.20 -2.74
-2.22 1.91 2.84
0.64 -2.49 -2.00
-3.51 -0.91 -3.51
3.64 -3.32 -0.43
1.27 -0.19 2.49
1.67 0.05 3.13
4.02 -1.15 4.03
1.33 -1.09 0.32
-1.18 -3.40 -4.58
-4.38 -2.36 -4.20
-3.83 -0.44 -0.98
-1.35 1.54 4.05
1.32 0.85 4.10
-4.04 -1.96 -3.15
-4.26 1.78 2.19
-2.46 1.51 1.95
0.59 0.50 3.74
-3.42 0.72 -0.02
-0.26 1.24 3.84
3.93 -0.87 4.49
-2.89 1.95 2.58
0.96 1.53 4.46
-3.34 -0.56 -1.03
0.47 -3.10 -2.02
-0.54 -3.95 -3.86
2.66 0.22 3.66
-0.98 -2.54 -2.38
-5.15 0.16 -0.65
0.76 1.74 5.60
0.06 -0.33 1.32
0.86 -0.47 1.96
-0.75 -0.16 0.38
-0.55 -1.30 0.48
-3.83 1.77 2.68
2.67 -1.09 3.10
-2.34 -0.95 -0.88
-0.84 -0.14 1.72
2.10 -2.44 0.10
-4.01 0.39 -0.83
0.59 -2.06 -1.00
2.95 0.23 5.49
2.39 -3.83 -2.51
-3.38 -1.10 -2.41
1.84 -3.42 -0.79
-3.08 -1.17 -2.17
2.05 -1.50 1.05
1.54 1.02 4.84
-4.16 1.62 1.25
2.28 -0.03 4.38
-1.83 -3.09 -4.94
-2.36 -1.42 -2.71
-4.32 2.23 3.52
-4.80 1.52 1.02
0.21 -1.22 -0.15
0.91 -1.89 -0.45
-0.15 -3.08 -2.22
-0.14 -2.50 -2.91
0.61 -1.51 -0.22
-0.40 1.25 4.14
-1.39 -3.16 -5.29
-1.60 -0.07 0.12
-4.68 -1.42 -4.34
-1.25 -0.39 1.64
-1.89 2.48 4.71
-0.80 -0.64 0.51
-4.63 -1.86 -3.78
1.57 -0.29 3.06
-2.40 2.09 3.36
-1.91 1.52 2.70
-4.32 -1.07 -3.21
-0.01 1.87 4.66
-1.24 0.96 2.74
-0.96 -0.02 1.37
0.22 -0.96 0.61
0.08 0.49 3.73
-1.42 -2.99 -3.72
1.94 -0.04 3.15
-2.98 -2.17 -4.00
2.06 -3.95 -2.26
1.79 -3.53 -3.23
1.88 -1.79 1.77
1.05 -3.07 -2.57
-5.18 -0.85 -2.22
1.93 -0.53 3.48
3.90 -2.03 2.10
2.08 -1.30 1.17
-0.64 -2.89 -2.42
4.53 -1.39 3.10
-1.77 0.91 2.42
0.96 -2.12 -1.48
0.47 -1.32 -0.49
3.55 -1.38 1.79
-2.25 1.64 3.44
-3.77 -1.59 -3.36
1.74 -2.03 0.54
1.26 -2.08 -0.13
-0.28 -1.03 -0.20
0.71 1.22 5.30
1.63 -0.49 3.02
3.70 -1.19 3.89
1.99 -3.55 -2.94
0.14 0.15 2.91
1.02 -2.03 -0.16
-4.16 2.53 2.81
0.75 -0.08 3.11
-3.18 0.06 0.42
2.06 0.60 3.93
1.74 1.44 6.43
1.80 0.03 2.80
1.09 -1.11 1.09
-5.45 -0.01 -1.51
1.12 -3.42 -2.73
-2.51 0.61 0.10
2.06 -2.45 0.34
3.61 -0.24 4.01
0.67 -2.47 -0.75
4.04 -0.12 5.04
4.33 -1.94 3.12
0.71 1.05 4.30
0.05 -2.42 -1.27
-1.47 -0.39 -0.79
1.37 -3.39 -1.25
2.69 -5.56 -3.51
0.88 0.99 4.73
-3.77 2.42 2.23
1.07 1.44 6.30
2.64 -1.40 2.16
-1.16 -2.22 -2.00
0.03 -2.09 -1.78
0.35 0.14 3.72
2.87 -1.43 2.20
-1.55 1.29 3.61
-4.28 1.76 1.28
-2.57 -2.11 -2.83
-5.35 2.32 1.32
0.30 -1.97 0.15
-3.32 1.78 1.91
1.03 -2.73 -1.49
-0.97 0.96 2.78
-1.35 0.24 0.94
1.99 -4.17 -2.50
0.57 -1.34 0.27
-1.69 -1.27 -2.16
4.99 -4.86 -1.38
1.98 -2.96 -0.75
-0.82 -0.26 1.12
3.81 -2.57 1.11
-5.15 1.02 0.42
-1.48 -0.18 0.28
1.27 1.54 5.52
-3.48 2.60 4.01
-4.67 -0.13 -1.59
-2.62 -0.81 -0.55
-0.38 -2.71 -2.51
-1.66 -2.42 -2.78
2.06 -0.36 3.79
-3.51 0.78 0.40
-4.87 2.65 2.20
-3.54 0.89 0.56
4.51 -3.60 0.27
-2.65 2.45 3.60
-0.11 -0.64 1.22
-0.49 -1.84 -1.46
3.26 -2.80 1.19
-1.04 -1.79 -1.46
2.52 -0.11 3.23
3.14 -5.77 -3.59
2.65 -1.32 2.03
1.72 -3.29 -1.01
-0.49 2.52 5.21
2.27 -3.19 -1.17
0.04 -2.45 -1.47
0.81 -0.64 2.84
-1.06 -2.66 -3.36
-2.66 -0.48 -0.93
2.01 -3.22 -0.74
-4.55 0.24 -0.47
-3.71 0.07 -0.29
-1.80 0.16 1.52
-3.26 0.03 0.21
-1.23 -0.31 0.35
-2.27 -1.96 -2.35
3.41 -1.52 2.08
-4.09 3.09 4.26
-4.71 -0.87 -3.70
-3.33 -2.44 -4.91
0.28 -2.79 -2.97
-3.85 -2.76 -5.27
1.31 -3.19 -2.96
2.08 -1.69 0.26
0.31 -1.73 -1.11
-0.41 -0.43 0.38
-0.34 -1.77 -0.78
1.89 -3.17 -0.93
-3.67 -0.56 -2.35
-2.67 -1.95 -2.66
-4.19 0.65 0.01
1.01 -1.51 0.16
-1.06 -0.41 -0.24
-0.91 -0.11 1.44
-0.21 0.77 2.71
-3.06 1.67 3.40
-2.06 0.88 1.61
-3.08 -1.01 -1.27
-3.85 1.07 1.38
1.44 -3.30 -1.14
0.70 -0.58 1.49
-2.00 -3.02 -3.88
-4.34 -0.47 -1.00
-1.61 -0.89 -0.44
-4.38 2.18 3.20
-3.37 -1.56 -3.53
-1.32 1.10 2.24
-0.40 1.06 3.82
-2.87 -0.99 -1.94
-4.07 2.03 1.01
0.72 -3.12 -2.44
-2.53 -1.53 -2.77
0.99 -1.21 0.28
-0.04 0.20 2.00
3.41 -2.09 1.55
-3.37 1.04 1.15
-4.99 1.80 0.88
2.48 -0.31 3.45
-2.57 0.56 0.74
0.72 -1.26 1.36
-5.31 0.89 -0.42
-2.24 1.25 2.70
1.98 -3.91 -2.03
1.13 0.64 3.98
2.18 -1.17 1.42
-0.90 -2.99 -2.43
-4.94 0.83 -1.41
-1.97 1.17 2.59
3.20 -0.99 1.94
-2.08 1.37 2.38
1.06 0.02 2.64
-0.56 -1.71 0.04
-0.05 -0.87 1.41
3.50 -3.45 -0.35
3.81 -0.88 3.86
-0.67 -0.14 2.41
-2.35 0.87 1.82
0.22 -1.24 0.05
0.91 0.82 4.40
-2.17 -0.22 -0.33
3.06 -1.06 3.53
-4.26 0.39 -0.00
-1.32 -1.80 -3.07
3.10 -0.08 3.52
-3.95 1.98 2.57
-1.88 -1.02 -0.73
-2.67 1.56 2.71
0.70 -3.46 -2.35
4.88 -3.05 2.21
3.11 -1.13 3.12
1.89 -2.07 -0.19
2.05 -2.06 0.44
-4.68 -1.48 -3.15
-2.86 -3.17 -5.51
1.50 0.12 3.31
-0.24 -0.25 2.75
-0.26 -3.11 -2.34
0.50 -0.32 2.60
0.70 -4.60 -4.03
-2.93 -1.00 -2.31
-1.38 0.21 1.74
-5.64 -0.21 -2.05
-1.19 -0.25 1.48
0.40 0.75 3.76
-1.48 -2.06 -1.97
-4.88 2.89 2.99
-2.64 -0.84 -0.79
-1.62 -3.00 -4.62
-1.06 2.98 5.76
-0.87 -2.93 -2.94
-0.83 0.16 1.31
0.43 -3.86 -3.92
0.23 0.45 3.22
-4.46 1.13 1.24
-0.51 -1.88 -1.49
0.32 -0.85 1.63
-0.92 -1.40 -0.71
-0.92 1.15 3.87
4.25 -0.91 2.96
-2.52 -0.13 -0.03
-1.72 -3.07 -3.52
-4.21 0.06 -1.12
-2.34 -0.30 1.04
1.96 -1.88 -0.00
-0.85 0.56 3.38
-1.41 -1.21 -0.34
-2.66 0.00 0.47
-2.97 0.14 -0.05
0.21 -1.45 -0.13
3.62 -1.87 1.14
0.51 0.20 2.94
-2.76 -0.81 -1.55
-3.87 0.38 -0.77
-0.56 -0.61 0.89
1.55 -2.32 -0.53
5.12 -3.32 0.24
-2.47 -2.12 -3.09
3.03 0.78 4.71
-2.78 2.42 3.17
-0.44 -2.05 -2.22
1.07 0.24 3.11
-2.94 0.76 1.54
0.52 0.58 4.01
1.91 1.51 5.53
2.10 -0.86 2.11
3.78 -1.08 2.99
1.19 -0.94 1.74
3.47 -2.31 2.10
0.97 0.48 3.87
3.04 -4.53 -3.09
-3.99 -0.04 -1.70
-2.16 -0.60 -0.20
-0.04 -0.19 0.91
-0.97 -2.91 -3.50
-0.50 -0.30 0.47
-0.28 -3.22 -3.94
-4.11 2.18 2.67
0.82 0.26 2.69
4.22 -2.39 1.87
1.70 -2.79 -1.74
1.92 -1.38 1.40
-0.09 -3.40 -3.19
-0.43 -2.72 -3.10
-1.36 -2.05 -3.06
-4.79 -1.00 -2.59
-4.10 -0.46 -1.57
-0.85 -0.63 -0.30
-2.13 -0.53 -1.29
2.29 -0.45 3.77
-3.59 1.65 2.79
3.19 -2.76 -0.57
-5.92 1.10 0.42
1.54 -1.70 2.16
-4.94 -0.84 -4.05
0.01 -3.87 -3.73
2.11 -1.03 1.81
-3.75 -0.44 -1.45
-5.04 -0.41 -1.53
-5.32 0.11 -2.35
0.56 -3.31 -2.09
-0.76 0.30 2.23
1.03 -3.38 -2.30
4.54 -0.98 4.81
1.34 -4.19 -2.66
-1.25 -1.42 -0.82
-1.89 -2.92 -3.45
-1.37 -1.57 -1.59
-3.14 1.72 2.41
4.36 -0.61 5.15
4.92 -1.85 3.47
2.31 0.70 5.27
0.74 -2.32 -0.71
2.19 -2.30 0.75
0.49 -4.82 -3.68
-0.23 -2.70 -2.32
-4.66 -1.63 -3.96
3.44 -1.20 2.54
-3.20 -1.78 -3.45
0.17 -2.36 -2.52
-1.48 0.45 2.01
1.13 -2.95 -0.74
4.37 -5.27 -2.30
3.14 -2.74 0.80
1.99 -1.85 0.65
-2.42 -2.06 -2.95
3.71 -0.07 4.85
0.21 1.81 4.91
3.15 -4.11 -2.41
-4.20 2.09 2.06
0.31 -3.09 -3.94
4.65 -2.04 2.07
-3.40 1.93 2.12
-3.40 0.37 -0.21
-0.71 -1.24 -0.11
-2.88 1.86 3.10
-1.26 -2.68 -1.98
-1.74 0.36 1.57
1.67 -0.63 2.73
4.56 -0.97 3.74
-0.94 -3.20 -3.20
-5.51 -0.49 -2.74
-4.01 -1.03 -2.24
2.54 -1.52 1.28
-4.85 -0.91 -2.61
-2.86 -0.90 -1.92
-4.20 -1.33 -3.56
1.18 -0.72 2.51
3.24 -1.88 1.54
2.26 -2.59 0.23
4.11 -1.78 1.66
-2.44 -0.65 -1.61
2.66 -0.29 3.54
-3.04 -0.33 -1.14
-4.97 2.72 0.99
0.69 -2.96 -2.92
4.50 -1.16 3.91
-3.88 -0.18 -1.30
-1.39 0.88 2.70
2.13 -1.29 1.16
-3.93 1.94 2.09
-2.06 -2.87 -3.70
0.78 -1.25 0.12
3.46 -3.26 -0.92
-1.82 -1.44 -0.75
-2.29 -1.94 -2.52
-0.17 -4.81 -5.16
-3.15 0.82 1.45
-5.73 0.54 -1.84
-0.74 -1.78 -1.93
-0.22 -1.83 -0.06
-3.02 -0.81 -1.07
-0.93 1.61 3.25
2.09 -2.65 -1.05
-2.53 -1.78 -1.27
1.02 -0.11 2.84
-3.50 0.07 -0.54
4.39 -1.32 3.91
-1.73 -1.11 0.24
-2.60 -1.53 -2.81
-0.93 0.78 1.92
-2.58 0.78 0.87
1.41 0.23 2.44
-0.34 0.39 1.90
-1.59 -2.24 -2.94
1.13 -3.09 -1.66
-0.04 -2.39 -1.35
1.52 -1.17 0.22
1.86 -0.44 2.77
0.62 -0.37 1.81
3.88 -4.33 -1.71
-5.37 1.94 1.43
0.67 0.36 3.64
-4.71 -0.66 -1.60
1.97 -2.22 0.72
2.35 -2.96 -0.83
0.71 -0.23 3.06
-1.93 -1.21 -1.54
-3.23 -0.70 -0.38
4.14 -2.64 2.07
1.78 -0.87 2.70
4.47 -2.86 1.03
3.68 -0.98 4.58
2.16 -3.14 -1.07
0.76 -2.68 -1.28
-4.81 1.87 0.74
-1.45 -0.81 -0.84
-3.52 -0.51 -1.30
1.79 -0.27 3.02
0.08 -4.85 -4.30
-5.39 -0.70 -3.27
-3.14 0.21 -0.93
-1.55 -0.94 -1.20
-2.12 -0.94 -2.54
2.15 -3.95 -3.07
1.41 -1.36 0.83
1.98 -2.66 -1.38
4.79 -2.20 2.36
-1.78 1.56 2.54
1.50 -0.40 3.33
0.25 -4.47 -4.74
1.43 -0.07 3.51
-5.13 2.76 2.92
3.37 -0.13 4.03
2.71 -1.35 1.77
-3.05 1.99 3.26
4.94 -3.08 1.20
3.20 -3.88 -1.64
2.74 -1.50 2.14
3.34 -5.26 -3.64
2.69 -0.91 2.36
-4.46 1.02 0.89
-3.04 -1.17 -2.82
0.68 -0.10 3.55
0.92 -3.11 -1.71
-0.15 -3.09 -2.86
1.57 -1.41 0.91
-3.26 -1.71 -3.57
-4.26 2.52 1.78
0.82 -2.58 -1.12
-0.05 0.39 2.66
2.45 0.81 4.72
-1.40 1.07 3.02
1.55 0.46 4.27
-0.06 -0.46 1.67
3.50 0.30 5.06
3.12 -1.85 0.90
-3.93 0.20 -0.41
2.06 -0.89 1.50
1.10 -0.80 1.56
-0.20 -2.58 -1.37
2.52 -2.08 0.87
-1.75 -2.39 -2.91
-2.97 1.13 1.86
0.17 -3.12 -2.85
4.05 -5.91 -3.13
2.23 0.21 4.07
-1.15 -2.62 -2.48
-0.28 -1.01 0.52
2.75 -1.42 2.51
2.99 -2.29 0.79
3.12 -1.53 2.41
-3.04 -2.71 -4.00
-2.07 0.74 2.10
4.30 -3.13 0.02
-5.64 -0.67 -2.21
4.53 -3.34 -0.04
3.77 -4.49 -2.08
-1.26 -4.00 -4.87
1.21 1.78 5.49
0.62 -2.65 -1.05
1.30 -1.93 0.57
-1.33 -0.16 1.60
3.19 0.53 5.94
1.73 -0.36 2.29
-2.83 1.14 1.82
0.89 -0.63 2.08
1.06 -1.32 0.78
-0.75 1.90 4.23
2.99 -4.28 -1.98
3.32 -1.81 2.68
-1.04 -0.59 1.09
-1.31 1.40 3.20
-6.51 0.87 -1.87
-0.58 -1.75 -1.65
-2.61 -2.35 -3.69
3.48 -3.73 -0.33
-2.22 -0.43 -0.87
0.14 -1.12 0.55
0.37 0.55 3.06
-1.32 -1.65 -0.84
-2.16 -0.96 -1.19
0.03 -0.72 1.72
0.57 -1.06 0.69
-0.53 -0.77 0.85
-0.45 -1.51 -0.56
-4.56 1.89 0.87
-1.59 -0.59 -0.69
-0.34 -2.79 -2.48
3.92 0.28 6.35
-0.01 -3.37 -2.46
-3.45 -2.58 -4.97
1.09 1.35 5.38
-0.98 -1.84 -0.97
-4.71 -0.62 -1.83
1.96 -0.92 2.11
-3.37 0.45 0.51
-0.23 0.93 2.79
-0.86 1.78 3.71
-1.95 1.84 2.46
1.09 -3.89 -2.38
1.05 -0.67 2.52
-4.92 2.39 1.79
0.44 -1.07 1.63
-1.72 -1.44 -1.81
4.15 -2.06 2.02
1.52 -3.41 -2.75
-2.52 -2.12 -3.32
2.51 -0.46 3.76
-2.77 -0.08 -0.60
0.13 -3.86 -4.24
0.70 -2.56 -0.05
-1.21 -3.17 -3.65
-2.58 -1.57 -2.61
-0.26 0.74 3.00
1.41 -2.62 -0.42
-6.59 0.88 -1.41
-2.14 -0.74 -0.90
-3.10 0.22 0.50
-2.66 -0.42 -0.83
-1.24 -1.44 -1.05
3.22 -3.31 -0.20
-5.77 1.74 0.65
-1.82 0.40 0.70
-0.36 -0.44 0.47
1.64 -2.34 -0.84
-3.14 1.21 1.04
-1.73 -2.02 -4.06
3.51 -1.15 2.46
0.51 1.39 4.07
-2.95 -0.69 -1.96
-0.72 -2.31 -1.46
2.60 -0.73 2.51
-3.53 -0.58 -0.78
-1.11 1.55 3.70
-4.24 4.44 5.45
1.59 -3.91 -1.98
-0.29 0.15 1.15
-3.93 -1.38 -3.27
0.41 -3.17 -2.37
-1.43 -1.54 -1.88
-2.41 0.69 0.85
-4.61 -1.30 -3.18
0.29 -1.78 -0.22
-4.59 4.01 4.21
0.11 -3.87 -4.87
-3.03 -0.44 -1.01
0.95 -3.72 -2.25
-0.78 -1.83 0.10
-1.15 -1.19 1.79
-0.06 1.32 -2.16
-2.21 2.89 1.90
-1.39 -5.06 3.13
-1.73 -3.00 3.81
0.03 -1.74 0.03
0.74 1.76 -4.02
2.29 -2.74 -4.29
-1.43 4.69 -0.85
0.53 -4.02 -0.74
0.42 -1.51 -3.27
-0.21 4.05 -2.38
-2.07 -1.08 1.85
-3.30 2.21 3.66
0.76 3.15 -4.07
-2.76 1.62 2.79
-1.51 1.94 0.62
-0.87 -2.87 1.21
-0.10 1.64 -2.99
0.34 3.07 -2.62
-0.22 -3.99 0.27
-0.00 -2.69 0.58
0.25 2.55 -2.39
-0.07 2.68 -3.27
1.53 0.92 -5.30
-1.97 2.61 2.04
-2.48 3.86 2.44
1.02 4.22 -5.54
0.56 -3.11 -2.06
-0.86 -2.97 0.64
-1.61 4.39 -0.48
-0.94 -0.78 0.87
-1.51 -1.14 0.53
0.84 -2.19 -2.71
-2.33 1.95 2.19
-0.29 -4.23 -0.47
-0.23 3.43 -3.89
-0.05 -1.17 -0.99
0.91 -4.27 -2.71
-1.68 -3.49 2.66
-2.99 2.61 2.84
-1.20 -0.75 1.02
-1.21 -0.35 1.24
0.58 -2.13 -3.15
-1.98 0.81 3.09
0.46 2.54 -2.45
0.06 2.12 -2.84
-0.43 -3.26 -0.02
1.07 -3.46 -3.65
-0.37 0.72 -0.44
-2.48 -0.16 2.84
-0.79 4.90 -1.83
1.36 -4.37 -2.37
-0.44 0.75 -1.25
-0.16 -4.23 -0.58
-0.19 3.46 -1.68
0.86 -4.73 -2.29
0.56 -0.34 -3.71
0.90 3.26 -5.16
-1.07 -3.34 1.92
-1.67 -3.26 2.36
-2.16 -0.29 2.72
1.42 -1.00 -5.18
0.53 4.20 -4.01
-2.32 -0.29 3.98
0.25 -0.02 -1.85
-2.89 2.72 2.21
2.02 -4.34 -4.67
-0.79 -0.53 -0.05
1.49 -2.28 -3.34
-1.22 -1.10 0.69
-3.24 0.08 4.85
-2.04 -3.02 2.23
-1.58 0.65 0.71
0.98 -4.41 -2.77
-3.02 1.51 3.55
-0.59 2.51 -1.60
1.67 -4.44 -2.64
-2.24 -3.48 3.88
-1.10 -3.15 3.03
-1.39 2.89 1.12
-0.09 3.50 -3.91
-1.37 -0.20 1.03
0.06 2.89 -3.61
-1.16 -1.15 0.00
-0.02 3.79 -3.49
0.27 0.88 -3.31
0.86 -1.82 -3.65
-0.56 -0.51 -0.04
-3.82 4.07 4.32
-0.32 -0.69 -0.89
-1.02 0.04 0.86
-2.03 0.97 2.39
-3.32 -0.42 4.37
1.61 -2.07 -4.55
-2.25 -3.52 5.39
0.01 3.72 -2.93
-1.40 2.40 0.24
2.16 -5.00 -3.30
1.77 -0.02 -4.48
1.04 -1.96 -3.88
-0.32 -3.96 -0.63
0.15 -4.05 -1.63
1.48 1.65 -5.49
1.02 -2.41 -2.82
1.75 -3.69 -4.76
1.99 -2.78 -5.73
-1.31 0.01 1.18
-1.67 -3.65 2.55
-1.05 3.97 -2.18
-1.05 2.48 0.47
-1.13 -3.37 1.45
0.86 1.21 -4.73
-3.39 4.86 4.87
-2.03 4.89 0.77
-2.76 3.39 2.19
-0.55 1.77 -0.91
1.07 0.76 -5.03
-0.66 -1.51 0.35
-2.65 3.33 2.01
-1.13 4.99 -2.22
-1.42 -3.96 2.53
-0.73 3.47 -1.67
-2.40 2.18 1.37
1.52 -1.11 -5.28
1.49 0.86 -4.82
-1.11 -3.14 0.59
0.33 -2.37 -2.21
1.34 -2.88 -3.60
-3.07 3.23 3.16
0.62 -2.20 -1.23
0.70 -3.42 -1.55
-2.81 2.40 2.85
-1.74 2.22 1.10
0.91 1.40 -4.22
-0.09 -5.27 1.06
-0.53 3.84 -3.03
1.74 -4.32 -2.44
-2.04 2.18 1.51
-1.02 -0.37 1.35
-0.23 -3.84 -0.16
-2.00 -0.10 3.17
-0.64 -4.67 1.83
-3.14 2.23 3.03
-2.00 1.74 0.83
1.74 -5.63 -3.60
0.47 -0.31 -2.33
-0.63 -4.60 1.37
-0.23 3.42 -2.61
-1.93 2.80 1.30
-1.22 -2.03 1.12
1.42 -0.16 -5.08
1.74 -5.33 -3.54
-0.46 2.45 -0.23
-0.14 -1.33 -1.95
-1.39 1.52 -0.60
-1.15 4.14 -0.46
-2.12 0.29 1.31
-2.57 -0.82 3.16
-1.63 -4.33 2.26
-0.05 -0.51 -1.51
-1.30 1.00 1.68
-0.86 4.28 -1.57
-0.62 2.03 -1.20
0.18 5.38 -3.87
-0.96 0.62 0.09
1.39 -2.63 -2.86
1.56 -4.50 -2.15
0.09 -0.77 -1.81
0.01 -0.24 -2.51
-1.32 2.44 0.82
-0.06 -5.03 0.94
-2.30 3.26 0.87
1.76 -3.94 -4.70
-1.87 -0.41 2.85
-2.49 4.49 1.52
0.54 1.05 -3.46
-0.64 1.15 -0.80
-2.24 -3.09 3.70
-0.41 1.80 -1.61
-1.15 3.00 -0.80
-0.76 -4.15 0.03
-1.33 1.70 1.36
-2.54 0.40 3.83
-0.05 -4.36 -0.55
1.10 -1.36 -3.33
-0.66 -2.91 1.33
-2.17 0.18 4.06
-0.01 3.81 -3.05
-0.52 -1.61 -0.35
0.72 1.10 -3.82
-0.35 0.62 -1.34
-1.78 0.11 0.77
-0.52 -4.07 1.98
-0.45 0.55 -1.13
-1.19 1.39 -0.86
-1.64 -4.26 2.55
-2.06 -0.28 2.35
0.51 2.56 -3.64
-0.99 -4.36 1.00
0.57 -2.47 -0.81
1.39 -2.10 -2.83
0.07 -2.92 0.14
-0.23 0.36 -2.59
-1.77 -4.10 3.11
0.03 2.60 -3.77
-1.79 -3.96 3.20
0.68 -3.64 -2.75
0.71 -1.17 -2.54
-2.80 4.34 2.65
0.06 1.39 -2.60
-1.90 3.65 0.56
-3.04 3.90 2.32
0.67 -0.20 -2.44
1.60 0.56 -4.25
-2.33 0.01 2.51
-2.25 3.51 1.33
-1.02 1.78 0.10
-1.80 3.05 1.25
-0.69 -4.57 1.89
-1.80 -5.16 4.25
0.47 -3.17 -0.47
-1.49 -0.69 0.99
-0.23 -2.72 0.10
0.55 -3.09 -1.50
1.28 -2.28 -2.95
-3.39 4.06 3.49
0.81 1.35 -3.57
-1.37 0.57 0.77
-1.42 -3.95 2.33
-2.66 2.33 2.83
-0.69 -4.13 0.01
-1.71 -0.66 1.90
-0.76 -4.86 1.45
1.15 -3.43 -2.35
-0.20 4.31 -2.21
1.01 -3.86 -3.54
-2.66 -2.03 4.40
-3.49 2.50 3.83
-1.29 -3.74 1.69
-2.39 -0.43 3.48
-2.17 -1.85 2.53
-1.89 -4.07 2.59
-0.13 -4.66 -0.18
-0.80 -2.97 1.99
-1.73 -1.73 1.34
-1.64 0.02 2.57
-3.44 3.62 4.30
0.89 -4.24 -1.73
-3.55 2.33 4.66
-1.73 2.74 0.62
1.25 -1.68 -4.25
0.86 2.81 -4.22
0.40 -3.59 -1.77
-0.12 2.44 -2.38
-0.55 3.03 -2.47
-2.20 -1.14 2.34
-0.83 -4.72 1.84
-0.02 -1.59 -1.70
0.92 -0.82 -4.13
-3.35 4.01 4.51
0.62 -3.19 -0.89
0.14 1.82 -2.92
0.47 -2.18 -1.79
0.21 -0.69 -1.55
-0.86 4.01 -1.73
1.57 -1.04 -3.96
-1.65 2.41 1.23
-1.14 0.96 -0.14
-1.20 3.95 0.04
0.10 0.62 -2.54
-1.75 -1.74 1.91
-0.25 2.74 -2.31
0.51 3.24 -2.91
-0.16 -1.47 -1.38
-1.17 0.92 -0.11
-3.34 3.18 3.56
-0.41 -3.44 -0.53
-1.77 3.48 -0.11
-0.43 1.95 -0.89
1.45 -3.18 -4.26
0.36 -4.02 -1.27
-0.22 2.14 -0.98
-2.71 -0.27 4.41
0.35 -3.60 -1.15
0.58 -3.78 -2.59
0.68 -4.64 -0.42
1.82 1.33 -5.68
0.76 -3.79 -0.61
2.23 -4.36 -3.96
1.38 -1.45 -4.54
0.24 1.12 -2.78
2.20 0.43 -4.90
-0.08 2.74 -1.57
-3.24 3.19 3.56
-1.64 0.13 1.39
0.92 0.43 -3.15
-0.19 -0.36 0.08
-1.92 1.41 1.03
-2.39 -1.56 4.02
0.23 1.64 -2.57
-1.54 -0.28 1.33
-0.66 1.28 -0.84
0.98 3.65 -5.33
-1.65 3.73 -0.65
-1.09 3.55 -2.30
-0.04 -3.65 -0.45
0.90 -3.96 -2.52
-1.60 -0.56 0.40
-2.96 3.89 3.52
-1.02 1.53 0.63
-0.90 -2.69 0.66
-1.72 3.04 1.12
-0.16 -0.38 -1.02
2.14 -2.43 -5.11
-2.64 1.20 3.78
-1.04 -0.87 0.55
-0.74 -0.74 -0.81
-3.39 4.02 4.12
-0.01 -2.87 -2.06
-2.79 4.80 2.46
-2.53 -4.32 4.24
0.17 -3.48 -0.50
-0.63 3.87 -2.45
-0.15 3.70 -2.52
-2.98 5.06 2.73
-0.47 2.72 -0.92
-0.94 -1.14 1.33
-1.92 -0.03 1.97
-0.67 -2.93 0.78
-0.16 3.71 -2.50
0.88 -4.84 -1.19
-0.20 -5.32 0.05
-0.22 0.03 -1.95
-1.32 3.42 -0.19
0.63 2.04 -3.07
-1.70 -2.03 2.31
-2.04 -0.68 2.64
-0.73 -2.11 0.80
0.01 0.82 -2.53
-1.98 -1.69 1.99
-0.66 -3.39 1.75
-3.02 3.86 1.84
-2.13 1.63 2.73
-3.64 4.41 4.33
0.52 -1.34 -2.19
-2.86 2.02 2.82
-2.17 1.19 0.95
-2.68 2.14 3.46
0.31 2.31 -3.78
-0.76 4.48 -1.14
1.13 -0.14 -4.17
-0.97 4.86 -1.92
-1.51 0.37 1.32
0.87 0.75 -4.30
2.47 -1.87 -5.13
-2.65 -0.58 4.79
-0.10 2.40 -1.87
0.96 -3.52 -2.01
1.41 -1.40 -3.70
-1.90 3.48 1.91
0.73 -4.03 -1.89
-2.50 -4.55 3.79
0.19 0.08 -2.23
-0.45 -4.02 1.07
-0.17 -0.93 -1.54
-0.80 2.42 -2.21
-0.17 3.16 -1.67
-1.21 -0.90 1.83
-0.72 1.13 -0.05
-0.31 -3.41 1.06
-1.10 4.30 -0.64
0.75 3.21 -3.39
-1.24 2.27 -1.21
-1.80 -4.70 4.48
-0.38 -3.15 0.51
0.85 -3.01 -3.11
-2.10 -0.49 2.11
0.27 3.07 -3.85
-0.40 -0.61 -0.20
1.82 -2.29 -4.74
0.43 0.74 -4.31
0.04 -1.54 -2.21
-0.75 -4.15 1.94
0.47 -4.07 -2.31
0.95 2.28 -4.60
0.84 -2.18 -1.78
-3.09 4.62 2.22
-0.82 4.88 -3.27
-1.40 0.67 1.25
-2.13 4.07 0.50
0.86 -2.15 -3.67
-0.73 3.76 -0.68
-1.11 -3.55 1.32
-0.57 0.94 -0.21
-1.06 -5.75 2.91
-1.80 2.92 0.12
-2.38 -1.65 3.43
-1.82 -3.88 3.90
0.02 1.25 -3.35
-2.77 2.60 3.01
0.70 -0.68 -3.22
-1.60 2.26 -0.44
0.10 0.51 -1.29
1.24 -3.13 -2.86
-1.47 -0.83 2.02
-0.59 4.49 -2.09
-2.57 -1.40 3.36
-0.26 -0.52 -1.79
-3.18 4.10 3.30
-0.58 1.56 -0.42
2.35 -1.89 -5.22
-2.42 -2.04 5.16
-2.05 4.19 0.88
-1.41 3.39 0.67
0.48 -1.21 -2.25
-1.63 1.75 1.56
-0.46 -2.10 -1.00
1.47 4.89 -5.70
0.86 -2.68 -1.95
1.76 -2.97 -4.07
-0.37 2.28 -1.20
-0.47 1.78 -1.09
-1.18 0.03 1.63
-0.42 3.07 -1.48
-2.87 2.86 3.67
0.50 -0.96 -1.13
0.13 -2.79 -1.22
-1.57 -4.83 4.17
0.24 -0.19 -1.85
0.57 4.95 -4.44
-2.34 1.45 3.78
0.37 1.48 -3.09
0.34 -4.98 -1.01
1.08 3.98 -5.43
0.59 4.26 -3.92
-0.49 -2.10 -0.58
-1.71 0.74 1.38
-0.83 -0.99 -0.97
-1.36 -3.84 1.46
1.02 -2.55 -2.02
0.64 -0.25 -2.74
-1.93 2.28 1.36
-1.00 0.20 1.12
0.16 -0.64 -1.82
-0.41 1.80 -2.36
-1.32 -3.30 1.96
0.21 4.82 -3.03
-1.20 2.53 0.13
0.34 -0.32 -1.43
-0.91 3.31 -1.47
-1.27 1.41 0.83
0.09 -3.22 -1.30
-0.37 2.59 -1.08
-0.58 0.27 -1.65
0.51 3.02 -4.35
1.41 -3.16 -2.38
-2.01 3.78 0.32
-2.32 1.08 1.83
-0.50 3.12 -0.95
-0.72 5.92 -3.45
-3.10 2.28 3.26
-3.23 3.54 2.65
-0.26 -2.23 -0.47
1.16 -1.03 -3.35
0.26 -1.57 -1.45
1.74 -3.27 -3.90
-1.42 -0.81 2.64
-1.89 4.70 0.19
1.29 3.40 -5.66
0.76 -2.49 -2.72
-0.17 -0.11 -1.48
-2.98 5.01 3.17
-1.85 -3.79 3.08
-2.40 -0.89 3.03
0.07 -2.38 -1.02
2.53 -4.94 -4.39
-0.31 -1.83 -0.82
-2.53 1.66 2.46
1.31 1.58 -4.55
0.20 3.39 -2.50
-1.66 -1.28 1.82
-0.11 -1.42 -0.03
-0.44 -0.99 -1.59
-2.30 3.34 2.39
0.41 0.31 -1.84
-2.89 -1.49 4.64
-1.82 1.16 2.02
1.24 -3.15 -3.90
-2.18 4.97 1.32
-2.74 -0.79 4.55
-0.75 1.79 -1.41
-1.13 2.05 -0.80
-0.77 0.89 -0.04
-0.85 4.60 -1.56
-0.68 5.03 -2.05
-3.01 3.64 3.66
-2.74 -1.29 3.40
-0.94 -3.96 0.48
-0.94 -3.07 2.40
-0.13 5.02 -2.87
-2.14 3.79 1.90
-1.71 -2.83 2.40
-2.65 4.85 1.58
-1.72 -1.10 2.89
-1.14 2.20 0.03
0.13 0.31 -1.95
-2.24 1.09 1.63
-3.74 1.89 4.94
-0.70 -1.78 0.03
-1.51 3.86 1.42
-1.16 1.94 -0.30
-0.12 3.00 -3.19
-3.38 3.59 2.68
1.51 3.01 -5.52
-3.34 4.24 2.96
-0.45 -5.65 2.35
-0.52 -5.38 0.87
-0.30 0.79 -2.21
-1.83 4.36 0.84
-1.67 -2.67 1.81
-1.19 3.68 -1.11
-2.52 1.48 3.30
-2.96 2.51 2.78
0.66 3.73 -4.81
-0.25 -2.72 0.65
-0.60 -0.55 -0.81
1.01 -1.65 -3.83
-0.06 0.51 -2.13
-1.46 3.00 -0.82
-1.53 0.65 1.86
-0.26 0.89 -2.35
0.61 4.95 -4.88
0.65 -1.98 -2.78
-0.90 -1.92 0.26
-2.27 -3.28 4.21
-0.19 -1.24 -0.28
-0.85 -4.22 1.71
-2.59 3.22 2.08
1.85 3.45 -5.32
0.36 -2.18 -1.44
2.41 0.59 -6.36
-0.16 -3.53 0.89
-0.65 1.34 -1.36
-0.59 -1.54 -0.17
-3.40 5.35 3.93
-3.04 2.83 2.87
0.97 -4.21 -1.58
1.45 3.68 -5.06
-1.05 1.39 -0.14
1.16 -3.89 -2.49
-0.66 -2.75 0.47
-2.37 -0.99 3.52
-0.20 -0.77 -1.95
0.31 -0.34 -1.96
-0.83 4.81 -2.22
0.46 -4.59 0.08
1.40 0.40 -5.15
0.48 -5.10 -2.01
-0.74 0.95 -0.03
-0.70 -1.53 -0.13
-0.43 2.52 -1.65
-0.53 3.22 -2.31
-1.75 3.56 0.91
1.03 -3.80 -3.70
-1.31 -0.98 1.90
-0.39 -3.88 0.23
1.36 3.28 -5.04
-1.29 -3.58 2.53
-0.73 0.09 0.43
-0.50 -4.58 0.98
-1.01 2.50 0.51
-0.51 -0.14 -1.59
-1.15 3.76 -1.00
0.94 -5.18 -1.35
-1.56 -1.74 2.57
0.65 -4.50 -2.43
0.65 1.27 -4.33
0.21 2.08 -3.38
-2.76 -3.80 4.56
1.41 -3.71 -2.23
0.11 -0.95 -1.51
-1.19 -3.45 0.85
-1.55 2.29 0.46
-0.23 -2.31 0.57
-0.21 -1.03 -0.01
0.26 -4.25 -0.69
-2.34 4.85 1.81
-2.46 4.00 2.00
-0.97 -1.46 1.63
-0.29 4.36 -2.05
1.76 -1.49 -4.04
0.23 4.34 -4.85
1.61 -1.42 -4.45
-2.11 -1.29 3.30
-1.16 4.60 -1.25
-2.31 -0.66 3.71
0.18 -1.41 -3.01
0.51 -4.47 -0.15
1.72 -1.65 -4.32
0.25 -4.97 0.31
-0.94 0.41 0.72
1.53 -1.71 -4.73
-0.64 1.62 -0.56
-2.73 4.88 2.78
-0.03 -3.95 -0.81
1.41 1.51 -4.76
0.67 -4.84 -1.81
-1.71 3.45 0.14
0.89 1.52 -3.11
-1.03 2.92 -1.97
-1.45 -3.02 2.67
0.01 -3.70 -0.20
-0.88 2.48 -0.61
-1.28 3.68 -0.96
-0.54 -2.33 -0.83
0.74 1.91 -3.33
-0.41 3.69 -2.59
-1.64 -2.43 2.82
0.07 -4.55 -1.09
-0.24 2.28 -1.31
0.10 2.59 -2.39
-2.24 2.98 1.42
-1.13 3.00 -0.94
-0.92 -0.29 -0.22
-2.75 2.35 1.82
1.26 2.55 -4.65
-0.96 3.57 -0.49
-2.67 2.62 3.58
-0.50 -4.49 1.08
-1.26 -2.14 1.33
1.33 -0.85 -4.79
-2.01 0.15 2.05
-1.96 1.95 2.60
-0.88 -2.07 0.50
-0.17 -1.08 -0.25
-0.93 -5.37 1.16
-0.93 -2.03 1.01
-1.40 1.39 -0.08
-2.38 3.25 2.21
-0.37 -2.91 0.88
-2.25 -0.28 3.07
-1.87 1.32 1.72
-1.67 -0.70 2.89
-0.32 -2.93 -0.44
1.50 -4.93 -3.44
0.03 -4.07 -0.56
1.08 -1.07 -3.61
0.33 -4.75 -0.83
0.05 -0.99 -0.12
-1.77 -0.48 1.72
-1.35 1.91 0.57
-0.68 -0.58 -0.69
-0.27 5.03 -2.41
-0.30 4.21 -3.64
1.20 1.25 -5.17
0.45 -2.42 -1.02
-0.51 3.03 -2.66
-0.44 -3.41 -0.00
1.27 -1.10 -5.06
-1.43 0.18 2.00
-2.85 1.56 4.12
-1.47 -0.22 2.47
0.15 0.41 -1.74
-1.86 2.65 2.11
-3.37 4.21 2.58
-0.79 0.12 -1.14
0.94 0.59 -4.29
-0.94 1.15 -0.21
1.65 1.71 -4.42
-1.75 4.26 -0.53
-0.77 1.24 -0.08
-1.19 0.51 0.07
-1.87 -3.53 4.12
-0.66 -0.54 -1.66
-0.63 1.78 -0.41
-0.85 3.08 -1.13
-0.86 5.59 -1.66
-2.10 -1.51 2.71
-0.63 1.70 -0.51
1.05 -4.42 -2.24
-1.36 1.63 -0.34
0.92 1.95 -4.19
-1.38 0.96 -0.20
-2.29 1.78 3.26
-1.08 -1.70 1.71
-1.07 -0.43 1.08
1.20 -0.68 -3.07
1.03 3.58 -4.97
0.02 -2.71 -1.03
-0.85 -2.98 1.13
-2.72 -2.86 4.67
0.96 0.50 -4.55
-1.25 -2.09 1.67
-1.66 1.28 0.36
1.71 -4.60 -3.49
0.73 1.16 -4.07
0.53 -2.90 -2.54
-1.74 -4.67 3.64
-1.48 -4.42 2.52
0.33 1.53 -2.20
-2.33 -2.77 3.00
-0.91 0.67 0.90
1.31 2.74 -6.36
-2.36 2.55 2.69
-1.36 -4.18 1.77
-2.11 3.38 1.84
1.93 -4.80 -3.64
1.14 -3.35 -1.34
1.85 -4.48 -4.51
-2.59 0.58 3.89
1.46 -3.84 -3.43
1.16 -3.61 -2.06
-2.21 5.50 0.82
2.50 -5.83 -4.20
-2.02 3.19 1.08
0.81 1.47 -4.86
-0.91 -4.21 2.24
-1.03 1.30 -0.21
1.26 1.47 -4.41
-1.59 -3.63 3.95
-1.54 -1.96 2.16
-2.37 2.22 1.29
2.95 -3.44 -6.24
-1.38 -3.48 1.09
-2.12 3.86 1.20
-1.22 -1.54 0.87
-1.81 1.44 1.33
-0.25 3.51 -2.74
-1.88 0.05 2.65
-2.13 4.30 1.46
0.78 2.65 -3.97
-0.31 3.14 -2.59
-2.24 -0.10 2.05
0.00 0.74 -0.47
-1.45 3.23 -0.13
-0.71 -3.06 1.70
-2.21 1.15 2.00
-2.58 -3.47 4.87
0.81 -3.25 -1.40
-0.03 2.19 -1.52
0.17 0.85 -1.21
1.66 -2.72 -3.19
-0.69 3.43 -1.72
0.85 1.90 -4.41
-2.19 3.82 0.66
0.49 2.68 -4.05
-0.43 1.42 -1.18
-1.31 0.42 0.55
-2.73 0.49 3.87
-0.76 -1.77 0.49
-0.11 -1.39 -0.59
0.70 -4.90 -0.26
0.24 -3.49 -0.76
0.44 1.81 -2.73
-0.48 3.75 -1.38
-1.69 -2.60 1.66
0.54 2.33 -3.51
-1.53 -2.77 3.26
-0.66 -0.94 -1.36
-1.49 2.77 1.44
-0.77 -3.10 0.15
0.73 -1.02 -2.70
-2.90 4.57 2.02
-3.04 1.67 3.47
-0.70 -1.58 0.21
-2.45 4.13 1.39
0.29 -3.10 -1.64
-2.87 0.35 4.72
-3.97 2.35 4.45
-0.51 -0.99 -0.80
1.24 -3.23 -3.66
-1.53 2.60 -0.67
-1.82 -0.66 2.00
1.90 -3.52 -3.88
1.68 -4.67 -3.70
-1.27 2.65 0.71
-1.93 -0.58 3.68
-0.41 2.02 -0.90
0.47 -1.66 -1.08
-0.77 -4.16 0.98
-0.34 0.15 -2.04
1.22 0.10 -4.37
1.44 -0.07 -4.19
-2.02 5.64 1.55
-2.17 2.33 2.47
0.86 2.85 -4.16
0.39 -2.02 -1.22
-0.96 3.28 -1.08
0.60 4.32 -4.03
-0.73 0.86 -0.65
-0.88 -1.09 1.02
-1.38 -1.37 0.67
-1.30 0.13 1.02
0.20 -3.40 -1.57
-0.87 0.85 0.38
0.51 -4.91 -0.76
-1.68 2.51 0.74
-2.72 -3.03 6.11
-0.61 3.82 -0.82
-1.23 5.12 -0.35
-0.46 1.34 -0.55
-1.64 2.41 1.42
-1.97 0.35 1.99
-1.22 2.86 -0.46
-1.25 -0.53 1.39
-0.84 -2.36 1.02
0.49 -3.61 -0.12
-1.28 -3.43 0.91
-0.79 -3.23 1.12
0.08 -3.66 -1.68
2.59 -4.57 -5.95
0.70 0.93 -3.77
-0.85 -3.16 0.12
-0.54 3.53 -1.08
-2.81 -3.04 4.55
-0.75 -2.93 1.33
1.80 -2.51 -5.11
0.22 -2.98 -1.72
-1.40 -3.87 2.57
-0.34 -0.85 -0.16
-3.56 2.03 4.70
1.78 -2.12 -4.53
-1.55 0.07 1.95
-2.33 -3.67 4.42
-0.52 -4.94 1.33
0.70 3.02 -3.58
0.60 -4.15 -1.08
-2.05 -2.23 3.09
0.11 -3.83 -0.48
-2.80 3.76 2.41
-2.73 3.21 3.18
-1.41 5.15 -0.09
0.18 3.75 -3.38
0.13 -2.91 -0.47
1.13 0.24 -3.58
-0.21 0.25 -1.71
-0.93 4.35 -1.37
0.22 0.74 -3.18
-1.15 -0.53 0.07
0.56 -2.51 -2.44
-0.79 5.17 -1.90
-2.78 0.98 2.79
0.75 2.81 -5.37
-1.47 -1.32 2.78
2.11 -5.33 -4.64
1.67 0.12 -4.65
0.23 -3.73 -1.81
-0.42 -3.59 -0.52
-2.27 -3.69 5.01
-0.73 0.09 0.53
1.48 -2.73 -2.59
0.79 2.21 -4.45
-0.37 -0.10 0.38
0.17 5.19 -3.93
-2.50 -1.39 3.32
-1.22 1.43 -1.14
0.28 2.22 -2.84
-1.38 2.07 0.52
-1.02 2.94 -0.07
-1.48 -4.78 2.68
-2.27 -4.24 5.01
-0.12 -3.00 0.21
1.44 -2.62 -3.66
2.63 -4.94 -4.53
0.25 -2.60 -0.86
-2.87 1.74 4.24
-0.23 -2.34 -1.23
-1.58 2.51 -0.22
-0.01 -1.78 -1.86
0.07 2.06 -2.98
-0.98 -2.94 0.53
-2.09 0.45 1.21
-1.87 -4.07 2.93
-0.88 2.59 -0.43
-1.63 -3.87 2.64
0.93 -3.78 -1.20
-0.41 -1.24 -1.56
-0.94 -4.18 1.72
0.88 2.40 -3.40
-1.86 -2.69 1.92
-0.20 0.04 -0.68
-0.30 3.63 -2.44
-0.50 -4.65 2.18
0.59 -3.09 -2.81
-1.35 0.33 1.37
0.71 -0.26 -3.01
0.42 -2.20 -1.49
0.35 -0.48 -1.82
-2.18 4.05 2.20
-0.25 4.76 -3.97
-1.57 3.95 0.97
1.11 -3.44 -4.08
-2.43 2.59 1.92
1.59 -2.60 -3.31
-1.01 -0.04 -0.14
0.02 3.79 -3.46
-2.49 2.78 2.50
-1.83 2.64 0.79
-3.26 0.95 5.31
2.01 -4.38 -3.38
0.89 -1.19 -2.62
-2.57 4.06 1.28
0.65 -3.70 -2.35
-2.75 -2.46 5.15
-2.23 3.81 2.21
-1.05 -4.28 2.02
0.75 1.57 -3.32
-0.13 -1.31 -1.13
-1.04 -0.78 1.85
-1.83 -0.74 2.71
0.36 2.78 -4.19
-1.05 1.33 -0.21
0.95 -1.89 -2.70
-2.74 -1.57 4.12
-3.29 1.48 4.21
-1.48 3.93 -1.44
-1.70 -1.41 2.10
-0.63 -2.87 0.28
1.53 -1.56 -4.95
-1.78 1.22 0.98
0.24 -4.63 -0.70
-2.95 -1.75 4.64
2.63 -4.24 -4.31
-1.89 2.05 1.56
-2.05 -0.15 1.69
-3.32 5.65 2.72
-0.31 -3.18 0.86
-2.17 0.53 1.61
-0.23 -1.46 -1.97
-0.92 -0.69 0.63
0.10 -1.13 -2.84
-0.78 -0.17 -0.68
-1.42 -3.40 2.06
0.69 -0.81 -3.80
-0.25 1.51 -1.49
-0.37 -3.73 0.74
-0.66 3.99 -1.84
0.25 3.97 -3.26
-2.33 -0.65 2.64
0.16 3.26 -4.04
-0.28 0.94 -1.34
1.88 -4.69 -4.65
0.83 -3.92 -1.51
-0.29 -5.41 0.06
-1.16 -1.57 0.07
-2.38 4.81 0.73
-0.15 -4.92 0.79
-1.12 4.75 -1.34
2.25 -0.92 -5.44
-2.85 3.72 1.81
0.28 -3.90 -1.89
-1.82 0.65 1.57
-1.72 1.03 1.05
-0.16 -4.61 -0.54
1.68 -4.58 -4.20
-0.34 -3.59 0.61
0.82 0.07 -3.09
-1.32 4.56 -0.30
-1.83 -1.01 2.73
-2.69 -2.81 4.09
-1.48 -3.04 3.35
-1.16 4.28 -1.67
-0.13 -2.14 -0.08
1.66 4.29 -6.05
0.07 3.83 -3.26
-2.25 3.83 2.09
-0.67 2.42 -1.95
-2.01 1.71 0.94
0.17 -4.06 0.46
-0.98 -0.16 -0.36
-2.98 2.57 3.73
-0.09 -1.10 -2.07
-0.46 1.56 -0.71
1.60 1.62 -5.61
-0.20 -0.48 -0.68
0.89 -3.56 -2.91
-1.58 4.27 -0.47
1.50 -3.17 -3.60
-2.06 -2.26 2.55
-0.21 0.13 -1.05
-1.08 -2.41 1.33
-2.68 4.73 2.38
0.46 -0.20 -1.70
0.50 -1.66 -1.46
-0.52 2.11 -2.82
-2.14 3.00 0.65
-0.87 1.75 -1.18
-1.49 -1.38 1.83
0.83 1.64 -4.14
-0.67 -0.67 -1.09
-0.70 5.43 -2.76
-3.36 3.30 4.52
2.64 -3.00 -5.45
-1.45 1.66 -0.35
0.84 3.76 -4.50
1.94 -0.90 -4.72
-0.36 3.96 -1.97
