ply
format ascii 1.0
comment Made by Nomoko
element vertex 3000
property float x
property float y
property float z
end_header
5.05 0.68 -1.56
-1.22 3.99 -3.37
0.24 3.95 4.01
5.93 0.03 -2.54
0.44 3.60 -5.18
5.64 1.01 0.52
1.21 3.42 -3.40
4.32 1.06 -0.52
1.56 2.93 1.65
-1.63 5.56 4.01
3.56 2.03 -4.43
5.03 1.36 -0.58
-0.65 4.17 -1.84
-0.27 4.08 -0.64
-0.66 4.84 1.52
5.68 1.41 2.02
4.00 1.41 -1.16
1.14 3.23 1.37
3.02 1.96 -4.68
2.30 2.69 3.48
7.20 0.01 3.36
3.60 1.48 -1.31
1.70 2.43 -4.55
-1.77 5.25 -1.39
-1.53 5.05 1.30
0.61 3.75 1.49
4.27 1.44 -3.56
0.05 4.01 3.84
0.39 3.91 1.83
1.74 2.92 5.01
3.81 2.03 1.80
5.07 0.64 1.68
-1.96 4.55 -1.36
4.41 1.06 -3.13
6.40 0.19 -4.07
0.96 3.62 2.10
6.53 0.10 -0.83
6.29 0.19 -0.40
-0.29 4.05 -3.58
1.73 2.66 2.96
1.28 3.40 -0.15
2.81 2.10 -3.47
6.64 -0.01 -1.57
0.55 4.29 2.65
-0.53 3.82 -4.19
2.65 2.28 -2.27
0.01 4.22 3.63
4.01 1.50 0.87
4.16 1.38 4.75
3.85 1.51 2.18
0.98 3.81 -3.05
-2.54 5.25 -0.37
2.26 2.52 -1.32
1.72 3.33 -2.04
1.46 3.56 -1.83
2.17 2.29 0.15
5.30 0.59 0.31
5.86 0.49 -2.92
3.39 2.57 2.14
2.87 2.37 -4.96
-1.35 4.85 -1.57
3.01 2.36 -1.87
2.98 2.15 1.67
-2.54 5.64 0.79
1.82 2.51 -0.15
0.19 3.79 1.57
2.26 3.01 0.28
2.16 2.76 -3.89
1.56 3.18 0.22
2.80 2.01 2.82
2.97 2.38 -1.26
1.21 2.98 -3.98
6.01 0.34 2.15
0.61 3.41 -5.22
2.15 3.35 0.69
2.80 1.81 0.50
3.37 1.82 -0.75
3.66 1.67 -4.21
-0.49 4.24 1.32
2.70 2.11 -5.54
2.36 2.31 -1.65
1.27 2.78 2.94
3.61 1.45 -0.79
-0.40 3.92 0.26
3.23 1.36 0.82
1.95 2.72 1.11
3.37 2.43 0.96
5.54 0.75 2.95
2.33 2.70 2.63
2.02 2.79 1.38
-1.00 4.45 -1.77
-2.21 5.39 2.11
-3.04 6.21 0.76
-1.77 5.03 3.15
0.57 4.03 -1.99
5.86 0.30 -5.41
1.82 2.42 -3.71
0.95 3.26 1.04
-2.72 5.47 2.54
-2.77 5.73 -2.64
-0.17 3.59 -2.14
4.12 1.62 4.15
4.03 1.84 -1.27
3.53 2.20 0.78
6.13 -0.15 -3.50
3.96 1.54 0.41
1.24 3.34 -3.59
3.68 1.95 -2.91
2.65 1.78 0.88
4.76 1.55 0.21
-1.61 5.15 1.17
0.27 3.30 -1.72
0.38 4.38 1.78
1.82 3.15 -2.06
3.30 1.90 -2.76
-0.39 4.28 3.05
1.38 3.22 -2.78
1.28 3.23 -1.33
1.41 2.98 -2.33
1.77 2.55 -2.48
1.95 2.98 -3.02
4.79 0.88 -0.35
0.54 3.58 -5.17
3.68 2.29 -2.20
0.90 3.29 1.65
1.41 3.34 -0.58
4.67 1.39 -1.44
0.71 3.82 2.52
3.97 2.52 1.68
1.93 3.18 1.49
0.57 3.99 2.90
3.86 1.97 0.93
4.52 1.87 3.81
-0.59 4.89 -1.69
1.70 3.08 -1.41
2.89 2.39 0.89
2.33 2.70 4.66
-0.69 4.95 3.56
-0.35 4.44 3.85
-0.65 4.03 1.39
2.99 2.24 2.64
2.76 1.98 -2.18
-0.28 4.09 0.01
0.34 3.34 -3.30
1.00 3.24 -2.60
1.55 3.52 0.59
4.57 1.74 2.94
-0.68 4.03 0.71
3.66 2.37 -3.20
0.31 3.98 -2.25
1.35 3.50 -3.28
6.21 0.61 4.19
3.03 2.93 2.80
-1.32 5.28 0.32
-0.39 3.87 -4.81
5.06 1.49 3.29
2.42 1.75 -3.61
5.55 1.25 0.99
0.35 3.32 -1.88
-1.59 4.48 2.97
-0.45 3.83 -2.29
2.67 2.70 1.27
-0.61 4.74 1.72
1.66 3.10 -1.04
2.09 2.43 4.04
0.73 3.02 1.44
2.41 1.93 2.15
2.86 2.24 4.83
2.36 2.65 -2.81
3.91 2.14 3.51
-1.01 4.81 1.35
1.59 3.71 0.91
0.87 3.26 -1.01
3.52 2.16 -0.73
4.81 0.51 -0.98
1.63 2.56 -2.40
4.25 1.35 -0.12
2.68 2.21 -3.10
2.19 2.86 -1.53
2.68 2.33 -5.10
-0.02 4.20 -3.30
0.92 3.93 -4.05
0.75 3.51 2.23
2.68 2.16 1.06
1.25 3.39 0.67
2.08 2.78 1.59
0.49 4.10 -2.69
1.55 2.92 -5.20
5.11 1.10 1.71
0.56 3.76 0.27
0.00 4.00 -2.61
-0.42 4.27 -0.07
0.54 4.12 -3.12
0.10 3.67 -4.68
3.86 1.35 -3.32
5.65 1.23 4.86
0.86 3.62 3.11
4.53 2.12 0.76
0.95 3.42 1.16
6.16 0.12 -4.79
0.17 3.40 -0.93
-0.41 3.96 -3.68
-0.97 4.35 0.81
-2.11 5.83 0.85
4.35 2.23 1.67
-0.75 5.08 -0.95
1.82 3.48 3.83
5.54 0.63 1.60
2.39 2.64 -3.28
-1.16 4.71 -5.27
4.32 1.30 2.71
5.12 1.04 -3.57
-2.76 5.11 -5.21
0.64 3.88 3.31
2.09 3.09 -1.86
0.08 3.56 3.26
-0.66 4.83 3.14
0.69 4.00 3.49
3.77 2.11 0.82
2.36 3.04 2.15
0.83 3.06 -2.46
-0.39 4.41 -1.65
2.27 2.80 0.29
3.54 1.92 2.35
-3.17 5.88 1.92
0.41 4.11 -0.02
-2.77 5.53 1.35
2.10 3.11 -2.69
2.00 2.33 -4.59
3.97 2.59 3.89
1.15 2.85 -3.45
2.11 2.56 -2.67
6.76 -0.29 4.44
2.84 2.16 0.19
1.56 3.36 0.89
3.88 1.20 1.65
-0.72 4.49 3.87
1.88 2.57 -1.21
3.36 1.61 -3.41
2.23 2.51 -2.69
-0.08 4.04 1.72
0.84 3.41 4.95
0.69 3.63 -2.62
4.23 1.49 -3.36
-0.91 4.89 2.27
-2.53 6.20 3.19
-0.08 3.90 -0.52
4.00 1.79 3.41
4.42 1.19 -4.09
6.67 0.18 -0.45
5.82 1.10 3.61
5.65 0.97 1.59
4.94 1.12 2.11
6.49 0.61 0.79
2.85 1.97 -1.17
-1.95 4.64 -4.83
2.19 2.83 -4.31
6.49 -0.50 -2.24
2.75 1.96 -4.14
0.23 3.67 0.51
1.75 3.41 4.13
0.50 4.13 -2.17
3.68 2.33 3.63
2.89 2.12 0.59
-1.77 4.56 0.21
1.85 2.12 -2.62
1.23 2.51 -3.38
2.12 2.66 -1.96
1.43 2.99 1.99
1.63 2.96 -4.84
-3.69 6.61 4.45
-0.76 4.34 0.27
3.22 1.68 -2.81
5.56 1.02 3.06
7.14 0.31 1.80
3.28 2.11 3.16
-0.90 4.60 -3.42
3.01 2.50 4.46
3.28 1.91 -0.37
-1.68 4.79 -0.03
3.84 1.44 1.84
1.76 3.62 3.48
4.09 1.77 -0.96
3.81 1.09 -2.84
2.62 1.57 -4.79
4.08 0.86 -3.36
-2.19 5.44 0.38
0.85 3.40 -3.39
2.66 2.09 -3.57
-2.76 5.45 -2.01
1.23 3.03 1.46
-2.60 5.04 1.29
1.86 2.77 -3.33
1.14 3.13 1.83
2.94 2.25 -0.39
5.39 0.91 1.38
1.18 3.40 0.23
2.79 1.96 0.83
3.55 1.81 1.14
3.61 1.83 -1.76
0.93 3.46 2.05
-0.64 5.14 3.61
4.43 1.23 2.71
-2.22 5.42 2.49
0.56 3.61 -0.17
0.88 3.91 2.62
3.90 1.62 2.29
4.20 0.88 -3.99
3.80 1.60 0.19
-2.64 5.63 -3.06
1.67 2.80 -0.62
0.62 3.44 3.05
4.72 1.56 -0.50
1.77 3.46 2.60
1.91 2.52 -2.17
2.90 2.37 -3.02
6.33 0.20 0.80
2.82 2.89 -1.11
-1.46 4.94 0.21
4.12 2.38 4.02
-1.94 5.18 3.23
-0.51 4.21 -4.37
-0.52 4.09 -1.29
6.07 0.06 3.88
3.54 1.50 -0.41
1.96 2.61 3.49
5.07 1.07 2.05
1.49 3.57 4.63
5.48 1.22 -3.61
2.28 2.53 0.00
1.50 2.51 -3.42
4.24 2.24 2.16
-1.53 4.94 4.12
5.62 1.08 0.55
0.22 3.66 1.46
1.86 2.72 -1.29
1.75 3.15 2.31
0.82 3.47 1.57
1.11 3.12 2.95
0.82 3.67 3.18
4.60 0.91 -0.75
0.68 3.91 0.45
5.01 1.17 -1.56
6.36 0.78 -0.65
2.74 2.26 4.99
1.69 3.02 -2.30
1.26 3.78 1.80
3.30 1.93 -1.87
-0.22 4.53 -3.10
-1.44 5.03 -5.31
5.03 0.52 -4.18
-2.08 5.26 5.03
1.26 3.88 2.26
2.98 2.54 -4.66
3.90 2.02 3.46
4.40 1.32 2.80
1.09 3.19 -3.66
1.11 3.06 -5.16
-1.40 5.72 4.04
2.47 2.98 3.93
5.45 1.59 4.15
4.83 0.90 -0.07
0.59 3.36 -1.13
5.75 0.80 1.89
3.15 2.11 -2.69
-0.19 4.12 -2.71
-1.67 5.43 1.08
4.81 1.70 3.73
7.03 -0.49 3.86
2.04 2.55 -5.03
3.52 1.47 -3.60
0.47 4.30 1.69
-0.26 4.27 -1.84
-1.17 4.78 -0.10
0.51 3.60 2.10
3.94 1.84 -4.79
4.91 1.78 4.58
-2.60 6.13 3.29
-1.68 4.65 -4.26
3.76 1.55 4.76
0.76 3.50 -2.59
0.11 4.13 1.52
4.36 1.34 -2.77
-1.66 4.29 -4.44
6.19 0.81 3.49
-1.13 5.05 -1.54
2.19 2.35 -2.24
3.44 1.88 -4.55
1.10 4.07 2.01
-2.25 5.56 3.10
1.13 3.13 -0.16
0.80 3.22 1.82
5.81 0.57 4.29
-2.33 5.61 0.43
0.21 3.61 1.38
3.84 2.32 0.64
4.98 1.23 -1.29
0.76 3.68 -3.14
0.33 3.38 -0.37
2.82 1.94 -2.35
3.27 1.83 -0.84
1.24 3.40 2.92
-3.25 5.53 -2.00
2.99 2.21 5.20
0.58 3.12 -4.31
4.92 0.87 -5.02
0.67 3.66 2.99
-0.57 4.83 1.85
1.06 3.51 -3.12
4.45 1.11 -3.63
2.52 2.83 2.85
-2.69 5.39 -4.94
1.23 3.19 -1.29
-3.50 5.30 -3.58
3.20 2.19 4.26
2.39 2.86 -0.76
3.52 1.24 -2.11
-0.02 3.65 0.22
2.42 2.27 -0.61
3.38 2.00 2.38
1.58 3.15 -2.27
0.68 3.80 -0.73
-1.32 5.23 -1.60
-2.84 5.51 -1.60
3.07 2.12 -5.06
2.41 2.36 -1.32
-1.12 4.67 3.88
-1.14 4.30 4.09
3.95 1.42 0.76
-3.43 6.11 -2.79
4.34 1.44 -4.73
-2.03 4.89 -4.76
2.39 2.65 -0.75
-0.61 4.34 -0.29
4.71 1.14 -2.09
2.62 2.49 4.15
5.22 1.44 2.26
0.14 4.55 4.44
0.72 3.74 3.48
0.52 3.43 -1.15
4.29 1.84 -1.23
2.06 2.53 -4.42
6.90 -0.23 0.52
-0.04 4.55 3.16
0.52 3.77 -1.14
2.20 3.10 3.04
-0.27 4.16 3.28
2.96 2.68 -0.18
1.67 2.33 -3.81
1.96 3.08 1.42
5.94 0.77 2.79
2.56 2.43 0.03
6.23 0.04 -4.56
1.60 2.91 2.34
4.87 1.16 -1.22
0.54 3.37 -1.25
0.85 3.60 3.07
1.02 3.26 -4.25
-0.48 3.94 -4.80
0.63 4.37 -0.16
-2.87 5.72 -0.62
1.96 2.63 -3.12
1.61 2.80 1.11
2.77 2.47 -5.23
5.14 1.02 -2.23
2.05 2.70 1.86
-0.66 4.45 -1.28
0.78 3.19 -2.40
-1.80 4.71 1.60
1.13 3.28 3.00
1.34 2.81 -1.58
-0.52 5.09 4.82
2.98 1.64 -1.05
-0.79 4.71 -0.40
3.05 2.05 2.37
1.27 3.35 -3.02
-0.05 4.58 -1.87
-0.35 4.41 1.56
3.98 2.00 -2.28
4.63 1.24 -1.46
-3.53 5.69 -4.33
1.97 3.33 1.51
-2.43 5.52 -3.81
-1.11 4.99 3.05
4.57 1.60 3.53
2.50 3.13 -0.43
2.60 2.59 3.33
2.44 2.49 -0.17
-0.71 4.75 1.13
5.50 0.54 1.58
5.41 0.54 -3.15
1.64 3.40 -4.14
3.11 2.15 1.90
-0.13 4.39 4.32
0.68 4.12 -2.11
6.36 0.19 3.29
1.05 3.06 -4.24
-3.66 6.44 1.30
1.44 3.56 4.12
2.72 2.20 -4.80
4.83 1.21 3.73
-2.20 5.48 0.15
1.14 2.72 1.16
2.84 2.17 -1.34
4.16 0.85 -3.09
0.66 3.03 -2.12
-0.32 4.39 -4.44
2.37 2.12 -3.55
-0.78 4.76 -3.88
4.69 1.95 1.33
-0.46 4.68 -0.29
3.12 1.96 3.85
0.82 3.82 -4.55
4.94 0.93 3.45
3.62 1.69 2.87
-1.16 5.10 1.63
7.31 0.04 0.99
2.17 2.42 2.19
1.90 2.70 1.48
5.24 1.00 -2.82
0.75 3.94 4.91
3.51 1.79 2.40
1.34 3.47 -0.18
-1.25 4.73 -0.95
2.01 3.43 4.57
3.96 1.09 -3.68
5.12 1.15 4.49
1.80 3.31 1.48
-2.38 5.34 -3.87
2.03 3.10 5.18
4.49 0.70 1.74
2.92 1.87 -4.28
-2.78 5.79 -2.67
0.53 3.46 -2.48
3.48 1.70 -2.25
5.59 1.02 1.98
2.11 2.75 2.33
5.46 1.00 -3.11
1.62 2.43 -3.88
4.84 1.18 -1.54
-0.99 4.88 -4.26
-0.23 3.97 0.62
5.88 0.66 -2.22
6.23 0.26 3.01
2.79 2.28 -2.71
1.72 2.70 3.88
0.02 4.30 1.32
6.58 0.55 0.20
1.65 3.23 1.78
3.17 2.52 3.93
4.27 1.36 1.05
4.94 1.58 2.74
3.94 1.38 -4.52
-0.98 4.72 0.30
4.72 0.95 -0.63
2.54 2.43 0.55
5.70 0.58 -2.64
-0.09 4.02 -3.42
2.11 2.74 -2.20
1.74 2.57 -3.75
2.78 2.16 -1.89
1.92 2.02 -4.37
2.87 2.32 0.26
3.82 1.69 -2.60
2.44 2.70 4.57
1.65 2.59 1.36
1.26 3.40 1.67
6.53 0.08 -2.95
-0.52 4.30 -5.04
2.91 2.29 3.94
2.48 2.55 3.00
-1.14 5.21 4.61
3.40 1.79 4.67
-0.34 4.31 -3.38
2.80 2.25 -1.99
2.84 3.09 2.17
-0.91 5.24 0.12
2.56 2.14 0.05
1.52 2.91 -4.33
5.54 0.74 1.34
1.48 3.10 -1.20
1.98 2.49 1.50
3.58 1.98 0.63
5.87 0.29 -3.73
3.30 2.10 -4.00
-0.48 3.79 -3.01
-1.18 4.19 -4.29
5.16 1.37 -2.25
1.06 4.27 3.53
-0.65 4.60 0.87
5.05 1.14 -4.24
0.69 3.84 2.32
5.01 0.94 -4.71
-2.16 5.82 1.93
5.12 0.88 -2.38
2.98 2.44 1.65
0.61 4.01 0.55
2.11 2.55 2.11
-0.48 4.12 -2.53
-0.78 4.55 -4.40
5.90 0.99 3.22
3.26 2.03 1.22
-2.04 6.09 2.97
-0.92 4.95 3.52
5.40 0.58 -0.44
-2.19 6.22 4.03
1.93 3.29 1.55
4.00 1.26 -3.37
1.75 2.64 0.91
5.54 0.13 -4.31
1.67 3.28 -4.54
4.60 0.80 -2.53
0.28 4.00 1.43
2.80 2.62 4.31
-0.21 5.04 3.73
-0.04 3.69 -2.90
5.79 0.30 2.70
5.28 0.50 -2.73
0.85 4.12 -0.08
2.82 2.53 1.13
-1.44 5.11 2.06
-2.66 5.78 2.98
-0.45 4.55 -0.24
1.44 3.62 0.79
4.67 1.47 1.03
-0.45 4.56 -2.81
4.05 0.90 -4.11
3.09 2.29 -2.63
4.22 1.64 0.63
0.70 3.94 -2.60
2.80 2.25 0.72
3.42 2.33 4.79
5.17 0.80 -1.13
0.11 3.67 -1.09
-1.52 4.80 3.96
3.22 2.30 -0.25
5.64 0.45 -1.49
0.30 3.32 3.24
1.77 2.91 4.56
0.20 3.76 -3.03
0.49 4.08 -1.96
1.42 2.42 -3.89
1.38 3.56 1.22
-0.10 4.33 3.67
1.51 2.67 -1.86
0.60 4.03 -0.00
-1.62 4.66 -2.27
1.20 3.43 -4.30
-1.25 4.49 -4.76
3.43 2.00 1.41
-1.52 5.64 4.55
-3.16 5.65 1.65
2.36 2.38 -5.30
-0.87 4.01 1.93
-0.07 4.41 3.22
1.62 3.53 3.55
5.18 1.55 3.00
-2.57 5.59 -2.67
5.08 0.78 -3.99
-0.13 4.34 -2.47
1.07 3.85 -5.12
-0.05 4.22 2.18
2.88 1.99 0.23
1.62 2.46 -2.87
3.18 3.01 4.09
4.30 2.22 3.74
3.69 2.03 3.62
6.51 -0.32 4.37
1.02 3.81 4.14
4.32 1.12 -3.97
-1.03 4.47 2.43
-1.96 4.99 -4.57
-0.71 4.39 -1.89
5.83 0.17 2.69
-1.65 4.43 -5.43
1.11 2.94 -0.82
1.08 3.23 -4.57
-1.24 4.54 -3.64
7.09 0.14 3.39
4.09 1.43 -4.80
1.93 3.11 -1.04
2.96 2.03 0.41
3.93 1.02 -4.17
1.81 2.74 -0.39
-1.63 5.02 -1.65
0.07 3.53 -1.02
3.49 1.74 3.78
-0.58 4.96 1.92
1.19 2.57 -1.72
-0.68 4.37 -2.74
3.75 2.06 4.36
3.99 2.31 3.74
0.58 4.51 5.07
3.65 2.44 2.11
2.36 3.09 4.82
-1.71 5.66 -1.05
-1.45 5.18 2.97
3.83 1.86 1.38
-1.27 4.56 0.92
1.38 3.37 -0.71
7.02 -0.35 -1.40
0.31 4.00 0.10
0.74 3.35 0.94
0.98 3.17 -1.55
4.71 1.10 3.92
5.55 0.65 -2.11
-0.00 4.25 0.50
-1.59 5.49 4.26
4.30 1.64 -4.35
6.14 0.21 -5.20
2.47 1.97 -1.93
3.57 2.10 2.14
0.19 3.56 -4.10
-0.64 4.17 0.92
1.70 2.82 4.53
1.76 3.00 -2.97
3.60 1.70 -1.55
-2.09 5.35 -5.04
0.75 3.30 -1.82
2.83 2.96 4.09
4.17 1.65 2.51
2.47 1.76 -3.85
4.21 1.40 -2.72
3.07 2.69 4.80
-0.19 4.56 3.13
1.67 2.38 -4.04
-1.89 4.99 0.78
3.38 2.23 0.58
0.13 4.32 -1.01
0.22 4.01 -4.86
1.85 3.01 -4.35
-4.13 6.58 -3.45
0.34 3.90 1.63
0.24 3.73 -4.89
3.32 1.77 2.92
-0.13 3.23 -4.73
-2.74 5.34 -0.93
2.27 2.85 -2.26
4.05 1.00 -4.75
4.47 1.02 2.69
0.29 4.47 -0.99
-0.52 4.40 3.45
1.67 2.55 0.71
5.37 0.98 4.42
3.55 2.42 2.63
2.97 2.30 4.45
1.53 3.08 -1.79
2.09 2.39 -4.11
1.45 2.76 0.10
0.58 4.06 1.42
3.39 1.94 -0.41
-2.44 5.41 0.38
0.88 4.07 2.50
0.98 3.92 -1.98
4.50 1.32 3.36
2.71 2.45 4.14
-3.06 5.68 -2.11
4.62 2.08 2.46
4.71 1.93 3.15
0.41 3.33 0.18
-0.62 3.92 -4.34
-0.28 4.73 4.35
4.79 0.86 -4.03
1.99 2.11 -3.58
1.04 3.55 -2.91
-0.01 4.31 4.79
5.78 1.04 -1.11
-0.16 4.07 -2.86
-1.20 4.74 3.31
3.91 1.89 -3.77
5.13 0.89 -0.68
5.20 0.92 0.69
-0.01 3.31 -3.84
5.05 1.13 -4.06
3.84 1.47 -0.69
-3.16 5.62 2.55
-1.99 5.76 4.76
0.92 3.48 -1.54
-1.28 5.22 -3.21
-1.99 5.31 3.49
5.70 0.59 -3.05
5.05 1.16 1.16
0.79 3.49 0.55
4.05 2.07 0.28
-2.49 5.10 1.29
1.36 3.57 0.61
0.86 3.11 2.37
-1.46 4.17 -4.38
-3.11 5.30 0.95
-0.87 3.76 -3.40
1.46 2.89 0.97
-2.23 5.75 -3.38
2.73 2.49 1.71
0.42 3.98 -1.71
0.67 3.75 -3.24
4.30 1.50 -2.76
1.80 3.56 2.44
0.81 3.50 3.01
4.49 0.71 -4.59
5.90 0.13 0.84
0.12 3.72 3.01
-0.78 4.80 0.84
2.38 2.91 4.34
6.26 0.48 2.25
-2.06 6.05 5.06
1.26 2.94 -1.15
4.33 1.62 -2.81
5.36 0.75 0.21
-2.76 5.21 -2.06
4.41 1.71 3.19
3.17 2.28 -3.50
-1.83 5.30 -4.39
1.01 3.93 -2.41
1.69 3.31 0.31
0.26 3.62 -2.67
-3.01 5.65 1.30
-0.01 3.76 -4.55
2.14 2.77 -3.74
-0.44 4.30 1.78
-1.55 4.51 -2.03
3.87 1.91 2.81
2.86 2.39 -0.02
0.00 4.10 -1.64
2.65 2.30 -4.30
-0.97 5.43 1.84
6.97 0.15 -2.31
-1.23 5.67 2.47
3.26 1.81 -2.11
1.49 2.82 -4.09
0.47 3.59 -1.45
1.66 2.53 -2.03
-1.84 5.39 -2.30
0.02 4.27 3.47
-1.80 5.07 -1.56
-0.69 4.47 4.69
-2.71 5.32 -2.12
0.05 3.85 -0.96
5.08 1.27 -3.02
4.67 1.33 -0.28
3.69 2.16 3.09
1.36 2.97 -2.58
-1.02 4.71 0.47
-1.06 4.77 4.76
4.16 1.51 3.48
5.07 0.66 -4.30
2.10 2.81 -1.29
1.03 3.31 -5.23
1.10 3.85 -2.76
3.66 1.97 3.37
1.05 3.77 -2.69
5.19 0.53 -4.57
0.68 3.54 -2.41
-0.63 4.37 -4.18
-0.76 4.10 -1.66
2.55 2.16 -0.00
-1.28 4.88 1.66
1.09 4.00 2.41
5.36 0.90 4.24
-1.08 4.95 0.32
-2.71 5.66 3.94
3.99 1.67 -0.28
5.65 0.76 1.29
1.61 2.69 -1.81
4.03 1.55 2.27
4.96 1.57 -4.44
-3.66 6.24 2.48
1.12 3.06 -3.77
5.86 1.35 2.34
6.78 -0.05 4.12
-0.54 4.55 -3.58
0.21 4.15 -1.61
-1.09 5.60 3.00
1.66 2.87 1.71
4.89 0.59 0.18
0.40 4.35 -1.74
2.37 2.53 -4.50
-2.54 5.36 0.12
3.79 2.16 -1.95
0.31 3.33 -4.93
-1.28 3.98 -2.72
1.16 2.99 -4.09
3.31 2.66 2.95
4.96 0.92 2.75
1.66 2.94 4.26
0.51 3.73 2.20
-0.33 4.35 -4.18
3.38 2.68 2.26
1.39 3.11 -0.29
4.33 1.38 -2.23
2.36 3.28 1.44
4.17 1.36 -3.02
0.69 3.68 -4.43
1.53 2.39 -3.58
4.43 2.20 5.12
-2.28 4.57 -4.69
3.16 2.22 3.58
1.44 3.09 2.30
5.61 0.70 -2.06
5.02 0.42 -4.59
2.31 2.37 2.23
6.37 0.43 -3.98
0.51 3.41 -4.59
3.43 2.40 1.03
3.04 2.42 3.78
3.29 2.22 -4.96
0.58 4.64 5.37
3.83 2.60 2.95
-2.70 5.26 1.18
3.45 2.42 2.04
3.22 1.95 -0.08
0.69 3.94 2.01
1.78 2.25 -0.85
1.54 2.27 -4.79
3.25 2.26 -2.39
1.58 2.94 -1.50
2.41 2.54 1.24
4.58 0.96 -3.97
5.30 0.35 2.72
-0.57 4.64 0.01
5.79 0.99 3.65
1.09 3.41 -3.33
3.63 1.65 0.08
6.20 0.01 -1.44
5.99 0.77 0.50
4.58 1.70 4.60
0.04 4.35 1.74
1.60 3.33 4.14
4.74 0.45 0.69
0.63 3.87 4.81
1.80 2.78 -2.04
2.67 2.19 -3.12
6.12 0.63 -4.41
1.51 3.43 1.84
2.95 2.45 4.00
2.18 2.46 -4.16
3.45 1.82 -2.74
5.68 0.48 -2.57
-0.58 3.99 4.32
-2.28 5.04 -2.47
4.21 1.20 -3.19
-0.83 3.98 -3.56
-2.30 4.94 0.38
3.16 2.64 -3.76
3.35 1.62 -4.39
2.43 2.39 2.41
3.42 1.73 2.69
4.48 2.09 -0.47
0.72 4.11 3.25
1.15 3.26 4.01
-1.79 5.46 2.54
6.04 0.86 1.58
0.06 3.91 2.79
2.37 2.32 -4.71
0.30 3.45 -0.76
3.17 2.41 -2.02
1.15 3.17 -1.20
0.41 3.76 -3.32
5.02 1.32 -2.09
5.93 0.39 -0.07
-3.51 6.05 -4.94
0.46 3.82 -1.01
1.52 3.91 2.85
1.66 2.93 -3.86
-2.34 5.20 -3.81
4.90 0.87 1.10
-1.68 5.33 2.57
6.00 0.75 -2.11
3.32 2.12 -0.08
5.20 0.53 -3.67
3.31 2.43 -2.73
4.89 1.28 -2.93
-0.35 4.10 1.35
-1.49 4.75 3.77
-3.44 6.54 0.47
3.50 1.85 4.86
4.07 0.86 -3.02
-0.57 4.52 -0.55
4.83 1.61 0.67
2.22 2.15 -4.55
-0.72 5.05 3.59
-0.78 4.08 0.65
4.01 1.72 -1.40
3.66 2.07 1.56
-0.08 3.72 -2.53
1.12 3.73 -0.96
-1.66 5.56 2.71
3.76 0.94 -3.89
2.58 2.07 0.32
5.63 0.75 3.81
5.58 0.05 -2.25
5.32 0.73 -1.96
-1.30 4.70 -4.69
-1.25 4.50 -3.31
-0.71 3.77 -3.09
-2.86 5.21 -2.76
4.74 1.19 3.22
-3.52 5.89 2.55
-0.35 3.84 -4.78
-0.66 4.50 -5.32
-0.25 3.67 2.75
-2.96 -1.83 1.28
0.45 -2.98 0.70
-2.35 4.22 1.07
-3.89 -4.50 2.25
-3.26 1.30 1.14
4.59 4.57 -1.19
-3.74 -3.85 2.17
-0.46 2.66 0.02
-2.49 2.57 1.31
1.36 1.59 0.39
0.88 0.58 -0.13
-4.69 -3.40 1.99
2.20 -1.28 0.11
3.93 2.49 -1.18
0.00 5.58 0.59
1.49 -1.89 -0.25
3.71 3.49 -0.64
-3.70 -2.94 1.75
-0.09 -1.00 1.00
-0.02 -0.39 0.49
0.75 3.54 0.17
0.80 0.62 0.58
-3.71 0.70 1.89
2.17 -3.84 0.31
1.98 -0.46 -0.01
4.46 0.46 -1.01
-4.03 4.06 1.39
1.73 -5.64 0.17
-0.05 2.13 0.44
0.97 -1.70 0.51
-1.16 4.39 0.09
0.55 3.16 -0.19
0.28 -4.59 0.96
1.13 3.82 0.11
3.66 -2.76 -0.22
4.86 2.09 -1.18
3.05 4.39 -0.25
-0.29 -4.98 0.58
3.36 -1.02 -0.28
-2.05 3.46 1.25
-4.50 -2.85 1.91
4.33 0.83 -0.21
3.19 1.22 -0.96
2.54 3.06 0.05
4.42 -4.98 0.16
2.19 -3.12 0.05
-0.13 4.17 0.84
-0.14 -2.62 0.23
-1.94 1.62 1.03
-3.89 3.23 1.19
-3.26 -2.74 1.23
2.99 2.18 -0.30
2.63 2.01 -0.54
-2.60 -2.78 1.11
1.09 -3.68 0.21
1.36 -2.03 0.71
-4.14 -0.83 1.51
0.26 -4.14 0.27
-3.25 -0.96 1.38
0.03 2.53 -0.14
0.21 2.02 0.57
-1.45 3.35 0.78
-2.96 3.83 1.29
1.89 -5.00 0.93
-2.63 -3.35 1.39
3.74 1.89 -0.78
-1.97 -4.36 1.27
-3.73 -2.85 1.42
-4.37 -2.07 2.18
-3.63 2.23 1.29
-3.85 3.69 1.57
3.44 1.01 -0.35
-3.06 -0.05 0.77
-4.12 -1.90 1.98
3.15 0.96 -0.12
-0.15 -1.89 1.20
1.99 3.08 -0.39
0.93 -3.40 0.73
2.09 -0.26 0.36
-1.95 2.57 1.16
2.31 -4.67 0.19
3.27 2.50 -0.17
-0.54 -2.52 0.48
-3.35 4.57 1.44
-0.99 -1.53 0.95
-1.64 -0.47 1.07
1.16 1.76 0.47
-2.52 5.38 0.98
-0.09 3.35 0.77
-4.55 2.83 1.94
-0.70 4.84 0.04
-4.49 0.44 1.24
1.91 -0.53 -0.42
-1.49 -0.77 0.62
4.39 0.16 -1.12
0.70 1.62 0.03
-1.80 3.59 0.75
4.06 0.44 -0.56
-3.49 -1.87 1.37
0.15 -3.59 0.59
-1.32 3.13 1.11
2.20 -3.27 -0.30
3.62 -1.96 -0.52
2.48 -2.40 0.16
-1.68 -2.15 1.44
3.34 -3.65 0.06
0.73 -2.79 0.23
0.04 2.12 -0.05
-0.50 2.91 0.22
-0.17 4.23 0.27
-0.17 -2.17 0.30
-1.90 -2.87 1.62
-3.10 0.99 1.71
0.27 -0.24 0.47
4.68 0.02 -0.86
-1.74 4.58 0.80
-3.38 0.64 1.79
-2.83 1.36 1.54
3.98 -0.07 -0.65
-0.60 -1.29 1.12
-3.30 4.93 1.12
-4.28 -2.26 1.86
-1.34 0.44 0.91
2.97 2.95 -0.46
-4.13 0.11 1.34
4.31 1.05 -0.87
-4.26 -1.59 2.11
1.10 -0.64 0.26
-3.52 -0.14 1.64
-1.25 2.39 1.10
-3.15 3.58 1.36
-1.68 0.05 1.32
1.53 -0.86 0.62
-0.10 -2.79 1.18
3.75 -3.25 -0.63
1.98 -0.56 -0.51
-2.71 2.00 1.68
-4.52 3.79 1.92
2.20 1.70 0.19
-2.86 0.34 1.46
-5.68 -3.88 1.84
4.60 -3.36 -0.98
2.11 -1.87 0.22
4.26 4.29 -1.35
-0.69 2.23 0.77
0.92 0.93 -0.35
1.38 2.76 0.23
-0.41 -0.45 0.68
-1.11 1.62 0.73
-2.23 -3.28 0.96
-0.71 4.99 0.51
3.80 1.93 -0.79
-0.76 3.39 -0.08
1.84 1.28 0.20
-4.56 -3.16 1.97
-0.53 -2.26 1.02
3.00 -4.55 -0.34
-0.52 -1.80 1.27
-4.21 2.07 1.29
-1.07 -0.47 1.37
-1.72 4.86 0.50
4.39 -3.45 -0.36
-1.34 -2.48 1.52
2.43 3.39 -0.03
2.90 -2.65 0.06
2.29 -0.01 -0.01
2.98 1.38 -0.03
1.39 4.39 0.07
3.39 -3.38 -0.40
2.50 0.28 -0.53
-2.72 0.16 1.11
-1.53 -2.39 0.83
2.39 2.25 -0.17
1.50 2.52 0.31
-1.50 5.51 0.69
-3.68 -4.24 1.28
2.68 2.24 -0.83
-0.08 0.28 0.81
-1.74 -3.99 1.79
1.80 3.95 0.04
0.62 2.09 0.48
0.41 5.32 -0.04
2.46 0.45 -0.70
-1.08 -2.45 0.58
1.49 -2.92 0.19
1.77 3.94 -0.21
2.38 5.17 -0.46
1.94 2.50 0.35
0.92 -1.27 0.47
-2.10 4.57 0.36
4.53 3.34 -1.17
-0.58 -0.41 0.62
3.28 -2.67 -0.34
1.76 3.47 -0.15
0.87 3.33 0.11
2.39 -5.18 0.08
-3.67 3.59 1.17
-0.78 -1.97 1.12
3.36 -2.23 -0.09
2.55 -1.56 0.14
-3.27 4.20 0.62
3.60 -1.51 -0.79
1.07 -0.25 0.37
3.56 -1.96 -0.70
-4.00 -3.05 1.85
3.69 5.07 -0.94
-2.16 -0.19 1.47
-0.46 -1.41 1.02
2.14 1.14 0.26
1.32 2.96 -0.13
-0.66 -0.43 0.49
2.04 5.11 0.22
-1.71 -3.75 0.91
-2.82 -3.07 1.22
-0.88 -0.25 0.67
-2.36 -3.24 1.72
3.53 -0.46 0.10
0.45 0.64 0.58
1.40 -2.92 0.53
-0.43 3.50 0.30
2.34 3.36 0.06
1.53 4.92 0.21
-2.98 -2.74 1.36
-3.58 -3.04 1.93
3.51 -1.58 -0.64
-3.75 -4.50 2.36
-4.63 -2.96 1.68
0.63 0.61 0.40
0.60 4.06 0.22
-2.50 -1.85 1.43
-1.49 -2.18 1.36
4.34 3.11 -0.66
3.45 1.78 -0.52
2.28 1.67 0.23
2.68 1.38 -0.57
-2.77 -2.78 1.83
2.46 -3.97 0.45
3.01 -3.74 -0.46
-1.92 2.35 1.35
0.36 -0.64 0.18
-5.19 -3.30 1.79
-0.79 -1.75 0.81
-0.90 1.45 0.96
5.33 -2.76 -0.79
2.53 -4.88 0.65
1.23 -3.08 0.58
3.75 2.68 -0.81
4.58 0.60 -0.62
-1.50 -1.23 0.67
2.29 2.21 0.22
-2.72 3.31 1.54
3.01 2.16 -0.40
-0.17 -2.11 0.91
2.47 -4.43 0.13
-2.19 -1.10 1.04
-2.22 1.92 1.40
2.66 -4.57 0.19
4.02 -3.12 -0.72
-2.43 5.15 0.71
1.40 0.31 0.19
1.61 -4.65 0.62
-2.22 0.47 0.68
-5.69 3.28 2.18
4.76 -0.84 -0.37
-3.75 -4.39 1.83
-3.24 -0.08 1.47
0.26 -1.13 0.92
-1.35 -0.33 0.65
-0.39 4.71 0.42
3.46 -0.12 -0.38
-3.59 -5.21 2.16
-3.28 -3.04 1.30
-0.50 -1.15 1.00
-3.66 -2.42 1.29
5.13 4.87 -1.29
-2.95 3.15 1.38
4.04 -3.54 -0.50
-2.66 0.53 0.79
-2.09 -2.55 0.97
2.74 0.81 -0.53
-1.06 4.04 0.38
-4.00 -5.29 1.89
1.30 1.24 -0.05
-3.67 1.30 1.29
-5.91 2.28 2.29
-2.63 1.48 1.38
4.09 -0.39 -0.94
-3.94 0.58 1.62
0.15 1.79 0.23
2.49 -3.87 -0.11
0.60 2.87 0.39
-4.89 2.55 1.58
-0.83 0.36 0.25
0.05 1.52 0.51
-0.41 -3.71 0.95
1.83 -1.78 -0.09
-0.33 -4.20 0.95
-2.60 1.10 0.73
3.54 4.79 -0.90
-1.47 -3.88 1.60
5.25 0.75 -0.64
0.45 3.96 0.49
-0.61 -1.86 1.01
2.71 -0.86 0.03
1.44 0.26 0.52
-2.29 2.44 1.21
-2.50 -1.47 1.93
-2.54 -3.32 1.71
-0.33 4.14 -0.08
3.83 -2.28 -0.28
4.50 1.30 -1.00
0.04 0.13 0.74
-1.30 4.19 0.41
3.19 4.35 -0.26
-2.48 -0.69 0.75
1.59 -2.87 0.32
1.11 4.60 0.17
-2.11 1.58 0.72
-0.38 -3.82 1.46
-1.16 4.48 1.03
1.49 -1.23 0.46
3.21 3.06 -1.08
-2.59 2.03 1.35
-5.04 0.07 1.38
-1.63 0.59 1.40
2.39 1.19 -0.15
-2.25 -2.53 1.30
3.84 4.02 -0.98
-2.92 -0.00 0.99
4.49 -3.85 -0.13
-2.64 -4.40 1.56
-0.62 -3.18 1.35
3.05 -1.68 -0.06
2.20 0.08 -0.43
-4.60 -0.24 2.05
-2.81 -0.67 1.24
4.67 -1.28 -1.05
-4.78 0.53 1.70
2.34 3.65 -0.05
0.94 2.94 0.43
-1.88 -2.30 1.70
-3.93 -3.05 2.31
-1.32 0.09 0.82
-2.20 0.38 0.97
-2.47 -0.76 1.65
-4.49 2.69 1.88
4.05 3.08 -0.74
-3.12 -1.72 1.34
-3.44 2.88 1.16
-1.51 -3.26 0.74
3.44 0.69 0.11
0.03 -0.36 0.40
4.40 4.05 -0.77
3.68 3.41 -0.57
4.23 -2.88 0.10
3.12 -1.17 -0.50
-3.91 -3.75 2.25
2.90 3.54 -0.02
2.51 -2.69 0.00
2.67 1.66 0.17
-0.29 1.24 1.00
1.90 0.02 0.33
-2.35 -1.03 1.42
-3.65 3.15 1.29
-2.91 -3.33 1.47
-2.47 -2.98 1.00
-3.00 0.03 1.38
2.21 -2.33 0.24
-1.58 1.70 0.41
0.77 -4.03 1.10
-4.24 -4.41 1.92
3.87 -0.99 -0.80
-0.53 -4.58 1.52
-0.33 4.91 -0.04
4.39 1.80 -0.72
4.49 -2.10 -0.50
2.63 3.25 -0.63
4.03 -4.58 -0.31
0.48 1.84 -0.25
4.09 5.41 -0.52
-1.58 -3.67 0.71
-1.84 -1.87 1.08
-5.18 -0.91 2.21
-2.79 -1.73 1.13
-4.56 3.97 1.43
-4.55 0.45 1.27
-4.08 4.65 1.41
3.35 0.43 -0.47
-2.30 -2.84 0.91
3.78 -5.05 0.14
1.41 0.33 -0.01
2.55 -1.81 -0.53
-1.67 -4.52 1.28
-1.72 2.23 1.10
0.93 0.20 0.19
-5.15 1.22 2.15
-4.61 -4.01 1.91
2.85 -0.53 -0.65
2.94 -2.22 0.17
3.45 -0.33 -0.58
-4.62 -2.48 1.57
-2.05 2.42 0.58
-2.81 -0.04 1.73
-1.01 -2.71 0.59
3.55 -2.08 0.22
3.38 3.96 -0.89
1.95 -3.25 0.40
-0.98 -3.80 1.07
-0.72 1.06 0.47
3.63 -3.02 -0.66
4.21 1.08 -0.98
-2.57 -3.64 1.55
-1.14 0.98 1.32
0.54 -1.36 0.04
-0.46 5.04 0.24
3.22 4.77 -0.17
0.33 -1.07 0.58
-4.38 -4.71 2.24
0.33 1.17 0.81
-1.72 -3.55 0.78
2.32 0.11 -0.46
0.09 5.67 0.14
1.24 4.85 0.12
1.96 -3.65 0.19
-0.42 -3.93 0.79
4.45 1.34 -1.22
-2.94 0.51 0.95
3.38 1.36 -0.03
-4.23 4.14 1.19
3.84 4.01 -0.34
1.49 2.37 -0.30
1.67 -4.43 0.96
3.10 -4.32 0.34
-0.87 2.23 0.42
2.87 3.87 -0.73
-3.79 3.67 1.70
2.90 5.28 -0.33
0.66 0.92 -0.07
-1.54 1.71 1.15
5.72 -3.47 -0.59
-3.74 0.49 1.61
3.55 -4.54 0.23
-2.83 3.57 0.94
5.26 -2.84 -0.62
4.10 4.71 -0.49
-4.64 2.33 1.23
1.78 -3.33 0.33
2.79 -0.89 -0.03
-4.40 3.20 1.57
3.22 3.08 -0.23
3.21 -1.10 0.08
1.07 -2.08 0.84
0.33 0.40 0.84
3.64 2.26 -0.66
2.18 3.08 -0.69
-1.77 -1.61 1.54
-0.27 -3.57 0.81
6.12 4.35 -1.38
-0.86 -4.07 0.79
-0.17 -2.23 0.35
-4.65 1.23 1.55
3.03 1.94 -0.03
4.43 3.27 -0.74
-0.82 -2.22 1.20
-5.28 1.94 1.58
1.75 4.33 -0.26
2.68 1.57 -0.56
2.49 3.92 -0.91
0.87 -0.38 -0.18
3.30 -0.93 -0.41
4.15 3.79 -0.68
-3.36 1.82 1.21
-1.17 2.03 1.06
2.89 -1.02 0.20
-2.73 4.36 1.24
-0.89 3.55 0.89
1.21 2.13 0.01
0.06 -2.54 0.17
0.45 4.15 0.22
-2.47 0.57 1.23
0.66 4.57 -0.25
-4.83 -1.77 2.12
1.82 -0.99 0.51
-5.55 3.45 1.76
0.09 -4.89 1.31
0.54 1.12 -0.06
-5.44 -4.67 2.46
1.43 -3.91 0.33
3.65 0.84 -0.65
2.34 3.71 -0.71
-2.25 -1.37 1.05
1.69 3.55 -0.07
-2.05 4.91 0.86
-0.24 -4.40 0.49
-1.98 -4.38 1.18
3.00 3.70 -0.98
-0.61 -2.31 0.88
-2.37 2.34 0.80
-2.70 1.11 0.74
-4.89 0.29 1.53
-1.31 2.21 0.25
-1.35 -2.77 0.91
3.43 4.29 -0.67
1.10 -1.54 0.15
4.16 -3.86 0.04
-2.15 -2.68 1.11
-0.63 0.62 0.53
2.04 5.19 -0.85
5.29 1.43 -0.69
6.43 0.11 -1.42
-4.12 4.75 0.76
0.21 -1.99 0.79
1.68 -3.83 0.14
-2.28 4.68 1.03
1.12 -2.63 0.53
-2.45 3.72 0.84
4.21 2.01 -1.27
-0.44 -3.13 1.01
-1.28 4.28 0.68
-5.79 3.19 2.26
3.70 3.46 -0.67
3.42 1.55 -0.53
-0.54 0.11 0.29
-2.23 -4.45 1.35
-4.68 0.94 1.77
2.98 -0.06 0.06
1.38 -1.25 0.57
3.84 4.13 -0.67
2.42 0.84 0.13
-0.01 0.27 0.84
1.80 2.99 -0.74
3.65 3.26 -1.10
3.88 -0.71 -0.45
-1.27 5.28 0.44
2.25 -2.41 0.34
0.65 -4.98 1.09
2.00 -4.28 0.08
0.16 3.96 -0.07
-3.45 1.60 1.81
-2.10 0.97 1.25
4.17 -0.97 -0.54
2.77 -3.45 0.45
-1.63 -3.63 1.19
-0.81 -4.34 1.46
-0.38 -4.65 0.74
-1.71 -0.71 1.20
-2.61 -2.38 1.04
-0.07 4.08 0.51
-4.16 4.20 1.75
-3.20 -2.81 1.69
3.51 3.56 -0.45
-1.63 4.49 0.41
1.29 3.13 -0.23
2.30 -1.08 -0.33
-3.38 -1.60 1.88
1.56 1.32 -0.31
5.08 -4.58 -0.29
-3.95 3.71 1.34
2.04 -3.33 0.32
2.81 -1.49 -0.16
3.00 -2.00 0.13
-1.20 3.64 0.20
-0.86 -2.15 1.41
2.90 1.71 -0.87
-1.01 2.87 0.57
3.43 3.91 -1.03
-1.05 -4.00 1.34
5.41 -3.34 -0.37
1.54 -3.98 0.09
-2.48 -4.01 2.04
-1.17 -0.00 0.88
-3.15 -1.39 0.99
-3.16 -2.30 2.10
-0.76 0.83 0.17
1.24 -0.76 0.38
2.29 -5.65 0.58
-2.82 -2.64 1.92
-2.13 0.36 1.49
5.27 2.43 -0.76
-4.73 -1.20 2.03
-4.51 -3.66 1.47
-3.68 -2.54 1.68
-2.20 1.24 1.23
-2.62 4.70 0.83
0.98 2.05 -0.03
-1.36 -3.34 0.95
1.19 3.94 0.32
4.26 3.62 -1.50
-3.17 -1.36 1.44
-1.33 3.50 0.65
-0.15 3.72 0.33
1.25 -4.70 0.37
2.76 -1.80 -0.01
-3.03 -2.84 1.30
-4.99 -4.69 2.39
3.52 4.00 -1.01
4.89 2.73 -0.66
2.24 -0.97 -0.56
-3.56 -1.16 1.06
-1.19 -2.72 0.82
1.89 0.49 0.25
4.96 -4.55 -0.83
0.69 -0.56 -0.03
-2.05 -4.80 1.06
-4.06 3.59 0.93
-2.18 2.90 1.39
-2.74 3.16 1.39
-0.66 -3.82 0.87
-0.80 -2.38 0.59
4.45 -1.65 -0.42
-2.37 1.64 0.72
-1.19 -3.84 0.94
5.24 -0.18 -0.39
1.98 3.35 0.28
0.74 -3.99 0.20
-2.01 -5.17 1.61
-2.80 -0.81 0.98
-3.37 4.37 1.32
-3.01 -2.36 1.48
-1.82 2.98 1.10
3.68 -1.67 -0.83
4.60 0.84 -0.86
-4.96 1.31 1.86
-2.10 -4.02 1.22
-2.55 0.52 1.19
-4.35 4.02 1.28
1.54 3.81 -0.30
-1.98 -3.05 1.37
-4.91 -0.03 2.42
-0.28 -3.61 0.88
-2.37 3.39 0.48
1.73 -0.49 -0.51
-3.73 4.43 1.48
-4.25 -1.80 1.58
-0.74 3.23 0.92
-4.45 -3.02 1.58
-0.17 0.35 0.42
1.57 -0.97 0.02
2.83 -2.14 0.21
4.79 4.60 -0.92
-1.70 0.68 0.85
-4.00 2.22 1.77
2.60 0.91 0.07
-2.55 -0.29 1.12
3.28 4.34 -0.61
-4.91 -4.75 2.41
1.33 -2.32 0.10
-3.42 -4.12 1.65
3.95 -2.95 -0.66
0.91 1.60 -0.20
3.10 -2.89 -0.50
-4.34 -3.58 1.75
-3.48 -1.33 1.11
-1.83 3.91 0.70
3.94 4.38 -0.62
5.70 -1.48 -1.34
-0.71 -2.51 0.86
-2.19 -2.16 1.14
2.98 0.84 0.17
-1.30 -0.30 1.30
-0.30 4.69 0.06
2.30 -4.15 0.18
0.07 0.41 0.24
-2.05 4.94 0.27
0.32 0.47 0.66
0.57 -3.59 0.84
-0.98 -3.08 1.28
-2.74 -1.39 1.47
4.74 4.41 -1.48
4.83 1.45 -1.01
1.07 2.93 0.25
-3.60 -1.84 2.20
-3.58 -0.50 1.63
0.43 0.14 0.75
2.87 1.21 -0.87
5.11 -2.51 -0.96
-2.00 5.19 0.48
-4.47 2.12 1.23
-0.17 -0.27 0.86
0.44 -3.24 0.84
-4.40 -4.96 1.88
-4.63 3.34 1.30
3.37 3.04 -0.60
3.79 -4.66 -0.21
2.40 3.19 -0.42
-0.60 -3.00 0.43
-4.65 -2.44 1.76
0.98 2.78 -0.06
-1.84 -3.74 1.66
4.05 -4.14 -0.16
1.22 0.60 0.15
3.32 0.47 -0.26
3.30 0.91 -0.20
3.77 2.67 -0.98
-0.82 -1.41 0.96
-1.69 -0.86 0.88
4.06 -3.75 -0.71
-0.89 -2.91 0.91
0.48 4.06 0.37
-1.24 -2.51 0.70
-1.17 -2.63 1.33
3.32 -0.85 -0.10
0.13 2.13 -0.11
2.02 0.49 -0.43
-2.42 -1.70 1.45
2.75 -3.43 -0.03
-3.90 -0.53 1.78
4.30 0.25 -0.46
-1.47 2.18 0.56
1.91 1.04 -0.40
-1.00 3.66 0.60
-0.18 -1.22 0.31
2.22 -4.32 0.06
-3.78 2.86 1.60
-0.81 -1.74 1.26
3.34 -0.17 -0.27
2.46 -1.60 0.49
1.43 -0.86 0.37
0.21 1.96 0.67
-2.17 3.30 1.05
-0.60 -2.30 0.72
-0.41 0.35 0.82
3.81 -4.01 -0.48
2.57 -2.72 -0.35
-0.72 1.55 0.48
0.63 -2.95 0.72
0.47 -0.40 0.21
2.63 2.21 -0.22
-2.38 4.76 0.90
-1.41 2.79 0.34
4.27 -1.59 -0.20
-2.60 2.35 0.95
-3.09 -2.62 1.84
-0.20 -1.84 0.19
1.06 3.35 -0.47
4.92 1.49 -1.19
-1.80 -0.13 1.22
-2.43 -4.91 1.40
-3.91 4.85 1.08
-2.37 -4.51 1.77
4.95 -3.92 -0.83
-4.67 -4.87 2.44
0.02 4.54 0.16
-2.64 4.78 1.06
-2.57 -3.79 1.37
5.11 3.95 -1.22
-3.84 -3.08 1.93
-1.26 1.45 0.23
-2.88 -2.15 1.76
2.22 5.28 -0.25
3.17 0.15 -0.21
1.93 -3.66 0.33
-0.55 -1.96 0.59
0.77 4.97 0.33
2.30 -3.44 0.10
4.57 5.44 -1.46
-3.27 4.31 0.81
1.14 -3.98 0.55
-1.53 2.19 0.39
1.41 -1.41 -0.01
0.41 0.85 0.39
0.33 2.79 0.03
-2.67 4.37 1.32
-1.64 3.90 0.25
3.25 -2.95 -0.28
1.00 2.74 -0.37
1.04 1.02 0.68
-1.61 0.06 0.63
2.53 -4.56 0.17
0.28 -0.82 0.28
0.57 -4.65 1.17
0.53 0.16 0.46
-4.53 2.17 1.46
-3.58 -1.47 1.74
-0.53 -0.89 1.23
3.46 4.02 -0.34
-3.85 1.78 1.44
-3.38 -5.03 1.31
-0.99 0.49 1.10
5.79 -1.62 -0.63
1.49 -3.40 0.73
4.35 -3.54 -0.22
0.07 -4.16 0.62
-4.07 -2.30 2.17
4.14 2.88 -0.70
1.21 -1.09 0.49
-1.59 -1.43 1.37
2.79 2.02 0.13
-2.58 2.42 1.08
-2.11 -3.39 1.93
3.41 0.78 -0.41
-1.16 -5.49 1.71
4.00 4.92 -0.70
-2.48 -2.85 1.65
-1.09 4.24 0.62
-3.10 4.23 1.19
-1.07 -4.48 1.19
3.30 -3.44 -0.44
-1.81 -3.14 1.12
5.05 0.99 -0.67
-1.82 0.82 0.59
-1.15 2.49 0.32
-0.83 3.51 0.32
-3.01 -4.39 1.89
-4.10 0.49 1.64
-0.59 1.27 0.80
-1.50 4.53 0.57
2.63 4.71 -0.39
-1.41 -2.84 1.15
-2.58 3.72 1.01
5.04 1.56 -0.35
-4.73 4.50 1.54
0.71 -2.05 0.37
-0.01 4.85 -0.21
3.41 2.84 -0.23
-2.23 -2.24 1.50
4.64 2.14 -0.57
1.59 1.45 -0.09
1.47 -3.38 0.55
4.88 4.39 -0.81
-2.16 1.18 0.44
-3.95 -3.59 1.72
3.67 1.62 -0.52
2.64 -2.71 0.34
-1.44 -0.52 0.40
3.70 -2.63 -0.51
-5.11 0.24 2.25
2.72 2.97 -0.15
-1.88 -1.25 0.90
-2.88 -2.01 1.20
2.10 3.41 -0.61
-3.00 -0.05 0.86
-2.17 0.37 0.87
2.23 5.10 -0.58
4.91 -2.35 -0.32
-3.33 4.04 1.40
-2.91 -3.28 1.47
-1.74 1.81 1.11
-3.47 1.31 1.58
-0.53 1.38 1.00
-1.52 -3.47 1.31
-0.46 -1.47 0.91
0.93 -0.66 0.39
-0.30 -1.67 0.35
3.76 3.57 -0.79
-0.27 -2.59 0.51
-1.66 -5.05 1.60
0.32 3.53 -0.05
-1.12 3.62 0.95
-1.03 1.04 0.26
-4.04 -0.48 1.26
-3.45 -0.74 2.00
-2.89 -3.48 1.71
-0.17 0.43 0.76
0.72 -0.51 0.17
-2.18 3.42 0.90
2.67 -3.74 0.51
-4.03 -0.65 1.92
-0.35 4.50 0.65
3.49 4.50 -0.44
3.72 4.30 -1.01
-2.71 -1.43 0.83
1.06 1.93 0.12
2.22 -0.98 0.46
-1.06 5.15 0.78
-1.27 -3.02 1.16
3.86 1.48 -0.18
-0.69 5.07 -0.04
3.19 2.75 -0.35
0.70 -3.62 0.51
-1.24 -0.64 0.95
0.82 3.63 0.06
-3.51 -3.46 1.36
0.28 1.62 0.76
-3.44 -3.90 1.68
-4.57 -1.24 2.13
-2.85 -0.33 1.31
-1.77 1.64 0.76
0.21 -3.49 0.41
-2.83 4.19 1.08
-1.48 -4.69 1.02
-1.95 3.47 1.14
1.36 5.38 0.30
-2.48 1.54 1.28
-2.24 -4.66 1.98
-1.85 4.35 0.60
2.37 -1.77 -0.14
-3.32 0.03 1.35
4.05 -3.52 -0.56
0.48 4.38 -0.35
-2.73 -3.05 0.98
1.65 -0.60 0.49
3.19 3.72 -0.62
1.30 2.30 -0.20
0.64 3.75 -0.06
2.53 -1.97 -0.60
1.31 4.58 -0.10
1.30 -0.95 0.07
-0.17 0.70 0.85
-2.78 -0.37 1.53
-0.24 -3.19 1.21
2.29 3.38 -0.40
5.41 3.16 -0.85
-3.61 2.50 1.43
-2.53 -0.01 0.78
1.37 -0.02 -0.15
1.50 -3.52 0.75
1.37 -0.22 -0.08
4.27 1.95 -1.31
0.86 -3.28 0.45
1.58 2.37 0.33
-0.57 -4.10 1.05
1.60 1.50 -0.09
-3.74 4.51 1.67
-0.97 3.11 0.89
-3.02 -1.24 1.10
0.09 4.33 0.75
4.40 -3.10 -0.21
-3.81 -0.97 1.33
3.42 3.82 -0.40
2.19 2.00 -0.62
-1.18 1.62 0.42
-3.81 -2.31 1.82
2.83 0.15 -0.61
4.38 3.07 -0.96
-0.15 0.84 0.09
2.99 0.60 -0.12
-3.84 -2.95 1.79
0.50 -1.82 0.51
-0.70 0.26 1.03
1.98 1.35 0.11
-1.06 -4.77 1.50
1.61 3.42 0.10
2.80 -4.50 -0.21
-4.90 1.71 2.01
5.66 -4.43 -0.49
5.12 -0.40 -1.15
-1.38 -4.62 1.46
1.69 -4.10 -0.06
4.51 -0.38 -0.27
3.43 3.83 -1.27
-2.35 1.24 0.80
-3.21 -4.17 1.16
0.33 -0.35 0.80
-3.24 -0.85 1.53
-1.33 3.67 0.99
-2.68 -4.22 1.54
0.50 -1.53 0.46
-1.57 -4.19 0.99
2.72 3.72 -0.78
3.36 -3.27 0.15
5.29 3.41 -1.16
-4.33 4.09 1.36
1.20 -4.06 0.01
-1.46 -0.43 0.44
-1.00 2.32 0.60
1.95 4.54 0.06
-0.23 -2.91 1.04
-2.49 -3.81 1.59
2.70 0.10 -0.04
1.54 -0.55 0.34
1.96 -1.95 0.38
-1.70 -3.53 1.85
1.33 -5.05 0.45
-2.22 1.67 1.40
-2.38 -1.99 0.94
1.69 -0.53 -0.25
-1.22 0.01 1.19
6.17 -0.35 -0.69
4.06 -0.39 -0.89
4.82 -3.78 -0.23
2.80 -0.62 -0.06
-4.05 -0.69 1.89
-3.56 -1.75 1.95
-3.61 -2.55 2.08
1.23 -3.05 0.73
3.99 -2.80 -0.27
-0.23 0.43 0.28
-3.61 -1.55 1.99
-4.42 1.95 1.87
-2.01 -0.25 1.53
1.42 -0.05 0.15
1.60 3.94 0.26
0.06 2.57 0.47
-2.84 -4.26 1.32
0.58 3.50 0.40
-2.61 -3.85 1.71
-0.01 -1.38 1.11
-2.07 -3.02 1.08
-0.28 0.68 1.01
2.41 -3.60 0.39
-1.47 -0.38 1.28
-4.67 4.12 1.64
2.00 -4.09 -0.14
4.96 2.99 -0.94
-1.91 0.55 0.89
-1.55 -2.34 0.68
3.33 4.73 -0.28
1.48 1.21 0.01
0.06 0.63 0.80
1.03 4.89 1.90
4.70 0.08 -0.05
0.60 4.91 0.99
2.30 3.42 -0.02
0.15 3.25 5.42
2.18 3.41 1.58
1.50 5.13 0.43
2.11 0.25 4.24
2.14 0.31 3.89
5.12 -0.70 -1.05
4.49 1.09 -1.00
3.91 1.62 0.55
-0.44 5.97 3.45
2.89 3.48 0.05
2.73 2.96 0.24
5.12 0.90 -0.86
5.10 -2.71 2.84
1.65 3.76 1.91
0.43 6.25 -0.03
6.99 -2.91 0.61
4.91 1.11 0.06
0.66 3.60 3.68
1.46 2.30 4.20
1.29 1.55 5.26
3.15 2.92 -0.38
2.41 1.61 3.31
3.57 -1.91 5.33
6.47 -1.38 -2.07
3.89 -0.14 2.80
0.48 4.98 1.22
4.65 1.00 -0.06
4.26 -1.02 2.32
1.34 0.79 5.24
1.33 5.14 1.25
4.27 2.72 -2.66
2.75 -0.11 2.89
1.04 0.53 6.09
6.36 -0.66 -1.89
1.63 3.16 2.20
2.05 -0.85 5.51
1.46 5.94 -0.87
0.34 3.89 3.22
2.56 0.53 3.10
2.24 1.85 2.04
3.23 -2.13 5.91
0.56 7.02 -0.40
3.75 0.26 2.04
5.72 -0.03 -2.36
2.33 -0.07 5.38
4.51 0.35 0.78
7.26 -0.92 -2.73
1.89 6.09 -1.08
5.39 -0.06 -0.57
1.98 1.71 4.05
6.60 -2.66 -0.75
4.00 3.20 -3.53
4.84 1.29 -1.52
4.09 -1.23 2.95
0.87 3.33 2.48
2.17 2.67 1.74
4.06 -0.08 0.06
2.49 1.21 2.01
5.15 -0.87 -0.48
0.55 3.65 3.54
-1.30 6.05 3.75
2.28 2.69 0.87
4.73 -0.17 0.46
4.63 -2.60 2.30
4.55 2.79 -2.54
4.26 1.12 0.43
1.81 3.37 1.77
5.61 -0.45 -0.82
6.33 -2.28 -1.73
1.44 -0.50 6.34
1.70 5.89 -0.58
2.56 -1.16 4.63
1.34 0.38 4.96
1.66 4.16 0.64
2.32 3.90 0.32
5.82 -1.89 0.90
6.13 -2.05 -0.14
2.55 4.58 -2.27
-0.21 5.80 2.34
3.69 -1.09 4.03
-0.24 3.68 4.93
5.98 -0.38 -1.71
4.07 2.50 -0.71
4.00 -1.25 2.25
1.66 1.37 3.43
3.24 2.88 0.82
4.63 2.53 -1.46
4.22 -0.06 1.86
6.32 -0.78 -1.59
3.38 0.15 1.68
6.73 -0.55 -1.70
0.36 3.93 3.68
5.70 0.98 -4.10
3.49 -0.79 4.13
2.98 -0.19 4.74
3.10 4.45 -2.59
2.84 1.24 1.71
4.27 -3.97 4.95
-0.72 3.37 4.62
1.40 2.60 3.08
4.16 -1.28 2.10
4.75 -3.80 3.81
3.22 2.72 -1.68
1.05 5.25 -0.09
3.58 0.39 1.45
-0.37 4.39 4.66
3.12 3.94 -1.37
2.44 0.14 2.72
1.23 0.79 6.98
3.23 2.35 0.29
3.64 -0.75 3.59
5.10 -1.08 0.64
2.68 4.51 -1.03
2.26 2.82 0.88
1.96 -0.69 5.51
3.36 1.86 1.34
3.86 4.58 -3.52
-0.69 3.24 5.25
4.13 -0.80 1.80
3.44 1.31 -0.01
3.81 1.79 -0.95
2.83 -2.30 5.08
2.89 3.57 -0.35
5.27 -1.02 0.77
3.42 -0.33 4.10
0.82 6.05 -0.18
1.08 6.85 -1.15
5.33 -0.26 0.09
0.97 3.41 4.16
0.56 1.40 5.57
2.33 1.41 3.18
0.04 7.28 -0.39
5.23 1.83 -3.10
1.53 3.19 2.90
3.07 1.04 2.41
3.63 1.96 0.19
1.64 4.68 0.35
1.34 1.71 4.47
0.22 1.58 6.03
3.25 2.89 -0.89
2.18 0.77 5.13
1.75 2.82 1.10
1.80 2.50 3.14
2.35 1.70 1.98
5.23 -1.24 0.37
3.43 -1.17 3.78
2.91 4.91 -2.83
1.69 5.42 0.03
0.63 6.19 -0.18
0.74 3.43 3.19
4.30 1.75 -1.19
5.10 -3.20 2.79
5.23 -1.23 1.06
2.32 6.11 -3.32
2.52 1.46 1.94
4.46 1.45 -1.98
1.99 1.42 2.83
5.05 -1.19 0.39
2.81 3.89 -0.44
6.06 0.51 -2.00
3.30 1.61 0.00
1.69 3.75 0.53
6.17 -2.25 1.18
3.67 -1.31 3.82
2.37 4.41 -0.26
2.21 4.31 -0.44
2.89 1.03 2.13
2.30 1.52 3.48
1.05 4.15 1.48
2.98 0.54 3.30
0.72 2.90 3.64
-0.23 5.86 2.93
5.34 -2.10 2.28
0.42 2.68 4.77
4.52 -2.09 1.73
2.33 1.52 2.60
1.44 2.18 4.54
1.94 -1.83 6.78
4.39 1.44 -1.20
3.24 5.15 -2.32
2.16 0.61 3.11
2.27 -0.54 4.06
2.54 3.01 0.27
3.42 4.12 -1.15
0.79 1.63 7.01
-0.98 6.31 2.63
4.61 0.88 -0.59
1.07 7.55 -2.04
0.33 3.96 4.00
2.91 3.45 -0.38
-0.80 4.20 4.97
2.00 2.48 2.23
2.43 1.81 2.00
4.24 3.66 -4.06
1.14 1.64 5.41
2.90 2.21 0.33
3.42 2.17 -0.05
6.32 -1.40 -0.01
3.29 5.17 -2.41
3.72 2.90 -1.71
4.56 -1.69 3.34
4.45 -3.95 4.76
6.97 -2.63 -1.12
4.81 0.12 -0.30
-0.06 3.39 4.19
2.01 4.71 -0.99
0.98 1.44 5.72
0.39 4.47 3.62
1.76 3.66 1.68
5.56 -1.45 0.88
1.71 5.51 -1.25
2.25 0.58 2.97
0.85 6.04 -0.48
6.05 -3.58 1.14
1.72 2.33 1.82
4.05 2.27 -1.93
2.32 6.53 -2.63
2.99 0.40 2.11
4.92 -2.73 2.86
1.20 0.35 6.42
4.37 -0.31 1.69
0.39 0.34 6.91
4.26 -2.05 3.52
3.36 1.50 0.48
1.03 6.58 -0.91
6.07 -1.54 0.33
3.92 -0.00 0.74
2.29 5.82 -2.69
4.77 1.56 -0.14
1.69 2.61 3.88
4.67 1.63 -1.87
-0.06 4.70 4.06
5.47 2.11 -3.44
1.72 0.61 4.25
-0.96 4.38 6.17
5.07 -1.57 0.09
4.04 -0.58 1.49
-0.39 3.79 5.64
1.02 3.43 3.39
1.33 1.58 4.51
1.41 2.61 2.57
1.94 0.50 4.51
3.18 -0.42 3.48
4.02 3.88 -4.64
3.39 4.21 -1.34
4.84 2.17 -3.40
3.19 -0.83 3.49
3.01 5.36 -4.01
1.42 3.46 1.32
3.22 2.46 -0.62
0.48 7.08 -0.13
-0.05 3.01 4.39
1.95 5.92 -2.02
5.13 0.41 -1.67
3.71 -2.31 4.00
0.20 2.15 4.93
3.30 1.20 1.79
3.02 -0.02 2.77
-1.20 4.40 5.08
3.86 -1.89 3.61
4.58 -0.55 1.71
1.34 2.91 2.98
3.94 -0.54 1.58
4.05 1.43 -0.23
6.49 -1.68 -2.19
0.24 3.13 3.62
1.43 6.37 -0.32
2.63 1.84 2.21
4.68 -2.18 2.96
4.54 -1.92 2.59
6.18 -0.44 -1.54
0.83 3.80 2.56
4.46 2.56 -2.20
0.40 2.61 5.12
1.81 5.74 -1.59
5.03 1.18 -1.46
4.29 -1.13 2.37
-0.37 5.42 3.43
4.68 0.43 0.74
-0.70 6.07 1.98
3.92 -1.90 3.66
2.85 2.97 0.33
3.03 1.03 1.71
3.42 1.06 1.74
3.98 -0.98 2.70
4.80 -2.41 2.10
-1.28 5.60 4.64
2.20 4.02 0.09
2.39 6.43 -3.41
0.94 4.11 1.66
1.88 3.27 1.55
2.32 6.70 -3.28
0.84 2.96 2.30
-0.41 5.68 2.81
4.13 2.66 -1.46
3.69 -1.18 2.47
0.31 3.41 2.80
1.68 6.80 -1.60
4.29 -1.50 2.36
2.06 3.53 0.99
2.14 2.70 1.61
3.04 1.99 1.31
6.37 -3.42 0.34
3.22 -0.40 3.93
4.17 3.42 -3.58
2.56 -0.20 3.35
3.40 4.36 -2.37
3.52 4.78 -3.44
2.63 3.35 -0.79
2.56 5.50 -1.52
2.82 3.20 -0.81
3.76 -0.59 2.20
2.38 -2.11 6.41
3.39 0.07 2.37
4.47 4.16 -3.12
2.66 1.53 2.52
5.86 -1.13 -0.96
3.61 3.03 -1.00
2.04 3.39 0.12
2.54 1.59 2.99
4.49 -1.19 2.98
3.89 -2.76 4.95
5.54 -0.60 0.11
6.29 -1.29 -0.64
3.33 2.62 -0.50
-0.22 8.41 -1.36
1.98 4.93 -0.10
1.68 3.96 0.81
1.26 1.81 4.36
4.84 1.16 -1.65
2.15 1.04 3.48
1.99 4.20 -0.66
2.97 0.30 2.51
1.18 3.92 2.43
5.49 -1.69 0.88
6.23 -0.01 -1.52
-0.78 4.23 4.76
3.82 0.16 2.12
0.71 4.79 1.54
0.61 3.64 4.95
2.44 0.68 3.62
2.70 4.06 -1.21
2.26 -0.35 5.05
5.71 0.85 -2.02
2.33 1.52 1.69
1.80 -1.16 6.53
2.69 2.69 1.63
5.53 0.07 -1.74
1.84 1.93 2.49
0.25 5.30 1.25
1.16 2.35 4.17
2.04 2.48 1.81
-2.22 5.72 5.60
0.34 6.22 0.99
2.01 2.37 2.56
2.56 3.88 -0.95
2.78 0.71 2.78
0.25 3.45 3.78
1.82 2.98 1.21
2.13 -0.46 5.64
1.95 4.23 -0.68
3.53 2.59 -1.52
3.06 2.47 0.27
3.34 0.98 1.67
4.18 2.97 -2.36
5.15 -0.30 -1.38
4.06 1.87 -1.37
4.54 0.29 1.03
2.86 -0.49 4.57
4.38 -0.20 2.39
1.04 4.45 1.33
0.81 5.78 -0.07
5.19 -3.70 2.46
-0.05 5.65 1.76
1.97 1.68 3.39
3.93 0.22 1.49
5.73 1.13 -3.31
2.31 5.09 -2.36
2.12 3.09 1.27
3.21 -0.36 3.81
4.94 0.76 0.21
5.53 0.76 -0.98
3.43 -3.34 6.09
5.91 0.23 -2.19
5.46 0.65 -2.59
1.59 1.35 3.66
4.09 0.68 0.11
2.85 1.36 2.30
4.05 -0.89 2.67
0.78 6.80 -1.13
3.12 1.30 1.28
-0.03 3.85 3.14
0.84 0.56 6.23
3.50 -0.06 2.16
6.92 -1.60 -3.13
2.06 6.19 -1.49
2.42 2.75 1.54
2.52 3.16 -0.65
6.99 -1.32 -2.00
2.38 3.03 1.08
0.62 5.64 1.41
0.86 2.50 5.60
2.90 4.07 -0.94
0.39 6.35 -0.19
1.53 2.92 2.01
6.64 -0.16 -2.27
7.90 -2.26 -2.73
2.79 3.97 -1.50
6.30 0.11 -2.82
0.91 4.31 1.46
3.15 -0.62 3.20
3.99 0.72 -0.36
0.56 2.69 3.84
4.03 0.49 1.31
2.85 -0.26 3.32
4.82 3.10 -3.21
1.64 5.88 -1.50
-0.17 7.12 0.12
3.57 5.43 -3.36
2.27 2.72 2.06
3.01 3.79 -1.79
-0.76 6.83 1.54
4.32 -0.71 1.96
3.48 0.89 1.11
5.58 -1.70 0.73
4.49 2.08 -2.53
-1.10 3.86 4.98
4.90 -2.85 3.25
4.91 -1.73 2.24
6.35 0.94 -2.52
0.74 6.37 0.71
-0.53 5.42 2.56
3.75 2.03 -0.21
-0.97 6.03 3.81
1.51 1.98 3.56
1.80 -0.05 4.55
6.37 -1.64 -0.49
2.01 2.17 2.04
2.93 0.07 2.69
4.23 4.97 -4.77
2.69 3.45 -0.15
3.07 0.24 2.85
-0.70 4.57 4.95
2.08 1.29 3.39
1.96 1.55 1.84
1.17 7.20 -1.68
2.18 2.54 1.31
1.89 -0.80 6.27
3.63 -0.97 3.65
2.98 -0.91 4.33
4.05 4.67 -3.59
4.53 -2.65 2.88
6.46 -1.37 -2.09
6.12 -1.52 -0.93
3.55 0.42 1.99
3.55 3.52 -1.68
1.85 3.12 0.95
2.29 3.09 1.18
5.37 -4.98 5.15
6.02 -2.45 0.91
0.21 1.53 6.22
0.79 4.10 1.63
-0.68 3.46 5.66
3.28 3.63 -0.84
-1.63 5.96 3.61
3.79 2.08 -1.32
5.02 2.03 -2.86
4.20 3.34 -3.02
-0.93 4.95 4.45
0.96 4.33 2.41
4.69 -1.07 1.85
2.29 -0.23 4.90
1.89 1.30 3.69
4.50 2.36 -2.01
1.54 4.03 1.00
4.65 -0.23 0.43
1.01 2.66 3.51
3.46 -1.01 2.69
1.36 4.15 1.61
5.50 -3.45 2.77
2.96 1.13 2.45
3.69 4.92 -3.09
0.92 4.56 3.01
1.69 1.92 3.92
2.86 -0.68 5.32
-1.32 6.14 4.20
-0.98 5.03 5.49
3.76 1.99 -0.35
2.40 0.53 2.97
5.45 -2.45 0.98
2.69 1.75 2.02
2.92 3.48 -1.32
4.31 2.43 -0.88
6.34 -0.24 -2.68
1.09 7.10 -0.90
3.76 -0.68 2.80
2.77 3.99 -0.48
4.00 -2.01 4.43
5.21 1.24 -1.82
0.93 4.47 0.52
2.75 1.94 0.72
5.07 2.53 -2.93
-0.15 5.28 2.39
2.32 4.64 -0.95
-1.75 6.61 2.63
1.70 4.49 0.26
5.54 -1.00 -0.72
2.77 -0.85 3.33
4.74 3.23 -3.76
6.60 -2.26 0.75
2.53 -1.82 5.65
2.88 2.89 -0.54
-0.94 3.04 5.89
3.23 1.32 0.38
3.70 4.37 -2.47
0.43 2.36 4.37
0.42 4.94 2.11
1.25 5.79 1.07
2.84 5.12 -2.79
3.46 -2.49 5.71
4.65 -0.75 0.84
2.24 2.40 1.14
5.22 -1.18 -0.04
3.39 1.96 -0.62
5.89 -0.07 -2.03
3.70 2.13 0.64
1.75 4.55 0.14
1.15 6.81 -1.15
3.62 -2.16 5.40
3.55 -0.50 2.20
5.46 1.28 -1.49
3.58 -1.72 4.45
4.56 -0.04 1.58
4.99 0.81 -2.20
0.92 4.77 0.31
1.61 3.86 1.18
2.16 3.07 1.08
1.84 1.52 2.41
2.54 0.76 2.91
3.91 3.23 -2.62
4.64 -1.02 2.43
3.94 3.89 -2.40
3.58 -1.56 4.74
5.84 -4.23 2.59
7.20 -1.74 -1.63
-0.42 3.65 4.31
4.31 0.40 0.00
2.30 -1.27 4.90
3.61 -0.26 3.00
2.81 0.40 3.79
1.08 1.96 3.84
2.38 0.75 2.50
3.74 -1.05 3.21
2.11 0.07 3.29
5.47 -1.50 0.02
1.18 3.20 3.02
0.45 6.63 0.23
3.50 0.00 2.37
4.72 -1.82 2.84
3.11 1.80 -0.32
3.46 -0.82 4.03
2.80 5.15 -2.35
-1.52 5.28 6.22
2.85 2.30 0.77
4.60 2.20 -2.11
2.48 3.14 0.12
0.69 3.54 3.30
3.44 0.61 2.55
4.38 -2.29 3.07
1.63 1.71 3.45
1.66 6.63 -1.64
3.74 1.25 1.06
0.39 3.07 3.23
3.70 2.75 -0.32
6.42 -3.34 0.71
-1.49 4.26 5.45
-0.47 3.55 4.83
-0.59 4.59 3.83
3.48 4.65 -2.53
2.26 0.93 3.23
2.44 5.80 -1.81
-0.15 6.19 1.89
1.72 0.96 3.55
3.53 -0.26 2.84
-1.37 3.42 6.33
6.34 -0.51 -1.28
5.21 1.77 -3.98
4.33 1.54 -0.06
1.94 0.49 4.08
1.18 4.84 0.62
4.81 -2.14 2.67
5.67 -1.71 -0.56
2.46 4.69 0.29
1.64 0.64 5.11
-0.73 4.54 5.18
1.30 1.70 3.63
5.05 -1.00 1.14
2.98 4.08 -1.21
0.03 3.68 3.69
2.94 2.77 0.47
1.34 3.90 2.38
0.61 1.76 5.37
1.87 0.86 3.19
1.00 1.98 5.16
1.57 4.49 0.34
4.06 -1.35 3.96
2.92 1.45 2.42
4.30 0.04 1.13
6.16 -1.15 -0.50
-0.15 5.67 1.88
0.59 3.04 3.59
2.36 1.93 2.04
6.31 -2.71 0.13
0.09 4.33 3.00
6.82 -1.07 -1.96
-0.62 5.22 2.45
1.25 3.49 2.09
3.57 2.24 -0.06
4.51 0.76 0.94
2.03 1.78 4.07
-1.03 4.54 3.74
5.91 -1.48 -0.29
2.41 3.48 -1.00
5.06 2.33 -2.18
-0.69 5.83 3.16
5.09 0.06 -0.72
7.03 -3.52 0.06
-0.08 6.43 2.38
2.50 4.43 -0.32
4.41 -2.10 3.87
5.27 -0.48 -0.86
4.80 1.22 -1.56
-0.07 4.17 4.83
0.98 5.00 1.62
4.42 -1.27 2.78
3.42 5.07 -3.44
2.17 6.11 -1.16
4.26 -0.09 1.59
4.24 3.42 -3.22
4.42 2.13 -1.08
2.19 3.31 0.36
2.10 3.68 1.71
1.67 5.76 -1.42
6.00 -3.26 1.81
3.52 -0.02 2.36
1.47 2.80 3.06
4.30 1.13 -1.72
2.68 1.09 2.35
5.87 -2.74 1.48
2.95 -1.49 6.36
2.03 1.01 3.62
2.26 0.33 4.45
3.21 1.90 0.57
3.86 -0.21 2.42
2.32 1.55 2.08
1.43 5.22 -0.91
3.16 0.37 0.99
3.35 0.87 1.53
4.98 -2.53 1.60
0.55 1.25 6.51
1.22 4.07 2.37
1.97 2.88 2.38
3.40 4.49 -2.82
3.10 5.09 -3.39
0.39 1.98 5.50
0.18 4.27 3.40
0.23 2.56 4.04
0.66 2.82 3.95
4.16 2.95 -1.91
1.77 2.88 2.53
2.90 2.93 1.06
0.03 5.71 0.92
3.01 0.44 2.77
0.73 5.79 0.57
1.57 4.17 1.27
2.00 4.91 -1.40
3.21 2.32 0.90
4.23 2.95 -3.13
5.38 -0.33 -0.75
3.96 1.39 0.00
4.48 2.00 -2.53
4.16 1.41 0.17
4.50 0.38 0.21
3.26 3.82 -1.40
1.33 2.16 3.03
5.05 -1.21 1.64
-1.36 4.44 4.51
1.51 -0.18 6.28
4.38 -1.35 1.35
1.80 3.91 -0.05
3.48 3.88 -2.72
3.42 3.55 -1.88
1.78 1.55 3.95
5.26 2.08 -2.89
2.24 3.99 -1.14
3.27 1.94 0.50
2.39 1.83 2.15
3.49 4.51 -3.79
2.24 2.41 0.82
0.97 4.25 1.12
3.14 -1.96 5.01
6.62 -1.71 -1.33
3.21 -1.59 3.87
2.40 -0.03 4.84
0.07 2.18 5.88
2.10 -0.45 5.07
1.36 6.58 -0.69
2.38 5.06 -0.98
2.34 4.86 -1.06
4.22 -0.55 1.45
3.39 0.43 2.76
4.84 -0.45 0.77
2.40 4.82 -0.89
0.18 4.72 3.17
4.60 3.48 -3.46
4.40 0.02 1.93
2.01 1.90 3.95
1.51 -0.51 6.94
4.67 1.21 -2.32
3.17 0.52 3.24
2.68 4.37 0.07
2.94 5.62 -2.86
2.78 -2.15 5.62
1.85 1.52 2.99
6.64 -1.22 -1.19
3.15 2.24 0.49
2.34 2.16 2.29
1.36 5.76 -0.38
2.67 2.85 0.77
1.95 2.17 2.52
5.90 1.85 -2.74
5.76 -0.41 -0.57
4.40 -2.40 4.29
0.96 4.77 1.21
5.30 -0.85 -0.35
1.61 1.62 3.27
3.30 2.39 0.10
4.61 0.43 -0.26
2.78 4.39 -2.08
2.11 -0.25 5.10
1.94 1.22 4.80
3.26 -1.08 4.31
4.51 0.77 1.15
0.43 4.27 3.67
0.15 2.98 4.29
4.36 1.37 0.17
2.37 3.05 1.32
4.04 -2.52 3.63
4.93 3.28 -4.35
7.22 -0.96 -2.34
0.90 4.94 0.85
1.76 0.28 4.90
2.27 0.13 4.96
0.98 0.78 5.58
5.05 -0.64 -0.03
1.27 6.89 -2.62
5.08 0.35 -0.38
2.45 2.07 0.72
0.01 3.11 4.79
1.53 1.89 5.00
4.02 2.04 0.15
4.42 -0.46 0.85
2.38 4.64 0.37
3.55 2.46 0.24
2.36 5.12 -1.21
0.93 1.43 4.62
0.05 5.19 2.03
0.78 3.78 1.22
2.87 4.76 -2.29
2.71 0.13 3.48
-1.42 5.86 4.51
4.17 -3.56 5.48
5.68 -3.33 1.18
-0.55 7.54 1.00
0.86 2.50 4.35
3.14 -1.61 4.62
5.25 0.17 -0.22
6.13 -0.54 -0.06
1.85 1.94 2.26
0.07 1.74 6.39
3.57 2.54 -0.70
1.49 6.53 -1.16
1.83 0.64 3.94
3.97 -2.35 3.44
1.18 5.08 0.75
4.58 1.05 -0.07
1.03 1.68 3.66
0.20 3.41 3.70
1.61 1.39 3.28
1.86 2.57 2.49
0.11 5.17 2.23
1.98 1.07 3.32
-0.91 5.92 4.23
4.20 -0.55 1.60
2.90 -0.95 4.73
0.56 1.27 6.20
2.04 2.89 2.25
0.36 5.26 1.60
0.54 4.34 3.46
3.57 -0.58 1.84
2.27 1.86 0.91
2.82 4.76 -2.19
3.12 1.26 2.78
6.36 -2.20 0.14
-0.12 4.92 2.10
5.85 -2.08 0.66
-0.28 2.84 5.39
0.63 2.66 5.12
5.55 1.47 -2.80
6.19 0.92 -3.62
2.65 3.38 -0.34
1.69 3.49 0.45
2.67 4.79 -1.40
4.20 -0.52 1.26
2.32 0.23 5.63
0.91 4.65 0.99
6.37 -1.33 -1.57
3.48 3.57 -2.00
1.89 -1.07 6.45
1.61 1.76 3.49
1.84 1.39 3.34
1.01 7.75 -2.03
-0.40 0.96 7.04
2.69 4.20 -2.32
5.34 1.01 -2.30
3.53 0.37 2.55
3.46 0.93 -0.17
2.48 0.73 3.43
5.72 1.12 -1.67
0.54 7.39 -1.25
5.03 -2.53 2.00
2.60 1.41 2.76
-2.04 6.16 4.61
4.34 -0.95 1.24
-0.49 7.39 1.95
0.31 7.01 0.32
3.39 3.48 -0.50
-0.11 2.09 5.55
2.39 -0.22 4.55
0.21 4.94 2.23
3.30 -1.88 4.79
-1.59 4.57 6.33
3.40 1.19 2.19
3.63 1.80 -0.65
3.53 2.39 -0.36
1.54 4.65 0.66
-0.02 8.16 -1.32
6.79 -0.89 -2.03
0.32 6.19 1.76
2.30 0.69 4.25
4.14 1.41 -0.61
6.31 -2.52 -0.60
4.42 2.25 -2.76
1.73 4.19 1.02
3.01 3.24 -1.21
5.68 -0.28 -1.66
7.22 -1.08 -1.71
3.80 2.60 -0.20
1.72 -0.17 5.75
0.58 4.19 3.80
2.35 3.94 -0.89
2.71 2.54 0.19
4.38 -2.92 2.72
4.63 1.89 -1.12
3.48 5.18 -3.96
4.46 2.00 -1.54
0.99 1.33 3.72
2.55 4.01 -0.77
4.00 -2.30 4.11
3.33 -1.82 3.97
-1.40 4.38 4.60
4.66 0.15 1.14
1.40 5.52 0.64
4.25 -1.63 3.28
1.77 2.40 2.71
5.65 0.05 -1.35
-0.13 5.43 2.09
-0.86 6.79 2.65
5.18 1.19 -2.52
2.54 4.74 -1.49
0.68 5.63 2.23
4.25 0.88 -0.98
0.01 3.65 4.68
2.96 1.58 1.21
5.39 0.35 -1.50
3.48 0.13 2.55
1.32 2.75 3.24
1.60 4.32 1.59
4.32 1.92 -0.86
4.33 -2.57 4.54
1.44 1.10 3.68
2.01 3.16 1.59
2.18 2.40 0.61
2.72 -0.68 3.99
0.72 4.19 1.48
6.37 -1.01 -1.58
5.14 0.54 -1.60
1.85 -0.94 5.91
2.00 -1.36 5.58
3.53 3.54 -1.18
6.93 -1.16 -1.54
5.34 -0.05 -0.57
0.25 3.80 3.46
0.02 3.70 4.21
-0.18 5.00 2.29
2.50 1.19 2.77
5.17 0.29 -0.61
3.69 3.80 -3.01
2.42 4.66 -1.19
3.75 1.82 -1.51
2.70 4.42 -1.34
2.13 -0.18 4.32
4.21 -0.39 2.27
3.89 2.60 -0.83
3.26 2.82 -1.79
6.46 -3.57 0.69
5.50 -2.84 2.15
-2.45 5.99 5.49
5.72 -0.79 -0.49
-0.85 7.12 3.26
0.16 3.21 4.17
4.46 -3.44 4.42
3.51 2.18 -0.13
3.46 1.56 0.60
5.36 0.02 -0.56
2.35 3.97 -1.48
2.35 -0.25 4.31
4.06 -0.20 1.37
1.31 -1.30 7.58
4.14 2.08 -2.48
1.25 2.90 3.33
3.45 -1.37 5.07
0.71 4.73 1.17
5.19 0.61 -0.77
3.06 2.85 -1.05
4.67 -1.86 2.43
1.50 3.72 0.92
3.59 0.64 1.25
2.95 0.77 2.57
2.42 2.96 0.46
3.60 0.84 0.49
2.52 2.37 1.15
3.44 2.40 0.01
2.49 5.31 -2.41
4.18 -3.77 6.36
0.99 4.27 2.23
2.66 4.84 -1.66
2.45 3.93 -0.38
1.40 1.00 4.78
5.44 -0.36 -1.46
4.74 0.83 0.13
2.09 -0.69 6.66
2.87 -0.05 4.13
0.94 5.11 1.29
3.09 -0.37 3.07
4.34 -0.59 2.10
3.50 5.07 -3.74
0.32 6.66 0.37
4.93 0.66 -0.83
-0.31 5.11 2.97
3.05 -0.45 3.02
5.68 -0.96 0.98
4.06 1.97 -0.78
1.77 4.84 -0.19
0.43 5.66 2.12
6.93 -2.25 -1.16
3.65 -1.48 2.95
1.19 2.12 3.04
-0.43 2.92 6.21
3.97 -0.38 2.43
1.79 4.19 0.32
5.98 -0.48 -1.18
4.29 -1.23 3.15
1.08 3.84 1.85
2.87 3.26 -0.79
3.76 -0.25 1.50
4.31 2.29 -2.30
1.02 1.92 4.69
5.99 -2.82 0.82
2.10 1.92 3.96
1.43 0.69 5.81
0.58 0.65 6.97
2.34 -0.22 3.94
4.45 0.87 -1.76
1.93 5.15 -1.12
0.72 3.04 3.41
4.52 0.98 -1.52
3.75 2.37 -1.09
-0.28 3.07 5.61
1.86 2.56 2.38
1.98 1.37 4.07
0.63 5.67 1.13
0.46 2.19 4.43
4.37 0.47 -0.55
2.63 2.85 0.04
6.09 -1.01 -2.11
