ply
format ascii 1.0
comment Made by Nomoko
element vertex 3000
property float x
property float y
property float z
end_header
1.71 0.80 1.58
2.66 0.84 0.46
7.07 1.99 -1.77
4.73 4.16 1.39
4.22 5.03 1.36
3.11 -2.03 -1.22
-1.15 0.91 3.84
-0.06 -1.05 1.95
0.51 0.27 2.73
2.37 -1.04 0.09
0.26 -2.66 0.44
-0.08 0.06 2.49
2.99 -0.17 -0.31
0.00 2.75 4.52
1.75 0.05 0.05
0.78 0.67 2.67
-2.80 -1.82 4.00
3.67 -2.62 -2.80
-0.10 -0.52 2.83
2.19 3.05 3.00
1.19 -1.16 0.71
1.32 3.06 3.37
4.30 3.62 1.35
3.09 1.23 0.71
-2.35 -5.81 1.10
-0.19 3.51 5.19
3.40 0.20 -0.48
-0.02 -1.23 1.86
4.51 2.14 0.28
-2.61 -4.31 2.74
1.69 -4.74 -1.20
1.30 -0.68 1.29
2.01 1.91 2.09
-2.40 -2.51 3.52
0.51 2.33 3.09
5.13 -0.78 -2.63
-2.87 -2.49 2.94
1.36 -3.36 -0.04
1.54 1.26 1.90
1.22 1.25 2.52
1.65 4.85 3.31
1.20 0.34 1.31
3.69 -0.13 -1.01
6.59 2.45 -1.62
-3.05 -1.08 4.24
0.59 -3.80 0.19
0.56 -3.49 0.55
-2.91 -0.73 5.01
4.57 -4.41 -4.43
-0.74 2.72 4.25
-3.24 -4.58 2.42
-0.96 -3.32 1.22
-1.57 1.60 5.11
-0.11 2.52 4.03
2.72 2.70 2.00
-0.04 -4.06 0.58
2.41 2.61 1.58
-0.34 1.43 3.50
-3.28 -3.92 3.66
-0.51 3.00 4.75
-1.27 2.93 5.22
-1.44 -6.20 0.51
3.86 2.56 0.21
-0.59 -1.78 1.84
-1.00 -0.45 3.47
1.11 0.03 1.65
1.48 -2.35 -0.25
3.43 3.66 2.13
-2.87 -2.45 3.00
-2.40 -3.48 2.68
3.12 0.40 0.49
1.62 -2.11 0.14
1.42 -1.18 1.58
-2.51 -4.92 2.00
-0.12 -3.08 1.21
2.87 1.31 0.42
0.87 -1.47 0.66
5.75 2.14 -1.21
0.07 -5.41 -0.94
1.88 -0.10 1.04
5.22 1.07 -0.94
0.71 -0.88 1.27
-2.82 0.34 5.61
1.54 -1.27 0.15
-1.29 2.39 4.68
1.09 -1.28 0.20
-1.16 1.93 4.40
0.04 -2.69 0.56
-0.64 0.40 2.64
-0.59 -2.53 1.38
1.71 -2.54 -0.49
3.87 1.03 -0.93
3.25 5.87 2.69
3.23 1.76 1.40
0.31 -3.59 -0.23
0.54 4.11 4.02
2.64 1.70 0.99
0.87 1.19 2.19
0.80 -5.45 -2.18
0.79 2.15 2.82
1.38 0.42 2.22
1.00 3.24 4.03
-0.31 -5.85 -0.14
1.30 1.86 2.47
4.62 1.01 -1.18
-0.94 -2.76 1.83
2.62 -1.27 -0.72
2.96 2.99 1.44
-1.63 -5.09 1.68
-0.12 -0.93 1.35
2.56 0.35 0.87
-0.38 -5.15 -0.08
0.79 2.45 2.93
-1.07 -0.30 3.63
-2.49 -4.32 1.68
1.30 0.56 0.71
-0.90 -1.86 2.29
2.14 2.98 2.23
2.43 3.46 2.20
-2.18 1.36 4.58
0.37 1.90 3.27
-0.86 0.20 3.01
-0.73 -0.40 2.47
4.46 -2.39 -3.04
0.26 3.22 4.20
0.52 -0.93 0.86
3.71 -0.39 -1.51
-3.20 -2.58 3.09
0.17 -0.47 1.36
3.24 0.06 0.05
-1.21 1.99 4.54
1.53 -6.42 -2.60
4.19 -1.24 -1.50
-0.21 -3.36 0.91
3.48 5.45 2.63
0.60 0.56 2.20
3.48 2.48 1.08
3.53 2.29 0.49
2.41 1.47 0.93
-0.15 2.75 4.02
-1.05 -1.99 1.97
0.49 -2.93 1.06
-0.33 -4.85 0.17
-0.75 -3.03 2.12
-0.92 -1.89 2.82
-2.61 -4.80 1.81
-1.03 3.71 5.32
1.43 -0.29 1.15
1.76 -0.39 1.08
0.21 2.86 4.71
3.72 2.14 0.32
0.29 -1.73 1.20
-2.28 -2.90 2.38
3.45 -3.17 -2.13
-2.35 -4.42 1.93
2.81 1.67 0.79
-1.70 -4.56 1.08
4.67 -3.55 -4.20
1.11 -5.92 -1.38
-1.75 -2.13 3.24
-3.35 -3.75 3.03
1.34 -0.83 0.31
5.42 1.06 -0.84
1.30 -4.82 -1.54
-3.04 0.15 5.67
1.62 -2.28 -0.01
3.93 1.67 0.51
-2.20 -4.97 1.59
-1.94 0.56 4.16
1.28 0.14 1.10
2.16 2.03 1.14
4.82 1.50 -0.70
1.78 -3.78 -1.13
1.75 0.50 1.27
-0.29 0.06 2.68
-0.19 -5.10 0.41
3.23 -2.55 -1.83
1.10 -5.58 -1.77
0.47 -1.42 0.92
-1.11 -0.49 3.12
-2.70 -0.86 4.04
1.24 -3.34 -0.46
0.04 1.85 3.90
3.96 4.12 1.00
1.08 -2.73 -0.20
-3.81 -2.93 3.23
2.65 0.04 0.97
-2.44 -1.75 4.45
-3.05 -1.65 4.21
-1.75 -2.87 2.63
-0.36 -1.52 2.05
0.41 -2.08 0.94
0.74 0.83 3.06
0.79 4.51 4.35
-2.67 -3.20 2.69
1.92 0.45 0.45
3.13 3.29 1.57
2.70 -2.10 -0.79
-1.98 -3.35 2.67
0.69 2.01 2.73
0.15 0.74 2.90
1.15 0.57 2.49
-3.11 -0.47 5.16
1.98 -1.00 0.49
2.67 2.31 1.43
-0.73 -1.94 1.75
3.23 2.43 1.32
-0.60 -5.77 -0.10
2.19 1.83 1.68
0.72 -5.04 -0.90
1.78 2.05 2.09
0.32 -1.45 0.84
1.12 0.03 1.01
-1.37 -2.81 1.85
3.39 2.59 1.39
6.44 1.15 -2.32
-3.74 -2.96 5.16
3.59 0.32 0.21
0.78 0.16 1.61
3.14 1.92 0.70
1.75 1.82 2.65
0.58 0.02 1.71
2.05 -2.30 -0.81
4.19 1.16 0.33
0.52 -3.41 0.71
2.54 2.80 1.55
2.12 -0.09 0.40
-2.21 1.31 5.59
4.12 5.56 2.01
0.42 -1.20 1.74
4.85 0.25 -1.03
5.20 1.67 -0.73
0.32 -5.52 -1.09
2.21 -3.33 -1.36
1.23 0.25 1.77
-0.47 3.87 4.94
-0.54 -1.18 1.97
-0.67 0.56 2.82
0.69 -5.15 -1.10
2.37 -0.50 0.51
0.59 -2.45 0.42
5.70 3.11 -0.35
4.05 -3.00 -2.32
2.18 -2.13 -0.68
5.18 3.68 -0.26
5.66 1.78 -1.85
2.37 -2.63 -1.60
5.35 4.29 0.24
3.94 1.92 0.21
-1.46 2.07 4.74
2.77 4.17 1.75
-2.67 -0.77 4.77
-1.44 1.07 4.60
-1.16 -2.63 2.15
-1.43 -1.08 2.73
4.74 -1.51 -1.61
0.14 -0.07 2.55
-1.56 -2.96 2.54
1.70 4.05 3.43
3.63 3.37 1.58
3.76 -0.99 -0.75
1.08 1.48 1.91
-1.03 1.36 3.45
2.46 -0.96 -0.01
-1.17 0.69 3.90
-2.87 -3.60 3.42
4.12 -2.51 -3.18
-0.61 -1.50 1.84
-1.15 3.26 4.80
4.72 3.66 0.27
-0.50 -3.44 1.30
3.50 -1.81 -1.11
-1.69 0.57 3.88
1.91 -4.17 -1.42
0.40 -0.53 1.56
-1.54 -3.96 2.06
-2.54 1.93 6.05
0.44 -5.26 -1.07
1.00 0.81 2.06
2.84 -1.90 -1.28
3.88 2.34 0.89
2.52 -2.11 -0.67
0.22 -1.50 1.90
1.06 -5.96 -2.01
-0.58 -1.71 1.57
3.21 -1.75 -1.83
1.96 1.14 1.59
1.25 4.56 4.10
5.05 0.23 -1.70
-2.93 1.70 6.18
-0.76 -5.94 -0.19
4.79 -0.78 -2.58
0.66 1.27 2.02
-1.31 -6.16 -0.31
3.55 3.74 1.62
3.87 1.94 -0.32
2.47 4.58 2.86
1.99 3.65 3.24
-1.06 -2.63 1.66
0.50 -2.19 1.19
-1.62 -0.90 3.33
5.31 2.86 -0.49
5.17 0.98 -2.06
0.13 -3.88 0.04
3.35 -2.19 -2.13
0.98 -3.16 -0.08
4.16 3.85 0.72
2.46 -1.78 -0.14
-1.72 -3.66 2.28
-0.86 -4.28 0.67
1.47 -3.56 -0.60
2.09 4.07 3.00
1.40 4.15 3.57
1.22 -1.21 0.37
-1.35 -3.99 0.70
1.26 -0.33 0.78
-3.22 -2.48 4.00
-2.77 0.66 5.70
2.40 2.58 2.07
0.82 3.25 3.80
3.03 4.57 2.85
1.01 -3.32 0.24
1.27 0.74 1.89
3.73 -1.58 -1.52
-3.71 -2.36 4.27
5.75 1.70 -1.69
2.41 2.20 1.24
0.63 -0.76 2.18
-0.36 -2.41 1.42
-2.20 0.27 4.44
2.25 -0.66 0.02
0.73 -0.82 1.09
0.60 3.36 4.50
5.00 2.44 -0.03
2.36 1.22 1.45
4.57 -3.38 -3.00
6.11 0.71 -2.15
-0.36 -2.96 1.14
5.86 0.92 -2.12
1.50 0.78 1.30
2.42 3.07 2.20
2.40 0.82 0.84
4.17 -0.10 -1.86
0.79 -1.19 0.06
-0.48 -3.23 0.88
3.41 -5.43 -3.98
2.07 -2.40 0.06
-1.58 -2.77 1.84
-1.60 -5.33 0.67
1.57 -0.83 0.89
-1.96 -4.37 2.30
-0.65 0.56 3.92
3.02 2.39 1.64
2.86 0.23 1.03
2.35 -1.16 -0.25
-1.62 -2.25 2.74
-0.63 -3.35 1.02
3.19 1.91 0.41
-0.15 -2.35 0.84
3.40 3.71 1.43
0.76 -0.01 1.94
3.13 1.74 0.42
-0.95 3.07 4.93
1.25 -2.42 -0.00
2.88 -0.94 -0.93
-0.17 1.16 3.07
-2.23 -2.30 3.42
-1.75 -5.59 0.22
1.87 2.28 1.21
2.53 -4.00 -2.40
-1.53 -1.47 2.96
-1.60 -2.38 2.86
3.27 5.14 2.62
1.95 0.91 1.35
1.33 -1.52 0.80
0.61 -0.36 1.31
-0.69 -0.43 3.20
1.54 3.07 3.23
0.65 -5.61 -1.49
-0.68 -0.33 2.49
-0.17 -5.78 -0.97
-1.94 -4.36 1.51
-0.23 2.85 4.09
-0.89 3.47 5.78
-1.10 -3.33 0.72
1.72 -0.33 0.67
1.32 2.97 3.03
-1.67 0.85 4.16
-2.28 0.93 5.06
2.07 0.48 1.05
-1.21 2.50 4.82
0.63 -1.47 0.49
2.25 -3.30 -1.79
3.06 -3.14 -2.25
-2.61 -2.61 3.59
0.24 3.41 3.60
1.73 -1.36 0.06
0.60 1.58 2.03
0.53 -0.36 2.06
0.28 -1.61 1.71
-2.06 -6.53 -0.13
-1.49 1.43 4.89
-0.32 0.83 3.06
-4.59 -3.87 4.32
1.52 -1.74 0.69
0.09 -3.35 1.11
2.29 -3.41 -2.09
-3.79 -0.09 5.95
0.28 -1.31 1.14
3.37 -3.45 -2.99
-2.67 -4.04 2.02
1.45 -2.61 0.12
2.96 3.03 1.30
2.04 2.76 3.00
0.02 -0.52 2.88
0.07 1.69 3.26
3.47 -3.69 -2.44
3.71 2.63 1.25
-0.69 -4.10 0.57
-1.21 2.35 4.90
0.09 -1.89 0.92
5.56 2.70 -0.79
0.30 -0.71 2.39
-0.23 0.19 2.49
2.67 -2.54 -1.16
3.07 1.64 1.08
4.23 2.52 0.98
1.68 3.55 2.87
-3.29 -0.81 5.16
4.51 2.23 -0.12
-4.66 -4.34 3.55
2.14 1.16 1.25
2.20 -2.06 -0.29
4.50 -0.71 -2.31
-2.50 1.18 5.24
4.43 -1.80 -2.19
1.23 -4.31 -0.94
-1.28 1.00 3.79
-1.27 -2.67 2.33
2.27 -1.14 0.05
-1.79 -4.64 1.77
2.03 -2.35 -0.29
2.62 2.25 1.21
1.55 -0.42 0.87
1.65 -1.41 0.30
-2.29 2.34 6.39
0.31 -5.23 -0.85
-1.57 -5.85 0.40
0.51 2.18 3.39
-3.10 -4.66 2.70
-2.34 -2.48 2.67
0.93 0.31 2.05
-1.92 -4.76 1.01
2.20 -4.03 -2.10
-1.12 0.32 3.73
0.60 2.62 3.47
-2.31 -2.45 2.73
1.92 -1.29 -0.17
0.84 1.28 2.92
-0.54 1.09 3.47
-4.92 -3.73 4.12
-0.18 -3.94 0.03
-1.02 -1.29 2.50
-0.68 -1.33 1.45
3.91 -0.57 -1.96
-0.91 1.04 4.19
-1.38 -3.04 1.80
-0.67 -2.50 1.72
2.97 0.39 -0.15
0.92 2.62 2.80
6.36 1.94 -2.06
0.25 1.24 3.28
-0.33 3.92 5.87
5.46 -1.48 -3.74
2.77 -1.17 -0.36
5.16 -0.60 -2.54
4.32 -2.42 -2.21
-0.96 -3.98 1.53
-1.99 -0.88 4.01
-1.88 -4.72 1.18
2.88 -2.21 -1.31
3.40 -4.33 -2.93
2.92 -2.69 -2.12
2.19 -2.34 -0.01
-0.76 2.07 4.43
1.69 -0.47 0.16
7.33 1.94 -2.76
0.18 -1.10 1.72
0.16 -1.70 2.23
-0.32 1.46 3.55
2.10 -1.85 -0.02
1.09 0.12 2.24
2.37 -2.50 -1.34
2.82 1.21 0.66
2.87 3.79 2.41
1.66 2.86 2.59
-1.16 -5.54 0.58
-1.96 2.29 4.77
1.87 -2.63 -0.50
-2.16 -3.28 2.43
-1.28 2.81 5.56
4.02 -0.23 -0.36
3.90 -2.63 -2.25
-0.49 0.86 3.58
5.66 -0.26 -1.61
1.65 2.52 3.40
-1.26 -0.50 3.41
3.50 -2.96 -1.92
-0.82 -3.17 0.54
2.77 1.43 0.58
-2.57 -3.91 2.10
2.51 -3.72 -2.13
-2.17 -4.51 1.43
-1.39 -2.29 2.92
1.84 -6.00 -2.55
2.59 2.36 1.80
3.17 3.30 1.30
3.37 -2.03 -2.38
1.72 1.59 1.65
0.52 0.90 2.53
2.73 0.81 -0.02
2.68 3.66 1.91
2.59 3.09 2.70
-1.95 -3.04 2.89
0.31 -1.49 1.64
-1.44 -2.97 1.89
-0.73 -2.47 1.50
-2.24 -4.58 1.43
1.09 0.93 2.60
2.49 -0.06 0.71
-0.41 -0.39 2.91
-2.44 -0.18 4.03
2.38 1.97 2.29
-0.99 -6.13 0.48
3.63 -4.34 -3.72
1.91 -1.17 0.21
0.43 -2.56 0.43
-0.53 1.77 4.03
1.43 -5.19 -1.61
2.49 -0.85 -0.18
-0.83 -0.73 3.66
-0.99 0.35 3.21
2.78 -1.13 -0.97
3.91 4.67 1.79
6.53 2.86 -1.14
3.91 -0.88 -1.15
-1.01 -0.28 3.61
-1.85 -2.73 3.01
-0.74 -1.01 2.94
-1.63 -3.62 1.57
1.93 -1.57 -0.54
3.26 -3.85 -2.24
6.85 1.30 -1.98
-3.88 -3.52 3.91
1.61 -2.46 -0.28
1.32 -2.62 -0.48
0.24 -1.00 1.75
-0.75 -1.39 2.18
2.93 0.64 -0.11
1.68 1.37 1.73
1.73 1.88 2.53
4.43 0.51 -1.00
0.09 -3.43 -0.07
1.99 -2.58 -0.16
4.67 -4.58 -3.67
-1.68 -0.78 3.46
-1.33 -5.07 1.52
3.75 -2.15 -2.73
3.47 -4.08 -2.81
3.87 -0.67 -0.78
2.48 -2.69 -1.06
0.38 0.44 2.25
3.50 1.65 -0.13
1.21 -5.93 -2.21
-1.81 -3.29 2.65
-2.89 -2.86 4.21
3.67 -1.96 -1.07
-0.96 0.44 4.29
-1.72 -3.39 1.98
0.53 0.74 2.34
1.35 -4.60 -1.39
0.25 1.67 3.07
4.14 0.14 -1.07
0.93 2.79 3.19
2.06 3.94 2.75
1.44 -1.18 0.53
5.91 2.29 -1.61
1.47 1.74 1.62
-1.80 -5.18 1.46
0.32 -4.92 -1.45
1.88 -1.67 -0.16
-0.91 -0.05 3.33
2.39 -0.58 0.34
0.57 -1.47 2.02
3.61 3.33 1.29
1.58 1.54 2.67
1.98 0.44 1.52
2.55 -2.15 -1.49
0.56 3.24 3.71
2.68 1.69 1.57
-2.23 -2.35 2.53
6.08 -0.59 -2.96
4.58 0.02 -1.49
3.90 1.60 0.13
2.05 0.94 1.06
-1.82 1.29 5.49
0.57 0.51 2.66
1.67 5.43 4.22
2.07 0.28 1.56
2.56 1.35 0.85
0.36 -1.27 1.12
-0.20 -3.77 -0.11
-1.17 -2.48 2.59
2.19 3.73 2.86
0.14 -2.74 0.22
1.52 2.81 2.01
0.80 -4.47 -1.39
1.42 1.43 2.32
2.47 -1.14 -1.21
-0.22 -3.33 0.79
-0.16 1.26 3.04
3.56 -2.87 -2.09
-0.25 2.03 3.63
-1.83 -1.99 2.76
3.69 3.30 1.50
1.53 1.82 1.86
1.70 -3.27 -0.39
2.55 -3.75 -1.65
-1.45 0.91 3.73
3.36 1.60 0.13
2.37 3.88 1.94
-1.05 -2.01 2.02
1.51 -3.46 -0.38
5.61 1.39 -1.63
0.26 1.76 2.81
5.14 2.56 -0.42
3.92 1.81 0.56
1.30 -3.30 -0.75
4.43 3.38 0.54
-2.36 -0.66 4.14
1.18 -1.88 -0.37
-2.96 -3.24 3.54
-0.71 0.05 3.39
3.73 0.44 -0.21
2.22 -2.80 -1.16
3.17 -2.13 -0.89
-0.52 -0.88 2.89
2.23 -3.17 -0.75
0.07 2.53 3.55
1.61 2.70 3.13
-2.58 -3.64 3.19
5.12 0.26 -2.09
6.83 1.94 -1.87
1.80 -5.42 -1.81
-1.41 -3.35 1.83
4.00 -1.95 -1.86
1.64 0.49 1.40
-0.61 1.91 3.92
0.16 -4.63 -0.60
0.15 0.32 2.84
1.87 -1.47 -0.15
-0.24 -2.87 1.53
1.84 -3.77 -0.92
1.73 -2.25 -0.62
2.53 -4.64 -2.73
3.22 4.57 2.16
3.83 2.75 0.48
3.03 -4.18 -2.98
1.78 1.36 1.56
3.63 -0.77 -0.93
-1.86 -4.59 1.64
1.41 -1.94 0.90
-1.67 -0.57 2.86
-1.74 1.79 4.50
-0.42 -3.01 0.81
-1.34 -6.86 -0.17
1.38 1.21 2.13
2.32 1.25 0.86
2.00 3.23 2.61
3.02 -0.30 -0.57
-3.18 -1.63 4.33
2.91 3.69 2.27
0.94 -3.94 -0.64
4.71 2.33 -0.18
3.86 2.67 0.94
-1.92 -0.52 4.14
0.77 -4.19 -0.92
-0.35 0.46 3.19
1.56 0.84 1.53
0.81 -4.82 -1.37
1.56 -1.44 0.21
1.05 1.16 2.34
2.62 0.08 -0.06
-0.20 1.52 3.82
0.60 -2.42 0.66
2.26 4.07 2.91
-2.80 -2.55 3.16
0.65 0.20 1.24
-0.68 -1.27 1.67
2.62 2.28 2.16
-0.01 2.21 3.85
-2.77 -4.01 1.52
-2.37 -0.31 3.91
-0.77 -0.70 2.75
4.15 0.31 -0.80
2.21 -3.91 -1.42
-1.25 -1.49 2.31
-1.02 -3.21 1.55
-0.53 0.31 3.18
1.85 -3.14 -1.43
3.64 0.56 -0.99
3.53 0.57 -0.10
1.24 -2.38 -0.18
-2.56 -0.85 4.46
-2.32 -4.78 2.24
-3.64 -3.11 3.10
5.41 0.26 -1.74
3.68 -3.53 -2.11
-1.86 1.55 5.24
-1.12 -3.66 1.07
3.89 1.65 0.65
4.67 1.32 0.03
4.11 -2.97 -3.28
-1.56 0.71 4.30
3.43 3.17 1.60
1.33 -5.68 -1.89
3.89 2.27 0.74
2.31 -4.02 -2.05
0.58 1.87 3.30
3.74 -0.23 -0.65
-2.40 3.26 6.77
0.44 -2.35 0.32
1.15 3.93 3.19
4.30 2.18 0.08
3.32 1.27 0.47
-4.79 -3.46 4.57
-2.14 -1.47 3.35
-4.77 -4.40 4.63
1.06 -0.87 0.97
5.69 3.87 -0.99
-0.76 -1.10 1.70
-0.67 1.44 4.46
-1.33 -4.83 0.37
-0.54 -0.55 2.03
-1.51 -3.14 2.15
1.67 -2.31 -0.42
-3.27 -2.17 3.57
1.12 -0.08 1.20
0.88 0.93 2.34
3.39 -0.93 -1.01
2.29 1.61 1.11
1.49 -1.02 0.19
-1.80 -5.50 1.22
2.65 -0.78 0.25
3.38 -2.72 -1.65
-0.28 -5.30 0.07
-1.66 -2.23 2.47
0.22 0.33 2.21
3.42 -2.66 -2.91
-2.66 -0.55 4.28
3.98 -0.12 -1.33
-0.53 -2.32 2.17
1.81 -3.03 -1.16
0.97 2.13 3.33
3.23 3.57 1.40
4.04 3.53 1.40
-1.08 -2.33 2.00
5.27 -2.91 -3.37
1.19 2.00 2.84
-2.18 0.63 5.19
-2.20 -2.80 3.06
2.05 -4.58 -1.86
-2.89 0.80 5.54
4.58 4.96 1.66
2.64 -1.71 -0.29
4.56 4.01 0.80
6.10 2.50 -1.73
2.16 -2.02 -0.67
3.16 3.61 1.33
4.61 -0.31 -1.50
-2.23 -3.29 2.61
0.41 -3.14 0.41
6.21 2.11 -1.52
1.97 -0.73 -0.28
3.78 -0.83 -1.45
-2.48 0.06 4.54
-2.92 -4.15 2.58
-0.11 -0.98 2.19
0.58 3.41 3.93
-1.75 0.36 3.59
-0.25 -4.66 -0.13
2.50 2.14 1.54
5.31 3.50 -0.23
-4.02 -0.73 4.97
2.67 1.43 1.58
-1.06 -1.40 2.60
2.26 3.50 2.63
-2.20 -0.81 4.02
1.72 1.46 2.27
1.04 1.85 2.94
-0.49 -1.36 2.11
2.13 -1.45 -0.23
-1.50 -0.97 3.34
2.06 -4.06 -1.96
1.88 -1.43 0.52
0.94 0.67 2.51
-0.24 -0.05 3.06
5.51 -1.23 -2.57
-3.78 -4.56 2.46
-1.31 1.90 4.43
-0.18 -3.61 0.25
-1.23 -2.35 2.41
-0.68 -1.89 2.20
-0.50 -0.65 2.93
-1.21 -0.75 3.41
1.53 -1.62 -0.07
-0.22 -1.42 1.76
-0.87 0.07 3.24
3.02 1.51 0.08
2.87 -1.34 -0.29
0.49 -5.07 -0.69
3.59 -3.81 -2.51
3.00 1.42 0.48
4.82 -4.55 -4.87
-0.42 -4.77 0.32
-0.55 -0.31 2.44
5.69 3.02 -0.55
1.07 0.92 2.20
-2.72 -2.40 3.69
3.48 6.01 2.86
0.85 -4.20 -0.54
3.43 -4.28 -3.39
-1.51 2.10 4.95
2.60 -2.37 -1.64
-1.72 -0.77 4.58
1.16 -0.83 0.87
4.51 1.70 -0.43
3.23 3.52 0.95
5.22 2.13 -1.38
-3.88 -2.25 3.59
-0.45 -4.47 0.61
2.68 0.90 1.26
-0.79 -0.95 2.92
-0.90 0.02 3.42
3.33 -0.77 -0.68
-1.32 0.22 3.28
-2.27 -1.02 4.34
1.79 -3.52 -0.82
1.24 -2.18 -0.10
0.85 -3.20 0.41
0.94 3.35 3.45
1.77 -0.16 -0.11
-1.34 -1.34 2.55
-0.60 -3.08 0.80
3.36 -2.66 -1.53
4.75 2.28 -0.43
0.41 -4.91 -1.18
1.76 0.57 1.53
-1.58 3.38 6.08
0.89 -0.32 1.87
3.97 2.82 0.55
1.35 4.24 3.69
-1.51 -2.46 2.11
2.85 1.45 0.93
5.58 0.93 -2.05
-0.84 -3.30 1.20
3.89 -3.84 -3.87
4.81 -0.19 -1.46
4.31 1.39 -0.69
1.79 -3.43 -1.13
4.85 -0.16 -1.59
-2.32 -0.70 4.00
-0.27 -0.25 3.04
2.05 3.04 3.00
2.51 2.42 0.98
4.56 -0.08 -1.63
3.54 3.24 1.09
0.91 -2.42 0.59
2.59 -6.14 -3.16
-0.81 -0.57 2.50
2.47 -1.62 -0.73
-2.49 -2.97 3.09
-2.79 -0.77 4.17
5.53 -0.88 -2.21
1.02 -1.20 0.89
3.36 -1.76 -1.26
-0.92 1.01 3.51
0.54 3.94 4.04
-1.30 -1.17 3.04
2.30 -0.62 0.80
0.21 0.31 2.47
-3.74 -4.76 2.85
1.93 -3.14 -0.49
5.03 -0.86 -1.55
0.76 -0.21 1.77
1.60 -2.37 -0.32
2.20 -4.75 -1.83
4.60 -0.89 -2.82
-1.14 -4.11 0.90
3.47 1.22 0.57
0.72 2.25 2.83
-0.31 3.17 4.73
0.67 1.12 2.69
-2.25 2.16 5.99
-0.74 2.83 4.94
-0.41 0.25 2.62
-5.04 -5.43 4.05
-2.32 -1.09 3.84
1.38 -0.56 1.97
1.67 -2.96 -0.76
2.60 4.34 2.42
-2.15 0.42 4.75
-0.89 1.79 4.57
1.15 -3.03 0.17
-3.30 -3.03 3.05
0.23 -4.64 -0.47
-0.12 -2.87 0.21
-1.73 -2.90 2.26
2.85 0.85 0.75
0.50 3.60 4.08
1.83 -1.74 0.48
1.77 0.73 1.98
1.90 2.77 2.28
1.14 -2.83 -0.65
-3.69 -3.07 3.95
-2.69 -0.21 5.22
5.30 -0.95 -2.73
1.55 0.59 1.59
3.22 3.22 1.77
2.80 -0.81 0.43
4.60 2.52 -0.33
3.52 -5.12 -3.29
1.13 -3.10 -0.09
0.59 -0.59 2.43
2.26 2.48 2.25
4.51 0.61 -1.53
0.00 0.15 2.55
0.72 -2.32 0.15
3.03 0.08 -0.62
4.86 -0.12 -1.96
0.49 -2.94 0.70
-1.55 -5.70 0.65
5.98 -0.78 -2.19
2.04 1.16 1.12
-3.55 -4.05 4.02
5.79 2.91 -1.41
-1.31 -1.98 2.06
-0.91 -3.69 1.13
-0.42 -2.96 1.65
3.52 -0.57 -1.36
-1.02 -0.53 2.61
-3.52 -3.77 2.59
-1.36 1.21 4.74
1.49 -1.10 0.79
1.33 -3.03 -0.50
-0.04 -1.88 1.71
-0.86 -4.26 0.67
1.07 2.14 3.55
-2.30 1.28 5.46
1.70 -3.71 -1.34
2.27 -4.28 -1.96
-1.98 -3.61 2.16
-0.52 1.62 4.65
0.50 -1.01 1.68
3.62 0.34 -0.98
5.16 -2.19 -2.36
3.54 -4.31 -2.86
1.93 0.90 1.96
0.05 -2.83 0.81
1.29 -4.21 -0.62
2.90 -0.35 -0.92
-1.94 -0.13 4.16
0.90 -2.93 0.42
-0.91 -1.17 3.38
-2.50 -2.22 2.47
5.19 2.36 -0.58
0.43 0.22 2.11
0.02 -0.96 1.90
3.36 1.73 0.25
5.54 3.10 -1.13
4.81 4.24 1.29
1.18 4.40 3.74
2.56 -0.33 -0.34
2.44 -4.48 -2.43
1.18 -0.61 2.17
1.02 -5.04 -1.54
0.39 -1.44 1.11
-2.57 -3.43 2.52
0.47 -3.36 -0.18
2.28 -2.47 -0.98
0.93 2.90 3.26
-2.69 1.07 5.66
4.15 -2.08 -1.82
-1.57 -2.31 2.50
-2.21 -2.45 3.26
2.61 -2.46 -0.97
0.61 -1.99 0.78
4.61 -2.02 -2.73
0.20 -1.35 1.53
2.23 2.05 1.21
3.32 0.20 0.38
4.22 1.78 4.85
2.44 -0.43 -0.65
2.18 -0.27 -3.16
2.39 -3.35 -0.15
3.29 -3.72 3.85
3.11 1.07 1.21
2.43 -4.27 2.03
3.67 3.06 -0.08
1.98 -1.77 -1.60
4.49 2.47 4.28
2.37 1.26 -4.89
2.71 -1.11 -0.98
2.83 3.56 -5.26
2.71 -4.20 3.20
0.43 -4.57 -5.42
2.33 1.82 -5.57
4.97 3.52 4.32
2.19 2.62 -3.52
0.54 -5.31 -3.73
0.99 -4.93 -2.21
1.88 -4.92 -0.13
3.02 -0.62 -0.26
2.28 -4.33 2.57
2.88 -4.11 2.43
2.85 -0.79 0.42
3.17 -1.32 0.61
3.40 0.85 0.17
4.49 3.67 2.88
3.78 3.35 0.93
2.81 2.73 -4.72
4.07 3.36 2.23
3.66 2.38 -0.61
3.51 -0.13 0.69
2.24 2.72 -3.24
3.62 3.16 -1.21
2.90 -0.96 0.37
2.59 1.95 -2.87
1.98 -4.78 1.36
2.11 -1.29 -4.83
3.62 0.54 3.25
1.06 -4.49 -4.48
2.18 -0.89 -3.16
2.12 3.79 -4.54
3.30 2.61 1.41
3.13 -0.43 0.90
3.64 2.16 0.26
3.61 4.13 -2.00
2.22 -3.45 0.49
1.22 -4.85 -4.23
2.15 4.07 -4.79
0.75 -3.88 -3.70
2.93 1.43 -2.18
2.73 -0.43 -2.64
4.06 0.74 3.87
2.62 -3.29 2.99
2.47 0.07 -2.56
2.00 -2.64 -1.62
2.39 -1.93 0.41
1.96 3.32 -5.48
2.40 -4.02 0.36
2.62 -4.66 3.99
2.83 -0.81 -1.90
2.60 0.69 -1.14
3.04 2.88 0.06
3.80 -1.65 2.69
2.47 -3.09 -0.17
1.62 -2.41 -5.49
2.81 -0.51 -2.29
3.03 3.55 -1.48
3.29 2.99 -1.70
2.89 3.18 -1.36
3.05 1.60 -0.04
2.56 -4.17 0.11
3.20 2.30 -0.87
2.02 -1.40 -4.49
2.88 -3.84 1.10
2.85 -2.90 0.74
2.42 0.42 -4.43
4.72 3.92 4.34
1.47 -2.08 -4.44
2.70 2.69 -2.67
1.79 -4.71 0.99
3.09 2.52 0.43
3.63 0.12 3.49
2.57 1.16 -3.07
3.21 2.12 -2.76
1.62 -5.50 1.08
2.81 -4.73 4.12
3.35 -0.45 1.92
2.59 -0.74 0.48
3.74 3.18 0.14
1.76 -5.98 -1.45
3.39 -0.38 0.67
3.89 3.24 2.77
3.96 2.40 0.90
4.00 2.63 2.69
1.72 -2.88 -2.94
0.84 -3.30 -4.63
3.11 -5.38 3.97
3.38 -0.82 0.78
2.85 1.74 -0.87
3.01 0.10 1.88
2.62 -1.63 -0.16
3.38 -0.07 3.62
3.18 -1.91 1.68
3.49 -3.36 4.66
3.41 -0.09 2.83
1.34 -3.39 -3.41
2.22 -1.43 -3.46
3.12 -2.74 3.97
3.93 3.06 3.10
2.22 -3.03 -1.69
3.30 -3.16 2.54
0.82 -5.18 -3.35
2.46 -5.07 0.40
1.79 0.28 -4.85
1.29 -3.86 -3.03
2.69 -2.31 0.83
4.10 1.19 3.45
2.65 0.72 -0.44
1.77 -0.33 -3.73
2.30 0.97 -5.14
1.44 -1.64 -4.44
4.05 2.48 2.85
2.31 -1.87 1.06
4.44 1.17 3.34
1.98 -2.75 -3.98
3.14 4.34 -3.04
3.12 5.21 -3.46
3.60 1.98 0.08
2.02 -1.01 -4.59
3.83 3.14 -0.83
3.70 -0.13 3.16
3.04 -0.32 -0.26
2.45 -2.41 -0.30
4.02 3.46 2.08
1.93 -3.09 -3.19
3.13 0.86 -1.19
2.98 -3.58 1.94
2.62 0.83 -1.99
3.43 -0.09 1.85
2.34 1.29 -2.42
2.55 -0.25 -0.84
1.35 -1.99 -4.72
2.34 3.23 -3.94
4.74 1.62 3.54
2.85 4.27 -3.29
1.27 -3.74 -2.33
3.11 1.25 -0.20
2.05 -5.08 2.56
4.47 3.68 2.05
1.96 4.08 -4.87
1.91 -4.72 1.42
4.49 1.34 3.97
3.28 1.93 2.31
2.17 -3.85 0.92
2.75 -0.20 -0.30
3.12 -0.39 2.21
2.04 -0.99 -3.14
4.75 3.24 4.34
1.80 -2.78 -2.46
3.77 1.09 1.21
3.43 3.99 -0.75
2.78 -2.06 2.20
3.75 0.14 3.79
1.40 -2.38 -3.24
4.28 3.13 2.09
2.77 -0.07 -2.24
1.63 -0.63 -3.70
3.61 -2.03 2.98
1.80 0.25 -3.57
3.77 0.66 3.97
3.27 1.78 0.70
2.42 1.36 -3.39
1.23 -4.36 -2.57
3.42 2.24 -1.26
2.27 -0.37 -1.71
2.92 4.45 -3.44
1.83 -3.63 -3.28
2.87 -3.54 2.62
2.99 -1.62 3.85
2.28 -3.87 -0.33
1.12 -5.00 -2.59
2.01 -3.40 -0.19
1.28 -1.52 -4.95
2.78 -0.20 -1.40
2.39 -2.52 -1.17
3.45 0.93 0.68
2.29 1.18 -2.90
2.19 -0.31 -3.77
3.05 -0.64 1.76
1.58 -3.28 -5.15
3.43 0.31 0.20
2.36 -3.94 -0.21
3.31 -0.46 4.00
4.45 3.50 2.67
2.01 -2.95 -0.06
4.11 3.81 -0.39
4.38 4.15 0.65
3.58 1.93 1.64
1.93 -5.75 2.46
3.87 3.34 3.08
1.86 -0.21 -5.63
2.60 -4.44 0.49
3.53 3.00 1.26
3.05 2.02 0.39
4.40 2.56 2.84
3.12 -0.71 0.17
3.20 1.39 0.37
1.37 -4.52 -3.20
3.03 3.08 -0.18
1.75 -2.69 -3.22
2.35 0.39 -0.46
3.54 3.24 -1.34
3.02 0.77 -2.12
3.30 5.21 -3.74
2.83 -0.83 1.30
3.65 0.15 4.39
3.03 0.21 -2.09
2.77 -3.32 0.79
2.28 -2.62 -1.55
1.49 -3.83 -3.17
2.91 3.68 -2.79
2.27 -0.09 -4.72
1.21 -1.19 -3.99
3.19 0.46 -0.18
1.64 0.00 -4.83
2.22 -0.24 -2.62
2.23 -2.18 -3.47
1.32 -1.41 -3.95
4.46 1.16 4.73
3.60 -1.60 2.68
2.28 -3.48 1.46
2.76 -1.76 1.59
3.05 0.33 2.08
3.12 -0.97 0.65
1.44 -3.51 -4.90
1.81 -4.50 -1.40
2.36 -4.27 2.14
3.22 1.34 -1.48
2.81 -4.58 1.61
2.65 4.13 -4.17
2.59 4.01 -4.81
1.62 -4.65 0.40
3.26 1.74 -0.92
2.50 2.81 -3.78
2.94 2.35 -3.91
3.04 -3.83 1.94
2.70 0.82 0.10
1.43 -5.77 -2.44
2.41 -3.70 0.58
1.88 -0.81 -3.00
1.81 -5.29 -0.49
3.85 4.47 0.07
3.62 -0.48 2.20
3.03 0.96 -0.28
2.63 -0.22 -2.58
2.67 -2.63 2.58
2.80 3.40 -5.25
4.45 3.05 3.14
1.36 -5.00 -4.64
2.19 1.60 -4.85
3.97 1.11 3.64
1.14 -4.56 -2.76
2.85 -2.54 3.31
2.48 1.54 -1.53
1.89 -3.35 -0.92
1.45 -2.24 -5.85
0.80 -4.63 -4.22
4.10 0.88 2.49
3.87 0.41 2.56
1.83 -0.81 -4.87
2.61 0.46 -3.39
3.30 2.37 -1.57
2.06 1.43 -4.66
3.78 -1.64 4.89
2.34 3.14 -5.69
4.12 0.26 2.63
4.12 2.54 2.76
2.59 1.79 -3.37
2.87 -5.60 2.63
2.36 -0.31 -1.43
3.98 1.57 2.25
2.12 1.74 -3.11
3.20 1.03 0.42
3.33 -2.86 2.45
2.82 -1.17 1.20
3.46 3.98 1.17
2.73 -1.14 1.18
3.23 0.29 1.24
2.93 1.94 0.05
2.98 1.09 -1.48
3.24 2.21 0.41
1.71 -2.93 -1.84
1.81 -1.94 -3.01
4.15 4.13 0.33
2.60 -0.76 -0.64
1.56 -1.06 -5.54
4.02 2.81 1.65
4.61 3.04 3.07
2.15 -0.53 -3.97
0.83 -2.46 -5.07
3.89 1.96 2.48
3.45 -3.37 2.63
3.00 -3.39 0.67
3.57 0.61 3.36
2.07 -1.46 -3.06
1.38 -1.97 -4.46
3.29 -3.65 2.99
3.90 3.18 3.38
2.14 1.59 -4.10
1.67 -3.65 -2.70
1.56 -4.64 -0.75
2.49 -2.38 1.23
4.39 4.44 2.08
2.35 -2.09 -0.30
1.66 -4.39 -2.84
2.33 -1.84 -2.37
3.86 2.06 3.19
2.74 1.18 -1.57
2.09 -1.87 -3.77
3.38 0.52 0.32
3.22 1.11 -2.14
1.89 -4.27 -2.09
2.80 -4.69 1.20
2.12 -4.51 0.03
1.86 -0.95 -2.44
2.40 -0.90 -0.86
4.57 2.79 2.54
1.61 -2.63 -1.49
2.04 -5.48 -1.52
1.26 -1.56 -5.00
3.81 4.95 -0.93
3.47 -1.94 4.67
3.68 4.11 1.51
3.09 1.29 -1.69
1.50 -0.86 -5.01
2.34 -3.83 -1.80
1.09 -6.18 -3.99
2.84 -1.49 0.74
2.51 -0.83 0.51
4.14 4.30 2.99
2.47 0.38 -3.52
2.30 -2.11 -0.75
2.84 -0.40 -0.00
2.93 3.35 -1.99
0.89 -4.21 -3.78
1.68 -0.32 -4.00
1.00 -4.90 -2.82
3.34 0.89 -1.11
2.17 -2.87 -1.49
3.23 -4.87 3.46
2.68 -4.00 1.43
3.34 0.83 2.83
1.55 -4.35 -3.07
2.67 0.16 0.01
3.33 4.32 -1.56
3.65 0.00 1.23
3.40 -0.92 0.26
2.60 0.60 -0.40
1.68 -2.43 -2.23
2.78 -4.43 2.65
3.14 1.87 0.64
2.24 -4.61 0.47
2.90 1.18 -0.49
3.28 3.57 -3.64
3.16 -0.31 1.98
1.94 0.47 -5.16
1.34 -2.87 -2.68
1.08 -2.84 -4.29
2.45 -1.38 -2.67
3.07 -1.33 3.19
4.14 2.89 3.99
4.52 2.51 4.07
2.09 0.36 -2.62
2.52 1.62 -1.09
1.87 -3.46 0.67
2.44 1.16 -2.51
1.87 -2.70 -1.98
2.64 -1.80 -0.79
2.80 -1.88 0.46
3.17 1.23 -0.73
3.17 -2.06 3.34
3.51 -0.13 2.95
3.74 0.81 1.49
2.94 -1.10 -0.87
3.10 -3.27 4.67
2.88 2.47 -1.32
4.68 2.71 3.76
1.77 -3.80 -0.91
3.51 2.59 -2.07
3.55 1.02 2.91
2.67 -3.64 3.06
2.94 1.77 0.24
3.78 1.38 1.23
2.13 1.35 -4.14
4.59 4.45 1.89
4.23 4.32 2.17
1.73 -6.39 0.76
1.38 -5.24 -4.17
3.04 3.70 -4.15
2.56 -3.51 2.95
3.02 -2.92 1.01
1.41 -1.96 -4.74
3.28 -0.50 0.68
3.27 -1.17 0.62
2.18 -4.36 1.97
1.30 -3.06 -3.41
2.36 -1.80 -2.62
0.43 -5.27 -4.95
1.96 0.65 -2.73
3.21 -0.56 2.35
1.77 -2.58 -5.48
2.21 -2.69 -1.47
1.14 -2.35 -4.86
2.05 -1.75 -3.37
2.09 -2.64 -3.37
2.21 -3.43 -0.60
3.59 1.79 0.45
2.96 -1.02 1.27
3.41 0.53 -0.77
3.84 3.82 1.61
2.81 -2.25 1.95
2.57 0.81 -3.87
2.23 3.40 -6.12
3.14 1.79 0.59
2.76 -0.34 0.24
1.45 -4.60 -2.52
2.33 0.70 -1.17
2.05 -3.83 -0.39
2.87 1.58 -0.40
4.00 3.66 2.93
3.05 -1.66 0.34
2.68 -2.74 0.36
3.39 -0.00 3.82
2.27 -0.46 -1.29
2.73 -5.06 3.12
2.35 -3.40 2.06
1.83 -5.60 -2.86
1.52 0.75 -5.89
3.90 3.55 0.55
4.07 2.42 3.16
2.21 2.44 -4.62
4.11 4.07 2.06
2.57 1.69 -4.38
1.77 -4.84 -0.88
2.68 -3.36 1.06
2.21 3.14 -4.02
1.83 -0.11 -3.38
3.57 2.56 2.01
3.29 -3.27 3.31
3.30 3.14 1.55
2.87 -2.46 0.65
3.59 0.51 1.53
3.49 -2.33 2.75
3.80 3.09 2.63
1.65 -2.41 -5.02
3.92 -2.30 3.67
1.04 -4.60 -3.17
3.18 1.64 -1.65
2.19 -5.56 1.74
2.13 -0.70 -1.19
3.87 2.01 1.81
1.90 -3.17 -1.06
3.26 0.70 3.11
1.03 -4.46 -5.03
2.24 -0.77 -3.63
2.86 -2.31 -0.40
2.89 -1.80 -0.29
0.96 -4.60 -3.14
2.38 -4.34 -0.62
3.10 -1.52 1.51
2.05 -0.25 -2.65
2.64 2.08 -2.88
3.09 0.56 0.57
3.86 2.06 0.77
3.04 -2.78 2.64
3.07 0.85 2.00
0.89 -5.45 -4.15
1.66 -1.03 -4.86
1.03 -4.74 -3.10
4.24 3.91 2.97
2.96 -1.63 3.73
4.58 4.70 3.89
2.62 0.29 -1.74
2.11 0.79 -4.28
3.04 -3.33 5.15
3.14 2.23 -2.74
2.10 -5.22 1.62
2.22 1.49 -3.64
2.20 2.14 -4.99
3.10 3.81 -3.87
2.25 -0.35 -1.06
4.48 4.40 1.31
3.12 -2.66 4.30
2.47 0.22 -1.30
3.87 0.57 4.14
2.88 1.09 -2.60
2.53 -1.66 -1.00
3.20 -1.67 1.68
3.39 2.95 -0.97
3.43 -0.38 0.29
2.37 -0.34 -1.99
3.67 3.55 1.52
3.17 2.02 2.06
1.24 -4.39 -2.80
2.95 0.69 -0.98
1.96 1.90 -5.01
3.48 2.47 1.23
2.73 0.82 -1.12
2.92 1.15 -0.58
1.87 -0.97 -4.14
2.93 2.83 -1.27
2.22 -3.63 1.04
2.27 1.25 -3.10
3.49 0.94 1.68
2.97 -1.57 2.60
1.98 -1.35 -1.45
3.17 -1.69 1.89
3.47 3.17 -0.02
1.32 -2.10 -5.34
3.12 1.06 -0.00
1.41 -3.50 -2.32
2.01 -2.85 -1.49
3.60 1.31 -0.23
3.20 -1.33 3.44
2.71 1.71 -1.38
1.84 -2.23 -1.82
3.05 2.05 0.13
1.60 -1.73 -3.68
0.94 -3.90 -5.73
3.09 -3.37 3.21
3.87 1.96 2.51
2.34 1.42 -4.74
4.48 4.32 2.92
2.98 2.88 -2.05
1.95 2.31 -4.20
2.71 1.89 -4.57
2.47 2.51 -3.91
2.05 -1.78 -0.23
2.91 -0.69 0.18
2.97 -4.75 2.55
2.24 -0.88 -1.34
3.58 -3.53 4.22
1.73 -4.30 -3.11
3.72 -0.58 3.21
1.03 -2.13 -4.71
3.40 -1.26 3.82
1.98 -3.17 -1.06
3.05 4.18 -3.31
1.00 -4.25 -5.27
3.05 -1.38 3.14
3.72 3.96 1.02
2.83 1.54 -3.14
2.22 -0.92 -0.23
0.90 -4.45 -3.33
3.23 -1.96 2.62
2.21 -0.03 -4.04
3.14 2.62 0.89
3.01 -4.18 3.16
1.99 0.84 -6.49
3.57 0.24 1.27
2.86 2.25 -2.84
2.40 -1.29 -0.88
4.08 4.08 1.70
2.02 0.36 -2.87
1.87 -1.25 -4.63
4.21 -0.58 3.98
2.84 3.75 -4.12
2.29 -2.50 1.31
2.10 -4.98 -1.33
2.86 -0.29 0.28
3.15 3.14 -2.74
4.04 1.93 1.06
2.26 2.80 -3.17
2.82 -1.14 -1.89
3.07 0.89 0.88
3.76 -2.14 4.14
3.11 3.15 -1.40
2.28 -5.08 0.07
1.78 -1.30 -2.21
2.88 -0.24 -1.12
1.35 -2.12 -4.23
3.24 -0.61 1.53
3.07 3.21 -0.16
2.78 1.91 -3.18
3.73 2.75 1.75
1.81 -2.95 -1.85
2.25 0.88 -3.85
2.52 -2.74 2.68
0.64 -4.38 -6.32
1.76 -2.60 -2.25
3.00 -4.22 3.50
2.34 4.58 -3.97
2.40 -5.30 2.33
2.22 2.92 -3.95
2.39 -5.13 0.44
1.84 -3.08 -5.04
2.53 -0.40 0.81
2.42 1.32 -3.39
3.82 2.62 1.30
1.84 -0.30 -2.81
1.18 -2.93 -6.44
1.70 -3.14 -3.94
1.51 -4.60 -4.87
2.06 2.77 -5.35
2.33 -2.89 -1.23
2.15 -1.89 0.22
1.46 -1.05 -3.07
1.31 -4.62 -3.70
2.78 -0.20 1.65
3.00 3.53 -2.10
1.74 -3.29 -4.57
3.05 2.75 -2.55
3.37 0.79 3.74
1.09 -5.13 -4.42
3.35 -0.11 0.09
1.08 -2.68 -4.81
3.18 2.65 -1.27
3.06 -0.59 2.61
1.76 1.04 -4.52
3.09 0.98 -1.05
2.88 -0.82 -1.29
3.03 -3.34 0.53
1.02 -2.31 -4.79
2.06 -4.88 -0.65
1.53 -5.17 -3.36
1.43 -4.85 -3.13
1.31 -4.88 -3.78
2.69 -2.19 -1.17
4.61 3.44 2.90
3.18 -3.61 4.93
3.28 2.08 -2.47
4.20 3.82 2.64
2.19 -4.35 0.86
3.12 -3.81 4.08
2.05 2.68 -4.37
3.19 -1.94 2.94
2.81 -1.34 0.68
0.98 -2.81 -5.68
3.58 4.08 -1.16
3.32 3.06 -0.85
3.32 -0.09 2.10
3.31 -0.27 0.98
4.31 3.07 3.74
1.16 -1.90 -5.04
0.80 -5.26 -4.77
2.55 1.76 -2.30
1.63 -4.56 -3.16
2.12 0.29 -4.99
3.45 -0.84 1.73
2.75 -0.44 0.49
0.88 -4.75 -5.21
3.03 0.68 0.27
3.27 -3.71 2.76
1.94 -4.57 1.49
1.22 -3.57 -5.06
2.02 -3.93 -1.34
2.78 -1.33 1.15
2.86 -3.76 2.36
0.75 -3.48 -5.51
4.34 2.88 1.87
2.74 -2.87 3.54
3.85 4.86 0.31
1.74 -3.09 -1.63
2.85 -3.16 2.30
2.43 -2.86 -1.55
2.01 -2.51 -1.37
1.44 -3.66 -1.71
3.28 1.19 -0.96
3.33 4.21 -0.71
1.99 0.30 -2.93
2.56 -2.47 0.52
2.96 2.92 -2.21
3.69 -1.40 4.46
3.28 3.66 0.61
4.00 4.08 -0.99
1.56 -2.33 -2.46
2.15 -3.23 1.18
2.87 0.14 0.69
4.33 2.49 2.16
3.84 -0.22 2.73
3.75 0.46 2.66
2.74 1.36 -3.62
3.45 -3.09 3.32
3.17 -5.27 3.73
2.46 0.61 -4.01
2.06 -2.90 -2.83
3.33 -0.22 0.34
2.13 2.17 -3.65
2.47 0.01 -2.58
3.58 -1.16 2.48
2.04 -4.67 1.39
2.24 -2.27 -2.42
1.72 -4.93 0.42
3.79 -0.06 2.06
2.22 0.69 -4.01
4.30 1.42 2.78
2.21 1.34 -5.76
1.64 -3.15 -4.71
4.26 4.50 4.46
1.46 -3.28 -2.84
3.70 3.18 -0.28
2.68 0.94 -1.42
3.36 -0.29 1.93
3.36 0.16 2.24
3.02 -2.75 1.06
1.68 -1.85 -2.65
3.25 1.27 0.14
0.90 -5.42 -3.50
2.32 -5.69 3.04
3.07 -2.42 2.47
2.24 -1.91 -2.04
4.70 0.76 4.11
2.23 -1.20 -3.77
2.34 -2.29 1.52
2.67 3.32 -2.43
2.29 -1.64 0.07
3.15 -1.89 1.31
3.68 2.16 -0.32
2.80 -0.87 1.17
1.31 -4.54 -2.99
2.61 3.55 -5.42
1.18 -4.00 -3.46
2.02 -1.44 -1.56
1.38 -3.38 -3.19
1.08 -3.20 -6.49
1.82 -5.84 -0.84
2.52 -2.35 0.86
3.31 0.95 0.25
1.93 -2.89 -1.90
1.81 2.13 -4.26
2.50 0.20 0.87
3.05 -3.31 1.80
3.06 4.18 -2.03
1.39 -3.13 -2.35
3.04 2.88 -3.50
1.87 -2.51 -2.04
1.61 -2.64 -1.49
2.35 1.21 -1.37
3.26 -2.70 0.99
3.91 1.76 0.28
1.93 0.50 -5.69
2.06 -4.58 0.26
2.14 1.39 -4.61
3.58 4.13 -1.46
2.01 -4.52 0.27
2.90 -3.94 1.75
3.39 0.05 -0.26
1.51 -5.03 -2.14
1.28 -5.78 -0.74
2.35 0.28 -0.87
2.56 -4.28 2.95
2.69 3.65 -2.60
4.50 1.95 3.66
1.70 0.11 -2.72
1.22 -4.97 -3.39
4.58 2.39 2.97
2.07 -0.75 -3.13
3.08 3.25 -3.16
2.90 3.61 -1.27
1.81 -2.02 -1.55
2.50 3.45 -3.13
3.86 4.38 0.64
3.83 2.23 0.83
1.17 -1.42 -4.36
2.62 5.12 -2.78
0.97 -4.13 -4.05
2.81 1.91 -3.91
1.63 -3.90 -3.47
3.55 2.40 -1.20
3.30 3.64 -2.92
3.27 -1.82 0.67
4.71 3.23 3.45
1.59 0.35 -4.50
0.60 -4.25 -5.31
3.69 1.13 0.77
1.00 -2.06 -4.60
3.95 4.51 2.36
3.04 0.87 -1.03
2.85 -5.84 2.44
3.68 2.43 0.02
2.78 3.13 -1.76
2.15 -0.21 -2.21
1.75 -4.01 -3.64
4.11 1.11 3.94
3.68 2.51 -0.00
1.79 -2.94 -0.81
2.84 -1.41 1.09
1.43 -1.94 -5.01
2.80 2.21 -2.90
2.73 2.51 -1.16
1.91 -4.86 -0.86
2.09 -5.10 2.99
3.74 1.63 2.23
3.28 -4.63 3.26
3.28 0.30 -1.04
3.11 -0.16 0.52
2.44 -0.49 -1.46
2.65 -2.54 -0.03
2.44 -0.50 0.81
4.28 4.10 2.36
2.83 2.91 -0.97
2.79 -4.59 1.01
0.89 -3.01 -4.60
3.27 4.43 -3.81
2.03 -3.41 -0.37
2.19 -3.57 1.62
2.58 -1.14 2.09
0.90 -3.27 -4.34
2.62 -1.52 -1.62
2.19 -5.07 -0.53
2.24 2.48 -3.14
3.72 3.04 -1.04
3.86 1.68 0.22
2.53 4.65 -5.36
2.81 -0.75 -0.40
0.56 -4.95 -4.04
2.99 -0.90 0.10
2.82 0.56 -1.66
2.07 -0.15 -3.41
3.86 2.36 0.35
2.51 0.19 -0.37
2.86 -2.30 -0.28
2.17 -0.41 -3.94
2.72 0.70 -1.17
1.19 -4.80 -4.69
2.32 -5.38 2.65
2.84 2.25 -3.21
3.81 3.96 0.51
3.24 -3.63 3.61
2.11 -5.35 2.39
1.39 -3.01 -1.55
2.53 -4.16 0.49
3.88 2.42 0.85
0.25 -4.97 -5.25
3.13 -0.13 -0.78
3.58 -0.26 2.98
3.22 -4.69 4.59
1.28 0.16 -4.57
2.78 -2.61 -0.63
3.24 3.55 0.41
3.69 0.46 3.92
3.03 2.34 -2.81
2.40 0.22 -4.57
3.63 4.66 -0.70
2.45 4.24 -4.73
1.62 -1.18 -3.41
2.96 -1.25 3.48
2.50 3.25 -4.95
2.60 0.19 -0.66
-0.02 -5.61 -5.48
0.84 -4.30 -5.94
1.71 -0.52 -4.49
2.41 -4.03 2.40
1.94 -3.19 -2.49
0.99 -5.59 -3.11
2.82 -3.06 0.99
3.04 -2.64 0.56
2.37 -0.26 -2.07
2.92 -5.33 3.52
2.12 -4.53 -0.25
2.18 -0.58 -3.58
3.10 2.38 -2.51
1.49 -3.67 -1.49
3.21 0.46 0.11
3.61 -1.37 2.54
2.80 0.36 0.29
3.77 -1.27 3.33
3.47 4.97 -2.36
1.83 1.99 -4.48
2.80 -0.63 -0.15
3.60 -2.25 3.94
3.29 0.34 0.27
1.93 -4.97 0.19
2.12 -5.43 -1.26
2.16 -1.06 -3.74
2.23 -4.11 -2.33
1.57 -4.94 -1.90
3.17 1.89 -0.26
1.67 -4.30 0.02
3.44 -3.32 5.48
2.11 -3.71 1.89
2.51 -4.23 1.32
1.98 -2.08 -3.31
3.47 -3.59 3.23
3.04 0.76 -1.45
3.75 4.11 1.33
4.10 2.75 4.42
2.34 -4.00 0.71
2.68 -0.45 -0.58
3.59 1.90 3.16
2.15 -1.33 -3.65
1.72 -1.49 -2.94
3.28 0.85 -0.07
2.51 -0.99 -2.32
3.68 1.14 4.04
1.91 -0.62 -5.07
3.51 0.28 0.70
3.42 1.22 2.74
2.72 -1.30 0.86
4.60 3.08 3.23
2.87 4.22 -4.65
0.72 -4.79 -4.08
2.36 -2.26 -0.92
3.41 -0.34 0.95
1.96 -1.09 -3.41
4.34 2.40 1.90
3.50 -0.51 3.55
1.84 -3.08 -2.97
3.28 1.38 1.61
3.79 2.50 -0.19
0.81 -3.78 -4.43
3.61 -0.96 2.58
4.13 1.68 2.80
2.41 -1.89 -2.38
3.69 -3.72 4.04
2.43 -0.61 -1.29
3.35 0.94 -0.41
0.77 -3.09 -4.29
0.63 -2.70 -4.94
2.25 -5.68 2.85
3.24 -1.62 2.84
3.68 0.48 2.56
3.19 2.78 -3.40
3.29 1.14 -1.86
1.39 -0.70 -5.11
2.28 0.55 -3.37
2.80 -1.39 -0.00
1.11 -3.14 -3.81
4.98 4.28 3.66
3.70 4.48 1.11
2.44 -4.38 0.07
4.22 4.31 4.39
4.70 2.06 4.44
2.21 2.23 -5.59
2.41 2.94 -2.43
2.29 0.56 -4.01
2.55 -2.10 -1.72
1.95 -2.42 -3.15
3.65 -1.47 2.57
2.63 3.70 -5.50
1.22 -2.11 -3.63
2.42 -4.50 3.11
1.51 -3.23 -1.82
2.64 -2.27 1.26
2.74 2.02 -4.42
1.19 -3.81 -6.56
3.49 0.72 1.58
3.13 1.00 0.71
2.96 3.84 -2.08
0.87 -4.26 -5.79
2.75 -5.41 4.11
3.43 1.45 -0.61
4.43 4.36 4.00
1.63 -4.60 -2.55
2.75 3.45 -4.61
2.65 -1.99 0.81
2.47 -0.57 -1.80
2.94 3.29 -3.81
2.41 -1.58 -2.18
3.22 -0.20 0.61
2.13 0.24 -3.21
3.42 -1.52 2.69
2.84 -4.05 1.23
1.53 -5.45 -2.11
3.49 -1.19 3.22
2.98 -0.74 1.16
2.15 0.80 -4.24
2.72 1.67 -1.57
2.17 -6.00 3.65
2.13 -0.46 -1.68
1.38 -4.13 -1.50
3.34 3.51 -2.56
3.85 3.26 -0.06
3.75 3.93 -2.30
2.28 -4.92 1.73
2.44 -3.63 0.81
3.48 -1.48 2.32
2.07 -3.89 0.78
1.44 -5.48 -2.18
2.84 1.32 -2.95
3.32 -2.27 2.83
3.47 1.78 1.94
2.07 -4.27 1.10
3.40 -3.75 4.65
3.22 -3.40 3.01
3.22 4.93 -1.69
2.76 -0.67 0.48
3.98 4.27 0.04
1.68 -3.27 -1.23
1.70 -1.19 -4.37
2.53 2.51 -4.16
2.52 -0.18 -2.74
0.98 -4.21 -3.38
2.46 -0.41 -2.85
2.03 -5.44 -0.66
1.41 -3.43 -4.38
2.40 -0.43 -3.98
-3.10 -1.50 -3.28
-5.03 -4.15 4.55
-0.48 -4.77 -2.16
-4.08 -1.20 -4.15
-7.42 -0.76 1.22
-1.80 -6.46 2.61
-3.86 -2.56 -1.54
-3.68 -1.55 -4.40
-1.95 -5.47 2.69
-4.44 -2.79 0.28
-4.02 -3.84 1.20
-1.51 -3.57 -3.90
-3.15 -5.46 2.20
-3.11 -2.93 -1.95
-2.30 -3.91 -1.46
-5.75 -2.09 0.86
-1.36 -6.33 1.22
-0.25 -4.36 -5.04
-0.38 -5.92 -3.19
-1.96 -4.54 -0.02
-0.82 -4.66 -2.69
-3.03 -2.10 -4.06
-3.98 -3.77 1.49
0.03 -6.68 -1.00
-2.95 -2.67 -1.90
-4.21 -3.97 1.47
-6.03 0.65 -4.41
0.32 -4.88 -3.43
0.17 -5.18 -1.99
-1.57 -4.22 -3.05
-1.66 -3.43 -2.13
-4.21 -3.90 1.50
-2.18 -5.03 0.27
-2.62 -4.71 1.73
-2.16 -5.32 1.10
-5.69 -0.28 -1.56
-3.25 -2.81 -3.62
-1.76 -6.09 1.05
1.34 -5.66 -4.87
-3.97 -2.50 -2.20
-3.41 -4.76 2.74
-2.16 -6.15 3.52
-2.27 -3.55 -3.22
-6.25 -1.26 0.73
-0.33 -5.89 -1.37
0.09 -4.89 -3.27
-2.18 -3.99 -0.55
-3.12 -1.25 -4.28
-5.07 -2.35 0.07
0.10 -5.29 -3.51
-8.37 1.32 -1.70
-1.19 -2.21 -6.81
-2.88 -1.54 -4.72
-2.61 -4.39 -1.39
-1.98 -4.00 -2.01
-3.59 -0.73 -4.36
0.09 -2.85 -6.91
-1.99 -6.16 3.36
-4.25 -2.15 -2.05
-5.62 -0.64 -2.83
-6.40 0.10 -3.25
-2.84 -4.00 1.51
-6.25 -1.74 2.76
0.65 -4.21 -5.31
-0.94 -4.20 -3.93
-5.78 -1.97 1.44
-6.42 -1.99 1.98
-3.05 -1.49 -5.78
-4.93 -1.11 -2.81
-5.19 0.13 -3.20
-4.91 -0.95 -2.01
-4.10 -2.97 0.91
-5.51 -3.43 3.33
-4.56 -3.29 1.98
-2.03 -6.81 2.36
-0.61 -6.73 1.46
-7.07 -0.44 1.16
-5.74 -1.32 0.74
-4.45 -2.87 -0.79
-3.90 -3.88 1.37
-0.63 -3.79 -5.00
-4.34 -1.30 -2.84
-2.83 -3.77 -0.49
-0.11 -5.72 -1.33
-6.17 -0.74 -1.29
-4.11 -3.16 2.12
-4.19 -4.70 2.56
-5.28 -0.46 -3.41
-4.23 -3.03 -0.20
-4.14 -2.18 -1.69
1.26 -4.86 -5.35
0.46 -8.30 2.35
-4.00 -3.60 -0.12
-0.70 -6.72 0.41
1.91 -5.85 -5.37
-1.68 -2.45 -5.25
-2.59 -2.77 -3.23
-3.58 -3.51 0.56
0.68 -5.74 -1.67
-1.58 -5.21 -0.50
-4.29 -4.51 4.45
-4.92 -0.68 -2.53
-2.61 -4.01 0.11
-3.80 -0.32 -5.29
-5.06 -1.66 -0.51
-1.25 -5.06 0.83
0.84 -6.11 -4.51
-1.47 -5.26 0.22
-5.66 -1.07 -2.07
-2.30 -3.00 -2.39
-1.96 -2.94 -3.49
-1.92 -5.43 0.38
1.24 -6.19 -4.29
-7.45 -0.11 2.12
-0.95 -4.16 -2.74
-3.04 -5.30 1.81
0.14 -6.15 -1.67
-4.04 -2.32 -0.33
1.42 -4.54 -5.25
-1.18 -3.50 -4.35
-4.38 -3.29 -0.12
-1.49 -6.07 0.49
-5.73 0.57 -5.80
-0.35 -7.14 0.64
-4.59 -2.11 0.85
-0.57 -5.24 -1.20
-1.13 -3.75 -3.34
-3.02 -4.57 1.50
-3.36 -2.67 -1.24
-1.26 -3.57 -4.87
-1.64 -3.47 -3.75
-7.47 0.86 -0.96
-3.05 -1.70 -3.25
-2.23 -1.28 -7.02
0.61 -6.12 -2.44
-4.41 -3.02 -0.46
-2.31 -2.63 -4.60
-3.91 -3.31 0.51
-5.60 0.24 -3.51
-4.65 -3.12 1.85
-3.88 -3.70 0.27
-3.66 -2.15 -2.20
-3.69 -0.77 -3.37
-2.21 -3.65 -1.91
-1.00 -4.52 -1.24
-5.05 -3.94 3.10
-4.30 -3.56 0.53
-4.00 -3.06 -1.99
-2.50 -1.52 -5.06
0.02 -7.19 0.37
-0.94 -5.86 -1.57
-4.47 -0.02 -3.44
-1.42 -1.71 -5.73
-5.05 -0.65 -3.16
-3.44 -2.29 -1.36
0.86 -6.36 -1.95
-7.12 1.99 -4.19
-1.37 -2.34 -6.40
-5.10 -1.88 -1.38
-4.41 -3.51 2.15
-5.44 -1.68 0.49
-0.97 -6.09 -0.76
-1.43 -4.09 -2.44
-2.78 -4.81 1.44
0.08 -7.02 0.92
-1.99 -1.92 -5.17
-2.63 -4.25 0.83
-2.76 -4.74 1.24
0.52 -5.45 -4.01
-6.41 0.87 -3.89
-1.48 -6.29 2.60
-3.75 -0.79 -5.22
-2.41 -3.20 -2.51
-3.61 -4.48 1.13
-3.53 -1.06 -3.60
-3.13 -2.51 -2.01
-4.09 -2.04 -1.59
-0.71 -3.10 -4.66
-0.82 -6.69 1.76
-6.62 0.52 -4.29
-3.88 -2.35 -2.07
-1.86 -4.70 -0.41
-0.68 -4.04 -4.43
-1.65 -4.86 0.34
-0.34 -8.00 2.35
0.08 -5.06 -3.40
-1.93 -2.85 -4.44
-6.40 0.30 -3.13
-4.22 -2.63 -0.75
-4.47 -0.18 -5.38
-1.69 -3.45 -4.98
-1.43 -5.33 0.44
-2.03 -3.09 -4.01
-2.74 -2.41 -2.80
-4.61 -4.37 2.77
-4.64 -3.29 0.55
-4.42 -3.53 2.68
-6.53 -3.36 3.84
-3.89 -4.76 2.23
-6.12 -2.75 3.33
-4.10 -1.19 -2.17
0.03 -5.43 -2.90
-6.88 -1.22 0.86
-4.07 -3.54 -0.42
-2.18 -6.61 2.89
0.21 -7.03 -0.56
-5.51 -1.03 -1.57
0.77 -4.61 -4.24
-7.89 1.68 -2.15
-3.47 -0.26 -5.18
-2.25 -5.05 1.27
1.07 -4.49 -5.73
-2.12 -4.48 -1.36
-0.38 -3.53 -6.23
-3.03 -3.09 -2.52
-2.76 -5.54 1.52
-2.94 -3.64 -2.34
-3.35 -2.72 -2.47
-5.91 -0.92 -0.10
-6.47 0.60 -2.51
0.83 -6.18 -3.36
-3.74 -1.91 -3.16
0.17 -3.70 -4.56
-3.49 -1.37 -4.02
-0.02 -4.87 -4.85
-3.24 -5.27 2.93
-2.23 -4.26 -1.80
-6.12 -1.81 1.64
-3.77 -1.51 -3.16
-4.90 -1.38 -2.66
-1.34 -4.81 -1.81
-3.46 -1.35 -3.24
0.30 -3.95 -4.50
-3.91 -2.38 -0.59
-2.07 -5.01 -0.81
-1.87 -5.55 1.58
-3.33 -1.72 -3.87
-0.81 -2.15 -7.60
-3.95 -4.67 3.01
-4.82 -1.00 -1.59
-3.99 -3.43 0.19
-1.35 -4.75 -0.14
-3.01 -1.50 -4.90
-1.25 -6.33 1.23
-2.47 -4.28 -1.78
-6.33 -2.06 1.45
-0.87 -6.02 -0.02
-4.96 -3.16 2.87
-7.02 -0.10 -0.09
-2.19 -2.99 -3.94
-4.71 -3.75 1.64
-7.06 1.14 -2.71
-3.54 -3.16 -0.10
-1.31 -3.28 -5.55
-0.87 -3.58 -4.55
0.13 -6.55 0.03
-3.37 -3.18 -0.73
-1.91 -5.04 1.56
-2.56 -2.12 -3.94
-7.11 0.90 -2.23
-4.00 -4.63 1.82
-6.36 -2.07 2.84
-1.59 -4.68 -0.69
-2.24 -2.72 -4.20
-2.02 -5.32 2.15
-7.06 0.29 -1.72
-0.11 -3.92 -5.39
-7.74 0.73 -0.99
-5.84 -0.02 -2.17
1.10 -8.10 0.65
-6.74 0.57 -3.93
-0.05 -5.83 -1.02
-1.89 -4.31 -1.32
-4.19 -2.17 -0.95
-3.07 -5.55 3.28
-3.35 -3.20 -1.76
-2.49 -5.16 0.54
-5.87 0.83 -4.42
-2.95 -5.25 1.92
-3.74 -4.24 2.61
-3.56 -1.59 -4.33
0.65 -5.09 -5.19
0.44 -5.29 -2.66
-5.20 0.06 -4.02
-5.32 0.11 -2.98
-2.92 -0.80 -6.41
-1.95 -4.74 -0.75
-2.37 -2.82 -3.74
-0.85 -3.15 -5.26
-4.17 -1.88 -1.99
-0.85 -3.98 -2.05
-3.30 -5.18 2.54
-4.98 -2.72 1.23
-1.97 -2.58 -4.10
-0.72 -6.08 0.04
-1.68 -4.83 0.54
1.26 -8.52 -0.54
-0.27 -7.56 2.76
-1.61 -3.44 -3.91
0.66 -5.10 -5.14
-1.98 -4.63 -0.84
-1.99 -6.02 1.77
-0.20 -5.17 -4.37
-0.67 -6.98 2.36
1.69 -7.40 -2.69
-5.95 -1.91 1.63
0.39 -4.66 -4.11
0.22 -3.87 -5.36
-0.04 -5.70 -2.49
-4.09 0.00 -5.53
-2.85 -1.97 -5.07
-7.74 0.05 -0.21
-1.46 -4.57 -1.96
2.05 -5.94 -5.99
-0.84 -4.61 -4.10
-3.85 -3.17 -1.37
1.56 -7.62 -1.24
-1.55 -2.59 -5.04
-4.28 -2.48 -1.98
2.32 -6.31 -4.84
-2.71 -2.97 -2.36
-2.51 -2.39 -4.64
-2.87 -5.07 1.42
-5.50 0.72 -3.83
-4.78 -1.08 -2.45
0.58 -5.91 -2.50
-2.54 -1.14 -6.00
-4.45 -3.07 0.67
-4.13 -2.44 -1.33
-4.88 -1.59 -1.77
-4.93 -1.27 -0.54
-0.13 -6.77 1.31
1.63 -7.57 -1.11
-2.28 -4.03 -0.04
0.43 -4.41 -6.01
-1.01 -5.42 -0.70
-5.86 -0.27 -0.90
-5.97 0.98 -4.33
0.58 -5.55 -4.76
-1.94 -2.03 -6.14
-1.56 -6.31 1.31
-7.36 -0.45 1.68
-1.76 -3.32 -3.57
-2.10 -4.48 0.24
-1.07 -4.68 -0.65
-1.34 -4.97 -0.24
-5.66 -2.89 2.07
-0.48 -4.85 -2.04
-3.22 -3.75 -0.26
-2.36 -5.22 -0.42
-1.77 -1.07 -6.61
-0.67 -6.07 0.40
-5.14 -0.45 -2.58
-2.38 -2.95 -3.66
-4.78 -1.80 -0.58
-2.54 -2.80 -3.73
-6.88 -0.47 0.17
-6.90 1.58 -2.63
-0.11 -6.35 -1.59
-1.07 -4.89 -2.52
-6.55 0.20 -2.23
-4.70 0.55 -5.60
-3.88 -4.71 3.57
-3.24 -4.33 -0.14
-1.39 -6.45 1.06
-1.47 -4.70 -2.29
-5.66 -2.85 2.69
-2.78 -3.87 -1.44
-2.85 -1.32 -5.00
-2.54 -1.70 -5.54
-3.08 -4.52 0.79
-1.83 -5.02 -0.31
-6.37 -1.31 0.30
-3.22 -4.54 0.10
-2.98 -3.68 -1.13
-4.40 -4.27 2.83
1.20 -5.52 -4.45
-2.23 -0.73 -7.00
-1.52 -4.44 -1.76
-0.22 -4.26 -5.09
-4.98 -2.62 1.27
-4.15 -1.06 -2.74
-7.19 -0.19 -0.47
-6.71 0.48 -2.38
0.42 -6.49 -0.90
-5.80 -0.96 -2.01
-7.26 0.73 -2.24
-1.78 -6.30 2.56
-3.92 -3.38 0.56
-1.36 -2.87 -6.05
-4.39 -1.61 -2.48
-3.74 -3.54 -1.31
-4.96 0.91 -5.18
-3.81 -2.91 -0.24
-2.78 -5.39 3.43
-4.52 -3.09 0.68
-3.00 -5.42 0.94
-1.67 -4.56 -0.46
-3.50 -1.16 -4.10
-4.09 -2.19 -1.17
-0.95 -6.02 -1.74
-2.32 -1.66 -5.14
-2.42 -2.62 -3.72
-5.96 0.49 -3.71
-5.58 -2.84 3.07
-2.36 -5.17 1.33
-0.55 -4.45 -2.05
-2.53 -3.94 -0.93
-0.45 -3.62 -4.96
-1.00 -4.34 -2.01
-2.31 -2.33 -4.80
-0.56 -5.39 -1.35
-4.86 -4.94 4.03
-2.20 -3.17 -4.23
1.15 -7.72 -0.63
-1.66 -3.25 -4.36
-3.74 -2.43 -0.56
-5.34 -0.35 -2.59
-1.44 -4.64 -1.92
-4.43 -0.11 -4.76
-3.66 -4.87 2.82
-3.66 -2.51 -1.36
1.11 -6.86 -2.01
-3.10 -6.07 3.30
-0.20 -7.92 0.83
-0.61 -5.58 -1.10
-4.34 -1.56 -1.99
-2.99 -3.70 -0.76
-4.80 -0.43 -3.29
-3.83 -4.16 1.73
-4.70 -0.97 -2.81
-3.22 -0.00 -7.34
-0.74 -5.27 -2.84
-3.49 -2.34 -1.87
-7.36 1.16 -1.81
-0.47 -6.69 0.82
-4.44 -3.76 0.95
-2.82 -2.58 -2.35
-5.34 -2.83 2.34
0.44 -5.67 -1.85
-1.18 -5.41 0.00
-1.64 -2.18 -6.45
-0.34 -4.71 -4.39
-4.46 -0.84 -4.95
-1.79 -5.63 0.65
-5.50 -1.98 -0.40
-1.78 -4.53 -3.02
-2.62 -3.10 -1.36
-6.11 -2.47 2.43
1.16 -4.94 -5.30
-5.33 0.45 -4.77
-7.86 1.13 -0.49
-7.40 1.53 -3.12
-5.74 -1.28 0.31
-3.65 -5.03 1.86
-3.75 -2.93 -1.24
-0.61 -5.33 -1.12
-5.56 -1.50 -0.83
-6.97 -1.31 1.59
-1.74 -1.66 -6.13
-0.57 -6.67 1.62
-5.83 -0.54 -1.94
-0.82 -4.26 -3.51
-6.71 0.86 -1.94
-2.28 -4.97 -0.07
-2.42 -3.73 -1.53
-5.35 -2.95 0.91
-1.34 -4.09 -3.24
-0.00 -5.00 -3.42
0.50 -4.81 -6.29
-5.32 -0.28 -3.42
-8.03 -0.20 1.52
-4.62 -1.87 -1.56
-5.55 -1.76 -0.84
-8.25 -0.25 2.31
-7.34 -0.25 0.19
-1.60 -3.21 -4.50
0.08 -3.01 -6.09
-4.09 -1.68 -2.38
-2.44 -2.97 -3.18
-3.20 -3.81 -1.24
-4.91 -0.77 -2.13
-6.28 -2.17 2.03
-2.43 -2.62 -3.24
-1.31 -3.43 -4.86
-3.43 -2.63 -2.69
-5.19 -2.97 0.77
-6.20 2.13 -5.09
0.65 -3.94 -6.17
-0.61 -6.46 -1.05
-0.32 -4.14 -4.13
-1.61 -5.18 -0.39
-3.89 -3.08 0.01
-7.04 -0.15 0.17
-4.24 -2.31 -1.44
2.16 -6.68 -4.70
-7.72 0.51 -0.53
-4.68 0.16 -5.54
0.12 -4.85 -4.94
-2.55 -2.09 -3.60
-7.48 -0.20 1.58
1.46 -4.58 -5.73
-3.03 -3.69 -1.20
-4.60 -3.16 0.95
-6.37 -3.21 3.04
-2.10 -2.85 -3.26
-4.93 -2.01 -0.49
-2.12 -0.54 -6.90
-0.93 -3.96 -3.92
-3.61 -0.92 -4.64
-0.92 -2.94 -5.39
-4.92 -1.38 -1.92
-6.36 0.99 -3.23
-2.50 -1.20 -5.94
-2.68 -3.09 -1.96
-7.01 -1.38 0.84
-5.02 -2.82 1.64
-2.04 -4.39 -0.43
-7.69 1.12 -0.02
-1.77 -2.85 -4.34
-1.28 -2.88 -4.54
-0.26 -5.80 -1.38
-2.36 -6.59 1.86
-2.60 -5.87 3.79
-5.86 0.01 -2.98
-1.35 -2.36 -6.74
0.80 -6.52 -0.95
-1.83 -5.59 0.28
-0.41 -6.60 0.99
-3.85 -3.93 1.57
-3.38 -2.84 -1.62
-4.15 -0.74 -3.77
-2.42 -2.69 -2.10
-4.11 -2.47 -2.34
-7.51 -0.36 2.61
-3.74 -4.46 0.80
2.04 -6.84 -5.66
-5.75 1.18 -4.16
-1.97 -5.56 1.02
-4.03 -3.97 0.50
-7.58 -0.85 1.58
-5.35 -0.06 -2.19
-6.28 -1.10 -0.10
-1.42 -5.05 -1.32
-1.17 -5.76 -0.11
-3.36 -5.39 3.84
-3.98 -4.24 2.85
-5.31 -2.59 2.13
-4.08 -2.14 -1.84
0.61 -6.25 -2.25
-4.01 -0.67 -4.63
-1.05 -2.84 -5.11
-4.87 0.68 -6.12
-1.18 -2.91 -6.00
-4.31 -0.79 -3.82
-3.72 0.79 -6.30
-0.67 -6.95 1.17
-2.78 -3.80 -0.06
-5.51 0.96 -4.26
-2.56 -2.30 -5.41
-2.61 -3.30 -1.93
-3.22 -2.29 -1.83
1.28 -5.06 -5.28
-1.61 -3.16 -3.75
-7.44 0.37 -0.52
-3.93 -4.16 2.24
-4.34 -1.86 -1.84
-7.00 0.16 0.63
-4.30 -0.75 -5.59
-2.32 -2.68 -3.43
-2.52 -1.37 -7.39
-2.90 -1.78 -4.33
-0.87 -4.07 -2.08
-6.93 0.71 -1.54
-2.14 -3.27 -2.19
-4.93 -4.23 3.06
-2.56 -1.80 -5.38
-6.60 -0.91 1.34
-5.29 -2.77 0.90
0.92 -5.85 -3.76
-0.59 -6.40 -0.37
-2.05 -5.61 1.86
-0.68 -6.04 -0.91
-2.97 -5.35 1.37
-5.80 -3.02 3.78
-1.39 -3.39 -3.26
-4.55 -0.28 -4.76
-0.21 -3.67 -5.15
-1.89 -2.74 -5.67
-1.53 -4.84 0.16
-1.87 -3.78 -2.99
-1.95 -6.76 3.33
-4.69 -2.11 0.17
0.36 -6.70 -0.52
-2.55 -4.56 0.86
-3.58 -4.56 3.03
-2.15 -5.63 0.62
-3.82 -0.71 -4.98
-2.11 -4.82 -0.63
-4.55 -1.69 -2.26
-6.23 -0.05 -1.38
-5.37 0.57 -4.65
-2.27 -5.27 1.92
-5.94 -1.34 1.08
-5.18 -2.93 2.49
-5.86 -0.51 -1.13
-2.44 -1.57 -5.21
-5.87 1.33 -4.25
-6.62 -2.32 2.60
-2.87 -2.98 -1.17
-3.23 -3.31 -0.94
-3.62 -4.10 1.35
-0.50 -3.66 -3.85
-2.95 -2.75 -3.45
-1.48 -1.88 -5.71
-1.88 -5.16 0.32
-5.23 -0.09 -1.92
-6.49 -0.89 0.94
-2.19 -5.01 0.29
-1.60 -6.42 1.62
-3.80 -1.83 -3.43
0.94 -8.42 1.40
0.32 -4.53 -3.40
0.12 -5.19 -3.52
-7.47 -0.83 1.89
-3.12 -2.40 -2.75
-1.81 -4.07 -1.39
-1.21 -5.55 0.18
-4.14 -2.47 -1.20
-5.15 -1.75 -0.28
-1.57 -1.23 -6.67
-6.45 -0.55 -0.62
-2.69 -3.56 -0.49
-4.35 -3.41 2.12
1.52 -5.20 -6.34
-4.85 0.99 -5.86
-6.27 -0.31 -1.12
-5.19 -2.86 2.44
0.77 -8.43 1.28
-0.60 -5.83 -1.66
0.29 -6.84 -0.61
-6.05 -0.89 0.39
-2.31 -4.18 -1.19
-1.87 -1.38 -7.19
-2.38 -2.84 -2.78
-2.18 -3.33 -3.72
-0.79 -6.75 0.85
-1.70 -5.46 -0.63
-4.24 -4.41 2.71
-3.29 -3.36 -0.17
-0.21 -4.88 -2.60
-4.29 0.60 -5.35
-3.42 -1.94 -2.68
0.44 -4.80 -3.64
-3.48 -2.21 -3.22
-4.02 -3.19 0.19
-7.14 -0.20 0.67
-0.70 -5.08 -2.28
0.65 -6.18 -2.79
-2.44 -3.02 -2.71
-0.13 -8.09 2.55
-3.94 -4.12 1.27
1.25 -6.28 -5.11
-1.60 -4.63 -2.06
-3.73 -2.51 -0.87
-4.32 -2.27 -1.33
-2.56 -2.50 -1.83
-0.83 -4.14 -3.28
-5.34 -1.05 -2.45
-1.45 -4.99 -1.76
-2.22 -4.02 -1.96
-3.28 -3.47 0.02
-0.24 -2.35 -7.43
0.39 -5.33 -3.10
-3.21 -3.27 -2.66
-3.85 -3.07 0.27
-0.74 -3.38 -4.12
-1.26 -4.93 -1.76
-2.30 -2.07 -5.34
-4.59 -3.98 3.67
-6.72 -0.61 0.26
0.06 -3.87 -4.86
-3.46 -0.62 -5.51
-3.51 -1.31 -4.50
-0.96 -5.63 -1.43
0.68 -6.08 -3.25
-2.28 -4.60 0.27
-2.40 -2.95 -2.61
-6.61 -1.40 1.68
-2.16 -2.63 -3.85
-1.27 -4.62 -3.33
-1.11 -4.49 -2.96
-3.45 -2.68 -1.08
-3.96 -2.05 -2.09
-7.76 -1.18 1.44
-5.00 -2.14 -0.08
-1.12 -3.56 -5.18
-0.34 -4.50 -4.07
1.32 -5.37 -5.31
-4.35 -2.94 1.48
-6.11 0.00 -3.88
-6.99 -2.05 3.16
-2.50 -3.96 -0.40
-6.14 -1.85 0.10
-2.15 -3.64 -1.89
-1.60 -2.13 -6.18
-2.32 -2.57 -4.88
-3.77 -2.25 -1.88
-2.20 -2.97 -1.73
1.86 -6.73 -3.54
-1.91 -3.45 -4.60
0.50 -7.14 -0.83
-4.38 -0.10 -3.83
-5.40 -2.04 1.19
-7.34 1.72 -2.88
-0.82 -6.24 -0.39
-2.73 -4.30 0.97
-0.34 -8.62 3.32
-2.44 -2.59 -3.01
-2.78 -4.17 -0.21
-2.19 -4.49 0.37
-6.53 0.42 -1.48
-2.62 -3.46 -2.86
-1.98 -2.58 -3.23
-3.35 -2.31 -1.75
-4.90 -1.59 -1.23
-3.01 -3.56 -2.19
-1.12 -3.06 -6.86
-3.84 -1.27 -5.09
-3.32 -1.94 -3.15
-5.13 -3.26 3.28
-0.99 -6.35 1.82
-3.79 -3.14 -1.16
2.19 -6.00 -5.52
-0.45 -4.99 -2.31
-1.17 -6.47 1.44
-6.45 -0.71 -0.54
-0.82 -5.23 -0.43
-4.96 -3.64 1.53
-1.32 -6.45 0.90
-3.91 -0.84 -3.91
-3.30 -3.12 -2.42
-3.46 -2.97 -0.94
-6.21 -1.04 1.14
1.16 -5.13 -4.14
-7.50 0.63 -1.61
-1.61 -5.32 0.50
-4.38 -1.56 -3.47
-7.30 0.43 -0.35
0.39 -6.75 -0.50
-4.20 -3.85 0.99
0.64 -6.42 -2.47
-2.62 -4.31 -1.45
-7.15 -0.66 2.70
-2.00 -5.95 1.92
-0.33 -5.48 -1.82
-7.64 -0.38 0.37
-2.92 -1.52 -3.64
-1.69 -2.67 -5.50
-2.54 -5.82 0.94
-4.05 -3.41 0.32
-4.10 -3.82 1.76
-5.59 1.35 -5.16
-1.69 -6.25 1.83
-0.43 -5.23 -2.41
-5.31 -1.11 0.27
-3.16 -1.01 -6.20
-5.90 -1.65 -0.67
-3.22 -4.75 3.04
-4.41 -1.71 -1.14
-5.22 -1.36 -0.10
-3.66 -1.75 -4.30
-0.60 -6.85 0.34
-3.54 -3.87 1.79
-6.16 0.79 -3.47
-2.32 -4.29 0.23
-2.06 -1.52 -6.49
-5.23 -0.78 -0.52
-2.18 -3.68 -3.09
-0.69 -5.03 -3.48
-3.91 -1.61 -3.76
-0.38 -4.29 -3.02
-2.12 -5.10 1.00
-1.68 -5.15 -0.86
1.28 -5.87 -4.49
-1.73 -3.84 -3.00
-2.95 -4.38 -0.07
1.50 -5.21 -5.19
-1.13 -4.66 -2.49
-8.22 0.17 1.31
-4.62 -1.36 -2.16
-3.86 -2.72 -0.40
-2.73 -4.73 -0.97
0.36 -3.91 -5.62
-3.70 -2.72 -0.76
-4.10 -3.04 0.13
-8.10 -0.53 2.08
0.03 -6.85 -0.75
-3.16 -1.96 -2.71
1.80 -5.91 -6.28
-2.59 -3.87 -1.69
-1.32 -3.31 -4.18
-1.38 -1.70 -7.63
-5.34 0.02 -3.67
-7.14 -1.26 0.71
-0.17 -5.66 -2.01
-4.91 -0.67 -2.33
-4.92 -1.17 -2.56
-3.03 -2.81 -1.15
-2.55 -3.59 -0.89
2.53 -7.54 -3.62
-6.26 -0.46 -1.27
-1.96 -1.02 -6.91
-0.05 -4.97 -4.65
-3.66 -1.53 -3.16
-5.16 0.58 -5.08
-3.78 -1.81 -2.18
1.81 -6.02 -4.93
-1.95 -2.68 -5.43
-0.41 -3.36 -6.08
-1.34 -2.84 -5.03
-5.92 -1.20 -0.09
-1.16 -1.80 -8.01
-3.25 -1.90 -1.90
-1.76 -5.24 1.03
-1.98 -3.57 -3.17
-3.32 -4.32 0.64
-1.27 -6.22 1.82
-2.66 -2.00 -4.33
-8.09 0.46 2.12
-2.63 -3.14 -1.33
-4.11 -2.42 -0.64
-3.78 -1.84 -4.12
-1.91 -1.97 -4.38
0.77 -4.85 -5.08
-4.39 -3.23 0.45
-3.92 -3.81 1.27
-2.97 -2.15 -2.86
-5.68 -1.66 0.34
-6.50 -2.74 2.89
-4.10 -3.21 0.93
-3.05 -0.17 -6.89
-1.72 -3.36 -2.91
-3.63 -1.14 -3.25
0.37 -3.76 -6.12
-4.67 -2.73 0.97
-5.19 -1.36 -1.45
-2.35 -1.75 -4.12
-0.78 -5.27 -2.48
-7.20 -1.48 2.23
-5.57 -2.74 1.93
-2.34 -2.33 -5.28
-5.57 -2.37 0.42
-5.48 0.39 -3.30
-7.98 -0.06 1.34
-8.32 0.62 0.94
-3.36 -2.18 -1.56
-2.73 -4.77 0.87
-0.03 -7.45 2.10
-5.13 -0.24 -3.81
0.33 -4.53 -5.34
-5.93 -1.16 0.42
-4.28 -3.06 0.07
-1.58 -5.76 2.47
-3.13 -2.68 -2.23
-3.44 -2.87 -3.24
1.64 -6.70 -3.44
-6.90 0.15 -0.44
0.04 -3.43 -4.93
-1.41 -3.90 -2.98
-0.57 -5.65 -0.61
-1.76 -5.54 0.19
-4.06 -3.82 0.69
-4.63 -4.77 3.98
-0.39 -5.22 -1.66
-7.19 -1.28 0.52
-4.02 -1.26 -2.66
-4.73 -3.23 1.24
-0.72 -6.46 -1.57
-3.02 -5.79 2.65
-0.71 -3.97 -5.20
-2.69 -3.58 -2.38
-4.30 -2.41 -0.52
-5.20 -0.24 -2.25
-4.17 -0.74 -4.35
-8.34 -0.76 3.05
-6.56 -1.45 1.93
-5.21 -0.09 -4.56
-1.29 -5.19 -1.88
-3.02 -1.89 -2.85
-0.20 -4.08 -4.99
-0.51 -4.16 -4.32
-2.22 -3.23 -2.55
-5.25 -1.77 -1.16
-6.48 0.26 -1.23
-5.16 -1.00 -1.11
-3.10 -3.21 -2.08
-0.47 -4.56 -3.22
-4.30 -4.01 1.80
-3.30 -0.70 -5.30
-3.28 -2.67 -1.24
-5.71 -2.64 2.56
-6.27 -1.68 1.13
-1.39 -4.95 -2.25
0.90 -7.42 -1.13
-3.35 -2.01 -2.77
-2.92 -4.13 0.86
-0.31 -6.47 -0.78
0.26 -7.68 1.45
-1.74 -4.11 -0.86
-4.00 -0.75 -4.30
-5.16 -1.45 0.73
-5.01 -0.43 -4.35
-0.34 -5.18 -2.65
-2.75 -3.07 -2.49
-3.08 -3.75 -0.29
-2.91 -1.95 -5.77
-1.35 -5.39 0.79
-5.82 0.54 -2.80
-1.21 -3.78 -3.30
-0.64 -5.15 -2.47
-1.49 -2.53 -5.68
-1.32 -2.94 -4.41
-5.56 -2.68 1.98
-2.28 -6.21 3.68
0.99 -7.32 -1.13
-4.35 -1.82 -2.81
0.49 -7.23 -0.53
-1.70 -2.47 -4.52
-6.74 -2.30 3.10
-4.87 -1.74 -1.43
-3.32 -4.44 1.34
-1.96 -3.22 -4.96
-1.86 -3.94 -2.42
-7.16 0.30 -0.48
-2.91 -4.62 -0.32
-2.70 -3.32 -1.87
-2.62 -2.86 -2.41
-5.94 -0.14 -2.51
-2.80 -4.35 1.07
-5.18 -0.16 -2.77
-2.19 -4.72 -0.03
-0.33 -3.53 -5.50
-2.18 -3.54 -3.22
-3.45 -1.28 -5.09
-4.42 -2.07 0.17
-0.06 -6.48 0.90
-0.37 -6.83 -0.01
-3.21 -0.88 -4.63
-3.28 -4.42 1.69
-4.37 -2.84 0.94
-0.87 -4.54 -2.81
-3.36 -4.25 0.24
-5.35 0.33 -5.54
-5.64 1.35 -5.76
-3.27 -2.85 -2.47
-1.64 -4.15 -2.09
-2.40 -2.37 -5.43
-2.75 -3.42 -1.55
-6.46 1.26 -1.84
-6.43 -0.44 -1.03
-2.92 -6.38 3.04
-2.75 -1.07 -6.57
-5.18 -2.61 -0.33
-2.47 -1.75 -5.30
-2.91 -2.92 -1.66
-2.35 -4.70 1.25
-5.70 -0.02 -1.54
-3.11 -5.26 1.50
-5.94 -2.40 1.22
-2.46 -3.29 -3.69
-5.13 -4.52 3.72
-4.54 -0.55 -3.45
0.47 -4.07 -6.50
-6.46 -2.22 2.87
-4.29 -4.62 2.99
-7.21 -1.95 2.82
-4.89 0.29 -5.76
-5.53 -2.03 0.12
-2.37 -0.91 -6.18
-4.41 -4.26 1.99
-2.66 -2.56 -3.62
-3.59 -1.32 -3.92
-1.65 -4.99 -1.45
-6.93 -0.40 2.16
-3.39 -4.61 1.43
-0.89 -5.40 -0.14
0.73 -7.18 -1.47
-3.06 -4.02 -0.63
-2.07 -5.33 0.87
-2.31 -2.07 -4.52
-2.17 -6.43 2.48
-3.37 -3.36 -0.41
-1.22 -2.31 -6.61
-4.25 -0.62 -5.24
-6.80 -2.12 2.75
-4.36 -2.92 -1.20
-4.16 -3.33 0.26
-1.79 -4.31 -0.21
-1.38 -6.81 2.88
