ply
format ascii 1.0
comment Made by Nomoko
element vertex 3000
property float x
property float y
property float z
end_header
-1.17 0.98 1.33
1.71 3.63 0.99
-3.66 4.25 -1.82
2.94 0.55 4.64
-1.71 1.69 0.05
-3.96 3.47 -1.78
0.78 0.12 3.20
-1.50 0.79 1.06
-5.36 -0.38 0.10
-4.98 -3.11 1.75
-2.82 -1.18 1.35
-2.70 -0.15 2.23
1.34 4.08 0.64
-6.27 -1.58 0.28
-2.55 0.13 0.41
2.39 -2.12 5.36
-4.98 -0.74 0.37
-0.76 1.95 1.02
0.25 3.79 0.22
0.87 -2.81 5.52
-2.02 3.84 -0.95
-1.60 -0.82 2.84
-3.18 -3.83 3.31
-1.94 2.73 -0.67
2.19 3.79 0.85
2.28 -0.40 4.12
-6.75 -2.71 1.59
0.91 2.39 1.23
0.40 -1.07 3.49
-4.80 0.26 -0.73
-4.84 -2.16 1.95
2.62 -1.22 5.13
-2.09 2.41 0.05
-0.33 -0.14 2.21
1.32 -3.56 5.52
-3.11 -3.91 3.53
-5.36 -3.10 2.26
1.60 4.19 0.24
0.86 2.45 1.80
-0.67 3.25 -0.09
0.04 3.86 -0.69
0.89 4.27 0.70
-4.50 3.71 -2.63
3.36 1.40 2.99
-5.16 -0.16 -0.31
2.86 3.31 1.91
3.53 -2.51 5.85
-5.55 -0.64 0.25
-3.29 -1.99 2.13
-1.16 0.57 2.11
-1.76 4.34 -1.54
1.53 5.59 0.10
-1.89 -2.06 3.77
-1.99 -1.49 2.85
-0.41 1.08 1.17
-6.48 -0.19 -0.70
-5.11 0.69 -0.44
-1.80 4.49 -1.54
-2.93 1.43 -0.39
-1.47 3.79 -1.45
0.99 0.34 2.68
-3.08 4.09 -1.59
2.07 -0.40 3.81
3.45 0.95 3.77
-3.25 -0.80 0.91
-3.74 2.14 -0.61
-0.75 0.84 1.62
1.99 0.36 3.87
-1.24 3.50 -0.51
2.85 4.51 0.77
3.51 3.55 2.21
0.78 0.94 2.10
0.34 2.31 1.00
1.14 0.47 2.51
-2.07 0.67 1.05
0.31 -3.41 5.71
-0.20 4.47 -0.63
-0.77 -0.46 3.12
2.15 2.16 1.63
0.30 6.22 -1.93
-5.11 0.35 -0.21
2.89 3.10 1.41
3.66 -0.50 4.79
-1.12 -4.20 4.54
0.27 -3.12 4.85
-3.74 3.44 -1.25
-1.52 -3.15 3.59
1.51 -1.53 3.97
2.40 -0.62 4.53
-6.60 -1.66 0.37
-1.66 0.24 2.11
2.18 6.29 -0.03
-0.67 1.22 0.76
2.84 4.84 0.24
-2.34 0.24 0.84
1.30 4.20 0.26
2.13 3.44 1.12
4.06 2.84 2.77
1.31 1.56 2.06
-2.75 0.09 1.05
-4.74 0.35 -0.86
4.92 4.49 2.15
-3.03 5.31 -2.51
-0.04 3.25 0.75
-6.35 -1.75 0.88
-4.29 0.24 -0.23
-2.06 3.07 -0.78
-0.22 1.97 0.88
1.10 0.03 3.25
-2.76 -2.14 2.47
-0.19 -0.73 2.84
1.63 1.28 2.26
-2.30 -1.00 2.43
-2.69 -0.18 0.84
0.74 -1.22 4.05
2.33 6.03 -0.88
2.81 -2.99 6.69
-2.21 1.89 0.59
0.61 2.59 0.50
3.20 2.77 2.57
1.85 1.84 1.95
1.43 4.60 -0.15
3.80 0.45 3.55
4.24 2.30 3.83
-1.90 -0.12 1.36
-1.50 -0.07 2.01
-2.34 -1.07 2.15
2.09 5.55 -0.22
3.49 -2.38 5.34
-0.15 3.81 -0.50
-0.23 -3.04 4.25
2.24 1.55 2.86
-0.98 0.93 0.82
0.04 2.14 1.35
1.03 0.75 2.20
-1.39 -1.80 2.76
-0.90 -2.21 3.91
-1.49 -3.32 4.33
-0.26 -2.01 4.22
2.09 -0.33 4.47
2.59 2.57 2.64
0.76 -1.73 4.29
-1.36 1.82 0.88
2.80 6.06 -0.19
1.07 6.58 -0.70
2.20 -3.69 5.83
-0.97 1.27 2.04
4.96 2.10 3.09
-1.01 -3.09 3.81
-2.72 -1.89 1.98
1.48 5.49 0.11
-3.48 3.82 -1.99
1.85 3.52 0.85
0.99 -2.29 4.81
-4.97 0.48 -0.58
-6.26 -1.75 0.59
4.68 -1.46 6.01
-3.26 -3.01 2.79
5.10 3.99 2.69
0.80 2.67 0.78
-3.09 3.17 -1.69
2.84 0.90 3.50
-2.82 3.46 -0.80
-0.83 2.64 -0.28
2.79 3.18 1.88
1.30 5.67 -1.19
1.19 6.18 -1.11
-3.42 -4.63 4.21
-2.24 -3.57 3.92
3.51 3.81 2.02
-3.38 0.98 -0.11
-1.10 0.84 2.18
-5.46 -0.87 0.33
-4.97 -2.89 1.32
-0.63 1.52 0.88
-0.56 -1.88 3.42
-2.37 -4.00 4.00
2.22 0.91 3.51
-2.60 2.70 -0.78
-2.48 -2.35 2.45
0.44 -0.32 3.09
0.85 -2.96 5.32
0.98 -1.35 4.50
0.58 3.97 0.20
-2.62 2.18 -0.17
1.82 2.65 1.88
3.66 0.18 4.70
-0.43 -4.16 5.22
-2.21 -3.74 4.73
-3.22 -3.20 2.69
-4.42 2.11 -0.71
-2.96 2.58 -0.41
2.78 -0.07 4.62
-2.88 4.83 -2.64
1.96 0.17 2.89
-0.57 -0.72 3.21
0.87 3.45 0.78
0.64 5.13 -0.45
-3.14 2.94 -0.80
3.76 4.22 1.15
-4.82 -3.38 2.29
-2.33 1.15 1.02
-2.35 1.02 0.77
2.01 0.91 2.61
-5.55 -1.80 0.47
-0.29 -2.39 3.61
0.07 2.55 1.07
-2.09 -3.08 4.15
-2.14 2.63 -0.24
-2.42 2.80 -1.21
-3.87 1.77 -0.35
0.22 -1.72 4.23
1.05 -0.80 3.80
-2.40 1.62 1.09
1.79 5.82 0.07
1.60 3.65 0.85
-3.37 2.06 -0.15
2.10 4.54 0.23
1.63 5.73 -0.14
0.57 1.15 1.79
-0.01 5.88 -1.67
3.23 1.43 2.47
-0.90 -2.50 3.30
1.14 -1.29 4.59
-4.35 -3.36 3.35
-3.04 1.81 -0.04
2.95 2.68 2.25
-5.51 2.38 -1.26
-0.24 5.33 -1.38
-0.59 3.34 0.09
0.84 -1.13 4.30
0.58 -1.30 3.72
-5.18 -0.50 0.04
0.01 3.33 -0.09
1.96 -1.28 4.49
2.89 -1.98 5.66
-1.01 -3.17 4.64
2.65 3.05 2.00
-0.40 4.52 -0.46
-0.69 2.05 0.87
-2.51 1.32 1.36
-1.67 0.73 1.14
3.95 1.14 4.03
-0.71 6.03 -2.68
-1.93 3.81 -1.57
4.06 4.39 1.59
2.08 3.71 0.70
-3.84 1.29 -0.22
-2.16 -3.85 4.03
0.22 3.43 0.35
-2.39 -2.26 2.97
-0.84 -3.17 3.67
1.48 0.13 3.53
-1.29 -1.68 3.18
-3.47 2.34 -0.52
3.75 2.31 2.59
-0.71 0.78 1.47
2.92 3.41 0.91
3.08 1.34 3.36
3.56 -3.04 6.63
-3.14 3.10 -1.64
3.15 2.82 1.83
-0.21 -1.60 3.80
2.43 1.73 3.20
-4.95 5.08 -3.36
0.35 2.19 0.86
0.81 3.19 1.17
3.51 2.45 2.57
-6.08 -0.36 0.02
1.17 -2.22 5.07
-0.34 0.11 2.58
-2.13 2.49 -0.55
2.82 5.67 0.46
1.77 1.05 2.90
3.44 -2.94 6.46
-0.47 -1.78 3.39
2.64 6.00 -0.30
2.25 1.46 2.11
1.74 -1.99 5.24
-4.44 1.31 -0.92
-1.18 -0.69 3.13
-4.69 2.74 -1.52
-2.83 -1.53 2.55
-3.58 3.09 -1.46
-2.49 -0.84 2.07
-3.59 -0.86 1.69
1.42 5.08 -0.37
3.69 1.62 2.83
-3.30 2.51 -1.46
2.57 3.01 1.65
3.31 -2.34 6.67
-2.90 0.22 0.77
1.34 2.07 1.68
-6.43 -1.28 0.66
0.25 -0.40 3.38
-3.87 -1.30 1.27
-2.24 5.14 -2.08
-0.52 4.98 -0.58
1.87 1.14 3.17
3.29 2.40 2.83
1.57 -2.68 5.40
-2.91 -0.22 0.76
-0.93 1.40 0.40
0.67 -1.11 3.45
2.74 4.17 0.52
-1.06 1.49 0.89
-1.82 3.04 -0.93
-3.18 3.34 -1.21
1.26 1.62 2.84
-3.29 0.13 0.58
-3.05 -1.00 1.91
1.63 4.11 0.34
-6.67 -1.61 0.76
5.01 3.04 3.05
-5.32 1.23 -0.66
-0.24 -0.40 2.63
-0.08 1.72 1.06
0.70 0.97 2.74
-4.64 -2.93 1.81
-0.44 0.11 1.80
-2.38 -2.68 2.92
-4.59 5.05 -2.70
0.38 2.69 1.44
-3.48 -1.41 1.87
-2.79 -2.16 2.02
-2.84 4.14 -2.04
3.28 -1.06 5.44
-2.39 2.43 0.20
0.88 -1.80 4.90
-2.93 -0.60 1.05
-4.10 -3.58 3.11
2.29 3.71 0.71
-4.15 -2.01 1.42
-1.02 -3.22 4.70
0.37 2.95 0.77
2.67 1.38 2.87
-5.12 -1.55 0.90
1.09 0.75 2.49
0.94 -0.20 3.63
-4.86 0.70 -0.50
-1.35 2.53 0.28
3.15 3.99 1.52
-1.44 -0.63 2.68
-6.21 -0.02 -1.01
1.77 4.01 1.44
0.06 0.46 2.21
-3.76 -0.51 1.04
-0.34 1.54 1.31
-4.29 -1.27 1.36
-1.54 -2.69 2.95
-3.63 0.50 0.52
3.52 3.47 2.08
2.28 2.79 2.69
-2.55 2.49 -0.77
-0.55 1.65 0.55
-3.78 0.17 1.32
-1.46 -0.78 2.56
-0.73 1.58 1.24
-1.29 0.78 0.92
-5.16 2.75 -1.70
1.30 0.58 3.55
0.12 -1.05 3.79
-3.35 -1.60 1.84
-1.54 1.81 1.12
-3.47 1.97 -0.19
0.95 -1.98 4.12
1.05 2.95 1.01
1.70 5.61 -0.12
3.12 1.57 3.06
-5.26 3.03 -1.32
-0.31 0.88 2.53
-0.33 0.75 1.31
-4.15 5.29 -3.23
-1.92 3.41 -1.48
-2.01 0.46 1.60
4.81 4.19 2.43
-1.94 1.13 0.84
-0.01 0.68 2.02
0.66 -2.23 3.98
2.68 -0.40 4.30
2.54 -1.42 4.79
-1.03 -1.35 2.74
-4.70 -1.30 0.69
-5.01 1.41 -1.22
-2.40 2.21 -0.14
1.73 -0.14 3.46
-1.66 2.53 -0.54
-2.44 0.55 1.27
2.28 -0.94 4.23
1.61 1.60 2.21
1.43 2.83 1.57
-3.36 0.39 0.51
1.81 -0.24 3.77
-1.19 -2.03 3.36
-1.16 -0.35 2.16
0.35 4.79 -0.45
0.65 2.35 1.69
-0.44 0.59 1.78
3.10 -0.57 4.35
-0.63 0.57 2.54
2.68 3.27 1.73
3.29 3.15 2.18
-5.16 5.24 -3.48
-4.53 -4.07 3.06
2.85 0.71 3.48
-3.84 0.54 0.46
-0.27 3.15 -0.17
-2.12 -0.44 2.40
-0.77 -1.24 2.50
-0.67 0.13 2.25
-3.50 -0.61 1.57
1.68 3.07 1.22
-2.04 -1.71 3.03
2.35 2.85 2.26
2.29 -2.14 5.11
-6.09 0.79 -1.29
0.48 6.22 -1.44
-0.76 0.80 1.61
2.27 6.76 -0.47
1.44 -1.24 4.23
-4.65 -1.85 1.67
2.31 2.61 2.15
-4.50 1.20 -0.34
-0.85 4.98 -1.97
0.53 2.86 1.46
-1.97 1.53 0.75
3.21 1.28 3.85
0.10 2.16 1.20
1.69 1.71 1.76
-0.94 -2.30 3.56
2.32 -1.83 5.08
2.71 2.65 1.75
1.67 1.85 2.36
1.31 4.04 0.97
3.23 -0.79 5.51
-1.30 2.18 -0.24
0.01 2.65 1.53
-3.09 -1.38 1.84
0.80 3.69 0.15
0.80 -0.76 4.20
-3.12 2.01 -0.77
-2.20 2.87 -0.60
-3.96 4.75 -2.37
3.41 4.83 0.69
2.51 1.72 2.39
0.01 -0.93 4.09
1.85 2.03 2.60
-2.95 -3.83 4.16
1.08 -1.52 3.99
0.42 -1.45 3.73
1.52 3.93 0.16
-1.90 -3.81 4.48
-4.87 -2.23 1.89
-3.21 -2.35 2.07
-1.53 -0.92 2.56
2.85 2.70 1.75
-0.92 -1.96 3.89
-2.81 -0.65 1.99
0.93 -1.33 4.03
1.54 2.55 2.04
-2.32 1.12 0.67
-4.98 -0.31 0.65
-3.05 -2.73 2.82
-2.22 0.89 1.07
2.13 -0.38 3.47
1.87 -1.84 4.72
0.36 -0.19 2.70
3.63 -1.59 5.73
-3.59 1.34 0.29
-1.06 0.78 1.51
2.45 6.86 -1.10
-2.51 4.55 -2.01
-4.94 -0.47 0.29
-3.65 3.46 -1.55
-0.83 0.92 1.49
-1.59 3.44 -1.08
-0.61 1.50 1.21
-5.34 -0.55 0.87
-0.41 -1.74 3.82
-3.70 -0.92 1.24
-3.10 5.17 -2.63
-4.79 -0.68 0.69
3.25 -2.83 6.36
-0.49 -0.56 3.27
-3.87 1.84 0.13
-3.73 -2.21 2.52
-0.27 1.10 1.91
-4.69 2.95 -1.40
-5.06 -3.53 2.63
-0.71 2.27 0.30
2.49 1.82 2.33
2.09 2.33 1.94
2.32 4.69 0.36
1.70 1.86 1.83
3.38 4.42 1.73
-3.70 -0.23 0.91
0.82 4.02 0.48
3.14 0.43 4.28
0.78 3.13 0.79
0.19 0.70 2.69
2.05 1.52 2.06
0.15 3.70 0.46
0.53 -1.20 3.21
-1.33 -0.12 1.73
-3.74 4.73 -3.14
-3.16 1.99 -1.23
-0.61 2.27 0.16
-6.00 -0.77 0.77
-5.53 -1.65 0.58
-4.71 2.64 -1.67
-1.50 -3.57 4.70
1.92 0.18 3.40
0.99 1.71 2.41
-1.73 5.61 -1.85
-4.25 -0.57 1.16
-4.16 -0.65 0.74
-4.34 0.13 0.02
0.47 3.08 0.61
-0.64 -2.64 3.78
1.05 -2.37 5.13
0.95 -1.40 3.73
2.67 -0.67 4.41
-1.55 -2.29 3.96
1.45 0.58 3.05
1.27 -3.42 5.86
1.37 -1.09 3.73
1.24 6.76 -1.73
-2.85 2.91 -1.07
-3.05 2.10 -0.19
-2.82 3.70 -0.45
0.94 -1.92 4.75
-0.31 0.26 1.68
-5.92 0.09 -0.78
2.07 -1.78 4.53
3.74 3.25 1.89
-0.52 3.39 -0.35
-5.28 -1.92 1.93
-2.17 1.43 0.58
-1.07 -1.14 3.43
-2.11 1.93 0.52
-3.84 3.57 -2.03
-3.14 3.28 -1.58
-5.08 -4.43 3.00
-0.65 -0.44 2.77
4.47 1.05 4.13
-2.48 2.91 -0.59
2.45 5.69 -0.88
-5.14 1.56 -1.37
1.77 5.14 0.33
-3.39 3.24 -1.80
-2.07 -0.37 0.97
-0.83 -4.58 5.26
1.09 0.04 2.59
-0.61 6.40 -2.48
-5.70 0.34 -0.58
-3.94 1.94 -0.71
-4.06 1.30 -0.59
1.80 1.06 3.11
2.05 1.82 2.04
1.42 0.31 3.02
0.73 -1.31 4.11
0.90 2.49 1.21
-2.80 4.09 -2.53
-1.96 3.03 -0.41
3.84 2.90 2.99
-1.84 5.52 -2.00
-1.78 0.15 0.99
-0.84 2.90 0.02
-2.82 2.51 -0.87
-4.93 4.29 -2.35
-1.83 1.52 -0.03
-1.35 2.01 -0.08
2.54 2.31 2.05
-4.31 -0.45 0.31
2.31 3.29 1.87
0.52 -1.51 4.33
-1.40 -3.97 4.49
-1.86 2.79 0.29
0.88 0.08 3.36
-1.68 2.26 0.33
-1.83 0.57 0.44
-2.67 -0.50 1.30
1.96 0.58 3.48
-2.17 1.41 0.72
-1.15 3.00 0.62
2.97 2.48 2.73
0.39 0.23 3.20
0.95 6.17 -1.06
-1.72 1.38 0.95
-5.10 0.18 -0.39
0.49 2.18 2.01
2.15 -0.94 3.85
-1.71 1.65 0.44
1.95 1.45 3.02
1.63 3.17 1.57
-0.30 -0.32 3.25
-2.36 -3.04 3.42
2.58 -1.73 5.92
1.68 -0.31 3.76
-2.82 0.01 0.87
0.74 0.85 2.13
1.97 3.92 0.08
-5.59 1.43 -1.57
3.00 -2.20 6.05
-3.27 -3.32 3.86
1.00 -1.85 4.95
3.23 -1.41 5.14
2.55 4.80 0.96
2.16 5.09 0.56
4.32 -0.49 4.89
-0.96 0.17 2.73
-4.17 3.60 -1.62
1.84 2.82 1.72
-1.10 -0.22 2.68
0.67 1.64 1.72
3.68 -0.26 4.61
0.57 4.74 0.01
4.47 0.62 3.78
-2.49 0.21 0.81
1.81 3.80 1.23
0.94 1.06 2.42
-1.07 2.32 -0.28
-2.09 2.04 0.47
-4.16 1.54 -0.48
-2.00 -1.89 2.83
3.52 3.25 1.80
-0.42 5.76 -1.20
0.98 2.61 1.70
-4.69 2.56 -1.18
-1.31 -0.67 2.84
1.23 -0.02 3.00
-1.27 -0.19 1.90
2.89 1.14 3.10
0.66 4.11 -0.38
1.11 0.53 2.99
-1.10 4.20 -1.22
-2.23 0.79 1.46
-4.05 1.05 -0.14
2.53 6.01 -1.00
-3.34 0.13 1.31
2.94 -1.63 6.05
-0.77 2.73 -0.04
1.90 7.00 -1.08
0.10 4.79 -0.69
0.82 5.24 -0.57
-0.33 -0.17 2.82
-4.58 -1.93 1.83
-1.66 5.96 -2.45
1.47 -3.08 6.11
2.35 2.30 2.12
2.64 0.46 4.01
-0.70 -0.65 2.04
4.49 2.03 3.07
-4.00 4.81 -2.61
-4.38 -0.93 1.12
-5.11 0.45 -0.01
-1.63 -0.43 2.34
1.20 4.71 -0.06
-2.81 -1.56 2.65
0.95 1.37 2.67
-1.03 -1.58 3.37
3.49 2.85 2.51
2.68 0.07 3.43
-3.48 3.68 -2.21
1.67 1.17 2.71
0.98 -0.22 2.77
1.51 -1.88 4.93
-3.01 0.51 0.58
-0.75 1.39 1.80
0.08 -2.72 5.14
-2.35 1.07 0.14
0.79 3.15 1.61
-2.21 -2.45 3.16
2.25 5.93 -0.80
1.21 2.76 1.97
-2.61 0.40 1.22
-2.97 1.67 -0.20
2.67 2.51 2.38
-2.91 1.76 0.38
-0.63 2.23 0.26
-2.43 -0.42 1.61
1.75 4.51 0.68
1.95 5.06 -0.09
-2.79 5.06 -2.17
2.87 5.66 -0.05
-1.24 -3.21 3.67
-2.95 1.67 0.26
-5.60 2.12 -2.08
-4.13 0.77 0.50
-2.58 -0.72 2.07
-4.46 5.76 -3.08
1.78 1.72 2.68
-3.00 -0.63 1.67
3.33 2.18 3.30
3.76 4.33 1.16
-1.87 3.96 -0.95
-1.60 2.07 0.48
2.89 -0.30 3.82
-1.49 3.07 -0.92
-3.85 -3.83 4.03
-0.82 0.51 1.79
2.10 4.23 1.24
-0.08 -1.67 3.33
-3.51 3.02 -1.20
-3.47 -3.14 2.96
4.40 4.10 1.95
-1.60 -1.35 2.60
0.01 -0.46 2.71
-4.23 -1.82 1.72
-1.24 -1.45 3.20
-1.05 2.29 0.46
5.06 2.67 3.02
0.70 0.91 1.86
-2.67 3.75 -0.81
0.73 0.82 2.14
-1.91 0.56 0.88
-0.90 -0.74 3.11
-6.11 2.01 -2.04
-3.11 -1.75 2.56
-0.43 -0.38 2.50
-1.76 -1.01 2.49
1.26 3.96 0.64
-0.88 -0.09 1.95
-3.75 0.52 -0.01
-4.82 -2.79 2.24
-0.63 1.94 0.81
0.95 1.41 1.86
1.72 1.05 3.10
1.66 2.93 0.77
-1.01 4.16 -0.34
2.80 1.66 3.79
-4.21 0.20 0.08
-2.83 -1.07 2.41
-2.09 -1.23 2.34
-1.10 -3.79 4.90
-1.51 2.06 0.78
0.62 6.19 -1.22
-4.73 -1.95 1.52
0.32 6.13 -1.74
0.07 -0.31 3.24
2.97 -0.46 3.68
2.92 2.84 2.57
-0.39 -1.56 3.75
-5.76 -0.32 -0.30
-2.20 -2.05 3.11
0.58 -3.05 5.09
0.31 5.34 -0.84
-0.66 3.23 -0.44
-4.29 -3.28 3.22
1.23 3.45 0.61
-5.64 -0.26 -0.74
-5.39 -2.56 1.99
-2.64 1.03 1.06
-2.09 0.86 0.56
-0.95 1.10 0.96
-1.38 1.77 0.90
2.54 -1.12 4.27
3.23 2.38 2.64
0.49 -0.96 3.54
-3.77 1.41 -0.39
3.51 2.94 2.30
2.95 -2.24 5.55
-6.33 -1.39 0.64
0.28 1.67 1.73
-3.23 -1.24 1.92
-6.06 0.83 -1.20
1.41 4.57 -0.37
-0.75 -0.00 2.09
-3.92 -3.15 2.99
-3.64 5.56 -2.70
-3.10 4.38 -2.12
3.16 0.83 3.72
-4.33 -0.48 0.69
-2.27 4.56 -2.01
-0.60 1.10 0.96
-4.58 0.63 0.45
3.30 1.82 2.92
-0.66 1.41 1.55
2.81 0.24 3.64
0.54 2.96 0.94
-0.00 -1.03 3.03
-2.01 -2.59 3.83
-0.57 -0.38 2.87
-0.51 -4.35 5.41
0.03 1.50 1.34
-2.45 1.53 0.75
-4.72 2.43 -1.67
-0.30 2.71 -0.23
-2.46 1.37 0.68
1.62 5.54 -0.61
-0.81 4.61 -1.15
-2.61 -2.55 2.89
-2.96 0.04 0.44
1.26 2.72 0.90
0.85 0.14 3.03
0.01 0.73 1.18
-3.50 -1.23 1.53
-5.31 -1.43 0.66
3.24 0.56 3.97
3.87 2.89 2.63
-3.08 0.37 0.40
-0.36 2.87 1.04
-4.84 1.17 -0.63
0.74 -3.26 4.92
1.99 3.01 1.08
1.40 2.73 0.84
0.21 0.52 3.11
-1.17 1.82 1.61
3.26 0.50 4.84
-0.84 -0.50 2.04
0.45 -0.01 2.48
4.13 2.36 2.39
-5.61 -1.72 1.36
0.82 0.00 2.34
-1.73 -0.10 2.33
1.42 2.04 1.71
-3.38 -0.68 1.37
-0.90 4.36 -0.61
0.22 -1.56 4.58
-1.96 0.68 0.85
-4.59 0.70 0.36
-6.20 0.41 -0.56
-2.13 -2.75 2.87
-2.05 2.35 -0.42
-3.88 3.71 -1.82
2.68 1.47 2.63
3.06 0.28 3.32
-4.38 -2.45 2.79
-2.60 -1.13 2.73
0.89 0.42 3.01
3.86 5.80 1.11
-0.68 -2.83 4.03
0.70 3.87 -0.17
2.16 -1.98 5.29
-1.51 2.80 -0.43
2.01 0.86 3.39
0.80 3.62 -0.02
-2.72 -1.51 2.48
0.92 4.84 -0.91
-0.13 4.27 -0.50
2.16 3.87 1.67
1.14 2.90 0.96
3.45 5.42 0.62
1.14 -3.05 6.30
-5.95 -2.06 1.03
-2.95 -1.68 2.73
-4.36 2.08 -0.78
-0.06 2.31 0.98
-0.70 -1.59 3.40
2.54 2.24 2.67
3.40 2.14 3.09
-1.27 0.74 2.28
-5.11 -2.74 1.43
-0.08 3.17 0.04
-4.68 0.87 -0.22
-1.91 -2.45 3.30
-2.74 -2.29 3.17
0.90 6.35 -1.46
-1.23 5.60 -2.49
-1.14 3.86 -0.79
-4.44 -1.62 0.68
1.51 -0.42 2.79
-1.21 1.82 1.26
-1.68 6.27 -2.55
1.78 3.72 1.12
1.01 -0.59 4.09
-1.03 -4.01 4.30
-0.50 0.60 1.86
-3.05 -1.78 2.52
3.24 1.16 3.50
1.00 -2.52 5.07
-4.00 3.45 -2.31
2.93 0.25 4.34
3.37 1.47 3.06
2.05 1.43 2.64
-0.91 0.04 1.85
2.24 -1.30 4.60
3.50 -1.96 5.68
2.55 4.74 0.82
2.80 2.86 2.35
2.46 5.81 -0.57
-6.50 -1.02 -0.12
-1.95 3.03 -0.97
-5.76 0.47 -0.36
-1.02 1.73 0.77
-6.29 1.02 -0.61
-2.65 3.46 -0.87
2.24 0.36 3.51
-1.99 -1.21 1.55
0.76 2.33 1.25
-5.29 -1.81 1.75
2.67 1.09 3.72
-2.79 2.31 -0.71
-4.47 0.13 0.43
-0.79 0.25 1.45
2.68 0.82 2.95
4.24 5.58 1.03
2.42 4.71 0.64
-2.55 -3.11 3.53
-2.68 -1.00 1.90
2.81 -0.03 4.04
-4.07 -1.12 1.39
2.12 -0.42 3.80
0.34 -0.47 3.21
1.48 5.58 0.16
5.01 2.58 2.89
3.33 5.78 -0.14
1.23 -1.38 4.11
2.45 2.80 2.26
-2.05 2.61 0.20
1.69 0.38 3.75
4.55 0.27 5.05
-3.94 4.64 -2.57
2.28 4.53 0.46
0.78 1.80 1.72
0.07 4.99 -0.91
-0.73 2.05 0.84
2.23 -1.24 4.20
1.56 4.76 -0.15
-1.30 -0.10 1.86
0.11 -2.19 3.77
2.57 4.17 1.57
-5.97 -2.42 1.22
-3.97 -1.05 1.10
1.60 3.31 1.41
-1.22 4.61 -1.43
-1.81 1.93 0.28
-0.05 2.41 1.37
-2.92 -0.56 1.96
-3.68 1.38 -0.67
2.15 0.20 3.00
-3.72 2.94 -1.62
-4.28 -2.14 2.32
2.20 2.63 2.50
-4.31 2.83 -1.03
-0.14 2.38 0.46
0.48 -2.77 4.59
-1.08 3.79 -0.88
3.07 1.20 3.25
3.05 -0.08 4.10
2.92 2.37 1.81
2.55 6.23 -0.69
-3.17 -2.67 2.72
2.55 -3.21 6.82
-5.14 -0.54 0.38
2.44 -2.52 5.28
3.48 1.29 3.76
4.15 2.73 2.91
4.18 4.00 1.74
-2.71 3.08 -0.26
1.90 4.83 -0.22
-4.97 2.58 -1.62
4.62 4.85 0.66
0.97 2.06 2.17
1.07 -0.60 3.43
2.48 1.04 2.83
1.80 1.35 2.60
2.79 1.68 3.40
-2.06 5.56 -2.81
-3.80 -0.79 0.99
0.42 0.77 2.53
2.49 2.12 2.54
-3.70 -2.12 2.31
-3.74 -2.25 3.12
1.32 -0.50 3.98
3.70 5.11 1.00
-3.49 -0.45 0.91
-2.35 -1.08 1.95
2.70 2.05 2.31
1.76 2.42 1.56
0.05 1.65 1.15
1.74 1.64 2.46
4.35 2.21 2.97
-0.87 -0.63 3.03
1.42 -0.62 3.82
-2.86 0.08 1.08
1.71 3.16 1.03
-0.18 2.77 0.81
-4.54 1.88 -1.56
-3.91 0.07 0.96
-1.40 1.32 0.48
0.29 2.98 1.07
-3.42 -3.88 3.79
-1.57 5.94 -2.65
-7.06 -0.84 -0.15
1.12 1.15 2.67
1.26 4.06 0.34
-2.78 3.79 -2.17
-4.43 3.51 -2.54
1.09 -1.88 4.28
-4.25 -4.36 3.56
-5.24 -1.46 0.50
1.07 0.56 2.28
1.95 1.56 2.20
-1.09 0.20 1.89
4.23 2.55 2.86
-3.78 0.79 0.49
-2.82 -0.99 2.01
-3.14 2.99 -0.73
-4.57 -2.67 2.49
2.54 0.50 4.49
1.47 3.07 1.33
2.26 -0.77 -2.67
1.84 -2.50 -2.52
2.37 -0.79 2.29
1.03 0.69 -5.18
0.35 6.15 -3.85
0.99 4.54 0.80
2.86 -4.78 3.52
1.84 -2.11 -4.53
0.84 3.26 -2.05
1.87 -1.79 -3.46
2.65 -3.44 -2.55
2.88 -5.37 -4.38
2.50 -0.90 1.85
1.28 -0.35 -3.95
0.34 5.16 -4.60
3.09 -4.69 -0.83
2.22 -4.46 -0.94
2.33 -1.05 3.63
1.51 4.16 1.54
1.70 -1.82 -1.60
2.26 -3.70 -0.54
1.38 2.08 -1.97
1.63 0.78 2.20
1.03 4.29 2.88
2.61 -3.62 -3.19
2.23 -2.33 -1.32
1.38 0.86 -0.72
1.09 3.85 -1.82
1.85 0.73 2.60
2.06 -1.46 4.04
1.06 1.91 0.65
1.35 0.35 -2.34
2.93 -1.77 3.68
2.25 -3.89 -2.70
1.45 2.06 -1.40
1.11 0.55 -3.06
1.02 4.06 1.06
1.02 5.06 1.92
1.58 -1.02 -3.60
1.44 0.70 2.59
0.95 4.22 -0.20
2.08 -0.35 3.01
2.52 -1.22 1.53
2.94 -5.23 1.79
0.80 1.78 -2.27
1.90 -0.11 1.37
2.34 -2.33 2.41
1.56 -2.10 -3.69
2.69 -2.95 -1.83
2.05 -0.28 0.51
2.56 -2.09 -0.05
2.69 -3.05 -0.28
2.43 -2.65 -4.89
1.77 -1.03 -2.82
2.38 -3.02 3.52
1.86 -0.96 0.23
0.71 5.36 -3.36
2.73 -4.93 4.24
1.91 -1.93 -3.83
2.71 -2.68 2.70
0.91 4.29 -3.33
1.11 -0.96 -5.10
1.46 2.37 0.92
2.39 -2.79 0.29
1.21 2.95 1.83
1.65 -2.01 -4.58
1.26 3.56 2.40
0.51 5.65 2.97
2.54 -1.98 3.20
2.26 -2.87 -0.57
2.20 -2.88 0.60
1.74 -1.92 -2.70
1.72 2.66 3.84
0.49 5.04 -2.89
1.49 3.03 1.77
1.83 -0.89 -3.96
2.62 -3.83 3.13
0.75 5.11 3.48
2.31 -1.96 -4.40
2.08 -0.24 -1.68
1.46 3.32 0.45
1.75 -0.10 1.34
1.32 2.35 -1.89
2.64 -3.24 -2.21
2.12 -2.79 0.75
1.31 4.98 3.77
2.53 -1.85 3.29
1.22 3.33 2.88
0.90 4.48 -1.48
1.41 1.96 1.07
2.19 -0.40 4.34
2.13 -1.10 2.90
1.04 0.40 -3.29
1.67 0.20 -0.64
1.43 3.84 -1.64
2.23 -0.34 -0.59
0.99 5.42 -1.90
1.80 0.97 -2.35
1.94 -1.88 -2.05
1.54 1.06 1.48
1.23 0.19 -4.04
1.67 0.21 0.01
2.52 -2.53 4.48
1.45 -0.14 0.88
3.10 -4.76 -1.27
1.57 2.35 3.06
1.96 -1.64 -1.08
3.13 -3.55 1.18
1.52 3.00 -0.99
1.21 1.66 0.59
1.53 2.27 3.60
1.47 0.08 -4.36
1.94 -1.08 -2.59
1.62 -3.19 -5.55
2.55 -5.47 -4.14
1.77 1.38 4.43
1.59 0.54 -2.67
0.91 4.56 1.85
1.95 0.91 2.79
2.61 -0.90 0.33
2.22 -4.03 0.21
2.35 -0.70 0.43
0.87 5.57 -1.15
2.73 -3.14 3.05
1.82 1.03 4.47
0.85 5.89 3.36
2.35 -0.90 -0.24
2.31 -2.90 1.78
1.72 -1.25 2.21
1.19 1.64 -1.76
1.41 -0.29 -3.45
1.29 3.99 -1.40
0.94 3.81 4.27
1.15 4.07 -2.15
1.25 -1.06 -4.60
1.44 3.94 4.60
1.77 1.50 3.51
2.49 -3.40 0.03
2.45 -4.54 0.35
2.39 -1.17 2.79
1.54 2.37 2.07
1.32 3.22 3.02
1.72 -2.73 -4.36
2.44 -3.73 -3.22
2.41 -2.71 -0.45
2.07 -1.69 -1.32
2.75 -4.17 3.57
1.03 4.74 3.24
2.80 -3.94 1.10
1.46 1.60 0.09
1.31 1.89 -4.21
1.05 4.16 2.16
2.21 0.49 2.90
2.37 -1.75 3.63
1.61 0.25 0.74
1.53 0.30 1.86
1.20 1.64 -1.50
2.52 -3.29 -4.13
1.77 -2.00 -2.36
3.55 -4.14 4.15
0.99 2.30 -4.37
2.31 -4.09 1.88
2.27 -3.17 1.46
2.34 -3.87 -2.29
0.53 3.61 -3.11
1.41 2.74 2.89
1.33 0.16 -3.65
1.21 1.02 -3.61
0.49 3.61 -1.30
2.10 -1.20 -1.59
0.93 4.63 -2.45
2.41 -2.50 2.95
1.68 0.86 3.86
1.83 0.97 3.26
1.73 -0.37 3.15
2.13 -1.87 0.33
0.76 4.83 -4.79
0.99 3.78 2.12
1.31 4.45 -2.37
1.93 -2.98 -4.43
1.52 2.53 -1.74
0.80 4.54 -4.07
0.92 3.89 -1.39
1.30 1.23 -1.48
1.56 -0.52 -5.06
1.97 0.87 -2.54
1.87 -1.80 -2.88
2.90 -3.80 4.45
1.26 1.29 3.25
1.99 1.46 2.27
1.51 0.82 -4.26
1.28 1.73 1.86
2.29 -1.73 -2.14
2.19 -3.05 -2.81
1.67 -0.38 0.11
2.36 -3.26 -2.95
1.95 -2.11 -3.98
1.12 3.37 -2.57
1.32 4.99 4.11
0.85 4.79 0.30
0.89 1.51 -3.00
2.12 -0.78 -2.05
1.08 2.06 1.84
2.24 0.19 0.10
1.43 -0.72 -1.63
0.97 4.32 -1.87
1.55 0.64 1.37
1.72 0.16 2.07
2.29 -3.15 -2.34
1.27 1.85 -0.61
2.69 -3.38 -4.08
2.25 -0.34 2.63
1.42 0.60 -0.05
1.14 3.51 4.29
1.14 0.72 -1.42
1.91 -2.55 0.09
1.10 5.31 1.36
1.93 0.56 2.22
3.33 -3.59 3.95
2.29 -3.36 -4.71
1.36 0.41 -0.82
0.59 4.33 -3.40
1.36 3.33 1.28
1.37 2.65 -1.65
2.42 0.82 3.62
2.93 -2.84 4.54
2.17 1.43 3.09
2.76 -2.80 -0.16
3.12 -4.37 0.47
0.83 5.89 -0.53
1.95 -1.10 0.88
2.67 -4.70 -2.47
1.74 0.40 -1.03
0.75 1.91 -3.66
0.76 2.22 -2.96
1.41 -1.44 -3.29
1.98 -1.57 2.70
1.35 2.70 -2.76
1.82 1.34 1.86
0.60 2.28 -2.31
1.77 -0.53 -2.90
1.54 4.45 4.62
1.29 2.70 1.65
2.49 -3.40 4.53
2.54 -3.05 0.54
1.65 -2.30 -5.25
0.81 0.69 -3.98
1.68 -1.73 -2.26
3.13 -4.70 0.17
1.67 -2.44 -4.94
1.52 0.24 1.17
2.86 -2.20 2.51
1.04 2.21 0.03
1.83 1.61 0.02
1.62 1.55 1.06
1.44 3.04 -0.30
3.09 -4.55 0.86
1.18 5.68 1.85
1.38 4.33 1.29
2.17 0.08 0.11
1.92 2.57 3.09
2.07 -3.73 -2.92
1.55 1.19 0.51
2.35 -3.85 3.13
2.13 -1.58 -2.83
2.11 -3.14 -0.82
2.04 1.75 1.02
1.74 0.86 0.31
1.59 -1.83 -3.04
0.35 4.78 -0.98
1.87 -0.59 -2.94
1.60 -0.36 1.49
1.67 1.32 1.64
1.09 4.55 -0.45
2.28 -2.62 -3.26
0.38 4.21 -1.49
1.36 4.04 3.20
1.46 2.95 -0.58
1.48 0.20 1.11
1.08 0.83 -1.23
1.84 1.97 4.70
0.44 3.33 -3.35
1.14 4.03 1.14
0.37 4.52 -0.67
0.97 2.16 -4.16
0.97 3.44 2.46
2.47 -2.90 -2.76
1.37 3.83 4.74
1.87 -2.21 -4.71
2.10 -2.82 -1.16
2.07 -2.12 0.31
2.38 -3.58 -0.65
2.11 -1.08 -1.57
2.53 -3.32 3.52
1.47 0.68 1.60
1.90 -1.08 0.70
0.72 2.53 -4.97
1.17 3.47 4.28
0.75 4.41 0.07
1.95 -0.38 3.86
1.00 3.63 5.17
1.91 -2.30 -1.05
1.18 2.07 -1.70
1.66 2.60 3.30
0.54 4.90 2.17
1.66 0.13 -1.03
1.40 -0.33 -1.60
0.23 5.39 -0.28
1.91 -1.77 2.39
2.72 -3.05 -0.68
0.80 4.25 -4.20
1.03 2.78 -3.41
2.57 -3.08 2.85
0.43 5.17 -0.68
2.20 -4.02 -0.06
1.74 -3.33 -3.64
3.08 -3.36 3.79
1.04 2.96 1.02
1.79 2.96 3.10
1.36 0.61 -3.36
1.09 1.48 -2.41
1.79 -0.34 1.72
2.23 -2.10 0.60
2.83 -2.76 2.47
1.90 -0.18 1.52
1.39 1.70 -1.19
1.86 -0.32 -3.30
2.33 -2.36 -0.99
1.20 3.63 1.81
1.90 -0.67 -0.26
1.28 4.62 1.23
0.68 2.57 -4.68
1.68 1.15 1.83
2.25 -1.99 -2.10
2.82 -3.41 -1.86
0.26 5.11 -4.95
2.26 -3.07 -2.93
0.53 5.35 -3.46
1.92 -3.13 -3.41
2.13 -2.88 -0.80
0.19 5.01 -3.85
3.46 -4.02 4.11
3.21 -4.31 3.61
0.88 3.24 -1.95
1.60 2.10 4.17
1.00 4.69 3.10
2.12 -3.62 1.58
2.64 -0.45 4.34
1.76 3.54 3.69
2.51 -3.62 1.97
1.32 -0.81 -3.19
0.23 4.88 -2.63
1.22 4.32 -0.80
3.11 -4.32 4.48
1.43 3.84 -0.63
1.54 0.31 -5.09
0.56 5.13 -0.83
1.28 4.03 1.96
1.13 3.20 -3.22
2.39 -0.37 3.03
0.98 1.38 -1.13
1.44 3.87 1.26
1.67 1.94 3.53
0.85 3.65 -0.12
2.85 -3.11 -0.12
2.27 -4.28 -1.54
0.95 3.16 0.20
1.51 -2.58 -3.33
2.93 -2.13 2.56
1.94 -0.71 4.19
1.40 3.90 4.63
2.37 -2.12 -0.78
1.14 2.39 -3.68
1.06 4.58 -2.30
1.61 1.54 -0.99
0.89 4.37 -2.57
1.08 1.58 -1.37
2.19 -1.09 -0.11
1.29 4.26 1.45
1.05 0.44 -5.34
0.70 3.74 -5.17
2.54 -1.79 -0.84
1.43 2.66 -2.69
2.14 -4.31 0.10
0.66 4.43 -2.80
1.08 3.87 2.30
0.88 5.32 -0.63
2.04 0.45 3.53
1.26 0.98 -5.00
1.32 4.06 0.07
2.31 -1.09 -0.59
1.92 -1.97 -2.63
2.06 -4.17 -1.13
2.04 -3.87 -2.24
1.93 1.75 0.69
1.18 2.53 -4.65
1.92 -0.61 2.01
1.99 -1.18 2.61
2.25 -3.27 0.03
0.87 4.59 3.98
1.52 1.00 0.98
1.46 2.28 -0.72
1.56 -0.11 -1.17
1.71 3.05 1.69
1.95 0.59 0.42
1.80 0.17 1.27
1.67 0.27 -2.73
1.50 2.57 -2.70
1.48 1.03 -1.57
2.46 -2.32 -2.58
0.76 0.29 -5.29
1.74 2.84 2.01
1.98 1.44 0.53
2.62 -2.37 -0.27
2.40 -2.52 0.83
1.72 2.47 0.94
1.09 3.19 3.54
1.77 -1.08 1.99
1.15 4.37 -2.00
2.26 -3.99 -4.07
1.28 5.33 3.38
2.07 -0.77 1.97
2.14 -1.84 -4.27
2.11 0.41 1.14
3.26 -2.54 4.59
2.48 -3.39 1.90
1.35 -1.92 -4.80
2.44 -0.79 -0.38
1.54 1.99 -4.34
1.54 2.60 3.97
2.16 -2.56 4.08
2.40 -0.43 0.45
2.53 -3.67 1.30
1.57 -0.29 -2.65
0.80 4.21 -0.88
2.08 -2.24 -5.34
1.42 -2.57 -4.37
2.01 -1.27 1.92
2.61 -3.73 3.36
2.92 -2.96 4.62
2.55 -4.66 -3.27
1.24 2.23 -1.39
2.31 -2.41 0.64
2.48 -4.64 -3.08
2.03 -0.69 -4.51
2.31 -2.79 3.67
1.48 0.55 -4.31
0.67 4.05 -3.21
1.59 2.23 4.46
0.85 3.20 -0.23
0.92 4.52 -3.57
1.13 4.85 -3.01
2.26 -1.47 0.83
1.01 4.47 1.47
1.97 -3.19 -4.55
0.96 1.07 -3.48
2.13 -0.95 0.88
1.04 3.34 -3.42
2.08 1.11 0.56
1.97 3.13 3.16
2.28 1.00 3.95
1.50 0.71 -3.85
1.57 0.90 0.61
2.61 -3.48 2.84
2.49 -4.67 -2.18
0.28 4.62 -3.94
1.70 -3.29 -2.78
1.36 0.40 0.16
0.83 5.70 2.41
1.75 -0.64 -1.96
1.60 -1.23 -0.26
0.39 4.43 -1.68
2.08 0.12 3.66
1.95 -3.62 -3.25
1.78 -0.77 -2.97
0.63 5.11 1.76
0.75 2.49 -3.86
1.86 -2.86 -2.22
1.31 -0.83 -2.48
1.74 1.21 3.13
2.62 -5.12 1.98
2.68 -4.04 -2.82
0.97 3.93 -0.25
2.24 -1.68 4.45
1.76 -2.28 -1.69
1.27 3.17 -4.48
1.24 2.62 -4.82
2.58 -2.83 -2.67
2.72 -2.75 4.10
1.61 2.21 4.31
2.27 1.74 3.59
2.47 -0.35 0.94
1.74 -2.20 -2.90
0.82 2.86 -4.38
2.25 1.38 2.31
3.12 -3.74 3.48
2.36 -1.74 -0.25
1.92 -0.68 -1.19
2.26 -1.50 -0.93
2.43 -0.89 3.95
2.51 -1.94 4.35
1.16 2.95 -4.94
0.44 3.58 -3.12
1.75 -1.60 -1.92
1.26 5.11 0.76
0.94 4.61 -2.19
2.50 -1.85 1.40
2.35 -1.52 4.72
1.78 -0.18 2.65
1.48 4.13 4.24
1.36 -0.17 -0.76
0.80 2.49 -3.83
2.71 -1.06 3.70
2.20 -1.09 -2.67
0.76 4.66 1.22
1.43 1.71 2.01
2.57 -2.66 2.89
1.03 4.50 -2.18
1.97 -1.88 -1.59
0.73 3.26 -2.72
0.87 2.35 -0.53
2.23 -2.87 -3.17
1.50 1.89 4.02
2.50 -3.89 -5.25
1.08 4.00 -2.54
1.41 2.93 -2.88
2.74 -2.15 -0.09
2.69 -1.30 5.00
1.29 2.36 1.13
1.62 0.77 2.35
2.07 -1.18 -0.44
2.30 -3.67 -4.74
1.41 -0.65 -2.05
2.10 0.54 4.57
1.26 4.36 -0.02
1.45 1.69 4.59
2.79 -4.97 -3.55
1.85 -0.09 -2.14
1.78 0.54 1.88
1.53 -2.32 -4.02
0.91 3.59 0.14
1.26 1.86 1.56
1.11 -0.32 -4.02
2.16 -4.05 -3.20
2.00 -2.13 2.83
1.77 2.42 1.93
1.44 2.32 -0.88
2.99 -2.76 4.33
1.27 3.58 -2.37
1.83 -0.87 3.42
1.13 5.20 4.60
1.44 3.06 -3.13
2.26 -1.01 3.97
2.19 1.68 3.91
2.09 -2.39 -0.61
2.34 -3.00 -0.73
2.65 -3.96 0.82
2.07 0.13 3.55
2.44 -1.08 0.44
2.23 -2.75 -1.69
2.20 -0.87 2.77
1.80 2.17 0.44
2.52 -0.12 3.98
0.98 2.70 -3.03
1.03 3.84 -5.02
2.15 -1.65 -1.28
1.06 4.30 1.76
1.46 0.45 -4.73
2.29 -3.42 -5.28
0.75 2.49 -2.45
0.50 1.95 -5.02
1.24 2.85 -0.27
1.43 0.01 -5.27
1.35 -0.78 -3.93
1.19 -0.04 -3.92
2.66 -4.73 -2.16
1.62 0.36 -2.52
2.84 -2.24 3.18
2.30 -2.73 2.68
1.24 3.12 -2.51
1.78 -1.03 -4.98
1.65 2.19 3.43
2.41 -0.18 2.67
1.79 0.73 -1.85
1.63 0.47 1.10
1.62 1.06 0.29
1.94 -1.11 4.00
2.35 -0.62 -0.17
1.26 2.84 1.56
0.70 5.06 -1.57
0.03 5.39 -2.50
1.59 5.13 4.32
1.85 -2.10 -3.59
0.55 5.04 -5.04
0.76 4.29 -1.75
1.29 4.77 1.67
0.68 3.41 -1.62
0.39 3.74 -3.01
1.17 1.80 2.45
2.74 -3.58 4.64
3.40 -3.99 4.43
1.68 -1.63 -2.65
0.89 1.61 -4.48
0.31 4.03 -4.26
1.79 1.64 4.11
1.20 4.93 3.48
2.11 -0.60 1.35
0.67 5.02 -2.67
2.30 -1.95 4.77
1.78 1.08 2.29
1.67 -0.07 -4.63
2.15 -4.65 -4.41
1.10 1.20 -4.39
1.95 -2.48 -4.87
1.52 1.53 -1.72
1.03 2.64 -1.20
2.75 -2.82 1.38
2.49 -2.45 3.44
1.51 3.12 -0.76
1.09 1.27 0.28
2.74 -3.28 -2.51
1.82 -1.35 0.53
1.27 0.17 -4.77
1.77 -0.65 0.91
2.54 -0.02 2.30
2.71 -2.30 2.87
1.50 -2.26 -5.36
1.12 3.18 0.52
1.23 4.19 0.23
1.47 -0.25 0.66
2.29 -3.26 -4.98
2.30 -2.56 2.07
1.18 4.99 4.56
2.13 -2.57 2.70
0.66 5.36 3.52
1.97 -1.60 0.45
1.30 3.27 2.99
2.57 -4.81 -1.02
2.44 -0.76 2.87
2.65 -3.94 4.23
2.23 -0.61 -1.28
1.77 0.51 2.15
2.14 -0.72 0.69
2.21 -0.65 -1.95
2.70 -2.81 4.57
1.66 1.09 2.61
1.08 2.10 1.07
1.71 0.06 3.30
2.49 -1.88 3.24
2.01 -0.19 5.01
0.94 1.81 -3.65
1.41 3.40 1.67
1.04 1.60 -2.36
1.57 2.63 -2.84
0.37 5.09 -3.69
2.93 -3.61 -0.50
1.70 4.92 3.73
2.46 -4.81 -1.77
1.58 1.27 -5.66
1.45 -0.90 -2.62
1.89 -1.64 3.23
2.64 -2.76 0.23
0.38 4.26 -2.58
1.03 0.89 -4.04
1.55 0.45 -0.65
2.45 -2.64 2.85
1.97 0.39 2.64
1.08 3.58 -4.93
1.65 1.37 3.08
1.04 2.15 2.48
2.06 -3.42 -2.91
2.01 0.11 2.00
2.29 -0.31 4.93
2.06 -0.18 -0.42
1.69 0.30 3.70
2.17 -0.15 0.24
1.47 1.49 -2.85
2.88 -4.61 -0.06
1.70 1.22 -2.47
0.98 4.99 -4.12
2.84 -2.90 0.50
1.36 1.23 1.06
1.68 0.40 -5.29
2.75 -4.21 -3.44
2.02 -0.34 -2.80
0.91 3.40 -0.46
2.46 -1.52 1.00
1.52 -0.90 -1.58
1.23 3.42 -3.16
2.07 1.55 3.66
1.08 3.59 4.84
1.67 3.01 2.41
1.63 0.62 0.37
0.79 2.12 -4.36
1.05 4.30 -0.67
1.07 1.38 -5.07
3.36 -4.29 4.38
2.68 -4.32 -0.79
0.29 2.88 -5.09
1.38 4.90 3.52
2.25 -4.99 -3.43
1.93 -2.35 -5.27
2.42 -3.21 3.99
1.74 -1.59 -4.49
2.30 -2.80 2.48
0.45 4.43 0.30
0.78 1.79 -1.69
1.54 0.47 -1.73
2.29 -3.99 -3.46
1.59 -1.99 -1.92
2.47 -0.48 2.16
2.78 -1.90 4.49
2.24 -2.49 -1.20
1.43 1.35 3.79
1.57 1.76 1.18
2.91 -2.36 3.92
1.43 3.40 0.47
1.67 0.27 0.11
1.59 2.69 -0.38
1.33 3.03 -3.94
1.60 0.73 0.41
0.43 4.35 -0.27
2.57 -1.27 1.66
2.72 -2.97 3.86
1.51 -0.05 -1.17
2.28 -2.09 -4.58
2.15 -1.34 -1.49
2.01 0.18 3.28
2.89 -2.66 3.14
0.66 4.85 1.99
1.46 3.48 0.86
2.38 -3.45 -3.47
0.76 4.72 -3.29
0.94 3.49 -4.72
2.14 -4.63 -4.28
2.67 -3.30 1.56
2.32 -1.92 -0.55
0.98 1.40 -4.73
1.64 -2.75 -3.70
1.44 1.52 -1.43
2.20 -2.65 2.97
1.90 -0.89 -0.97
1.35 2.49 4.08
2.33 -0.56 3.43
1.00 3.54 -2.75
2.01 -2.95 -0.93
1.49 1.87 -2.72
0.63 3.84 -2.33
2.29 -4.05 -3.21
0.69 4.61 0.85
0.92 3.08 2.72
1.29 1.69 -1.97
1.44 2.31 2.18
0.47 4.33 -3.23
0.79 1.96 -4.47
2.52 -2.61 2.68
1.86 -0.03 1.60
1.38 4.06 3.25
2.54 -1.99 3.75
1.70 -0.91 -4.73
1.49 -2.73 -4.37
1.62 0.71 -4.45
1.44 5.08 1.82
2.62 -1.64 2.63
1.33 1.53 -3.69
1.89 -1.36 1.20
1.27 -1.32 -5.01
1.39 0.05 -0.35
0.63 3.94 -3.70
2.02 -1.45 -2.58
2.25 1.53 4.01
1.28 1.56 -3.23
2.29 -4.03 2.63
0.94 3.21 -0.60
2.60 -3.68 -2.99
0.96 2.32 -0.66
1.40 0.23 -5.36
3.23 -3.54 3.34
2.06 -1.20 1.95
0.52 5.62 -2.87
1.12 3.64 -2.34
1.82 0.48 1.70
1.68 -0.56 -1.93
1.61 -1.12 -0.27
1.68 -1.29 -0.13
1.00 2.48 1.20
2.91 -1.59 4.88
0.16 5.55 -1.48
2.71 -2.08 1.11
0.82 5.14 -4.97
1.94 -1.08 -3.36
3.41 -4.19 3.70
1.19 3.36 4.63
0.98 4.75 -1.70
0.92 3.70 -1.53
1.12 4.21 -2.65
0.23 4.64 -1.31
2.09 -1.44 1.57
1.13 4.27 0.49
2.33 -3.42 -3.43
1.75 -1.78 -0.24
2.25 -3.16 -1.37
2.28 -2.69 4.54
1.06 4.14 -3.67
1.54 2.47 2.53
2.38 -4.57 1.06
0.97 3.66 0.41
3.16 -4.96 0.19
0.95 3.72 2.49
1.19 2.22 -0.77
1.71 -1.62 1.78
2.73 -2.01 3.31
1.20 0.92 -1.45
2.29 -2.51 3.71
1.58 2.33 1.22
1.78 0.50 -2.14
1.23 3.08 -5.78
1.71 -2.34 -5.36
2.41 -0.51 4.20
2.10 0.93 3.77
1.46 2.08 -4.09
2.54 -4.54 -0.47
1.53 0.63 0.30
2.53 -4.59 2.12
2.20 -2.48 4.00
2.78 -1.55 4.11
2.51 -2.95 -3.32
2.79 -3.40 0.73
3.27 -4.14 3.16
2.03 -1.37 3.04
2.67 -3.61 3.69
1.91 0.68 -0.11
0.69 2.02 -3.18
0.74 2.78 -2.09
2.16 -0.88 1.15
1.32 1.54 1.70
1.41 2.73 1.32
1.93 0.58 2.41
2.54 -2.37 3.90
1.95 -0.55 1.36
2.55 -3.50 0.11
1.86 -1.41 -1.78
1.71 2.73 2.79
0.84 5.37 4.62
1.83 -0.48 -4.19
2.08 -0.41 0.71
1.49 0.92 1.76
1.89 1.40 2.38
2.41 -4.63 -1.74
1.05 2.04 -3.31
2.27 -1.42 0.08
1.96 -0.06 2.15
2.01 -4.56 -4.54
1.21 0.31 -2.81
2.41 -3.46 3.38
1.69 -1.42 -0.60
0.93 3.57 4.66
0.89 2.20 -5.22
2.52 -1.47 -0.22
2.35 -0.11 0.18
1.83 2.88 3.24
2.15 -2.23 4.97
0.73 5.21 5.01
1.73 1.24 -0.29
2.45 -1.00 4.45
2.46 -3.30 -1.50
2.56 -1.97 0.51
1.37 4.27 0.78
1.74 -0.44 -1.89
1.27 4.45 2.89
1.11 3.06 4.08
1.60 0.13 -1.25
2.08 1.48 3.90
1.40 3.46 1.63
2.77 -4.20 -1.34
2.30 -0.11 0.10
2.50 -2.91 -3.30
0.89 1.91 -4.63
0.70 4.50 2.59
1.52 -0.68 1.62
1.79 -0.95 -0.68
2.54 -2.36 0.64
2.16 1.23 3.53
1.40 3.48 1.12
2.39 -0.85 2.96
0.81 2.18 -1.20
1.23 2.57 2.38
2.26 -4.23 -4.22
1.60 -0.88 -0.39
1.67 0.52 3.50
1.96 -2.75 -4.12
2.48 -3.39 3.27
1.81 2.16 1.45
0.80 2.68 -1.59
1.16 4.83 -0.89
0.94 2.66 2.28
1.57 -2.17 -3.05
1.26 1.12 0.11
2.42 -2.38 1.39
1.41 3.90 3.00
1.14 2.00 1.16
2.48 -1.20 1.19
1.47 4.25 4.54
1.64 -2.13 -3.57
2.39 -4.24 1.58
1.35 1.89 -2.52
1.77 -1.67 -5.31
2.07 -3.82 -3.79
0.84 2.47 -1.43
1.53 2.67 0.80
1.54 -2.27 -4.18
1.67 0.55 -2.08
1.54 2.46 -4.28
2.12 -1.44 -2.75
1.83 -3.91 -5.23
2.00 0.95 -2.66
0.25 4.54 -3.64
0.85 4.84 0.79
0.33 4.00 -4.58
2.04 -2.12 -4.47
2.48 -3.73 -1.66
1.39 0.86 -3.03
0.57 4.35 0.73
0.85 2.03 -3.24
1.19 3.23 -4.18
0.70 5.57 3.92
2.11 1.11 3.61
1.75 -2.33 -1.13
1.36 2.58 1.37
1.72 -1.00 -0.86
2.03 -1.17 1.57
2.19 0.81 4.68
1.30 3.78 4.97
1.00 1.85 -0.03
2.01 -0.13 4.84
1.46 0.70 2.62
2.11 -0.36 3.38
0.80 5.88 -1.22
0.21 5.24 -1.63
1.45 -1.52 -3.16
1.28 1.91 -5.08
2.09 2.63 4.25
0.97 2.52 -3.87
1.59 4.00 2.61
2.34 -1.57 3.72
0.44 4.38 -4.49
2.53 -1.62 -0.20
1.90 -0.25 3.01
2.70 -2.88 4.64
2.10 2.39 4.98
2.07 -2.50 3.86
1.75 -1.91 -4.95
0.96 3.59 -1.58
0.53 2.58 -4.79
2.14 -0.95 -0.28
2.69 -4.63 4.60
1.29 2.46 -3.09
2.21 -3.37 1.41
1.52 1.46 -0.68
1.23 3.25 0.84
1.73 0.37 -2.57
2.09 0.37 0.13
2.29 -3.53 -2.52
1.35 2.82 -2.00
1.94 1.29 4.23
1.55 1.27 -4.81
2.35 -1.43 4.38
2.08 0.22 -3.21
0.69 3.06 -2.55
0.69 2.95 -1.82
2.72 -2.07 4.37
1.59 3.00 3.01
0.96 1.55 -1.26
3.13 -5.54 4.10
1.09 4.73 -0.98
2.02 -0.58 1.44
1.92 -1.16 -2.52
1.32 2.17 -4.48
1.95 1.12 2.35
1.55 -1.39 -2.47
2.45 -3.43 2.66
0.58 5.26 -2.14
1.44 3.25 2.51
2.64 -2.08 -1.43
0.88 3.20 -4.48
3.05 -3.68 2.70
2.37 -3.56 -4.03
1.96 -3.92 -4.77
1.84 2.78 2.46
1.30 1.83 -5.13
1.49 3.06 4.24
0.83 4.80 1.11
0.92 0.76 -3.50
1.61 2.45 0.08
2.18 -1.86 -1.29
2.91 -3.11 3.85
1.49 0.12 -3.19
0.90 3.56 -3.58
0.27 -3.82 -6.28
5.94 -2.18 -0.54
-0.15 -3.90 -5.98
2.49 3.77 -3.44
0.62 2.20 -4.94
3.27 1.09 -2.61
4.50 1.38 -1.51
4.37 1.30 -1.32
3.58 -2.08 -3.32
1.05 -0.06 -5.17
5.32 5.41 -0.17
4.69 -0.95 -1.82
1.74 1.01 -4.16
-0.61 -3.83 -6.90
1.54 0.61 -3.71
0.31 1.96 -5.42
3.12 -0.80 -3.26
4.72 -1.87 -1.00
0.49 2.48 -5.76
6.51 -0.50 0.46
-1.05 3.23 -6.21
1.37 4.84 -3.41
3.91 0.29 -2.50
1.15 -0.03 -4.49
3.22 1.81 -2.20
2.68 1.55 -3.43
2.46 -1.31 -3.83
3.93 -2.85 -2.96
5.54 3.89 0.25
5.82 -3.82 -1.30
3.30 2.43 -1.85
4.65 3.45 -0.84
2.68 -4.08 -3.49
1.53 1.43 -4.18
5.22 0.57 -1.15
-2.18 4.67 -7.23
0.90 2.08 -4.92
1.57 -4.31 -5.48
4.44 -0.27 -1.71
2.14 -0.69 -3.84
2.90 3.64 -2.35
0.30 3.31 -5.71
0.98 -3.20 -5.53
5.23 2.19 -0.74
3.90 0.23 -2.54
0.88 -2.02 -5.17
4.02 3.85 -1.84
3.41 0.37 -2.10
2.97 2.29 -2.79
4.70 -1.49 -1.51
1.27 -1.50 -4.26
4.43 3.90 -1.83
-0.17 0.10 -5.64
1.59 -2.81 -4.47
3.14 2.86 -2.39
-0.78 2.70 -6.08
1.28 -1.35 -4.77
3.59 -2.87 -2.81
5.73 4.68 0.09
2.49 0.09 -3.87
-1.56 -1.25 -6.95
0.94 -1.32 -5.34
-0.58 1.18 -5.55
1.26 -4.34 -5.08
0.60 4.61 -4.30
5.95 3.15 0.39
1.43 1.16 -3.54
1.58 -2.95 -5.02
2.30 -3.23 -3.63
-0.26 4.85 -5.33
2.55 4.60 -3.55
1.58 -1.81 -4.68
-0.68 3.09 -6.19
3.76 0.54 -1.78
3.07 -0.18 -2.93
0.30 -0.73 -5.81
6.16 -1.40 -0.76
5.76 0.91 -0.26
2.15 3.67 -3.74
3.66 1.40 -2.31
2.75 -0.36 -3.25
2.43 0.10 -2.88
0.88 -0.09 -4.33
5.33 -0.47 -1.36
5.23 -2.73 -1.82
4.13 1.54 -2.14
1.13 -0.58 -4.60
2.44 4.05 -3.64
1.63 1.37 -3.91
3.06 2.27 -2.56
1.35 4.93 -3.94
-0.65 0.62 -5.72
3.37 5.15 -1.98
4.96 0.47 -0.45
5.84 -4.57 -1.06
0.49 -2.61 -5.39
0.34 -4.09 -6.84
2.21 1.62 -3.94
6.01 0.46 0.23
0.23 0.62 -5.34
0.63 0.11 -5.39
6.84 3.14 0.57
1.55 0.69 -4.02
2.95 -2.79 -3.59
6.33 -2.26 -0.57
2.58 3.37 -3.18
0.47 -3.70 -6.41
3.63 0.99 -1.95
2.94 1.20 -3.08
2.42 -3.61 -3.87
6.92 0.49 0.87
1.97 0.63 -4.70
5.18 3.56 -0.09
3.92 -2.25 -3.03
5.73 -1.16 -0.52
-1.81 1.49 -7.18
4.81 0.40 -1.10
2.68 -0.51 -3.11
7.52 -1.79 0.30
2.50 1.01 -2.97
4.21 0.77 -1.31
6.39 2.94 0.99
0.54 4.38 -3.98
2.89 -1.54 -3.45
4.93 -2.32 -1.62
3.59 3.48 -2.35
3.16 -0.44 -3.60
3.27 -2.85 -3.09
1.48 -3.42 -4.64
4.44 1.45 -1.51
-2.08 1.78 -7.07
1.97 -0.06 -3.48
-0.03 -4.32 -6.78
4.78 -1.86 -1.86
0.75 0.44 -4.84
2.87 3.19 -2.45
1.22 1.28 -4.51
5.34 -1.55 -0.77
2.46 -2.70 -3.70
6.21 1.10 0.66
3.16 5.04 -1.56
1.71 4.08 -4.18
5.00 0.57 -1.32
4.22 -2.90 -2.90
2.34 0.79 -3.94
-0.78 -1.44 -6.63
1.10 -0.20 -5.16
3.20 2.18 -2.56
-1.10 2.81 -6.18
4.61 -3.52 -1.53
1.25 -2.79 -5.49
1.38 -3.56 -5.30
5.30 -4.35 -1.79
2.33 5.11 -2.31
3.79 -2.33 -2.83
-1.24 -0.25 -7.67
0.22 1.95 -4.50
2.12 0.38 -3.59
2.81 -0.87 -2.60
3.90 -3.88 -3.33
3.87 -1.98 -2.60
4.38 -0.83 -1.95
4.48 -3.26 -2.93
7.10 3.91 1.31
1.35 -2.19 -4.78
2.47 2.23 -3.13
5.58 -4.39 -1.32
6.35 -3.26 -0.83
2.57 -2.61 -3.42
3.82 0.66 -2.86
0.86 1.28 -4.60
2.70 -3.79 -3.30
3.39 -4.89 -3.72
5.31 -0.40 -0.75
1.95 -1.28 -3.93
2.22 2.71 -3.30
4.09 3.96 -2.04
2.51 -0.57 -4.53
2.84 -2.19 -3.98
3.10 0.47 -3.40
4.79 -3.55 -2.47
3.32 1.24 -2.44
3.85 -1.00 -2.52
0.75 -3.31 -5.76
7.13 2.88 1.46
0.08 0.66 -5.70
3.89 -0.52 -3.23
2.12 0.63 -3.88
0.90 5.71 -3.83
2.23 -1.03 -4.76
-1.24 3.81 -5.61
1.36 -0.57 -4.68
1.31 -3.17 -5.46
3.94 -1.97 -2.73
3.30 -0.14 -2.72
3.63 -0.61 -2.64
3.01 -4.85 -3.74
3.51 -0.63 -2.68
2.60 5.22 -2.99
0.84 -1.93 -4.84
1.90 1.45 -4.17
4.66 3.07 -1.46
3.21 -2.96 -2.67
-2.41 2.98 -7.11
2.90 3.89 -2.93
-1.24 1.35 -6.85
2.70 -4.04 -3.96
2.82 -2.59 -3.04
-0.18 1.18 -5.47
1.82 4.15 -3.34
4.89 0.47 -0.67
6.30 3.69 0.46
2.55 4.01 -2.57
4.51 0.65 -1.79
7.37 3.51 1.08
1.51 2.16 -4.64
1.51 -0.32 -4.90
-0.35 0.92 -6.37
2.36 2.09 -3.54
0.25 0.44 -5.97
0.90 -0.40 -5.06
3.29 -1.36 -3.43
6.42 -3.46 0.04
6.43 -2.59 -0.04
0.90 3.05 -4.02
0.38 2.64 -5.62
1.66 1.38 -4.55
0.42 0.46 -5.05
3.06 -1.81 -3.82
2.75 -1.47 -3.89
-0.93 0.88 -6.77
3.61 0.97 -2.81
2.02 -1.93 -3.53
5.49 0.66 -0.59
2.38 1.67 -3.57
0.14 1.85 -5.40
1.89 4.21 -3.78
1.42 2.26 -4.04
1.76 -1.64 -4.85
5.75 0.62 -1.13
7.32 -2.84 0.10
3.83 3.46 -1.93
2.46 1.32 -2.56
1.32 3.37 -4.23
1.52 -2.40 -5.25
0.74 1.74 -5.67
1.17 -1.35 -4.44
1.68 -4.06 -4.75
2.71 0.40 -3.42
2.93 -4.31 -4.22
1.03 -2.61 -5.81
1.79 -1.15 -4.04
2.72 2.77 -3.13
5.11 1.29 -1.28
3.35 1.78 -1.61
7.32 0.47 0.41
6.40 0.84 0.75
3.58 -2.37 -2.96
-0.01 -2.22 -5.42
1.58 4.74 -4.02
3.16 5.05 -2.57
3.66 4.84 -2.03
5.61 0.55 -0.43
6.78 4.01 0.46
-0.47 -0.96 -6.44
4.91 -2.36 -1.07
0.45 3.17 -4.96
-1.18 5.32 -6.69
4.10 -1.76 -2.50
-0.08 -4.51 -6.71
1.77 4.51 -3.89
6.83 -3.32 -0.42
3.49 -2.81 -3.49
1.02 0.52 -4.61
5.99 -1.83 -0.19
4.28 -3.40 -2.74
3.53 0.89 -2.00
3.63 4.54 -1.69
3.30 -2.56 -3.25
4.67 4.60 -1.25
1.79 0.11 -4.49
7.64 4.88 1.96
5.24 4.77 -0.89
3.75 0.49 -2.54
0.67 -1.67 -5.34
1.83 2.04 -4.08
5.09 -1.01 -1.76
3.46 -4.62 -2.92
7.40 -1.87 1.44
2.21 0.40 -4.51
3.80 -1.86 -2.90
-0.63 5.08 -5.66
2.01 -0.45 -4.79
3.26 5.03 -2.02
2.00 -0.69 -4.64
2.40 -2.14 -4.38
-1.06 -3.45 -7.48
-0.20 5.18 -5.47
6.24 -2.30 -0.34
3.59 4.39 -2.28
4.98 0.31 -0.70
0.41 0.62 -5.63
2.30 -1.08 -3.83
3.10 -2.30 -3.45
-0.33 3.63 -6.22
1.58 4.39 -4.32
3.89 3.18 -1.68
2.70 3.24 -2.59
2.73 2.69 -3.03
3.83 -0.66 -2.55
7.18 1.85 1.57
5.40 -0.91 -0.78
1.83 4.00 -4.07
6.51 0.29 -0.30
4.78 -1.56 -1.37
1.82 -3.14 -4.52
1.63 3.99 -4.37
-0.06 5.69 -4.93
-0.64 -0.74 -5.98
4.80 -1.83 -2.00
5.02 -0.04 -0.96
2.01 -0.39 -4.67
2.34 -1.43 -3.70
4.51 0.44 -2.19
2.74 -3.76 -3.55
4.11 -1.21 -2.63
4.52 -0.44 -2.55
4.81 3.22 -1.05
4.15 3.65 -1.18
2.45 1.58 -3.40
1.35 5.55 -3.79
0.55 3.87 -4.55
6.79 -2.68 0.18
3.71 -2.88 -2.47
-0.26 -0.31 -6.23
6.63 -1.71 -0.04
-0.35 3.33 -5.94
2.32 5.15 -3.06
3.95 -1.62 -3.20
-1.30 0.44 -7.04
0.60 -0.86 -5.50
5.43 3.00 -0.23
0.09 -3.48 -6.23
0.93 0.61 -4.86
3.56 -1.46 -3.26
7.94 -2.88 1.00
1.04 3.51 -3.67
4.77 -4.46 -2.11
5.00 2.86 -0.95
3.90 -3.14 -3.54
5.95 -4.21 -0.93
1.07 4.24 -4.29
0.06 3.90 -5.60
3.80 -2.25 -2.56
4.04 -0.05 -2.21
4.67 1.53 -0.42
2.95 -3.09 -3.25
0.14 -0.95 -5.91
2.36 2.10 -3.18
4.80 2.90 -0.88
2.26 -1.16 -3.97
1.44 1.97 -3.62
1.75 0.91 -3.53
-0.29 4.46 -5.89
0.56 1.09 -4.65
2.10 3.94 -3.31
-1.13 -0.81 -7.53
5.68 2.28 -0.77
1.76 -3.96 -5.14
1.84 4.68 -3.54
5.27 -3.02 -2.23
-1.01 -3.28 -7.48
1.01 1.12 -5.25
6.26 4.52 0.19
5.59 -3.83 -0.74
1.07 0.63 -4.37
1.98 2.22 -4.06
-0.96 5.44 -5.39
4.12 0.47 -1.50
2.94 4.82 -2.71
2.25 4.65 -2.62
0.10 -3.54 -5.63
0.96 -0.38 -5.42
1.90 2.81 -3.99
0.30 -0.05 -6.13
2.51 2.74 -2.45
2.85 0.23 -3.80
0.99 0.65 -5.21
2.60 2.55 -2.39
3.93 -4.49 -3.27
1.85 -2.69 -4.33
2.55 3.25 -3.28
5.21 -2.55 -1.23
1.92 4.17 -3.02
4.52 5.67 -1.16
4.11 0.71 -1.91
4.09 -4.33 -2.80
5.14 -0.68 -1.26
0.26 -1.24 -6.10
3.94 4.48 -2.23
7.36 1.55 1.08
-1.72 0.34 -7.71
2.76 -4.91 -4.57
-0.47 4.47 -4.93
3.59 2.28 -3.08
7.20 2.77 1.01
-0.86 4.01 -5.55
4.90 0.15 -0.94
4.53 -2.24 -1.27
3.37 -1.24 -3.34
4.44 2.52 -1.60
-0.54 2.69 -6.20
-1.91 4.96 -7.08
2.99 -3.28 -3.58
4.46 -0.68 -1.89
1.19 -0.21 -5.22
6.24 3.94 -0.06
3.94 -3.37 -3.26
2.09 1.73 -4.02
4.65 3.62 -1.69
4.00 3.48 -1.15
0.57 -3.82 -6.10
7.44 2.72 0.56
3.15 -0.81 -3.48
3.34 -4.49 -3.16
2.00 -0.98 -4.28
4.51 -1.66 -1.17
-0.51 -3.54 -7.65
5.74 -2.59 -0.60
-2.00 3.73 -7.00
0.04 1.87 -5.33
4.24 3.50 -0.49
3.08 -0.07 -3.44
3.51 -4.02 -3.86
3.09 1.51 -2.49
6.15 -0.85 -1.20
5.07 -1.85 -1.70
7.14 0.20 0.23
-0.26 -0.56 -6.01
4.70 0.05 -1.59
0.88 1.28 -4.89
5.88 1.62 -0.07
3.97 3.70 -1.48
3.64 5.41 -1.89
0.99 -0.97 -5.01
4.33 1.72 -1.25
0.85 0.88 -4.65
6.02 -1.63 -1.03
1.08 2.73 -4.03
1.85 -3.07 -5.25
1.69 -0.83 -4.21
6.36 4.50 0.53
4.00 -0.92 -2.52
1.11 5.78 -3.96
3.43 -2.55 -3.14
3.01 -3.47 -3.06
1.94 2.05 -3.18
3.09 -2.34 -3.04
1.78 2.35 -4.47
3.59 -3.05 -3.11
3.30 4.09 -1.76
2.28 4.45 -3.08
4.33 4.33 -1.09
6.72 4.07 1.32
5.02 -2.68 -1.80
3.10 -3.27 -3.53
1.78 3.74 -3.54
0.50 -1.87 -5.43
-1.10 3.79 -6.60
1.34 4.02 -4.23
5.16 4.62 -0.20
-0.90 -1.88 -6.86
6.15 -0.28 -0.60
1.66 0.46 -4.81
0.93 1.03 -4.57
6.88 4.79 1.11
3.29 1.92 -1.92
-0.25 1.24 -5.95
0.81 -0.77 -4.83
5.14 2.06 -0.50
-1.29 0.46 -7.14
1.37 -1.69 -5.20
5.09 2.75 -0.78
2.58 0.76 -2.94
4.89 -2.05 -1.65
0.32 2.63 -4.72
3.76 0.99 -2.54
2.54 4.45 -3.67
1.39 2.94 -3.80
3.45 -3.72 -2.90
3.22 -3.17 -3.43
5.79 -3.72 -0.95
4.91 1.56 -0.41
7.30 -0.26 1.02
2.96 4.82 -2.56
0.06 -1.61 -6.05
2.79 3.96 -3.11
3.90 -1.31 -2.46
3.70 0.40 -2.34
0.97 -2.10 -5.84
-0.93 2.99 -6.74
0.75 2.28 -4.45
-0.01 1.44 -5.54
2.95 -3.84 -3.56
2.85 3.42 -2.38
3.50 -1.83 -2.88
1.86 0.99 -4.11
6.62 -1.00 0.58
3.47 -3.28 -3.00
-0.48 -3.52 -7.58
4.38 -1.87 -1.99
-1.36 -4.15 -7.57
0.52 2.71 -4.90
5.87 -0.68 -0.60
1.15 4.55 -4.23
1.09 -0.27 -4.43
5.15 -0.92 -0.97
7.02 2.88 1.14
2.00 -0.34 -4.35
-0.00 1.95 -5.11
1.31 -1.69 -4.21
2.00 -2.69 -4.76
0.85 5.20 -4.67
8.07 -2.63 1.51
-0.15 -1.27 -5.54
3.66 -1.73 -2.50
3.86 -3.50 -3.17
4.72 1.62 -1.96
-0.44 4.74 -5.72
1.56 -0.15 -4.73
1.41 4.92 -4.20
1.75 -3.61 -4.64
0.24 1.45 -5.65
3.26 1.63 -3.09
6.02 0.77 -0.88
-2.47 -2.53 -8.48
-0.38 -1.52 -6.74
3.86 2.37 -1.89
3.95 -3.55 -2.15
-0.51 -0.52 -6.05
5.11 -1.11 -1.05
7.60 -3.23 0.49
6.56 0.79 0.50
3.68 -1.58 -2.09
2.98 -4.63 -3.61
1.30 0.73 -4.61
4.92 4.76 -0.93
3.70 -0.13 -2.19
0.53 -1.23 -5.11
2.78 -2.52 -3.23
4.25 4.24 -1.38
5.27 -3.92 -1.70
3.91 3.62 -1.77
4.51 -4.29 -2.42
-1.94 5.29 -6.56
3.59 0.59 -3.22
2.77 4.01 -2.95
5.40 -2.98 -1.46
4.07 3.79 -2.35
4.11 -3.67 -2.52
4.64 4.60 -0.64
0.97 -3.25 -5.52
2.77 -0.81 -2.95
2.32 3.10 -3.82
-0.67 -4.10 -7.31
3.45 5.34 -1.96
3.94 -2.37 -2.82
1.02 -2.17 -4.58
-2.02 3.60 -6.56
3.24 -0.67 -2.92
3.55 1.67 -1.92
-0.25 1.02 -6.42
5.55 -2.94 -0.72
-1.79 3.95 -6.50
2.75 -4.16 -3.97
0.25 -2.37 -6.31
6.85 -0.11 -0.09
4.86 -1.88 -1.08
4.15 1.25 -1.72
3.87 2.64 -1.96
-0.16 4.82 -4.83
-1.75 -3.67 -7.40
3.23 0.14 -2.68
0.95 2.08 -4.88
2.28 -0.41 -4.58
0.93 -4.63 -5.70
2.86 5.79 -1.85
7.10 -3.63 -0.71
-0.51 -2.50 -6.04
5.39 -2.48 -1.28
5.02 -2.70 -1.42
1.46 -4.49 -5.10
7.46 -3.95 0.55
3.28 -2.18 -3.64
1.56 -3.92 -5.19
2.96 1.07 -3.06
1.85 -3.36 -4.39
0.20 3.03 -5.71
3.89 -0.64 -3.16
6.34 4.71 0.38
2.00 3.97 -3.07
2.16 0.94 -3.06
3.30 -4.54 -3.32
5.07 5.06 0.15
-0.15 -3.91 -6.15
0.32 -3.47 -5.56
6.88 -1.28 -0.33
5.90 1.70 -0.04
1.11 4.00 -3.93
-0.63 2.89 -5.47
3.18 1.63 -2.80
2.02 -0.19 -4.10
1.30 -2.57 -5.65
-0.47 4.56 -4.89
2.65 -2.69 -3.42
3.41 -2.69 -3.35
5.45 -0.45 -0.99
1.71 4.12 -3.75
4.15 2.68 -1.77
3.21 -1.92 -2.87
0.85 3.28 -4.26
3.67 3.90 -1.07
-0.61 -3.41 -6.73
3.62 -3.02 -2.79
1.64 3.83 -3.46
3.81 1.19 -2.05
1.90 3.88 -4.14
3.57 2.91 -2.05
1.91 2.69 -4.38
5.38 4.51 -0.21
4.39 0.83 -1.36
2.50 2.49 -3.30
3.35 -3.48 -3.72
3.09 2.07 -2.48
4.12 5.34 -1.51
1.77 -4.00 -4.23
4.52 2.20 -0.84
2.22 3.65 -3.60
5.55 3.29 -0.07
3.27 1.88 -3.39
4.37 3.13 -2.13
3.17 0.52 -2.53
6.19 0.63 0.37
4.95 -4.73 -2.74
6.48 -0.84 0.37
6.83 0.70 0.68
1.39 -3.45 -5.75
0.58 -4.05 -5.20
6.79 -0.64 -0.00
2.89 3.34 -2.29
0.95 4.78 -4.55
2.48 5.07 -2.66
2.79 -3.33 -4.36
0.67 -2.36 -5.38
3.86 2.39 -1.58
3.10 4.79 -2.26
3.33 0.61 -2.57
4.76 5.32 0.09
4.64 0.93 -2.26
3.07 0.15 -2.33
2.67 2.31 -3.03
5.18 -1.49 -1.47
5.74 -0.24 -0.09
4.82 -2.43 -2.54
0.90 4.73 -4.71
4.54 2.87 -1.34
2.19 -3.42 -4.40
0.11 3.91 -5.13
2.11 1.77 -3.90
0.42 -3.08 -5.89
7.76 -2.12 0.62
4.38 5.28 -0.97
2.94 5.19 -1.85
2.59 -2.00 -3.85
3.66 4.47 -1.44
2.88 3.52 -2.64
0.55 -0.74 -6.26
1.56 4.05 -4.34
-0.11 -0.55 -6.27
2.81 -1.08 -3.95
2.39 2.86 -3.70
2.98 2.30 -2.91
3.41 2.75 -1.53
6.05 2.73 -0.27
4.24 -3.96 -2.68
3.17 3.69 -2.06
1.34 -0.54 -4.24
7.20 -3.69 -0.23
2.44 -3.54 -4.79
5.07 -2.43 -1.89
4.49 4.83 -0.34
3.50 -2.75 -2.38
1.92 2.07 -3.71
-0.71 5.39 -6.15
-1.09 -0.85 -6.81
1.87 2.79 -3.54
5.37 2.47 -0.89
1.89 -2.80 -4.81
2.77 2.76 -3.47
0.96 4.49 -3.98
3.22 2.58 -3.02
4.17 0.02 -2.05
0.57 4.27 -4.37
3.67 -3.07 -3.38
1.50 0.25 -4.50
1.72 1.88 -4.27
2.10 -2.30 -4.45
1.21 2.22 -4.19
3.40 -3.32 -3.73
2.07 4.79 -2.46
3.34 5.47 -2.31
4.27 -2.82 -2.55
0.55 3.53 -4.81
4.09 -0.58 -1.96
6.05 -4.28 -0.91
5.51 0.12 -0.78
1.41 4.44 -4.10
0.13 1.59 -6.13
5.51 -4.83 -1.34
4.44 4.01 -1.95
1.13 1.81 -4.71
1.04 2.66 -4.97
2.73 0.09 -2.92
0.96 2.82 -4.15
4.63 2.28 -1.19
1.54 4.13 -4.59
3.59 -4.04 -3.13
1.06 -3.55 -6.12
0.87 -0.60 -4.94
5.25 2.28 -0.41
4.81 -3.45 -1.80
-0.04 2.18 -5.49
6.00 -4.54 -0.99
3.20 4.57 -1.85
1.20 -1.79 -4.95
4.85 -3.60 -2.19
4.64 -0.04 -1.60
2.76 -2.58 -4.08
0.09 -1.41 -5.60
-1.35 2.34 -6.66
5.28 3.86 0.03
5.20 -3.41 -0.80
2.98 4.31 -2.14
5.15 1.25 -0.58
1.35 2.02 -4.10
-0.60 -1.44 -6.35
4.39 -3.93 -2.44
4.78 3.42 -0.76
-0.21 -0.42 -5.71
2.84 -0.89 -2.77
2.79 -0.22 -3.44
-1.04 4.39 -6.30
7.33 1.76 1.22
2.96 2.09 -3.08
4.37 0.34 -1.71
3.39 2.63 -2.16
3.31 3.39 -2.47
1.88 2.46 -4.26
3.50 4.74 -2.49
3.31 -1.93 -2.78
2.90 -2.06 -2.98
2.67 -3.67 -4.05
1.58 0.07 -4.56
5.13 1.66 -0.82
-0.67 -4.28 -7.05
0.56 2.87 -5.05
2.05 -1.10 -4.20
5.66 -2.52 -0.54
3.83 2.45 -2.11
4.60 1.60 -1.72
-0.17 5.37 -5.23
3.59 4.99 -1.51
3.09 2.52 -1.94
-1.44 0.18 -6.36
0.31 -2.88 -5.39
3.20 -3.85 -3.25
6.70 -3.73 -0.11
3.31 4.55 -2.78
0.02 -1.94 -6.72
4.05 -0.74 -2.83
-0.48 4.36 -5.20
4.88 1.79 -0.71
0.64 -1.31 -6.26
2.65 3.07 -3.24
3.66 4.58 -2.66
6.78 -3.60 -0.86
4.16 -3.16 -2.88
5.84 -0.66 -0.81
3.59 -2.72 -2.76
3.81 3.80 -1.79
4.98 -3.94 -1.80
1.55 5.50 -3.24
-0.46 -1.78 -6.77
2.48 4.51 -3.42
3.17 1.98 -2.73
4.30 1.34 -1.83
3.63 -3.09 -2.48
0.75 6.03 -4.14
3.29 2.98 -2.21
3.51 1.88 -1.91
-0.78 3.31 -6.00
2.23 0.85 -3.12
3.28 5.68 -1.55
1.34 1.04 -4.27
5.15 2.43 -0.57
0.57 5.16 -4.41
-1.62 -1.89 -7.59
2.34 -2.62 -3.89
5.50 2.43 -0.09
3.16 -1.78 -2.69
1.62 5.17 -3.62
2.80 4.18 -2.87
4.19 2.71 -2.08
5.64 -2.06 -1.25
-2.03 3.72 -6.77
1.39 0.94 -4.36
2.13 1.76 -3.68
3.57 2.92 -1.70
0.26 4.23 -5.83
2.07 1.30 -4.08
1.01 4.70 -4.45
2.62 -3.86 -4.32
0.28 1.48 -5.77
4.98 2.07 -0.69
4.18 2.26 -1.76
5.68 -0.52 -1.17
3.36 -3.50 -3.38
0.88 -3.30 -5.84
1.82 -1.36 -4.67
6.84 -0.69 0.46
5.52 1.74 -1.23
3.99 -4.22 -2.89
3.08 3.17 -2.45
2.42 -3.53 -4.16
2.53 -1.81 -3.06
-0.99 4.41 -6.12
-1.88 0.44 -7.83
6.82 -3.37 -0.10
1.84 5.27 -4.17
5.10 2.97 -0.39
4.72 1.06 -1.30
1.90 1.07 -3.77
6.53 -4.52 -0.25
5.76 5.49 0.76
2.31 -2.18 -3.88
5.99 -1.54 -1.09
-1.65 4.17 -6.04
2.13 2.98 -3.09
5.31 1.63 -0.47
2.88 5.02 -2.94
4.79 1.38 -1.46
2.78 2.01 -2.93
3.31 -3.14 -3.31
2.94 3.33 -2.74
3.12 2.17 -2.58
4.91 4.66 -0.29
3.95 0.80 -2.06
2.92 -3.76 -4.10
2.63 0.65 -3.13
0.59 -0.11 -5.08
3.74 -3.77 -2.51
-0.41 -3.61 -6.86
3.10 -3.54 -3.17
1.15 -2.29 -4.26
0.42 2.50 -5.46
-1.36 4.60 -6.18
2.83 1.25 -3.15
6.79 -0.64 -0.52
5.46 5.33 -0.37
2.94 5.69 -2.70
4.16 4.62 -1.23
4.54 -4.40 -2.70
3.86 -4.21 -2.40
5.96 -4.56 -1.20
3.43 -3.89 -2.33
-0.11 4.10 -5.37
5.10 -0.17 -0.85
1.12 1.28 -5.38
3.43 4.78 -2.13
6.27 -3.47 0.01
2.32 0.27 -3.03
6.14 0.90 0.40
3.79 -1.33 -3.25
5.73 5.24 0.01
-0.32 1.54 -6.26
4.00 1.21 -1.96
2.87 -3.42 -3.64
3.02 5.51 -2.81
0.54 0.93 -5.03
-2.00 4.16 -7.32
3.60 -0.70 -2.48
2.76 4.52 -3.28
0.10 2.96 -5.60
0.09 -0.29 -5.80
2.52 2.56 -2.93
-0.54 -1.78 -6.50
-0.97 -2.22 -7.13
5.35 -2.44 -1.35
5.91 -0.79 -0.65
3.27 -1.78 -2.60
4.05 -0.06 -2.10
2.02 3.63 -2.86
5.42 0.03 -1.20
2.72 0.78 -2.75
3.30 4.54 -2.39
2.82 2.63 -2.82
1.72 3.19 -4.19
-0.50 -0.63 -5.97
3.85 -0.48 -2.77
4.36 -3.10 -1.93
2.54 4.47 -2.98
2.18 -0.82 -3.57
0.64 -2.47 -5.66
2.18 5.56 -3.06
3.89 -0.88 -2.69
5.24 -1.26 -1.07
3.52 3.95 -2.19
3.83 3.28 -1.43
5.00 1.07 -0.79
5.42 -3.53 -1.01
1.89 5.52 -3.15
-0.11 3.03 -4.91
1.03 1.19 -4.85
1.52 -0.50 -5.28
1.67 -3.79 -5.03
0.10 -0.28 -6.58
4.63 2.06 -1.30
4.78 2.14 -0.99
0.60 -2.53 -5.38
2.66 -3.26 -4.38
-0.89 -3.11 -6.93
0.54 0.76 -4.58
3.82 -1.87 -2.66
-0.43 -4.54 -7.22
5.60 -2.66 -1.21
2.80 0.11 -2.76
6.55 -3.49 -0.74
4.63 -0.27 -1.15
2.45 3.13 -2.89
1.24 2.45 -4.66
5.80 -2.94 -0.30
2.47 -0.98 -3.18
6.06 -0.99 -0.13
-0.42 -0.52 -6.26
1.38 3.85 -3.86
2.68 -1.08 -3.32
0.44 -4.31 -6.24
6.07 4.15 0.09
4.24 -4.33 -2.35
0.48 3.59 -4.51
-0.11 4.02 -5.69
1.70 -2.12 -4.63
4.35 5.46 -1.43
3.78 -2.31 -2.51
2.64 -2.91 -3.29
0.12 3.14 -5.78
2.24 0.65 -3.86
4.15 5.27 -1.37
2.26 1.69 -3.60
2.47 -0.80 -3.22
2.58 0.51 -3.76
1.44 4.62 -4.05
-0.26 -2.96 -6.38
3.23 0.34 -2.84
2.42 3.66 -2.72
6.36 -3.52 -0.76
2.28 -1.24 -3.60
2.09 -2.81 -3.82
2.16 -4.09 -4.00
4.06 -0.15 -2.22
6.35 -2.16 0.13
2.20 2.50 -3.28
3.68 -4.39 -2.40
0.01 3.95 -5.16
3.27 -4.50 -3.79
2.21 3.51 -2.78
1.74 1.39 -3.96
2.26 -3.30 -4.35
6.50 2.46 0.57
6.90 3.92 0.97
0.94 0.13 -5.02
4.99 -0.01 -0.66
3.85 1.01 -2.15
0.06 5.45 -5.02
1.86 -0.32 -3.34
4.44 0.28 -2.43
4.11 -0.04 -1.73
1.56 -2.93 -4.92
2.98 4.31 -2.42
1.61 -3.98 -5.28
3.38 4.46 -1.27
4.75 4.48 -0.63
0.26 0.08 -6.46
3.81 -2.97 -2.87
6.94 -2.70 0.65
3.07 -4.01 -3.65
3.05 1.05 -2.78
6.55 3.72 0.28
2.57 -1.24 -3.73
3.08 -4.78 -3.93
